<svg width="300" height="300" viewBox="0 0 300 300" fill="none" xmlns="http://www.w3.org/2000/svg">
<g clip-path="url(#clip0_7364_14647)">
<rect width="300" height="300" fill="white"/>
<path fill-rule="evenodd" clip-rule="evenodd" d="M152.341 259.677C7.39178 259.677 -110.073 377.05 -110.073 521.787C-110.073 666.525 7.39178 783.897 152.341 783.897C297.291 783.897 414.756 666.525 414.756 521.787C414.756 377.05 297.291 259.677 152.341 259.677ZM-153.859 521.787C-153.859 352.823 -16.7466 215.891 152.341 215.891C321.429 215.891 458.542 352.823 458.542 521.787C458.542 690.751 321.429 827.684 152.341 827.684C-16.7466 827.684 -153.859 690.751 -153.859 521.787Z" fill="#E0E0E0"/>
<g clip-path="url(#clip1_7364_14647)">
<path d="M130.459 75.666L150.826 118.26L173.601 75.666H130.459Z" stroke="black" stroke-width="1.82443" stroke-miterlimit="10"/>
<path d="M130.459 103.696V132.826C130.461 134.684 131.2 136.466 132.515 137.78C133.83 139.094 135.612 139.832 137.471 139.832H166.595C168.453 139.832 170.235 139.094 171.549 137.78C172.863 136.466 173.601 134.684 173.601 132.826V103.696C173.601 101.838 172.863 100.056 171.549 98.7419C170.235 97.4281 168.453 96.6899 166.595 96.6899H137.471C135.612 96.6899 133.83 97.4279 132.515 98.7415C131.2 100.055 130.461 101.837 130.459 103.696Z" fill="#B7B8BB"/>
<path d="M130.461 82.665C129.075 82.6638 127.721 82.2518 126.57 81.4813C125.419 80.7108 124.522 79.6162 123.992 78.3359C123.463 77.0557 123.325 75.6472 123.596 74.2886C123.867 72.9301 124.535 71.6823 125.515 70.7031C126.495 69.724 127.743 69.0573 129.102 68.7875C130.461 68.5177 131.869 68.6568 133.149 69.1872C134.429 69.7176 135.523 70.6156 136.292 71.7675C137.062 72.9195 137.473 74.2738 137.473 75.6591C137.473 76.5797 137.291 77.4912 136.939 78.3416C136.586 79.1919 136.07 79.9645 135.418 80.6152C134.767 81.2658 133.994 81.7817 133.144 82.1334C132.293 82.4851 131.381 82.6658 130.461 82.665Z" fill="black"/>
<path d="M152.03 82.1302C150.642 82.1315 149.286 81.7211 148.132 80.9511C146.978 80.1811 146.078 79.086 145.547 77.8045C145.015 76.523 144.876 75.1126 145.146 73.7519C145.417 72.3911 146.084 71.1412 147.065 70.1602C148.046 69.1792 149.296 68.5112 150.657 68.2409C152.018 67.9705 153.428 68.1099 154.71 68.6414C155.991 69.1728 157.086 70.0725 157.856 71.2265C158.626 72.3806 159.037 73.7371 159.036 75.1244C159.036 76.9825 158.297 78.7644 156.984 80.0783C155.67 81.3921 153.888 82.1302 152.03 82.1302Z" fill="black"/>
<path d="M173.6 68.6782C172.214 68.6782 170.859 69.0891 169.707 69.8589C168.555 70.6287 167.657 71.7229 167.127 73.003C166.597 74.2832 166.458 75.6918 166.728 77.0508C166.999 78.4098 167.666 79.6581 168.646 80.6379C169.625 81.6177 170.874 82.2849 172.233 82.5553C173.592 82.8256 175 82.6868 176.281 82.1566C177.561 81.6263 178.655 80.7284 179.425 79.5763C180.195 78.4242 180.605 77.0697 180.605 75.684C180.605 73.826 179.867 72.044 178.553 70.7302C177.24 69.4163 175.458 68.6782 173.6 68.6782Z" fill="black"/>
</g>
<path d="M195.367 183.455C195.339 182.734 195.456 182.014 195.713 181.339C195.969 180.664 196.359 180.048 196.859 179.527C197.36 179.007 197.96 178.592 198.624 178.31C199.289 178.027 200.003 177.881 200.725 177.881C201.447 177.881 202.162 178.027 202.826 178.31C203.491 178.592 204.091 179.007 204.591 179.527C205.092 180.048 205.482 180.664 205.738 181.339C205.994 182.014 206.112 182.734 206.083 183.455V205.72C206.112 206.441 205.994 207.161 205.738 207.836C205.482 208.511 205.092 209.127 204.591 209.648C204.091 210.169 203.491 210.583 202.826 210.866C202.162 211.149 201.447 211.294 200.725 211.294C200.003 211.294 199.289 211.149 198.624 210.866C197.96 210.583 197.36 210.169 196.859 209.648C196.359 209.127 195.969 208.511 195.713 207.836C195.456 207.161 195.339 206.441 195.367 205.72V183.455Z" fill="#E0E0E0"/>
<path d="M178.532 180.572C178.503 179.85 178.62 179.13 178.877 178.455C179.133 177.78 179.523 177.164 180.023 176.643C180.524 176.123 181.124 175.709 181.788 175.426C182.453 175.143 183.167 174.997 183.889 174.997C184.611 174.997 185.326 175.143 185.99 175.426C186.655 175.709 187.255 176.123 187.755 176.643C188.256 177.164 188.646 177.78 188.902 178.455C189.158 179.13 189.276 179.85 189.247 180.572V202.836C189.276 203.558 189.158 204.277 188.902 204.952C188.646 205.627 188.256 206.244 187.755 206.764C187.255 207.285 186.655 207.699 185.99 207.982C185.326 208.265 184.611 208.411 183.889 208.411C183.167 208.411 182.453 208.265 181.788 207.982C181.124 207.699 180.524 207.285 180.023 206.764C179.523 206.244 179.133 205.627 178.877 204.952C178.62 204.277 178.503 203.558 178.532 202.836V180.572Z" fill="#E0E0E0"/>
<path d="M161.696 179.731C161.667 179.009 161.784 178.289 162.041 177.614C162.297 176.939 162.687 176.323 163.188 175.803C163.688 175.282 164.288 174.868 164.953 174.585C165.617 174.302 166.331 174.156 167.053 174.156C167.775 174.156 168.49 174.302 169.154 174.585C169.819 174.868 170.419 175.282 170.919 175.803C171.42 176.323 171.81 176.939 172.066 177.614C172.322 178.289 172.44 179.009 172.411 179.731V201.995C172.44 202.717 172.322 203.437 172.066 204.112C171.81 204.787 171.42 205.403 170.919 205.923C170.419 206.444 169.819 206.858 169.154 207.141C168.49 207.424 167.775 207.57 167.053 207.57C166.331 207.57 165.617 207.424 164.953 207.141C164.288 206.858 163.688 206.444 163.188 205.923C162.687 205.403 162.297 204.787 162.041 204.112C161.784 203.437 161.667 202.717 161.696 201.995V179.731Z" fill="#E0E0E0"/>
<path d="M144.862 178.888C144.833 178.166 144.95 177.447 145.207 176.772C145.463 176.097 145.853 175.48 146.354 174.96C146.854 174.439 147.454 174.025 148.119 173.742C148.783 173.459 149.497 173.313 150.219 173.313C150.942 173.313 151.656 173.459 152.32 173.742C152.985 174.025 153.585 174.439 154.085 174.96C154.586 175.48 154.976 176.097 155.232 176.772C155.488 177.447 155.606 178.166 155.577 178.888V201.153C155.606 201.874 155.488 202.594 155.232 203.269C154.976 203.944 154.586 204.56 154.085 205.081C153.585 205.601 152.985 206.015 152.32 206.298C151.656 206.581 150.942 206.727 150.219 206.727C149.497 206.727 148.783 206.581 148.119 206.298C147.454 206.015 146.854 205.601 146.354 205.081C145.853 204.56 145.463 203.944 145.207 203.269C144.95 202.594 144.833 201.874 144.862 201.153V178.888Z" fill="#E0E0E0"/>
<path d="M128.026 179.731C127.997 179.009 128.115 178.289 128.371 177.614C128.627 176.939 129.017 176.323 129.518 175.803C130.018 175.282 130.618 174.868 131.283 174.585C131.947 174.302 132.662 174.156 133.384 174.156C134.106 174.156 134.82 174.302 135.484 174.585C136.149 174.868 136.749 175.282 137.249 175.803C137.75 176.323 138.14 176.939 138.396 177.614C138.653 178.289 138.77 179.009 138.741 179.731V201.995C138.77 202.717 138.653 203.437 138.396 204.112C138.14 204.787 137.75 205.403 137.249 205.923C136.749 206.444 136.149 206.858 135.484 207.141C134.82 207.424 134.106 207.57 133.384 207.57C132.662 207.57 131.947 207.424 131.283 207.141C130.618 206.858 130.018 206.444 129.518 205.923C129.017 205.403 128.627 204.787 128.371 204.112C128.115 203.437 127.997 202.717 128.026 201.995V179.731Z" fill="#E0E0E0"/>
<path d="M111.19 180.572C111.161 179.85 111.279 179.13 111.535 178.455C111.791 177.78 112.181 177.164 112.682 176.643C113.182 176.123 113.782 175.709 114.447 175.426C115.111 175.143 115.826 174.997 116.548 174.997C117.27 174.997 117.984 175.143 118.649 175.426C119.313 175.709 119.913 176.123 120.413 176.643C120.914 177.164 121.304 177.78 121.56 178.455C121.817 179.13 121.934 179.85 121.905 180.572V202.836C121.934 203.558 121.817 204.277 121.56 204.952C121.304 205.627 120.914 206.244 120.413 206.764C119.913 207.285 119.313 207.699 118.649 207.982C117.984 208.265 117.27 208.411 116.548 208.411C115.826 208.411 115.111 208.265 114.447 207.982C113.782 207.699 113.182 207.285 112.682 206.764C112.181 206.244 111.791 205.627 111.535 204.952C111.279 204.277 111.161 203.558 111.19 202.836V180.572Z" fill="#E0E0E0"/>
<path d="M94.3538 183.455C94.3252 182.734 94.4426 182.014 94.699 181.339C94.9554 180.664 95.3454 180.048 95.8458 179.527C96.3461 179.007 96.9464 178.592 97.6107 178.31C98.275 178.027 98.9896 177.881 99.7117 177.881C100.434 177.881 101.148 178.027 101.813 178.31C102.477 178.592 103.077 179.007 103.578 179.527C104.078 180.048 104.468 180.664 104.724 181.339C104.981 182.014 105.098 182.734 105.069 183.455V205.72C105.098 206.441 104.981 207.161 104.724 207.836C104.468 208.511 104.078 209.127 103.578 209.648C103.077 210.169 102.477 210.583 101.813 210.866C101.148 211.149 100.434 211.294 99.7117 211.294C98.9896 211.294 98.275 211.149 97.6107 210.866C96.9464 210.583 96.3461 210.169 95.8458 209.648C95.3454 209.127 94.9554 208.511 94.699 207.836C94.4426 207.161 94.3252 206.441 94.3538 205.72V183.455Z" fill="#E0E0E0"/>
<path d="M296.379 219.025C296.351 218.304 296.468 217.584 296.724 216.909C296.981 216.234 297.371 215.618 297.871 215.097C298.371 214.576 298.972 214.162 299.636 213.879C300.3 213.597 301.015 213.451 301.737 213.451C302.459 213.451 303.174 213.597 303.838 213.879C304.502 214.162 305.103 214.576 305.603 215.097C306.103 215.618 306.493 216.234 306.75 216.909C307.006 217.584 307.123 218.304 307.095 219.025V241.29C307.123 242.011 307.006 242.731 306.75 243.406C306.493 244.081 306.103 244.697 305.603 245.218C305.103 245.738 304.502 246.153 303.838 246.435C303.174 246.718 302.459 246.864 301.737 246.864C301.015 246.864 300.3 246.718 299.636 246.435C298.972 246.153 298.371 245.738 297.871 245.218C297.371 244.697 296.981 244.081 296.724 243.406C296.468 242.731 296.351 242.011 296.379 241.29V219.025Z" fill="#E0E0E0"/>
<path d="M279.545 210.132C279.517 209.411 279.634 208.691 279.89 208.016C280.147 207.341 280.537 206.725 281.037 206.204C281.538 205.683 282.138 205.269 282.802 204.986C283.466 204.703 284.181 204.558 284.903 204.558C285.625 204.558 286.34 204.703 287.004 204.986C287.668 205.269 288.269 205.683 288.769 206.204C289.269 206.725 289.659 207.341 289.916 208.016C290.172 208.691 290.289 209.411 290.261 210.132V232.397C290.289 233.118 290.172 233.838 289.916 234.513C289.659 235.188 289.269 235.804 288.769 236.325C288.269 236.845 287.668 237.26 287.004 237.542C286.34 237.825 285.625 237.971 284.903 237.971C284.181 237.971 283.466 237.825 282.802 237.542C282.138 237.26 281.538 236.845 281.037 236.325C280.537 235.804 280.147 235.188 279.89 234.513C279.634 233.838 279.517 233.118 279.545 232.397V210.132Z" fill="#E0E0E0"/>
<path d="M262.707 202.682C262.679 201.96 262.796 201.241 263.053 200.566C263.309 199.891 263.699 199.274 264.199 198.754C264.7 198.233 265.3 197.819 265.964 197.536C266.629 197.253 267.343 197.107 268.065 197.107C268.787 197.107 269.502 197.253 270.166 197.536C270.83 197.819 271.431 198.233 271.931 198.754C272.431 199.274 272.821 199.891 273.078 200.566C273.334 201.241 273.452 201.96 273.423 202.682V224.947C273.452 225.668 273.334 226.388 273.078 227.063C272.821 227.738 272.431 228.354 271.931 228.875C271.431 229.395 270.83 229.809 270.166 230.092C269.502 230.375 268.787 230.521 268.065 230.521C267.343 230.521 266.629 230.375 265.964 230.092C265.3 229.809 264.7 229.395 264.199 228.875C263.699 228.354 263.309 227.738 263.053 227.063C262.796 226.388 262.679 225.668 262.707 224.947V202.682Z" fill="#E0E0E0"/>
<path d="M245.873 196.673C245.845 195.951 245.962 195.231 246.219 194.556C246.475 193.881 246.865 193.265 247.365 192.745C247.866 192.224 248.466 191.81 249.13 191.527C249.795 191.244 250.509 191.098 251.231 191.098C251.953 191.098 252.668 191.244 253.332 191.527C253.996 191.81 254.597 192.224 255.097 192.745C255.597 193.265 255.987 193.881 256.244 194.556C256.5 195.231 256.618 195.951 256.589 196.673V218.937C256.618 219.659 256.5 220.379 256.244 221.054C255.987 221.728 255.597 222.345 255.097 222.865C254.597 223.386 253.996 223.8 253.332 224.083C252.668 224.366 251.953 224.512 251.231 224.512C250.509 224.512 249.795 224.366 249.13 224.083C248.466 223.8 247.866 223.386 247.365 222.865C246.865 222.345 246.475 221.728 246.219 221.054C245.962 220.379 245.845 219.659 245.873 218.937V196.673Z" fill="#E0E0E0"/>
<path d="M229.037 191.264C229.009 190.542 229.126 189.823 229.383 189.148C229.639 188.473 230.029 187.856 230.529 187.336C231.03 186.815 231.63 186.401 232.294 186.118C232.959 185.835 233.673 185.689 234.395 185.689C235.117 185.689 235.832 185.835 236.496 186.118C237.16 186.401 237.761 186.815 238.261 187.336C238.761 187.856 239.152 188.473 239.408 189.148C239.664 189.823 239.782 190.542 239.753 191.264V213.529C239.782 214.25 239.664 214.97 239.408 215.645C239.152 216.32 238.761 216.936 238.261 217.457C237.761 217.977 237.16 218.391 236.496 218.674C235.832 218.957 235.117 219.103 234.395 219.103C233.673 219.103 232.959 218.957 232.294 218.674C231.63 218.391 231.03 217.977 230.529 217.457C230.029 216.936 229.639 216.32 229.383 215.645C229.126 214.97 229.009 214.25 229.037 213.529V191.264Z" fill="#E0E0E0"/>
<path d="M212.203 186.939C212.175 186.217 212.292 185.497 212.549 184.822C212.805 184.147 213.195 183.531 213.695 183.011C214.196 182.49 214.796 182.076 215.46 181.793C216.125 181.51 216.839 181.364 217.561 181.364C218.283 181.364 218.998 181.51 219.662 181.793C220.326 182.076 220.927 182.49 221.427 183.011C221.928 183.531 222.318 184.147 222.574 184.822C222.83 185.497 222.948 186.217 222.919 186.939V209.203C222.948 209.925 222.83 210.645 222.574 211.32C222.318 211.995 221.928 212.611 221.427 213.131C220.927 213.652 220.326 214.066 219.662 214.349C218.998 214.632 218.283 214.778 217.561 214.778C216.839 214.778 216.125 214.632 215.46 214.349C214.796 214.066 214.196 213.652 213.695 213.131C213.195 212.611 212.805 211.995 212.549 211.32C212.292 210.645 212.175 209.925 212.203 209.203V186.939Z" fill="#E0E0E0"/>
<path d="M77.5198 186.939C77.4912 186.217 77.6086 185.497 77.865 184.822C78.1214 184.147 78.5114 183.531 79.0118 183.011C79.5121 182.49 80.1124 182.076 80.7767 181.793C81.441 181.51 82.1556 181.364 82.8777 181.364C83.5997 181.364 84.3143 181.51 84.9786 181.793C85.6429 182.076 86.2432 182.49 86.7436 183.011C87.2439 183.531 87.6339 184.147 87.8903 184.822C88.1467 185.497 88.2641 186.217 88.2355 186.939V209.203C88.2641 209.925 88.1467 210.645 87.8903 211.32C87.6339 211.995 87.2439 212.611 86.7436 213.131C86.2432 213.652 85.6429 214.066 84.9786 214.349C84.3143 214.632 83.5997 214.778 82.8777 214.778C82.1556 214.778 81.441 214.632 80.7767 214.349C80.1124 214.066 79.5121 213.652 79.0118 213.131C78.5114 212.611 78.1214 211.995 77.865 211.32C77.6086 210.645 77.4912 209.925 77.5198 209.203V186.939Z" fill="#E0E0E0"/>
<path d="M60.6839 191.264C60.6553 190.542 60.7727 189.823 61.0291 189.148C61.2854 188.473 61.6755 187.856 62.1758 187.336C62.6762 186.815 63.2765 186.401 63.9408 186.118C64.6051 185.835 65.3197 185.689 66.0417 185.689C66.7638 185.689 67.4783 185.835 68.1427 186.118C68.807 186.401 69.4073 186.815 69.9076 187.336C70.408 187.856 70.798 188.473 71.0544 189.148C71.3107 189.823 71.4282 190.542 71.3996 191.264V213.529C71.4282 214.25 71.3107 214.97 71.0544 215.645C70.798 216.32 70.408 216.936 69.9076 217.457C69.4073 217.977 68.807 218.391 68.1427 218.674C67.4783 218.957 66.7638 219.103 66.0417 219.103C65.3197 219.103 64.6051 218.957 63.9408 218.674C63.2765 218.391 62.6762 217.977 62.1758 217.457C61.6755 216.936 61.2854 216.32 61.0291 215.645C60.7727 214.97 60.6553 214.25 60.6839 213.529V191.264Z" fill="#E0E0E0"/>
<path d="M43.8499 196.073C43.8213 195.352 43.9387 194.632 44.1951 193.957C44.4515 193.282 44.8415 192.665 45.3419 192.145C45.8422 191.624 46.4425 191.21 47.1068 190.927C47.7711 190.644 48.4857 190.499 49.2078 190.499C49.9298 190.499 50.6444 190.644 51.3087 190.927C51.973 191.21 52.5733 191.624 53.0737 192.145C53.574 192.665 53.964 193.282 54.2204 193.957C54.4768 194.632 54.5942 195.352 54.5656 196.073V218.338C54.5942 219.059 54.4768 219.779 54.2204 220.454C53.964 221.129 53.574 221.745 53.0737 222.266C52.5733 222.786 51.973 223.2 51.3087 223.483C50.6444 223.766 49.9298 223.912 49.2078 223.912C48.4857 223.912 47.7711 223.766 47.1068 223.483C46.4425 223.2 45.8422 222.786 45.3419 222.266C44.8415 221.745 44.4515 221.129 44.1951 220.454C43.9387 219.779 43.8213 219.059 43.8499 218.338V196.073Z" fill="#E0E0E0"/>
<path d="M27.014 202.682C26.9854 201.96 27.1028 201.241 27.3592 200.566C27.6155 199.891 28.0056 199.274 28.5059 198.754C29.0063 198.233 29.6066 197.819 30.2709 197.536C30.9352 197.253 31.6498 197.107 32.3718 197.107C33.0938 197.107 33.8084 197.253 34.4727 197.536C35.137 197.819 35.7374 198.233 36.2377 198.754C36.7381 199.274 37.1281 199.891 37.3845 200.566C37.6408 201.241 37.7582 201.96 37.7296 202.682V224.947C37.7582 225.668 37.6408 226.388 37.3845 227.063C37.1281 227.738 36.7381 228.354 36.2377 228.875C35.7374 229.395 35.137 229.809 34.4727 230.092C33.8084 230.375 33.0938 230.521 32.3718 230.521C31.6498 230.521 30.9352 230.375 30.2709 230.092C29.6066 229.809 29.0063 229.395 28.5059 228.875C28.0056 228.354 27.6155 227.738 27.3592 227.063C27.1028 226.388 26.9854 225.668 27.014 224.947V202.682Z" fill="#E0E0E0"/>
<path d="M10.18 210.132C10.1514 209.411 10.2688 208.691 10.5252 208.016C10.7815 207.341 11.1716 206.725 11.6719 206.204C12.1723 205.683 12.7726 205.269 13.4369 204.986C14.1012 204.703 14.8158 204.558 15.5378 204.558C16.2599 204.558 16.9744 204.703 17.6387 204.986C18.303 205.269 18.9034 205.683 19.4037 206.204C19.9041 206.725 20.2941 207.341 20.5505 208.016C20.8068 208.691 20.9243 209.411 20.8956 210.132V232.397C20.9243 233.118 20.8068 233.838 20.5505 234.513C20.2941 235.188 19.9041 235.804 19.4037 236.325C18.9034 236.845 18.303 237.26 17.6387 237.542C16.9744 237.825 16.2599 237.971 15.5378 237.971C14.8158 237.971 14.1012 237.825 13.4369 237.542C12.7726 237.26 12.1723 236.845 11.6719 236.325C11.1716 235.804 10.7815 235.188 10.5252 234.513C10.2688 233.838 10.1514 233.118 10.18 232.397V210.132Z" fill="#E0E0E0"/>
<path d="M-6.65595 219.025C-6.68455 218.304 -6.56714 217.584 -6.31077 216.909C-6.0544 216.234 -5.66435 215.618 -5.16401 215.097C-4.66367 214.576 -4.06335 214.162 -3.39905 213.879C-2.73475 213.597 -2.02014 213.451 -1.29811 213.451C-0.576074 213.451 0.138505 213.597 0.802807 213.879C1.46711 214.162 2.06745 214.576 2.56779 215.097C3.06813 215.618 3.45816 216.234 3.71453 216.909C3.9709 217.584 4.08831 218.304 4.05971 219.025V241.29C4.08831 242.011 3.9709 242.731 3.71453 243.406C3.45816 244.081 3.06813 244.697 2.56779 245.218C2.06745 245.738 1.46711 246.153 0.802807 246.435C0.138505 246.718 -0.576074 246.864 -1.29811 246.864C-2.02014 246.864 -2.73475 246.718 -3.39905 246.435C-4.06335 246.153 -4.66367 245.738 -5.16401 245.218C-5.66435 244.697 -6.0544 244.081 -6.31077 243.406C-6.56714 242.731 -6.68455 242.011 -6.65595 241.29V219.025Z" fill="#E0E0E0"/>
<rect x="141.695" y="226.23" width="21.285" height="21.285" rx="5.4733" fill="white"/>
</g>
<rect x="0.5" y="0.5" width="299" height="299" stroke="#B7B8BB"/>
<defs>
<clipPath id="clip0_7364_14647">
<rect width="300" height="300" fill="white"/>
</clipPath>
<clipPath id="clip1_7364_14647">
<rect width="57.1534" height="71.7124" fill="white" transform="translate(123.453 68.1128)"/>
</clipPath>
</defs>
</svg>
