<svg width="300" height="300" viewBox="0 0 500 500" fill="none" xmlns="http://www.w3.org/2000/svg">
<path d="M242.011 294.62C241.583 295.745 241.388 296.945 241.435 298.147V335.255C241.388 336.457 241.583 337.657 242.011 338.782C242.438 339.907 243.088 340.934 243.922 341.802C244.756 342.669 245.756 343.36 246.863 343.831C247.971 344.303 249.162 344.546 250.365 344.546C251.568 344.546 252.759 344.303 253.867 343.831C254.974 343.36 255.974 342.669 256.808 341.802C257.642 340.934 258.292 339.907 258.719 338.782C259.147 337.657 259.342 336.457 259.295 335.255V298.147C259.342 296.945 259.147 295.745 258.719 294.62C258.292 293.495 257.642 292.468 256.808 291.6C255.974 290.733 254.974 290.042 253.867 289.571C252.759 289.099 251.568 288.856 250.365 288.856C249.162 288.856 247.971 289.099 246.863 289.571C245.756 290.042 244.756 290.733 243.922 291.6C243.088 292.468 242.438 293.495 242.011 294.62Z" fill="rgba(97,95,95,0.4)"/>
<path d="M269.494 299.55C269.446 298.348 269.642 297.148 270.069 296.023C270.497 294.898 271.147 293.871 271.981 293.003C272.815 292.136 273.815 291.445 274.922 290.974C276.029 290.502 277.22 290.259 278.424 290.259C279.627 290.259 280.818 290.502 281.925 290.974C283.033 291.445 284.033 292.136 284.867 293.003C285.701 293.871 286.351 294.898 286.778 296.023C287.205 297.148 287.401 298.348 287.353 299.55V336.658C287.401 337.86 287.205 339.06 286.778 340.185C286.351 341.31 285.701 342.337 284.867 343.205C284.033 344.072 283.033 344.762 281.925 345.234C280.818 345.705 279.627 345.948 278.424 345.948C277.22 345.948 276.029 345.705 274.922 345.234C273.815 344.762 272.815 344.072 271.981 343.205C271.147 342.337 270.497 341.31 270.069 340.185C269.642 339.06 269.446 337.86 269.494 336.658V299.55Z" fill="rgba(97,95,95,0.4)"/>
<path d="M298.128 297.426C297.701 298.551 297.505 299.751 297.553 300.953V338.061C297.505 339.263 297.701 340.463 298.128 341.588C298.555 342.713 299.206 343.74 300.039 344.607C300.873 345.475 301.874 346.165 302.981 346.637C304.088 347.108 305.279 347.351 306.483 347.351C307.686 347.351 308.877 347.108 309.984 346.637C311.091 346.165 312.092 345.475 312.926 344.607C313.76 343.74 314.41 342.713 314.837 341.588C315.264 340.463 315.46 339.263 315.412 338.061V300.953C315.46 299.751 315.264 298.551 314.837 297.426C314.41 296.301 313.76 295.274 312.926 294.406C312.092 293.539 311.091 292.848 309.984 292.377C308.877 291.905 307.686 291.662 306.483 291.662C305.279 291.662 304.088 291.905 302.981 292.377C301.874 292.848 300.873 293.539 300.039 294.406C299.206 295.274 298.555 296.301 298.128 297.426Z" fill="rgba(97,95,95,0.4)"/>
<path d="M326.187 302.232C325.76 303.357 325.564 304.556 325.612 305.759V342.867C325.564 344.069 325.76 345.269 326.187 346.394C326.614 347.519 327.264 348.546 328.098 349.413C328.932 350.281 329.932 350.971 331.04 351.443C332.147 351.914 333.338 352.157 334.541 352.157C335.745 352.157 336.936 351.914 338.043 351.443C339.15 350.971 340.151 350.281 340.984 349.413C341.818 348.546 342.468 347.519 342.896 346.394C343.323 345.269 343.519 344.069 343.471 342.867V305.759C343.519 304.556 343.323 303.357 342.896 302.232C342.468 301.107 341.818 300.08 340.984 299.212C340.151 298.344 339.15 297.654 338.043 297.183C336.936 296.711 335.745 296.468 334.541 296.468C333.338 296.468 332.147 296.711 331.04 297.183C329.932 297.654 328.932 298.344 328.098 299.212C327.264 300.08 326.614 301.107 326.187 302.232Z" fill="rgba(97,95,95,0.4)"/>
<path d="M213.376 299.55C213.329 298.348 213.524 297.148 213.952 296.023C214.379 294.898 215.029 293.871 215.863 293.003C216.697 292.136 217.697 291.445 218.805 290.974C219.912 290.502 221.103 290.259 222.306 290.259C223.51 290.259 224.7 290.502 225.808 290.974C226.915 291.445 227.915 292.136 228.749 293.003C229.583 293.871 230.233 294.898 230.661 296.023C231.088 297.148 231.283 298.348 231.236 299.55V336.658C231.283 337.86 231.088 339.06 230.661 340.185C230.233 341.31 229.583 342.337 228.749 343.205C227.915 344.072 226.915 344.762 225.808 345.234C224.7 345.705 223.51 345.948 222.306 345.948C221.103 345.948 219.912 345.705 218.805 345.234C217.697 344.762 216.697 344.072 215.863 343.205C215.029 342.337 214.379 341.31 213.952 340.185C213.524 339.06 213.329 337.86 213.376 336.658V299.55Z" fill="rgba(97,95,95,0.4)"/>
<path d="M185.893 297.426C185.466 298.551 185.27 299.751 185.318 300.953V338.061C185.27 339.263 185.466 340.463 185.893 341.588C186.32 342.713 186.97 343.74 187.804 344.607C188.638 345.475 189.639 346.165 190.746 346.637C191.853 347.108 193.044 347.351 194.248 347.351C195.451 347.351 196.642 347.108 197.749 346.637C198.856 346.165 199.857 345.475 200.691 344.607C201.525 343.74 202.175 342.713 202.602 341.588C203.029 340.463 203.225 339.263 203.177 338.061V300.953C203.225 299.751 203.029 298.551 202.602 297.426C202.175 296.301 201.525 295.274 200.691 294.406C199.857 293.539 198.856 292.848 197.749 292.377C196.642 291.905 195.451 291.662 194.248 291.662C193.044 291.662 191.853 291.905 190.746 292.377C189.639 292.848 188.638 293.539 187.804 294.406C186.97 295.274 186.32 296.301 185.893 297.426Z" fill="rgba(97,95,95,0.4)"/>
<path d="M157.259 305.759C157.211 304.556 157.407 303.357 157.834 302.232C158.262 301.107 158.912 300.08 159.746 299.212C160.579 298.344 161.58 297.654 162.687 297.183C163.794 296.711 164.985 296.468 166.189 296.468C167.392 296.468 168.583 296.711 169.69 297.183C170.797 297.654 171.798 298.344 172.632 299.212C173.466 300.08 174.116 301.107 174.543 302.232C174.97 303.357 175.166 304.556 175.118 305.759V342.867C175.166 344.069 174.97 345.269 174.543 346.394C174.116 347.519 173.466 348.546 172.632 349.413C171.798 350.281 170.797 350.971 169.69 351.443C168.583 351.914 167.392 352.157 166.189 352.157C164.985 352.157 163.794 351.914 162.687 351.443C161.58 350.971 160.579 350.281 159.746 349.413C158.912 348.546 158.262 347.519 157.834 346.394C157.407 345.269 157.211 344.069 157.259 342.867V305.759Z" fill="rgba(97,95,95,0.4)"/>
<path d="M466.481 346.693C466.053 347.818 465.858 349.018 465.905 350.221V387.328C465.858 388.531 466.053 389.73 466.481 390.855C466.908 391.98 467.558 393.007 468.392 393.875C469.226 394.743 470.226 395.433 471.334 395.905C472.441 396.376 473.632 396.619 474.835 396.619C476.039 396.619 477.23 396.376 478.337 395.905C479.444 395.433 480.444 394.743 481.278 393.875C482.112 393.007 482.762 391.98 483.19 390.855C483.617 389.73 483.813 388.531 483.765 387.328V350.221C483.813 349.018 483.617 347.818 483.19 346.693C482.762 345.569 482.112 344.541 481.278 343.674C480.444 342.806 479.444 342.116 478.337 341.644C477.23 341.173 476.039 340.93 474.835 340.93C473.632 340.93 472.441 341.173 471.334 341.644C470.226 342.116 469.226 342.806 468.392 343.674C467.558 344.541 466.908 345.569 466.481 346.693Z" fill="rgba(97,95,95,0.4)"/>
<path d="M437.847 337.803C437.799 336.601 437.995 335.401 438.422 334.276C438.849 333.151 439.499 332.124 440.333 331.256C441.167 330.389 442.168 329.698 443.275 329.227C444.382 328.755 445.573 328.512 446.776 328.512C447.98 328.512 449.171 328.755 450.278 329.227C451.385 329.698 452.386 330.389 453.22 331.256C454.053 332.124 454.703 333.151 455.131 334.276C455.558 335.401 455.754 336.601 455.706 337.803V374.911C455.754 376.113 455.558 377.313 455.131 378.438C454.703 379.563 454.053 380.59 453.22 381.457C452.386 382.325 451.385 383.015 450.278 383.487C449.171 383.958 447.98 384.201 446.776 384.201C445.573 384.201 444.382 383.958 443.275 383.487C442.168 383.015 441.167 382.325 440.333 381.457C439.499 380.59 438.849 379.563 438.422 378.438C437.995 377.313 437.799 376.113 437.847 374.911V337.803Z" fill="rgba(97,95,95,0.4)"/>
<path d="M410.363 324.261C409.936 325.386 409.74 326.586 409.788 327.788V364.896C409.74 366.098 409.936 367.298 410.363 368.423C410.79 369.548 411.44 370.575 412.274 371.443C413.108 372.31 414.109 373.001 415.216 373.472C416.323 373.944 417.514 374.187 418.717 374.187C419.921 374.187 421.112 373.944 422.219 373.472C423.326 373.001 424.327 372.31 425.161 371.443C425.995 370.575 426.645 369.548 427.072 368.423C427.499 367.298 427.695 366.098 427.647 364.896V327.788C427.695 326.586 427.499 325.386 427.072 324.261C426.645 323.136 425.995 322.109 425.161 321.241C424.327 320.374 423.326 319.684 422.219 319.212C421.112 318.741 419.921 318.497 418.717 318.497C417.514 318.497 416.323 318.741 415.216 319.212C414.109 319.684 413.108 320.374 412.274 321.241C411.44 322.109 410.79 323.136 410.363 324.261Z" fill="rgba(97,95,95,0.4)"/>
<path d="M381.729 318.774C381.682 317.571 381.877 316.371 382.304 315.246C382.732 314.121 383.382 313.094 384.216 312.227C385.05 311.359 386.05 310.669 387.157 310.197C388.265 309.726 389.456 309.483 390.659 309.483C391.862 309.483 393.053 309.726 394.16 310.197C395.268 310.669 396.268 311.359 397.102 312.227C397.936 313.094 398.586 314.121 399.013 315.246C399.441 316.371 399.636 317.571 399.589 318.774V355.881C399.636 357.084 399.441 358.283 399.013 359.408C398.586 360.533 397.936 361.56 397.102 362.428C396.268 363.296 395.268 363.986 394.16 364.457C393.053 364.929 391.862 365.172 390.659 365.172C389.456 365.172 388.265 364.929 387.157 364.457C386.05 363.986 385.05 363.296 384.216 362.428C383.382 361.56 382.732 360.533 382.304 359.408C381.877 358.283 381.682 357.084 381.729 355.881V318.774Z" fill="rgba(97,95,95,0.4)"/>
<path d="M354.246 308.038C353.818 309.163 353.623 310.362 353.67 311.565V348.672C353.623 349.875 353.818 351.075 354.246 352.2C354.673 353.325 355.323 354.352 356.157 355.219C356.991 356.087 357.991 356.777 359.099 357.249C360.206 357.72 361.397 357.963 362.6 357.963C363.803 357.963 364.994 357.72 366.102 357.249C367.209 356.777 368.209 356.087 369.043 355.219C369.877 354.352 370.527 353.325 370.954 352.2C371.382 351.075 371.577 349.875 371.53 348.672V311.565C371.577 310.362 371.382 309.163 370.954 308.038C370.527 306.913 369.877 305.886 369.043 305.018C368.209 304.15 367.209 303.46 366.102 302.989C364.994 302.517 363.803 302.274 362.6 302.274C361.397 302.274 360.206 302.517 359.099 302.989C357.991 303.46 356.991 304.15 356.157 305.018C355.323 305.886 354.673 306.913 354.246 308.038Z" fill="rgba(97,95,95,0.4)"/>
<path d="M129.2 311.565C129.152 310.362 129.348 309.163 129.775 308.038C130.203 306.913 130.853 305.886 131.687 305.018C132.521 304.15 133.521 303.46 134.628 302.989C135.735 302.517 136.926 302.274 138.13 302.274C139.333 302.274 140.524 302.517 141.631 302.989C142.739 303.46 143.739 304.15 144.573 305.018C145.407 305.886 146.057 306.913 146.484 308.038C146.912 309.163 147.107 310.362 147.06 311.565V348.672C147.107 349.875 146.912 351.075 146.484 352.2C146.057 353.325 145.407 354.352 144.573 355.219C143.739 356.087 142.739 356.777 141.631 357.249C140.524 357.72 139.333 357.963 138.13 357.963C136.926 357.963 135.735 357.72 134.628 357.249C133.521 356.777 132.521 356.087 131.687 355.219C130.853 354.352 130.203 353.325 129.775 352.2C129.348 351.075 129.152 349.875 129.2 348.672V311.565Z" fill="rgba(97,95,95,0.4)"/>
<path d="M101.717 315.246C101.289 316.371 101.094 317.571 101.141 318.774V355.881C101.094 357.084 101.289 358.283 101.717 359.408C102.144 360.533 102.794 361.56 103.628 362.428C104.462 363.296 105.462 363.986 106.569 364.457C107.677 364.929 108.868 365.172 110.071 365.172C111.274 365.172 112.465 364.929 113.573 364.457C114.68 363.986 115.68 363.296 116.514 362.428C117.348 361.56 117.998 360.533 118.425 359.408C118.853 358.283 119.048 357.084 119.001 355.881V318.774C119.048 317.571 118.853 316.371 118.425 315.246C117.998 314.121 117.348 313.094 116.514 312.227C115.68 311.359 114.68 310.669 113.573 310.197C112.465 309.726 111.274 309.483 110.071 309.483C108.868 309.483 107.677 309.726 106.569 310.197C105.462 310.669 104.462 311.359 103.628 312.227C102.794 313.094 102.144 314.121 101.717 315.246Z" fill="rgba(97,95,95,0.4)"/>
<path d="M73.0827 326.788C73.035 325.586 73.2307 324.386 73.658 323.261C74.0853 322.136 74.7354 321.109 75.5693 320.241C76.4032 319.374 77.4037 318.684 78.5109 318.212C79.618 317.741 80.809 317.497 82.0124 317.497C83.2158 317.497 84.4068 317.741 85.514 318.212C86.6211 318.684 87.6217 319.374 88.4556 320.241C89.2895 321.109 89.9395 322.136 90.3668 323.261C90.7941 324.386 90.9898 325.586 90.9421 326.788V363.896C90.9898 365.098 90.7941 366.298 90.3668 367.423C89.9395 368.548 89.2895 369.575 88.4556 370.443C87.6217 371.31 86.6211 372.001 85.514 372.472C84.4068 372.944 83.2158 373.187 82.0124 373.187C80.809 373.187 79.618 372.944 78.5109 372.472C77.4037 372.001 76.4032 371.31 75.5693 370.443C74.7354 369.575 74.0853 368.548 73.658 367.423C73.2307 366.298 73.035 365.098 73.0827 363.896V326.788Z" fill="rgba(97,95,95,0.4)"/>
<path d="M45.5992 334.276C45.1719 335.401 44.9762 336.601 45.0239 337.803V374.911C44.9762 376.113 45.1719 377.313 45.5992 378.438C46.0264 379.563 46.6765 380.59 47.5104 381.457C48.3443 382.325 49.3449 383.015 50.452 383.487C51.5592 383.958 52.7502 384.201 53.9536 384.201C55.157 384.201 56.3479 383.958 57.4551 383.487C58.5623 383.015 59.5629 382.325 60.3968 381.457C61.2307 380.59 61.8807 379.563 62.308 378.438C62.7353 377.313 62.931 376.113 62.8833 374.911V337.803C62.931 336.601 62.7353 335.401 62.308 334.276C61.8807 333.151 61.2307 332.124 60.3968 331.256C59.5629 330.389 58.5623 329.698 57.4551 329.227C56.3479 328.755 55.157 328.512 53.9536 328.512C52.7502 328.512 51.5592 328.755 50.452 329.227C49.3449 329.698 48.3443 330.389 47.5104 331.256C46.6765 332.124 46.0264 333.151 45.5992 334.276Z" fill="rgba(97,95,95,0.4)"/>
<path d="M16.965 350.221C16.9174 349.018 17.113 347.818 17.5403 346.693C17.9676 345.569 18.6177 344.541 19.4516 343.674C20.2855 342.806 21.286 342.116 22.3932 341.644C23.5004 341.173 24.6914 340.93 25.8948 340.93C27.0981 340.93 28.2891 341.173 29.3963 341.644C30.5035 342.116 31.504 342.806 32.3379 343.674C33.1718 344.541 33.8219 345.569 34.2492 346.693C34.6764 347.818 34.8721 349.018 34.8244 350.221V387.328C34.8721 388.531 34.6764 389.73 34.2492 390.855C33.8219 391.98 33.1718 393.007 32.3379 393.875C31.504 394.743 30.5035 395.433 29.3963 395.905C28.2891 396.376 27.0981 396.619 25.8948 396.619C24.6914 396.619 23.5004 396.376 22.3932 395.905C21.286 395.433 20.2855 394.743 19.4516 393.875C18.6177 393.007 17.9676 391.98 17.5403 390.855C17.113 389.73 16.9174 388.531 16.965 387.328V350.221Z" fill="rgba(97,95,95,0.4)"/>
<path fill-rule="evenodd" clip-rule="evenodd" d="M500 421.001C426.449 379.001 341.277 355 250.5 355C159.311 355 73.7785 379.22 0 421.574V500H10.1459C78.8321 453.9 161.516 427 250.5 427C339.484 427 422.168 453.9 490.854 500H500V421.001ZM233 381C233 376.029 237.029 372 242 372H259C263.971 372 268 376.029 268 381V398C268 402.971 263.971 407 259 407H242C237.029 407 233 402.971 233 398V381Z" fill="rgba(97,95,95,0.4)"/>
<path fill-rule="evenodd" clip-rule="evenodd" d="M274.042 122.92H261.494C261.387 120.853 260.724 118.849 259.571 117.121C258.305 115.223 256.504 113.744 254.397 112.87C252.29 111.996 249.971 111.766 247.733 112.211C245.495 112.656 243.44 113.754 241.827 115.367C240.214 116.98 239.116 119.036 238.671 121.273C238.563 121.819 238.494 122.369 238.466 122.92H225.953C225.725 121.17 225.097 119.489 224.109 118.011C222.844 116.117 221.045 114.64 218.941 113.768C216.836 112.896 214.521 112.667 212.286 113.111C210.052 113.554 207.999 114.65 206.388 116.261C204.776 117.871 203.678 119.922 203.233 122.156C202.787 124.39 203.014 126.706 203.884 128.812C204.754 130.917 206.229 132.717 208.123 133.984C210.016 135.251 212.242 135.928 214.52 135.93C215.735 135.931 216.94 135.74 218.091 135.366L247.935 197.781L281.384 135.225C281.975 135.449 282.587 135.624 283.213 135.749C285.447 136.193 287.763 135.965 289.868 135.093C291.973 134.221 293.773 132.745 295.038 130.85C296.304 128.956 296.98 126.728 296.98 124.45C296.98 121.395 295.766 118.465 293.606 116.304C291.445 114.144 288.515 112.93 285.46 112.93C283.182 112.93 280.954 113.606 279.06 114.871C277.165 116.137 275.689 117.936 274.817 120.041C274.433 120.968 274.174 121.936 274.042 122.92ZM249.99 135.05C247.709 135.052 245.478 134.377 243.58 133.111C241.683 131.845 240.203 130.044 239.33 127.937C239.058 127.282 238.849 126.607 238.702 125.92H225.951C225.819 126.915 225.558 127.89 225.172 128.821C224.593 130.219 223.743 131.49 222.672 132.559C222.101 133.13 221.473 133.638 220.799 134.075L248.085 191.139L278.74 133.807C278.235 133.444 277.758 133.039 277.314 132.596C275.703 130.985 274.606 128.932 274.161 126.697C274.11 126.439 274.068 126.18 274.034 125.92H261.259C260.8 128.084 259.724 130.088 258.136 131.676C255.975 133.836 253.045 135.05 249.99 135.05Z" />
<path d="M214.52 170.51V218.41C214.523 221.466 215.739 224.396 217.901 226.556C220.063 228.717 222.994 229.93 226.05 229.93H273.94C276.995 229.93 279.925 228.716 282.086 226.556C284.246 224.395 285.46 221.465 285.46 218.41V170.51C285.46 167.455 284.246 164.525 282.086 162.364C279.925 160.204 276.995 158.99 273.94 158.99H226.05C222.994 158.99 220.063 160.203 217.901 162.364C215.739 164.524 214.523 167.454 214.52 170.51Z" fill="rgba(97,95,95,0.4)"/>
</svg>
