<svg width="300" height="300" viewBox="0 0 300 300" fill="none" xmlns="http://www.w3.org/2000/svg">
<g clip-path="url(#clip0_7364_14778)">
<rect width="300" height="300" fill="white"/>
<path d="M206.16 69.936L151.649 117.979L99.127 69.936" stroke="#B7B8BB" stroke-width="1.82443" stroke-dasharray="3.65 3.65"/>
<path d="M152.035 45.6099L152.035 110.681" stroke="#B7B8BB" stroke-width="1.82443" stroke-dasharray="3.65 3.65"/>
<path d="M152.035 133.792V220.756" stroke="black" stroke-width="1.82443"/>
<path fill-rule="evenodd" clip-rule="evenodd" d="M151.732 259.677C6.78241 259.677 -110.682 377.05 -110.682 521.787C-110.682 666.525 6.78241 783.897 151.732 783.897C296.681 783.897 414.146 666.525 414.146 521.787C414.146 377.05 296.681 259.677 151.732 259.677ZM-154.469 521.787C-154.469 352.823 -17.356 215.891 151.732 215.891C320.82 215.891 457.933 352.823 457.933 521.787C457.933 690.751 320.82 827.684 151.732 827.684C-17.356 827.684 -154.469 690.751 -154.469 521.787Z" fill="#E0E0E0"/>
<rect x="141.697" y="226.229" width="21.285" height="21.285" rx="5.4733" fill="white"/>
<path d="M123.6 56.3989L148.526 116.399L176.4 56.3989" stroke="black" stroke-width="1.82443" stroke-miterlimit="10"/>
<path d="M129 101.912V130.652C129.002 132.486 129.731 134.244 131.028 135.54C132.326 136.836 134.084 137.564 135.918 137.564H164.652C166.485 137.564 168.243 136.836 169.54 135.54C170.836 134.243 171.564 132.485 171.564 130.652V101.912C171.564 100.079 170.836 98.3207 169.54 97.0245C168.243 95.7282 166.485 95 164.652 95H135.918C134.084 95 132.326 95.728 131.028 97.0241C129.731 98.3202 129.002 100.078 129 101.912Z" fill="#B7B8BB"/>
<path d="M149.723 51.0298C148.354 51.031 147.016 50.6262 145.877 49.8665C144.739 49.1068 143.851 48.0264 143.327 46.762C142.802 45.4977 142.665 44.1062 142.931 42.7637C143.198 41.4212 143.857 40.1879 144.825 39.2201C145.793 38.2522 147.026 37.5932 148.369 37.3265C149.711 37.0597 151.103 37.1972 152.367 37.7216C153.631 38.246 154.712 39.1336 155.471 40.2722C156.231 41.4107 156.636 42.7491 156.635 44.1178C156.635 45.951 155.907 47.7091 154.61 49.0054C153.314 50.3016 151.556 51.0298 149.723 51.0298Z" fill="black"/>
<path d="M144.862 160.974C144.833 160.252 144.95 159.533 145.207 158.858C145.463 158.183 145.853 157.566 146.354 157.046C146.854 156.525 147.454 156.111 148.119 155.828C148.783 155.545 149.497 155.399 150.219 155.399C150.942 155.399 151.656 155.545 152.32 155.828C152.985 156.111 153.585 156.525 154.085 157.046C154.586 157.566 154.976 158.183 155.232 158.858C155.488 159.533 155.606 160.252 155.577 160.974V183.239C155.606 183.96 155.488 184.68 155.232 185.355C154.976 186.03 154.586 186.646 154.085 187.167C153.585 187.687 152.985 188.101 152.32 188.384C151.656 188.667 150.942 188.813 150.219 188.813C149.497 188.813 148.783 188.667 148.119 188.384C147.454 188.101 146.854 187.687 146.354 187.167C145.853 186.646 145.463 186.03 145.207 185.355C144.95 184.68 144.833 183.96 144.862 183.239V160.974Z" fill="#1C1C1C"/>
<path d="M136.225 174.537H171.497" stroke="black" stroke-width="1.82443"/>
<rect x="140.912" y="106.912" width="19.4606" height="19.4606" rx="4.56108" stroke="white" stroke-width="1.82443" stroke-dasharray="3.65 3.65"/>
<path d="M125.887 57.1651L152.245 44.394L178.795 57.1651" stroke="black" stroke-width="1.82443"/>
<path d="M99.127 70.5439L134.399 174.537" stroke="#B7B8BB" stroke-width="1.82443" stroke-dasharray="3.65 3.65"/>
<path d="M206.16 69.936L170.279 174.537" stroke="#B7B8BB" stroke-width="1.82443" stroke-dasharray="3.65 3.65"/>
<path d="M195.367 183.454C195.339 182.733 195.456 182.013 195.713 181.338C195.969 180.663 196.359 180.047 196.859 179.526C197.36 179.006 197.96 178.592 198.624 178.309C199.289 178.026 200.003 177.88 200.725 177.88C201.447 177.88 202.162 178.026 202.826 178.309C203.491 178.592 204.091 179.006 204.591 179.526C205.092 180.047 205.482 180.663 205.738 181.338C205.994 182.013 206.112 182.733 206.083 183.454V205.719C206.112 206.44 205.994 207.16 205.738 207.835C205.482 208.51 205.092 209.127 204.591 209.647C204.091 210.168 203.491 210.582 202.826 210.865C202.162 211.148 201.447 211.293 200.725 211.293C200.003 211.293 199.289 211.148 198.624 210.865C197.96 210.582 197.36 210.168 196.859 209.647C196.359 209.127 195.969 208.51 195.713 207.835C195.456 207.16 195.339 206.44 195.367 205.719V183.454Z" fill="#E0E0E0"/>
<path d="M178.532 180.572C178.503 179.85 178.62 179.13 178.877 178.455C179.133 177.78 179.523 177.164 180.023 176.643C180.524 176.123 181.124 175.709 181.788 175.426C182.453 175.143 183.167 174.997 183.889 174.997C184.611 174.997 185.326 175.143 185.99 175.426C186.655 175.709 187.255 176.123 187.755 176.643C188.256 177.164 188.646 177.78 188.902 178.455C189.158 179.13 189.276 179.85 189.247 180.572V202.836C189.276 203.558 189.158 204.277 188.902 204.952C188.646 205.627 188.256 206.244 187.755 206.764C187.255 207.285 186.655 207.699 185.99 207.982C185.326 208.265 184.611 208.411 183.889 208.411C183.167 208.411 182.453 208.265 181.788 207.982C181.124 207.699 180.524 207.285 180.023 206.764C179.523 206.244 179.133 205.627 178.877 204.952C178.62 204.277 178.503 203.558 178.532 202.836V180.572Z" fill="#E0E0E0"/>
<path d="M111.192 180.572C111.163 179.85 111.281 179.13 111.537 178.455C111.793 177.78 112.183 177.164 112.684 176.643C113.184 176.123 113.784 175.709 114.449 175.426C115.113 175.143 115.828 174.997 116.55 174.997C117.272 174.997 117.986 175.143 118.65 175.426C119.315 175.709 119.915 176.123 120.415 176.643C120.916 177.164 121.306 177.78 121.562 178.455C121.819 179.13 121.936 179.85 121.907 180.572V202.836C121.936 203.558 121.819 204.277 121.562 204.952C121.306 205.627 120.916 206.244 120.415 206.764C119.915 207.285 119.315 207.699 118.65 207.982C117.986 208.265 117.272 208.411 116.55 208.411C115.828 208.411 115.113 208.265 114.449 207.982C113.784 207.699 113.184 207.285 112.684 206.764C112.183 206.244 111.793 205.627 111.537 204.952C111.281 204.277 111.163 203.558 111.192 202.836V180.572Z" fill="#E0E0E0"/>
<path d="M94.3558 183.454C94.3272 182.733 94.4446 182.013 94.7009 181.338C94.9573 180.663 95.3474 180.047 95.8477 179.526C96.3481 179.006 96.9484 178.592 97.6127 178.309C98.277 178.026 98.9916 177.88 99.7136 177.88C100.436 177.88 101.15 178.026 101.815 178.309C102.479 178.592 103.079 179.006 103.58 179.526C104.08 180.047 104.47 180.663 104.726 181.338C104.983 182.013 105.1 182.733 105.071 183.454V205.719C105.1 206.44 104.983 207.16 104.726 207.835C104.47 208.51 104.08 209.127 103.58 209.647C103.079 210.168 102.479 210.582 101.815 210.865C101.15 211.148 100.436 211.293 99.7136 211.293C98.9916 211.293 98.277 211.148 97.6127 210.865C96.9484 210.582 96.3481 210.168 95.8477 209.647C95.3474 209.127 94.9573 208.51 94.7009 207.835C94.4446 207.16 94.3272 206.44 94.3558 205.719V183.454Z" fill="#E0E0E0"/>
<path d="M279.543 210.132C279.515 209.411 279.632 208.691 279.888 208.016C280.145 207.341 280.535 206.725 281.035 206.204C281.536 205.683 282.136 205.269 282.8 204.986C283.464 204.703 284.179 204.558 284.901 204.558C285.623 204.558 286.338 204.703 287.002 204.986C287.666 205.269 288.267 205.683 288.767 206.204C289.267 206.725 289.657 207.341 289.914 208.016C290.17 208.691 290.288 209.411 290.259 210.132V232.397C290.288 233.118 290.17 233.838 289.914 234.513C289.657 235.188 289.267 235.804 288.767 236.325C288.267 236.845 287.666 237.26 287.002 237.542C286.338 237.825 285.623 237.971 284.901 237.971C284.179 237.971 283.464 237.825 282.8 237.542C282.136 237.26 281.536 236.845 281.035 236.325C280.535 235.804 280.145 235.188 279.888 234.513C279.632 233.838 279.515 233.118 279.543 232.397V210.132Z" fill="#E0E0E0"/>
<path d="M262.707 202.681C262.679 201.96 262.796 201.24 263.053 200.565C263.309 199.89 263.699 199.274 264.199 198.753C264.7 198.233 265.3 197.819 265.964 197.536C266.629 197.253 267.343 197.107 268.065 197.107C268.787 197.107 269.502 197.253 270.166 197.536C270.83 197.819 271.431 198.233 271.931 198.753C272.431 199.274 272.821 199.89 273.078 200.565C273.334 201.24 273.452 201.96 273.423 202.681V224.946C273.452 225.667 273.334 226.387 273.078 227.062C272.821 227.737 272.431 228.354 271.931 228.874C271.431 229.395 270.83 229.809 270.166 230.092C269.502 230.375 268.787 230.52 268.065 230.52C267.343 230.52 266.629 230.375 265.964 230.092C265.3 229.809 264.7 229.395 264.199 228.874C263.699 228.354 263.309 227.737 263.053 227.062C262.796 226.387 262.679 225.667 262.707 224.946V202.681Z" fill="#E0E0E0"/>
<path d="M245.873 196.672C245.845 195.951 245.962 195.231 246.219 194.556C246.475 193.881 246.865 193.265 247.365 192.744C247.866 192.223 248.466 191.809 249.13 191.526C249.795 191.243 250.509 191.098 251.231 191.098C251.953 191.098 252.668 191.243 253.332 191.526C253.996 191.809 254.597 192.223 255.097 192.744C255.597 193.265 255.987 193.881 256.244 194.556C256.5 195.231 256.618 195.951 256.589 196.672V218.937C256.618 219.658 256.5 220.378 256.244 221.053C255.987 221.728 255.597 222.344 255.097 222.865C254.597 223.385 253.996 223.8 253.332 224.082C252.668 224.365 251.953 224.511 251.231 224.511C250.509 224.511 249.795 224.365 249.13 224.082C248.466 223.8 247.866 223.385 247.365 222.865C246.865 222.344 246.475 221.728 246.219 221.053C245.962 220.378 245.845 219.658 245.873 218.937V196.672Z" fill="#E0E0E0"/>
<path d="M229.035 191.264C229.007 190.543 229.124 189.823 229.381 189.148C229.637 188.473 230.027 187.857 230.527 187.336C231.028 186.816 231.628 186.402 232.292 186.119C232.957 185.836 233.671 185.69 234.393 185.69C235.115 185.69 235.83 185.836 236.494 186.119C237.159 186.402 237.759 186.816 238.259 187.336C238.76 187.857 239.15 188.473 239.406 189.148C239.662 189.823 239.78 190.543 239.751 191.264V213.529C239.78 214.25 239.662 214.97 239.406 215.645C239.15 216.32 238.76 216.937 238.259 217.457C237.759 217.978 237.159 218.392 236.494 218.675C235.83 218.958 235.115 219.103 234.393 219.103C233.671 219.103 232.957 218.958 232.292 218.675C231.628 218.392 231.028 217.978 230.527 217.457C230.027 216.937 229.637 216.32 229.381 215.645C229.124 214.97 229.007 214.25 229.035 213.529V191.264Z" fill="#E0E0E0"/>
<path d="M212.201 186.939C212.173 186.217 212.29 185.497 212.547 184.822C212.803 184.147 213.193 183.531 213.693 183.011C214.194 182.49 214.794 182.076 215.458 181.793C216.123 181.51 216.837 181.364 217.559 181.364C218.281 181.364 218.996 181.51 219.66 181.793C220.325 182.076 220.925 182.49 221.425 183.011C221.926 183.531 222.316 184.147 222.572 184.822C222.828 185.497 222.946 186.217 222.917 186.939V209.203C222.946 209.925 222.828 210.645 222.572 211.32C222.316 211.995 221.926 212.611 221.425 213.131C220.925 213.652 220.325 214.066 219.66 214.349C218.996 214.632 218.281 214.778 217.559 214.778C216.837 214.778 216.123 214.632 215.458 214.349C214.794 214.066 214.194 213.652 213.693 213.131C213.193 212.611 212.803 211.995 212.547 211.32C212.29 210.645 212.173 209.925 212.201 209.203V186.939Z" fill="#E0E0E0"/>
<path d="M77.5198 186.939C77.4912 186.217 77.6086 185.497 77.865 184.822C78.1214 184.147 78.5114 183.531 79.0118 183.011C79.5121 182.49 80.1124 182.076 80.7767 181.793C81.441 181.51 82.1556 181.364 82.8777 181.364C83.5997 181.364 84.3143 181.51 84.9786 181.793C85.6429 182.076 86.2432 182.49 86.7436 183.011C87.2439 183.531 87.6339 184.147 87.8903 184.822C88.1467 185.497 88.2641 186.217 88.2355 186.939V209.203C88.2641 209.925 88.1467 210.645 87.8903 211.32C87.6339 211.995 87.2439 212.611 86.7436 213.131C86.2432 213.652 85.6429 214.066 84.9786 214.349C84.3143 214.632 83.5997 214.778 82.8777 214.778C82.1556 214.778 81.441 214.632 80.7767 214.349C80.1124 214.066 79.5121 213.652 79.0118 213.131C78.5114 212.611 78.1214 211.995 77.865 211.32C77.6086 210.645 77.4912 209.925 77.5198 209.203V186.939Z" fill="#E0E0E0"/>
<path d="M60.6839 191.264C60.6553 190.543 60.7727 189.823 61.0291 189.148C61.2854 188.473 61.6755 187.857 62.1758 187.336C62.6762 186.816 63.2765 186.402 63.9408 186.119C64.6051 185.836 65.3197 185.69 66.0417 185.69C66.7638 185.69 67.4784 185.836 68.1427 186.119C68.807 186.402 69.4073 186.816 69.9076 187.336C70.408 187.857 70.798 188.473 71.0544 189.148C71.3107 189.823 71.4282 190.543 71.3996 191.264V213.529C71.4282 214.25 71.3107 214.97 71.0544 215.645C70.798 216.32 70.408 216.937 69.9076 217.457C69.4073 217.978 68.807 218.392 68.1427 218.675C67.4784 218.958 66.7638 219.103 66.0417 219.103C65.3197 219.103 64.6051 218.958 63.9408 218.675C63.2765 218.392 62.6762 217.978 62.1758 217.457C61.6755 216.937 61.2854 216.32 61.0291 215.645C60.7727 214.97 60.6553 214.25 60.6839 213.529V191.264Z" fill="#E0E0E0"/>
<path d="M43.8499 196.072C43.8213 195.351 43.9387 194.631 44.1951 193.956C44.4515 193.281 44.8415 192.664 45.3419 192.144C45.8422 191.623 46.4425 191.209 47.1068 190.926C47.7711 190.643 48.4857 190.498 49.2078 190.498C49.9298 190.498 50.6444 190.643 51.3087 190.926C51.973 191.209 52.5733 191.623 53.0737 192.144C53.574 192.664 53.964 193.281 54.2204 193.956C54.4768 194.631 54.5942 195.351 54.5656 196.072V218.337C54.5942 219.058 54.4768 219.778 54.2204 220.453C53.964 221.128 53.574 221.744 53.0737 222.265C52.5733 222.785 51.973 223.199 51.3087 223.482C50.6444 223.765 49.9298 223.911 49.2078 223.911C48.4857 223.911 47.7711 223.765 47.1068 223.482C46.4425 223.199 45.8422 222.785 45.3419 222.265C44.8415 221.744 44.4515 221.128 44.1951 220.453C43.9387 219.778 43.8213 219.058 43.8499 218.337V196.072Z" fill="#E0E0E0"/>
<path d="M27.014 202.681C26.9854 201.96 27.1028 201.24 27.3592 200.565C27.6155 199.89 28.0056 199.274 28.5059 198.753C29.0063 198.233 29.6066 197.819 30.2709 197.536C30.9352 197.253 31.6498 197.107 32.3718 197.107C33.0939 197.107 33.8084 197.253 34.4727 197.536C35.137 197.819 35.7374 198.233 36.2377 198.753C36.7381 199.274 37.1281 199.89 37.3845 200.565C37.6408 201.24 37.7582 201.96 37.7296 202.681V224.946C37.7582 225.667 37.6408 226.387 37.3845 227.062C37.1281 227.737 36.7381 228.354 36.2377 228.874C35.7374 229.395 35.137 229.809 34.4727 230.092C33.8084 230.375 33.0939 230.52 32.3718 230.52C31.6498 230.52 30.9352 230.375 30.2709 230.092C29.6066 229.809 29.0063 229.395 28.5059 228.874C28.0056 228.354 27.6155 227.737 27.3592 227.062C27.1028 226.387 26.9854 225.667 27.014 224.946V202.681Z" fill="#E0E0E0"/>
<path d="M10.18 210.132C10.1514 209.411 10.2688 208.691 10.5252 208.016C10.7815 207.341 11.1716 206.725 11.6719 206.204C12.1723 205.683 12.7726 205.269 13.4369 204.986C14.1012 204.703 14.8158 204.558 15.5378 204.558C16.2599 204.558 16.9744 204.703 17.6387 204.986C18.303 205.269 18.9034 205.683 19.4037 206.204C19.9041 206.725 20.2941 207.341 20.5505 208.016C20.8068 208.691 20.9242 209.411 20.8956 210.132V232.397C20.9242 233.118 20.8068 233.838 20.5505 234.513C20.2941 235.188 19.9041 235.804 19.4037 236.325C18.9034 236.845 18.303 237.26 17.6387 237.542C16.9744 237.825 16.2599 237.971 15.5378 237.971C14.8158 237.971 14.1012 237.825 13.4369 237.542C12.7726 237.26 12.1723 236.845 11.6719 236.325C11.1716 235.804 10.7815 235.188 10.5252 234.513C10.2688 233.838 10.1514 233.118 10.18 232.397V210.132Z" fill="#E0E0E0"/>
<path d="M-6.65595 219.024C-6.68455 218.302 -6.56714 217.582 -6.31077 216.907C-6.0544 216.232 -5.66435 215.616 -5.16401 215.096C-4.66367 214.575 -4.06335 214.161 -3.39905 213.878C-2.73474 213.595 -2.02014 213.449 -1.29811 213.449C-0.576073 213.449 0.138505 213.595 0.802808 213.878C1.46711 214.161 2.06745 214.575 2.56779 215.096C3.06813 215.616 3.45816 216.232 3.71453 216.907C3.9709 217.582 4.08831 218.302 4.05971 219.024V241.288C4.08831 242.01 3.9709 242.73 3.71453 243.405C3.45816 244.08 3.06813 244.696 2.56779 245.216C2.06745 245.737 1.46711 246.151 0.802808 246.434C0.138505 246.717 -0.576073 246.863 -1.29811 246.863C-2.02014 246.863 -2.73474 246.717 -3.39905 246.434C-4.06335 246.151 -4.66367 245.737 -5.16401 245.216C-5.66435 244.696 -6.0544 244.08 -6.31077 243.405C-6.56714 242.73 -6.68455 242.01 -6.65595 241.288V219.024Z" fill="#E0E0E0"/>
<path d="M179.098 57.4688L205.856 69.3276" stroke="#B7B8BB" stroke-width="1.82443" stroke-dasharray="3.65 3.65"/>
<path d="M125.277 57.7734L99.1271 69.3282" stroke="#B7B8BB" stroke-width="1.82443" stroke-dasharray="3.65 3.65"/>
<path d="M203.111 61.7993C201.744 61.7993 200.408 62.2047 199.271 62.9642C198.134 63.7237 197.249 64.8032 196.725 66.0662C196.202 67.3292 196.065 68.719 196.332 70.0598C196.599 71.4006 197.257 72.6322 198.224 73.5988C199.19 74.5655 200.422 75.2238 201.763 75.4905C203.104 75.7572 204.493 75.6203 205.756 75.0972C207.019 74.574 208.099 73.6881 208.858 72.5514C209.618 71.4147 210.023 70.0784 210.023 68.7113C210.023 66.8781 209.295 65.12 207.999 63.8238C206.702 62.5275 204.944 61.7993 203.111 61.7993Z" fill="white"/>
<path d="M203.111 61.7993C201.744 61.7993 200.408 62.2047 199.271 62.9642C198.134 63.7237 197.249 64.8032 196.725 66.0662C196.202 67.3292 196.065 68.719 196.332 70.0598C196.599 71.4006 197.257 72.6322 198.224 73.5988C199.19 74.5655 200.422 75.2238 201.763 75.4905C203.104 75.7572 204.493 75.6203 205.756 75.0972C207.019 74.574 208.099 73.6881 208.858 72.5514C209.618 71.4147 210.023 70.0784 210.023 68.7113C210.023 66.8781 209.295 65.12 207.999 63.8238C206.702 62.5275 204.944 61.7993 203.111 61.7993" stroke="#B7B8BB" stroke-width="1.82443" stroke-linejoin="bevel" stroke-dasharray="6.08 6.08"/>
<path d="M97.5116 61.7993C96.1445 61.7993 94.8082 62.2047 93.6715 62.9642C92.5348 63.7237 91.6489 64.8032 91.1258 66.0662C90.6026 67.3292 90.4657 68.719 90.7324 70.0598C90.9991 71.4006 91.6574 72.6322 92.6241 73.5988C93.5908 74.5655 94.8224 75.2238 96.1631 75.4905C97.5039 75.7572 98.8937 75.6203 100.157 75.0972C101.42 74.574 102.499 73.6881 103.259 72.5514C104.018 71.4147 104.424 70.0784 104.424 68.7113C104.424 66.8781 103.695 65.12 102.399 63.8238C101.103 62.5275 99.3448 61.7993 97.5116 61.7993Z" fill="white"/>
<path d="M97.5116 61.7993C96.1445 61.7993 94.8082 62.2047 93.6715 62.9642C92.5348 63.7237 91.6489 64.8032 91.1258 66.0662C90.6026 67.3292 90.4657 68.719 90.7324 70.0598C90.9991 71.4006 91.6574 72.6322 92.6241 73.5988C93.5908 74.5655 94.8224 75.2238 96.1631 75.4905C97.5039 75.7572 98.8937 75.6203 100.157 75.0972C101.42 74.574 102.499 73.6881 103.259 72.5514C104.018 71.4147 104.424 70.0784 104.424 68.7113C104.424 66.8781 103.695 65.12 102.399 63.8238C101.103 62.5275 99.3448 61.7993 97.5116 61.7993" stroke="#B7B8BB" stroke-width="1.82443" stroke-linejoin="bevel" stroke-dasharray="6.08 6.08"/>
<path d="M123.906 63.5569C122.539 63.5557 121.203 63.1493 120.068 62.3891C118.932 61.6289 118.047 60.549 117.524 59.2859C117.002 58.0228 116.866 56.6332 117.134 55.2928C117.401 53.9524 118.06 52.7213 119.027 51.7553C119.994 50.7892 121.225 50.1315 122.566 49.8653C123.906 49.5991 125.296 49.7363 126.558 50.2596C127.821 50.783 128.9 51.6689 129.66 52.8054C130.419 53.942 130.824 55.2781 130.824 56.6449C130.824 57.5531 130.645 58.4524 130.297 59.2914C129.95 60.1304 129.44 60.8926 128.797 61.5346C128.155 62.1765 127.392 62.6855 126.553 63.0325C125.714 63.3795 124.814 63.5577 123.906 63.5569Z" fill="black"/>
<path d="M176.713 49.7578C175.346 49.7578 174.009 50.1632 172.873 50.9227C171.736 51.6822 170.85 52.7617 170.327 54.0247C169.804 55.2877 169.667 56.6775 169.934 58.0183C170.2 59.3591 170.859 60.5907 171.825 61.5573C172.792 62.524 174.024 63.1823 175.364 63.449C176.705 63.7157 178.095 63.5788 179.358 63.0557C180.621 62.5325 181.7 61.6466 182.46 60.5099C183.219 59.3732 183.625 58.0369 183.625 56.6698C183.625 54.8366 182.897 53.0785 181.6 51.7823C180.304 50.486 178.546 49.7578 176.713 49.7578Z" fill="black"/>
<path d="M161.696 160.974C161.667 160.252 161.784 159.533 162.041 158.858C162.297 158.183 162.687 157.566 163.188 157.046C163.688 156.525 164.288 156.111 164.953 155.828C165.617 155.545 166.331 155.399 167.053 155.399C167.775 155.399 168.49 155.545 169.154 155.828C169.819 156.111 170.419 156.525 170.919 157.046C171.42 157.566 171.81 158.183 172.066 158.858C172.322 159.533 172.44 160.252 172.411 160.974V183.239C172.44 183.96 172.322 184.68 172.066 185.355C171.81 186.03 171.42 186.646 170.919 187.167C170.419 187.687 169.819 188.101 169.154 188.384C168.49 188.667 167.775 188.813 167.053 188.813C166.331 188.813 165.617 188.667 164.953 188.384C164.288 188.101 163.688 187.687 163.188 187.167C162.687 186.646 162.297 186.03 162.041 185.355C161.784 184.68 161.667 183.96 161.696 183.239V160.974Z" fill="#1C1C1C"/>
<path d="M128.026 160.974C127.997 160.252 128.115 159.533 128.371 158.858C128.627 158.183 129.017 157.566 129.518 157.046C130.018 156.525 130.618 156.111 131.283 155.828C131.947 155.545 132.662 155.399 133.384 155.399C134.106 155.399 134.82 155.545 135.484 155.828C136.149 156.111 136.749 156.525 137.249 157.046C137.75 157.566 138.14 158.183 138.396 158.858C138.653 159.533 138.77 160.252 138.741 160.974V183.239C138.77 183.96 138.653 184.68 138.396 185.355C138.14 186.03 137.75 186.646 137.249 187.167C136.749 187.687 136.149 188.101 135.484 188.384C134.82 188.667 134.106 188.813 133.384 188.813C132.662 188.813 131.947 188.667 131.283 188.384C130.618 188.101 130.018 187.687 129.518 187.167C129.017 186.646 128.627 186.03 128.371 185.355C128.115 184.68 127.997 183.96 128.026 183.239V160.974Z" fill="#1C1C1C"/>
<path d="M296.377 219.024C296.349 218.302 296.466 217.582 296.722 216.907C296.979 216.232 297.369 215.616 297.869 215.096C298.37 214.575 298.97 214.161 299.634 213.878C300.298 213.595 301.013 213.449 301.735 213.449C302.457 213.449 303.172 213.595 303.836 213.878C304.5 214.161 305.101 214.575 305.601 215.096C306.101 215.616 306.491 216.232 306.748 216.907C307.004 217.582 307.122 218.302 307.093 219.024V241.288C307.122 242.01 307.004 242.73 306.748 243.405C306.491 244.08 306.101 244.696 305.601 245.216C305.101 245.737 304.5 246.151 303.836 246.434C303.172 246.717 302.457 246.863 301.735 246.863C301.013 246.863 300.298 246.717 299.634 246.434C298.97 246.151 298.37 245.737 297.869 245.216C297.369 244.696 296.979 244.08 296.722 243.405C296.466 242.73 296.349 242.01 296.377 241.288V219.024Z" fill="#E0E0E0"/>
</g>
<rect x="0.5" y="0.5" width="299" height="299" stroke="#E0E0E0"/>
<defs>
<clipPath id="clip0_7364_14778">
<rect width="300" height="300" fill="white"/>
</clipPath>
</defs>
</svg>
