<svg width="500" height="500" viewBox="0 0 500 500" fill="none" xmlns="http://www.w3.org/2000/svg">
<path d="M215 217.633V170.367C215.003 167.352 216.202 164.46 218.336 162.329C220.469 160.197 223.362 159 226.377 159H273.633C276.647 159 279.539 160.198 281.671 162.329C283.802 164.461 285 167.353 285 170.367V217.633C285 220.647 283.802 223.539 281.671 225.671C279.539 227.802 276.647 229 273.633 229H226.377C223.362 229 220.469 227.803 218.336 225.671C216.202 223.54 215.003 220.648 215 217.633Z" fill="#828282" fill-opacity="0.7"/>
<path d="M185.893 297.57C185.466 298.695 185.27 299.894 185.318 301.097V338.204C185.27 339.407 185.466 340.607 185.893 341.732C186.32 342.856 186.97 343.884 187.804 344.751C188.638 345.619 189.639 346.309 190.746 346.781C191.853 347.252 193.044 347.495 194.248 347.495C195.451 347.495 196.642 347.252 197.749 346.781C198.856 346.309 199.857 345.619 200.691 344.751C201.525 343.884 202.175 342.856 202.602 341.732C203.029 340.607 203.225 339.407 203.177 338.204V301.097C203.225 299.894 203.029 298.695 202.602 297.57C202.175 296.445 201.525 295.417 200.691 294.55C199.857 293.682 198.856 292.992 197.749 292.52C196.642 292.049 195.451 291.806 194.248 291.806C193.044 291.806 191.853 292.049 190.746 292.52C189.639 292.992 188.638 293.682 187.804 294.55C186.97 295.417 186.32 296.445 185.893 297.57Z" fill="#828282" fill-opacity="0.7"/>
<path d="M298.128 297.57C297.701 298.695 297.505 299.894 297.553 301.097V338.204C297.505 339.407 297.701 340.607 298.128 341.732C298.555 342.856 299.206 343.884 300.039 344.751C300.873 345.619 301.874 346.309 302.981 346.781C304.088 347.252 305.279 347.495 306.483 347.495C307.686 347.495 308.877 347.252 309.984 346.781C311.091 346.309 312.092 345.619 312.926 344.751C313.76 343.884 314.41 342.856 314.837 341.732C315.264 340.607 315.46 339.407 315.412 338.204V301.097C315.46 299.894 315.264 298.695 314.837 297.57C314.41 296.445 313.76 295.417 312.926 294.55C312.092 293.682 311.091 292.992 309.984 292.52C308.877 292.049 307.686 291.806 306.483 291.806C305.279 291.806 304.088 292.049 302.981 292.52C301.874 292.992 300.873 293.682 300.039 294.55C299.206 295.417 298.555 296.445 298.128 297.57Z" fill="#828282" fill-opacity="0.7"/>
<path d="M325.612 305.903C325.564 304.7 325.76 303.5 326.187 302.375C326.614 301.25 327.264 300.223 328.098 299.356C328.932 298.488 329.932 297.798 331.04 297.326C332.147 296.855 333.338 296.612 334.541 296.612C335.745 296.612 336.936 296.855 338.043 297.326C339.15 297.798 340.151 298.488 340.984 299.356C341.818 300.223 342.468 301.25 342.896 302.375C343.323 303.5 343.519 304.7 343.471 305.903V343.01C343.519 344.213 343.323 345.412 342.896 346.537C342.468 347.662 341.818 348.689 340.984 349.557C340.151 350.425 339.15 351.115 338.043 351.586C336.936 352.058 335.745 352.301 334.541 352.301C333.338 352.301 332.147 352.058 331.04 351.586C329.932 351.115 328.932 350.425 328.098 349.557C327.264 348.689 326.614 347.662 326.187 346.537C325.76 345.412 325.564 344.213 325.612 343.01V305.903Z" fill="#828282" fill-opacity="0.7"/>
<path d="M157.259 305.903C157.211 304.7 157.407 303.5 157.834 302.375C158.262 301.25 158.912 300.223 159.746 299.356C160.579 298.488 161.58 297.798 162.687 297.326C163.794 296.855 164.985 296.612 166.189 296.612C167.392 296.612 168.583 296.855 169.69 297.326C170.797 297.798 171.798 298.488 172.632 299.356C173.466 300.223 174.116 301.25 174.543 302.375C174.97 303.5 175.166 304.7 175.118 305.903V343.01C175.166 344.213 174.97 345.412 174.543 346.537C174.116 347.662 173.466 348.689 172.632 349.557C171.798 350.425 170.797 351.115 169.69 351.586C168.583 352.058 167.392 352.301 166.189 352.301C164.985 352.301 163.794 352.058 162.687 351.586C161.58 351.115 160.579 350.425 159.746 349.557C158.912 348.689 158.262 347.662 157.834 346.537C157.407 345.412 157.211 344.213 157.259 343.01V305.903Z" fill="#828282" fill-opacity="0.7"/>
<path d="M466.481 346.837C466.053 347.962 465.858 349.162 465.905 350.364V387.472C465.858 388.674 466.053 389.874 466.481 390.999C466.908 392.124 467.558 393.151 468.392 394.019C469.226 394.886 470.226 395.577 471.334 396.048C472.441 396.52 473.632 396.763 474.835 396.763C476.039 396.763 477.23 396.52 478.337 396.048C479.444 395.577 480.444 394.886 481.278 394.019C482.112 393.151 482.762 392.124 483.19 390.999C483.617 389.874 483.813 388.674 483.765 387.472V350.364C483.813 349.162 483.617 347.962 483.19 346.837C482.762 345.712 482.112 344.685 481.278 343.817C480.444 342.95 479.444 342.26 478.337 341.788C477.23 341.317 476.039 341.074 474.835 341.074C473.632 341.074 472.441 341.317 471.334 341.788C470.226 342.26 469.226 342.95 468.392 343.817C467.558 344.685 466.908 345.712 466.481 346.837Z" fill="#828282" fill-opacity="0.7"/>
<path d="M437.847 337.947C437.799 336.744 437.995 335.544 438.422 334.42C438.849 333.295 439.499 332.267 440.333 331.4C441.167 330.532 442.168 329.842 443.275 329.37C444.382 328.899 445.573 328.656 446.776 328.656C447.98 328.656 449.171 328.899 450.278 329.37C451.385 329.842 452.386 330.532 453.22 331.4C454.053 332.267 454.703 333.295 455.131 334.42C455.558 335.544 455.754 336.744 455.706 337.947V375.054C455.754 376.257 455.558 377.456 455.131 378.581C454.703 379.706 454.053 380.734 453.22 381.601C452.386 382.469 451.385 383.159 450.278 383.631C449.171 384.102 447.98 384.345 446.776 384.345C445.573 384.345 444.382 384.102 443.275 383.631C442.168 383.159 441.167 382.469 440.333 381.601C439.499 380.734 438.849 379.706 438.422 378.581C437.995 377.456 437.799 376.257 437.847 375.054V337.947Z" fill="#828282" fill-opacity="0.7"/>
<path d="M410.363 324.405C409.936 325.53 409.74 326.729 409.788 327.932V365.04C409.74 366.242 409.936 367.442 410.363 368.567C410.79 369.692 411.44 370.719 412.274 371.586C413.108 372.454 414.109 373.144 415.216 373.616C416.323 374.087 417.514 374.33 418.717 374.33C419.921 374.33 421.112 374.087 422.219 373.616C423.326 373.144 424.327 372.454 425.161 371.586C425.995 370.719 426.645 369.692 427.072 368.567C427.499 367.442 427.695 366.242 427.647 365.04V327.932C427.695 326.729 427.499 325.53 427.072 324.405C426.645 323.28 425.995 322.253 425.161 321.385C424.327 320.518 423.326 319.827 422.219 319.356C421.112 318.884 419.921 318.641 418.717 318.641C417.514 318.641 416.323 318.884 415.216 319.356C414.109 319.827 413.108 320.518 412.274 321.385C411.44 322.253 410.79 323.28 410.363 324.405Z" fill="#828282" fill-opacity="0.7"/>
<path d="M381.729 318.917C381.682 317.715 381.877 316.515 382.304 315.39C382.732 314.265 383.382 313.238 384.216 312.37C385.05 311.503 386.05 310.813 387.157 310.341C388.265 309.87 389.456 309.626 390.659 309.626C391.862 309.626 393.053 309.87 394.16 310.341C395.268 310.813 396.268 311.503 397.102 312.37C397.936 313.238 398.586 314.265 399.013 315.39C399.441 316.515 399.636 317.715 399.589 318.917V356.025C399.636 357.227 399.441 358.427 399.013 359.552C398.586 360.677 397.936 361.704 397.102 362.572C396.268 363.439 395.268 364.13 394.16 364.601C393.053 365.073 391.862 365.316 390.659 365.316C389.456 365.316 388.265 365.073 387.157 364.601C386.05 364.13 385.05 363.439 384.216 362.572C383.382 361.704 382.732 360.677 382.304 359.552C381.877 358.427 381.682 357.227 381.729 356.025V318.917Z" fill="#828282" fill-opacity="0.7"/>
<path d="M354.246 308.181C353.818 309.306 353.623 310.506 353.67 311.708V348.816C353.623 350.019 353.818 351.218 354.246 352.343C354.673 353.468 355.323 354.495 356.157 355.363C356.991 356.231 357.991 356.921 359.099 357.392C360.206 357.864 361.397 358.107 362.6 358.107C363.803 358.107 364.994 357.864 366.102 357.392C367.209 356.921 368.209 356.231 369.043 355.363C369.877 354.495 370.527 353.468 370.954 352.343C371.382 351.218 371.577 350.019 371.53 348.816V311.708C371.577 310.506 371.382 309.306 370.954 308.181C370.527 307.056 369.877 306.029 369.043 305.162C368.209 304.294 367.209 303.604 366.102 303.132C364.994 302.661 363.803 302.418 362.6 302.418C361.397 302.418 360.206 302.661 359.099 303.132C357.991 303.604 356.991 304.294 356.157 305.162C355.323 306.029 354.673 307.056 354.246 308.181Z" fill="#828282" fill-opacity="0.7"/>
<path d="M129.2 311.708C129.152 310.506 129.348 309.306 129.775 308.181C130.203 307.056 130.853 306.029 131.687 305.162C132.521 304.294 133.521 303.604 134.628 303.132C135.735 302.661 136.926 302.418 138.13 302.418C139.333 302.418 140.524 302.661 141.631 303.132C142.739 303.604 143.739 304.294 144.573 305.162C145.407 306.029 146.057 307.056 146.484 308.181C146.912 309.306 147.107 310.506 147.06 311.708V348.816C147.107 350.019 146.912 351.218 146.484 352.343C146.057 353.468 145.407 354.495 144.573 355.363C143.739 356.231 142.739 356.921 141.631 357.392C140.524 357.864 139.333 358.107 138.13 358.107C136.926 358.107 135.735 357.864 134.628 357.392C133.521 356.921 132.521 356.231 131.687 355.363C130.853 354.495 130.203 353.468 129.775 352.343C129.348 351.218 129.152 350.019 129.2 348.816V311.708Z" fill="#828282" fill-opacity="0.7"/>
<path d="M101.717 315.39C101.289 316.515 101.094 317.715 101.141 318.917V356.025C101.094 357.227 101.289 358.427 101.717 359.552C102.144 360.677 102.794 361.704 103.628 362.572C104.462 363.439 105.462 364.13 106.569 364.601C107.677 365.073 108.868 365.316 110.071 365.316C111.274 365.316 112.465 365.073 113.573 364.601C114.68 364.13 115.68 363.439 116.514 362.572C117.348 361.704 117.998 360.677 118.425 359.552C118.853 358.427 119.048 357.227 119.001 356.025V318.917C119.048 317.715 118.853 316.515 118.425 315.39C117.998 314.265 117.348 313.238 116.514 312.37C115.68 311.503 114.68 310.813 113.573 310.341C112.465 309.87 111.274 309.626 110.071 309.626C108.868 309.626 107.677 309.87 106.569 310.341C105.462 310.813 104.462 311.503 103.628 312.37C102.794 313.238 102.144 314.265 101.717 315.39Z" fill="#828282" fill-opacity="0.7"/>
<path d="M73.0827 326.932C73.035 325.729 73.2307 324.53 73.658 323.405C74.0853 322.28 74.7354 321.253 75.5693 320.385C76.4032 319.518 77.4037 318.827 78.5109 318.356C79.618 317.884 80.809 317.641 82.0124 317.641C83.2158 317.641 84.4068 317.884 85.514 318.356C86.6211 318.827 87.6217 319.518 88.4556 320.385C89.2895 321.253 89.9395 322.28 90.3668 323.405C90.7941 324.53 90.9898 325.729 90.9421 326.932V364.04C90.9898 365.242 90.7941 366.442 90.3668 367.567C89.9395 368.692 89.2895 369.719 88.4556 370.586C87.6217 371.454 86.6211 372.144 85.514 372.616C84.4068 373.087 83.2158 373.33 82.0124 373.33C80.809 373.33 79.618 373.087 78.5109 372.616C77.4037 372.144 76.4032 371.454 75.5693 370.586C74.7354 369.719 74.0853 368.692 73.658 367.567C73.2307 366.442 73.035 365.242 73.0827 364.04V326.932Z" fill="#828282" fill-opacity="0.7"/>
<path d="M45.5992 334.42C45.1719 335.544 44.9762 336.744 45.0239 337.947V375.054C44.9762 376.257 45.1719 377.456 45.5992 378.581C46.0264 379.706 46.6765 380.734 47.5104 381.601C48.3443 382.469 49.3449 383.159 50.452 383.631C51.5592 384.102 52.7502 384.345 53.9536 384.345C55.157 384.345 56.3479 384.102 57.4551 383.631C58.5623 383.159 59.5629 382.469 60.3968 381.601C61.2307 380.734 61.8807 379.706 62.308 378.581C62.7353 377.456 62.931 376.257 62.8833 375.054V337.947C62.931 336.744 62.7353 335.544 62.308 334.42C61.8807 333.295 61.2307 332.267 60.3968 331.4C59.5629 330.532 58.5623 329.842 57.4551 329.37C56.3479 328.899 55.157 328.656 53.9536 328.656C52.7502 328.656 51.5592 328.899 50.452 329.37C49.3449 329.842 48.3443 330.532 47.5104 331.4C46.6765 332.267 46.0264 333.295 45.5992 334.42Z" fill="#828282" fill-opacity="0.7"/>
<path d="M16.965 350.364C16.9174 349.162 17.113 347.962 17.5403 346.837C17.9676 345.712 18.6177 344.685 19.4516 343.817C20.2855 342.95 21.286 342.26 22.3932 341.788C23.5004 341.317 24.6914 341.074 25.8948 341.074C27.0981 341.074 28.2891 341.317 29.3963 341.788C30.5035 342.26 31.504 342.95 32.3379 343.817C33.1718 344.685 33.8219 345.712 34.2492 346.837C34.6764 347.962 34.8721 349.162 34.8244 350.364V387.472C34.8721 388.674 34.6764 389.874 34.2492 390.999C33.8219 392.124 33.1718 393.151 32.3379 394.019C31.504 394.886 30.5035 395.577 29.3963 396.048C28.2891 396.52 27.0981 396.763 25.8948 396.763C24.6914 396.763 23.5004 396.52 22.3932 396.048C21.286 395.577 20.2855 394.886 19.4516 394.019C18.6177 393.151 17.9676 392.124 17.5403 390.999C17.113 389.874 16.9174 388.674 16.965 387.472V350.364Z" fill="#828282" fill-opacity="0.7"/>
<path fill-rule="evenodd" clip-rule="evenodd" d="M498.494 420.288C498.807 420.466 499 420.798 499 421.158V498.144C499 498.696 498.552 499.144 498 499.144H489.659C489.462 499.144 489.27 499.085 489.106 498.976C420.767 453.59 338.73 427.144 250.5 427.144C162.27 427.144 80.2333 453.59 11.8944 498.976C11.7302 499.085 11.5376 499.144 11.3406 499.144H2C1.44772 499.144 1 498.696 1 498.144V421.725C1 421.367 1.19217 421.035 1.5041 420.857C74.94 379.036 159.93 355.144 250.5 355.144C340.658 355.144 425.287 378.819 498.494 420.288ZM233 381.144C233 376.173 237.029 372.144 242 372.144H259C263.971 372.144 268 376.173 268 381.144V398.144C268 403.114 263.971 407.144 259 407.144H242C237.029 407.144 233 403.114 233 398.144V381.144Z" fill="#828282" fill-opacity="0.7"/>
<path d="M219.834 122C218.882 116.325 213.946 112 208 112C201.373 112 196 117.373 196 124C196 130.627 201.373 136 208 136C209.517 136 210.968 135.719 212.304 135.205L226.38 159H231.028L215.746 133.166C217.865 131.373 219.355 128.858 219.834 126H238.166C239.118 131.675 244.054 136 250 136C255.946 136 260.882 131.675 261.834 126H280.166C280.645 128.858 282.135 131.373 284.254 133.166L268.972 159H273.619L287.695 135.205C289.032 135.718 290.483 136 292 136C298.627 136 304 130.627 304 124C304 117.373 298.627 112 292 112C286.054 112 281.118 116.325 280.166 122H261.834C260.882 116.325 255.946 112 250 112C244.054 112 239.118 116.325 238.166 122H219.834Z" />
<path d="M213.007 268.291C212.959 267.088 213.155 265.889 213.582 264.764C214.01 263.639 214.66 262.612 215.494 261.744C216.327 260.876 217.328 260.186 218.435 259.715C219.542 259.243 220.733 259 221.937 259C223.14 259 224.331 259.243 225.438 259.715C226.545 260.186 227.546 260.876 228.38 261.744C229.214 262.612 229.864 263.639 230.291 264.764C230.718 265.889 230.914 267.088 230.866 268.291V305.398C230.914 306.601 230.718 307.801 230.291 308.926C229.864 310.051 229.214 311.078 228.38 311.945C227.546 312.813 226.545 313.503 225.438 313.975C224.331 314.446 223.14 314.689 221.937 314.689C220.733 314.689 219.542 314.446 218.435 313.975C217.328 313.503 216.327 312.813 215.494 311.945C214.66 311.078 214.01 310.051 213.582 308.926C213.155 307.801 212.959 306.601 213.007 305.398V268.291Z" />
<path d="M241.641 264.764C241.214 265.889 241.018 267.088 241.066 268.291V305.398C241.018 306.601 241.214 307.801 241.641 308.926C242.068 310.051 242.718 311.078 243.552 311.945C244.386 312.813 245.387 313.503 246.494 313.975C247.601 314.446 248.792 314.689 249.995 314.689C251.199 314.689 252.39 314.446 253.497 313.975C254.604 313.503 255.605 312.813 256.439 311.945C257.272 311.078 257.922 310.051 258.35 308.926C258.777 307.801 258.973 306.601 258.925 305.398V268.291C258.973 267.088 258.777 265.889 258.35 264.764C257.922 263.639 257.272 262.612 256.439 261.744C255.605 260.876 254.604 260.186 253.497 259.715C252.39 259.243 251.199 259 249.995 259C248.792 259 247.601 259.243 246.494 259.715C245.387 260.186 244.386 260.876 243.552 261.744C242.718 262.612 242.068 263.639 241.641 264.764Z" />
<path d="M269.7 264.764C269.272 265.889 269.077 267.088 269.124 268.291V305.398C269.077 306.601 269.272 307.801 269.7 308.926C270.127 310.051 270.777 311.078 271.611 311.945C272.445 312.813 273.445 313.503 274.553 313.975C275.66 314.446 276.851 314.689 278.054 314.689C279.258 314.689 280.449 314.446 281.556 313.975C282.663 313.503 283.663 312.813 284.497 311.945C285.331 311.078 285.981 310.051 286.409 308.926C286.836 307.801 287.032 306.601 286.984 305.398V268.291C287.032 267.088 286.836 265.889 286.409 264.764C285.981 263.639 285.331 262.612 284.497 261.744C283.663 260.876 282.663 260.186 281.556 259.715C280.449 259.243 279.258 259 278.054 259C276.851 259 275.66 259.243 274.553 259.715C273.445 260.186 272.445 260.876 271.611 261.744C270.777 262.612 270.127 263.639 269.7 264.764Z" />
</svg>
