<svg width="300" height="300" viewBox="0 0 300 300" fill="none" xmlns="http://www.w3.org/2000/svg">
<g clip-path="url(#clip0_7364_14681)">
<rect width="300" height="300" fill="white"/>
<path fill-rule="evenodd" clip-rule="evenodd" d="M151.732 259.677C6.78241 259.677 -110.682 377.05 -110.682 521.787C-110.682 666.525 6.78241 783.897 151.732 783.897C296.681 783.897 414.146 666.525 414.146 521.787C414.146 377.05 296.681 259.677 151.732 259.677ZM-154.469 521.787C-154.469 352.823 -17.356 215.891 151.732 215.891C320.82 215.891 457.933 352.823 457.933 521.787C457.933 690.751 320.82 827.684 151.732 827.684C-17.356 827.684 -154.469 690.751 -154.469 521.787Z" fill="#E0E0E0"/>
<path d="M128.711 74.6523L148.805 116.676L171.275 74.6523H128.711Z" stroke="black" stroke-width="1.82443" stroke-miterlimit="10"/>
<path d="M128.711 102.307V131.047C128.713 132.881 129.442 134.639 130.739 135.935C132.036 137.231 133.795 137.959 135.629 137.959H164.363C166.196 137.959 167.954 137.231 169.25 135.935C170.547 134.638 171.275 132.88 171.275 131.047V102.307C171.275 100.474 170.547 98.7157 169.25 97.4195C167.954 96.1232 166.196 95.395 164.363 95.395H135.629C133.795 95.395 132.036 96.1231 130.739 97.4191C129.442 98.7152 128.713 100.473 128.711 102.307Z" fill="#B7B8BB"/>
<path d="M128.713 81.5574C127.346 81.5562 126.01 81.1498 124.874 80.3896C123.738 79.6294 122.853 78.5495 122.331 77.2864C121.809 76.0232 121.673 74.6337 121.94 73.2933C122.208 71.9529 122.866 70.7218 123.833 69.7558C124.8 68.7897 126.032 68.132 127.372 67.8658C128.713 67.5996 130.102 67.7368 131.365 68.2601C132.628 68.7834 133.707 69.6694 134.466 70.8059C135.225 71.9425 135.631 73.2786 135.631 74.6454C135.631 75.5536 135.452 76.4529 135.104 77.2919C134.756 78.1309 134.247 78.8931 133.604 79.535C132.962 80.177 132.199 80.686 131.36 81.033C130.52 81.38 129.621 81.5582 128.713 81.5574Z" fill="black"/>
<path d="M149.992 81.0298C148.624 81.031 147.285 80.6262 146.147 79.8665C145.008 79.1068 144.12 78.0264 143.596 76.762C143.072 75.4977 142.934 74.1062 143.201 72.7637C143.468 71.4212 144.127 70.1879 145.095 69.2201C146.062 68.2522 147.296 67.5932 148.638 67.3265C149.981 67.0597 151.372 67.1972 152.637 67.7216C153.901 68.246 154.981 69.1336 155.741 70.2722C156.501 71.4107 156.906 72.7491 156.904 74.1178C156.904 75.951 156.176 77.7091 154.88 79.0054C153.584 80.3016 151.826 81.0298 149.992 81.0298Z" fill="black"/>
<path d="M171.275 67.7583C169.908 67.7583 168.572 68.1637 167.435 68.9232C166.299 69.6827 165.413 70.7622 164.889 72.0252C164.366 73.2882 164.229 74.678 164.496 76.0188C164.763 77.3596 165.421 78.5912 166.388 79.5578C167.354 80.5245 168.586 81.1828 169.927 81.4495C171.268 81.7162 172.657 81.5793 173.92 81.0562C175.183 80.533 176.263 79.6471 177.022 78.5104C177.782 77.3737 178.187 76.0374 178.187 74.6703C178.187 72.8371 177.459 71.079 176.163 69.7828C174.867 68.4865 173.108 67.7583 171.275 67.7583Z" fill="black"/>
<path d="M195.367 183.455C195.339 182.734 195.456 182.014 195.713 181.339C195.969 180.664 196.359 180.048 196.859 179.527C197.36 179.007 197.96 178.592 198.624 178.31C199.289 178.027 200.003 177.881 200.725 177.881C201.447 177.881 202.162 178.027 202.826 178.31C203.491 178.592 204.091 179.007 204.591 179.527C205.092 180.048 205.482 180.664 205.738 181.339C205.994 182.014 206.112 182.734 206.083 183.455V205.72C206.112 206.441 205.994 207.161 205.738 207.836C205.482 208.511 205.092 209.127 204.591 209.648C204.091 210.169 203.491 210.583 202.826 210.866C202.162 211.149 201.447 211.294 200.725 211.294C200.003 211.294 199.289 211.149 198.624 210.866C197.96 210.583 197.36 210.169 196.859 209.648C196.359 209.127 195.969 208.511 195.713 207.836C195.456 207.161 195.339 206.441 195.367 205.72V183.455Z" fill="#E0E0E0"/>
<path d="M178.532 180.572C178.503 179.85 178.62 179.13 178.877 178.455C179.133 177.78 179.523 177.164 180.023 176.643C180.524 176.123 181.124 175.709 181.788 175.426C182.453 175.143 183.167 174.997 183.889 174.997C184.611 174.997 185.326 175.143 185.99 175.426C186.655 175.709 187.255 176.123 187.755 176.643C188.256 177.164 188.646 177.78 188.902 178.455C189.158 179.13 189.276 179.85 189.247 180.572V202.836C189.276 203.558 189.158 204.277 188.902 204.952C188.646 205.627 188.256 206.244 187.755 206.764C187.255 207.285 186.655 207.699 185.99 207.982C185.326 208.265 184.611 208.411 183.889 208.411C183.167 208.411 182.453 208.265 181.788 207.982C181.124 207.699 180.524 207.285 180.023 206.764C179.523 206.244 179.133 205.627 178.877 204.952C178.62 204.277 178.503 203.558 178.532 202.836V180.572Z" fill="#E0E0E0"/>
<path d="M161.696 160.974C161.667 160.253 161.784 159.533 162.041 158.858C162.297 158.183 162.687 157.567 163.188 157.046C163.688 156.526 164.288 156.112 164.953 155.829C165.617 155.546 166.331 155.4 167.053 155.4C167.775 155.4 168.49 155.546 169.154 155.829C169.819 156.112 170.419 156.526 170.919 157.046C171.42 157.567 171.81 158.183 172.066 158.858C172.322 159.533 172.44 160.253 172.411 160.974V183.239C172.44 183.96 172.322 184.68 172.066 185.355C171.81 186.03 171.42 186.646 170.919 187.167C170.419 187.688 169.819 188.102 169.154 188.385C168.49 188.668 167.775 188.813 167.053 188.813C166.331 188.813 165.617 188.668 164.953 188.385C164.288 188.102 163.688 187.688 163.188 187.167C162.687 186.646 162.297 186.03 162.041 185.355C161.784 184.68 161.667 183.96 161.696 183.239V160.974Z" fill="#1C1C1C"/>
<path d="M144.862 160.974C144.833 160.253 144.95 159.533 145.207 158.858C145.463 158.183 145.853 157.567 146.354 157.046C146.854 156.526 147.454 156.112 148.119 155.829C148.783 155.546 149.497 155.4 150.219 155.4C150.942 155.4 151.656 155.546 152.32 155.829C152.985 156.112 153.585 156.526 154.085 157.046C154.586 157.567 154.976 158.183 155.232 158.858C155.488 159.533 155.606 160.253 155.577 160.974V183.239C155.606 183.96 155.488 184.68 155.232 185.355C154.976 186.03 154.586 186.646 154.085 187.167C153.585 187.688 152.985 188.102 152.32 188.385C151.656 188.668 150.942 188.813 150.219 188.813C149.497 188.813 148.783 188.668 148.119 188.385C147.454 188.102 146.854 187.688 146.354 187.167C145.853 186.646 145.463 186.03 145.207 185.355C144.95 184.68 144.833 183.96 144.862 183.239V160.974Z" fill="#1C1C1C"/>
<path d="M128.026 160.974C127.997 160.253 128.115 159.533 128.371 158.858C128.627 158.183 129.017 157.567 129.518 157.046C130.018 156.526 130.618 156.112 131.283 155.829C131.947 155.546 132.662 155.4 133.384 155.4C134.106 155.4 134.82 155.546 135.484 155.829C136.149 156.112 136.749 156.526 137.249 157.046C137.75 157.567 138.14 158.183 138.396 158.858C138.653 159.533 138.77 160.253 138.741 160.974V183.239C138.77 183.96 138.653 184.68 138.396 185.355C138.14 186.03 137.75 186.646 137.249 187.167C136.749 187.688 136.149 188.102 135.484 188.385C134.82 188.668 134.106 188.813 133.384 188.813C132.662 188.813 131.947 188.668 131.283 188.385C130.618 188.102 130.018 187.688 129.518 187.167C129.017 186.646 128.627 186.03 128.371 185.355C128.115 184.68 127.997 183.96 128.026 183.239V160.974Z" fill="#1C1C1C"/>
<path d="M111.192 180.572C111.163 179.85 111.281 179.13 111.537 178.455C111.793 177.78 112.183 177.164 112.684 176.643C113.184 176.123 113.784 175.709 114.449 175.426C115.113 175.143 115.828 174.997 116.55 174.997C117.272 174.997 117.986 175.143 118.65 175.426C119.315 175.709 119.915 176.123 120.415 176.643C120.916 177.164 121.306 177.78 121.562 178.455C121.819 179.13 121.936 179.85 121.907 180.572V202.836C121.936 203.558 121.819 204.277 121.562 204.952C121.306 205.627 120.916 206.244 120.415 206.764C119.915 207.285 119.315 207.699 118.65 207.982C117.986 208.265 117.272 208.411 116.55 208.411C115.828 208.411 115.113 208.265 114.449 207.982C113.784 207.699 113.184 207.285 112.684 206.764C112.183 206.244 111.793 205.627 111.537 204.952C111.281 204.277 111.163 203.558 111.192 202.836V180.572Z" fill="#E0E0E0"/>
<path d="M94.3558 183.455C94.3272 182.734 94.4446 182.014 94.7009 181.339C94.9573 180.664 95.3474 180.048 95.8477 179.527C96.3481 179.007 96.9484 178.592 97.6127 178.31C98.277 178.027 98.9916 177.881 99.7136 177.881C100.436 177.881 101.15 178.027 101.815 178.31C102.479 178.592 103.079 179.007 103.58 179.527C104.08 180.048 104.47 180.664 104.726 181.339C104.983 182.014 105.1 182.734 105.071 183.455V205.72C105.1 206.441 104.983 207.161 104.726 207.836C104.47 208.511 104.08 209.127 103.58 209.648C103.079 210.169 102.479 210.583 101.815 210.866C101.15 211.149 100.436 211.294 99.7136 211.294C98.9916 211.294 98.277 211.149 97.6127 210.866C96.9484 210.583 96.3481 210.169 95.8477 209.648C95.3474 209.127 94.9573 208.511 94.7009 207.836C94.4446 207.161 94.3272 206.441 94.3558 205.72V183.455Z" fill="#E0E0E0"/>
<path d="M296.377 219.025C296.349 218.304 296.466 217.584 296.722 216.909C296.979 216.234 297.369 215.618 297.869 215.097C298.37 214.576 298.97 214.162 299.634 213.879C300.298 213.597 301.013 213.451 301.735 213.451C302.457 213.451 303.172 213.597 303.836 213.879C304.5 214.162 305.101 214.576 305.601 215.097C306.101 215.618 306.491 216.234 306.748 216.909C307.004 217.584 307.122 218.304 307.093 219.025V241.29C307.122 242.011 307.004 242.731 306.748 243.406C306.491 244.081 306.101 244.697 305.601 245.218C305.101 245.738 304.5 246.153 303.836 246.435C303.172 246.718 302.457 246.864 301.735 246.864C301.013 246.864 300.298 246.718 299.634 246.435C298.97 246.153 298.37 245.738 297.869 245.218C297.369 244.697 296.979 244.081 296.722 243.406C296.466 242.731 296.349 242.011 296.377 241.29V219.025Z" fill="#E0E0E0"/>
<path d="M279.543 210.132C279.515 209.411 279.632 208.691 279.888 208.016C280.145 207.341 280.535 206.725 281.035 206.204C281.536 205.683 282.136 205.269 282.8 204.986C283.464 204.703 284.179 204.558 284.901 204.558C285.623 204.558 286.338 204.703 287.002 204.986C287.666 205.269 288.267 205.683 288.767 206.204C289.267 206.725 289.657 207.341 289.914 208.016C290.17 208.691 290.288 209.411 290.259 210.132V232.397C290.288 233.118 290.17 233.838 289.914 234.513C289.657 235.188 289.267 235.804 288.767 236.325C288.267 236.845 287.666 237.26 287.002 237.542C286.338 237.825 285.623 237.971 284.901 237.971C284.179 237.971 283.464 237.825 282.8 237.542C282.136 237.26 281.536 236.845 281.035 236.325C280.535 235.804 280.145 235.188 279.888 234.513C279.632 233.838 279.515 233.118 279.543 232.397V210.132Z" fill="#E0E0E0"/>
<path d="M262.707 202.682C262.679 201.96 262.796 201.241 263.053 200.566C263.309 199.891 263.699 199.274 264.199 198.754C264.7 198.233 265.3 197.819 265.964 197.536C266.629 197.253 267.343 197.107 268.065 197.107C268.787 197.107 269.502 197.253 270.166 197.536C270.83 197.819 271.431 198.233 271.931 198.754C272.431 199.274 272.821 199.891 273.078 200.566C273.334 201.241 273.452 201.96 273.423 202.682V224.947C273.452 225.668 273.334 226.388 273.078 227.063C272.821 227.738 272.431 228.354 271.931 228.875C271.431 229.395 270.83 229.809 270.166 230.092C269.502 230.375 268.787 230.521 268.065 230.521C267.343 230.521 266.629 230.375 265.964 230.092C265.3 229.809 264.7 229.395 264.199 228.875C263.699 228.354 263.309 227.738 263.053 227.063C262.796 226.388 262.679 225.668 262.707 224.947V202.682Z" fill="#E0E0E0"/>
<path d="M245.873 196.673C245.845 195.951 245.962 195.231 246.219 194.556C246.475 193.881 246.865 193.265 247.365 192.745C247.866 192.224 248.466 191.81 249.13 191.527C249.795 191.244 250.509 191.098 251.231 191.098C251.953 191.098 252.668 191.244 253.332 191.527C253.996 191.81 254.597 192.224 255.097 192.745C255.597 193.265 255.987 193.881 256.244 194.556C256.5 195.231 256.618 195.951 256.589 196.673V218.937C256.618 219.659 256.5 220.379 256.244 221.054C255.987 221.728 255.597 222.345 255.097 222.865C254.597 223.386 253.996 223.8 253.332 224.083C252.668 224.366 251.953 224.512 251.231 224.512C250.509 224.512 249.795 224.366 249.13 224.083C248.466 223.8 247.866 223.386 247.365 222.865C246.865 222.345 246.475 221.728 246.219 221.054C245.962 220.379 245.845 219.659 245.873 218.937V196.673Z" fill="#E0E0E0"/>
<path d="M229.035 191.264C229.007 190.542 229.124 189.823 229.381 189.148C229.637 188.473 230.027 187.856 230.527 187.336C231.028 186.815 231.628 186.401 232.292 186.118C232.957 185.835 233.671 185.689 234.393 185.689C235.115 185.689 235.83 185.835 236.494 186.118C237.159 186.401 237.759 186.815 238.259 187.336C238.76 187.856 239.15 188.473 239.406 189.148C239.662 189.823 239.78 190.542 239.751 191.264V213.529C239.78 214.25 239.662 214.97 239.406 215.645C239.15 216.32 238.76 216.936 238.259 217.457C237.759 217.977 237.159 218.391 236.494 218.674C235.83 218.957 235.115 219.103 234.393 219.103C233.671 219.103 232.957 218.957 232.292 218.674C231.628 218.391 231.028 217.977 230.527 217.457C230.027 216.936 229.637 216.32 229.381 215.645C229.124 214.97 229.007 214.25 229.035 213.529V191.264Z" fill="#E0E0E0"/>
<path d="M212.201 186.939C212.173 186.217 212.29 185.497 212.547 184.822C212.803 184.147 213.193 183.531 213.693 183.011C214.194 182.49 214.794 182.076 215.458 181.793C216.123 181.51 216.837 181.364 217.559 181.364C218.281 181.364 218.996 181.51 219.66 181.793C220.325 182.076 220.925 182.49 221.425 183.011C221.926 183.531 222.316 184.147 222.572 184.822C222.828 185.497 222.946 186.217 222.917 186.939V209.203C222.946 209.925 222.828 210.645 222.572 211.32C222.316 211.995 221.926 212.611 221.425 213.131C220.925 213.652 220.325 214.066 219.66 214.349C218.996 214.632 218.281 214.778 217.559 214.778C216.837 214.778 216.123 214.632 215.458 214.349C214.794 214.066 214.194 213.652 213.693 213.131C213.193 212.611 212.803 211.995 212.547 211.32C212.29 210.645 212.173 209.925 212.201 209.203V186.939Z" fill="#E0E0E0"/>
<path d="M77.5198 186.939C77.4912 186.217 77.6086 185.497 77.865 184.822C78.1214 184.147 78.5114 183.531 79.0118 183.011C79.5121 182.49 80.1124 182.076 80.7767 181.793C81.441 181.51 82.1556 181.364 82.8777 181.364C83.5997 181.364 84.3143 181.51 84.9786 181.793C85.6429 182.076 86.2432 182.49 86.7436 183.011C87.2439 183.531 87.6339 184.147 87.8903 184.822C88.1467 185.497 88.2641 186.217 88.2355 186.939V209.203C88.2641 209.925 88.1467 210.645 87.8903 211.32C87.6339 211.995 87.2439 212.611 86.7436 213.131C86.2432 213.652 85.6429 214.066 84.9786 214.349C84.3143 214.632 83.5997 214.778 82.8777 214.778C82.1556 214.778 81.441 214.632 80.7767 214.349C80.1124 214.066 79.5121 213.652 79.0118 213.131C78.5114 212.611 78.1214 211.995 77.865 211.32C77.6086 210.645 77.4912 209.925 77.5198 209.203V186.939Z" fill="#E0E0E0"/>
<path d="M60.6839 191.264C60.6553 190.542 60.7727 189.823 61.0291 189.148C61.2854 188.473 61.6755 187.856 62.1758 187.336C62.6762 186.815 63.2765 186.401 63.9408 186.118C64.6051 185.835 65.3197 185.689 66.0417 185.689C66.7638 185.689 67.4784 185.835 68.1427 186.118C68.807 186.401 69.4073 186.815 69.9076 187.336C70.408 187.856 70.798 188.473 71.0544 189.148C71.3107 189.823 71.4282 190.542 71.3996 191.264V213.529C71.4282 214.25 71.3107 214.97 71.0544 215.645C70.798 216.32 70.408 216.936 69.9076 217.457C69.4073 217.977 68.807 218.391 68.1427 218.674C67.4784 218.957 66.7638 219.103 66.0417 219.103C65.3197 219.103 64.6051 218.957 63.9408 218.674C63.2765 218.391 62.6762 217.977 62.1758 217.457C61.6755 216.936 61.2854 216.32 61.0291 215.645C60.7727 214.97 60.6553 214.25 60.6839 213.529V191.264Z" fill="#E0E0E0"/>
<path d="M43.8499 196.073C43.8213 195.352 43.9387 194.632 44.1951 193.957C44.4515 193.282 44.8415 192.665 45.3419 192.145C45.8422 191.624 46.4425 191.21 47.1068 190.927C47.7711 190.644 48.4857 190.499 49.2078 190.499C49.9298 190.499 50.6444 190.644 51.3087 190.927C51.973 191.21 52.5733 191.624 53.0737 192.145C53.574 192.665 53.964 193.282 54.2204 193.957C54.4768 194.632 54.5942 195.352 54.5656 196.073V218.338C54.5942 219.059 54.4768 219.779 54.2204 220.454C53.964 221.129 53.574 221.745 53.0737 222.266C52.5733 222.786 51.973 223.2 51.3087 223.483C50.6444 223.766 49.9298 223.912 49.2078 223.912C48.4857 223.912 47.7711 223.766 47.1068 223.483C46.4425 223.2 45.8422 222.786 45.3419 222.266C44.8415 221.745 44.4515 221.129 44.1951 220.454C43.9387 219.779 43.8213 219.059 43.8499 218.338V196.073Z" fill="#E0E0E0"/>
<path d="M27.014 202.682C26.9854 201.96 27.1028 201.241 27.3592 200.566C27.6155 199.891 28.0056 199.274 28.5059 198.754C29.0063 198.233 29.6066 197.819 30.2709 197.536C30.9352 197.253 31.6498 197.107 32.3718 197.107C33.0939 197.107 33.8084 197.253 34.4727 197.536C35.137 197.819 35.7374 198.233 36.2377 198.754C36.7381 199.274 37.1281 199.891 37.3845 200.566C37.6408 201.241 37.7582 201.96 37.7296 202.682V224.947C37.7582 225.668 37.6408 226.388 37.3845 227.063C37.1281 227.738 36.7381 228.354 36.2377 228.875C35.7374 229.395 35.137 229.809 34.4727 230.092C33.8084 230.375 33.0939 230.521 32.3718 230.521C31.6498 230.521 30.9352 230.375 30.2709 230.092C29.6066 229.809 29.0063 229.395 28.5059 228.875C28.0056 228.354 27.6155 227.738 27.3592 227.063C27.1028 226.388 26.9854 225.668 27.014 224.947V202.682Z" fill="#E0E0E0"/>
<path d="M10.18 210.132C10.1514 209.411 10.2688 208.691 10.5252 208.016C10.7815 207.341 11.1716 206.725 11.6719 206.204C12.1723 205.683 12.7726 205.269 13.4369 204.986C14.1012 204.703 14.8158 204.558 15.5378 204.558C16.2599 204.558 16.9744 204.703 17.6387 204.986C18.303 205.269 18.9034 205.683 19.4037 206.204C19.9041 206.725 20.2941 207.341 20.5505 208.016C20.8068 208.691 20.9242 209.411 20.8956 210.132V232.397C20.9242 233.118 20.8068 233.838 20.5505 234.513C20.2941 235.188 19.9041 235.804 19.4037 236.325C18.9034 236.845 18.303 237.26 17.6387 237.542C16.9744 237.825 16.2599 237.971 15.5378 237.971C14.8158 237.971 14.1012 237.825 13.4369 237.542C12.7726 237.26 12.1723 236.845 11.6719 236.325C11.1716 235.804 10.7815 235.188 10.5252 234.513C10.2688 233.838 10.1514 233.118 10.18 232.397V210.132Z" fill="#E0E0E0"/>
<path d="M-6.65595 219.025C-6.68455 218.304 -6.56714 217.584 -6.31077 216.909C-6.0544 216.234 -5.66435 215.618 -5.16401 215.097C-4.66367 214.576 -4.06335 214.162 -3.39905 213.879C-2.73474 213.597 -2.02014 213.451 -1.29811 213.451C-0.576073 213.451 0.138505 213.597 0.802808 213.879C1.46711 214.162 2.06745 214.576 2.56779 215.097C3.06813 215.618 3.45816 216.234 3.71453 216.909C3.9709 217.584 4.08831 218.304 4.05971 219.025V241.29C4.08831 242.011 3.9709 242.731 3.71453 243.406C3.45816 244.081 3.06813 244.697 2.56779 245.218C2.06745 245.738 1.46711 246.153 0.802808 246.435C0.138505 246.718 -0.576073 246.864 -1.29811 246.864C-2.02014 246.864 -2.73474 246.718 -3.39905 246.435C-4.06335 246.153 -4.66367 245.738 -5.16401 245.218C-5.66435 244.697 -6.0544 244.081 -6.31077 243.406C-6.56714 242.731 -6.68455 242.011 -6.65595 241.29V219.025Z" fill="#E0E0E0"/>
<rect x="141.697" y="226.23" width="21.285" height="21.285" rx="5.4733" fill="white"/>
</g>
<rect x="0.5" y="0.5" width="299" height="299" stroke="#B7B8BB"/>
<defs>
<clipPath id="clip0_7364_14681">
<rect width="300" height="300" fill="white"/>
</clipPath>
</defs>
</svg>
