<svg width="300" height="300" viewBox="0 0 300 300" fill="none" xmlns="http://www.w3.org/2000/svg">
<g clip-path="url(#clip0_7364_14817)">
<rect width="300" height="300" fill="white"/>
<path fill-rule="evenodd" clip-rule="evenodd" d="M149.7 256.2C6.69131 256.2 -109.2 372 -109.2 514.8C-109.2 657.599 6.69131 773.4 149.7 773.4C292.708 773.4 408.6 657.599 408.6 514.8C408.6 372 292.708 256.2 149.7 256.2ZM-152.4 514.8C-152.4 348.098 -17.1238 213 149.7 213C316.523 213 451.8 348.098 451.8 514.8C451.8 681.501 316.523 816.6 149.7 816.6C-17.1238 816.6 -152.4 681.501 -152.4 514.8Z" fill="#E0E0E0"/>
<path d="M128.711 74.6514L148.805 116.675L171.275 74.6514H128.711Z" stroke="black" stroke-width="1.82443" stroke-miterlimit="10"/>
<path d="M128.711 102.305V131.045C128.713 132.879 129.442 134.637 130.739 135.933C132.036 137.229 133.795 137.957 135.629 137.957H164.363C166.196 137.957 167.954 137.229 169.25 135.933C170.547 134.636 171.275 132.878 171.275 131.045V102.305C171.275 100.472 170.547 98.7138 169.25 97.4175C167.954 96.1213 166.196 95.3931 164.363 95.3931H135.629C133.795 95.3931 132.036 96.1211 130.739 97.4172C129.442 98.7133 128.713 100.471 128.711 102.305Z" fill="#B7B8BB"/>
<path d="M128.709 81.5574C127.342 81.5562 126.006 81.1498 124.87 80.3896C123.734 79.6294 122.849 78.5495 122.327 77.2863C121.805 76.0232 121.669 74.6337 121.936 73.2933C122.204 71.9529 122.862 70.7218 123.829 69.7558C124.796 68.7897 126.028 68.132 127.368 67.8658C128.709 67.5996 130.099 67.7368 131.361 68.2601C132.624 68.7834 133.703 69.6694 134.462 70.8059C135.222 71.9425 135.627 73.2786 135.627 74.6454C135.627 75.5536 135.448 76.4529 135.1 77.2919C134.752 78.1309 134.243 78.8931 133.6 79.535C132.958 80.177 132.195 80.686 131.356 81.033C130.516 81.38 129.617 81.5582 128.709 81.5574Z" fill="black"/>
<path d="M149.992 81.0303C148.624 81.0315 147.285 80.6266 146.147 79.8669C145.008 79.1072 144.12 78.0268 143.596 76.7625C143.072 75.4982 142.934 74.1067 143.201 72.7642C143.468 71.4217 144.127 70.1884 145.095 69.2206C146.062 68.2527 147.296 67.5937 148.638 67.327C149.981 67.0602 151.372 67.1977 152.637 67.7221C153.901 68.2464 154.981 69.1341 155.741 70.2726C156.501 71.4112 156.906 72.7496 156.904 74.1183C156.904 75.9515 156.176 77.7096 154.88 79.0058C153.584 80.3021 151.826 81.0303 149.992 81.0303Z" fill="black"/>
<path d="M171.275 67.7573C169.908 67.7573 168.572 68.1627 167.435 68.9222C166.299 69.6817 165.413 70.7612 164.889 72.0242C164.366 73.2872 164.229 74.677 164.496 76.0178C164.763 77.3586 165.421 78.5902 166.388 79.5568C167.354 80.5235 168.586 81.1818 169.927 81.4485C171.268 81.7152 172.657 81.5783 173.92 81.0552C175.183 80.532 176.263 79.6461 177.022 78.5094C177.782 77.3728 178.187 76.0364 178.187 74.6693C178.187 72.8362 177.459 71.0781 176.163 69.7818C174.867 68.4856 173.108 67.7573 171.275 67.7573Z" fill="black"/>
<path d="M195.366 183.454C195.337 182.733 195.454 182.013 195.711 181.338C195.967 180.663 196.357 180.047 196.857 179.526C197.358 179.006 197.958 178.592 198.622 178.309C199.287 178.026 200.001 177.88 200.723 177.88C201.445 177.88 202.16 178.026 202.824 178.309C203.489 178.592 204.089 179.006 204.589 179.526C205.09 180.047 205.48 180.663 205.736 181.338C205.992 182.013 206.11 182.733 206.081 183.454V205.719C206.11 206.44 205.992 207.16 205.736 207.835C205.48 208.51 205.09 209.127 204.589 209.647C204.089 210.168 203.489 210.582 202.824 210.865C202.16 211.148 201.445 211.293 200.723 211.293C200.001 211.293 199.287 211.148 198.622 210.865C197.958 210.582 197.358 210.168 196.857 209.647C196.357 209.127 195.967 208.51 195.711 207.835C195.454 207.16 195.337 206.44 195.366 205.719V183.454Z" fill="#E0E0E0"/>
<path d="M178.53 180.572C178.501 179.85 178.618 179.13 178.875 178.455C179.131 177.78 179.521 177.164 180.022 176.643C180.522 176.123 181.122 175.709 181.787 175.426C182.451 175.143 183.165 174.997 183.887 174.997C184.609 174.997 185.324 175.143 185.988 175.426C186.653 175.709 187.253 176.123 187.753 176.643C188.254 177.164 188.644 177.78 188.9 178.455C189.156 179.13 189.274 179.85 189.245 180.572V202.836C189.274 203.558 189.156 204.277 188.9 204.952C188.644 205.627 188.254 206.244 187.753 206.764C187.253 207.285 186.653 207.699 185.988 207.982C185.324 208.265 184.609 208.411 183.887 208.411C183.165 208.411 182.451 208.265 181.787 207.982C181.122 207.699 180.522 207.285 180.022 206.764C179.521 206.244 179.131 205.627 178.875 204.952C178.618 204.277 178.501 203.558 178.53 202.836V180.572Z" fill="#E0E0E0"/>
<path d="M161.694 160.974C161.665 160.252 161.782 159.533 162.039 158.858C162.295 158.183 162.685 157.566 163.186 157.046C163.686 156.525 164.286 156.111 164.951 155.828C165.615 155.545 166.329 155.399 167.052 155.399C167.774 155.399 168.488 155.545 169.152 155.828C169.817 156.111 170.417 156.525 170.917 157.046C171.418 157.566 171.808 158.183 172.064 158.858C172.321 159.533 172.438 160.252 172.409 160.974V183.239C172.438 183.96 172.321 184.68 172.064 185.355C171.808 186.03 171.418 186.646 170.917 187.167C170.417 187.687 169.817 188.101 169.152 188.384C168.488 188.667 167.774 188.813 167.052 188.813C166.329 188.813 165.615 188.667 164.951 188.384C164.286 188.101 163.686 187.687 163.186 187.167C162.685 186.646 162.295 186.03 162.039 185.355C161.782 184.68 161.665 183.96 161.694 183.239V160.974Z" fill="#1C1C1C"/>
<path d="M144.86 160.974C144.831 160.252 144.948 159.533 145.205 158.858C145.461 158.183 145.851 157.566 146.352 157.046C146.852 156.525 147.452 156.111 148.117 155.828C148.781 155.545 149.495 155.399 150.218 155.399C150.94 155.399 151.654 155.545 152.318 155.828C152.983 156.111 153.583 156.525 154.083 157.046C154.584 157.566 154.974 158.183 155.23 158.858C155.487 159.533 155.604 160.252 155.575 160.974V183.239C155.604 183.96 155.487 184.68 155.23 185.355C154.974 186.03 154.584 186.646 154.083 187.167C153.583 187.687 152.983 188.101 152.318 188.384C151.654 188.667 150.94 188.813 150.218 188.813C149.495 188.813 148.781 188.667 148.117 188.384C147.452 188.101 146.852 187.687 146.352 187.167C145.851 186.646 145.461 186.03 145.205 185.355C144.948 184.68 144.831 183.96 144.86 183.239V160.974Z" fill="#1C1C1C"/>
<path d="M128.024 160.974C127.995 160.252 128.113 159.533 128.369 158.858C128.625 158.183 129.015 157.566 129.516 157.046C130.016 156.525 130.616 156.111 131.281 155.828C131.945 155.545 132.66 155.399 133.382 155.399C134.104 155.399 134.818 155.545 135.483 155.828C136.147 156.111 136.747 156.525 137.247 157.046C137.748 157.566 138.138 158.183 138.394 158.858C138.651 159.533 138.768 160.252 138.739 160.974V183.239C138.768 183.96 138.651 184.68 138.394 185.355C138.138 186.03 137.748 186.646 137.247 187.167C136.747 187.687 136.147 188.101 135.483 188.384C134.818 188.667 134.104 188.813 133.382 188.813C132.66 188.813 131.945 188.667 131.281 188.384C130.616 188.101 130.016 187.687 129.516 187.167C129.015 186.646 128.625 186.03 128.369 185.355C128.113 184.68 127.995 183.96 128.024 183.239V160.974Z" fill="#1C1C1C"/>
<path d="M111.19 180.572C111.161 179.85 111.279 179.13 111.535 178.455C111.791 177.78 112.181 177.164 112.682 176.643C113.182 176.123 113.782 175.709 114.447 175.426C115.111 175.143 115.826 174.997 116.548 174.997C117.27 174.997 117.984 175.143 118.649 175.426C119.313 175.709 119.913 176.123 120.413 176.643C120.914 177.164 121.304 177.78 121.56 178.455C121.817 179.13 121.934 179.85 121.905 180.572V202.836C121.934 203.558 121.817 204.277 121.56 204.952C121.304 205.627 120.914 206.244 120.413 206.764C119.913 207.285 119.313 207.699 118.649 207.982C117.984 208.265 117.27 208.411 116.548 208.411C115.826 208.411 115.111 208.265 114.447 207.982C113.782 207.699 113.182 207.285 112.682 206.764C112.181 206.244 111.791 205.627 111.535 204.952C111.279 204.277 111.161 203.558 111.19 202.836V180.572Z" fill="#E0E0E0"/>
<path d="M94.3538 183.454C94.3252 182.733 94.4426 182.013 94.699 181.338C94.9554 180.663 95.3454 180.047 95.8458 179.526C96.3461 179.006 96.9464 178.592 97.6107 178.309C98.275 178.026 98.9896 177.88 99.7117 177.88C100.434 177.88 101.148 178.026 101.813 178.309C102.477 178.592 103.077 179.006 103.578 179.526C104.078 180.047 104.468 180.663 104.724 181.338C104.981 182.013 105.098 182.733 105.069 183.454V205.719C105.098 206.44 104.981 207.16 104.724 207.835C104.468 208.51 104.078 209.127 103.578 209.647C103.077 210.168 102.477 210.582 101.813 210.865C101.148 211.148 100.434 211.293 99.7117 211.293C98.9896 211.293 98.275 211.148 97.6107 210.865C96.9464 210.582 96.3461 210.168 95.8458 209.647C95.3454 209.127 94.9554 208.51 94.699 207.835C94.4426 207.16 94.3252 206.44 94.3538 205.719V183.454Z" fill="#E0E0E0"/>
<path d="M296.377 219.024C296.349 218.302 296.466 217.582 296.722 216.907C296.979 216.232 297.369 215.616 297.869 215.096C298.37 214.575 298.97 214.161 299.634 213.878C300.298 213.595 301.013 213.449 301.735 213.449C302.457 213.449 303.172 213.595 303.836 213.878C304.5 214.161 305.101 214.575 305.601 215.096C306.101 215.616 306.491 216.232 306.748 216.907C307.004 217.582 307.122 218.302 307.093 219.024V241.288C307.122 242.01 307.004 242.73 306.748 243.405C306.491 244.08 306.101 244.696 305.601 245.216C305.101 245.737 304.5 246.151 303.836 246.434C303.172 246.717 302.457 246.863 301.735 246.863C301.013 246.863 300.298 246.717 299.634 246.434C298.97 246.151 298.37 245.737 297.869 245.216C297.369 244.696 296.979 244.08 296.722 243.405C296.466 242.73 296.349 242.01 296.377 241.288V219.024Z" fill="#E0E0E0"/>
<path d="M279.541 210.132C279.513 209.411 279.63 208.691 279.886 208.016C280.143 207.341 280.533 206.725 281.033 206.204C281.534 205.683 282.134 205.269 282.798 204.986C283.463 204.703 284.177 204.558 284.899 204.558C285.621 204.558 286.336 204.703 287 204.986C287.664 205.269 288.265 205.683 288.765 206.204C289.265 206.725 289.655 207.341 289.912 208.016C290.168 208.691 290.286 209.411 290.257 210.132V232.397C290.286 233.118 290.168 233.838 289.912 234.513C289.655 235.188 289.265 235.804 288.765 236.325C288.265 236.845 287.664 237.26 287 237.542C286.336 237.825 285.621 237.971 284.899 237.971C284.177 237.971 283.463 237.825 282.798 237.542C282.134 237.26 281.534 236.845 281.033 236.325C280.533 235.804 280.143 235.188 279.886 234.513C279.63 233.838 279.513 233.118 279.541 232.397V210.132Z" fill="#E0E0E0"/>
<path d="M262.707 202.681C262.679 201.96 262.796 201.24 263.053 200.565C263.309 199.89 263.699 199.274 264.199 198.753C264.7 198.233 265.3 197.819 265.964 197.536C266.629 197.253 267.343 197.107 268.065 197.107C268.787 197.107 269.502 197.253 270.166 197.536C270.83 197.819 271.431 198.233 271.931 198.753C272.431 199.274 272.821 199.89 273.078 200.565C273.334 201.24 273.452 201.96 273.423 202.681V224.946C273.452 225.667 273.334 226.387 273.078 227.062C272.821 227.737 272.431 228.354 271.931 228.874C271.431 229.395 270.83 229.809 270.166 230.092C269.502 230.375 268.787 230.52 268.065 230.52C267.343 230.52 266.629 230.375 265.964 230.092C265.3 229.809 264.7 229.395 264.199 228.874C263.699 228.354 263.309 227.737 263.053 227.062C262.796 226.387 262.679 225.667 262.707 224.946V202.681Z" fill="#E0E0E0"/>
<path d="M245.871 196.672C245.843 195.951 245.96 195.231 246.217 194.556C246.473 193.881 246.863 193.265 247.363 192.744C247.864 192.223 248.464 191.809 249.128 191.526C249.793 191.243 250.507 191.098 251.229 191.098C251.951 191.098 252.666 191.243 253.33 191.526C253.994 191.809 254.595 192.223 255.095 192.744C255.595 193.265 255.985 193.881 256.242 194.556C256.498 195.231 256.616 195.951 256.587 196.672V218.937C256.616 219.658 256.498 220.378 256.242 221.053C255.985 221.728 255.595 222.344 255.095 222.865C254.595 223.385 253.994 223.8 253.33 224.082C252.666 224.365 251.951 224.511 251.229 224.511C250.507 224.511 249.793 224.365 249.128 224.082C248.464 223.8 247.864 223.385 247.363 222.865C246.863 222.344 246.473 221.728 246.217 221.053C245.96 220.378 245.843 219.658 245.871 218.937V196.672Z" fill="#E0E0E0"/>
<path d="M229.037 191.264C229.009 190.543 229.126 189.823 229.383 189.148C229.639 188.473 230.029 187.857 230.529 187.336C231.03 186.816 231.63 186.402 232.294 186.119C232.959 185.836 233.673 185.69 234.395 185.69C235.117 185.69 235.832 185.836 236.496 186.119C237.16 186.402 237.761 186.816 238.261 187.336C238.761 187.857 239.152 188.473 239.408 189.148C239.664 189.823 239.782 190.543 239.753 191.264V213.529C239.782 214.25 239.664 214.97 239.408 215.645C239.152 216.32 238.761 216.937 238.261 217.457C237.761 217.978 237.16 218.392 236.496 218.675C235.832 218.958 235.117 219.103 234.395 219.103C233.673 219.103 232.959 218.958 232.294 218.675C231.63 218.392 231.03 217.978 230.529 217.457C230.029 216.937 229.639 216.32 229.383 215.645C229.126 214.97 229.009 214.25 229.037 213.529V191.264Z" fill="#E0E0E0"/>
<path d="M212.201 186.939C212.173 186.217 212.29 185.497 212.547 184.822C212.803 184.147 213.193 183.531 213.693 183.011C214.194 182.49 214.794 182.076 215.458 181.793C216.123 181.51 216.837 181.364 217.559 181.364C218.281 181.364 218.996 181.51 219.66 181.793C220.325 182.076 220.925 182.49 221.425 183.011C221.926 183.531 222.316 184.147 222.572 184.822C222.828 185.497 222.946 186.217 222.917 186.939V209.203C222.946 209.925 222.828 210.645 222.572 211.32C222.316 211.995 221.926 212.611 221.425 213.131C220.925 213.652 220.325 214.066 219.66 214.349C218.996 214.632 218.281 214.778 217.559 214.778C216.837 214.778 216.123 214.632 215.458 214.349C214.794 214.066 214.194 213.652 213.693 213.131C213.193 212.611 212.803 211.995 212.547 211.32C212.29 210.645 212.173 209.925 212.201 209.203V186.939Z" fill="#E0E0E0"/>
<path d="M77.5198 186.939C77.4912 186.217 77.6086 185.497 77.865 184.822C78.1214 184.147 78.5114 183.531 79.0118 183.011C79.5121 182.49 80.1124 182.076 80.7767 181.793C81.441 181.51 82.1556 181.364 82.8777 181.364C83.5997 181.364 84.3143 181.51 84.9786 181.793C85.6429 182.076 86.2432 182.49 86.7436 183.011C87.2439 183.531 87.6339 184.147 87.8903 184.822C88.1467 185.497 88.2641 186.217 88.2355 186.939V209.203C88.2641 209.925 88.1467 210.645 87.8903 211.32C87.6339 211.995 87.2439 212.611 86.7436 213.131C86.2432 213.652 85.6429 214.066 84.9786 214.349C84.3143 214.632 83.5997 214.778 82.8777 214.778C82.1556 214.778 81.441 214.632 80.7767 214.349C80.1124 214.066 79.5121 213.652 79.0118 213.131C78.5114 212.611 78.1214 211.995 77.865 211.32C77.6086 210.645 77.4912 209.925 77.5198 209.203V186.939Z" fill="#E0E0E0"/>
<path d="M60.6839 191.264C60.6553 190.543 60.7727 189.823 61.0291 189.148C61.2854 188.473 61.6755 187.857 62.1758 187.336C62.6762 186.816 63.2765 186.402 63.9408 186.119C64.6051 185.836 65.3197 185.69 66.0417 185.69C66.7638 185.69 67.4784 185.836 68.1427 186.119C68.807 186.402 69.4073 186.816 69.9076 187.336C70.408 187.857 70.798 188.473 71.0544 189.148C71.3107 189.823 71.4282 190.543 71.3996 191.264V213.529C71.4282 214.25 71.3107 214.97 71.0544 215.645C70.798 216.32 70.408 216.937 69.9076 217.457C69.4073 217.978 68.807 218.392 68.1427 218.675C67.4784 218.958 66.7638 219.103 66.0417 219.103C65.3197 219.103 64.6051 218.958 63.9408 218.675C63.2765 218.392 62.6762 217.978 62.1758 217.457C61.6755 216.937 61.2854 216.32 61.0291 215.645C60.7727 214.97 60.6553 214.25 60.6839 213.529V191.264Z" fill="#E0E0E0"/>
<path d="M43.848 196.072C43.8194 195.351 43.9368 194.631 44.1931 193.956C44.4495 193.281 44.8396 192.664 45.3399 192.144C45.8402 191.623 46.4406 191.209 47.1049 190.926C47.7692 190.643 48.4838 190.498 49.2058 190.498C49.9278 190.498 50.6424 190.643 51.3067 190.926C51.971 191.209 52.5714 191.623 53.0717 192.144C53.572 192.664 53.9621 193.281 54.2184 193.956C54.4748 194.631 54.5922 195.351 54.5636 196.072V218.337C54.5922 219.058 54.4748 219.778 54.2184 220.453C53.9621 221.128 53.572 221.744 53.0717 222.265C52.5714 222.785 51.971 223.199 51.3067 223.482C50.6424 223.765 49.9278 223.911 49.2058 223.911C48.4838 223.911 47.7692 223.765 47.1049 223.482C46.4406 223.199 45.8402 222.785 45.3399 222.265C44.8396 221.744 44.4495 221.128 44.1931 220.453C43.9368 219.778 43.8194 219.058 43.848 218.337V196.072Z" fill="#E0E0E0"/>
<path d="M27.012 202.681C26.9834 201.96 27.1008 201.24 27.3572 200.565C27.6136 199.89 28.0036 199.274 28.504 198.753C29.0043 198.233 29.6046 197.819 30.2689 197.536C30.9332 197.253 31.6478 197.107 32.3699 197.107C33.0919 197.107 33.8065 197.253 34.4708 197.536C35.1351 197.819 35.7354 198.233 36.2358 198.753C36.7361 199.274 37.1261 199.89 37.3825 200.565C37.6389 201.24 37.7563 201.96 37.7277 202.681V224.946C37.7563 225.667 37.6389 226.387 37.3825 227.062C37.1261 227.737 36.7361 228.354 36.2358 228.874C35.7354 229.395 35.1351 229.809 34.4708 230.092C33.8065 230.375 33.0919 230.52 32.3699 230.52C31.6478 230.52 30.9332 230.375 30.2689 230.092C29.6046 229.809 29.0043 229.395 28.504 228.874C28.0036 228.354 27.6136 227.737 27.3572 227.062C27.1008 226.387 26.9834 225.667 27.012 224.946V202.681Z" fill="#E0E0E0"/>
<path d="M10.178 210.132C10.1494 209.411 10.2668 208.691 10.5232 208.016C10.7796 207.341 11.1696 206.725 11.67 206.204C12.1703 205.683 12.7706 205.269 13.4349 204.986C14.0992 204.703 14.8138 204.558 15.5359 204.558C16.2579 204.558 16.9725 204.703 17.6368 204.986C18.3011 205.269 18.9014 205.683 19.4018 206.204C19.9021 206.725 20.2921 207.341 20.5485 208.016C20.8049 208.691 20.9223 209.411 20.8937 210.132V232.397C20.9223 233.118 20.8049 233.838 20.5485 234.513C20.2921 235.188 19.9021 235.804 19.4018 236.325C18.9014 236.845 18.3011 237.26 17.6368 237.542C16.9725 237.825 16.2579 237.971 15.5359 237.971C14.8138 237.971 14.0992 237.825 13.4349 237.542C12.7706 237.26 12.1703 236.845 11.67 236.325C11.1696 235.804 10.7796 235.188 10.5232 234.513C10.2668 233.838 10.1494 233.118 10.178 232.397V210.132Z" fill="#E0E0E0"/>
<path d="M-6.6579 219.024C-6.6865 218.302 -6.56909 217.582 -6.31272 216.907C-6.05636 216.232 -5.6663 215.616 -5.16596 215.096C-4.66562 214.575 -4.0653 214.161 -3.401 213.878C-2.7367 213.595 -2.02209 213.449 -1.30006 213.449C-0.578026 213.449 0.136552 213.595 0.800855 213.878C1.46516 214.161 2.0655 214.575 2.56584 215.096C3.06618 215.616 3.45621 216.232 3.71258 216.907C3.96894 217.582 4.08636 218.302 4.05776 219.024V241.288C4.08636 242.01 3.96894 242.73 3.71258 243.405C3.45621 244.08 3.06618 244.696 2.56584 245.216C2.0655 245.737 1.46516 246.151 0.800855 246.434C0.136552 246.717 -0.578026 246.863 -1.30006 246.863C-2.02209 246.863 -2.7367 246.717 -3.401 246.434C-4.0653 246.151 -4.66562 245.737 -5.16596 245.216C-5.6663 244.696 -6.05636 244.08 -6.31272 243.405C-6.56909 242.73 -6.6865 242.01 -6.6579 241.288V219.024Z" fill="#E0E0E0"/>
<rect x="139.799" y="223.2" width="21" height="21" rx="5.4733" fill="white"/>
</g>
<rect x="0.5" y="0.5" width="299" height="299" stroke="#E0E0E0"/>
<defs>
<clipPath id="clip0_7364_14817">
<rect width="300" height="300" fill="white"/>
</clipPath>
</defs>
</svg>
