<svg width="300" height="300" viewBox="0 0 300 300" fill="none" xmlns="http://www.w3.org/2000/svg">
<g clip-path="url(#clip0_7364_14747)">
<rect width="300" height="300" fill="white"/>
<path d="M206.162 69.936L151.651 117.979L99.1289 69.936" stroke="black" stroke-width="1.82443"/>
<path d="M152.037 45.6099L152.037 110.681" stroke="black" stroke-width="1.82443"/>
<path d="M152.037 133.792V220.756" stroke="black" stroke-width="1.82443"/>
<path d="M123.6 56.3989L148.526 116.399L176.4 56.3989" stroke="black" stroke-width="1.82443" stroke-miterlimit="10"/>
<path d="M129 101.912V130.652C129.002 132.486 129.731 134.244 131.028 135.54C132.326 136.836 134.084 137.564 135.918 137.564H164.652C166.485 137.564 168.243 136.836 169.54 135.54C170.836 134.243 171.564 132.485 171.564 130.652V101.912C171.564 100.079 170.836 98.3207 169.54 97.0245C168.243 95.7282 166.485 95 164.652 95H135.918C134.084 95 132.326 95.728 131.028 97.0241C129.731 98.3202 129.002 100.078 129 101.912Z" fill="#E6007A"/>
<path d="M123.906 63.5569C122.539 63.5557 121.203 63.1493 120.068 62.3891C118.932 61.6289 118.047 60.549 117.524 59.2859C117.002 58.0228 116.866 56.6332 117.134 55.2928C117.401 53.9524 118.06 52.7213 119.027 51.7553C119.994 50.7892 121.225 50.1315 122.566 49.8653C123.906 49.5991 125.296 49.7363 126.558 50.2596C127.821 50.783 128.9 51.6689 129.66 52.8054C130.419 53.942 130.824 55.2781 130.824 56.6449C130.824 57.5531 130.645 58.4524 130.297 59.2914C129.95 60.1304 129.44 60.8926 128.797 61.5346C128.155 62.1765 127.392 62.6855 126.553 63.0325C125.714 63.3795 124.814 63.5577 123.906 63.5569Z" fill="black"/>
<path d="M97.5076 75.5574C96.1408 75.5562 94.805 75.1498 93.6691 74.3896C92.5332 73.6294 91.6482 72.5495 91.126 71.2864C90.6038 70.0232 90.4677 68.6337 90.7351 67.2933C91.0025 65.9529 91.6613 64.7218 92.6282 63.7558C93.5951 62.7897 94.8267 62.132 96.1673 61.8658C97.5079 61.5996 98.8974 61.7368 100.16 62.2601C101.423 62.7834 102.502 63.6694 103.261 64.8059C104.02 65.9425 104.426 67.2786 104.426 68.6454C104.426 69.5536 104.247 70.4529 103.899 71.2919C103.551 72.1309 103.041 72.8931 102.399 73.535C101.756 74.177 100.994 74.686 100.155 75.033C99.3152 75.38 98.4158 75.5582 97.5076 75.5574Z" fill="black"/>
<path d="M150.324 51.0298C148.956 51.031 147.617 50.6262 146.479 49.8665C145.34 49.1068 144.452 48.0264 143.928 46.762C143.404 45.4977 143.266 44.1062 143.533 42.7637C143.8 41.4212 144.459 40.1879 145.427 39.2201C146.394 38.2522 147.628 37.5932 148.97 37.3265C150.313 37.0597 151.704 37.1972 152.969 37.7216C154.233 38.246 155.313 39.1336 156.073 40.2722C156.833 41.4107 157.238 42.7491 157.236 44.1178C157.236 45.951 156.508 47.7091 155.212 49.0054C153.916 50.3016 152.158 51.0298 150.324 51.0298Z" fill="black"/>
<path d="M176.711 49.7578C175.344 49.7578 174.007 50.1632 172.871 50.9227C171.734 51.6822 170.848 52.7617 170.325 54.0247C169.802 55.2877 169.665 56.6775 169.932 58.0183C170.198 59.3591 170.857 60.5907 171.823 61.5573C172.79 62.524 174.022 63.1823 175.362 63.449C176.703 63.7157 178.093 63.5788 179.356 63.0557C180.619 62.5325 181.698 61.6466 182.458 60.5099C183.217 59.3732 183.623 58.0369 183.623 56.6698C183.623 54.8366 182.895 53.0785 181.598 51.7823C180.302 50.486 178.544 49.7578 176.711 49.7578Z" fill="black"/>
<path d="M203.111 61.7993C201.744 61.7993 200.408 62.2047 199.271 62.9642C198.134 63.7237 197.249 64.8032 196.725 66.0662C196.202 67.3292 196.065 68.719 196.332 70.0598C196.599 71.4006 197.257 72.6322 198.224 73.5988C199.19 74.5655 200.422 75.2238 201.763 75.4905C203.104 75.7572 204.493 75.6203 205.756 75.0972C207.019 74.574 208.099 73.6881 208.858 72.5514C209.618 71.4147 210.023 70.0784 210.023 68.7113C210.023 66.8781 209.295 65.12 207.999 63.8238C206.702 62.5275 204.944 61.7993 203.111 61.7993Z" fill="black"/>
<path d="M161.696 160.974C161.667 160.252 161.784 159.533 162.041 158.858C162.297 158.183 162.687 157.566 163.188 157.046C163.688 156.525 164.288 156.111 164.953 155.828C165.617 155.545 166.331 155.399 167.053 155.399C167.775 155.399 168.49 155.545 169.154 155.828C169.819 156.111 170.419 156.525 170.919 157.046C171.42 157.566 171.81 158.183 172.066 158.858C172.322 159.533 172.44 160.252 172.411 160.974V183.239C172.44 183.96 172.322 184.68 172.066 185.355C171.81 186.03 171.42 186.646 170.919 187.167C170.419 187.687 169.819 188.101 169.154 188.384C168.49 188.667 167.775 188.813 167.053 188.813C166.331 188.813 165.617 188.667 164.953 188.384C164.288 188.101 163.688 187.687 163.188 187.167C162.687 186.646 162.297 186.03 162.041 185.355C161.784 184.68 161.667 183.96 161.696 183.239V160.974Z" fill="#1C1C1C"/>
<path d="M144.862 160.974C144.833 160.252 144.95 159.533 145.207 158.858C145.463 158.183 145.853 157.566 146.354 157.046C146.854 156.525 147.454 156.111 148.119 155.828C148.783 155.545 149.497 155.399 150.219 155.399C150.942 155.399 151.656 155.545 152.32 155.828C152.985 156.111 153.585 156.525 154.085 157.046C154.586 157.566 154.976 158.183 155.232 158.858C155.488 159.533 155.606 160.252 155.577 160.974V183.239C155.606 183.96 155.488 184.68 155.232 185.355C154.976 186.03 154.586 186.646 154.085 187.167C153.585 187.687 152.985 188.101 152.32 188.384C151.656 188.667 150.942 188.813 150.219 188.813C149.497 188.813 148.783 188.667 148.119 188.384C147.454 188.101 146.854 187.687 146.354 187.167C145.853 186.646 145.463 186.03 145.207 185.355C144.95 184.68 144.833 183.96 144.862 183.239V160.974Z" fill="#1C1C1C"/>
<path d="M128.026 160.974C127.997 160.252 128.115 159.533 128.371 158.858C128.627 158.183 129.017 157.566 129.518 157.046C130.018 156.525 130.618 156.111 131.283 155.828C131.947 155.545 132.662 155.399 133.384 155.399C134.106 155.399 134.82 155.545 135.484 155.828C136.149 156.111 136.749 156.525 137.249 157.046C137.75 157.566 138.14 158.183 138.396 158.858C138.653 159.533 138.77 160.252 138.741 160.974V183.239C138.77 183.96 138.653 184.68 138.396 185.355C138.14 186.03 137.75 186.646 137.249 187.167C136.749 187.687 136.149 188.101 135.484 188.384C134.82 188.667 134.106 188.813 133.384 188.813C132.662 188.813 131.947 188.667 131.283 188.384C130.618 188.101 130.018 187.687 129.518 187.167C129.017 186.646 128.627 186.03 128.371 185.355C128.115 184.68 127.997 183.96 128.026 183.239V160.974Z" fill="#1C1C1C"/>
<path d="M136.225 174.537H171.497" stroke="black" stroke-width="1.82443"/>
<rect x="140" y="106" width="21.285" height="21.285" rx="5.4733" fill="white"/>
<path d="M98.5195 69.9361L152.145 44.394L206.161 69.9361" stroke="black" stroke-width="1.82443"/>
<path d="M99.1289 70.5439L134.401 174.537" stroke="black" stroke-width="1.82443"/>
<path d="M206.162 69.936L170.281 174.537" stroke="black" stroke-width="1.82443"/>
<path fill-rule="evenodd" clip-rule="evenodd" d="M152.341 259.677C7.39178 259.677 -110.073 377.05 -110.073 521.787C-110.073 666.525 7.39178 783.897 152.341 783.897C297.291 783.897 414.756 666.525 414.756 521.787C414.756 377.05 297.291 259.677 152.341 259.677ZM-153.859 521.787C-153.859 352.823 -16.7466 215.891 152.341 215.891C321.429 215.891 458.542 352.823 458.542 521.787C458.542 690.751 321.429 827.684 152.341 827.684C-16.7466 827.684 -153.859 690.751 -153.859 521.787Z" fill="#E6007A"/>
<rect x="141.695" y="226.229" width="21.285" height="21.285" rx="5.4733" fill="white"/>
<path d="M152.037 259.677C152.97 298.664 222.935 383.035 316.844 371.765" stroke="#C4C4C4" stroke-width="1.82443"/>
<path d="M152.037 259.677V309.241" stroke="#C4C4C4" stroke-width="1.82443"/>
<path d="M152.037 260.285C152.037 288.259 307.555 358.804 355.765 358.804" stroke="#C4C4C4" stroke-width="1.82443"/>
<rect x="148.389" y="291.909" width="7.29773" height="7.29773" fill="#E6007A"/>
<rect width="7.41242" height="7.35099" transform="matrix(0.832764 -0.553629 0.571039 0.820923 159.502 293.58)" fill="#E6007A"/>
<rect x="170.889" y="287.702" width="7.29773" height="7.29773" transform="rotate(-57.1732 170.889 287.702)" fill="#E6007A"/>
<path d="M152.037 259.677C151.163 298.664 85.5864 383.035 -2.43153 371.765" stroke="#C4C4C4" stroke-width="1.82443"/>
<path d="M152.037 260.285C152.037 288.259 6.26818 358.804 -38.9202 358.804" stroke="#C4C4C4" stroke-width="1.82443"/>
<rect width="7.09341" height="7.20396" transform="matrix(-0.815664 -0.578526 -0.546166 0.837677 145.037 293.58)" fill="#E6007A"/>
<rect width="7.21063" height="7.08664" transform="matrix(-0.526034 -0.850463 -0.829673 0.55825 133.961 287.702)" fill="#E6007A"/>
</g>
<rect x="0.5" y="0.5" width="299" height="299" stroke="#E0E0E0"/>
<defs>
<clipPath id="clip0_7364_14747">
<rect width="300" height="300" fill="white"/>
</clipPath>
</defs>
</svg>
