<svg width="300" height="300" viewBox="0 0 500 500" fill="none" xmlns="http://www.w3.org/2000/svg">
<path fill-rule="evenodd" clip-rule="evenodd" d="M251.5 445.734C254.934 458.187 261.227 472.026 269.999 486.238C272.81 490.792 275.879 495.39 279.196 500H282.904C279.137 494.86 275.681 489.732 272.552 484.662C262.924 469.064 256.426 454.089 253.412 441.08C255.205 443.719 257.443 446.432 260.052 449.197C267.303 456.881 277.698 465.255 290.346 473.955C302.632 482.407 317.092 491.199 332.949 500H339.172C321.511 490.364 305.46 480.711 292.046 471.483C279.48 462.839 269.278 454.603 262.234 447.138C255.927 440.455 252.365 434.61 251.639 429.794C251.568 428.835 251.522 427.891 251.5 426.964L250 427L248.5 426.966C248.479 427.896 248.436 428.843 248.369 429.805C247.686 434.648 244.334 440.501 238.432 447.174C231.833 454.636 222.274 462.868 210.499 471.509C197.938 480.728 182.909 490.373 166.372 500H172.298C187.177 491.19 200.746 482.389 212.274 473.928C224.132 465.226 233.88 456.849 240.679 449.162C242.993 446.546 244.993 443.979 246.622 441.48C243.76 454.412 237.696 469.253 228.76 484.699C225.834 489.757 222.604 494.873 219.084 500H222.713C225.831 495.378 228.716 490.767 231.357 486.201C239.42 472.265 245.245 458.693 248.5 446.44V500H251.5V445.734Z" fill="#C4C4C4"/>
<path fill-rule="evenodd" clip-rule="evenodd" d="M244.131 83.111C245.457 83.9958 246.945 84.5918 248.5 84.8699L248.5 182H251.465L247.62 190.275L212.003 104.541C212.979 104.013 213.875 103.346 214.662 102.559C215.733 101.49 216.583 100.219 217.162 98.8208C217.742 97.4225 218.04 95.9237 218.04 94.41C218.04 93.0072 217.784 91.6239 217.292 90.3256L240.529 79.2575C241.412 80.7973 242.643 82.1184 244.131 83.111ZM261.603 76.743C261.903 75.708 262.06 74.6271 262.06 73.53C262.062 71.2487 261.387 69.0181 260.121 67.1205C258.855 65.2229 257.054 63.7435 254.947 62.8696C252.84 61.9957 250.521 61.7665 248.283 62.2111C246.046 62.6556 243.99 63.7539 242.377 65.367C240.764 66.9801 239.666 69.0355 239.221 71.2731C238.877 73.0048 238.936 74.7854 239.386 76.4789L215.87 87.68C214.621 85.9445 212.911 84.5886 210.931 83.7679C208.826 82.8957 206.511 82.667 204.276 83.1106C202.042 83.5543 199.989 84.6505 198.378 86.2606C196.766 87.8707 195.668 89.9224 195.223 92.1565C194.873 93.9106 194.937 95.7152 195.403 97.4286L172.353 108.408C172.271 108.274 172.187 108.142 172.099 108.011C170.834 106.117 169.035 104.64 166.931 103.768C164.826 102.896 162.511 102.667 160.276 103.111C158.042 103.554 155.989 104.651 154.378 106.261C152.766 107.871 151.668 109.922 151.223 112.156C150.777 114.39 151.004 116.706 151.874 118.812C152.744 120.917 154.219 122.717 156.113 123.984C158.006 125.251 160.232 125.928 162.51 125.93C163.251 125.931 163.989 125.86 164.713 125.719L213.377 269.194V305.398C213.329 306.601 213.525 307.801 213.952 308.926C214.379 310.051 215.029 311.078 215.863 311.945C216.697 312.813 217.698 313.503 218.805 313.975C219.912 314.446 221.103 314.689 222.306 314.689C223.51 314.689 224.701 314.446 225.808 313.975C226.915 313.503 227.916 312.813 228.75 311.945C229.583 311.078 230.233 310.051 230.661 308.926C231.088 307.801 231.284 306.601 231.236 305.398V288.5H241.435V305.398C241.388 306.601 241.583 307.801 242.011 308.926C242.438 310.051 243.088 311.078 243.922 311.945C244.756 312.813 245.756 313.503 246.863 313.975C247.392 314.2 247.941 314.373 248.5 314.492V363H251.5V314.617C252.313 314.513 253.109 314.297 253.866 313.975C254.974 313.503 255.974 312.813 256.808 311.945C257.642 311.078 258.292 310.051 258.719 308.926C259.147 307.801 259.342 306.601 259.295 305.398V288.5H269.494V305.398C269.446 306.601 269.642 307.801 270.069 308.926C270.497 310.051 271.147 311.078 271.981 311.945C272.815 312.813 273.815 313.503 274.922 313.975C276.029 314.446 277.22 314.689 278.424 314.689C279.627 314.689 280.818 314.446 281.925 313.975C283.033 313.503 284.033 312.813 284.867 311.945C285.701 311.078 286.351 310.051 286.778 308.926C287.205 307.801 287.401 306.601 287.354 305.398V270.185L336.841 125.917C338.897 126.22 341.001 125.961 342.929 125.163C345.034 124.291 346.833 122.815 348.099 120.92C349.364 119.026 350.04 116.798 350.04 114.52C350.04 111.465 348.826 108.535 346.666 106.374C344.505 104.214 341.575 103 338.52 103C336.242 103 334.014 103.676 332.12 104.941C330.737 105.865 329.577 107.073 328.713 108.476L305.614 97.554C305.895 96.5489 306.04 95.5049 306.04 94.45C306.04 91.3947 304.826 88.4645 302.666 86.3041C300.505 84.1437 297.575 82.93 294.52 82.93C292.242 82.93 290.014 83.6056 288.12 84.8715C286.925 85.6696 285.897 86.6798 285.082 87.845L261.603 76.743ZM333.951 125.095C333.068 124.714 332.236 124.223 331.473 123.633L249.346 196.016L248.585 195.32L247.467 197.725L245.17 192.197L169.849 123.298C169.147 123.877 168.378 124.371 167.559 124.77L214.589 263.43C214.945 262.821 215.372 262.255 215.863 261.744C216.697 260.876 217.698 260.186 218.805 259.715C219.912 259.243 221.103 259 222.306 259C223.51 259 224.701 259.243 225.808 259.715C226.915 260.186 227.916 260.876 228.75 261.744C229.583 262.612 230.233 263.639 230.661 264.764C231.088 265.889 231.284 267.088 231.236 268.291V285.5H241.435V268.291C241.388 267.088 241.583 265.889 242.011 264.764C242.438 263.639 243.088 262.612 243.922 261.744C244.756 260.876 245.756 260.186 246.863 259.715C247.392 259.489 247.941 259.316 248.5 259.197V220H251.5V259.072C252.313 259.176 253.109 259.392 253.866 259.715C254.974 260.186 255.974 260.876 256.808 261.744C257.642 262.612 258.292 263.639 258.719 264.764C259.147 265.889 259.342 267.088 259.295 268.291V285.5H269.494V268.291C269.446 267.088 269.642 265.889 270.069 264.764C270.497 263.639 271.147 262.612 271.981 261.744C272.815 260.876 273.815 260.186 274.922 259.715C276.029 259.243 277.22 259 278.424 259C279.627 259 280.818 259.243 281.925 259.715C283.033 260.186 284.033 260.876 284.867 261.744C285.464 262.365 285.967 263.069 286.362 263.831L333.951 125.095ZM260.398 79.4915C259.921 80.2796 259.348 81.0138 258.686 81.6759C256.753 83.6088 254.204 84.7839 251.5 85.0099L251.5 181.924L287.793 103.802C287.29 103.44 286.816 103.037 286.374 102.596C284.763 100.985 283.666 98.9321 283.221 96.6974C282.809 94.6267 282.975 92.4859 283.695 90.5081L260.398 79.4915ZM304.435 100.315C304.328 100.496 304.216 100.675 304.099 100.85C302.833 102.745 301.034 104.221 298.929 105.093C296.824 105.965 294.507 106.193 292.273 105.749C291.645 105.624 291.033 105.448 290.44 105.223L250.655 190.863L329.356 121.5C328.298 120.111 327.565 118.494 327.221 116.767C326.853 114.917 326.946 113.01 327.485 111.214L304.435 100.315ZM173.569 111.151C173.88 112.203 174.04 113.301 174.04 114.41C174.04 115.924 173.742 117.423 173.162 118.821C172.827 119.629 172.402 120.395 171.895 121.104L242.446 185.639L209.2 105.614C208.321 105.824 207.418 105.931 206.51 105.93C204.232 105.928 202.006 105.251 200.113 103.984C198.651 103.005 197.438 101.709 196.561 100.2L173.569 111.151Z"/>
<path d="M215 170.52V218.42C215.003 221.476 216.219 224.406 218.381 226.566C220.543 228.727 223.474 229.94 226.53 229.94H274.42C277.475 229.94 280.405 228.726 282.566 226.566C284.726 224.405 285.94 221.475 285.94 218.42V170.52C285.94 167.465 284.726 164.535 282.566 162.374C280.405 160.214 277.475 159 274.42 159H226.53C223.474 159 220.543 160.213 218.381 162.374C216.219 164.534 215.003 167.464 215 170.52Z" fill="#E6007A"/>
<rect x="232" y="177" width="35" height="35" rx="9" fill="white"/>
<path d="M500 421.001C426.449 379.001 341.277 355 250.5 355C159.311 355 73.7785 379.22 0 421.574V500H10.1459C78.8321 453.9 161.516 427 250.5 427C339.484 427 422.168 453.9 490.854 500H500V421.001Z" fill="#E6007A"/>
<rect x="233" y="372" width="35" height="35" rx="9" fill="white"/>
<path fill-rule="evenodd" clip-rule="evenodd" d="M287.505 463L281 473.084L291.084 479.589L297.589 469.505L287.505 463ZM262.275 482.748L272.425 476L279.327 485.923L269.177 492.671L262.275 482.748ZM244 480H256V492H244V480ZM238.495 482.748L228.981 476L222.511 485.923L232.025 492.671L238.495 482.748ZM214.041 463L220.278 473.084L210.61 479.589L204.373 469.505L214.041 463Z" fill="#E6007A"/>
</svg>
