<svg viewBox="0 0 275 196" fill="none" xmlns="http://www.w3.org/2000/svg">
<g clip-path="url(#clip0_7657_14666)">
<rect x="78.9238" width="196" height="196" rx="98" fill="#E6007A"/>
<rect x="78.9238" width="196" height="196" rx="98" fill="url(#paint0_radial_7657_14666)"/>
<g style="mix-blend-mode:multiply">
<circle cx="98" cy="98" r="98" fill="#32CB87"/>
</g>
<path d="M198.473 80.1502C198.473 70.1184 192.308 66.4756 185.888 66.4756C179.441 66.4756 173.331 70.1184 173.331 80.1502C173.331 90.182 179.441 93.8809 185.888 93.8809C192.308 93.8809 198.473 90.182 198.473 80.1502ZM217.647 66.4756C209.932 66.4756 205.484 72.0239 205.484 80.2062C205.484 88.1364 209.848 93.8809 217.506 93.8809C222.799 93.8809 228.43 90.7704 229.359 83.6529H222.602C221.954 87.66 219.758 88.7249 217.619 88.7249C214.493 88.7249 212.523 86.0908 212.523 80.2062C212.523 74.3217 214.381 71.6316 217.619 71.6316C220.744 71.6316 222.067 73.7332 222.461 76.5074H229.106C228.317 69.53 222.799 66.4756 217.647 66.4756ZM148.696 72.3602V87.9963H142.136V93.2364H165.279V87.9963H155.735V79.87C155.735 74.742 157.452 72.6684 161.901 72.6684H166.94V67.064H162.914C158.775 67.064 156.72 69.2497 155.65 71.4915V67.064H142.136V72.3602H148.696ZM191.407 80.1502C191.407 86.2029 189.267 88.7249 185.888 88.7249C182.51 88.7249 180.37 86.2029 180.37 80.1502C180.37 74.1255 182.51 71.6316 185.888 71.6316C189.267 71.6316 191.407 74.1255 191.407 80.1502ZM166.828 115.794C166.828 105.762 160.69 102.119 154.271 102.119C147.823 102.119 141.686 105.762 141.686 115.794C141.686 125.826 147.823 129.525 154.271 129.525C160.69 129.525 166.828 125.826 166.828 115.794ZM186.029 102.119C178.315 102.119 173.866 107.668 173.866 115.85C173.866 123.78 178.202 129.525 185.888 129.525C191.181 129.525 196.812 126.414 197.741 119.297H190.984C190.337 123.304 188.141 124.369 186.001 124.369C182.848 124.369 180.905 121.734 180.905 115.85C180.905 109.965 182.763 107.275 186.001 107.275C189.126 107.275 190.449 109.377 190.844 112.151H197.488C196.7 105.174 191.181 102.119 186.029 102.119ZM230.091 115.794C230.091 105.762 223.925 102.119 217.506 102.119C211.059 102.119 204.949 105.762 204.949 115.794C204.949 125.826 211.059 129.525 217.506 129.525C223.925 129.525 230.091 125.826 230.091 115.794ZM159.789 115.794C159.789 121.847 157.649 124.369 154.271 124.369C150.892 124.369 148.752 121.847 148.752 115.794C148.752 109.769 150.892 107.275 154.271 107.275C157.649 107.275 159.789 109.769 159.789 115.794ZM223.052 115.794C223.052 121.847 220.885 124.369 217.506 124.369C214.127 124.369 211.988 121.847 211.988 115.794C211.988 109.769 214.127 107.275 217.506 107.275C220.885 107.275 223.052 109.769 223.052 115.794Z" fill="white"/>
</g>
<defs>
<radialGradient id="paint0_radial_7657_14666" cx="0" cy="0" r="1" gradientUnits="userSpaceOnUse" gradientTransform="translate(241.674 178.5) rotate(-129.781) scale(176.862)">
<stop stop-color="#00F0FF"/>
<stop offset="1" stop-color="#00F0FF" stop-opacity="0"/>
</radialGradient>
<clipPath id="clip0_7657_14666">
<rect width="274.924" height="196" fill="white"/>
</clipPath>
</defs>
</svg>
