<svg width="500" height="500" viewBox="0 0 500 500" fill="none" xmlns="http://www.w3.org/2000/svg">
<g clip-path="url(#clip0_1005_14270)">
<rect width="500" height="500" rx="2" fill="white"/>
<path d="M251.5 88.4952C251.5 87.6668 250.828 86.9952 250 86.9952C249.172 86.9952 248.5 87.6668 248.5 88.4952V93.2548C248.5 94.0832 249.172 94.7548 250 94.7548C250.828 94.7548 251.5 94.0832 251.5 93.2548V88.4952Z" fill="#B7B8BB"/>
<path d="M251.5 100.87C251.5 100.042 250.828 99.3702 250 99.3702C249.172 99.3702 248.5 100.042 248.5 100.87V105.63C248.5 106.458 249.172 107.13 250 107.13C250.828 107.13 251.5 106.458 251.5 105.63V100.87Z" fill="#B7B8BB"/>
<path d="M251.5 113.245C251.5 112.417 250.828 111.745 250 111.745C249.172 111.745 248.5 112.417 248.5 113.245V118.005C248.5 118.833 249.172 119.505 250 119.505C250.828 119.505 251.5 118.833 251.5 118.005V113.245Z" fill="#B7B8BB"/>
<path d="M251.5 125.62C251.5 124.792 250.828 124.12 250 124.12C249.172 124.12 248.5 124.792 248.5 125.62V130.38C248.5 131.208 249.172 131.88 250 131.88C250.828 131.88 251.5 131.208 251.5 130.38V125.62Z" fill="#B7B8BB"/>
<path d="M251.5 137.995C251.5 137.167 250.828 136.495 250 136.495C249.172 136.495 248.5 137.167 248.5 137.995V142.755C248.5 143.583 249.172 144.255 250 144.255C250.828 144.255 251.5 143.583 251.5 142.755V137.995Z" fill="#B7B8BB"/>
<path d="M251.5 150.37C251.5 149.542 250.828 148.87 250 148.87C249.172 148.87 248.5 149.542 248.5 150.37V155.13C248.5 155.958 249.172 156.63 250 156.63C250.828 156.63 251.5 155.958 251.5 155.13V150.37Z" fill="#B7B8BB"/>
<path d="M327.851 126.856C328.473 126.309 328.533 125.361 327.985 124.739C327.437 124.118 326.49 124.058 325.868 124.605L322.23 127.81C321.608 128.358 321.548 129.306 322.096 129.927C322.643 130.549 323.591 130.609 324.213 130.061L327.851 126.856Z" fill="#B7B8BB"/>
<path d="M177.228 125.915C176.617 125.356 175.668 125.398 175.108 126.009C174.549 126.62 174.591 127.568 175.202 128.128L179.113 131.71C179.724 132.269 180.673 132.227 181.233 131.616C181.792 131.005 181.75 130.057 181.139 129.497L177.228 125.915Z" fill="#B7B8BB"/>
<path d="M318.392 135.19C319.013 134.642 319.073 133.694 318.526 133.073C317.978 132.451 317.03 132.391 316.408 132.939L312.77 136.144C312.149 136.691 312.089 137.639 312.636 138.261C313.184 138.882 314.132 138.942 314.753 138.395L318.392 135.19Z" fill="#B7B8BB"/>
<path d="M187.398 135.228C186.787 134.668 185.838 134.71 185.279 135.321C184.719 135.932 184.761 136.881 185.372 137.44L189.284 141.022C189.895 141.582 190.844 141.54 191.403 140.929C191.963 140.318 191.921 139.369 191.31 138.81L187.398 135.228Z" fill="#B7B8BB"/>
<path d="M308.932 143.523C309.554 142.975 309.614 142.028 309.066 141.406C308.518 140.784 307.571 140.724 306.949 141.272L303.311 144.477C302.689 145.025 302.629 145.972 303.177 146.594C303.724 147.216 304.672 147.276 305.294 146.728L308.932 143.523Z" fill="#B7B8BB"/>
<path d="M197.569 144.54C196.958 143.981 196.009 144.023 195.449 144.634C194.89 145.245 194.932 146.193 195.543 146.753L199.454 150.335C200.065 150.894 201.014 150.852 201.574 150.241C202.133 149.63 202.091 148.682 201.48 148.122L197.569 144.54Z" fill="#B7B8BB"/>
<path d="M299.473 151.856C300.094 151.309 300.154 150.361 299.607 149.739C299.059 149.118 298.111 149.058 297.489 149.605L293.851 152.81C293.23 153.358 293.17 154.306 293.717 154.927C294.265 155.549 295.213 155.609 295.834 155.061L299.473 151.856Z" fill="#B7B8BB"/>
<path d="M207.739 153.853C207.128 153.293 206.179 153.335 205.62 153.946C205.06 154.557 205.102 155.506 205.713 156.065L209.625 159.647C210.236 160.207 211.185 160.165 211.744 159.554C212.304 158.943 212.262 157.994 211.651 157.435L207.739 153.853Z" fill="#B7B8BB"/>
<path d="M290.013 160.19C290.635 159.642 290.695 158.694 290.147 158.073C289.599 157.451 288.652 157.391 288.03 157.939L284.392 161.144C283.77 161.691 283.71 162.639 284.258 163.261C284.805 163.882 285.753 163.942 286.375 163.395L290.013 160.19Z" fill="#B7B8BB"/>
<path d="M216.91 162.165C216.299 161.606 215.35 161.648 214.79 162.259C214.231 162.87 214.273 163.818 214.884 164.378L218.796 167.96C219.407 168.519 220.355 168.477 220.915 167.866C221.474 167.255 221.432 166.307 220.821 165.747L216.91 162.165Z" fill="#B7B8BB"/>
<path d="M167.526 130.363C168.31 130.095 169.162 130.514 169.43 131.298L171.102 136.194C171.369 136.978 170.951 137.831 170.167 138.099C169.383 138.366 168.53 137.948 168.262 137.164L166.591 132.267C166.323 131.483 166.742 130.631 167.526 130.363Z" fill="#B7B8BB"/>
<path d="M171.872 143.094C172.656 142.826 173.508 143.245 173.776 144.029L175.448 148.925C175.715 149.709 175.297 150.562 174.513 150.829C173.729 151.097 172.876 150.678 172.609 149.894L170.937 144.998C170.669 144.214 171.088 143.361 171.872 143.094Z" fill="#B7B8BB"/>
<path d="M176.218 155.825C177.002 155.557 177.855 155.975 178.122 156.759L179.794 161.656C180.062 162.44 179.643 163.292 178.859 163.56C178.075 163.828 177.222 163.409 176.955 162.625L175.283 157.729C175.016 156.945 175.434 156.092 176.218 155.825Z" fill="#B7B8BB"/>
<path d="M180.564 168.555C181.348 168.288 182.201 168.706 182.468 169.49L184.14 174.387C184.408 175.171 183.989 176.023 183.205 176.291C182.421 176.559 181.569 176.14 181.301 175.356L179.629 170.459C179.362 169.675 179.78 168.823 180.564 168.555Z" fill="#B7B8BB"/>
<path d="M184.91 181.286C185.694 181.018 186.547 181.437 186.815 182.221L188.486 187.117C188.754 187.901 188.335 188.754 187.551 189.022C186.767 189.289 185.915 188.871 185.647 188.087L183.975 183.19C183.708 182.406 184.126 181.554 184.91 181.286Z" fill="#B7B8BB"/>
<path d="M189.257 194.017C190.041 193.749 190.893 194.168 191.161 194.952L192.832 199.848C193.1 200.632 192.681 201.485 191.897 201.752C191.113 202.02 190.261 201.601 189.993 200.817L188.322 195.921C188.054 195.137 188.473 194.284 189.257 194.017Z" fill="#B7B8BB"/>
<path d="M193.603 206.748C194.387 206.48 195.239 206.899 195.507 207.683L197.178 212.579C197.446 213.363 197.028 214.216 196.244 214.483C195.46 214.751 194.607 214.332 194.339 213.548L192.668 208.652C192.4 207.868 192.819 207.015 193.603 206.748Z" fill="#B7B8BB"/>
<path d="M197.949 219.478C198.733 219.211 199.585 219.629 199.853 220.413L201.525 225.31C201.792 226.094 201.374 226.946 200.59 227.214C199.806 227.482 198.953 227.063 198.686 226.279L197.014 221.383C196.746 220.599 197.165 219.746 197.949 219.478Z" fill="#B7B8BB"/>
<path d="M202.295 232.209C203.079 231.941 203.932 232.36 204.199 233.144L205.871 238.041C206.138 238.825 205.72 239.677 204.936 239.945C204.152 240.212 203.299 239.794 203.032 239.01L201.36 234.113C201.092 233.329 201.511 232.477 202.295 232.209Z" fill="#B7B8BB"/>
<path d="M206.641 244.94C207.425 244.672 208.278 245.091 208.545 245.875L210.217 250.771C210.485 251.555 210.066 252.408 209.282 252.675C208.498 252.943 207.645 252.525 207.378 251.741L205.706 246.844C205.439 246.06 205.857 245.208 206.641 244.94Z" fill="#B7B8BB"/>
<path d="M210.987 257.671C211.771 257.403 212.624 257.822 212.892 258.606L214.563 263.502C214.831 264.286 214.412 265.139 213.628 265.406C212.844 265.674 211.992 265.255 211.724 264.471L210.052 259.575C209.785 258.791 210.203 257.938 210.987 257.671Z" fill="#B7B8BB"/>
<path d="M334.801 130.696C335.069 129.912 334.652 129.059 333.868 128.79C333.085 128.521 332.232 128.939 331.963 129.722L330.342 134.447C330.073 135.231 330.491 136.084 331.274 136.353C332.058 136.622 332.911 136.204 333.18 135.421L334.801 130.696Z" fill="#B7B8BB"/>
<path d="M330.586 142.981C330.855 142.198 330.438 141.344 329.654 141.076C328.871 140.807 328.017 141.224 327.749 142.008L326.128 146.733C325.859 147.517 326.276 148.37 327.06 148.639C327.844 148.907 328.697 148.49 328.965 147.706L330.586 142.981Z" fill="#B7B8BB"/>
<path d="M326.372 155.267C326.641 154.483 326.224 153.63 325.44 153.361C324.656 153.093 323.803 153.51 323.534 154.294L321.913 159.019C321.645 159.802 322.062 160.656 322.846 160.924C323.629 161.193 324.482 160.776 324.751 159.992L326.372 155.267Z" fill="#B7B8BB"/>
<path d="M322.158 167.553C322.427 166.769 322.009 165.916 321.226 165.647C320.442 165.378 319.589 165.796 319.32 166.579L317.699 171.305C317.43 172.088 317.848 172.941 318.631 173.21C319.415 173.479 320.268 173.062 320.537 172.278L322.158 167.553Z" fill="#B7B8BB"/>
<path d="M317.943 179.838C318.212 179.055 317.795 178.202 317.011 177.933C316.228 177.664 315.375 178.081 315.106 178.865L313.485 183.59C313.216 184.374 313.633 185.227 314.417 185.496C315.201 185.765 316.054 185.347 316.323 184.564L317.943 179.838Z" fill="#B7B8BB"/>
<path d="M313.729 192.124C313.998 191.34 313.581 190.487 312.797 190.219C312.013 189.95 311.16 190.367 310.891 191.151L309.271 195.876C309.002 196.66 309.419 197.513 310.203 197.781C310.986 198.05 311.84 197.633 312.108 196.849L313.729 192.124Z" fill="#B7B8BB"/>
<path d="M309.515 204.41C309.784 203.626 309.366 202.773 308.583 202.504C307.799 202.235 306.946 202.653 306.677 203.436L305.056 208.162C304.788 208.945 305.205 209.798 305.988 210.067C306.772 210.336 307.625 209.919 307.894 209.135L309.515 204.41Z" fill="#B7B8BB"/>
<path d="M305.301 216.695C305.569 215.912 305.152 215.059 304.368 214.79C303.585 214.521 302.732 214.938 302.463 215.722L300.842 220.447C300.573 221.231 300.991 222.084 301.774 222.353C302.558 222.622 303.411 222.204 303.68 221.421L305.301 216.695Z" fill="#B7B8BB"/>
<path d="M301.086 228.981C301.355 228.198 300.938 227.344 300.154 227.076C299.371 226.807 298.517 227.224 298.249 228.008L296.628 232.733C296.359 233.517 296.776 234.37 297.56 234.639C298.344 234.907 299.197 234.49 299.465 233.706L301.086 228.981Z" fill="#B7B8BB"/>
<path d="M296.872 241.267C297.141 240.483 296.723 239.63 295.94 239.361C295.156 239.093 294.303 239.51 294.034 240.294L292.413 245.019C292.145 245.802 292.562 246.656 293.346 246.924C294.129 247.193 294.982 246.776 295.251 245.992L296.872 241.267Z" fill="#B7B8BB"/>
<path d="M292.658 253.553C292.927 252.769 292.509 251.916 291.726 251.647C290.942 251.378 290.089 251.796 289.82 252.579L288.199 257.305C287.93 258.088 288.348 258.941 289.131 259.21C289.915 259.479 290.768 259.062 291.037 258.278L292.658 253.553Z" fill="#B7B8BB"/>
<path d="M288.443 265.838C288.712 265.055 288.295 264.202 287.511 263.933C286.728 263.664 285.875 264.081 285.606 264.865L283.985 269.59C283.716 270.374 284.133 271.227 284.917 271.496C285.701 271.765 286.554 271.347 286.823 270.564L288.443 265.838Z" fill="#B7B8BB"/>
<path d="M305.945 99.623C306.28 98.8656 307.166 98.5237 307.924 98.8594L312.507 100.891C313.265 101.226 313.606 102.112 313.271 102.87C312.935 103.627 312.049 103.969 311.292 103.633L306.708 101.602C305.951 101.266 305.609 100.38 305.945 99.623Z" fill="#B7B8BB"/>
<path d="M316.945 104.498C317.28 103.741 318.166 103.399 318.924 103.734L323.507 105.766C324.265 106.101 324.606 106.987 324.271 107.745C323.935 108.502 323.049 108.844 322.292 108.508L317.708 106.477C316.951 106.141 316.609 105.255 316.945 104.498Z" fill="#B7B8BB"/>
<path d="M194.999 98.4873C195.75 98.1365 196.642 98.4604 196.993 99.2109C197.344 99.9613 197.02 100.854 196.27 101.205L191.334 103.513C190.583 103.864 189.691 103.54 189.34 102.789C188.989 102.039 189.313 101.146 190.063 100.795L194.999 98.4873Z" fill="#B7B8BB"/>
<path d="M182.166 104.487C182.916 104.136 183.809 104.46 184.16 105.211C184.511 105.961 184.187 106.854 183.436 107.205L178.501 109.513C177.75 109.864 176.857 109.54 176.506 108.789C176.156 108.039 176.48 107.146 177.23 106.795L182.166 104.487Z" fill="#B7B8BB"/>
<path d="M161.112 101.573C161.568 101.525 162.032 101.5 162.5 101.5C162.968 101.5 163.432 101.525 163.888 101.573C164.712 101.661 165.309 102.4 165.221 103.224C165.134 104.047 164.395 104.644 163.571 104.557C163.22 104.519 162.862 104.5 162.5 104.5C162.138 104.5 161.78 104.519 161.429 104.557C160.605 104.644 159.866 104.047 159.779 103.224C159.691 102.4 160.288 101.661 161.112 101.573Z" fill="#B7B8BB"/>
<path d="M168.549 104.603C169.069 103.959 170.013 103.858 170.658 104.378C171.38 104.961 172.039 105.62 172.622 106.342C173.142 106.987 173.041 107.931 172.397 108.451C171.752 108.972 170.808 108.871 170.287 108.226C169.838 107.669 169.331 107.162 168.774 106.713C168.129 106.192 168.028 105.248 168.549 104.603Z" fill="#B7B8BB"/>
<path d="M156.451 104.603C156.972 105.248 156.871 106.192 156.226 106.713C155.669 107.162 155.162 107.669 154.713 108.226C154.192 108.871 153.248 108.972 152.603 108.451C151.959 107.931 151.858 106.987 152.378 106.342C152.961 105.62 153.62 104.961 154.342 104.378C154.987 103.858 155.931 103.959 156.451 104.603Z" fill="#B7B8BB"/>
<path d="M173.776 111.779C174.6 111.691 175.339 112.288 175.427 113.112C175.475 113.568 175.5 114.032 175.5 114.5C175.5 114.968 175.475 115.432 175.427 115.888C175.339 116.712 174.6 117.309 173.776 117.221C172.953 117.134 172.356 116.395 172.443 115.571C172.481 115.22 172.5 114.862 172.5 114.5C172.5 114.138 172.481 113.78 172.443 113.429C172.356 112.605 172.953 111.866 173.776 111.779Z" fill="#B7B8BB"/>
<path d="M151.224 111.779C152.047 111.866 152.644 112.605 152.557 113.429C152.519 113.78 152.5 114.138 152.5 114.5C152.5 114.862 152.519 115.22 152.557 115.571C152.644 116.395 152.047 117.134 151.224 117.221C150.4 117.309 149.661 116.712 149.573 115.888C149.525 115.432 149.5 114.968 149.5 114.5C149.5 114.032 149.525 113.568 149.573 113.112C149.661 112.288 150.4 111.691 151.224 111.779Z" fill="#B7B8BB"/>
<path d="M172.397 120.549C173.041 121.069 173.142 122.013 172.622 122.658C172.039 123.38 171.38 124.039 170.658 124.622C170.013 125.142 169.069 125.041 168.549 124.397C168.028 123.752 168.129 122.808 168.774 122.287C169.331 121.838 169.838 121.331 170.287 120.774C170.808 120.129 171.752 120.028 172.397 120.549Z" fill="#B7B8BB"/>
<path d="M152.603 120.549C153.248 120.028 154.192 120.129 154.713 120.774C155.162 121.331 155.669 121.838 156.226 122.287C156.871 122.808 156.972 123.752 156.451 124.397C155.931 125.041 154.987 125.142 154.342 124.622C153.62 124.039 152.961 123.38 152.378 122.658C151.858 122.013 151.959 121.069 152.603 120.549Z" fill="#B7B8BB"/>
<path d="M159.779 125.776C159.866 124.953 160.605 124.356 161.429 124.443C161.78 124.481 162.138 124.5 162.5 124.5C162.862 124.5 163.22 124.481 163.571 124.443C164.395 124.356 165.134 124.953 165.221 125.776C165.309 126.6 164.712 127.339 163.888 127.427C163.432 127.475 162.968 127.5 162.5 127.5C162.032 127.5 161.568 127.475 161.112 127.427C160.288 127.339 159.691 126.6 159.779 125.776Z" fill="#B7B8BB"/>
<path d="M334.243 102.055C333.794 102.19 333.358 102.348 332.935 102.526C332.172 102.848 331.814 103.728 332.136 104.491C332.458 105.255 333.337 105.612 334.101 105.291C334.426 105.153 334.763 105.031 335.11 104.927C335.457 104.822 335.804 104.737 336.152 104.671C336.966 104.517 337.5 103.732 337.346 102.918C337.192 102.104 336.407 101.57 335.593 101.724C335.142 101.809 334.691 101.919 334.243 102.055Z" fill="#B7B8BB"/>
<path d="M342.884 102.452C342.117 102.14 341.242 102.51 340.93 103.278C340.619 104.045 340.988 104.92 341.756 105.232C342.418 105.501 343.051 105.84 343.642 106.243C344.326 106.71 345.259 106.533 345.726 105.849C346.193 105.165 346.017 104.232 345.332 103.765C344.566 103.242 343.745 102.801 342.884 102.452Z" fill="#B7B8BB"/>
<path d="M329.743 108.858C330.21 108.174 330.034 107.241 329.349 106.774C328.665 106.307 327.732 106.483 327.265 107.168C326.742 107.935 326.301 108.755 325.952 109.616C325.64 110.383 326.01 111.258 326.778 111.57C327.545 111.881 328.42 111.512 328.732 110.744C329.001 110.082 329.34 109.449 329.743 108.858Z" fill="#B7B8BB"/>
<path d="M349.974 109.435C349.652 108.672 348.772 108.314 348.009 108.636C347.245 108.958 346.888 109.837 347.21 110.601C347.347 110.926 347.469 111.263 347.573 111.61C347.678 111.957 347.763 112.304 347.829 112.652C347.983 113.466 348.768 114 349.582 113.846C350.396 113.692 350.93 112.907 350.776 112.093C350.691 111.642 350.581 111.191 350.445 110.743C350.31 110.294 350.152 109.858 349.974 109.435Z" fill="#B7B8BB"/>
<path d="M328.171 116.348C328.017 115.534 327.232 115 326.418 115.154C325.604 115.308 325.07 116.093 325.224 116.907C325.309 117.358 325.419 117.809 325.555 118.257C325.69 118.706 325.848 119.142 326.026 119.565C326.348 120.328 327.228 120.686 327.991 120.364C328.755 120.042 329.112 119.163 328.791 118.399C328.653 118.074 328.532 117.737 328.427 117.39C328.322 117.043 328.237 116.696 328.171 116.348Z" fill="#B7B8BB"/>
<path d="M350.048 119.384C350.36 118.617 349.99 117.742 349.223 117.43C348.455 117.119 347.58 117.488 347.268 118.256C346.999 118.918 346.66 119.551 346.257 120.142C345.79 120.826 345.967 121.759 346.651 122.226C347.335 122.693 348.268 122.517 348.735 121.832C349.259 121.065 349.699 120.245 350.048 119.384Z" fill="#B7B8BB"/>
<path d="M332.358 122.757C331.674 122.29 330.741 122.466 330.274 123.151C329.807 123.835 329.983 124.768 330.668 125.235C331.435 125.758 332.256 126.199 333.116 126.548C333.883 126.86 334.758 126.49 335.07 125.722C335.381 124.955 335.012 124.08 334.244 123.768C333.582 123.499 332.949 123.16 332.358 122.757Z" fill="#B7B8BB"/>
<path d="M339.848 124.329C339.034 124.483 338.5 125.268 338.654 126.082C338.808 126.896 339.593 127.43 340.407 127.276C340.858 127.191 341.309 127.081 341.757 126.945C342.206 126.81 342.642 126.652 343.065 126.474C343.828 126.152 344.186 125.272 343.864 124.509C343.542 123.745 342.663 123.388 341.899 123.709C341.574 123.847 341.237 123.969 340.89 124.073C340.543 124.178 340.196 124.263 339.848 124.329Z" fill="#B7B8BB"/>
<path fill-rule="evenodd" clip-rule="evenodd" d="M284.978 87.9957L260.716 76.3254C260.943 75.4187 261.06 74.4804 261.06 73.53C261.062 71.2487 260.387 69.0181 259.121 67.1205C257.855 65.2229 256.054 63.7435 253.947 62.8696C251.84 61.9957 249.521 61.7665 247.283 62.2111C245.046 62.6556 242.99 63.7539 241.377 65.367C239.764 66.9801 238.666 69.0355 238.221 71.2731C237.838 73.1991 237.955 75.1857 238.552 77.0455L216.055 87.9457C214.792 86.0828 213.011 84.6301 210.931 83.7679C208.826 82.8957 206.511 82.6669 204.276 83.1106C202.042 83.5543 199.989 84.6505 198.378 86.2606C196.766 87.8707 195.668 89.9224 195.223 92.1564C194.777 94.3904 195.004 96.7064 195.874 98.8116C196.744 100.917 198.219 102.717 200.113 103.984C202.006 105.251 204.232 105.928 206.51 105.93C207.418 105.931 208.321 105.824 209.2 105.614L247.467 197.725L290.44 105.223C291.033 105.448 291.645 105.624 292.273 105.749C294.507 106.193 296.824 105.965 298.929 105.093C301.034 104.221 302.833 102.745 304.099 100.85C305.364 98.9557 306.04 96.7284 306.04 94.45C306.04 91.3947 304.826 88.4645 302.666 86.3041C300.505 84.1437 297.575 82.93 294.52 82.93C292.242 82.93 290.014 83.6056 288.12 84.8715C286.874 85.7038 285.809 86.7668 284.978 87.9957ZM249.54 85.05C247.259 85.052 245.028 84.3772 243.131 83.111C241.807 82.2277 240.687 81.0844 239.833 79.7583L217.401 90.6272C217.822 91.8372 218.04 93.1153 218.04 94.41C218.04 95.9237 217.742 97.4225 217.162 98.8208C216.583 100.219 215.733 101.49 214.662 102.559C213.875 103.346 212.979 104.013 212.003 104.541L247.62 190.275L287.793 103.802C287.29 103.44 286.816 103.037 286.374 102.596C284.763 100.985 283.666 98.9321 283.221 96.6974C282.821 94.6861 282.966 92.6087 283.635 90.6787L259.611 79.1231C259.096 80.0513 258.45 80.9117 257.686 81.6759C255.525 83.8363 252.595 85.05 249.54 85.05Z" fill="black"/>
<path d="M248.5 314.492V363H251.5V314.617C252.313 314.513 253.109 314.297 253.866 313.975C254.974 313.503 255.974 312.813 256.808 311.945C257.642 311.078 258.292 310.051 258.719 308.926C259.147 307.801 259.342 306.601 259.295 305.398V288.5H269.494V305.398C269.446 306.601 269.642 307.801 270.069 308.926C270.497 310.051 271.147 311.078 271.981 311.945C272.815 312.813 273.815 313.503 274.922 313.975C276.029 314.446 277.22 314.689 278.424 314.689C279.627 314.689 280.818 314.446 281.925 313.975C283.033 313.503 284.033 312.813 284.867 311.945C285.701 311.078 286.351 310.051 286.778 308.926C287.205 307.801 287.401 306.601 287.354 305.398V268.291C287.401 267.088 287.205 265.889 286.778 264.764C286.351 263.639 285.701 262.612 284.867 261.744C284.033 260.876 283.033 260.186 281.925 259.715C280.818 259.243 279.627 259 278.424 259C277.22 259 276.029 259.243 274.922 259.715C273.815 260.186 272.815 260.876 271.981 261.744C271.147 262.612 270.497 263.639 270.069 264.764C269.642 265.889 269.446 267.088 269.494 268.291V285.5H259.295V268.291C259.342 267.088 259.147 265.889 258.719 264.764C258.292 263.639 257.642 262.612 256.808 261.744C255.974 260.876 254.974 260.186 253.866 259.715C253.109 259.392 252.313 259.176 251.5 259.072V220H248.5V259.197C247.941 259.316 247.392 259.489 246.863 259.715C245.756 260.186 244.756 260.876 243.922 261.744C243.088 262.612 242.438 263.639 242.011 264.764C241.583 265.889 241.388 267.088 241.435 268.291V285.5H231.236V268.291C231.284 267.088 231.088 265.889 230.661 264.764C230.233 263.639 229.583 262.612 228.75 261.744C227.916 260.876 226.915 260.186 225.808 259.715C224.701 259.243 223.51 259 222.306 259C221.103 259 219.912 259.243 218.805 259.715C217.698 260.186 216.697 260.876 215.863 261.744C215.029 262.612 214.379 263.639 213.952 264.764C213.525 265.889 213.329 267.088 213.377 268.291V305.398C213.329 306.601 213.525 307.801 213.952 308.926C214.379 310.051 215.029 311.078 215.863 311.945C216.697 312.813 217.698 313.503 218.805 313.975C219.912 314.446 221.103 314.689 222.306 314.689C223.51 314.689 224.701 314.446 225.808 313.975C226.915 313.503 227.916 312.813 228.75 311.945C229.583 311.078 230.233 310.051 230.661 308.926C231.088 307.801 231.284 306.601 231.236 305.398V288.5H241.435V305.398C241.388 306.601 241.583 307.801 242.011 308.926C242.438 310.051 243.088 311.078 243.922 311.945C244.756 312.813 245.756 313.503 246.863 313.975C247.392 314.2 247.941 314.373 248.5 314.492Z" fill="black"/>
<path d="M185.893 297.426C185.466 298.551 185.27 299.751 185.318 300.953V338.061C185.27 339.263 185.466 340.463 185.893 341.588C186.32 342.713 186.97 343.74 187.804 344.607C188.638 345.475 189.639 346.165 190.746 346.637C191.853 347.108 193.044 347.351 194.248 347.351C195.451 347.351 196.642 347.108 197.749 346.637C198.856 346.165 199.857 345.475 200.691 344.607C201.525 343.74 202.175 342.713 202.602 341.588C203.029 340.463 203.225 339.263 203.177 338.061V300.953C203.225 299.751 203.029 298.551 202.602 297.426C202.175 296.301 201.525 295.274 200.691 294.406C199.857 293.539 198.856 292.848 197.749 292.377C196.642 291.905 195.451 291.662 194.248 291.662C193.044 291.662 191.853 291.905 190.746 292.377C189.639 292.848 188.638 293.539 187.804 294.406C186.97 295.274 186.32 296.301 185.893 297.426Z" fill="#E0E0E0"/>
<path d="M297.553 300.953C297.505 299.751 297.701 298.551 298.128 297.426C298.555 296.301 299.206 295.274 300.039 294.406C300.873 293.539 301.874 292.848 302.981 292.377C304.088 291.905 305.279 291.662 306.483 291.662C307.686 291.662 308.877 291.905 309.984 292.377C311.091 292.848 312.092 293.539 312.926 294.406C313.76 295.274 314.41 296.301 314.837 297.426C315.264 298.551 315.46 299.751 315.412 300.953V338.061C315.46 339.263 315.264 340.463 314.837 341.588C314.41 342.713 313.76 343.74 312.926 344.607C312.092 345.475 311.091 346.165 309.984 346.637C308.877 347.108 307.686 347.351 306.483 347.351C305.279 347.351 304.088 347.108 302.981 346.637C301.874 346.165 300.873 345.475 300.039 344.607C299.206 343.74 298.555 342.713 298.128 341.588C297.701 340.463 297.505 339.263 297.553 338.061V300.953Z" fill="#E0E0E0"/>
<path d="M325.612 305.759C325.564 304.556 325.76 303.357 326.187 302.232C326.614 301.107 327.264 300.08 328.098 299.212C328.932 298.344 329.932 297.654 331.04 297.183C332.147 296.711 333.338 296.468 334.541 296.468C335.745 296.468 336.936 296.711 338.043 297.183C339.15 297.654 340.151 298.344 340.984 299.212C341.818 300.08 342.468 301.107 342.896 302.232C343.323 303.357 343.519 304.556 343.471 305.759V342.867C343.519 344.069 343.323 345.269 342.896 346.394C342.468 347.519 341.818 348.546 340.984 349.413C340.151 350.281 339.15 350.971 338.043 351.443C336.936 351.914 335.745 352.157 334.541 352.157C333.338 352.157 332.147 351.914 331.04 351.443C329.932 350.971 328.932 350.281 328.098 349.413C327.264 348.546 326.614 347.519 326.187 346.394C325.76 345.269 325.564 344.069 325.612 342.867V305.759Z" fill="#E0E0E0"/>
<path d="M157.259 305.759C157.211 304.556 157.407 303.357 157.834 302.232C158.262 301.107 158.912 300.08 159.746 299.212C160.579 298.344 161.58 297.654 162.687 297.183C163.794 296.711 164.985 296.468 166.189 296.468C167.392 296.468 168.583 296.711 169.69 297.183C170.797 297.654 171.798 298.344 172.632 299.212C173.466 300.08 174.116 301.107 174.543 302.232C174.97 303.357 175.166 304.556 175.118 305.759V342.867C175.166 344.069 174.97 345.269 174.543 346.394C174.116 347.519 173.466 348.546 172.632 349.413C171.798 350.281 170.797 350.971 169.69 351.443C168.583 351.914 167.392 352.157 166.189 352.157C164.985 352.157 163.794 351.914 162.687 351.443C161.58 350.971 160.579 350.281 159.746 349.413C158.912 348.546 158.262 347.519 157.834 346.394C157.407 345.269 157.211 344.069 157.259 342.867V305.759Z" fill="#E0E0E0"/>
<path d="M466.481 346.693C466.053 347.818 465.858 349.018 465.905 350.221V387.328C465.858 388.531 466.053 389.73 466.481 390.855C466.908 391.98 467.558 393.007 468.392 393.875C469.226 394.743 470.226 395.433 471.334 395.905C472.441 396.376 473.632 396.619 474.835 396.619C476.039 396.619 477.23 396.376 478.337 395.905C479.444 395.433 480.444 394.743 481.278 393.875C482.112 393.007 482.762 391.98 483.19 390.855C483.617 389.73 483.813 388.531 483.765 387.328V350.221C483.813 349.018 483.617 347.818 483.19 346.693C482.762 345.569 482.112 344.541 481.278 343.674C480.444 342.806 479.444 342.116 478.337 341.644C477.23 341.173 476.039 340.93 474.835 340.93C473.632 340.93 472.441 341.173 471.334 341.644C470.226 342.116 469.226 342.806 468.392 343.674C467.558 344.541 466.908 345.569 466.481 346.693Z" fill="#E0E0E0"/>
<path d="M437.847 337.803C437.799 336.601 437.995 335.401 438.422 334.276C438.849 333.151 439.499 332.124 440.333 331.256C441.167 330.389 442.168 329.698 443.275 329.227C444.382 328.755 445.573 328.512 446.776 328.512C447.98 328.512 449.171 328.755 450.278 329.227C451.385 329.698 452.386 330.389 453.22 331.256C454.053 332.124 454.703 333.151 455.131 334.276C455.558 335.401 455.754 336.601 455.706 337.803V374.911C455.754 376.113 455.558 377.313 455.131 378.438C454.703 379.563 454.053 380.59 453.22 381.457C452.386 382.325 451.385 383.015 450.278 383.487C449.171 383.958 447.98 384.201 446.776 384.201C445.573 384.201 444.382 383.958 443.275 383.487C442.168 383.015 441.167 382.325 440.333 381.457C439.499 380.59 438.849 379.563 438.422 378.438C437.995 377.313 437.799 376.113 437.847 374.911V337.803Z" fill="#E0E0E0"/>
<path d="M410.363 324.261C409.936 325.386 409.74 326.586 409.788 327.788V364.896C409.74 366.098 409.936 367.298 410.363 368.423C410.79 369.548 411.44 370.575 412.274 371.443C413.108 372.31 414.109 373.001 415.216 373.472C416.323 373.944 417.514 374.187 418.717 374.187C419.921 374.187 421.112 373.944 422.219 373.472C423.326 373.001 424.327 372.31 425.161 371.443C425.995 370.575 426.645 369.548 427.072 368.423C427.499 367.298 427.695 366.098 427.647 364.896V327.788C427.695 326.586 427.499 325.386 427.072 324.261C426.645 323.136 425.995 322.109 425.161 321.241C424.327 320.374 423.326 319.684 422.219 319.212C421.112 318.741 419.921 318.497 418.717 318.497C417.514 318.497 416.323 318.741 415.216 319.212C414.109 319.684 413.108 320.374 412.274 321.241C411.44 322.109 410.79 323.136 410.363 324.261Z" fill="#E0E0E0"/>
<path d="M381.729 318.774C381.682 317.571 381.877 316.371 382.304 315.246C382.732 314.121 383.382 313.094 384.216 312.227C385.05 311.359 386.05 310.669 387.157 310.197C388.265 309.726 389.456 309.483 390.659 309.483C391.862 309.483 393.053 309.726 394.16 310.197C395.268 310.669 396.268 311.359 397.102 312.227C397.936 313.094 398.586 314.121 399.013 315.246C399.441 316.371 399.636 317.571 399.589 318.774V355.881C399.636 357.084 399.441 358.283 399.013 359.408C398.586 360.533 397.936 361.56 397.102 362.428C396.268 363.296 395.268 363.986 394.16 364.457C393.053 364.929 391.862 365.172 390.659 365.172C389.456 365.172 388.265 364.929 387.157 364.457C386.05 363.986 385.05 363.296 384.216 362.428C383.382 361.56 382.732 360.533 382.304 359.408C381.877 358.283 381.682 357.084 381.729 355.881V318.774Z" fill="#E0E0E0"/>
<path d="M354.246 308.038C353.818 309.163 353.623 310.362 353.67 311.565V348.672C353.623 349.875 353.818 351.075 354.246 352.2C354.673 353.325 355.323 354.352 356.157 355.219C356.991 356.087 357.991 356.777 359.099 357.249C360.206 357.72 361.397 357.963 362.6 357.963C363.803 357.963 364.994 357.72 366.102 357.249C367.209 356.777 368.209 356.087 369.043 355.219C369.877 354.352 370.527 353.325 370.954 352.2C371.382 351.075 371.577 349.875 371.53 348.672V311.565C371.577 310.362 371.382 309.163 370.954 308.038C370.527 306.913 369.877 305.886 369.043 305.018C368.209 304.15 367.209 303.46 366.102 302.989C364.994 302.517 363.803 302.274 362.6 302.274C361.397 302.274 360.206 302.517 359.099 302.989C357.991 303.46 356.991 304.15 356.157 305.018C355.323 305.886 354.673 306.913 354.246 308.038Z" fill="#E0E0E0"/>
<path d="M129.2 311.565C129.152 310.362 129.348 309.163 129.775 308.038C130.203 306.913 130.853 305.886 131.687 305.018C132.521 304.15 133.521 303.46 134.628 302.989C135.735 302.517 136.926 302.274 138.13 302.274C139.333 302.274 140.524 302.517 141.631 302.989C142.739 303.46 143.739 304.15 144.573 305.018C145.407 305.886 146.057 306.913 146.484 308.038C146.912 309.163 147.107 310.362 147.06 311.565V348.672C147.107 349.875 146.912 351.075 146.484 352.2C146.057 353.325 145.407 354.352 144.573 355.219C143.739 356.087 142.739 356.777 141.631 357.249C140.524 357.72 139.333 357.963 138.13 357.963C136.926 357.963 135.735 357.72 134.628 357.249C133.521 356.777 132.521 356.087 131.687 355.219C130.853 354.352 130.203 353.325 129.775 352.2C129.348 351.075 129.152 349.875 129.2 348.672V311.565Z" fill="#E0E0E0"/>
<path d="M101.717 315.246C101.289 316.371 101.094 317.571 101.141 318.774V355.881C101.094 357.084 101.289 358.283 101.717 359.408C102.144 360.533 102.794 361.56 103.628 362.428C104.462 363.296 105.462 363.986 106.569 364.457C107.677 364.929 108.868 365.172 110.071 365.172C111.274 365.172 112.465 364.929 113.573 364.457C114.68 363.986 115.68 363.296 116.514 362.428C117.348 361.56 117.998 360.533 118.425 359.408C118.853 358.283 119.048 357.084 119.001 355.881V318.774C119.048 317.571 118.853 316.371 118.425 315.246C117.998 314.121 117.348 313.094 116.514 312.227C115.68 311.359 114.68 310.669 113.573 310.197C112.465 309.726 111.274 309.483 110.071 309.483C108.868 309.483 107.677 309.726 106.569 310.197C105.462 310.669 104.462 311.359 103.628 312.227C102.794 313.094 102.144 314.121 101.717 315.246Z" fill="#E0E0E0"/>
<path d="M73.0827 326.788C73.035 325.586 73.2307 324.386 73.658 323.261C74.0853 322.136 74.7354 321.109 75.5693 320.241C76.4032 319.374 77.4037 318.684 78.5109 318.212C79.618 317.741 80.809 317.497 82.0124 317.497C83.2158 317.497 84.4068 317.741 85.514 318.212C86.6211 318.684 87.6217 319.374 88.4556 320.241C89.2895 321.109 89.9395 322.136 90.3668 323.261C90.7941 324.386 90.9898 325.586 90.9421 326.788V363.896C90.9898 365.098 90.7941 366.298 90.3668 367.423C89.9395 368.548 89.2895 369.575 88.4556 370.443C87.6217 371.31 86.6211 372.001 85.514 372.472C84.4068 372.944 83.2158 373.187 82.0124 373.187C80.809 373.187 79.618 372.944 78.5109 372.472C77.4037 372.001 76.4032 371.31 75.5693 370.443C74.7354 369.575 74.0853 368.548 73.658 367.423C73.2307 366.298 73.035 365.098 73.0827 363.896V326.788Z" fill="#E0E0E0"/>
<path d="M45.5992 334.276C45.1719 335.401 44.9762 336.601 45.0239 337.803V374.911C44.9762 376.113 45.1719 377.313 45.5992 378.438C46.0264 379.563 46.6765 380.59 47.5104 381.457C48.3443 382.325 49.3449 383.015 50.452 383.487C51.5592 383.958 52.7502 384.201 53.9536 384.201C55.157 384.201 56.3479 383.958 57.4551 383.487C58.5623 383.015 59.5629 382.325 60.3968 381.457C61.2307 380.59 61.8807 379.563 62.308 378.438C62.7353 377.313 62.931 376.113 62.8833 374.911V337.803C62.931 336.601 62.7353 335.401 62.308 334.276C61.8807 333.151 61.2307 332.124 60.3968 331.256C59.5629 330.389 58.5623 329.698 57.4551 329.227C56.3479 328.755 55.157 328.512 53.9536 328.512C52.7502 328.512 51.5592 328.755 50.452 329.227C49.3449 329.698 48.3443 330.389 47.5104 331.256C46.6765 332.124 46.0264 333.151 45.5992 334.276Z" fill="#E0E0E0"/>
<path d="M16.965 350.221C16.9174 349.018 17.113 347.818 17.5403 346.693C17.9676 345.569 18.6177 344.541 19.4516 343.674C20.2855 342.806 21.286 342.116 22.3932 341.644C23.5004 341.173 24.6914 340.93 25.8948 340.93C27.0981 340.93 28.2891 341.173 29.3963 341.644C30.5035 342.116 31.504 342.806 32.3379 343.674C33.1718 344.541 33.8219 345.569 34.2492 346.693C34.6764 347.818 34.8721 349.018 34.8244 350.221V387.328C34.8721 388.531 34.6764 389.73 34.2492 390.855C33.8219 391.98 33.1718 393.007 32.3379 393.875C31.504 394.743 30.5035 395.433 29.3963 395.905C28.2891 396.376 27.0981 396.619 25.8948 396.619C24.6914 396.619 23.5004 396.376 22.3932 395.905C21.286 395.433 20.2855 394.743 19.4516 393.875C18.6177 393.007 17.9676 391.98 17.5403 390.855C17.113 389.73 16.9174 388.531 16.965 387.328V350.221Z" fill="#E0E0E0"/>
<path fill-rule="evenodd" clip-rule="evenodd" d="M500 421.001C426.449 379.001 341.277 355 250.5 355C159.311 355 73.7785 379.22 0 421.574V500H10.1459C78.8321 453.9 161.516 427 250.5 427C339.484 427 422.168 453.9 490.854 500H500V421.001ZM233 381C233 376.029 237.029 372 242 372H259C263.971 372 268 376.029 268 381V398C268 402.971 263.971 407 259 407H242C237.029 407 233 402.971 233 398V381Z" fill="#E0E0E0"/>
<path d="M215 170.52V218.42C215.003 221.476 216.219 224.406 218.381 226.566C220.543 228.727 223.474 229.94 226.53 229.94H274.42C277.475 229.94 280.405 228.726 282.566 226.566C284.726 224.405 285.94 221.475 285.94 218.42V170.52C285.94 167.465 284.726 164.535 282.566 162.374C280.405 160.214 277.475 159 274.42 159H226.53C223.474 159 220.543 160.213 218.381 162.374C216.219 164.534 215.003 167.464 215 170.52Z" fill="#B7B8BB"/>
<path fill-rule="evenodd" clip-rule="evenodd" d="M242 178.5C241.188 178.5 240.409 178.628 239.681 178.865C238.893 179.121 238.047 178.689 237.791 177.902C237.535 177.114 237.967 176.267 238.755 176.012C239.779 175.679 240.87 175.5 242 175.5H245.4C246.228 175.5 246.9 176.172 246.9 177C246.9 177.828 246.228 178.5 245.4 178.5H242ZM254.1 177C254.1 176.172 254.772 175.5 255.6 175.5H259C260.13 175.5 261.221 175.679 262.245 176.012C263.033 176.267 263.465 177.114 263.209 177.902C262.953 178.689 262.107 179.121 261.319 178.865C260.591 178.628 259.812 178.5 259 178.5H255.6C254.772 178.5 254.1 177.828 254.1 177ZM233.902 181.791C234.689 182.047 235.121 182.893 234.865 183.681C234.628 184.409 234.5 185.188 234.5 186V189.4C234.5 190.228 233.828 190.9 233 190.9C232.172 190.9 231.5 190.228 231.5 189.4V186C231.5 184.87 231.679 183.779 232.012 182.755C232.267 181.967 233.114 181.535 233.902 181.791ZM267.098 181.791C267.886 181.535 268.733 181.967 268.988 182.755C269.321 183.779 269.5 184.87 269.5 186V189.4C269.5 190.228 268.828 190.9 268 190.9C267.172 190.9 266.5 190.228 266.5 189.4V186C266.5 185.188 266.372 184.409 266.135 183.681C265.879 182.893 266.311 182.047 267.098 181.791ZM233 198.1C233.828 198.1 234.5 198.772 234.5 199.6V203C234.5 203.812 234.628 204.591 234.865 205.319C235.121 206.107 234.689 206.953 233.902 207.209C233.114 207.465 232.267 207.033 232.012 206.245C231.679 205.221 231.5 204.13 231.5 203V199.6C231.5 198.772 232.172 198.1 233 198.1ZM268 198.1C268.828 198.1 269.5 198.772 269.5 199.6V203C269.5 204.13 269.321 205.221 268.988 206.245C268.733 207.033 267.886 207.465 267.098 207.209C266.311 206.953 265.879 206.107 266.135 205.319C266.372 204.591 266.5 203.812 266.5 203V199.6C266.5 198.772 267.172 198.1 268 198.1ZM237.791 211.098C238.047 210.311 238.893 209.879 239.681 210.135C240.409 210.372 241.188 210.5 242 210.5H245.4C246.228 210.5 246.9 211.172 246.9 212C246.9 212.828 246.228 213.5 245.4 213.5H242C240.87 213.5 239.779 213.321 238.755 212.988C237.967 212.733 237.535 211.886 237.791 211.098ZM263.209 211.098C263.465 211.886 263.033 212.733 262.245 212.988C261.221 213.321 260.13 213.5 259 213.5H255.6C254.772 213.5 254.1 212.828 254.1 212C254.1 211.172 254.772 210.5 255.6 210.5H259C259.812 210.5 260.591 210.372 261.319 210.135C262.107 209.879 262.953 210.311 263.209 211.098Z" fill="white"/>
</g>
<rect x="0.5" y="0.5" width="499" height="499" rx="1.5" stroke="#B7B8BB"/>
<defs>
<clipPath id="clip0_1005_14270">
<rect width="500" height="500" rx="2" fill="white"/>
</clipPath>
</defs>
</svg>
