<svg width="300" height="300" viewBox="0 0 300 300" fill="none" xmlns="http://www.w3.org/2000/svg">
<g clip-path="url(#clip0_7364_14708)">
<rect width="300" height="300" fill="white"/>
<path d="M206.16 69.9365L151.649 117.98L99.127 69.9365" stroke="#B7B8BB" stroke-width="1.82443" stroke-dasharray="3.65 3.65"/>
<path d="M152.035 45.6108L152.035 110.682" stroke="#B7B8BB" stroke-width="1.82443" stroke-dasharray="3.65 3.65"/>
<path d="M152.035 133.792V220.756" stroke="black" stroke-width="1.82443"/>
<path fill-rule="evenodd" clip-rule="evenodd" d="M151.732 259.677C6.78241 259.677 -110.682 377.05 -110.682 521.787C-110.682 666.525 6.78241 783.897 151.732 783.897C296.681 783.897 414.146 666.525 414.146 521.787C414.146 377.05 296.681 259.677 151.732 259.677ZM-154.469 521.787C-154.469 352.823 -17.356 215.891 151.732 215.891C320.82 215.891 457.933 352.823 457.933 521.787C457.933 690.751 320.82 827.684 151.732 827.684C-17.356 827.684 -154.469 690.751 -154.469 521.787Z" fill="#E0E0E0"/>
<rect x="141.697" y="226.23" width="21.285" height="21.285" rx="5.4733" fill="white"/>
<path d="M123.6 56.4004L148.526 116.4L176.4 56.4004" stroke="black" stroke-width="1.82443" stroke-miterlimit="10"/>
<path d="M129 101.912V130.652C129.002 132.486 129.731 134.244 131.028 135.54C132.326 136.836 134.084 137.564 135.918 137.564H164.652C166.485 137.564 168.243 136.836 169.54 135.54C170.836 134.243 171.564 132.485 171.564 130.652V101.912C171.564 100.079 170.836 98.3207 169.54 97.0245C168.243 95.7282 166.485 95 164.652 95H135.918C134.084 95 132.326 95.728 131.028 97.0241C129.731 98.3202 129.002 100.078 129 101.912Z" fill="#B7B8BB"/>
<path d="M149.723 51.0298C148.354 51.031 147.016 50.6262 145.877 49.8665C144.739 49.1067 143.851 48.0264 143.327 46.762C142.802 45.4977 142.665 44.1062 142.931 42.7637C143.198 41.4212 143.857 40.1879 144.825 39.2201C145.793 38.2522 147.026 37.5932 148.369 37.3265C149.711 37.0597 151.103 37.1972 152.367 37.7216C153.631 38.246 154.712 39.1336 155.471 40.2722C156.231 41.4107 156.636 42.7491 156.635 44.1178C156.635 45.951 155.907 47.7091 154.61 49.0054C153.314 50.3016 151.556 51.0298 149.723 51.0298Z" fill="black"/>
<path d="M144.86 160.974C144.831 160.253 144.948 159.533 145.205 158.858C145.461 158.183 145.851 157.567 146.352 157.046C146.852 156.526 147.452 156.112 148.117 155.829C148.781 155.546 149.495 155.4 150.218 155.4C150.94 155.4 151.654 155.546 152.318 155.829C152.983 156.112 153.583 156.526 154.083 157.046C154.584 157.567 154.974 158.183 155.23 158.858C155.487 159.533 155.604 160.253 155.575 160.974V183.239C155.604 183.96 155.487 184.68 155.23 185.355C154.974 186.03 154.584 186.646 154.083 187.167C153.583 187.688 152.983 188.102 152.318 188.385C151.654 188.668 150.94 188.813 150.218 188.813C149.495 188.813 148.781 188.668 148.117 188.385C147.452 188.102 146.852 187.688 146.352 187.167C145.851 186.646 145.461 186.03 145.205 185.355C144.948 184.68 144.831 183.96 144.86 183.239V160.974Z" fill="#1C1C1C"/>
<path d="M136.223 174.538H171.495" stroke="black" stroke-width="1.82443"/>
<rect x="140.912" y="106.912" width="19.4606" height="19.4606" rx="4.56108" stroke="white" stroke-width="1.82443" stroke-dasharray="3.65 3.65"/>
<path d="M125.885 57.1651L152.243 44.394L178.793 57.1651" stroke="black" stroke-width="1.82443"/>
<path d="M99.127 70.5444L134.399 174.537" stroke="#B7B8BB" stroke-width="1.82443" stroke-dasharray="3.65 3.65"/>
<path d="M206.158 69.9365L170.277 174.537" stroke="#B7B8BB" stroke-width="1.82443" stroke-dasharray="3.65 3.65"/>
<path d="M195.366 183.455C195.337 182.734 195.454 182.014 195.711 181.339C195.967 180.664 196.357 180.048 196.857 179.527C197.358 179.007 197.958 178.592 198.622 178.31C199.287 178.027 200.001 177.881 200.723 177.881C201.445 177.881 202.16 178.027 202.824 178.31C203.489 178.592 204.089 179.007 204.589 179.527C205.09 180.048 205.48 180.664 205.736 181.339C205.992 182.014 206.11 182.734 206.081 183.455V205.72C206.11 206.441 205.992 207.161 205.736 207.836C205.48 208.511 205.09 209.127 204.589 209.648C204.089 210.169 203.489 210.583 202.824 210.866C202.16 211.149 201.445 211.294 200.723 211.294C200.001 211.294 199.287 211.149 198.622 210.866C197.958 210.583 197.358 210.169 196.857 209.648C196.357 209.127 195.967 208.511 195.711 207.836C195.454 207.161 195.337 206.441 195.366 205.72V183.455Z" fill="#E0E0E0"/>
<path d="M178.53 180.572C178.501 179.85 178.618 179.13 178.875 178.455C179.131 177.78 179.521 177.164 180.022 176.643C180.522 176.123 181.122 175.709 181.787 175.426C182.451 175.143 183.165 174.997 183.887 174.997C184.609 174.997 185.324 175.143 185.988 175.426C186.653 175.709 187.253 176.123 187.753 176.643C188.254 177.164 188.644 177.78 188.9 178.455C189.156 179.13 189.274 179.85 189.245 180.572V202.836C189.274 203.558 189.156 204.277 188.9 204.952C188.644 205.627 188.254 206.244 187.753 206.764C187.253 207.285 186.653 207.699 185.988 207.982C185.324 208.265 184.609 208.411 183.887 208.411C183.165 208.411 182.451 208.265 181.787 207.982C181.122 207.699 180.522 207.285 180.022 206.764C179.521 206.244 179.131 205.627 178.875 204.952C178.618 204.277 178.501 203.558 178.53 202.836V180.572Z" fill="#E0E0E0"/>
<path d="M111.19 180.572C111.161 179.85 111.279 179.13 111.535 178.455C111.791 177.78 112.181 177.164 112.682 176.643C113.182 176.123 113.782 175.709 114.447 175.426C115.111 175.143 115.826 174.997 116.548 174.997C117.27 174.997 117.984 175.143 118.649 175.426C119.313 175.709 119.913 176.123 120.413 176.643C120.914 177.164 121.304 177.78 121.56 178.455C121.817 179.13 121.934 179.85 121.905 180.572V202.836C121.934 203.558 121.817 204.277 121.56 204.952C121.304 205.627 120.914 206.244 120.413 206.764C119.913 207.285 119.313 207.699 118.649 207.982C117.984 208.265 117.27 208.411 116.548 208.411C115.826 208.411 115.111 208.265 114.447 207.982C113.782 207.699 113.182 207.285 112.682 206.764C112.181 206.244 111.791 205.627 111.535 204.952C111.279 204.277 111.161 203.558 111.19 202.836V180.572Z" fill="#E0E0E0"/>
<path d="M94.3538 183.455C94.3252 182.734 94.4426 182.014 94.699 181.339C94.9554 180.664 95.3454 180.048 95.8458 179.527C96.3461 179.007 96.9464 178.592 97.6107 178.31C98.275 178.027 98.9896 177.881 99.7117 177.881C100.434 177.881 101.148 178.027 101.813 178.31C102.477 178.592 103.077 179.007 103.578 179.527C104.078 180.048 104.468 180.664 104.724 181.339C104.981 182.014 105.098 182.734 105.069 183.455V205.72C105.098 206.441 104.981 207.161 104.724 207.836C104.468 208.511 104.078 209.127 103.578 209.648C103.077 210.169 102.477 210.583 101.813 210.866C101.148 211.149 100.434 211.294 99.7117 211.294C98.9896 211.294 98.275 211.149 97.6107 210.866C96.9464 210.583 96.3461 210.169 95.8458 209.648C95.3454 209.127 94.9554 208.511 94.699 207.836C94.4426 207.161 94.3252 206.441 94.3538 205.72V183.455Z" fill="#E0E0E0"/>
<path d="M279.541 210.132C279.513 209.411 279.63 208.691 279.886 208.016C280.143 207.341 280.533 206.725 281.033 206.204C281.534 205.683 282.134 205.269 282.798 204.986C283.463 204.703 284.177 204.558 284.899 204.558C285.621 204.558 286.336 204.703 287 204.986C287.664 205.269 288.265 205.683 288.765 206.204C289.265 206.725 289.655 207.341 289.912 208.016C290.168 208.691 290.286 209.411 290.257 210.132V232.397C290.286 233.118 290.168 233.838 289.912 234.513C289.655 235.188 289.265 235.804 288.765 236.325C288.265 236.845 287.664 237.26 287 237.542C286.336 237.825 285.621 237.971 284.899 237.971C284.177 237.971 283.463 237.825 282.798 237.542C282.134 237.26 281.534 236.845 281.033 236.325C280.533 235.804 280.143 235.188 279.886 234.513C279.63 233.838 279.513 233.118 279.541 232.397V210.132Z" fill="#E0E0E0"/>
<path d="M262.707 202.682C262.679 201.96 262.796 201.241 263.053 200.566C263.309 199.891 263.699 199.274 264.199 198.754C264.7 198.233 265.3 197.819 265.964 197.536C266.629 197.253 267.343 197.107 268.065 197.107C268.787 197.107 269.502 197.253 270.166 197.536C270.83 197.819 271.431 198.233 271.931 198.754C272.431 199.274 272.821 199.891 273.078 200.566C273.334 201.241 273.452 201.96 273.423 202.682V224.947C273.452 225.668 273.334 226.388 273.078 227.063C272.821 227.738 272.431 228.354 271.931 228.875C271.431 229.395 270.83 229.809 270.166 230.092C269.502 230.375 268.787 230.521 268.065 230.521C267.343 230.521 266.629 230.375 265.964 230.092C265.3 229.809 264.7 229.395 264.199 228.875C263.699 228.354 263.309 227.738 263.053 227.063C262.796 226.388 262.679 225.668 262.707 224.947V202.682Z" fill="#E0E0E0"/>
<path d="M245.871 196.673C245.843 195.951 245.96 195.231 246.217 194.556C246.473 193.881 246.863 193.265 247.363 192.745C247.864 192.224 248.464 191.81 249.128 191.527C249.793 191.244 250.507 191.098 251.229 191.098C251.951 191.098 252.666 191.244 253.33 191.527C253.994 191.81 254.595 192.224 255.095 192.745C255.595 193.265 255.985 193.881 256.242 194.556C256.498 195.231 256.616 195.951 256.587 196.673V218.937C256.616 219.659 256.498 220.379 256.242 221.054C255.985 221.728 255.595 222.345 255.095 222.865C254.595 223.386 253.994 223.8 253.33 224.083C252.666 224.366 251.951 224.512 251.229 224.512C250.507 224.512 249.793 224.366 249.128 224.083C248.464 223.8 247.864 223.386 247.363 222.865C246.863 222.345 246.473 221.728 246.217 221.054C245.96 220.379 245.843 219.659 245.871 218.937V196.673Z" fill="#E0E0E0"/>
<path d="M229.037 191.264C229.009 190.542 229.126 189.823 229.383 189.148C229.639 188.473 230.029 187.856 230.529 187.336C231.03 186.815 231.63 186.401 232.294 186.118C232.959 185.835 233.673 185.689 234.395 185.689C235.117 185.689 235.832 185.835 236.496 186.118C237.16 186.401 237.761 186.815 238.261 187.336C238.761 187.856 239.152 188.473 239.408 189.148C239.664 189.823 239.782 190.542 239.753 191.264V213.529C239.782 214.25 239.664 214.97 239.408 215.645C239.152 216.32 238.761 216.936 238.261 217.457C237.761 217.977 237.16 218.391 236.496 218.674C235.832 218.957 235.117 219.103 234.395 219.103C233.673 219.103 232.959 218.957 232.294 218.674C231.63 218.391 231.03 217.977 230.529 217.457C230.029 216.936 229.639 216.32 229.383 215.645C229.126 214.97 229.009 214.25 229.037 213.529V191.264Z" fill="#E0E0E0"/>
<path d="M212.201 186.939C212.173 186.217 212.29 185.497 212.547 184.822C212.803 184.147 213.193 183.531 213.693 183.011C214.194 182.49 214.794 182.076 215.458 181.793C216.123 181.51 216.837 181.364 217.559 181.364C218.281 181.364 218.996 181.51 219.66 181.793C220.325 182.076 220.925 182.49 221.425 183.011C221.926 183.531 222.316 184.147 222.572 184.822C222.828 185.497 222.946 186.217 222.917 186.939V209.203C222.946 209.925 222.828 210.645 222.572 211.32C222.316 211.995 221.926 212.611 221.425 213.131C220.925 213.652 220.325 214.066 219.66 214.349C218.996 214.632 218.281 214.778 217.559 214.778C216.837 214.778 216.123 214.632 215.458 214.349C214.794 214.066 214.194 213.652 213.693 213.131C213.193 212.611 212.803 211.995 212.547 211.32C212.29 210.645 212.173 209.925 212.201 209.203V186.939Z" fill="#E0E0E0"/>
<path d="M77.5198 186.939C77.4912 186.217 77.6086 185.497 77.865 184.822C78.1214 184.147 78.5114 183.531 79.0118 183.011C79.5121 182.49 80.1124 182.076 80.7767 181.793C81.441 181.51 82.1556 181.364 82.8777 181.364C83.5997 181.364 84.3143 181.51 84.9786 181.793C85.6429 182.076 86.2432 182.49 86.7436 183.011C87.2439 183.531 87.6339 184.147 87.8903 184.822C88.1467 185.497 88.2641 186.217 88.2355 186.939V209.203C88.2641 209.925 88.1467 210.645 87.8903 211.32C87.6339 211.995 87.2439 212.611 86.7436 213.131C86.2432 213.652 85.6429 214.066 84.9786 214.349C84.3143 214.632 83.5997 214.778 82.8777 214.778C82.1556 214.778 81.441 214.632 80.7767 214.349C80.1124 214.066 79.5121 213.652 79.0118 213.131C78.5114 212.611 78.1214 211.995 77.865 211.32C77.6086 210.645 77.4912 209.925 77.5198 209.203V186.939Z" fill="#E0E0E0"/>
<path d="M60.6839 191.264C60.6553 190.542 60.7727 189.823 61.0291 189.148C61.2854 188.473 61.6755 187.856 62.1758 187.336C62.6762 186.815 63.2765 186.401 63.9408 186.118C64.6051 185.835 65.3197 185.689 66.0417 185.689C66.7638 185.689 67.4784 185.835 68.1427 186.118C68.807 186.401 69.4073 186.815 69.9076 187.336C70.408 187.856 70.798 188.473 71.0544 189.148C71.3107 189.823 71.4282 190.542 71.3996 191.264V213.529C71.4282 214.25 71.3107 214.97 71.0544 215.645C70.798 216.32 70.408 216.936 69.9076 217.457C69.4073 217.977 68.807 218.391 68.1427 218.674C67.4784 218.957 66.7638 219.103 66.0417 219.103C65.3197 219.103 64.6051 218.957 63.9408 218.674C63.2765 218.391 62.6762 217.977 62.1758 217.457C61.6755 216.936 61.2854 216.32 61.0291 215.645C60.7727 214.97 60.6553 214.25 60.6839 213.529V191.264Z" fill="#E0E0E0"/>
<path d="M43.848 196.073C43.8194 195.352 43.9368 194.632 44.1931 193.957C44.4495 193.282 44.8396 192.665 45.3399 192.145C45.8402 191.624 46.4406 191.21 47.1049 190.927C47.7692 190.644 48.4838 190.499 49.2058 190.499C49.9278 190.499 50.6424 190.644 51.3067 190.927C51.971 191.21 52.5714 191.624 53.0717 192.145C53.572 192.665 53.9621 193.282 54.2184 193.957C54.4748 194.632 54.5922 195.352 54.5636 196.073V218.338C54.5922 219.059 54.4748 219.779 54.2184 220.454C53.9621 221.129 53.572 221.745 53.0717 222.266C52.5714 222.786 51.971 223.2 51.3067 223.483C50.6424 223.766 49.9278 223.912 49.2058 223.912C48.4838 223.912 47.7692 223.766 47.1049 223.483C46.4406 223.2 45.8402 222.786 45.3399 222.266C44.8396 221.745 44.4495 221.129 44.1931 220.454C43.9368 219.779 43.8194 219.059 43.848 218.338V196.073Z" fill="#E0E0E0"/>
<path d="M27.012 202.682C26.9834 201.96 27.1008 201.241 27.3572 200.566C27.6136 199.891 28.0036 199.274 28.504 198.754C29.0043 198.233 29.6046 197.819 30.2689 197.536C30.9332 197.253 31.6478 197.107 32.3699 197.107C33.0919 197.107 33.8065 197.253 34.4708 197.536C35.1351 197.819 35.7354 198.233 36.2358 198.754C36.7361 199.274 37.1261 199.891 37.3825 200.566C37.6389 201.241 37.7563 201.96 37.7277 202.682V224.947C37.7563 225.668 37.6389 226.388 37.3825 227.063C37.1261 227.738 36.7361 228.354 36.2358 228.875C35.7354 229.395 35.1351 229.809 34.4708 230.092C33.8065 230.375 33.0919 230.521 32.3699 230.521C31.6478 230.521 30.9332 230.375 30.2689 230.092C29.6046 229.809 29.0043 229.395 28.504 228.875C28.0036 228.354 27.6136 227.738 27.3572 227.063C27.1008 226.388 26.9834 225.668 27.012 224.947V202.682Z" fill="#E0E0E0"/>
<path d="M10.178 210.132C10.1494 209.411 10.2668 208.691 10.5232 208.016C10.7796 207.341 11.1696 206.725 11.67 206.204C12.1703 205.683 12.7706 205.269 13.4349 204.986C14.0992 204.703 14.8138 204.558 15.5359 204.558C16.2579 204.558 16.9725 204.703 17.6368 204.986C18.3011 205.269 18.9014 205.683 19.4018 206.204C19.9021 206.725 20.2921 207.341 20.5485 208.016C20.8049 208.691 20.9223 209.411 20.8937 210.132V232.397C20.9223 233.118 20.8049 233.838 20.5485 234.513C20.2921 235.188 19.9021 235.804 19.4018 236.325C18.9014 236.845 18.3011 237.26 17.6368 237.542C16.9725 237.825 16.2579 237.971 15.5359 237.971C14.8138 237.971 14.0992 237.825 13.4349 237.542C12.7706 237.26 12.1703 236.845 11.67 236.325C11.1696 235.804 10.7796 235.188 10.5232 234.513C10.2668 233.838 10.1494 233.118 10.178 232.397V210.132Z" fill="#E0E0E0"/>
<path d="M-6.6579 219.025C-6.6865 218.304 -6.56909 217.584 -6.31272 216.909C-6.05636 216.234 -5.6663 215.618 -5.16596 215.097C-4.66562 214.576 -4.0653 214.162 -3.401 213.879C-2.7367 213.597 -2.02209 213.451 -1.30006 213.451C-0.578026 213.451 0.136552 213.597 0.800855 213.879C1.46516 214.162 2.0655 214.576 2.56584 215.097C3.06618 215.618 3.45621 216.234 3.71258 216.909C3.96894 217.584 4.08636 218.304 4.05776 219.025V241.29C4.08636 242.011 3.96894 242.731 3.71258 243.406C3.45621 244.081 3.06618 244.697 2.56584 245.218C2.0655 245.738 1.46516 246.153 0.800855 246.435C0.136552 246.718 -0.578026 246.864 -1.30006 246.864C-2.02209 246.864 -2.7367 246.718 -3.401 246.435C-4.0653 246.153 -4.66562 245.738 -5.16596 245.218C-5.6663 244.697 -6.05636 244.081 -6.31272 243.406C-6.56909 242.731 -6.6865 242.011 -6.6579 241.29V219.025Z" fill="#E0E0E0"/>
<path d="M179.098 57.4697L205.856 69.3285" stroke="#B7B8BB" stroke-width="1.82443" stroke-dasharray="3.65 3.65"/>
<path d="M125.275 57.7734L99.1252 69.3282" stroke="#B7B8BB" stroke-width="1.82443" stroke-dasharray="3.65 3.65"/>
<path d="M203.111 61.8003C201.744 61.8003 200.408 62.2057 199.271 62.9652C198.134 63.7247 197.249 64.8042 196.725 66.0672C196.202 67.3302 196.065 68.72 196.332 70.0608C196.599 71.4016 197.257 72.6332 198.224 73.5998C199.19 74.5665 200.422 75.2248 201.763 75.4915C203.104 75.7582 204.493 75.6213 205.756 75.0981C207.019 74.575 208.099 73.6891 208.858 72.5524C209.618 71.4157 210.023 70.0794 210.023 68.7123C210.023 66.8791 209.295 65.121 207.999 63.8248C206.702 62.5285 204.944 61.8003 203.111 61.8003Z" fill="white"/>
<path d="M203.111 61.8003C201.744 61.8003 200.408 62.2057 199.271 62.9652C198.134 63.7247 197.249 64.8042 196.725 66.0672C196.202 67.3302 196.065 68.72 196.332 70.0608C196.599 71.4016 197.257 72.6332 198.224 73.5998C199.19 74.5665 200.422 75.2248 201.763 75.4915C203.104 75.7582 204.493 75.6213 205.756 75.0981C207.019 74.575 208.099 73.6891 208.858 72.5524C209.618 71.4157 210.023 70.0794 210.023 68.7123C210.023 66.8791 209.295 65.121 207.999 63.8248C206.702 62.5285 204.944 61.8003 203.111 61.8003" stroke="#B7B8BB" stroke-width="1.82443" stroke-linejoin="bevel" stroke-dasharray="6.08 6.08"/>
<path d="M97.5116 61.8003C96.1445 61.8003 94.8082 62.2057 93.6715 62.9652C92.5348 63.7247 91.6489 64.8042 91.1258 66.0672C90.6026 67.3302 90.4657 68.72 90.7324 70.0608C90.9991 71.4016 91.6574 72.6332 92.6241 73.5998C93.5908 74.5665 94.8224 75.2248 96.1631 75.4915C97.5039 75.7582 98.8937 75.6213 100.157 75.0981C101.42 74.575 102.499 73.6891 103.259 72.5524C104.018 71.4157 104.424 70.0794 104.424 68.7123C104.424 66.8791 103.695 65.121 102.399 63.8248C101.103 62.5285 99.3448 61.8003 97.5116 61.8003Z" fill="white"/>
<path d="M97.5116 61.8003C96.1445 61.8003 94.8082 62.2057 93.6715 62.9652C92.5348 63.7247 91.6489 64.8042 91.1258 66.0672C90.6026 67.3302 90.4657 68.72 90.7324 70.0608C90.9991 71.4016 91.6574 72.6332 92.6241 73.5998C93.5908 74.5665 94.8224 75.2248 96.1631 75.4915C97.5039 75.7582 98.8937 75.6213 100.157 75.0981C101.42 74.575 102.499 73.6891 103.259 72.5524C104.018 71.4157 104.424 70.0794 104.424 68.7123C104.424 66.8791 103.695 65.121 102.399 63.8248C101.103 62.5285 99.3448 61.8003 97.5116 61.8003" stroke="#B7B8BB" stroke-width="1.82443" stroke-linejoin="bevel" stroke-dasharray="6.08 6.08"/>
<path d="M123.906 63.5579C122.539 63.5567 121.203 63.1503 120.068 62.3901C118.932 61.6299 118.047 60.5499 117.524 59.2868C117.002 58.0237 116.866 56.6341 117.134 55.2937C117.401 53.9533 118.06 52.7223 119.027 51.7562C119.993 50.7902 121.225 50.1325 122.566 49.8663C123.906 49.6 125.296 49.7373 126.558 50.2606C127.821 50.7839 128.9 51.6699 129.66 52.8064C130.419 53.9429 130.824 55.2791 130.824 56.6459C130.824 57.5541 130.645 58.4534 130.297 59.2924C129.95 60.1314 129.44 60.8936 128.797 61.5355C128.155 62.1774 127.392 62.6865 126.553 63.0335C125.714 63.3805 124.814 63.5587 123.906 63.5579Z" fill="black"/>
<path d="M176.713 49.7573C175.346 49.7573 174.009 50.1627 172.873 50.9222C171.736 51.6817 170.85 52.7612 170.327 54.0242C169.804 55.2872 169.667 56.677 169.934 58.0178C170.2 59.3586 170.859 60.5902 171.825 61.5568C172.792 62.5235 174.024 63.1818 175.364 63.4485C176.705 63.7152 178.095 63.5783 179.358 63.0552C180.621 62.532 181.7 61.6461 182.46 60.5094C183.219 59.3728 183.625 58.0364 183.625 56.6693C183.625 54.8362 182.897 53.0781 181.6 51.7818C180.304 50.4856 178.546 49.7573 176.713 49.7573Z" fill="black"/>
<path d="M161.694 160.974C161.665 160.253 161.782 159.533 162.039 158.858C162.295 158.183 162.685 157.567 163.186 157.046C163.686 156.526 164.286 156.112 164.951 155.829C165.615 155.546 166.329 155.4 167.052 155.4C167.774 155.4 168.488 155.546 169.152 155.829C169.817 156.112 170.417 156.526 170.917 157.046C171.418 157.567 171.808 158.183 172.064 158.858C172.321 159.533 172.438 160.253 172.409 160.974V183.239C172.438 183.96 172.321 184.68 172.064 185.355C171.808 186.03 171.418 186.646 170.917 187.167C170.417 187.688 169.817 188.102 169.152 188.385C168.488 188.668 167.774 188.813 167.052 188.813C166.329 188.813 165.615 188.668 164.951 188.385C164.286 188.102 163.686 187.688 163.186 187.167C162.685 186.646 162.295 186.03 162.039 185.355C161.782 184.68 161.665 183.96 161.694 183.239V160.974Z" fill="#1C1C1C"/>
<path d="M128.024 160.974C127.995 160.253 128.113 159.533 128.369 158.858C128.625 158.183 129.015 157.567 129.516 157.046C130.016 156.526 130.616 156.112 131.281 155.829C131.945 155.546 132.66 155.4 133.382 155.4C134.104 155.4 134.818 155.546 135.483 155.829C136.147 156.112 136.747 156.526 137.247 157.046C137.748 157.567 138.138 158.183 138.394 158.858C138.651 159.533 138.768 160.253 138.739 160.974V183.239C138.768 183.96 138.651 184.68 138.394 185.355C138.138 186.03 137.748 186.646 137.247 187.167C136.747 187.688 136.147 188.102 135.483 188.385C134.818 188.668 134.104 188.813 133.382 188.813C132.66 188.813 131.945 188.668 131.281 188.385C130.616 188.102 130.016 187.688 129.516 187.167C129.015 186.646 128.625 186.03 128.369 185.355C128.113 184.68 127.995 183.96 128.024 183.239V160.974Z" fill="#1C1C1C"/>
<path d="M296.377 219.025C296.349 218.304 296.466 217.584 296.722 216.909C296.979 216.234 297.369 215.618 297.869 215.097C298.37 214.576 298.97 214.162 299.634 213.879C300.298 213.597 301.013 213.451 301.735 213.451C302.457 213.451 303.172 213.597 303.836 213.879C304.5 214.162 305.101 214.576 305.601 215.097C306.101 215.618 306.491 216.234 306.748 216.909C307.004 217.584 307.122 218.304 307.093 219.025V241.29C307.122 242.011 307.004 242.731 306.748 243.406C306.491 244.081 306.101 244.697 305.601 245.218C305.101 245.738 304.5 246.153 303.836 246.435C303.172 246.718 302.457 246.864 301.735 246.864C301.013 246.864 300.298 246.718 299.634 246.435C298.97 246.153 298.37 245.738 297.869 245.218C297.369 244.697 296.979 244.081 296.722 243.406C296.466 242.731 296.349 242.011 296.377 241.29V219.025Z" fill="#E0E0E0"/>
</g>
<rect x="0.5" y="0.5" width="299" height="299" stroke="#B7B8BB"/>
<defs>
<clipPath id="clip0_7364_14708">
<rect width="300" height="300" fill="white"/>
</clipPath>
</defs>
</svg>
