<?xml version="1.0" encoding="utf-8"?>
<!-- Generator: Adobe Illustrator 25.2.1, SVG Export Plug-In . SVG Version: 6.00 Build 0)  -->
<svg version="1.1" xmlns="http://www.w3.org/2000/svg" xmlns:xlink="http://www.w3.org/1999/xlink" x="0px" y="0px"
	 viewBox="0 0 310 369.3" enable-background="new 0 0 310 369.3" xml:space="preserve">
<g id="Grid" display="none" opacity="0.25">
	<g display="inline">
		<defs>
			<rect id="SVGID_1_" x="-174.7" y="13.1" width="719.1" height="720"/>
		</defs>
		<clipPath id="SVGID_2_">
			<use xlink:href="#SVGID_1_"  overflow="visible"/>
		</clipPath>
		<g clip-path="url(#SVGID_2_)">
			
				<line fill="none" stroke="#000000" stroke-width="0.25" stroke-miterlimit="10" x1="-1029.2" y1="-790.2" x2="-1029.2" y2="1535.4"/>
			
				<line fill="none" stroke="#000000" stroke-width="0.25" stroke-miterlimit="10" x1="-984.2" y1="-790.2" x2="-984.2" y2="1535.4"/>
			
				<line fill="none" stroke="#000000" stroke-width="0.25" stroke-miterlimit="10" x1="-939.2" y1="-790.2" x2="-939.2" y2="1535.4"/>
			
				<line fill="none" stroke="#000000" stroke-width="0.25" stroke-miterlimit="10" x1="-894.2" y1="-790.2" x2="-894.2" y2="1535.4"/>
			
				<line fill="none" stroke="#000000" stroke-width="0.25" stroke-miterlimit="10" x1="-849.2" y1="-790.2" x2="-849.2" y2="1535.4"/>
			
				<line fill="none" stroke="#000000" stroke-width="0.25" stroke-miterlimit="10" x1="-804.2" y1="-790.2" x2="-804.2" y2="1535.4"/>
			
				<line fill="none" stroke="#000000" stroke-width="0.25" stroke-miterlimit="10" x1="-759.2" y1="-790.2" x2="-759.2" y2="1535.4"/>
			
				<line fill="none" stroke="#000000" stroke-width="0.25" stroke-miterlimit="10" x1="-714.2" y1="-790.2" x2="-714.2" y2="1535.4"/>
			
				<line fill="none" stroke="#000000" stroke-width="0.25" stroke-miterlimit="10" x1="-669.2" y1="-790.2" x2="-669.2" y2="1535.4"/>
			
				<line fill="none" stroke="#000000" stroke-width="0.25" stroke-miterlimit="10" x1="-624.2" y1="-790.2" x2="-624.2" y2="1535.4"/>
			
				<line fill="none" stroke="#000000" stroke-width="0.25" stroke-miterlimit="10" x1="-579.2" y1="-790.2" x2="-579.2" y2="1535.4"/>
			
				<line fill="none" stroke="#000000" stroke-width="0.25" stroke-miterlimit="10" x1="-534.2" y1="-790.2" x2="-534.2" y2="1535.4"/>
			
				<line fill="none" stroke="#000000" stroke-width="0.25" stroke-miterlimit="10" x1="-489.2" y1="-790.2" x2="-489.2" y2="1535.4"/>
			
				<line fill="none" stroke="#000000" stroke-width="0.25" stroke-miterlimit="10" x1="-444.2" y1="-790.2" x2="-444.2" y2="1535.4"/>
			
				<line fill="none" stroke="#000000" stroke-width="0.25" stroke-miterlimit="10" x1="-399.2" y1="-790.2" x2="-399.2" y2="1535.4"/>
			
				<line fill="none" stroke="#000000" stroke-width="0.25" stroke-miterlimit="10" x1="-354.2" y1="-790.2" x2="-354.2" y2="1535.4"/>
			
				<line fill="none" stroke="#000000" stroke-width="0.25" stroke-miterlimit="10" x1="-309.2" y1="-790.2" x2="-309.2" y2="1535.4"/>
			
				<line fill="none" stroke="#000000" stroke-width="0.25" stroke-miterlimit="10" x1="-264.2" y1="-790.2" x2="-264.2" y2="1535.4"/>
			
				<line fill="none" stroke="#000000" stroke-width="0.25" stroke-miterlimit="10" x1="-219.2" y1="-790.2" x2="-219.2" y2="1535.4"/>
			
				<line fill="none" stroke="#000000" stroke-width="0.25" stroke-miterlimit="10" x1="-174.2" y1="-790.2" x2="-174.2" y2="1535.4"/>
			
				<line fill="none" stroke="#000000" stroke-width="0.25" stroke-miterlimit="10" x1="-129.2" y1="-790.2" x2="-129.2" y2="1535.4"/>
			<line fill="none" stroke="#000000" stroke-width="0.25" stroke-miterlimit="10" x1="-84.2" y1="-790.2" x2="-84.2" y2="1535.4"/>
			<line fill="none" stroke="#000000" stroke-width="0.25" stroke-miterlimit="10" x1="-39.2" y1="-790.2" x2="-39.2" y2="1535.4"/>
			<line fill="none" stroke="#000000" stroke-width="0.25" stroke-miterlimit="10" x1="5.8" y1="-790.2" x2="5.8" y2="1535.4"/>
			<line fill="none" stroke="#000000" stroke-width="0.25" stroke-miterlimit="10" x1="50.8" y1="-790.2" x2="50.8" y2="1535.4"/>
			<line fill="none" stroke="#000000" stroke-width="0.25" stroke-miterlimit="10" x1="95.8" y1="-790.2" x2="95.8" y2="1535.4"/>
			<line fill="none" stroke="#000000" stroke-width="0.25" stroke-miterlimit="10" x1="140.8" y1="-790.2" x2="140.8" y2="1535.4"/>
			<line fill="none" stroke="#000000" stroke-width="0.25" stroke-miterlimit="10" x1="185.8" y1="-790.2" x2="185.8" y2="1535.4"/>
			<line fill="none" stroke="#000000" stroke-width="0.25" stroke-miterlimit="10" x1="230.8" y1="-790.2" x2="230.8" y2="1535.4"/>
			<line fill="none" stroke="#000000" stroke-width="0.25" stroke-miterlimit="10" x1="275.8" y1="-790.2" x2="275.8" y2="1535.4"/>
			<line fill="none" stroke="#000000" stroke-width="0.25" stroke-miterlimit="10" x1="320.8" y1="-790.2" x2="320.8" y2="1535.4"/>
			<line fill="none" stroke="#000000" stroke-width="0.25" stroke-miterlimit="10" x1="365.8" y1="-790.2" x2="365.8" y2="1535.4"/>
			<line fill="none" stroke="#000000" stroke-width="0.25" stroke-miterlimit="10" x1="410.8" y1="-790.2" x2="410.8" y2="1535.4"/>
			<line fill="none" stroke="#000000" stroke-width="0.25" stroke-miterlimit="10" x1="455.8" y1="-790.2" x2="455.8" y2="1535.4"/>
			<line fill="none" stroke="#000000" stroke-width="0.25" stroke-miterlimit="10" x1="500.8" y1="-790.2" x2="500.8" y2="1535.4"/>
			<line fill="none" stroke="#000000" stroke-width="0.25" stroke-miterlimit="10" x1="545.8" y1="-790.2" x2="545.8" y2="1535.4"/>
			<line fill="none" stroke="#000000" stroke-width="0.25" stroke-miterlimit="10" x1="590.8" y1="-790.2" x2="590.8" y2="1535.4"/>
			<line fill="none" stroke="#000000" stroke-width="0.25" stroke-miterlimit="10" x1="635.8" y1="-790.2" x2="635.8" y2="1535.4"/>
			<line fill="none" stroke="#000000" stroke-width="0.25" stroke-miterlimit="10" x1="680.8" y1="-790.2" x2="680.8" y2="1535.4"/>
			<line fill="none" stroke="#000000" stroke-width="0.25" stroke-miterlimit="10" x1="725.8" y1="-790.2" x2="725.8" y2="1535.4"/>
			<line fill="none" stroke="#000000" stroke-width="0.25" stroke-miterlimit="10" x1="770.8" y1="-790.2" x2="770.8" y2="1535.4"/>
			<line fill="none" stroke="#000000" stroke-width="0.25" stroke-miterlimit="10" x1="815.8" y1="-790.2" x2="815.8" y2="1535.4"/>
			<line fill="none" stroke="#000000" stroke-width="0.25" stroke-miterlimit="10" x1="860.8" y1="-790.2" x2="860.8" y2="1535.4"/>
			<line fill="none" stroke="#000000" stroke-width="0.25" stroke-miterlimit="10" x1="905.8" y1="-790.2" x2="905.8" y2="1535.4"/>
			<line fill="none" stroke="#000000" stroke-width="0.25" stroke-miterlimit="10" x1="950.8" y1="-790.2" x2="950.8" y2="1535.4"/>
			<line fill="none" stroke="#000000" stroke-width="0.25" stroke-miterlimit="10" x1="995.8" y1="-790.2" x2="995.8" y2="1535.4"/>
			
				<line fill="none" stroke="#000000" stroke-width="0.25" stroke-miterlimit="10" x1="1040.8" y1="-790.2" x2="1040.8" y2="1535.4"/>
			
				<line fill="none" stroke="#000000" stroke-width="0.25" stroke-miterlimit="10" x1="1085.8" y1="-790.2" x2="1085.8" y2="1535.4"/>
			
				<line fill="none" stroke="#000000" stroke-width="0.25" stroke-miterlimit="10" x1="1130.8" y1="-790.2" x2="1130.8" y2="1535.4"/>
			
				<line fill="none" stroke="#000000" stroke-width="0.25" stroke-miterlimit="10" x1="1175.8" y1="-790.2" x2="1175.8" y2="1535.4"/>
			
				<line fill="none" stroke="#000000" stroke-width="0.25" stroke-miterlimit="10" x1="1220.8" y1="-790.2" x2="1220.8" y2="1535.4"/>
			
				<line fill="none" stroke="#000000" stroke-width="0.25" stroke-miterlimit="10" x1="1265.8" y1="-790.2" x2="1265.8" y2="1535.4"/>
			
				<line fill="none" stroke="#000000" stroke-width="0.25" stroke-miterlimit="10" x1="1310.8" y1="-790.2" x2="1310.8" y2="1535.4"/>
			
				<line fill="none" stroke="#000000" stroke-width="0.25" stroke-miterlimit="10" x1="1355.8" y1="-790.2" x2="1355.8" y2="1535.4"/>
			
				<line fill="none" stroke="#000000" stroke-width="0.25" stroke-miterlimit="10" x1="1400.8" y1="-790.2" x2="1400.8" y2="1535.4"/>
		</g>
		<g clip-path="url(#SVGID_2_)">
			
				<line fill="none" stroke="#000000" stroke-width="0.25" stroke-miterlimit="10" x1="-1428.7" y1="843.5" x2="585.3" y2="2006.3"/>
			
				<line fill="none" stroke="#000000" stroke-width="0.25" stroke-miterlimit="10" x1="-1406.2" y1="804.5" x2="607.8" y2="1967.3"/>
			
				<line fill="none" stroke="#000000" stroke-width="0.25" stroke-miterlimit="10" x1="-1383.7" y1="765.5" x2="630.3" y2="1928.3"/>
			
				<line fill="none" stroke="#000000" stroke-width="0.25" stroke-miterlimit="10" x1="-1361.2" y1="726.5" x2="652.8" y2="1889.3"/>
			
				<line fill="none" stroke="#000000" stroke-width="0.25" stroke-miterlimit="10" x1="-1338.7" y1="687.6" x2="675.3" y2="1850.4"/>
			
				<line fill="none" stroke="#000000" stroke-width="0.25" stroke-miterlimit="10" x1="-1316.2" y1="648.6" x2="697.8" y2="1811.4"/>
			
				<line fill="none" stroke="#000000" stroke-width="0.25" stroke-miterlimit="10" x1="-1293.7" y1="609.6" x2="720.3" y2="1772.4"/>
			
				<line fill="none" stroke="#000000" stroke-width="0.25" stroke-miterlimit="10" x1="-1271.2" y1="570.7" x2="742.8" y2="1733.5"/>
			
				<line fill="none" stroke="#000000" stroke-width="0.25" stroke-miterlimit="10" x1="-1248.7" y1="531.7" x2="765.3" y2="1694.5"/>
			
				<line fill="none" stroke="#000000" stroke-width="0.25" stroke-miterlimit="10" x1="-1226.2" y1="492.7" x2="787.8" y2="1655.5"/>
			
				<line fill="none" stroke="#000000" stroke-width="0.25" stroke-miterlimit="10" x1="-1203.7" y1="453.8" x2="810.3" y2="1616.6"/>
			
				<line fill="none" stroke="#000000" stroke-width="0.25" stroke-miterlimit="10" x1="-1181.2" y1="414.8" x2="832.8" y2="1577.6"/>
			
				<line fill="none" stroke="#000000" stroke-width="0.25" stroke-miterlimit="10" x1="-1158.7" y1="375.8" x2="855.3" y2="1538.6"/>
			
				<line fill="none" stroke="#000000" stroke-width="0.25" stroke-miterlimit="10" x1="-1136.2" y1="336.8" x2="877.8" y2="1499.6"/>
			
				<line fill="none" stroke="#000000" stroke-width="0.25" stroke-miterlimit="10" x1="-1113.7" y1="297.9" x2="900.3" y2="1460.7"/>
			
				<line fill="none" stroke="#000000" stroke-width="0.25" stroke-miterlimit="10" x1="-1091.2" y1="258.9" x2="922.8" y2="1421.7"/>
			
				<line fill="none" stroke="#000000" stroke-width="0.25" stroke-miterlimit="10" x1="-1068.7" y1="219.9" x2="945.3" y2="1382.7"/>
			<line fill="none" stroke="#000000" stroke-width="0.25" stroke-miterlimit="10" x1="-1046.2" y1="181" x2="967.8" y2="1343.8"/>
			<line fill="none" stroke="#000000" stroke-width="0.25" stroke-miterlimit="10" x1="-1023.7" y1="142" x2="990.3" y2="1304.8"/>
			<line fill="none" stroke="#000000" stroke-width="0.25" stroke-miterlimit="10" x1="-1001.2" y1="103" x2="1012.8" y2="1265.8"/>
			<line fill="none" stroke="#000000" stroke-width="0.25" stroke-miterlimit="10" x1="-978.7" y1="64" x2="1035.3" y2="1226.8"/>
			<line fill="none" stroke="#000000" stroke-width="0.25" stroke-miterlimit="10" x1="-956.2" y1="25.1" x2="1057.8" y2="1187.9"/>
			
				<line fill="none" stroke="#000000" stroke-width="0.25" stroke-miterlimit="10" x1="-933.7" y1="-13.9" x2="1080.3" y2="1148.9"/>
			
				<line fill="none" stroke="#000000" stroke-width="0.25" stroke-miterlimit="10" x1="-911.2" y1="-52.9" x2="1102.8" y2="1109.9"/>
			<line fill="none" stroke="#000000" stroke-width="0.25" stroke-miterlimit="10" x1="-888.7" y1="-91.8" x2="1125.3" y2="1071"/>
			<line fill="none" stroke="#000000" stroke-width="0.25" stroke-miterlimit="10" x1="-866.2" y1="-130.8" x2="1147.8" y2="1032"/>
			<line fill="none" stroke="#000000" stroke-width="0.25" stroke-miterlimit="10" x1="-843.7" y1="-169.8" x2="1170.3" y2="993"/>
			<line fill="none" stroke="#000000" stroke-width="0.25" stroke-miterlimit="10" x1="-821.2" y1="-208.8" x2="1192.8" y2="954"/>
			
				<line fill="none" stroke="#000000" stroke-width="0.25" stroke-miterlimit="10" x1="-798.7" y1="-247.7" x2="1215.3" y2="915.1"/>
			
				<line fill="none" stroke="#000000" stroke-width="0.25" stroke-miterlimit="10" x1="-776.2" y1="-286.7" x2="1237.8" y2="876.1"/>
			
				<line fill="none" stroke="#000000" stroke-width="0.25" stroke-miterlimit="10" x1="-753.7" y1="-325.7" x2="1260.3" y2="837.1"/>
			
				<line fill="none" stroke="#000000" stroke-width="0.25" stroke-miterlimit="10" x1="-731.2" y1="-364.6" x2="1282.8" y2="798.2"/>
			
				<line fill="none" stroke="#000000" stroke-width="0.25" stroke-miterlimit="10" x1="-708.7" y1="-403.6" x2="1305.3" y2="759.2"/>
			
				<line fill="none" stroke="#000000" stroke-width="0.25" stroke-miterlimit="10" x1="-686.2" y1="-442.6" x2="1327.8" y2="720.2"/>
			
				<line fill="none" stroke="#000000" stroke-width="0.25" stroke-miterlimit="10" x1="-663.7" y1="-481.6" x2="1350.3" y2="681.2"/>
			
				<line fill="none" stroke="#000000" stroke-width="0.25" stroke-miterlimit="10" x1="-641.2" y1="-520.5" x2="1372.8" y2="642.3"/>
			
				<line fill="none" stroke="#000000" stroke-width="0.25" stroke-miterlimit="10" x1="-618.7" y1="-559.5" x2="1395.3" y2="603.3"/>
			
				<line fill="none" stroke="#000000" stroke-width="0.25" stroke-miterlimit="10" x1="-596.2" y1="-598.5" x2="1417.8" y2="564.3"/>
			
				<line fill="none" stroke="#000000" stroke-width="0.25" stroke-miterlimit="10" x1="-573.7" y1="-637.4" x2="1440.3" y2="525.4"/>
			
				<line fill="none" stroke="#000000" stroke-width="0.25" stroke-miterlimit="10" x1="-551.2" y1="-676.4" x2="1462.8" y2="486.4"/>
			
				<line fill="none" stroke="#000000" stroke-width="0.25" stroke-miterlimit="10" x1="-528.7" y1="-715.4" x2="1485.3" y2="447.4"/>
			
				<line fill="none" stroke="#000000" stroke-width="0.25" stroke-miterlimit="10" x1="-506.2" y1="-754.4" x2="1507.8" y2="408.4"/>
			
				<line fill="none" stroke="#000000" stroke-width="0.25" stroke-miterlimit="10" x1="-483.7" y1="-793.3" x2="1530.3" y2="369.5"/>
			
				<line fill="none" stroke="#000000" stroke-width="0.25" stroke-miterlimit="10" x1="-461.2" y1="-832.3" x2="1552.8" y2="330.5"/>
			
				<line fill="none" stroke="#000000" stroke-width="0.25" stroke-miterlimit="10" x1="-438.7" y1="-871.3" x2="1575.3" y2="291.5"/>
			
				<line fill="none" stroke="#000000" stroke-width="0.25" stroke-miterlimit="10" x1="-416.2" y1="-910.2" x2="1597.8" y2="252.6"/>
			
				<line fill="none" stroke="#000000" stroke-width="0.25" stroke-miterlimit="10" x1="-393.7" y1="-949.2" x2="1620.3" y2="213.6"/>
			
				<line fill="none" stroke="#000000" stroke-width="0.25" stroke-miterlimit="10" x1="-371.2" y1="-988.2" x2="1642.8" y2="174.6"/>
			
				<line fill="none" stroke="#000000" stroke-width="0.25" stroke-miterlimit="10" x1="-348.7" y1="-1027.2" x2="1665.3" y2="135.6"/>
			
				<line fill="none" stroke="#000000" stroke-width="0.25" stroke-miterlimit="10" x1="-326.2" y1="-1066.1" x2="1687.8" y2="96.7"/>
			
				<line fill="none" stroke="#000000" stroke-width="0.25" stroke-miterlimit="10" x1="-303.7" y1="-1105.1" x2="1710.3" y2="57.7"/>
			
				<line fill="none" stroke="#000000" stroke-width="0.25" stroke-miterlimit="10" x1="-281.2" y1="-1144.1" x2="1732.8" y2="18.7"/>
			<line fill="none" stroke="#000000" stroke-width="0.25" stroke-miterlimit="10" x1="-258.7" y1="-1183" x2="1755.3" y2="-20.2"/>
			<line fill="none" stroke="#000000" stroke-width="0.25" stroke-miterlimit="10" x1="-236.2" y1="-1222" x2="1777.8" y2="-59.2"/>
			<line fill="none" stroke="#000000" stroke-width="0.25" stroke-miterlimit="10" x1="-213.7" y1="-1261" x2="1800.3" y2="-98.2"/>
		</g>
		<g clip-path="url(#SVGID_2_)">
			
				<line fill="none" stroke="#000000" stroke-width="0.25" stroke-miterlimit="10" x1="1800.3" y1="843.5" x2="-213.7" y2="2006.3"/>
			
				<line fill="none" stroke="#000000" stroke-width="0.25" stroke-miterlimit="10" x1="1777.8" y1="804.5" x2="-236.2" y2="1967.3"/>
			
				<line fill="none" stroke="#000000" stroke-width="0.25" stroke-miterlimit="10" x1="1755.3" y1="765.5" x2="-258.7" y2="1928.3"/>
			
				<line fill="none" stroke="#000000" stroke-width="0.25" stroke-miterlimit="10" x1="1732.8" y1="726.5" x2="-281.2" y2="1889.3"/>
			
				<line fill="none" stroke="#000000" stroke-width="0.25" stroke-miterlimit="10" x1="1710.3" y1="687.6" x2="-303.7" y2="1850.4"/>
			
				<line fill="none" stroke="#000000" stroke-width="0.25" stroke-miterlimit="10" x1="1687.8" y1="648.6" x2="-326.2" y2="1811.4"/>
			
				<line fill="none" stroke="#000000" stroke-width="0.25" stroke-miterlimit="10" x1="1665.3" y1="609.6" x2="-348.7" y2="1772.4"/>
			
				<line fill="none" stroke="#000000" stroke-width="0.25" stroke-miterlimit="10" x1="1642.8" y1="570.7" x2="-371.2" y2="1733.5"/>
			
				<line fill="none" stroke="#000000" stroke-width="0.25" stroke-miterlimit="10" x1="1620.3" y1="531.7" x2="-393.7" y2="1694.5"/>
			
				<line fill="none" stroke="#000000" stroke-width="0.25" stroke-miterlimit="10" x1="1597.8" y1="492.7" x2="-416.2" y2="1655.5"/>
			
				<line fill="none" stroke="#000000" stroke-width="0.25" stroke-miterlimit="10" x1="1575.3" y1="453.8" x2="-438.7" y2="1616.6"/>
			
				<line fill="none" stroke="#000000" stroke-width="0.25" stroke-miterlimit="10" x1="1552.8" y1="414.8" x2="-461.2" y2="1577.6"/>
			
				<line fill="none" stroke="#000000" stroke-width="0.25" stroke-miterlimit="10" x1="1530.3" y1="375.8" x2="-483.7" y2="1538.6"/>
			
				<line fill="none" stroke="#000000" stroke-width="0.25" stroke-miterlimit="10" x1="1507.8" y1="336.8" x2="-506.2" y2="1499.6"/>
			
				<line fill="none" stroke="#000000" stroke-width="0.25" stroke-miterlimit="10" x1="1485.3" y1="297.9" x2="-528.7" y2="1460.7"/>
			
				<line fill="none" stroke="#000000" stroke-width="0.25" stroke-miterlimit="10" x1="1462.8" y1="258.9" x2="-551.2" y2="1421.7"/>
			
				<line fill="none" stroke="#000000" stroke-width="0.25" stroke-miterlimit="10" x1="1440.3" y1="219.9" x2="-573.7" y2="1382.7"/>
			<line fill="none" stroke="#000000" stroke-width="0.25" stroke-miterlimit="10" x1="1417.8" y1="181" x2="-596.2" y2="1343.8"/>
			<line fill="none" stroke="#000000" stroke-width="0.25" stroke-miterlimit="10" x1="1395.3" y1="142" x2="-618.7" y2="1304.8"/>
			<line fill="none" stroke="#000000" stroke-width="0.25" stroke-miterlimit="10" x1="1372.8" y1="103" x2="-641.2" y2="1265.8"/>
			<line fill="none" stroke="#000000" stroke-width="0.25" stroke-miterlimit="10" x1="1350.3" y1="64" x2="-663.7" y2="1226.8"/>
			<line fill="none" stroke="#000000" stroke-width="0.25" stroke-miterlimit="10" x1="1327.8" y1="25.1" x2="-686.2" y2="1187.9"/>
			
				<line fill="none" stroke="#000000" stroke-width="0.25" stroke-miterlimit="10" x1="1305.3" y1="-13.9" x2="-708.7" y2="1148.9"/>
			
				<line fill="none" stroke="#000000" stroke-width="0.25" stroke-miterlimit="10" x1="1282.8" y1="-52.9" x2="-731.2" y2="1109.9"/>
			<line fill="none" stroke="#000000" stroke-width="0.25" stroke-miterlimit="10" x1="1260.3" y1="-91.8" x2="-753.7" y2="1071"/>
			<line fill="none" stroke="#000000" stroke-width="0.25" stroke-miterlimit="10" x1="1237.8" y1="-130.8" x2="-776.2" y2="1032"/>
			<line fill="none" stroke="#000000" stroke-width="0.25" stroke-miterlimit="10" x1="1215.3" y1="-169.8" x2="-798.7" y2="993"/>
			<line fill="none" stroke="#000000" stroke-width="0.25" stroke-miterlimit="10" x1="1192.8" y1="-208.8" x2="-821.2" y2="954"/>
			
				<line fill="none" stroke="#000000" stroke-width="0.25" stroke-miterlimit="10" x1="1170.3" y1="-247.7" x2="-843.7" y2="915.1"/>
			
				<line fill="none" stroke="#000000" stroke-width="0.25" stroke-miterlimit="10" x1="1147.8" y1="-286.7" x2="-866.2" y2="876.1"/>
			
				<line fill="none" stroke="#000000" stroke-width="0.25" stroke-miterlimit="10" x1="1125.3" y1="-325.7" x2="-888.7" y2="837.1"/>
			
				<line fill="none" stroke="#000000" stroke-width="0.25" stroke-miterlimit="10" x1="1102.8" y1="-364.6" x2="-911.2" y2="798.2"/>
			
				<line fill="none" stroke="#000000" stroke-width="0.25" stroke-miterlimit="10" x1="1080.3" y1="-403.6" x2="-933.7" y2="759.2"/>
			
				<line fill="none" stroke="#000000" stroke-width="0.25" stroke-miterlimit="10" x1="1057.8" y1="-442.6" x2="-956.2" y2="720.2"/>
			
				<line fill="none" stroke="#000000" stroke-width="0.25" stroke-miterlimit="10" x1="1035.3" y1="-481.6" x2="-978.7" y2="681.2"/>
			
				<line fill="none" stroke="#000000" stroke-width="0.25" stroke-miterlimit="10" x1="1012.8" y1="-520.5" x2="-1001.2" y2="642.3"/>
			
				<line fill="none" stroke="#000000" stroke-width="0.25" stroke-miterlimit="10" x1="990.3" y1="-559.5" x2="-1023.7" y2="603.3"/>
			
				<line fill="none" stroke="#000000" stroke-width="0.25" stroke-miterlimit="10" x1="967.8" y1="-598.5" x2="-1046.2" y2="564.3"/>
			
				<line fill="none" stroke="#000000" stroke-width="0.25" stroke-miterlimit="10" x1="945.3" y1="-637.4" x2="-1068.7" y2="525.4"/>
			
				<line fill="none" stroke="#000000" stroke-width="0.25" stroke-miterlimit="10" x1="922.8" y1="-676.4" x2="-1091.2" y2="486.4"/>
			
				<line fill="none" stroke="#000000" stroke-width="0.25" stroke-miterlimit="10" x1="900.3" y1="-715.4" x2="-1113.7" y2="447.4"/>
			
				<line fill="none" stroke="#000000" stroke-width="0.25" stroke-miterlimit="10" x1="877.8" y1="-754.4" x2="-1136.2" y2="408.4"/>
			
				<line fill="none" stroke="#000000" stroke-width="0.25" stroke-miterlimit="10" x1="855.3" y1="-793.3" x2="-1158.7" y2="369.5"/>
			
				<line fill="none" stroke="#000000" stroke-width="0.25" stroke-miterlimit="10" x1="832.8" y1="-832.3" x2="-1181.2" y2="330.5"/>
			
				<line fill="none" stroke="#000000" stroke-width="0.25" stroke-miterlimit="10" x1="810.3" y1="-871.3" x2="-1203.7" y2="291.5"/>
			
				<line fill="none" stroke="#000000" stroke-width="0.25" stroke-miterlimit="10" x1="787.8" y1="-910.2" x2="-1226.2" y2="252.6"/>
			
				<line fill="none" stroke="#000000" stroke-width="0.25" stroke-miterlimit="10" x1="765.3" y1="-949.2" x2="-1248.7" y2="213.6"/>
			
				<line fill="none" stroke="#000000" stroke-width="0.25" stroke-miterlimit="10" x1="742.8" y1="-988.2" x2="-1271.2" y2="174.6"/>
			
				<line fill="none" stroke="#000000" stroke-width="0.25" stroke-miterlimit="10" x1="720.3" y1="-1027.2" x2="-1293.7" y2="135.6"/>
			
				<line fill="none" stroke="#000000" stroke-width="0.25" stroke-miterlimit="10" x1="697.8" y1="-1066.1" x2="-1316.2" y2="96.7"/>
			
				<line fill="none" stroke="#000000" stroke-width="0.25" stroke-miterlimit="10" x1="675.3" y1="-1105.1" x2="-1338.7" y2="57.7"/>
			
				<line fill="none" stroke="#000000" stroke-width="0.25" stroke-miterlimit="10" x1="652.8" y1="-1144.1" x2="-1361.2" y2="18.7"/>
			<line fill="none" stroke="#000000" stroke-width="0.25" stroke-miterlimit="10" x1="630.3" y1="-1183" x2="-1383.7" y2="-20.2"/>
			<line fill="none" stroke="#000000" stroke-width="0.25" stroke-miterlimit="10" x1="607.8" y1="-1222" x2="-1406.2" y2="-59.2"/>
			<line fill="none" stroke="#000000" stroke-width="0.25" stroke-miterlimit="10" x1="585.3" y1="-1261" x2="-1428.7" y2="-98.2"/>
		</g>
	</g>
</g>
<g id="BASE-_interoperable" display="none">
	<path display="inline" fill="none" d="M110.1,210.2l0.2-34.4l-25.8-15.3l0.2,65.7l56.1,32.7l0-30.4l-30.1-17.5
		C110.3,210.9,110.1,210.6,110.1,210.2z"/>
	<path display="inline" fill="none" d="M204.1,156.9C204.1,156.9,204.1,156.9,204.1,156.9C204.1,156.9,204.1,156.9,204.1,156.9
		L204.1,156.9C204.2,156.9,204.2,157,204.1,156.9c0.1,0.1,0.2,0.1,0.2,0.2c0,0,0,0.1,0.1,0.1c0,0,0.1,0.1,0.1,0.1c0,0,0,0.1,0,0.1
		c0,0,0,0.1,0,0.1c0,0,0,0.1,0,0.1c0,0,0,0.1,0,0.1v0v35.8l24.4,14.3l-0.1-65.1l-56.2-33.3l0.1,29.1L204.1,156.9z"/>
	<g display="inline">
		<polygon fill="#B0F2DC" points="263.4,124.2 263.4,124.2 263.1,227.6 262.9,296.1 291,279.8 291,108.4 291,108.4 		"/>
		<polygon fill="#B0F2DC" points="142.5,91.4 142.4,120.5 170.9,137.3 170.8,108.2 		"/>
		<polygon fill="#B0F2DC" points="175,175.2 174.9,176.2 174.9,177.4 174.9,178.6 174.9,212 174.9,212 174.9,213.2 174.8,214.3 
			174.8,219.9 174.8,246.1 174.8,247.2 174.8,248.4 174.5,347.2 202.6,330.9 202.6,264.6 202.6,263.4 202.6,262.2 202.6,230.5 
			202.6,229.3 202.6,228.2 202.6,228.2 202.6,194.7 202.6,193.6 202.6,192.4 202.6,159.5 202.6,159.5 175,175.2 		"/>
		<polygon fill="#B0F2DC" points="54.1,142.5 53.6,242.8 82.6,226.2 82.4,159.3 		"/>
	</g>
	<g display="inline">
		<path fill="#32CB87" d="M293,106.6c0,0,0-0.1,0-0.1c0,0,0-0.1,0-0.1c0,0,0-0.1,0-0.1c0,0-0.1-0.1-0.1-0.1c0,0,0-0.1-0.1-0.1
			c0,0-0.1-0.1-0.1-0.1c0,0-0.1-0.1-0.1-0.1l0,0c0,0,0,0,0,0c0,0,0,0,0,0L143.1,17.6c-0.3-0.2-0.7-0.2-1,0l-30.7,18.2
			c0,0-0.1,0.1-0.1,0.1c0,0-0.1,0-0.1,0.1c0,0-0.1,0.1-0.1,0.1c0,0,0,0.1-0.1,0.1c0,0,0,0.1-0.1,0.1c0,0,0,0.1,0,0.1
			c0,0,0,0.1,0,0.1c0,0,0,0.1,0,0.1l-0.3,65l-55.9-33c-0.3-0.2-0.7-0.2-1,0L22.9,86.9c0,0-0.1,0.1-0.1,0.1c0,0-0.1,0-0.1,0.1
			c0,0-0.1,0.1-0.1,0.1c0,0,0,0.1-0.1,0.1c0,0,0,0.1-0.1,0.1c0,0,0,0.1,0,0.1c0,0,0,0.1,0,0.1c0,0,0,0.1,0,0.1l-0.8,173.6
			c0,0.4,0.2,0.7,0.5,0.9L173,349.8c0,0,0,0,0,0c0,0,0,0,0,0c0,0,0.1,0,0.1,0c0.1,0.1,0.3,0.1,0.4,0.1c0.2,0,0.3,0,0.5-0.1
			l30.2-17.4c0.3-0.2,0.5-0.5,0.5-0.9v-65.8l56.8,33c0,0,0,0,0,0c0,0,0,0,0,0c0,0,0,0,0.1,0c0.1,0.1,0.3,0.1,0.5,0.1
			c0.1,0,0.3,0,0.4-0.1c0,0,0,0,0.1,0c0,0,0,0,0,0c0,0,0,0,0,0l30.2-17.4c0.3-0.2,0.5-0.5,0.5-0.9V106.7v0
			C293.1,106.7,293,106.6,293,106.6z M291,108.4v171.4l-28.1,16.2l0.2-68.5l0.3-103.4v0L291,108.4L291,108.4z M202.6,264.6v66.3
			l-28.1,16.2l0.3-98.8l0-1.2l0-1.2l0.1-26.1l0-5.6l0-1.2l0-1.2v0l0.1-33.4l0-1.2l0-1.2l0-1v0l27.7-15.7v0v32.9v1.2v1.2v33.4v0v1.2
			v1.2v31.7v1.2V264.6z M110.5,104l1,0.6l1,0.6l27.8,16.4l1,0.6l1,0.6l0,0l28.5,16.8l1,0.6l1,0.6l28.7,16.9l-11.9,6.8l-15.8,9
			l-1-0.5l-1-0.6l-1-0.6l-28.8-16.6l0,0l-1-0.6l-1-0.6L112.4,138l-1-0.6l-1-0.6l-85-49.1l28.8-17L110.5,104z M290,106.7l-10.3,5.9
			l-17.3,9.9L113.8,36.7l28.8-17L290,106.7z M24.4,89.5L24.4,89.5l56.9,32.9l1,0.6l1,0.5l1,0.6l26.1,15.1l1,0.6l1,0.6l27.8,16.1
			l1,0.6l1,0.6l0,0l28.8,16.6l1,0.6l0,0l0.9,0.5l0,0v0l0,0.8l0,0.2l0,1.2l-0.1,33.5v0l0,1.2l0,1.2l0,7.3l-0.1,24.5l0,1.2l0,1.2
			l-0.1,30.4l0,1.2l0,0.9l0,1.1l-0.2,66.3L23.7,260.7L24.4,89.5z M229.1,243.6l-24.5-14.2v-33.4l24.4,14.3L229.1,243.6z
			 M204.6,193.6v-35.8v0c0,0,0-0.1,0-0.1c0,0,0-0.1,0-0.1c0,0,0-0.1,0-0.1c0,0,0-0.1,0-0.1c0,0-0.1-0.1-0.1-0.1c0,0,0-0.1-0.1-0.1
			c0,0-0.1-0.1-0.1-0.1c0,0-0.1-0.1-0.1-0.1l0,0c0,0,0,0,0,0c0,0,0,0,0,0l-31.2-18.4l-0.1-29.1l56.2,33.3l0.1,65.1L204.6,193.6z
			 M170.9,137.3l-28.5-16.8l0.1-29l28.3,16.8L170.9,137.3z M204.6,231.7l25,14.5c0.2,0.1,0.3,0.1,0.5,0.1c0.1,0,0.2,0,0.3,0
			c0,0,0.1,0,0.1,0c0.1,0,0.1,0,0.2-0.1c0.3-0.2,0.5-0.5,0.5-0.9l0-0.5l0-1.1l0-32.3l0-1.2l0-1.2l-0.1-66.8c0-0.4-0.2-0.7-0.5-0.9
			l-57.7-34.2l-1-0.6l-1-0.6l-27.3-16.2l-1-0.6l-0.5-0.3c-0.3-0.2-0.7-0.2-1,0c0,0-0.1,0.1-0.1,0.1c0,0-0.1,0-0.1,0.1
			c0,0-0.1,0.1-0.1,0.1c0,0,0,0.1-0.1,0.1c0,0.1,0,0.1-0.1,0.2c0,0,0,0,0,0.1c0,0.1,0,0.2,0,0.3l-0.1,29.6l-27.8-16.4l0.3-64.5v0
			l46.6,26.9l10.3,6l1,0.6l1,0.5l1,0.6l88.6,51.2l-0.3,101.7l0,0.7l0,1.2l0,0.9l0,1.1l-0.2,66.3l0,0l-56.3-32.7V231.7z"/>
		<path fill="#32CB87" d="M142.7,294.7l0-32.3l0-1.2l0-1.2l0-30.4l0-1.2l0-1.2l0-31.8l0-1.2l0-0.7l0-0.5c0,0,0,0,0,0
			c0-0.2-0.1-0.4-0.2-0.5c-0.1-0.1-0.2-0.2-0.3-0.3l-0.1,0l-0.5-0.3l-0.5-0.3l-1-0.6l-27.8-16.5l-1-0.6l-1-0.6l-25.8-15.3l-1-0.6
			l-1-0.6l-27.3-16.2l-1-0.6l-0.5-0.3c-0.3-0.2-0.7-0.2-1,0c0,0-0.1,0.1-0.1,0.1c0,0-0.1,0-0.1,0.1c0,0-0.1,0.1-0.1,0.1
			c0,0,0,0.1-0.1,0.1c0,0.1,0,0.1-0.1,0.2c0,0,0,0,0,0.1c0,0.1,0,0.2,0,0.3l-0.5,103.8c0,0,0,0,0,0c0,0,0,0.1,0,0.1c0,0,0,0.1,0,0.1
			c0,0.1,0,0.1,0.1,0.2c0,0,0,0.1,0,0.1c0.1,0.2,0.2,0.3,0.4,0.4l89.1,51.8c0.2,0.1,0.3,0.1,0.5,0.1c0.1,0,0.2,0,0.3,0
			c0,0,0.1,0,0.1,0c0.1,0,0.1,0,0.2-0.1c0.3-0.2,0.5-0.5,0.5-0.9l0-0.5L142.7,294.7z M110.2,175.8l-0.2,34.4c0,0.4,0.2,0.7,0.5,0.9
			l30.1,17.5l0,30.4l-56.1-32.7l-0.2-65.7L110.2,175.8z M140,193.5L140,193.5c0,0.1,0,0.1,0,0.2c0,0,0,0,0,0.1
			c0.1,0.3,0.2,0.5,0.5,0.6l0.1,0l0,31.8l-28.5-16.6l0.1-32.6L140,193.5z M140.7,294.7l-41.5-24.1l-44.6-26l29-16.7l57.1,33.3
			L140.7,294.7z M82.6,226.2l-29,16.7l0.5-100.3l28.3,16.8L82.6,226.2z"/>
	</g>
</g>
<g id="Compatible">
	<path fill="none" d="M204.2,156.9c0,0,0.1,0.1,0.1,0.1c0,0,0.1,0,0.1,0.1c0,0,0.1,0.1,0.1,0.1c0,0,0,0.1,0.1,0.1c0,0,0,0.1,0.1,0.1
		c0,0,0,0.1,0,0.1c0,0,0,0.1,0,0.1c0,0,0,0.1,0,0.1v0v35.8l24.4,14.3l-0.1-65.1l-25.1-14.9l-24.6,14.3L204.2,156.9z"/>
	<path fill="none" d="M110.1,210.2l0.2-34.4l-25.8-15.3l0.2,65.7l56.1,32.7l0-30.4l-30.1-17.5C110.3,210.9,110.1,210.6,110.1,210.2z
		"/>
	<g>
		<polygon fill="#B0F2DC" points="263.4,124.2 263.1,227.6 262.9,296.1 291,279.8 291,108.4 		"/>
		<polygon fill="#B0F2DC" points="175,175.2 174.9,176.2 174.9,177.4 174.9,178.6 174.9,212 174.9,212 174.9,213.2 174.8,214.3 
			174.8,219.9 174.8,246.1 174.8,247.2 174.8,248.4 174.5,347.2 202.6,330.9 202.6,264.6 202.6,263.4 202.6,262.2 202.6,230.5 
			202.6,229.3 202.6,228.2 202.6,228.2 202.6,194.7 202.6,193.6 202.6,192.4 202.6,159.5 197.7,162.3 		"/>
		<polygon fill="#B0F2DC" points="54.1,142.5 53.6,242.8 82.6,226.2 82.4,159.3 		"/>
		<polygon fill="#B0F2DC" points="174.3,109.1 173.4,109.7 172.8,110.1 171.8,110.7 170.8,111.3 149.5,124.4 149.4,124.4 
			170.9,137.7 171.9,138.4 172.9,139 176.7,141.3 177.3,141 201.9,126.7 202.7,126.2 202.7,126 202.7,124.8 202.9,91.7 175.3,108.6 
					"/>
	</g>
	<g>
		<path fill="#32CB87" d="M293,106.6c0,0,0-0.1,0-0.1c0,0,0-0.1,0-0.1c0,0,0-0.1,0-0.1c0,0-0.1-0.1-0.1-0.1c0,0,0-0.1-0.1-0.1
			c0,0-0.1-0.1-0.1-0.1c0,0-0.1-0.1-0.1-0.1l0,0c0,0,0,0,0,0c0,0,0,0,0,0L143.1,17.6c-0.3-0.2-0.7-0.2-1,0l-30.7,18.2
			c0,0-0.1,0.1-0.1,0.1c0,0-0.1,0-0.1,0.1c0,0-0.1,0.1-0.1,0.1c0,0,0,0.1-0.1,0.1c0,0,0,0.1-0.1,0.1c0,0,0,0.1,0,0.1
			c0,0,0,0.1,0,0.1c0,0,0,0.1,0,0.1l-0.3,65.4L54.7,68.7c-0.3-0.2-0.7-0.2-1,0L22.9,86.9c0,0-0.1,0.1-0.1,0.1c0,0-0.1,0-0.1,0.1
			c0,0-0.1,0.1-0.1,0.1c0,0,0,0.1-0.1,0.1c0,0,0,0.1-0.1,0.1c0,0,0,0.1,0,0.1c0,0,0,0.1,0,0.1c0,0,0,0.1,0,0.1l-0.8,173.6
			c0,0.4,0.2,0.7,0.5,0.9L173,349.8c0,0,0,0,0,0c0,0,0,0,0,0c0,0,0.1,0,0.1,0c0.1,0.1,0.3,0.1,0.4,0.1c0.2,0,0.3,0,0.5-0.1
			l30.2-17.4c0.3-0.2,0.5-0.5,0.5-0.9v-65.8l56.8,33c0,0,0,0,0,0c0,0,0,0,0,0c0,0,0,0,0.1,0c0.1,0.1,0.3,0.1,0.5,0.1
			c0.1,0,0.3,0,0.4-0.1c0,0,0,0,0.1,0c0,0,0,0,0,0c0,0,0,0,0,0l30.2-17.4c0.3-0.2,0.5-0.5,0.5-0.9V106.7v0
			C293.1,106.7,293,106.6,293,106.6z M291,279.8l-28.1,16.2l0.2-68.5l0.3-103.4l27.7-15.7V279.8z M202.6,264.6v66.3l-28.1,16.2
			l0.3-98.8l0-1.2l0-1.2l0.1-26.1l0-5.6l0-1.2l0-1.2v0l0.1-33.4l0-1.2l0-1.2l0-1l22.8-12.9l4.9-2.8v32.9v1.2v1.2v33.4v0v1.2v1.2
			v31.7v1.2V264.6z M25.4,87.8l28.7-17l56.4,33.7l1,0.6l1,0.6l1.4,0.8c0.3,0.2,0.7,0.2,1,0l25.6-15.3l1-0.6l0.7-0.4l1-0.6l28.5-17.1
			l0,0l0.5-0.3c0.2-0.1,0.3-0.2,0.4-0.4c0.1-0.1,0.1-0.3,0.1-0.5c0,0,0,0,0,0c0-0.1,0-0.2,0-0.2c0,0,0,0,0,0c0-0.1-0.1-0.2-0.1-0.2
			c0,0,0,0,0-0.1c0-0.1-0.1-0.1-0.1-0.1c0,0-0.1,0-0.1-0.1c0,0-0.1-0.1-0.1-0.1l-58.4-33.7l0,0l28.8-17l147.5,87l-10.3,5.9
			l-17.3,9.9l0,0l0,0l-42.2-24.3L204.4,89c0,0,0,0,0,0c0,0,0,0,0,0c0,0,0,0,0,0c0,0-0.1,0-0.1,0c-0.1,0-0.1,0-0.2-0.1
			c0,0-0.1,0-0.1,0c-0.2,0-0.5,0-0.7,0.1l-0.5,0.3l-1,0.6l-28.6,17.5l-0.5,0.3l-0.4,0.3l-0.6,0.3l-0.4,0.2l-0.6,0.4L147,123.5
			c-0.1,0-0.1,0.1-0.2,0.2c0,0,0,0,0,0.1c0,0-0.1,0.1-0.1,0.1c0,0,0,0.1,0,0.1c0,0,0,0.1-0.1,0.1c0,0,0,0.1,0,0.1c0,0,0,0.1,0,0.1
			c0,0,0,0,0,0s0,0,0,0c0,0,0,0.1,0,0.1c0,0,0,0.1,0,0.1c0,0,0,0.1,0,0.1c0,0,0,0.1,0.1,0.1c0,0,0,0.1,0.1,0.1c0,0,0.1,0.1,0.1,0.1
			c0,0,0.1,0.1,0.1,0.1c0,0,0.1,0.1,0.1,0.1l23.9,14.9l1,0.6l1,0.6l3.2,2c0.2,0.1,0.3,0.2,0.5,0.2c0.2,0,0.3,0,0.5-0.1l0.2-0.1
			l24.3,14.5l0,0l-14.4,8.2l-13.3,7.5l-1-0.5l-1-0.6l-1-0.6l-28.8-16.6l0,0l-1-0.6l-1-0.6L112.4,138l-1-0.6l-1-0.6l-23.8-13.7
			L25.4,87.8L25.4,87.8z M112.8,38.4l56.9,32.9l-55.3,33.2l-1.9-1.1L112.8,38.4z M24.4,89.5L53,106l28.4,16.4l1,0.6l1,0.5l1,0.6
			l26.1,15.1l1,0.6l1,0.6l27.8,16.1l1,0.6l1,0.6l0,0l28.8,16.6l1,0.6l0,0l0.9,0.5l0,0l0,0.8l0,0.2l0,1.2l-0.1,33.5v0l0,1.2l0,1.2
			l0,7.3l-0.1,24.5l0,1.2l0,1.2l-0.1,30.4l0,1.2l0,0.9l0,1.1l-0.2,66.3L23.7,260.7L24.4,89.5z M229.1,243.6l-24.5-14.2v-33.4
			l24.4,14.3L229.1,243.6z M204.6,193.6v-35.8v0c0,0,0-0.1,0-0.1c0,0,0-0.1,0-0.1c0,0,0-0.1,0-0.1c0,0,0-0.1-0.1-0.1
			c0,0,0-0.1-0.1-0.1c0,0-0.1-0.1-0.1-0.1c0,0-0.1,0-0.1-0.1c0,0-0.1-0.1-0.1-0.1l-24.9-14.8l24.6-14.3l25.1,14.9l0.1,65.1
			L204.6,193.6z M202.7,124.8l0,1.2l0,0.2l-0.8,0.5L177.3,141l-0.7,0.4l-3.8-2.3l-1-0.6l-1-0.6l-21.5-13.3l0,0l21.4-13.1l1-0.6
			l1-0.6l0.5-0.3l1-0.6l1-0.6l27.6-16.9L202.7,124.8z M204.6,231.7l25,14.5c0.2,0.1,0.3,0.1,0.5,0.1c0.1,0,0.2,0,0.3,0
			c0,0,0.1,0,0.1,0c0.1,0,0.1,0,0.2-0.1c0.3-0.2,0.5-0.5,0.5-0.9l0-0.5l0-1.1l0-32.3l0-1.2l0-1.2l-0.1-66.8c0-0.4-0.2-0.7-0.5-0.9
			L204.7,126l0.2-34.4l56.4,32.6l-0.3,101.7l0,0.7l0,1.2l0,0.9l0,1.1l-0.2,66.3l0,0l-56.3-32.7V231.7z"/>
		<path fill="#32CB87" d="M142.7,294.7l0-32.3l0-1.2l0-1.2l0-30.4l0-1.2l0-1.2l0-31.8l0-1.2l0-0.7l0-0.5c0,0,0,0,0,0
			c0-0.2-0.1-0.4-0.2-0.5c-0.1-0.1-0.2-0.2-0.3-0.3l-0.1,0l-0.5-0.3l-0.5-0.3l-1-0.6l-27.8-16.5l-1-0.6l-1-0.6l-25.8-15.3l-1-0.6
			l-1-0.6l-27.3-16.2l-1-0.6l-0.5-0.3c-0.3-0.2-0.7-0.2-1,0c0,0-0.1,0.1-0.1,0.1c0,0-0.1,0-0.1,0.1c0,0-0.1,0.1-0.1,0.1
			c0,0,0,0.1-0.1,0.1c0,0.1,0,0.1-0.1,0.2c0,0,0,0,0,0.1c0,0.1,0,0.2,0,0.3l-0.5,103.8c0,0,0,0,0,0c0,0,0,0.1,0,0.1c0,0,0,0.1,0,0.1
			c0,0.1,0,0.1,0.1,0.2c0,0,0,0.1,0,0.1c0.1,0.2,0.2,0.3,0.4,0.4l89.1,51.8c0.2,0.1,0.3,0.1,0.5,0.1c0.1,0,0.2,0,0.3,0
			c0,0,0.1,0,0.1,0c0.1,0,0.1,0,0.2-0.1c0.3-0.2,0.5-0.5,0.5-0.9l0-0.5L142.7,294.7z M110.2,175.8l-0.2,34.4c0,0.4,0.2,0.7,0.5,0.9
			l30.1,17.5l0,30.4l-56.1-32.7l-0.2-65.7L110.2,175.8z M140,193.5L140,193.5c0,0.1,0,0.1,0,0.2c0,0,0,0,0,0.1
			c0.1,0.3,0.2,0.5,0.5,0.6l0.1,0l0,31.8l-28.5-16.6l0.1-32.6L140,193.5z M140.7,294.7l-41.5-24.1l-44.6-26l29-16.7l57.1,33.3
			L140.7,294.7z M82.6,226.2l-29,16.7l0.5-100.3l28.3,16.8L82.6,226.2z"/>
	</g>
</g>
<g id="Secure" display="none">
	<polygon display="inline" fill="none" points="238.7,74.1 238.7,73.2 237.9,73.6 	"/>
	<path display="inline" fill="none" d="M140.6,228.6l-30.1-17.5c-0.3-0.2-0.5-0.5-0.5-0.9l0.2-34.4l-17.7-10.5l-8.1,4.7l0.2,56.1
		l50.1,29.2l6-3.5L140.6,228.6z"/>
	<path display="inline" fill="none" d="M174.4,110.3l-1.5,0.9l0.1,27.3l31.2,18.4c0,0,0,0,0,0c0,0,0,0,0,0l0,0c0,0,0.1,0,0.1,0.1
		c0,0,0.1,0.1,0.1,0.1c0,0,0,0.1,0.1,0.1c0,0,0.1,0.1,0.1,0.1c0,0,0,0.1,0,0.1c0,0,0,0.1,0,0.1c0,0,0,0.1,0,0.1c0,0,0,0.1,0,0.1v0
		v35.8l20.4,11.9l4-2.3l-0.1-60.4L174.4,110.3z"/>
	<polygon display="inline" fill="none" points="293.1,164.4 293.1,166.2 294.6,165.4 	"/>
	<g display="inline">
		<polygon fill="#B0F2DC" points="84.4,167.7 90.6,164.2 84.4,160.5 		"/>
		<polygon fill="#B0F2DC" points="22.1,172.7 22.1,172.2 21.6,172.4 		"/>
		<polygon fill="#B0F2DC" points="291,108.4 291,108.4 263.4,124.2 263.4,124.2 263.2,183.5 291,167.4 		"/>
		<polygon fill="#B0F2DC" points="263.1,227.6 262.9,296.1 291,279.8 291,203.4 263.1,219.6 		"/>
		<polygon fill="#B0F2DC" points="142.5,91.6 142.6,91.5 142.5,91.4 		"/>
		<polygon fill="#B0F2DC" points="149.5,124.7 170.9,137.3 170.8,112.4 		"/>
		<polygon fill="#B0F2DC" points="192.2,224.5 192.7,224.2 193.3,223.9 193.7,223.6 194.3,223.3 194.3,223.3 202.6,218.5 
			202.6,194.7 202.6,193.6 202.6,192.4 202.6,159.5 202.6,159.5 175,175.2 175,175.2 174.9,176.2 174.9,177.4 174.9,178.6 
			174.9,212 174.9,212 174.9,213.2 174.8,214.3 174.8,219.9 174.8,232.2 174.8,233.4 174.8,234 175.3,234.2 		"/>
		<path fill="#B0F2DC" d="M195.2,259.1l-1,0.6l-18.5,10.7c0,0,0,0,0,0c0,0,0,0,0,0c-0.2,0.1-0.3,0.1-0.5,0.1c-0.1,0-0.2,0-0.3,0
			c0,0,0,0-0.1,0c-0.1,0-0.1,0-0.2-0.1l-0.1,0l-0.2,76.8l28.1-16.2v-66.3v-1.2v-1.2v-7.4l-6.4,3.7L195.2,259.1z"/>
		<polygon fill="#B0F2DC" points="82.4,170.1 82.4,168.9 82.4,159.3 63.7,148.2 62.7,147.6 61.7,147 54.1,142.5 54.1,151.4 
			54.1,152.6 54.1,153.7 53.9,185.5 53.9,186.6 53.9,187.8 53.6,242.8 82.6,226.2 82.4,171.2 		"/>
		<polygon fill="#B0F2DC" points="293.1,168.6 292.1,169.2 291,169.7 263.2,185.8 263.2,185.8 262.2,186.4 261.2,187 261.2,187 
			231.1,204.3 230.1,204.9 229.1,205.5 227.1,206.7 226.1,207.2 225.1,207.8 204.6,219.6 203.6,220.2 202.6,220.8 196.3,224.5 
			196.3,224.5 195.7,224.8 195.3,225 194.7,225.4 194.2,225.6 193.7,226 176.3,236 176.3,246.9 176.3,248.1 176.3,249.3 
			176.3,266.2 176.3,267.4 176.3,267.8 192.2,258.5 193.2,257.9 194.2,257.4 202.6,252.5 203.6,251.9 204.6,251.3 221.5,241.5 
			222.5,240.9 222.8,240.8 223.5,240.3 223.5,240.3 229.1,237.1 230.1,236.5 231.1,235.9 252.2,223.7 253.2,223.1 254.2,222.5 
			261.1,218.5 261.1,218.5 262.1,217.9 263.1,217.3 263.1,217.3 291,201.1 292.1,200.5 293.1,199.9 295.5,198.5 295.5,167.2 		"/>
	</g>
	<g display="inline">
		<path fill="#32CB87" d="M142.7,294.7l0-6.8l0-1.2l0-1.2l0-23.1l0-1.2l0-1.2l0-7l0-1.2l0-1.2l0-21.1l0-1.2l0-1.2l0-31.8l0-1.2
			l0-0.7l0-0.5c0,0,0,0,0,0c0-0.2-0.1-0.4-0.2-0.5c-0.1-0.1-0.2-0.2-0.3-0.3l-0.1,0l-0.5-0.3l-0.5-0.3l-1-0.6l-27.8-16.5l-1-0.6
			l-1-0.6l-15.7-9.3l-1-0.6l-1-0.6l-8.2-4.8l-1-0.6l-1-0.6L65.6,147l-1-0.6l-1-0.6l-8.6-5.1l-1-0.6l-0.5-0.3c-0.3-0.2-0.7-0.2-1,0
			c0,0-0.1,0.1-0.1,0.1c0,0-0.1,0-0.1,0.1c0,0-0.1,0.1-0.1,0.1c0,0,0,0.1-0.1,0.1c0,0.1,0,0.1-0.1,0.2c0,0,0,0,0,0.1
			c0,0.1,0,0.2,0,0.3l-0.1,11.8l0,1.2l0,1.2l-0.2,31.8l0,1.2l0,1.2l-0.3,55.6c0,0,0,0,0,0c0,0,0,0.1,0,0.1c0,0,0,0.1,0,0.1
			c0,0.1,0,0.1,0.1,0.2c0,0,0,0.1,0,0.1c0.1,0.2,0.2,0.3,0.4,0.4l49.7,28.9l1,0.6l1,0.6l28,16.3l1,0.6l1,0.6l7.3,4.3
			c0.2,0.1,0.3,0.1,0.5,0.1c0.1,0,0.2,0,0.3,0c0,0,0.1,0,0.1,0c0.1,0,0.1,0,0.2-0.1c0.3-0.2,0.5-0.5,0.5-0.9l0-0.5L142.7,294.7z
			 M103.8,273.2l-4.6-2.7l-44.6-26l29-16.7l49.1,28.7l1,0.6l1,0.6l6,3.5l0,25.5l0,1.2l0,1.2l0,5.6l-4.8-2.8l-1-0.6l-1-0.6l-28-16.3
			l-1-0.6L103.8,273.2z M62.7,147.6l1,0.6l18.7,11.1l0,9.6l0,1.2l0,1.2l0.2,55l-29,16.7l0.3-55l0-1.2l0-1.2l0.2-31.8l0-1.2l0-1.2
			l0-8.9l7.6,4.5L62.7,147.6z M90.6,164.2l-6.1,3.6l0-7.2L90.6,164.2z M140,193.5L140,193.5c0,0.1,0,0.1,0,0.2c0,0,0,0,0,0.1
			c0,0.1,0.1,0.2,0.2,0.3c0,0,0,0,0,0c0,0,0,0,0,0.1c0,0,0,0,0,0c0.1,0.1,0.2,0.2,0.3,0.2l0.1,0l0,31.8l-28.5-16.6l0.1-32.6
			L140,193.5z M110.6,211.1l30.1,17.5l0,23.4l-6,3.5l-50.1-29.2l-0.2-56.1l8.1-4.7l17.7,10.5l-0.2,34.4
			C110.1,210.6,110.3,210.9,110.6,211.1z M140.7,258.9l-4-2.3l4-2.3L140.7,258.9z"/>
		<path fill="#32CB87" d="M297.5,165.3C297.5,165.3,297.5,165.2,297.5,165.3c0-0.2-0.1-0.3-0.1-0.4c0,0,0,0,0-0.1
			c-0.1-0.1-0.1-0.2-0.2-0.2c0,0,0,0,0,0l-2.9-1.9c-0.3-0.2-0.8-0.2-1.1,0v-56v0c0,0,0-0.1,0-0.1c0,0,0-0.1,0-0.1c0,0,0-0.1,0-0.1
			c0,0,0-0.1,0-0.1c0,0-0.1-0.1-0.1-0.1c0,0,0-0.1-0.1-0.1c0,0-0.1-0.1-0.1-0.1c0,0-0.1-0.1-0.1-0.1l0,0c0,0,0,0,0,0c0,0,0,0,0,0
			l-51.8-30.6v-3.8c0,0,0,0,0,0c0-0.1,0-0.2-0.1-0.4c0,0,0,0,0-0.1c0-0.1-0.1-0.2-0.2-0.2c0,0-0.1-0.1-0.1-0.1c0,0-0.1-0.1-0.1-0.1
			c0,0,0,0,0,0l-30.2-17.4c-0.3-0.2-0.7-0.2-1,0l-2.9,1.7l-63-37.2c-0.3-0.2-0.7-0.2-1,0l-30.7,18.2c0,0-0.1,0.1-0.1,0.1
			c0,0-0.1,0-0.1,0.1c0,0-0.1,0.1-0.1,0.1c0,0,0,0.1-0.1,0.1c0,0,0,0.1-0.1,0.1c0,0,0,0.1,0,0.1c0,0,0,0.1,0,0.1c0,0,0,0.1,0,0.1
			l-0.3,65l-55.9-33c-0.3-0.2-0.7-0.2-1,0L22.9,86.9c0,0-0.1,0.1-0.1,0.1c0,0-0.1,0-0.1,0.1c0,0-0.1,0.1-0.1,0.1c0,0,0,0.1-0.1,0.1
			c0,0,0,0.1-0.1,0.1c0,0,0,0.1,0,0.1c0,0,0,0.1,0,0.1c0,0,0,0.1,0,0.1l-0.4,82.1l-2.6,1.5c-0.2,0-0.3,0-0.5,0.1
			c-0.3,0.2-0.5,0.5-0.5,0.9v0.1c0,0,0,0,0,0v34.1c0,0.4,0.2,0.7,0.5,0.9c0.1,0.1,0.3,0.1,0.5,0.1l2.4,1.5l-0.2,52.2
			c0,0.4,0.2,0.7,0.5,0.9l47.5,27.6l0.2,4.5c0,0.3,0.2,0.6,0.5,0.8L99.5,313c0.2,0.1,0.3,0.1,0.5,0.1c0.2,0,0.3,0,0.5-0.1
			c0.3-0.2,0.5-0.5,0.5-0.9V312l3.4-2l68.5,39.8c0,0,0,0,0,0c0,0,0,0,0,0c0,0,0.1,0,0.1,0c0.1,0.1,0.3,0.1,0.4,0.1
			c0.2,0,0.3,0,0.5-0.1l30.2-17.4c0.3-0.2,0.5-0.5,0.5-0.9v-65.8l56.8,33c0,0,0,0,0,0c0,0,0,0,0,0c0,0,0,0,0.1,0
			c0.1,0.1,0.3,0.1,0.5,0.1c0.1,0,0.3,0,0.4-0.1c0,0,0,0,0.1,0c0,0,0,0,0,0c0,0,0,0,0,0l30.2-17.4c0.3-0.2,0.5-0.5,0.5-0.9v-78.2
			l3.9-2.3c0.3-0.2,0.5-0.5,0.5-0.9v-33.7C297.5,165.4,297.5,165.3,297.5,165.3z M291,279.8l-28.1,16.2l0.2-68.5l0-7.9l27.9-16.2
			V279.8z M202.6,264.6v66.3l-28.1,16.2l0.2-76.8l0.1,0c0.1,0,0.1,0.1,0.2,0.1c0,0,0,0,0.1,0c0.1,0,0.2,0,0.3,0c0.2,0,0.3,0,0.5-0.1
			c0,0,0,0,0,0c0,0,0,0,0,0l18.5-10.7l1-0.6l1-0.6l6.4-3.7v7.4v1.2V264.6z M105.5,308.2l-1-0.6l-3.4-2v-17.9c0-0.4-0.2-0.7-0.5-0.9
			l-8.2-4.7l-1-0.6l-1-0.6l-19.9-11.5c-0.3-0.2-0.7-0.2-1,0c-0.3,0.2-0.5,0.5-0.5,0.9l0.6,17l-45.9-26.6l0.2-50.4l15.6,9.5
			c0.2,0.1,0.3,0.1,0.5,0.1c0.2,0,0.3,0,0.5-0.1c0.3-0.2,0.5-0.5,0.5-0.9l0.3-24l0-1.2l0-1.2l0.1-8.3c0-0.4-0.2-0.7-0.5-0.9l-17-9.7
			l0-2.8l0-1.2l0-1.2l0.4-79.2v0l56.9,32.9l1,0.6l1,0.5l1,0.6l3.6,2.1v0v5.7v1.2v1.2V148c0,0.4,0.2,0.7,0.5,0.9l14.3,8.2l1,0.6
			l1,0.6l5.6,3.2l1,0.6l1,0.6l6.3,3.6c0.2,0.1,0.3,0.1,0.5,0.1c0.2,0,0.4,0,0.5-0.1c0.3-0.2,0.5-0.5,0.5-0.9l-0.6-15.7l0-1.1l0-1.1
			l-0.1-3.1v0l2.8,1.6l1,0.6l1,0.6l16.1,9.3l1,0.6l1,0.6l0,0l28.8,16.6l1,0.6l0,0l0.9,0.5l0,0v0l0,0.8l0,0.2l0,1.2l-0.1,33.5v0
			l0,1.2l0,1.2l0,7.3l0,12.3L155.2,222c-0.3-0.2-0.7-0.2-1,0c-0.3,0.2-0.5,0.5-0.5,0.9l-0.2,10.9l0,1.2l0,1.2l-0.1,8.6l0,1.2l0,1.2
			l-0.1,10.5c0,0.4,0.2,0.7,0.5,0.9l18.2,10.4l0.8,0.5l0,0.2l0,1.2l0,7l0,1.2l0,0.9l0,1.1l-0.2,66.3l-66-38.3L105.5,308.2z
			 M101,309.6V308l1.4,0.8L101,309.6z M71.6,289.8l0-1.2L71,272.2l17.3,10l1,0.6l1,0.6l8.7,5v16.1v1.2v1.2v2.4v1.1l-27.3-16.7l0-0.7
			l0-1.1l0-0.8L71.6,289.8z M20.6,206l-0.1-0.1v-1v-30.8L22,175l1,0.6l1,0.6l15.5,8.9l-0.1,8.9l0,1.2l0,1.2l-0.3,21L23.9,208l-1-0.6
			l-1-0.6l-0.3-0.2L20.6,206z M22.1,172.2l0,0.5l-0.4-0.2L22.1,172.2z M110.5,104l1,0.6l1,0.6l3.1,1.8l-3.2,1.8l-1,0.6l-1,0.6
			l-22.1,12.7c-0.1,0-0.1,0.1-0.2,0.1c0,0,0,0-0.1,0c-0.1,0.1-0.2,0.3-0.3,0.4c0,0,0,0.1,0,0.1c0,0.1,0,0.1,0,0.2c0,0,0,0,0,0
			c0,0,0,0,0,0v0.2L25.4,87.8l28.8-17L110.5,104z M204.1,56l-28.4,16.4l-61.9-35.7l28.8-17L204.1,56z M209.6,55.2l28.1,16.2l-1.7,1
			l-1,0.6l-1,0.6l-28.1,16.2l0,0l-1,0.6l-1,0.6l0,0l-29.5,17l-1,0.6l-0.5,0.3l-0.5,0.3l-0.5,0.3l-1,0.6l-23.3,13.5l-1,0.6l-1,0.6
			l-3.2,1.8l0,0l-0.6,0.4l-0.4,0.2l-0.6,0.4l-0.4,0.2l-0.6,0.4l-21.5,12.4l0,0l-5.8-3.6l-1-0.6l-1-0.6l-12.1-7.4l-1-0.6l-1-0.6
			l-5.4-3.3h0l19.6-11.3l1-0.6l1-0.6l5.1-3l1-0.6l1-0.6l20.8-12l1-0.6l1-0.6l0,0l2.1-1.2l1-0.6l1-0.6l24.1-13.9l1-0.6l1-0.6l3-1.7h0
			l1-0.6l1-0.6l0,0l28.4-16.4l1-0.6l1-0.6L209.6,55.2z M279.7,112.6l-17.3,9.9L207.9,91l28.1-16.2l2.8,1.6l1,0.6l1,0.6l49.3,29.1
			L279.7,112.6z M229.1,243.6l-3.6-2.1l3.6-2.1L229.1,243.6z M291,108.4v59l-27.8,16.1l0.2-59.3v0L291,108.4L291,108.4z
			 M194.3,223.3l-0.6,0.3l-0.4,0.2l-0.6,0.3l-0.4,0.2l-17,9.8l-0.5-0.3l0-0.6l0-1.2l0-12.3l0-5.6l0-1.2l0-1.2v0l0.1-33.4l0-1.2
			l0-1.2l0-1v0l27.7-15.7v0v32.9v1.2v1.2v23.7L194.3,223.3L194.3,223.3z M173.7,267.5l-1-0.6h0l-17.5-10l0.2-11.1l0-1.2l0-1.2
			l0.1-6.2l0-1.2l0-1.2l0.1-10.2l15.7,9.6l1,0.6l0.4,0.3h0l0.5,0.3l0.5,0.3l0.5,0.3v9.8v1.2v1.2v19.3v0.4l-0.4-0.2L173.7,267.5z
			 M117.2,143.1l0.2,5.5l0,1.1l0,1.1l0.5,12.8l-5.7-3.3l-1-0.6l-1-0.6l-3.6-2.1l-1-0.6l-1-0.6l-14.8-8.5V133v-1.2v-1.2v-3.4v0v-1.2
			v-0.7l4.4,2.7l1,0.6l0,0l1,0.6l13.4,8.2l0.7,0.4l1,0.6l1,0.6l4.8,2.9L117.2,143.1L117.2,143.1z M142.3,128.8l5.1-3l23.4,13.8
			l1,0.6l1,0.6l28.7,16.9l-11.9,6.8l-15.8,9l-1-0.5l-1-0.6l-1-0.6l-28.8-16.6l0,0l-1-0.6l-1-0.6l-14.1-8.2l-1-0.6l-1-0.6l-4.6-2.7
			l20.3-11.7l0.6-0.4l0.4-0.2l0.6-0.4l0.4-0.2L142.3,128.8L142.3,128.8z M170.9,137.3l-21.4-12.6l21.3-12.3L170.9,137.3z
			 M204.6,195.9l18.4,10.8l-18.4,10.6V195.9z M204.6,193.6v-35.8v0c0,0,0-0.1,0-0.1c0,0,0-0.1,0-0.1c0,0,0-0.1,0-0.1
			c0,0,0-0.1,0-0.1c0,0-0.1-0.1-0.1-0.1c0,0,0-0.1-0.1-0.1c0,0-0.1-0.1-0.1-0.1c0,0-0.1-0.1-0.1-0.1l0,0c0,0,0,0,0,0c0,0,0,0,0,0
			l-31.2-18.4l-0.1-27.3l1.5-0.9l54.7,32.4l0.1,60.4l-4,2.3L204.6,193.6z M231,142.2c0-0.4-0.2-0.7-0.5-0.9l-54.2-32.1l29.5-17
			l55.5,32l-0.2,60.5L231.1,202L231,142.2z M238.7,74.1l-0.8-0.4l0.8-0.4V74.1z M112.8,38.4L112.8,38.4l46.6,26.9l10.3,6l1,0.6
			l1,0.5l1,0.6l1,0.6l-1,0.6l-1,0.6l-1,0.6l-26.1,15.1l-1,0.6l-1,0.6l-0.1,0.1l0,0l-1,0.6l-1,0.6l-22.8,13.2l-5.1-3L112.8,38.4z
			 M204.6,253.6l18.9-11l6.1,3.5c0.2,0.1,0.3,0.1,0.5,0.1c0.1,0,0.2,0,0.3,0c0,0,0.1,0,0.1,0c0.1,0,0.1,0,0.2-0.1
			c0.3-0.2,0.5-0.5,0.5-0.9l0-0.5l0-1.1l0-5.4l23-13.4l1-0.6l1-0.6l4.9-2.9l0,5.1l0,0.7l0,1.2l0,0.9l0,1.1l-0.2,66.3l0,0l-56.3-32.7
			V253.6z M291,201.1l-27.9,16.2h0l-1,0.6l-1,0.6l0,0l-6.9,4l-1,0.6l-1,0.6l-21.1,12.2l-1,0.6l-1,0.6l-5.6,3.3l0,0l-0.7,0.4
			l-0.3,0.1l-1,0.6l-16.9,9.8l-1,0.6l-1,0.6l-8.4,4.9l-1,0.6l-1,0.6l-16,9.3v-0.4v-1.2v-17v-1.2v-1.2V236l17.4-10l0.6-0.3l0.4-0.2
			l0.6-0.3l0.4-0.2l0.6-0.3l0,0l6.4-3.7l1-0.6l1-0.6l20.4-11.8l1-0.6l1-0.6l2-1.2l1-0.6l1-0.6l30.1-17.4l0,0l1-0.6l1-0.6l0,0
			l27.8-16.1l1-0.6l1-0.6l2.4-1.4v31.3l-2.4,1.4l-1,0.6L291,201.1z M294.6,165.4l-1.5,0.9v-1.9L294.6,165.4z"/>
	</g>
</g>
</svg>
