<?xml version="1.0" encoding="utf-8"?>
<!-- Generator: Adobe Illustrator 25.2.1, SVG Export Plug-In . SVG Version: 6.00 Build 0)  -->
<svg version="1.1" xmlns="http://www.w3.org/2000/svg" xmlns:xlink="http://www.w3.org/1999/xlink" x="0px" y="0px"
	 viewBox="0 0 370.2 330.5" enable-background="new 0 0 370.2 330.5" xml:space="preserve">
<g id="Grid" display="none" opacity="0.25">
	<g display="inline">
		<defs>
			<rect id="SVGID_1_" x="-212.7" y="-76.8" width="799" height="800"/>
		</defs>
		<clipPath id="SVGID_2_">
			<use xlink:href="#SVGID_1_"  overflow="visible"/>
		</clipPath>
		<g clip-path="url(#SVGID_2_)">
			
				<line fill="none" stroke="#000000" stroke-width="0.25" stroke-miterlimit="10" x1="-1162.2" y1="-969.3" x2="-1162.2" y2="1614.7"/>
			
				<line fill="none" stroke="#000000" stroke-width="0.25" stroke-miterlimit="10" x1="-1112.2" y1="-969.3" x2="-1112.2" y2="1614.7"/>
			
				<line fill="none" stroke="#000000" stroke-width="0.25" stroke-miterlimit="10" x1="-1062.2" y1="-969.3" x2="-1062.2" y2="1614.7"/>
			
				<line fill="none" stroke="#000000" stroke-width="0.25" stroke-miterlimit="10" x1="-1012.2" y1="-969.3" x2="-1012.2" y2="1614.7"/>
			
				<line fill="none" stroke="#000000" stroke-width="0.25" stroke-miterlimit="10" x1="-962.2" y1="-969.3" x2="-962.2" y2="1614.7"/>
			
				<line fill="none" stroke="#000000" stroke-width="0.25" stroke-miterlimit="10" x1="-912.2" y1="-969.3" x2="-912.2" y2="1614.7"/>
			
				<line fill="none" stroke="#000000" stroke-width="0.25" stroke-miterlimit="10" x1="-862.2" y1="-969.3" x2="-862.2" y2="1614.7"/>
			
				<line fill="none" stroke="#000000" stroke-width="0.25" stroke-miterlimit="10" x1="-812.2" y1="-969.3" x2="-812.2" y2="1614.7"/>
			
				<line fill="none" stroke="#000000" stroke-width="0.25" stroke-miterlimit="10" x1="-762.2" y1="-969.3" x2="-762.2" y2="1614.7"/>
			
				<line fill="none" stroke="#000000" stroke-width="0.25" stroke-miterlimit="10" x1="-712.2" y1="-969.3" x2="-712.2" y2="1614.7"/>
			
				<line fill="none" stroke="#000000" stroke-width="0.25" stroke-miterlimit="10" x1="-662.2" y1="-969.3" x2="-662.2" y2="1614.7"/>
			
				<line fill="none" stroke="#000000" stroke-width="0.25" stroke-miterlimit="10" x1="-612.2" y1="-969.3" x2="-612.2" y2="1614.7"/>
			
				<line fill="none" stroke="#000000" stroke-width="0.25" stroke-miterlimit="10" x1="-562.2" y1="-969.3" x2="-562.2" y2="1614.7"/>
			
				<line fill="none" stroke="#000000" stroke-width="0.25" stroke-miterlimit="10" x1="-512.2" y1="-969.3" x2="-512.2" y2="1614.7"/>
			
				<line fill="none" stroke="#000000" stroke-width="0.25" stroke-miterlimit="10" x1="-462.2" y1="-969.3" x2="-462.2" y2="1614.7"/>
			
				<line fill="none" stroke="#000000" stroke-width="0.25" stroke-miterlimit="10" x1="-412.2" y1="-969.3" x2="-412.2" y2="1614.7"/>
			
				<line fill="none" stroke="#000000" stroke-width="0.25" stroke-miterlimit="10" x1="-362.2" y1="-969.3" x2="-362.2" y2="1614.7"/>
			
				<line fill="none" stroke="#000000" stroke-width="0.25" stroke-miterlimit="10" x1="-312.2" y1="-969.3" x2="-312.2" y2="1614.7"/>
			
				<line fill="none" stroke="#000000" stroke-width="0.25" stroke-miterlimit="10" x1="-262.2" y1="-969.3" x2="-262.2" y2="1614.7"/>
			
				<line fill="none" stroke="#000000" stroke-width="0.25" stroke-miterlimit="10" x1="-212.2" y1="-969.3" x2="-212.2" y2="1614.7"/>
			
				<line fill="none" stroke="#000000" stroke-width="0.25" stroke-miterlimit="10" x1="-162.2" y1="-969.3" x2="-162.2" y2="1614.7"/>
			
				<line fill="none" stroke="#000000" stroke-width="0.25" stroke-miterlimit="10" x1="-112.2" y1="-969.3" x2="-112.2" y2="1614.7"/>
			<line fill="none" stroke="#000000" stroke-width="0.25" stroke-miterlimit="10" x1="-62.2" y1="-969.3" x2="-62.2" y2="1614.7"/>
			<line fill="none" stroke="#000000" stroke-width="0.25" stroke-miterlimit="10" x1="-12.2" y1="-969.3" x2="-12.2" y2="1614.7"/>
			<line fill="none" stroke="#000000" stroke-width="0.25" stroke-miterlimit="10" x1="37.8" y1="-969.3" x2="37.8" y2="1614.7"/>
			<line fill="none" stroke="#000000" stroke-width="0.25" stroke-miterlimit="10" x1="87.8" y1="-969.3" x2="87.8" y2="1614.7"/>
			<line fill="none" stroke="#000000" stroke-width="0.25" stroke-miterlimit="10" x1="137.8" y1="-969.3" x2="137.8" y2="1614.7"/>
			<line fill="none" stroke="#000000" stroke-width="0.25" stroke-miterlimit="10" x1="187.8" y1="-969.3" x2="187.8" y2="1614.7"/>
			<line fill="none" stroke="#000000" stroke-width="0.25" stroke-miterlimit="10" x1="237.8" y1="-969.3" x2="237.8" y2="1614.7"/>
			<line fill="none" stroke="#000000" stroke-width="0.25" stroke-miterlimit="10" x1="287.8" y1="-969.3" x2="287.8" y2="1614.7"/>
			<line fill="none" stroke="#000000" stroke-width="0.25" stroke-miterlimit="10" x1="337.8" y1="-969.3" x2="337.8" y2="1614.7"/>
			<line fill="none" stroke="#000000" stroke-width="0.25" stroke-miterlimit="10" x1="387.8" y1="-969.3" x2="387.8" y2="1614.7"/>
			<line fill="none" stroke="#000000" stroke-width="0.25" stroke-miterlimit="10" x1="437.8" y1="-969.3" x2="437.8" y2="1614.7"/>
			<line fill="none" stroke="#000000" stroke-width="0.25" stroke-miterlimit="10" x1="487.8" y1="-969.3" x2="487.8" y2="1614.7"/>
			<line fill="none" stroke="#000000" stroke-width="0.25" stroke-miterlimit="10" x1="537.8" y1="-969.3" x2="537.8" y2="1614.7"/>
			<line fill="none" stroke="#000000" stroke-width="0.25" stroke-miterlimit="10" x1="587.8" y1="-969.3" x2="587.8" y2="1614.7"/>
			<line fill="none" stroke="#000000" stroke-width="0.25" stroke-miterlimit="10" x1="637.8" y1="-969.3" x2="637.8" y2="1614.7"/>
			<line fill="none" stroke="#000000" stroke-width="0.25" stroke-miterlimit="10" x1="687.8" y1="-969.3" x2="687.8" y2="1614.7"/>
			<line fill="none" stroke="#000000" stroke-width="0.25" stroke-miterlimit="10" x1="737.8" y1="-969.3" x2="737.8" y2="1614.7"/>
			<line fill="none" stroke="#000000" stroke-width="0.25" stroke-miterlimit="10" x1="787.8" y1="-969.3" x2="787.8" y2="1614.7"/>
			<line fill="none" stroke="#000000" stroke-width="0.25" stroke-miterlimit="10" x1="837.8" y1="-969.3" x2="837.8" y2="1614.7"/>
			<line fill="none" stroke="#000000" stroke-width="0.25" stroke-miterlimit="10" x1="887.8" y1="-969.3" x2="887.8" y2="1614.7"/>
			<line fill="none" stroke="#000000" stroke-width="0.25" stroke-miterlimit="10" x1="937.8" y1="-969.3" x2="937.8" y2="1614.7"/>
			<line fill="none" stroke="#000000" stroke-width="0.25" stroke-miterlimit="10" x1="987.8" y1="-969.3" x2="987.8" y2="1614.7"/>
			
				<line fill="none" stroke="#000000" stroke-width="0.25" stroke-miterlimit="10" x1="1037.8" y1="-969.3" x2="1037.8" y2="1614.7"/>
			
				<line fill="none" stroke="#000000" stroke-width="0.25" stroke-miterlimit="10" x1="1087.8" y1="-969.3" x2="1087.8" y2="1614.7"/>
			
				<line fill="none" stroke="#000000" stroke-width="0.25" stroke-miterlimit="10" x1="1137.8" y1="-969.3" x2="1137.8" y2="1614.7"/>
			
				<line fill="none" stroke="#000000" stroke-width="0.25" stroke-miterlimit="10" x1="1187.8" y1="-969.3" x2="1187.8" y2="1614.7"/>
			
				<line fill="none" stroke="#000000" stroke-width="0.25" stroke-miterlimit="10" x1="1237.8" y1="-969.3" x2="1237.8" y2="1614.7"/>
			
				<line fill="none" stroke="#000000" stroke-width="0.25" stroke-miterlimit="10" x1="1287.8" y1="-969.3" x2="1287.8" y2="1614.7"/>
			
				<line fill="none" stroke="#000000" stroke-width="0.25" stroke-miterlimit="10" x1="1337.8" y1="-969.3" x2="1337.8" y2="1614.7"/>
			
				<line fill="none" stroke="#000000" stroke-width="0.25" stroke-miterlimit="10" x1="1387.8" y1="-969.3" x2="1387.8" y2="1614.7"/>
			
				<line fill="none" stroke="#000000" stroke-width="0.25" stroke-miterlimit="10" x1="1437.8" y1="-969.3" x2="1437.8" y2="1614.7"/>
			
				<line fill="none" stroke="#000000" stroke-width="0.25" stroke-miterlimit="10" x1="1487.8" y1="-969.3" x2="1487.8" y2="1614.7"/>
			
				<line fill="none" stroke="#000000" stroke-width="0.25" stroke-miterlimit="10" x1="1537.8" y1="-969.3" x2="1537.8" y2="1614.7"/>
		</g>
		<g clip-path="url(#SVGID_2_)">
			
				<line fill="none" stroke="#000000" stroke-width="0.25" stroke-miterlimit="10" x1="-1606.1" y1="845.8" x2="631.7" y2="2137.8"/>
			
				<line fill="none" stroke="#000000" stroke-width="0.25" stroke-miterlimit="10" x1="-1581.1" y1="802.5" x2="656.7" y2="2094.5"/>
			
				<line fill="none" stroke="#000000" stroke-width="0.25" stroke-miterlimit="10" x1="-1556.1" y1="759.2" x2="681.7" y2="2051.2"/>
			
				<line fill="none" stroke="#000000" stroke-width="0.25" stroke-miterlimit="10" x1="-1531.1" y1="715.9" x2="706.7" y2="2007.9"/>
			
				<line fill="none" stroke="#000000" stroke-width="0.25" stroke-miterlimit="10" x1="-1506.1" y1="672.6" x2="731.7" y2="1964.6"/>
			
				<line fill="none" stroke="#000000" stroke-width="0.25" stroke-miterlimit="10" x1="-1481.1" y1="629.3" x2="756.7" y2="1921.3"/>
			<line fill="none" stroke="#000000" stroke-width="0.25" stroke-miterlimit="10" x1="-1456.1" y1="586" x2="781.7" y2="1878"/>
			
				<line fill="none" stroke="#000000" stroke-width="0.25" stroke-miterlimit="10" x1="-1431.1" y1="542.7" x2="806.7" y2="1834.7"/>
			
				<line fill="none" stroke="#000000" stroke-width="0.25" stroke-miterlimit="10" x1="-1406.1" y1="499.4" x2="831.7" y2="1791.4"/>
			
				<line fill="none" stroke="#000000" stroke-width="0.25" stroke-miterlimit="10" x1="-1381.1" y1="456.1" x2="856.7" y2="1748.1"/>
			
				<line fill="none" stroke="#000000" stroke-width="0.25" stroke-miterlimit="10" x1="-1356.1" y1="412.8" x2="881.7" y2="1704.8"/>
			
				<line fill="none" stroke="#000000" stroke-width="0.25" stroke-miterlimit="10" x1="-1331.1" y1="369.5" x2="906.7" y2="1661.5"/>
			
				<line fill="none" stroke="#000000" stroke-width="0.25" stroke-miterlimit="10" x1="-1306.1" y1="326.2" x2="931.7" y2="1618.2"/>
			
				<line fill="none" stroke="#000000" stroke-width="0.25" stroke-miterlimit="10" x1="-1281.1" y1="282.9" x2="956.7" y2="1574.9"/>
			
				<line fill="none" stroke="#000000" stroke-width="0.25" stroke-miterlimit="10" x1="-1256.1" y1="239.6" x2="981.7" y2="1531.6"/>
			
				<line fill="none" stroke="#000000" stroke-width="0.25" stroke-miterlimit="10" x1="-1231.1" y1="196.3" x2="1006.7" y2="1488.3"/>
			<line fill="none" stroke="#000000" stroke-width="0.25" stroke-miterlimit="10" x1="-1206.1" y1="153" x2="1031.7" y2="1445"/>
			
				<line fill="none" stroke="#000000" stroke-width="0.25" stroke-miterlimit="10" x1="-1181.1" y1="109.7" x2="1056.7" y2="1401.7"/>
			
				<line fill="none" stroke="#000000" stroke-width="0.25" stroke-miterlimit="10" x1="-1156.1" y1="66.4" x2="1081.7" y2="1358.4"/>
			
				<line fill="none" stroke="#000000" stroke-width="0.25" stroke-miterlimit="10" x1="-1131.1" y1="23.1" x2="1106.7" y2="1315.1"/>
			
				<line fill="none" stroke="#000000" stroke-width="0.25" stroke-miterlimit="10" x1="-1106.1" y1="-20.2" x2="1131.7" y2="1271.8"/>
			
				<line fill="none" stroke="#000000" stroke-width="0.25" stroke-miterlimit="10" x1="-1081.1" y1="-63.5" x2="1156.7" y2="1228.5"/>
			
				<line fill="none" stroke="#000000" stroke-width="0.25" stroke-miterlimit="10" x1="-1056.1" y1="-106.8" x2="1181.7" y2="1185.2"/>
			
				<line fill="none" stroke="#000000" stroke-width="0.25" stroke-miterlimit="10" x1="-1031.1" y1="-150.1" x2="1206.7" y2="1141.9"/>
			
				<line fill="none" stroke="#000000" stroke-width="0.25" stroke-miterlimit="10" x1="-1006.1" y1="-193.4" x2="1231.7" y2="1098.6"/>
			
				<line fill="none" stroke="#000000" stroke-width="0.25" stroke-miterlimit="10" x1="-981.1" y1="-236.7" x2="1256.7" y2="1055.3"/>
			<line fill="none" stroke="#000000" stroke-width="0.25" stroke-miterlimit="10" x1="-956.1" y1="-280" x2="1281.7" y2="1012"/>
			
				<line fill="none" stroke="#000000" stroke-width="0.25" stroke-miterlimit="10" x1="-931.1" y1="-323.3" x2="1306.7" y2="968.7"/>
			
				<line fill="none" stroke="#000000" stroke-width="0.25" stroke-miterlimit="10" x1="-906.1" y1="-366.6" x2="1331.7" y2="925.4"/>
			
				<line fill="none" stroke="#000000" stroke-width="0.25" stroke-miterlimit="10" x1="-881.1" y1="-409.9" x2="1356.7" y2="882.1"/>
			
				<line fill="none" stroke="#000000" stroke-width="0.25" stroke-miterlimit="10" x1="-856.1" y1="-453.2" x2="1381.7" y2="838.8"/>
			
				<line fill="none" stroke="#000000" stroke-width="0.25" stroke-miterlimit="10" x1="-831.1" y1="-496.5" x2="1406.7" y2="795.5"/>
			
				<line fill="none" stroke="#000000" stroke-width="0.25" stroke-miterlimit="10" x1="-806.1" y1="-539.8" x2="1431.7" y2="752.2"/>
			
				<line fill="none" stroke="#000000" stroke-width="0.25" stroke-miterlimit="10" x1="-781.1" y1="-583.1" x2="1456.7" y2="708.9"/>
			
				<line fill="none" stroke="#000000" stroke-width="0.25" stroke-miterlimit="10" x1="-756.1" y1="-626.4" x2="1481.7" y2="665.6"/>
			
				<line fill="none" stroke="#000000" stroke-width="0.25" stroke-miterlimit="10" x1="-731.1" y1="-669.7" x2="1506.7" y2="622.3"/>
			<line fill="none" stroke="#000000" stroke-width="0.25" stroke-miterlimit="10" x1="-706.1" y1="-713" x2="1531.7" y2="579"/>
			
				<line fill="none" stroke="#000000" stroke-width="0.25" stroke-miterlimit="10" x1="-681.1" y1="-756.4" x2="1556.7" y2="535.6"/>
			
				<line fill="none" stroke="#000000" stroke-width="0.25" stroke-miterlimit="10" x1="-656.1" y1="-799.7" x2="1581.7" y2="492.3"/>
			<line fill="none" stroke="#000000" stroke-width="0.25" stroke-miterlimit="10" x1="-631.1" y1="-843" x2="1606.7" y2="449"/>
			
				<line fill="none" stroke="#000000" stroke-width="0.25" stroke-miterlimit="10" x1="-606.1" y1="-886.3" x2="1631.7" y2="405.7"/>
			
				<line fill="none" stroke="#000000" stroke-width="0.25" stroke-miterlimit="10" x1="-581.1" y1="-929.6" x2="1656.7" y2="362.4"/>
			
				<line fill="none" stroke="#000000" stroke-width="0.25" stroke-miterlimit="10" x1="-556.1" y1="-972.9" x2="1681.7" y2="319.1"/>
			
				<line fill="none" stroke="#000000" stroke-width="0.25" stroke-miterlimit="10" x1="-531.1" y1="-1016.2" x2="1706.7" y2="275.8"/>
			
				<line fill="none" stroke="#000000" stroke-width="0.25" stroke-miterlimit="10" x1="-506.1" y1="-1059.5" x2="1731.7" y2="232.5"/>
			
				<line fill="none" stroke="#000000" stroke-width="0.25" stroke-miterlimit="10" x1="-481.1" y1="-1102.8" x2="1756.7" y2="189.2"/>
			
				<line fill="none" stroke="#000000" stroke-width="0.25" stroke-miterlimit="10" x1="-456.1" y1="-1146.1" x2="1781.7" y2="145.9"/>
			
				<line fill="none" stroke="#000000" stroke-width="0.25" stroke-miterlimit="10" x1="-431.1" y1="-1189.4" x2="1806.7" y2="102.6"/>
			
				<line fill="none" stroke="#000000" stroke-width="0.25" stroke-miterlimit="10" x1="-406.1" y1="-1232.7" x2="1831.7" y2="59.3"/>
			<line fill="none" stroke="#000000" stroke-width="0.25" stroke-miterlimit="10" x1="-381.1" y1="-1276" x2="1856.7" y2="16"/>
			
				<line fill="none" stroke="#000000" stroke-width="0.25" stroke-miterlimit="10" x1="-356.1" y1="-1319.3" x2="1881.7" y2="-27.3"/>
			
				<line fill="none" stroke="#000000" stroke-width="0.25" stroke-miterlimit="10" x1="-331.1" y1="-1362.6" x2="1906.7" y2="-70.6"/>
			
				<line fill="none" stroke="#000000" stroke-width="0.25" stroke-miterlimit="10" x1="-306.1" y1="-1405.9" x2="1931.7" y2="-113.9"/>
			
				<line fill="none" stroke="#000000" stroke-width="0.25" stroke-miterlimit="10" x1="-281.1" y1="-1449.2" x2="1956.7" y2="-157.2"/>
			
				<line fill="none" stroke="#000000" stroke-width="0.25" stroke-miterlimit="10" x1="-256.1" y1="-1492.5" x2="1981.7" y2="-200.5"/>
		</g>
		<g clip-path="url(#SVGID_2_)">
			
				<line fill="none" stroke="#000000" stroke-width="0.25" stroke-miterlimit="10" x1="1981.7" y1="845.8" x2="-256.1" y2="2137.8"/>
			
				<line fill="none" stroke="#000000" stroke-width="0.25" stroke-miterlimit="10" x1="1956.7" y1="802.5" x2="-281.1" y2="2094.5"/>
			
				<line fill="none" stroke="#000000" stroke-width="0.25" stroke-miterlimit="10" x1="1931.7" y1="759.2" x2="-306.1" y2="2051.2"/>
			
				<line fill="none" stroke="#000000" stroke-width="0.25" stroke-miterlimit="10" x1="1906.7" y1="715.9" x2="-331.1" y2="2007.9"/>
			
				<line fill="none" stroke="#000000" stroke-width="0.25" stroke-miterlimit="10" x1="1881.7" y1="672.6" x2="-356.1" y2="1964.6"/>
			
				<line fill="none" stroke="#000000" stroke-width="0.25" stroke-miterlimit="10" x1="1856.7" y1="629.3" x2="-381.1" y2="1921.3"/>
			<line fill="none" stroke="#000000" stroke-width="0.25" stroke-miterlimit="10" x1="1831.7" y1="586" x2="-406.1" y2="1878"/>
			
				<line fill="none" stroke="#000000" stroke-width="0.25" stroke-miterlimit="10" x1="1806.7" y1="542.7" x2="-431.1" y2="1834.7"/>
			
				<line fill="none" stroke="#000000" stroke-width="0.25" stroke-miterlimit="10" x1="1781.7" y1="499.4" x2="-456.1" y2="1791.4"/>
			
				<line fill="none" stroke="#000000" stroke-width="0.25" stroke-miterlimit="10" x1="1756.7" y1="456.1" x2="-481.1" y2="1748.1"/>
			
				<line fill="none" stroke="#000000" stroke-width="0.25" stroke-miterlimit="10" x1="1731.7" y1="412.8" x2="-506.1" y2="1704.8"/>
			
				<line fill="none" stroke="#000000" stroke-width="0.25" stroke-miterlimit="10" x1="1706.7" y1="369.5" x2="-531.1" y2="1661.5"/>
			
				<line fill="none" stroke="#000000" stroke-width="0.25" stroke-miterlimit="10" x1="1681.7" y1="326.2" x2="-556.1" y2="1618.2"/>
			
				<line fill="none" stroke="#000000" stroke-width="0.25" stroke-miterlimit="10" x1="1656.7" y1="282.9" x2="-581.1" y2="1574.9"/>
			
				<line fill="none" stroke="#000000" stroke-width="0.25" stroke-miterlimit="10" x1="1631.7" y1="239.6" x2="-606.1" y2="1531.6"/>
			
				<line fill="none" stroke="#000000" stroke-width="0.25" stroke-miterlimit="10" x1="1606.7" y1="196.3" x2="-631.1" y2="1488.3"/>
			<line fill="none" stroke="#000000" stroke-width="0.25" stroke-miterlimit="10" x1="1581.7" y1="153" x2="-656.1" y2="1445"/>
			
				<line fill="none" stroke="#000000" stroke-width="0.25" stroke-miterlimit="10" x1="1556.7" y1="109.7" x2="-681.1" y2="1401.7"/>
			<line fill="none" stroke="#000000" stroke-width="0.25" stroke-miterlimit="10" x1="1531.7" y1="66.4" x2="-706.1" y2="1358.4"/>
			<line fill="none" stroke="#000000" stroke-width="0.25" stroke-miterlimit="10" x1="1506.7" y1="23.1" x2="-731.1" y2="1315.1"/>
			
				<line fill="none" stroke="#000000" stroke-width="0.25" stroke-miterlimit="10" x1="1481.7" y1="-20.2" x2="-756.1" y2="1271.8"/>
			
				<line fill="none" stroke="#000000" stroke-width="0.25" stroke-miterlimit="10" x1="1456.7" y1="-63.5" x2="-781.1" y2="1228.5"/>
			
				<line fill="none" stroke="#000000" stroke-width="0.25" stroke-miterlimit="10" x1="1431.7" y1="-106.8" x2="-806.1" y2="1185.2"/>
			
				<line fill="none" stroke="#000000" stroke-width="0.25" stroke-miterlimit="10" x1="1406.7" y1="-150.1" x2="-831.1" y2="1141.9"/>
			
				<line fill="none" stroke="#000000" stroke-width="0.25" stroke-miterlimit="10" x1="1381.7" y1="-193.4" x2="-856.1" y2="1098.6"/>
			
				<line fill="none" stroke="#000000" stroke-width="0.25" stroke-miterlimit="10" x1="1356.7" y1="-236.7" x2="-881.1" y2="1055.3"/>
			<line fill="none" stroke="#000000" stroke-width="0.25" stroke-miterlimit="10" x1="1331.7" y1="-280" x2="-906.1" y2="1012"/>
			
				<line fill="none" stroke="#000000" stroke-width="0.25" stroke-miterlimit="10" x1="1306.7" y1="-323.3" x2="-931.1" y2="968.7"/>
			
				<line fill="none" stroke="#000000" stroke-width="0.25" stroke-miterlimit="10" x1="1281.7" y1="-366.6" x2="-956.1" y2="925.4"/>
			
				<line fill="none" stroke="#000000" stroke-width="0.25" stroke-miterlimit="10" x1="1256.7" y1="-409.9" x2="-981.1" y2="882.1"/>
			
				<line fill="none" stroke="#000000" stroke-width="0.25" stroke-miterlimit="10" x1="1231.7" y1="-453.2" x2="-1006.1" y2="838.8"/>
			
				<line fill="none" stroke="#000000" stroke-width="0.25" stroke-miterlimit="10" x1="1206.7" y1="-496.5" x2="-1031.1" y2="795.5"/>
			
				<line fill="none" stroke="#000000" stroke-width="0.25" stroke-miterlimit="10" x1="1181.7" y1="-539.8" x2="-1056.1" y2="752.2"/>
			
				<line fill="none" stroke="#000000" stroke-width="0.25" stroke-miterlimit="10" x1="1156.7" y1="-583.1" x2="-1081.1" y2="708.9"/>
			
				<line fill="none" stroke="#000000" stroke-width="0.25" stroke-miterlimit="10" x1="1131.7" y1="-626.4" x2="-1106.1" y2="665.6"/>
			
				<line fill="none" stroke="#000000" stroke-width="0.25" stroke-miterlimit="10" x1="1106.7" y1="-669.7" x2="-1131.1" y2="622.3"/>
			<line fill="none" stroke="#000000" stroke-width="0.25" stroke-miterlimit="10" x1="1081.7" y1="-713" x2="-1156.1" y2="579"/>
			
				<line fill="none" stroke="#000000" stroke-width="0.25" stroke-miterlimit="10" x1="1056.7" y1="-756.4" x2="-1181.1" y2="535.6"/>
			
				<line fill="none" stroke="#000000" stroke-width="0.25" stroke-miterlimit="10" x1="1031.7" y1="-799.7" x2="-1206.1" y2="492.3"/>
			<line fill="none" stroke="#000000" stroke-width="0.25" stroke-miterlimit="10" x1="1006.7" y1="-843" x2="-1231.1" y2="449"/>
			
				<line fill="none" stroke="#000000" stroke-width="0.25" stroke-miterlimit="10" x1="981.7" y1="-886.3" x2="-1256.1" y2="405.7"/>
			
				<line fill="none" stroke="#000000" stroke-width="0.25" stroke-miterlimit="10" x1="956.7" y1="-929.6" x2="-1281.1" y2="362.4"/>
			
				<line fill="none" stroke="#000000" stroke-width="0.25" stroke-miterlimit="10" x1="931.7" y1="-972.9" x2="-1306.1" y2="319.1"/>
			
				<line fill="none" stroke="#000000" stroke-width="0.25" stroke-miterlimit="10" x1="906.7" y1="-1016.2" x2="-1331.1" y2="275.8"/>
			
				<line fill="none" stroke="#000000" stroke-width="0.25" stroke-miterlimit="10" x1="881.7" y1="-1059.5" x2="-1356.1" y2="232.5"/>
			
				<line fill="none" stroke="#000000" stroke-width="0.25" stroke-miterlimit="10" x1="856.7" y1="-1102.8" x2="-1381.1" y2="189.2"/>
			
				<line fill="none" stroke="#000000" stroke-width="0.25" stroke-miterlimit="10" x1="831.7" y1="-1146.1" x2="-1406.1" y2="145.9"/>
			
				<line fill="none" stroke="#000000" stroke-width="0.25" stroke-miterlimit="10" x1="806.7" y1="-1189.4" x2="-1431.1" y2="102.6"/>
			
				<line fill="none" stroke="#000000" stroke-width="0.25" stroke-miterlimit="10" x1="781.7" y1="-1232.7" x2="-1456.1" y2="59.3"/>
			<line fill="none" stroke="#000000" stroke-width="0.25" stroke-miterlimit="10" x1="756.7" y1="-1276" x2="-1481.1" y2="16"/>
			
				<line fill="none" stroke="#000000" stroke-width="0.25" stroke-miterlimit="10" x1="731.7" y1="-1319.3" x2="-1506.1" y2="-27.3"/>
			
				<line fill="none" stroke="#000000" stroke-width="0.25" stroke-miterlimit="10" x1="706.7" y1="-1362.6" x2="-1531.1" y2="-70.6"/>
			
				<line fill="none" stroke="#000000" stroke-width="0.25" stroke-miterlimit="10" x1="681.7" y1="-1405.9" x2="-1556.1" y2="-113.9"/>
			
				<line fill="none" stroke="#000000" stroke-width="0.25" stroke-miterlimit="10" x1="656.7" y1="-1449.2" x2="-1581.1" y2="-157.2"/>
			
				<line fill="none" stroke="#000000" stroke-width="0.25" stroke-miterlimit="10" x1="631.7" y1="-1492.5" x2="-1606.1" y2="-200.5"/>
		</g>
	</g>
</g>
<g id="Future-Proof_-_BASE" display="none">
	<polyline fill="none" stroke="#32CB87" stroke-width="10" stroke-miterlimit="10" points="261.2,440.8 261.2,495.2 158.7,553.6 
		-47.3,434.5 -47.3,380.1 	"/>
	<line fill="none" stroke="#32CB87" stroke-width="10" stroke-miterlimit="10" x1="158.7" y1="499.2" x2="158.7" y2="553.6"/>
	<polygon fill="none" stroke="#32CB87" stroke-width="10" stroke-miterlimit="10" points="55.3,320.7 -47.3,380.1 158.7,499.2 
		261.2,440.8 	"/>
	<polyline fill="none" stroke="#32CB87" stroke-width="10" stroke-miterlimit="10" points="361.8,326.1 361.8,380.4 259.3,438.8 
		53.3,319.7 53.3,265.4 	"/>
	<line fill="none" stroke="#32CB87" stroke-width="10" stroke-miterlimit="10" x1="259.3" y1="384.5" x2="259.3" y2="438.8"/>
	<polygon fill="none" stroke="#32CB87" stroke-width="10" stroke-miterlimit="10" points="155.9,206 53.3,265.4 259.3,384.5 
		361.8,326.1 	"/>
	
		<polyline display="inline" fill="none" stroke="#32CB87" stroke-width="2" stroke-linejoin="round" stroke-miterlimit="10" points="
		295.5,167.3 295.5,167.3 295.5,167.3 	"/>
	<path display="inline" fill="none" stroke="#32CB87" stroke-width="2" stroke-linejoin="round" stroke-miterlimit="10" d="
		M148.1,82.1"/>
	
		<line display="inline" fill="none" stroke="#32CB87" stroke-width="2" stroke-linejoin="round" stroke-miterlimit="10" x1="295.5" y1="167.3" x2="295.5" y2="167.3"/>
	
		<polyline display="inline" fill="none" stroke="#32CB87" stroke-width="2" stroke-linejoin="round" stroke-miterlimit="10" points="
		222.1,248.1 222.1,248.1 222.1,248.1 	"/>
	<path display="inline" fill="none" stroke="#32CB87" stroke-width="2" stroke-linejoin="round" stroke-miterlimit="10" d="
		M74.6,162.8"/>
	
		<line display="inline" fill="none" stroke="#32CB87" stroke-width="2" stroke-linejoin="round" stroke-miterlimit="10" x1="222.1" y1="248.1" x2="222.1" y2="248.1"/>
	<g display="inline">
		<polygon fill="#B0F2DC" points="368.6,86.6 295.3,128.4 295.5,167.3 368.8,125.4 		"/>
		<polygon fill="#B0F2DC" points="222.1,248.1 295.3,206.5 295.5,167.3 222,209.4 		"/>
		<polygon fill="#B0F2DC" points="149,329.3 222.2,286.8 222.1,248.1 149,290.3 		"/>
	</g>
	
		<polyline display="inline" fill="none" stroke="#32CB87" stroke-width="2" stroke-linejoin="round" stroke-miterlimit="10" points="
		149,329.3 149,329.3 149,329.3 	"/>
	<path display="inline" fill="none" stroke="#32CB87" stroke-width="2" stroke-linejoin="round" stroke-miterlimit="10" d="
		M1.2,243.9"/>
	<path display="inline" fill="#32CB87" d="M369.8,86.6c0-0.1,0-0.1,0-0.2c0,0,0-0.1,0-0.1c0-0.1,0-0.1-0.1-0.2c0,0,0-0.1,0-0.1
		c0-0.1-0.1-0.2-0.2-0.2c0,0,0,0,0,0c-0.1-0.1-0.2-0.1-0.2-0.2c0,0,0,0,0,0L221.8,0.2c-0.4-0.2-0.8-0.2-1.2,0l-73.3,42.4
		c0,0,0,0,0,0c-0.1,0-0.1,0.1-0.2,0.2c0,0,0,0,0,0c-0.1,0.1-0.1,0.1-0.1,0.2c0,0,0,0,0,0.1c0,0.1-0.1,0.1-0.1,0.2c0,0,0,0.1,0,0.1
		c0,0.1,0,0.1,0,0.2c0,0,0,0.1,0,0.1c0,0,0,0,0,0s0,0,0,0l0.1,37.7L74,123.2c0,0,0,0,0,0c0,0,0,0,0,0c0,0-0.1,0.1-0.1,0.1
		c0,0-0.1,0.1-0.1,0.1c0,0-0.1,0.1-0.1,0.1c0,0-0.1,0.1-0.1,0.1c0,0,0,0.1-0.1,0.1c0,0,0,0.1-0.1,0.1c0,0.1,0,0.1,0,0.2
		c0,0,0,0.1,0,0.1c0,0,0,0,0,0s0,0,0,0v38L0.6,204.3c0,0,0,0,0,0c0,0,0,0,0,0c-0.1,0-0.2,0.1-0.2,0.2c0,0,0,0,0,0
		c-0.1,0.1-0.1,0.1-0.2,0.2c0,0,0,0,0,0c0,0,0,0.1-0.1,0.1c0,0,0,0.1-0.1,0.1c0,0,0,0.1,0,0.1c0,0.1,0,0.1,0,0.2c0,0,0,0,0,0
		s0,0,0,0l0.1,38.6c0,0.4,0.2,0.8,0.6,1l147.8,85.4c0.2,0.1,0.4,0.2,0.6,0.2s0.4-0.1,0.6-0.2c0.2-0.1,0.4-0.3,0.5-0.5l72.6-42.2
		c0.3-0.2,0.5-0.5,0.5-0.9l-0.1-37.9l72.8-41.4c0.4-0.2,0.6-0.6,0.6-1l0.3-38.5l72.7-41.6c0.4-0.2,0.6-0.6,0.6-1L369.8,86.6z
		 M367.6,124.7l-70.9,40.6l-0.3-36.2l71-40.4L367.6,124.7z M294.3,169.4l-0.2,36.4l-70.8,40.2l-0.1-35.9L294.3,169.4z M221.2,2.6
		l145,84l-65.5,37.3l-5.4,3.1l-54-31l-91-52.3L221.2,2.6z M294.1,129.1l0.3,36.1l-103-59.6l-42.1-24.3l-0.1-35.7L294.1,129.1z
		 M148,83.4l23,13.3l122.2,70.6L222,208L77,124.2L148,83.4z M75.8,126.3l76.8,44.4l68.2,39.4l0.1,30.6l0,5.3l-145.2-84V126.3z
		 M74.6,164.2l145.1,83.9L149,288.9L3.6,205.3L74.6,164.2z M2.4,243.2l0-35.9L147.8,291l0,36.2L2.4,243.2z M150.2,327.4l0-36.4
		l71-41l0.1,36.1L150.2,327.4z"/>
</g>
<g id="Adaptable" display="none">
	<polyline fill="none" stroke="#32CB87" stroke-width="10" stroke-miterlimit="10" points="261.2,440.8 261.2,495.2 158.7,553.6 
		-47.3,434.5 -47.3,380.1 	"/>
	<line fill="none" stroke="#32CB87" stroke-width="10" stroke-miterlimit="10" x1="158.7" y1="499.2" x2="158.7" y2="553.6"/>
	<polygon fill="none" stroke="#32CB87" stroke-width="10" stroke-miterlimit="10" points="55.3,320.7 -47.3,380.1 158.7,499.2 
		261.2,440.8 	"/>
	<polyline fill="none" stroke="#32CB87" stroke-width="10" stroke-miterlimit="10" points="361.8,326.1 361.8,380.4 259.3,438.8 
		53.3,319.7 53.3,265.4 	"/>
	<line fill="none" stroke="#32CB87" stroke-width="10" stroke-miterlimit="10" x1="259.3" y1="384.5" x2="259.3" y2="438.8"/>
	<polygon fill="none" stroke="#32CB87" stroke-width="10" stroke-miterlimit="10" points="155.9,206 53.3,265.4 259.3,384.5 
		361.8,326.1 	"/>
	
		<rect x="164.2" y="157.9" transform="matrix(0.8671 -0.4981 0.4981 0.8671 -51.4142 123.0407)" display="inline" fill="#FFFFFF" width="81.4" height="0"/>
	<polygon display="inline" fill="#FFFFFF" points="168.4,201.6 168.4,180.2 168.4,180.2 	"/>
	<polygon display="inline" fill="#FFFFFF" points="168.4,180.2 36.3,103.9 168.4,180.2 	"/>
	<rect x="168.4" y="180.2" display="inline" fill="#FFFFFF" width="0" height="0"/>
	<polygon display="inline" fill="#FFFFFF" points="195.4,108.8 197.5,109.9 195.4,108.8 	"/>
	<g display="inline">
		<polygon fill="#B0F2DC" points="220.9,250.2 150.2,291 150.2,327.2 150.2,327.2 221,286.1 220.9,250.2 		"/>
		<polygon fill="#B0F2DC" points="170.8,180.2 170.8,203.3 170.7,216.3 242.2,176.3 241.4,139.6 		"/>
		<polygon fill="#B0F2DC" points="367.4,88.6 296.5,129.1 296.7,165.3 367.6,124.7 		"/>
	</g>
	<polygon display="inline" fill="#FFFFFF" points="228.2,88.9 196.6,70.3 196.6,70.3 	"/>
	
		<rect x="289.9" y="106.8" transform="matrix(0.8689 -0.495 0.495 0.8689 -9.5082 177.7096)" display="inline" fill="#FFFFFF" width="81.7" height="0"/>
	<path display="inline" fill="#32CB87" d="M369.8,86.6c0-0.1,0-0.1,0-0.2c0,0,0-0.1,0-0.1c0-0.1-0.1-0.1-0.1-0.2c0,0,0-0.1,0-0.1
		c-0.1-0.2-0.3-0.3-0.4-0.4c0,0,0,0,0,0c0,0,0,0,0,0L270,28.3c0,0,0,0,0,0v0c0-0.4-0.3-0.8-0.6-1c-0.4-0.2-0.8-0.2-1.2,0
		c-0.4-0.2-0.8-0.2-1.2,0l-73.3,42c0,0,0,0,0,0c0,0,0,0,0,0h0c-0.1,0.1-0.3,0.2-0.4,0.3c0,0-0.1,0.1-0.1,0.1c0,0,0,0.1-0.1,0.1
		c0,0,0,0.1-0.1,0.1c0,0,0,0.1,0,0.1c0,0.1,0,0.1,0,0.2c0,0,0,0,0,0s0,0,0,0v37.1L96.7,51.2c-0.4-0.2-0.8-0.2-1.2,0L22.1,93.7
		c0,0-0.1,0.1-0.1,0.1c0,0-0.1,0.1-0.1,0.1c0,0,0,0,0,0c-0.1,0.1-0.2,0.3-0.3,0.5c0,0,0,0.1,0,0.1c0,0.1,0,0.1,0,0.2v0v38.9
		c0,0.4,0.2,0.8,0.6,1l145.1,83.8l-70.9,41.4c-0.4,0.2-0.6,0.6-0.6,1v38.4c0,0.4,0.2,0.8,0.6,1l52.1,30.1c0,0,0,0,0,0c0,0,0,0,0,0
		c0.1,0,0.2,0.1,0.2,0.1c0,0,0,0,0,0c0.1,0,0.2,0,0.3,0c0.2,0,0.3,0,0.5-0.1c0,0,0.1,0,0.1,0c0,0,0,0,0,0c0,0,0,0,0,0l73.2-42.5
		c0.4-0.2,0.6-0.6,0.6-1l-0.1-38.7c0,0,0,0,0,0c0,0,0,0,0,0c0,0,0-0.1,0-0.1c0-0.1,0-0.1,0-0.2c0,0,0-0.1,0-0.1c0-0.1,0-0.1-0.1-0.2
		c0,0-0.1-0.1-0.1-0.1c0,0-0.1-0.1-0.1-0.1c0,0-0.1-0.1-0.1-0.1c0,0-0.1-0.1-0.1-0.1c0,0,0,0,0,0c0,0,0,0,0,0L172,218.4l72-40.3
		c0.4-0.2,0.6-0.6,0.6-1.1l-0.8-37.8l51.2,29.2c0.1,0,0.1,0.1,0.2,0.1c0,0,0,0,0.1,0c0.1,0,0.2,0,0.3,0c0.1,0,0.2,0,0.3,0
		c0,0,0.1,0,0.1,0c0.1,0,0.1,0,0.2-0.1l0,0c0,0,0,0,0,0s0,0,0,0l73.2-41.9c0.4-0.2,0.6-0.6,0.6-1L369.8,86.6z M220.9,250.2l0.1,35.9
		l-70.8,41.1l0,0l0-36.2L220.9,250.2L220.9,250.2z M149,288.9l-49.6-28.1l70.2-41.1l50.1,28.4L149,288.9z M96.1,53.6l97.4,56.8
		c0,0,0.1,0,0.1,0.1l0,0l0.1,0.1c0,0,0,0,0,0l2.6,1.5l43.9,25.6l0,0l-70.6,40.5l0,0L25.1,94.7L96.1,53.6z M366.2,86.6L366.2,86.6
		l-71,40.4l0,0l-67-38.1l-31.6-18.6l0,0l70.9-40.6L366.2,86.6z M367.6,124.7l-70.9,40.6l-0.3-36.2l71-40.4L367.6,124.7z
		 M168.4,216.3L23.9,132.9V96.8l12.4,7.1l132.1,76.3l0,0v0l0,21.3L168.4,216.3z M170.8,203.3l0-23l70.6-40.6l0.8,36.7l-71.5,40
		L170.8,203.3z M197.5,109.9l-2-1.2v0V72.4L227,90.9l67,38.2l0.1,17.9l0.1,18.2L197.5,109.9z M96.9,299.2v-37l1.2,0.7l49.7,28.1
		l0,37.6L96.9,299.2z"/>
</g>
<g id="Upgradable" display="none">
	<polyline display="inline" fill="#B0F2DC" points="369.2,203 368.6,86.6 295.3,128.4 295.5,167.3 222,209.4 222.1,248.1 149,290.3 
		149,329.3 149,329.3 149,329.3 	"/>
	
		<polyline display="inline" fill="none" stroke="#32CB87" stroke-width="2" stroke-linejoin="round" stroke-miterlimit="10" points="
		295.8,244.7 295.8,244.7 295.8,244.8 	"/>
	<path display="inline" fill="none" stroke="#32CB87" stroke-width="2" stroke-linejoin="round" stroke-miterlimit="10" d="
		M148.4,159.3"/>
	
		<line display="inline" fill="none" stroke="#32CB87" stroke-width="2" stroke-linejoin="round" stroke-miterlimit="10" x1="295.8" y1="244.8" x2="295.8" y2="244.7"/>
	
		<polyline display="inline" fill="none" stroke="#32CB87" stroke-width="2" stroke-linejoin="round" stroke-miterlimit="10" points="
		295.8,205.8 295.8,205.8 295.8,205.8 	"/>
	<path display="inline" fill="none" stroke="#32CB87" stroke-width="2" stroke-linejoin="round" stroke-miterlimit="10" d="
		M148.4,120.4"/>
	
		<line display="inline" fill="none" stroke="#32CB87" stroke-width="2" stroke-linejoin="round" stroke-miterlimit="10" x1="295.8" y1="205.8" x2="295.8" y2="205.8"/>
	
		<polyline display="inline" fill="none" stroke="#32CB87" stroke-width="2" stroke-linejoin="round" stroke-miterlimit="10" points="
		222.2,286.8 222.2,286.8 222.2,286.8 	"/>
	<path display="inline" fill="none" stroke="#32CB87" stroke-width="2" stroke-linejoin="round" stroke-miterlimit="10" d="
		M74.8,201.2"/>
	
		<line display="inline" fill="none" stroke="#32CB87" stroke-width="2" stroke-linejoin="round" stroke-miterlimit="10" x1="222.2" y1="286.8" x2="222.2" y2="286.8"/>
	
		<polyline display="inline" fill="none" stroke="#32CB87" stroke-width="2" stroke-linejoin="round" stroke-miterlimit="10" points="
		295.5,167.3 295.5,167.3 295.5,167.3 	"/>
	<path display="inline" fill="none" stroke="#32CB87" stroke-width="2" stroke-linejoin="round" stroke-miterlimit="10" d="
		M148.1,82.1"/>
	
		<polyline display="inline" fill="none" stroke="#32CB87" stroke-width="2" stroke-linejoin="round" stroke-miterlimit="10" points="
		222.1,248.1 222.1,248.1 222.1,248.1 	"/>
	<path display="inline" fill="none" stroke="#32CB87" stroke-width="2" stroke-linejoin="round" stroke-miterlimit="10" d="
		M74.6,162.8"/>
	<path display="inline" fill="none" stroke="#32CB87" stroke-width="2" stroke-linejoin="round" stroke-miterlimit="10" d="
		M1.2,243.9"/>
	<path display="inline" fill="#32CB87" d="M370.2,164l-0.4-38.7c0,0,0,0,0,0l-0.2-38.1c0.1-0.2,0.2-0.4,0.2-0.6c0-0.4-0.2-0.8-0.6-1
		L221.8,0.2c-0.4-0.2-0.8-0.2-1.2,0l-73.3,42.4c0,0,0,0,0,0c-0.1,0-0.1,0.1-0.2,0.2c0,0,0,0,0,0c-0.1,0.1-0.1,0.1-0.1,0.2
		c0,0,0,0,0,0.1c0,0.1-0.1,0.1-0.1,0.2c0,0,0,0.1,0,0.1c0,0.1,0,0.1,0,0.2c0,0,0,0.1,0,0.1c0,0,0,0,0,0s0,0,0,0l0.1,37.7L74,123.2
		c0,0,0,0,0,0c0,0,0,0,0,0c0,0-0.1,0.1-0.1,0.1c0,0-0.1,0.1-0.1,0.1c0,0-0.1,0.1-0.1,0.1c0,0-0.1,0.1-0.1,0.1c0,0,0,0.1-0.1,0.1
		c0,0,0,0.1-0.1,0.1c0,0.1,0,0.1,0,0.2c0,0,0,0.1,0,0.1c0,0,0,0,0,0s0,0,0,0v38L0.6,204.3c0,0,0,0,0,0c0,0,0,0,0,0
		c-0.1,0-0.2,0.1-0.2,0.2c0,0,0,0,0,0c-0.1,0.1-0.1,0.1-0.2,0.2c0,0,0,0,0,0c0,0,0,0.1-0.1,0.1c0,0,0,0.1-0.1,0.1c0,0,0,0.1,0,0.1
		c0,0.1,0,0.1,0,0.2c0,0,0,0,0,0s0,0,0,0l0.1,38.6c0,0.4,0.2,0.8,0.6,1l147.8,85.4c0.2,0.1,0.4,0.2,0.6,0.2s0.4-0.1,0.6-0.2
		c0.2-0.1,0.4-0.3,0.5-0.5l72.6-42.2l73.3-41.9c0,0,0,0,0,0c0.1,0,0.2-0.1,0.3-0.1l73.3-41.8c0.3-0.2,0.5-0.5,0.5-0.9V164
		C370.2,164.1,370.2,164.1,370.2,164C370.2,164.1,370.2,164,370.2,164z M367.6,88.5l0.2,36.3l-71.1,40.7l-0.3-36.4L367.6,88.5z
		 M221.2,2.6l145,84l-71,40.4l-54-31l-91-52.3L221.2,2.6z M294.1,129.1l0.3,36.1l-103-59.6l-42.1-24.3l-0.1-35.7L294.1,129.1z
		 M294.3,205.5l-71,40.7l-0.1-36.2l71.4-40.8L294.3,205.5z M150.2,291l71-41l0.1,36.1l-71,41.3L150.2,291z M148,83.4l23,13.3
		l122.2,70.6L222,208L77,124.2L148,83.4z M75.8,126.3l76.8,44.4l68.2,39.4l0.1,35.9l-145.2-84V126.3z M74.6,164.2l145.1,83.9
		L149,288.9L3.6,205.3L74.6,164.2z M2.4,243.2l0-35.9L147.8,291l0,36.2L2.4,243.2z M294.5,244.3L223.2,285l-0.1-36.3c0,0,0,0,0,0
		c0,0,0,0,0,0l71.3-40.5V244.3z M296.6,167.9C296.6,167.9,296.6,167.9,296.6,167.9C296.6,167.9,296.6,167.9,296.6,167.9l71.3-40.8
		l0.3,36.4l-71.3,40.6L296.6,167.9z M368.2,202.4L296.8,243v-36.6l71.3-40.6V202.4z"/>
</g>
<g id="Composable">
	<polygon fill="none" points="170.6,227.4 178.6,222.8 178.6,214.5 170.7,219.1 	"/>
	<polygon fill="none" points="198.3,103.1 191.7,106.9 191.7,116.5 198.1,112.9 	"/>
	<polygon fill="none" points="251.2,142.3 251.2,134 243.7,138.3 243.7,146.6 	"/>
	<polygon fill="none" points="125,184.1 118.3,187.9 118.3,197.1 125,193.3 	"/>
	<g>
		<path fill="#B0F2DC" d="M198.9,73.6c0-0.1,0-0.1,0-0.2c0,0,0-0.1,0-0.1c0-0.1,0-0.1,0.1-0.2c0,0,0-0.1,0.1-0.1
			c0,0,0.1-0.1,0.1-0.1c0,0,0.1-0.1,0.1-0.1c0,0,0.1-0.1,0.1-0.1c0,0,0.1-0.1,0.1-0.1L262,37.2V28L191,68.4v36.1l7.3-4.2L198.9,73.6
			z"/>
		<path fill="#B0F2DC" d="M243.7,135.6l7.5-4.4V104v0c0-0.1,0-0.2,0-0.2c0,0,0-0.1,0-0.1c0-0.1,0.1-0.2,0.1-0.2c0,0,0,0,0-0.1
			c0-0.1,0.1-0.1,0.1-0.2c0,0,0.1,0,0.1-0.1c0,0,0.1-0.1,0.2-0.1c0,0,0,0,0,0c0,0,0,0,0,0l62.1-35.6v-9.6L243,98.3L243.7,135.6z"/>
		<polygon fill="#B0F2DC" points="367.4,88.6 296.5,129.1 296.7,165.3 367.6,124.7 		"/>
		<path fill="#B0F2DC" d="M116,189.2l-70.8,41.3l0.2,35.7l6.7-3.9l0.6-26.6c0,0,0-0.1,0-0.1c0-0.1,0-0.1,0-0.2c0,0,0-0.1,0.1-0.1
			c0,0,0-0.1,0.1-0.1c0,0,0.1-0.1,0.1-0.1c0,0,0.1-0.1,0.1-0.1c0,0,0.1-0.1,0.1-0.1c0,0,0.1-0.1,0.1-0.1l62.8-36.3V189.2z"/>
		<path fill="#B0F2DC" d="M168.3,220.4L119,248.1l-22,12.4v36.1l8.3-4.7v-26.2c0,0,0,0,0,0c0,0,0,0,0,0c0,0,0-0.1,0-0.1
			c0-0.1,0-0.1,0-0.2c0,0,0-0.1,0-0.1c0-0.1,0-0.1,0.1-0.2c0,0,0,0,0-0.1c0-0.1,0.1-0.1,0.1-0.2c0,0,0,0,0,0
			c0.1-0.1,0.2-0.1,0.2-0.2c0,0,0,0,0,0l62.4-35.8L168.3,220.4z"/>
		<polygon fill="#B0F2DC" points="150.2,291 150.2,327.2 221,286.1 220.9,250.2 		"/>
		<path fill="#B0F2DC" d="M125,154.5v-0.4c0-0.4,0.2-0.8,0.6-1c0.3-0.2,0.6-0.2,0.9-0.1l62.7-35.1v-9.3L118.3,149v36.1l6.7-3.8
			V154.5z"/>
		<path fill="#B0F2DC" d="M178.6,185L178.6,185c0-0.1,0-0.1,0-0.2c0,0,0-0.1,0-0.1c0-0.1,0.1-0.2,0.1-0.3c0,0,0,0,0,0
			c0-0.1,0.1-0.2,0.2-0.2c0,0,0.1-0.1,0.1-0.1c0,0,0.1-0.1,0.1-0.1c0,0,0,0,0,0c0,0,0,0,0,0l62.2-36l0-8.3l-70.6,40.5l0,21l0,15.1
			l7.8-4.5L178.6,185C178.6,185,178.6,185,178.6,185C178.6,185,178.6,185,178.6,185z"/>
		<polygon fill="#B0F2DC" points="288.2,172.8 223.8,209.1 223.3,246 294.8,204.8 294.4,169.3 		"/>
	</g>
	<path fill="#32CB87" d="M369.8,86.6c0-0.1,0-0.1,0-0.2c0,0,0-0.1,0-0.1c0-0.1,0-0.1-0.1-0.2c0,0,0-0.1-0.1-0.1
		c-0.1-0.2-0.3-0.3-0.4-0.4c0,0,0,0,0,0l-42.8-24.7c-0.4-0.2-0.8-0.2-1.2,0l-9,5.1V55.7v0c0,0,0-0.1,0-0.1c0-0.1,0-0.1,0-0.2
		c0,0,0-0.1,0-0.1c0-0.1,0-0.1-0.1-0.2c0,0,0-0.1-0.1-0.1c0-0.1-0.1-0.1-0.1-0.2c0,0-0.1,0-0.1-0.1c-0.1,0-0.1-0.1-0.2-0.1l-41.2-24
		c-0.4-0.2-0.8-0.2-1.2,0l-9,5.1v-9.9v0c0,0,0-0.1,0-0.1c0-0.1,0-0.1,0-0.2c0,0,0-0.1-0.1-0.1c0-0.1,0-0.1-0.1-0.2
		c0-0.1-0.1-0.1-0.1-0.1c0,0,0-0.1-0.1-0.1c-0.1-0.1-0.1-0.1-0.2-0.2c0,0,0,0-0.1,0l0,0c0,0,0,0,0,0c0,0,0,0,0,0L221.8,0.2
		c-0.4-0.2-0.8-0.2-1.2,0l-73.3,42.4c0,0,0,0,0,0c0,0,0,0,0,0c-0.1,0-0.1,0.1-0.2,0.1c0,0-0.1,0-0.1,0.1c0,0-0.1,0.1-0.1,0.2
		c0,0,0,0.1-0.1,0.1c0,0.1-0.1,0.1-0.1,0.2c0,0,0,0,0,0.1c0,0.1,0,0.1,0,0.2c0,0,0,0.1,0,0.1c0,0,0,0,0,0c0,0,0,0,0,0l0.1,37.7
		l-73.2,42.6c0,0,0,0,0,0c0,0,0,0,0,0c-0.1,0-0.1,0.1-0.2,0.2c0,0,0,0,0,0c-0.1,0.1-0.1,0.2-0.2,0.2c0,0,0,0,0,0.1
		c0,0.1-0.1,0.1-0.1,0.2c0,0,0,0.1,0,0.1c0,0.1,0,0.1,0,0.2v0v37.5L0.6,204.3c0,0,0,0,0,0c0,0,0,0,0,0c0,0,0,0-0.1,0.1
		c-0.1,0-0.1,0.1-0.2,0.1c0,0-0.1,0.1-0.1,0.1c0,0-0.1,0.1-0.1,0.1c0,0.1-0.1,0.1-0.1,0.2c0,0,0,0,0,0.1c0,0.1,0,0.1,0,0.2
		c0,0,0,0.1,0,0.1c0,0,0,0,0,0c0,0,0,0,0,0l0.1,38.6c0,0.4,0.2,0.8,0.6,1l42,23.6v0c0,0.4,0.2,0.8,0.6,1c0.2,0.1,0.4,0.2,0.6,0.2
		c0.2,0,0.4-0.1,0.6-0.2l7.5-4.3l-0.2,8.5c0,0.4,0.2,0.8,0.6,1.1l42.9,24.8c0,0,0,0,0,0c0,0,0,0,0,0l0,0c0,0,0.1,0,0.1,0
		c0.2,0.1,0.3,0.1,0.5,0.1c0.1,0,0.2,0,0.3,0c0,0,0.1,0,0.1,0c0.1,0,0.1,0,0.2-0.1l0,0c0,0,0,0,0,0c0,0,0,0,0,0l8.8-5v9.9
		c0,0.4,0.2,0.8,0.6,1l42.6,24.8c0,0,0,0,0,0c0,0,0,0,0,0c0.1,0,0.1,0.1,0.2,0.1c0,0,0,0,0.1,0c0.1,0,0.2,0,0.3,0c0.1,0,0.2,0,0.3,0
		c0,0,0.1,0,0.1,0c0.1,0,0.1,0,0.2-0.1c0,0,0,0,0,0c0,0,0,0,0,0l73.2-42.5c0.4-0.2,0.6-0.6,0.6-1l-0.1-38l73.3-42.3
		c0.4-0.2,0.6-0.6,0.6-1l-0.4-37.5l72.7-41.6c0.4-0.2,0.6-0.6,0.6-1L369.8,86.6z M107.6,303.8v-10.6v-1.4v-1.4v-22.8l19.8,11.5
		l1.2,0.7l1.2,0.7l17.9,10.4l0,36.2L107.6,303.8z M2.4,207.4l40.3,23.2l0,0l0.2,35.4l-0.3-0.2L2.4,243.2L2.4,207.4z M76.7,124.9
		L148,83.4l0,0l40,23.1l-0.3,0.2L117.1,147l0,0l-2.1-1.1L76.7,124.9z M221.2,2.6l39.5,23.3l-70.9,40.4l-39.5-22.7L221.2,2.6z
		 M366.2,86.6l-71,40.4l0,0l-16.2-9.2l-1.2-0.7l-1.2-0.7L254.8,104l59.1-33.9l1.2-0.7l1.2-0.7l9.5-5.5L366.2,86.6L366.2,86.6z
		 M367.6,124.7l-70.9,40.6l-0.3-36.2l71-40.4L367.6,124.7z M221,286.1l-70.8,41.1l0-36.2l70.8-40.8L221,286.1z M149,288.9L149,288.9
		l-16.7-9.7l-1.2-0.7l-1.2-0.7l-21-12.2l59.4-34.1l1.2-0.7l1.2-0.7l9.2-5.3l4.6,2.7l35.3,20.5l0,0L149,288.9z M95.8,258.4
		L95.8,258.4l-16.2-9.2l-1.2-0.7l-1.2-0.7l-21-12l59.8-34.6l1.2-0.7l1.2-0.7l7.3-4.2c0,0,0,0,0,0l41.4,22.7l-32.8,18.4L95.8,258.4z
		 M149.1,45.7l39.5,22.7v35.7l-39.4-22.8L149.1,45.7z M200.7,100.3l0-1.4l0.5-23.2l20,11.5l1.2,0.7l1.2,0.7l16.9,9.7l0.7,37.2
		l-40.8-22.6l0.2-11.2L200.7,100.3z M253.6,131.2v-1.4v-23.7l20.7,11.8l1.2,0.7l1.2,0.7l17.4,9.9l0.2,21.5l0.1,14.6l0,0l-40.6-23.7
		c0,0-0.1,0-0.2-0.1v-8.9V131.2z M179.2,184C179.2,184,179.2,184,179.2,184C179.1,184,179.1,184,179.2,184c-0.1,0-0.1,0.1-0.2,0.1
		c0,0-0.1,0-0.1,0.1c-0.1,0.1-0.1,0.1-0.2,0.2c0,0,0,0,0,0c-0.1,0.1-0.1,0.2-0.1,0.3c0,0,0,0.1,0,0.1c0,0.1,0,0.1,0,0.2v0
		c0,0,0,0,0,0s0,0,0,0l0,26.7l-7.8,4.5l0-15.1l0-21l70.6-40.5l0,8.3L179.2,184z M199.3,115l40.8,22.6l-27.5,15.8l-43,24.7l0,0
		l-16.8-9.9l-1.2-0.7l-1.2-0.7L129,154.3l60.3-33.7l1.2-0.7l1.2-0.7L199.3,115z M127.4,193.1v-10.4v-1.4V180v-23.4v-0.4l20.6,12.1
		l1.2,0.7l1.2,0.7l18,10.6l0,0v0l0,24.9l0,11.2l0,0l-40.9-22.4V193.1z M189.3,117.9l-62.7,35.1c-0.3-0.1-0.6-0.1-0.9,0.1
		c-0.4,0.2-0.6,0.6-0.6,1v0.4v26.9l-6.7,3.8V149l70.9-40.4V117.9z M220.9,246L220.9,246l-32.2-18.7l-7.7-4.5v0l0-9.7l0-1.4l0-1.4
		l0-23.4l20.8,11.3l1.2,0.7l1.2,0.7l6,3.2l11.3,6.1l0,0v0L220.9,246z M251.2,142.3l-7.5,4.4l0-8.3l7.5-4.3V142.3z M198.1,112.9
		l-6.4,3.6v-9.7l6.6-3.8L198.1,112.9z M118.3,187.9l6.7-3.8v9.2l-6.7,3.9V187.9z M170.7,219.1l7.9-4.5l0,8.3l-8,4.6L170.7,219.1z
		 M222.6,207L222.6,207l-16-8.7l-1.2-0.7l-1.2-0.7l-13.2-7.2l-8.7-4.8l59.1-34.2l1.2-0.7l1.2-0.7l8.5-4.9l1-0.6l40,23.4h0l0,0
		L222.6,207z M116,185.1L116,185.1l-40.5-22v-0.8V127v0L116,149V185.1z M313.9,67.4L251.8,103c0,0,0,0,0,0c0,0,0,0,0,0
		c-0.1,0-0.1,0.1-0.2,0.1c0,0-0.1,0-0.1,0.1c-0.1,0.1-0.1,0.1-0.1,0.2c0,0,0,0,0,0.1c0,0.1-0.1,0.1-0.1,0.2c0,0,0,0.1,0,0.1
		c0,0.1,0,0.2,0,0.2v0v27.2l-7.5,4.4L243,98.3l70.9-40.5V67.4z M241.8,96.3l-15.7-9l-1.2-0.7l-1.2-0.7l-21.2-12.2L262,39.9l1.2-0.7
		l1.2-0.7l9.6-5.4l38.8,22.6L241.8,96.3z M262,37.2l-62.4,35.5c0,0-0.1,0.1-0.1,0.1c0,0-0.1,0.1-0.1,0.1c0,0-0.1,0.1-0.1,0.1
		c0,0-0.1,0.1-0.1,0.1c0,0,0,0.1-0.1,0.1c0,0.1-0.1,0.1-0.1,0.2c0,0,0,0.1,0,0.1c0,0.1,0,0.1,0,0.2l-0.6,26.7l-7.3,4.2V68.4L262,28
		V37.2z M73.7,164.9C73.7,164.9,73.7,164.9,73.7,164.9l41,22.3l0,0l-70.8,41.3l-0.7-0.4L3.6,205.3L73.7,164.9z M45.3,266.3
		l-0.2-35.7l70.8-41.3v9.3l-62.8,36.3c0,0-0.1,0.1-0.1,0.1c0,0-0.1,0.1-0.1,0.1c0,0-0.1,0.1-0.1,0.1c0,0-0.1,0.1-0.1,0.1
		c0,0,0,0.1-0.1,0.1c0,0,0,0.1-0.1,0.1c0,0.1,0,0.1,0,0.2c0,0,0,0.1,0,0.1L52,262.4L45.3,266.3z M54.3,263.8l0-1.4l0-1.4l0.5-23.1
		l16.8,9.6l3.1,1.7l1.2,0.7l1.2,0.7l17.4,9.9v0v36.1l-40.5-23.5L54.3,263.8z M97,260.5l22-12.4l49.3-27.7l-0.1,8.4l-62.4,35.8
		c0,0,0,0,0,0c-0.1,0.1-0.2,0.1-0.2,0.2c0,0,0,0,0,0c-0.1,0.1-0.1,0.1-0.1,0.2c0,0,0,0,0,0.1c0,0.1-0.1,0.1-0.1,0.2c0,0,0,0.1,0,0.1
		c0,0.1,0,0.1,0,0.2c0,0,0,0.1,0,0.1c0,0,0,0,0,0c0,0,0,0,0,0v26.2l-8.3,4.7V260.5z M223.8,209.1l64.3-36.3l6.2-3.5l0.4,35.5
		L223.3,246L223.8,209.1z"/>
</g>
</svg>
