<?xml version="1.0" encoding="utf-8"?>
<!-- Generator: Adobe Illustrator 25.2.1, SVG Export Plug-In . SVG Version: 6.00 Build 0)  -->
<svg version="1.1" xmlns="http://www.w3.org/2000/svg" xmlns:xlink="http://www.w3.org/1999/xlink" x="0px" y="0px"
	 viewBox="0 0 417.2 263.9" enable-background="new 0 0 417.2 263.9" xml:space="preserve">
<g id="Grid" display="none" opacity="0.25">
	<g display="inline">
		<defs>
			<rect id="SVGID_1_" x="-222.1" y="-280" width="799" height="800"/>
		</defs>
		<clipPath id="SVGID_2_">
			<use xlink:href="#SVGID_1_"  overflow="visible"/>
		</clipPath>
		<g clip-path="url(#SVGID_2_)">
			
				<line fill="none" stroke="#000000" stroke-width="0.25" stroke-miterlimit="10" x1="-1171.6" y1="-1172.5" x2="-1171.6" y2="1411.5"/>
			
				<line fill="none" stroke="#000000" stroke-width="0.25" stroke-miterlimit="10" x1="-1121.6" y1="-1172.5" x2="-1121.6" y2="1411.5"/>
			
				<line fill="none" stroke="#000000" stroke-width="0.25" stroke-miterlimit="10" x1="-1071.6" y1="-1172.5" x2="-1071.6" y2="1411.5"/>
			
				<line fill="none" stroke="#000000" stroke-width="0.25" stroke-miterlimit="10" x1="-1021.6" y1="-1172.5" x2="-1021.6" y2="1411.5"/>
			
				<line fill="none" stroke="#000000" stroke-width="0.25" stroke-miterlimit="10" x1="-971.6" y1="-1172.5" x2="-971.6" y2="1411.5"/>
			
				<line fill="none" stroke="#000000" stroke-width="0.25" stroke-miterlimit="10" x1="-921.6" y1="-1172.5" x2="-921.6" y2="1411.5"/>
			
				<line fill="none" stroke="#000000" stroke-width="0.25" stroke-miterlimit="10" x1="-871.6" y1="-1172.5" x2="-871.6" y2="1411.5"/>
			
				<line fill="none" stroke="#000000" stroke-width="0.25" stroke-miterlimit="10" x1="-821.6" y1="-1172.5" x2="-821.6" y2="1411.5"/>
			
				<line fill="none" stroke="#000000" stroke-width="0.25" stroke-miterlimit="10" x1="-771.6" y1="-1172.5" x2="-771.6" y2="1411.5"/>
			
				<line fill="none" stroke="#000000" stroke-width="0.25" stroke-miterlimit="10" x1="-721.6" y1="-1172.5" x2="-721.6" y2="1411.5"/>
			
				<line fill="none" stroke="#000000" stroke-width="0.25" stroke-miterlimit="10" x1="-671.6" y1="-1172.5" x2="-671.6" y2="1411.5"/>
			
				<line fill="none" stroke="#000000" stroke-width="0.25" stroke-miterlimit="10" x1="-621.6" y1="-1172.5" x2="-621.6" y2="1411.5"/>
			
				<line fill="none" stroke="#000000" stroke-width="0.25" stroke-miterlimit="10" x1="-571.6" y1="-1172.5" x2="-571.6" y2="1411.5"/>
			
				<line fill="none" stroke="#000000" stroke-width="0.25" stroke-miterlimit="10" x1="-521.6" y1="-1172.5" x2="-521.6" y2="1411.5"/>
			
				<line fill="none" stroke="#000000" stroke-width="0.25" stroke-miterlimit="10" x1="-471.6" y1="-1172.5" x2="-471.6" y2="1411.5"/>
			
				<line fill="none" stroke="#000000" stroke-width="0.25" stroke-miterlimit="10" x1="-421.6" y1="-1172.5" x2="-421.6" y2="1411.5"/>
			
				<line fill="none" stroke="#000000" stroke-width="0.25" stroke-miterlimit="10" x1="-371.6" y1="-1172.5" x2="-371.6" y2="1411.5"/>
			
				<line fill="none" stroke="#000000" stroke-width="0.25" stroke-miterlimit="10" x1="-321.6" y1="-1172.5" x2="-321.6" y2="1411.5"/>
			
				<line fill="none" stroke="#000000" stroke-width="0.25" stroke-miterlimit="10" x1="-271.6" y1="-1172.5" x2="-271.6" y2="1411.5"/>
			
				<line fill="none" stroke="#000000" stroke-width="0.25" stroke-miterlimit="10" x1="-221.6" y1="-1172.5" x2="-221.6" y2="1411.5"/>
			
				<line fill="none" stroke="#000000" stroke-width="0.25" stroke-miterlimit="10" x1="-171.6" y1="-1172.5" x2="-171.6" y2="1411.5"/>
			
				<line fill="none" stroke="#000000" stroke-width="0.25" stroke-miterlimit="10" x1="-121.6" y1="-1172.5" x2="-121.6" y2="1411.5"/>
			
				<line fill="none" stroke="#000000" stroke-width="0.25" stroke-miterlimit="10" x1="-71.6" y1="-1172.5" x2="-71.6" y2="1411.5"/>
			
				<line fill="none" stroke="#000000" stroke-width="0.25" stroke-miterlimit="10" x1="-21.6" y1="-1172.5" x2="-21.6" y2="1411.5"/>
			<line fill="none" stroke="#000000" stroke-width="0.25" stroke-miterlimit="10" x1="28.4" y1="-1172.5" x2="28.4" y2="1411.5"/>
			<line fill="none" stroke="#000000" stroke-width="0.25" stroke-miterlimit="10" x1="78.4" y1="-1172.5" x2="78.4" y2="1411.5"/>
			
				<line fill="none" stroke="#000000" stroke-width="0.25" stroke-miterlimit="10" x1="128.4" y1="-1172.5" x2="128.4" y2="1411.5"/>
			
				<line fill="none" stroke="#000000" stroke-width="0.25" stroke-miterlimit="10" x1="178.4" y1="-1172.5" x2="178.4" y2="1411.5"/>
			
				<line fill="none" stroke="#000000" stroke-width="0.25" stroke-miterlimit="10" x1="228.4" y1="-1172.5" x2="228.4" y2="1411.5"/>
			
				<line fill="none" stroke="#000000" stroke-width="0.25" stroke-miterlimit="10" x1="278.4" y1="-1172.5" x2="278.4" y2="1411.5"/>
			
				<line fill="none" stroke="#000000" stroke-width="0.25" stroke-miterlimit="10" x1="328.4" y1="-1172.5" x2="328.4" y2="1411.5"/>
			
				<line fill="none" stroke="#000000" stroke-width="0.25" stroke-miterlimit="10" x1="378.4" y1="-1172.5" x2="378.4" y2="1411.5"/>
			
				<line fill="none" stroke="#000000" stroke-width="0.25" stroke-miterlimit="10" x1="428.4" y1="-1172.5" x2="428.4" y2="1411.5"/>
			
				<line fill="none" stroke="#000000" stroke-width="0.25" stroke-miterlimit="10" x1="478.4" y1="-1172.5" x2="478.4" y2="1411.5"/>
			
				<line fill="none" stroke="#000000" stroke-width="0.25" stroke-miterlimit="10" x1="528.4" y1="-1172.5" x2="528.4" y2="1411.5"/>
			
				<line fill="none" stroke="#000000" stroke-width="0.25" stroke-miterlimit="10" x1="578.4" y1="-1172.5" x2="578.4" y2="1411.5"/>
			
				<line fill="none" stroke="#000000" stroke-width="0.25" stroke-miterlimit="10" x1="628.4" y1="-1172.5" x2="628.4" y2="1411.5"/>
			
				<line fill="none" stroke="#000000" stroke-width="0.25" stroke-miterlimit="10" x1="678.4" y1="-1172.5" x2="678.4" y2="1411.5"/>
			
				<line fill="none" stroke="#000000" stroke-width="0.25" stroke-miterlimit="10" x1="728.4" y1="-1172.5" x2="728.4" y2="1411.5"/>
			
				<line fill="none" stroke="#000000" stroke-width="0.25" stroke-miterlimit="10" x1="778.4" y1="-1172.5" x2="778.4" y2="1411.5"/>
			
				<line fill="none" stroke="#000000" stroke-width="0.25" stroke-miterlimit="10" x1="828.4" y1="-1172.5" x2="828.4" y2="1411.5"/>
			
				<line fill="none" stroke="#000000" stroke-width="0.25" stroke-miterlimit="10" x1="878.4" y1="-1172.5" x2="878.4" y2="1411.5"/>
			
				<line fill="none" stroke="#000000" stroke-width="0.25" stroke-miterlimit="10" x1="928.4" y1="-1172.5" x2="928.4" y2="1411.5"/>
			
				<line fill="none" stroke="#000000" stroke-width="0.25" stroke-miterlimit="10" x1="978.4" y1="-1172.5" x2="978.4" y2="1411.5"/>
			
				<line fill="none" stroke="#000000" stroke-width="0.25" stroke-miterlimit="10" x1="1028.4" y1="-1172.5" x2="1028.4" y2="1411.5"/>
			
				<line fill="none" stroke="#000000" stroke-width="0.25" stroke-miterlimit="10" x1="1078.4" y1="-1172.5" x2="1078.4" y2="1411.5"/>
			
				<line fill="none" stroke="#000000" stroke-width="0.25" stroke-miterlimit="10" x1="1128.4" y1="-1172.5" x2="1128.4" y2="1411.5"/>
			
				<line fill="none" stroke="#000000" stroke-width="0.25" stroke-miterlimit="10" x1="1178.4" y1="-1172.5" x2="1178.4" y2="1411.5"/>
			
				<line fill="none" stroke="#000000" stroke-width="0.25" stroke-miterlimit="10" x1="1228.4" y1="-1172.5" x2="1228.4" y2="1411.5"/>
			
				<line fill="none" stroke="#000000" stroke-width="0.25" stroke-miterlimit="10" x1="1278.4" y1="-1172.5" x2="1278.4" y2="1411.5"/>
			
				<line fill="none" stroke="#000000" stroke-width="0.25" stroke-miterlimit="10" x1="1328.4" y1="-1172.5" x2="1328.4" y2="1411.5"/>
			
				<line fill="none" stroke="#000000" stroke-width="0.25" stroke-miterlimit="10" x1="1378.4" y1="-1172.5" x2="1378.4" y2="1411.5"/>
			
				<line fill="none" stroke="#000000" stroke-width="0.25" stroke-miterlimit="10" x1="1428.4" y1="-1172.5" x2="1428.4" y2="1411.5"/>
			
				<line fill="none" stroke="#000000" stroke-width="0.25" stroke-miterlimit="10" x1="1478.4" y1="-1172.5" x2="1478.4" y2="1411.5"/>
			
				<line fill="none" stroke="#000000" stroke-width="0.25" stroke-miterlimit="10" x1="1528.4" y1="-1172.5" x2="1528.4" y2="1411.5"/>
		</g>
		<g clip-path="url(#SVGID_2_)">
			
				<line fill="none" stroke="#000000" stroke-width="0.25" stroke-miterlimit="10" x1="-1615.5" y1="642.6" x2="622.3" y2="1934.6"/>
			
				<line fill="none" stroke="#000000" stroke-width="0.25" stroke-miterlimit="10" x1="-1590.5" y1="599.3" x2="647.3" y2="1891.3"/>
			<line fill="none" stroke="#000000" stroke-width="0.25" stroke-miterlimit="10" x1="-1565.5" y1="556" x2="672.3" y2="1848"/>
			
				<line fill="none" stroke="#000000" stroke-width="0.25" stroke-miterlimit="10" x1="-1540.5" y1="512.7" x2="697.3" y2="1804.7"/>
			
				<line fill="none" stroke="#000000" stroke-width="0.25" stroke-miterlimit="10" x1="-1515.5" y1="469.4" x2="722.3" y2="1761.4"/>
			
				<line fill="none" stroke="#000000" stroke-width="0.25" stroke-miterlimit="10" x1="-1490.5" y1="426.1" x2="747.3" y2="1718.1"/>
			
				<line fill="none" stroke="#000000" stroke-width="0.25" stroke-miterlimit="10" x1="-1465.5" y1="382.8" x2="772.3" y2="1674.8"/>
			
				<line fill="none" stroke="#000000" stroke-width="0.25" stroke-miterlimit="10" x1="-1440.5" y1="339.5" x2="797.3" y2="1631.5"/>
			
				<line fill="none" stroke="#000000" stroke-width="0.25" stroke-miterlimit="10" x1="-1415.5" y1="296.2" x2="822.3" y2="1588.2"/>
			
				<line fill="none" stroke="#000000" stroke-width="0.25" stroke-miterlimit="10" x1="-1390.5" y1="252.9" x2="847.3" y2="1544.9"/>
			
				<line fill="none" stroke="#000000" stroke-width="0.25" stroke-miterlimit="10" x1="-1365.5" y1="209.6" x2="872.3" y2="1501.6"/>
			
				<line fill="none" stroke="#000000" stroke-width="0.25" stroke-miterlimit="10" x1="-1340.5" y1="166.3" x2="897.3" y2="1458.3"/>
			<line fill="none" stroke="#000000" stroke-width="0.25" stroke-miterlimit="10" x1="-1315.5" y1="123" x2="922.3" y2="1415"/>
			<line fill="none" stroke="#000000" stroke-width="0.25" stroke-miterlimit="10" x1="-1290.5" y1="79.7" x2="947.3" y2="1371.7"/>
			<line fill="none" stroke="#000000" stroke-width="0.25" stroke-miterlimit="10" x1="-1265.5" y1="36.4" x2="972.3" y2="1328.4"/>
			<line fill="none" stroke="#000000" stroke-width="0.25" stroke-miterlimit="10" x1="-1240.5" y1="-6.9" x2="997.3" y2="1285.1"/>
			
				<line fill="none" stroke="#000000" stroke-width="0.25" stroke-miterlimit="10" x1="-1215.5" y1="-50.2" x2="1022.3" y2="1241.8"/>
			
				<line fill="none" stroke="#000000" stroke-width="0.25" stroke-miterlimit="10" x1="-1190.5" y1="-93.5" x2="1047.3" y2="1198.5"/>
			
				<line fill="none" stroke="#000000" stroke-width="0.25" stroke-miterlimit="10" x1="-1165.5" y1="-136.8" x2="1072.3" y2="1155.2"/>
			
				<line fill="none" stroke="#000000" stroke-width="0.25" stroke-miterlimit="10" x1="-1140.5" y1="-180.1" x2="1097.3" y2="1111.9"/>
			
				<line fill="none" stroke="#000000" stroke-width="0.25" stroke-miterlimit="10" x1="-1115.5" y1="-223.4" x2="1122.3" y2="1068.6"/>
			
				<line fill="none" stroke="#000000" stroke-width="0.25" stroke-miterlimit="10" x1="-1090.5" y1="-266.7" x2="1147.3" y2="1025.3"/>
			<line fill="none" stroke="#000000" stroke-width="0.25" stroke-miterlimit="10" x1="-1065.5" y1="-310" x2="1172.3" y2="982"/>
			
				<line fill="none" stroke="#000000" stroke-width="0.25" stroke-miterlimit="10" x1="-1040.5" y1="-353.3" x2="1197.3" y2="938.7"/>
			
				<line fill="none" stroke="#000000" stroke-width="0.25" stroke-miterlimit="10" x1="-1015.5" y1="-396.6" x2="1222.3" y2="895.4"/>
			
				<line fill="none" stroke="#000000" stroke-width="0.25" stroke-miterlimit="10" x1="-990.5" y1="-439.9" x2="1247.3" y2="852.1"/>
			
				<line fill="none" stroke="#000000" stroke-width="0.25" stroke-miterlimit="10" x1="-965.5" y1="-483.2" x2="1272.3" y2="808.8"/>
			
				<line fill="none" stroke="#000000" stroke-width="0.25" stroke-miterlimit="10" x1="-940.5" y1="-526.5" x2="1297.3" y2="765.5"/>
			
				<line fill="none" stroke="#000000" stroke-width="0.25" stroke-miterlimit="10" x1="-915.5" y1="-569.8" x2="1322.3" y2="722.2"/>
			
				<line fill="none" stroke="#000000" stroke-width="0.25" stroke-miterlimit="10" x1="-890.5" y1="-613.1" x2="1347.3" y2="678.9"/>
			
				<line fill="none" stroke="#000000" stroke-width="0.25" stroke-miterlimit="10" x1="-865.5" y1="-656.4" x2="1372.3" y2="635.6"/>
			
				<line fill="none" stroke="#000000" stroke-width="0.25" stroke-miterlimit="10" x1="-840.5" y1="-699.7" x2="1397.3" y2="592.3"/>
			<line fill="none" stroke="#000000" stroke-width="0.25" stroke-miterlimit="10" x1="-815.5" y1="-743" x2="1422.3" y2="549"/>
			
				<line fill="none" stroke="#000000" stroke-width="0.25" stroke-miterlimit="10" x1="-790.5" y1="-786.3" x2="1447.3" y2="505.7"/>
			
				<line fill="none" stroke="#000000" stroke-width="0.25" stroke-miterlimit="10" x1="-765.5" y1="-829.6" x2="1472.3" y2="462.4"/>
			
				<line fill="none" stroke="#000000" stroke-width="0.25" stroke-miterlimit="10" x1="-740.5" y1="-872.9" x2="1497.3" y2="419.1"/>
			
				<line fill="none" stroke="#000000" stroke-width="0.25" stroke-miterlimit="10" x1="-715.5" y1="-916.2" x2="1522.3" y2="375.8"/>
			
				<line fill="none" stroke="#000000" stroke-width="0.25" stroke-miterlimit="10" x1="-690.5" y1="-959.5" x2="1547.3" y2="332.5"/>
			
				<line fill="none" stroke="#000000" stroke-width="0.25" stroke-miterlimit="10" x1="-665.5" y1="-1002.8" x2="1572.3" y2="289.2"/>
			
				<line fill="none" stroke="#000000" stroke-width="0.25" stroke-miterlimit="10" x1="-640.5" y1="-1046.1" x2="1597.3" y2="245.9"/>
			
				<line fill="none" stroke="#000000" stroke-width="0.25" stroke-miterlimit="10" x1="-615.5" y1="-1089.4" x2="1622.3" y2="202.6"/>
			
				<line fill="none" stroke="#000000" stroke-width="0.25" stroke-miterlimit="10" x1="-590.5" y1="-1132.7" x2="1647.3" y2="159.3"/>
			<line fill="none" stroke="#000000" stroke-width="0.25" stroke-miterlimit="10" x1="-565.5" y1="-1176" x2="1672.3" y2="116"/>
			
				<line fill="none" stroke="#000000" stroke-width="0.25" stroke-miterlimit="10" x1="-540.5" y1="-1219.3" x2="1697.3" y2="72.7"/>
			
				<line fill="none" stroke="#000000" stroke-width="0.25" stroke-miterlimit="10" x1="-515.5" y1="-1262.6" x2="1722.3" y2="29.4"/>
			<line fill="none" stroke="#000000" stroke-width="0.25" stroke-miterlimit="10" x1="-490.5" y1="-1306" x2="1747.3" y2="-14"/>
			
				<line fill="none" stroke="#000000" stroke-width="0.25" stroke-miterlimit="10" x1="-465.5" y1="-1349.3" x2="1772.3" y2="-57.3"/>
			
				<line fill="none" stroke="#000000" stroke-width="0.25" stroke-miterlimit="10" x1="-440.5" y1="-1392.6" x2="1797.3" y2="-100.6"/>
			
				<line fill="none" stroke="#000000" stroke-width="0.25" stroke-miterlimit="10" x1="-415.5" y1="-1435.9" x2="1822.3" y2="-143.9"/>
			
				<line fill="none" stroke="#000000" stroke-width="0.25" stroke-miterlimit="10" x1="-390.5" y1="-1479.2" x2="1847.3" y2="-187.2"/>
			
				<line fill="none" stroke="#000000" stroke-width="0.25" stroke-miterlimit="10" x1="-365.5" y1="-1522.5" x2="1872.3" y2="-230.5"/>
			
				<line fill="none" stroke="#000000" stroke-width="0.25" stroke-miterlimit="10" x1="-340.5" y1="-1565.8" x2="1897.3" y2="-273.8"/>
			
				<line fill="none" stroke="#000000" stroke-width="0.25" stroke-miterlimit="10" x1="-315.5" y1="-1609.1" x2="1922.3" y2="-317.1"/>
			
				<line fill="none" stroke="#000000" stroke-width="0.25" stroke-miterlimit="10" x1="-290.5" y1="-1652.4" x2="1947.3" y2="-360.4"/>
			
				<line fill="none" stroke="#000000" stroke-width="0.25" stroke-miterlimit="10" x1="-265.5" y1="-1695.7" x2="1972.3" y2="-403.7"/>
		</g>
		<g clip-path="url(#SVGID_2_)">
			
				<line fill="none" stroke="#000000" stroke-width="0.25" stroke-miterlimit="10" x1="1972.3" y1="642.6" x2="-265.5" y2="1934.6"/>
			
				<line fill="none" stroke="#000000" stroke-width="0.25" stroke-miterlimit="10" x1="1947.3" y1="599.3" x2="-290.5" y2="1891.3"/>
			<line fill="none" stroke="#000000" stroke-width="0.25" stroke-miterlimit="10" x1="1922.3" y1="556" x2="-315.5" y2="1848"/>
			
				<line fill="none" stroke="#000000" stroke-width="0.25" stroke-miterlimit="10" x1="1897.3" y1="512.7" x2="-340.5" y2="1804.7"/>
			
				<line fill="none" stroke="#000000" stroke-width="0.25" stroke-miterlimit="10" x1="1872.3" y1="469.4" x2="-365.5" y2="1761.4"/>
			
				<line fill="none" stroke="#000000" stroke-width="0.25" stroke-miterlimit="10" x1="1847.3" y1="426.1" x2="-390.5" y2="1718.1"/>
			
				<line fill="none" stroke="#000000" stroke-width="0.25" stroke-miterlimit="10" x1="1822.3" y1="382.8" x2="-415.5" y2="1674.8"/>
			
				<line fill="none" stroke="#000000" stroke-width="0.25" stroke-miterlimit="10" x1="1797.3" y1="339.5" x2="-440.5" y2="1631.5"/>
			
				<line fill="none" stroke="#000000" stroke-width="0.25" stroke-miterlimit="10" x1="1772.3" y1="296.2" x2="-465.5" y2="1588.2"/>
			
				<line fill="none" stroke="#000000" stroke-width="0.25" stroke-miterlimit="10" x1="1747.3" y1="252.9" x2="-490.5" y2="1544.9"/>
			
				<line fill="none" stroke="#000000" stroke-width="0.25" stroke-miterlimit="10" x1="1722.3" y1="209.6" x2="-515.5" y2="1501.6"/>
			
				<line fill="none" stroke="#000000" stroke-width="0.25" stroke-miterlimit="10" x1="1697.3" y1="166.3" x2="-540.5" y2="1458.3"/>
			<line fill="none" stroke="#000000" stroke-width="0.25" stroke-miterlimit="10" x1="1672.3" y1="123" x2="-565.5" y2="1415"/>
			<line fill="none" stroke="#000000" stroke-width="0.25" stroke-miterlimit="10" x1="1647.3" y1="79.7" x2="-590.5" y2="1371.7"/>
			<line fill="none" stroke="#000000" stroke-width="0.25" stroke-miterlimit="10" x1="1622.3" y1="36.4" x2="-615.5" y2="1328.4"/>
			<line fill="none" stroke="#000000" stroke-width="0.25" stroke-miterlimit="10" x1="1597.3" y1="-6.9" x2="-640.5" y2="1285.1"/>
			
				<line fill="none" stroke="#000000" stroke-width="0.25" stroke-miterlimit="10" x1="1572.3" y1="-50.2" x2="-665.5" y2="1241.8"/>
			
				<line fill="none" stroke="#000000" stroke-width="0.25" stroke-miterlimit="10" x1="1547.3" y1="-93.5" x2="-690.5" y2="1198.5"/>
			
				<line fill="none" stroke="#000000" stroke-width="0.25" stroke-miterlimit="10" x1="1522.3" y1="-136.8" x2="-715.5" y2="1155.2"/>
			
				<line fill="none" stroke="#000000" stroke-width="0.25" stroke-miterlimit="10" x1="1497.3" y1="-180.1" x2="-740.5" y2="1111.9"/>
			
				<line fill="none" stroke="#000000" stroke-width="0.25" stroke-miterlimit="10" x1="1472.3" y1="-223.4" x2="-765.5" y2="1068.6"/>
			
				<line fill="none" stroke="#000000" stroke-width="0.25" stroke-miterlimit="10" x1="1447.3" y1="-266.7" x2="-790.5" y2="1025.3"/>
			<line fill="none" stroke="#000000" stroke-width="0.25" stroke-miterlimit="10" x1="1422.3" y1="-310" x2="-815.5" y2="982"/>
			
				<line fill="none" stroke="#000000" stroke-width="0.25" stroke-miterlimit="10" x1="1397.3" y1="-353.3" x2="-840.5" y2="938.7"/>
			
				<line fill="none" stroke="#000000" stroke-width="0.25" stroke-miterlimit="10" x1="1372.3" y1="-396.6" x2="-865.5" y2="895.4"/>
			
				<line fill="none" stroke="#000000" stroke-width="0.25" stroke-miterlimit="10" x1="1347.3" y1="-439.9" x2="-890.5" y2="852.1"/>
			
				<line fill="none" stroke="#000000" stroke-width="0.25" stroke-miterlimit="10" x1="1322.3" y1="-483.2" x2="-915.5" y2="808.8"/>
			
				<line fill="none" stroke="#000000" stroke-width="0.25" stroke-miterlimit="10" x1="1297.3" y1="-526.5" x2="-940.5" y2="765.5"/>
			
				<line fill="none" stroke="#000000" stroke-width="0.25" stroke-miterlimit="10" x1="1272.3" y1="-569.8" x2="-965.5" y2="722.2"/>
			
				<line fill="none" stroke="#000000" stroke-width="0.25" stroke-miterlimit="10" x1="1247.3" y1="-613.1" x2="-990.5" y2="678.9"/>
			
				<line fill="none" stroke="#000000" stroke-width="0.25" stroke-miterlimit="10" x1="1222.3" y1="-656.4" x2="-1015.5" y2="635.6"/>
			
				<line fill="none" stroke="#000000" stroke-width="0.25" stroke-miterlimit="10" x1="1197.3" y1="-699.7" x2="-1040.5" y2="592.3"/>
			<line fill="none" stroke="#000000" stroke-width="0.25" stroke-miterlimit="10" x1="1172.3" y1="-743" x2="-1065.5" y2="549"/>
			
				<line fill="none" stroke="#000000" stroke-width="0.25" stroke-miterlimit="10" x1="1147.3" y1="-786.3" x2="-1090.5" y2="505.7"/>
			
				<line fill="none" stroke="#000000" stroke-width="0.25" stroke-miterlimit="10" x1="1122.3" y1="-829.6" x2="-1115.5" y2="462.4"/>
			
				<line fill="none" stroke="#000000" stroke-width="0.25" stroke-miterlimit="10" x1="1097.3" y1="-872.9" x2="-1140.5" y2="419.1"/>
			
				<line fill="none" stroke="#000000" stroke-width="0.25" stroke-miterlimit="10" x1="1072.3" y1="-916.2" x2="-1165.5" y2="375.8"/>
			
				<line fill="none" stroke="#000000" stroke-width="0.25" stroke-miterlimit="10" x1="1047.3" y1="-959.5" x2="-1190.5" y2="332.5"/>
			
				<line fill="none" stroke="#000000" stroke-width="0.25" stroke-miterlimit="10" x1="1022.3" y1="-1002.8" x2="-1215.5" y2="289.2"/>
			
				<line fill="none" stroke="#000000" stroke-width="0.25" stroke-miterlimit="10" x1="997.3" y1="-1046.1" x2="-1240.5" y2="245.9"/>
			
				<line fill="none" stroke="#000000" stroke-width="0.25" stroke-miterlimit="10" x1="972.3" y1="-1089.4" x2="-1265.5" y2="202.6"/>
			
				<line fill="none" stroke="#000000" stroke-width="0.25" stroke-miterlimit="10" x1="947.3" y1="-1132.7" x2="-1290.5" y2="159.3"/>
			<line fill="none" stroke="#000000" stroke-width="0.25" stroke-miterlimit="10" x1="922.3" y1="-1176" x2="-1315.5" y2="116"/>
			
				<line fill="none" stroke="#000000" stroke-width="0.25" stroke-miterlimit="10" x1="897.3" y1="-1219.3" x2="-1340.5" y2="72.7"/>
			
				<line fill="none" stroke="#000000" stroke-width="0.25" stroke-miterlimit="10" x1="872.3" y1="-1262.6" x2="-1365.5" y2="29.4"/>
			<line fill="none" stroke="#000000" stroke-width="0.25" stroke-miterlimit="10" x1="847.3" y1="-1306" x2="-1390.5" y2="-14"/>
			
				<line fill="none" stroke="#000000" stroke-width="0.25" stroke-miterlimit="10" x1="822.3" y1="-1349.3" x2="-1415.5" y2="-57.3"/>
			
				<line fill="none" stroke="#000000" stroke-width="0.25" stroke-miterlimit="10" x1="797.3" y1="-1392.6" x2="-1440.5" y2="-100.6"/>
			
				<line fill="none" stroke="#000000" stroke-width="0.25" stroke-miterlimit="10" x1="772.3" y1="-1435.9" x2="-1465.5" y2="-143.9"/>
			
				<line fill="none" stroke="#000000" stroke-width="0.25" stroke-miterlimit="10" x1="747.3" y1="-1479.2" x2="-1490.5" y2="-187.2"/>
			
				<line fill="none" stroke="#000000" stroke-width="0.25" stroke-miterlimit="10" x1="722.3" y1="-1522.5" x2="-1515.5" y2="-230.5"/>
			
				<line fill="none" stroke="#000000" stroke-width="0.25" stroke-miterlimit="10" x1="697.3" y1="-1565.8" x2="-1540.5" y2="-273.8"/>
			
				<line fill="none" stroke="#000000" stroke-width="0.25" stroke-miterlimit="10" x1="672.3" y1="-1609.1" x2="-1565.5" y2="-317.1"/>
			
				<line fill="none" stroke="#000000" stroke-width="0.25" stroke-miterlimit="10" x1="647.3" y1="-1652.4" x2="-1590.5" y2="-360.4"/>
			
				<line fill="none" stroke="#000000" stroke-width="0.25" stroke-miterlimit="10" x1="622.3" y1="-1695.7" x2="-1615.5" y2="-403.7"/>
		</g>
	</g>
</g>
<g id="Layer_6">
</g>
<g id="Layer_7" display="none">
</g>
<g id="Flexible_-_BASE" display="none">
	<polyline fill="none" stroke="#32CB87" stroke-width="10" stroke-miterlimit="10" points="251.8,237.6 251.8,292 149.3,350.4 
		-56.7,231.3 -56.7,176.9 	"/>
	<line fill="none" stroke="#32CB87" stroke-width="10" stroke-miterlimit="10" x1="149.3" y1="296" x2="149.3" y2="350.4"/>
	<polygon fill="none" stroke="#32CB87" stroke-width="10" stroke-miterlimit="10" points="45.9,117.6 -56.7,176.9 149.3,296 
		251.8,237.6 	"/>
	<polyline fill="none" stroke="#32CB87" stroke-width="10" stroke-miterlimit="10" points="352.4,122.9 352.4,177.2 249.9,235.6 
		43.8,116.5 43.8,62.2 	"/>
	<line fill="none" stroke="#32CB87" stroke-width="10" stroke-miterlimit="10" x1="249.9" y1="181.3" x2="249.9" y2="235.6"/>
	<polygon fill="none" stroke="#32CB87" stroke-width="10" stroke-miterlimit="10" points="146.5,2.8 43.8,62.2 249.9,181.3 
		352.4,122.9 	"/>
	<polygon display="inline" fill="none" points="79.8,228.6 133.7,259.8 133.7,197.2 79.5,166.5 	"/>
	<polygon display="inline" fill="none" points="246.1,259.7 246.1,199.2 193.4,229.5 	"/>
	<polygon display="inline" fill="none" points="136.1,68.9 136.2,130.1 189.7,99.1 	"/>
	<polygon display="inline" fill="none" points="286.9,77.8 332.6,52.4 278.5,20.9 224.8,51.3 278.7,82.4 	"/>
	<polygon display="inline" fill="none" points="244.7,66.4 237.6,62.3 191,36 137.2,67 177.7,89.8 191.1,97.3 215.8,83 	"/>
	<g display="inline">
		<path fill="#B0F2DC" d="M248.4,197.4c0,0.1,0,0.2-0.1,0.3c0,0,0,0,0,0l0,62l0,0l54.1-31.1l-0.4-62.3L248.4,197.4z"/>
		<path fill="#B0F2DC" d="M288,79.8l-8,4.5l0,0l24,14.1c0,0,0.1,0.1,0.1,0.1c0,0,0.1,0.1,0.1,0.1c0,0,0,0,0.1,0.1
			c0,0.1,0.1,0.1,0.1,0.2c0,0,0,0.1,0.1,0.1c0,0,0,0.1,0.1,0.1c0,0.1,0,0.1,0,0.2c0,0,0,0.1,0,0.1v0v0v0l-0.1,33.8l28.5-16.9
			l0.7-61.7v0L288,79.8z"/>
		<polygon fill="#B0F2DC" points="302.1,163.6 302.2,137.1 302.2,135.8 302.2,134.5 302.3,101.3 278.9,114.6 277.8,115.2 
			276.7,115.9 262.2,124.2 248.4,132 248.4,132 248.5,194.8 		"/>
		<polygon fill="#B0F2DC" points="246.2,194.9 246.2,133.6 246.2,133.6 246.1,133.7 246.1,133.7 193.6,164.1 193.6,164.1 
			192.3,164.8 192.3,164.8 192.3,165.9 192.3,165.9 192.3,208.5 192.3,227.5 192.3,227.5 245.4,197 245.4,197 246.1,196.6 
			246.1,196.6 246.2,196.6 246.2,196.4 		"/>
		<polygon fill="#B0F2DC" points="189.8,166 189.8,166 136.9,196.7 136,197.2 136,197.2 136,198.8 136,259.8 189,229.4 189.9,228.9 
			189.9,227.4 		"/>
	</g>
	<path display="inline" fill="#32CB87" d="M335.6,51.5l-56.5-32.8c-0.3-0.2-0.8-0.2-1.1,0l-56.1,31.6c0,0-0.1,0.1-0.1,0.1l-0.4,0.2
		l-29.9-16.9c-0.3-0.2-0.8-0.2-1.1,0l-56,32.4c0,0,0,0,0,0c0,0,0,0,0,0c-0.1,0-0.1,0.1-0.1,0.1c0,0-0.1,0-0.1,0.1
		c-0.1,0.1-0.2,0.3-0.3,0.5c0,0,0,0,0,0.1c0,0.1,0,0.2,0,0.2v0v0l0.1,64.1l-56.1,32.5c0,0,0,0,0,0c0,0,0,0,0,0c0,0-0.1,0.1-0.1,0.1
		c0,0-0.1,0.1-0.1,0.1c0,0-0.1,0.1-0.1,0.1c0,0-0.1,0.1-0.1,0.1c0,0,0,0.1-0.1,0.2c0,0,0,0.1,0,0.1c0,0.1,0,0.2,0,0.3l0.3,64.7
		c0,0.4,0.2,0.8,0.6,1l56.2,32.6c0.2,0.1,0.4,0.2,0.6,0.2c0.2,0,0.4,0,0.6-0.1l0,0c0,0,0,0,0,0c0,0,0,0,0,0l55.8-32l55.5,31.8
		c0,0,0,0,0,0c0,0,0,0,0,0l0,0c0.1,0,0.1,0.1,0.2,0.1c0,0,0,0,0.1,0c0.1,0,0.2,0,0.3,0c0.1,0,0.2,0,0.3,0c0,0,0.1,0,0.1,0
		c0.1,0,0.1,0,0.2-0.1l0,0c0,0,0,0,0,0s0,0,0,0l56.4-32.4c0.4-0.2,0.6-0.6,0.6-1l-0.4-64.9l0.1-28.5l30.2-17.9
		c0.3-0.2,0.5-0.6,0.6-1l0.7-63.7c0,0,0,0,0,0c0.1-0.1,0.2-0.2,0.2-0.4c0,0,0,0,0,0c0-0.1,0-0.2,0-0.3
		C336.2,52.1,336,51.7,335.6,51.5z M332.9,116.3l-28.5,16.9l0.1-33.8v0v0v0c0,0,0-0.1,0-0.1c0-0.1,0-0.1,0-0.2c0,0,0-0.1-0.1-0.1
		c0,0,0-0.1-0.1-0.1c0-0.1-0.1-0.1-0.1-0.2c0,0,0,0-0.1-0.1c0,0-0.1-0.1-0.1-0.1c0,0-0.1-0.1-0.1-0.1l-24-14.1l0,0l8-4.5l45.6-25.3
		v0L332.9,116.3z M136,259.8v-61.1v-1.6v0l0.9-0.5l53-30.7v0l0,61.4l0,1.6l-0.9,0.5L136,259.8z M245.4,197l-53.1,30.4l0,0v-19v-42.5
		v0v-1.1v0l1.3-0.7l0,0l52.5-30.4l0,0l0.1-0.1v0l0,61.3l0,1.4l0,0.2l-0.1,0l0,0L245.4,197L245.4,197z M136.1,68.9l53.6,30.1
		l-53.5,31L136.1,68.9z M190,101.5l1.2-0.7l1.1,0.6l0,0l52.8,30.3l-52.8,30.5l0,0l-1,0.6c0,0-0.1,0-0.1,0l-0.1,0l-1-0.6l0-0.2
		l-52.6-30.1L190,101.5L190,101.5z M248.3,197.7c0-0.1,0.1-0.2,0.1-0.3l53.7-31.2l0.4,62.3l-54.1,31.1l0,0L248.3,197.7
		C248.3,197.7,248.3,197.7,248.3,197.7z M278.9,112l-1.1,0.6l-1.1,0.6l-29.5,16.8l-53.9-31.5l53.6-30.9l14.2,8.2l15.6,9.1l1.1,0.7
		l1.1,0.7l22.3,13L278.9,112z M302.2,137.1l-0.1,26.5l-53.6,31.2l0-62.8v0l13.8-7.9l14.5-8.3l1.1-0.6l1.1-0.6l23.4-13.3l-0.1,33.2
		l0,1.3L302.2,137.1z M332.6,52.4l-45.7,25.5l-9.1,5.1l-15.6-9l-14.6-8.6c0,0,0,0,0,0c0,0,0,0,0,0l-8.9-5l-14.8-8.5l0.9-0.5
		l53.8-30.3L332.6,52.4z M191,36l46.6,26.3l7.1,4.1L215.8,83l-24.8,14.3l-13.3-7.5L137.2,67L191,36z M133.6,133.9l0.9-0.5l54.2,30.7
		l0,0l-52.6,30.4l-1.3,0.7l-1-0.6l-53.3-30.1L133.6,133.9z M79.5,166.5l54.3,30.7v62.7l-54-31.3L79.5,166.5z M193.4,229.5l52.7-30.2
		l0,60.5L193.4,229.5z"/>
</g>
<g id="forkless_1_">
	<polyline display="none" fill="none" stroke="#32CB87" stroke-width="10" stroke-miterlimit="10" points="251.8,237.6 251.8,292 
		149.3,350.4 -56.7,231.3 -56.7,176.9 	"/>
	
		<line display="none" fill="none" stroke="#32CB87" stroke-width="10" stroke-miterlimit="10" x1="149.3" y1="296" x2="149.3" y2="350.4"/>
	<polygon display="none" fill="none" stroke="#32CB87" stroke-width="10" stroke-miterlimit="10" points="45.9,117.6 -56.7,176.9 
		149.3,296 251.8,237.6 	"/>
	<polyline display="none" fill="none" stroke="#32CB87" stroke-width="10" stroke-miterlimit="10" points="352.4,122.9 352.4,177.2 
		249.9,235.6 43.8,116.5 43.8,62.2 	"/>
	
		<line display="none" fill="none" stroke="#32CB87" stroke-width="10" stroke-miterlimit="10" x1="249.9" y1="181.3" x2="249.9" y2="235.6"/>
	<polygon display="none" fill="none" stroke="#32CB87" stroke-width="10" stroke-miterlimit="10" points="146.5,2.8 43.8,62.2 
		249.9,181.3 352.4,122.9 	"/>
	<path fill="none" d="M190,162.2l1,0.6l0.1,0c0,0,0.1,0,0.1,0l1-0.6l0,0l52.8-30.5l-52.8-30.3l0,0l-1.1-0.6l-1.2,0.7l0,0l-52.5,30.4
		L190,162L190,162.2z"/>
	<polygon fill="#FFFFFF" points="301.6,34.4 301.6,34.4 292.2,39.8 	"/>
	<polygon fill="none" points="79.8,228.6 133.7,259.8 133.7,197.2 79.5,166.5 	"/>
	<polygon fill="none" points="136.1,68.9 136.2,130.1 189.7,99.1 	"/>
	<polygon fill="none" points="244.4,66.5 224.4,54.8 191,36 137.2,67 177.7,89.8 191.1,97.3 215.8,83 	"/>
	<g>
		<polygon fill="#B0F2DC" points="249.8,66.7 262.2,73.9 277.8,82.9 277.7,83 278.9,83.6 280,84.3 280,84.3 280,84.3 302.6,97.5 
			302.7,36.3 		"/>
		<polygon fill="#B0F2DC" points="246.2,194.9 246.2,133.6 246.2,133.6 246.1,133.7 246.1,133.7 193.6,164.1 193.6,164.1 
			192.3,164.8 192.3,164.8 192.3,165.9 192.3,165.9 192.3,208.5 192.3,227.5 192.3,227.5 245.4,197 245.4,197 246.1,196.6 
			246.1,196.6 246.2,196.6 246.2,196.4 		"/>
		<polygon fill="#B0F2DC" points="189.8,166 189.8,166 136.9,196.7 136,197.2 136,197.2 136,198.8 136,259.8 189,229.4 189.9,228.9 
			189.9,227.4 		"/>
	</g>
	<path fill="#32CB87" d="M304.8,33.8C304.8,33.8,304.8,33.8,304.8,33.8c-0.1-0.1-0.1-0.2-0.2-0.2c-0.1-0.1-0.1-0.1-0.2-0.2
		L248.1,0.9c-0.3-0.2-0.8-0.2-1.1,0l-56.2,32.4c-0.2,0.1-0.3,0.2-0.4,0.4c0,0,0,0,0,0l-56,32.4c0,0,0,0,0,0c0,0,0,0,0,0
		c-0.1,0-0.1,0.1-0.1,0.1c0,0-0.1,0-0.1,0.1c-0.1,0.1-0.2,0.3-0.3,0.5c0,0,0,0,0,0.1c0,0.1,0,0.2,0,0.2v0v0l0.1,64.1l-56.1,32.5
		c0,0,0,0,0,0c0,0,0,0,0,0c0,0-0.1,0.1-0.1,0.1c0,0-0.1,0.1-0.1,0.1c0,0-0.1,0.1-0.1,0.1c0,0-0.1,0.1-0.1,0.1c0,0,0,0.1-0.1,0.2
		c0,0,0,0.1,0,0.1c0,0.1,0,0.2,0,0.3l0.3,64.7c0,0.4,0.2,0.8,0.6,1l56.2,32.6c0.2,0.1,0.4,0.2,0.6,0.2c0.2,0,0.4,0,0.6-0.1l0,0
		c0,0,0,0,0,0c0,0,0,0,0,0l55.8-32l0.4-0.2c0.1,0,0.1-0.1,0.2-0.1c0,0,0,0,0,0l0,0c0,0,0,0,0,0c0,0,0,0,0,0l1.6-0.9l52.7-30.2l0,0
		l1.1-0.6l0.7-0.4c0.1-0.1,0.2-0.2,0.3-0.3l-0.3-0.2l0,0l-0.7-0.4l0,0l0,0l0-0.3l0-1.4l0-0.1l0-7.2l0.1-16.6l0.2-38.8l0,0l0-0.3
		l0-0.2c-0.1-0.2-0.2-0.4-0.2-0.7c0-0.1,0-0.2,0-0.3c0-0.1,0.1-0.3,0.2-0.4c0.1-0.1,0.2-0.2,0.2-0.3c0,0,0,0,0,0
		c0,0,0.1-0.1,0.1-0.1l0,0l28.8-16.6l1.1-0.6l1.1-0.6L302.6,99c0.1-0.2,0.3-0.4,0.5-0.6l0.4-0.2l0.1-0.1l0.1-0.1l1.1-0.6l0.1-63.1
		C304.9,34.2,304.9,34,304.8,33.8z M278.9,112l-1.1,0.6l-1.1,0.6l-28,16l-1.1,0.6l-0.3,0.2l-0.8-0.5l-53.1-31.1l52.8-30.5l0.5-0.3
		l0,0c0.2,0.1,0.4,0.2,0.6,0.2c0,0,0,0,0,0c0,0,0.1,0,0.1,0l1,0.6l12.7,7.3l15.6,9.1l1.1,0.7l1.1,0.7l22.3,13L278.9,112z M136,259.8
		v-61.1v-1.6v0l0.9-0.5l53-30.7v0l0,61.4l0,1.6l-0.9,0.5L136,259.8z M301.6,34.4L301.6,34.4l-9.4,5.4l-44.6,25.6l0,0c0,0,0,0,0,0
		c0,0,0,0,0,0l-8.9-5l-13.2-7.5l-3.9-2.3c0.1-0.1,0.1-0.2,0.2-0.2l-0.3,0.2l-27.9-16.2l53.9-31.1L301.6,34.4z M136.1,68.9l53.6,30.1
		l-53.5,31L136.1,68.9z M191.2,162.8c0,0-0.1,0-0.1,0l-0.1,0l-1-0.6l0-0.2l-52.6-30.1l52.5-30.4l0,0l1.2-0.7l1.1,0.6l0,0l52.8,30.3
		l-52.8,30.5l0,0L191.2,162.8z M191,36l33.4,18.9l20.1,11.7L215.8,83l-24.8,14.3l-13.3-7.5L137.2,67L191,36z M133.6,133.9l0.9-0.5
		l54.2,30.7l0,0l-52.6,30.4l-1.3,0.7l-1-0.6l-53.3-30.1 M79.5,166.5l54.3,30.7v62.7l-54-31.3L79.5,166.5z M246.2,196.4l0,0.2l-0.1,0
		l0,0l-0.7,0.4l0,0l-53.1,30.4l0,0v-19v-42.5v0v-1.1v0l1.3-0.7l0,0l52.5-30.4l0,0l0.1-0.1v0l0,61.3L246.2,196.4z M249.8,66.7
		l52.8-30.4l-0.1,61.2L249.8,66.7z"/>
	<polygon fill="#FFFFFF" points="277.8,150.2 278,150.1 277.8,150 	"/>
	<line fill="#FFFFFF" x1="248.3" y1="194.9" x2="248.5" y2="194.8"/>
	<polygon fill="#FFFFFF" points="248.3,196.7 248.5,196.7 248.5,196.1 	"/>
	<path fill="#FFFFFF" d="M248.3,196.5c0,0,0,0.1,0,0.2l0,0l-0.1-0.5L248.3,196.5z"/>
	<path fill="#FFFFFF" d="M248.3,196.6L248.3,196.6c0,0,0-0.1,0-0.1L248.3,196.6z"/>
	
		<rect x="248.4" y="194.8" transform="matrix(0.3162 -0.9487 0.9487 0.3162 -14.992 368.8791)" fill="#FFFFFF" width="0" height="0.1"/>
	<path fill="#FFFFFF" d="M248.5,196.1"/>
	<path fill="#FFFFFF" d="M248.3,196.2"/>
	<polygon fill="#FFFFFF" points="302.8,164.5 302.7,164.6 302.7,165.9 302.9,165.8 302.9,164.6 	"/>
	<polygon fill="#FFFFFF" points="302.7,164.6 302.8,164.5 302.7,164.4 	"/>
	<polygon fill="#FFFFFF" points="248.7,133 248.7,133 276.7,149.3 276.7,149.3 	"/>
	<polygon fill="#FFFFFF" points="279.2,150.8 301.7,163.9 301.7,163.9 279.2,150.8 	"/>
	<polygon fill="#FFFFFF" points="278,150.1 279.2,150.8 279.2,150.8 278.1,150.1 	"/>
	<polygon fill="#FFFFFF" points="277.8,150 276.7,149.3 276.7,149.3 277.8,150 	"/>
	<polygon fill="#FFFFFF" points="277.8,150 278,150.1 278.1,150.1 277.8,150 	"/>
	
		<rect x="301.7" y="163.9" transform="matrix(0.8649 -0.5019 0.5019 0.8649 -41.4969 173.5516)" fill="#FFFFFF" width="0" height="0"/>
	<polygon fill="#FFFFFF" points="301.7,163.9 302.7,164.4 302.7,164.4 301.7,163.9 	"/>
	<polygon fill="#FFFFFF" points="302.9,164.6 302.9,164.6 302.8,164.5 302.8,164.5 	"/>
	<polygon fill="#FFFFFF" points="302.7,164.4 302.8,164.5 302.8,164.5 302.7,164.4 	"/>
	<polygon fill="#FFFFFF" points="330.5,146.6 356.6,131.6 356.6,131.6 	"/>
	<g>
		<polygon fill="#D9DBDA" points="325.2,152.2 304.3,164.1 304.1,227 358,195.8 357.8,133.6 		"/>
		<polygon fill="#D9DBDA" points="360.3,132.1 360,132.3 360.3,194.5 360.3,194.5 414.3,163.4 414.3,101.1 		"/>
	</g>
	<g>
		<path fill="#9A9A9A" d="M302.4,229.9C302.4,229.9,302.4,229.9,302.4,229.9L302.4,229.9C302.4,229.9,302.4,229.9,302.4,229.9z"/>
		<path fill="#9A9A9A" d="M416,100.1l-0.6,0.3l-1.1,0.6l-0.1,62.3l-54,31.2l0,0l-0.3-62.2l0.2-0.1l48.5-27.9l-48.5,27.9l-0.8,0.5
			c0,0,0,0,0,0c-0.1,0.1-0.2,0.1-0.3,0.1c-0.1,0-0.2,0-0.2,0c0,0,0,0,0,0c-0.2,0-0.4-0.1-0.6-0.2l-0.6-0.3l0,1.3l-32.5,18.6
			l32.5-18.6l0.3,62.3l-54,31.1l0.2-62.9l-0.6,0.3c0,0-0.1,0-0.1,0.1c-0.1,0-0.1,0-0.2,0.1l0,0.2l-0.2,64l0,1.2
			c0.1,0,0.2-0.1,0.3-0.1l56.2-32.5l56.2-32.5c0.3-0.2,0.6-0.6,0.6-1l0.1-64.9C416.6,99.6,416.3,99.9,416,100.1z"/>
		<polygon fill="#9A9A9A" points="414.3,101.1 408.8,104.3 414.3,101.1 		"/>
	</g>
	<path fill="#999999" d="M416.4,98.6C416.4,98.6,416.4,98.6,416.4,98.6c-0.1-0.1-0.1-0.2-0.2-0.2c-0.1-0.1-0.1-0.1-0.2-0.2
		l-56.3-32.5c-0.3-0.2-0.8-0.2-1.1,0l-54.4,31.4l-1.1,0.6l-0.1,0.1l-0.1,0.1l-0.4,0.2c-0.2,0.1-0.4,0.3-0.5,0.6l-23.7,13.7l-1.1,0.6
		l-1.1,0.6l-28.8,16.6l0,0c0,0-0.1,0.1-0.1,0.1c0,0,0,0,0,0c-0.1,0.1-0.2,0.2-0.2,0.3c-0.1,0.1-0.1,0.2-0.2,0.4c0,0.1,0,0.2,0,0.3
		c0,0.2,0.1,0.5,0.2,0.7l0,0.2l0,0.3l0,0l-0.2,38.8l-0.1,16.6l0,7.2l0,0.1l0,1.4l0,0.3l0,0l0,0l0.7,0.4l0,0l0.3,0.2l0.1,0.1l0,0
		l54.6,32.2l0.1,0.1l0.7,0.4l0-0.3l0-1.2l0.2-64l0-0.2c0.1,0,0.1,0,0.2-0.1c0,0,0.1,0,0.1-0.1l0.6-0.3l21-12l32.5-18.6l0-1.3
		l0.6,0.3c0.2,0.1,0.4,0.2,0.6,0.2c0,0,0,0,0,0c0.1,0,0.2,0,0.2,0c0.1,0,0.2-0.1,0.3-0.1c0,0,0,0,0,0l0.8-0.5l55.2-31.7l0.6-0.3
		c0.3-0.2,0.6-0.6,0.6-1C416.6,99,416.5,98.8,416.4,98.6z M302.2,164.2L302.2,164.2L302.2,164.2L302.2,164.2z M301.8,227.1
		l-53.3-31.4l0.2-62.7L276,149l1.1,0.7l0.2,0.1l1.1,0.6l22.5,13.1l0,0l1,0.6L301.8,227.1z M330.5,146.6l-26.8,15.3l-0.6,0.3
		l-0.6-0.3l-1.1-0.7l-20.7-12.1l-1.1-0.6l-1.1-0.6l-0.2-0.1l-1.1-0.7l-1.1-0.7l-26-15.1l26-15l1.1-0.6l1.1-0.6l23.4-13.5l1.1-0.7
		l0.4-0.3l0.7,0.4l52.7,30.7h0L330.5,146.6z M401.9,105.6l-42.8,24.6l-0.3,0.1l-53.7-31.2l0.5-0.3L359.2,68l54,31.2l0,0L401.9,105.6
		z"/>
</g>
<g id="Fast" display="none">
	<polyline fill="none" stroke="#32CB87" stroke-width="10" stroke-miterlimit="10" points="251.8,237.6 251.8,292 149.3,350.4 
		-56.7,231.3 -56.7,176.9 	"/>
	<line fill="none" stroke="#32CB87" stroke-width="10" stroke-miterlimit="10" x1="149.3" y1="296" x2="149.3" y2="350.4"/>
	<polygon fill="none" stroke="#32CB87" stroke-width="10" stroke-miterlimit="10" points="45.9,117.6 -56.7,176.9 149.3,296 
		251.8,237.6 	"/>
	<polyline fill="none" stroke="#32CB87" stroke-width="10" stroke-miterlimit="10" points="352.4,122.9 352.4,177.2 249.9,235.6 
		43.8,116.5 43.8,62.2 	"/>
	<line fill="none" stroke="#32CB87" stroke-width="10" stroke-miterlimit="10" x1="249.9" y1="181.3" x2="249.9" y2="235.6"/>
	<polygon fill="none" stroke="#32CB87" stroke-width="10" stroke-miterlimit="10" points="146.5,2.8 43.8,62.2 249.9,181.3 
		352.4,122.9 	"/>
	<polygon display="inline" fill="none" points="80,228.5 133.9,259.7 133.9,197.1 79.7,166.4 	"/>
	<polygon display="inline" fill="none" points="136.1,68.9 136.2,129.8 188.8,98.6 	"/>
	<polygon display="inline" fill="none" points="246.1,259.7 246.1,198.8 193.5,229.5 	"/>
	<polygon display="inline" fill="none" points="332.6,52.4 278.5,20.9 224.8,51.3 278.7,82.4 	"/>
	<polygon display="inline" fill="none" points="277.4,178 302.1,163.6 277.2,178.1 	"/>
	<polygon display="inline" fill="none" points="248.3,197.5 272.8,183.3 270.6,184.6 	"/>
	<polygon display="inline" fill="none" points="80,228.5 133.9,259.7 133.9,197.1 79.7,166.4 	"/>
	<polygon display="inline" fill="none" points="275.1,181.9 277.4,180.6 275.1,181.9 	"/>
	<path display="inline" fill="none" d="M247.6,65.3C247.6,65.3,247.6,65.3,247.6,65.3C247.6,65.3,247.6,65.3,247.6,65.3
		C247.6,65.3,247.6,65.3,247.6,65.3C247.6,65.4,247.6,65.4,247.6,65.3l14.7,8.6l15.6,9l0.2-0.1c0.1,0,0.1-0.1,0.2-0.1l0.6-0.3
		l53.9-30l-54.1-31.5l-53.8,30.3l-0.9,0.5l14.8,8.5L247.6,65.3z"/>
	<polygon display="inline" fill="none" points="136.1,68.9 136.2,129.8 188.8,98.6 	"/>
	<polygon display="inline" fill="none" points="277.6,115.4 277.3,115.6 277.3,115.6 	"/>
	<polygon display="inline" fill="none" points="193.5,229.5 246.1,259.7 246.1,198.8 	"/>
	<path display="inline" fill="none" d="M264.9,216l2-1.1L264.9,216C265,216,265,216,264.9,216z"/>
	<path display="inline" fill="#32CB87" d="M335.6,51.5l-56.5-32.8c-0.3-0.2-0.8-0.2-1.1,0l-56.1,31.6c0,0-0.1,0.1-0.1,0.1l-0.4,0.2
		l-29.9-16.9c-0.3-0.2-0.8-0.2-1.1,0l-56,32.4c0,0,0,0,0,0c0,0,0,0,0,0c-0.1,0-0.1,0.1-0.1,0.1c0,0-0.1,0-0.1,0.1
		c-0.1,0.1-0.2,0.3-0.3,0.5c0,0,0,0,0,0.1c0,0.1,0,0.2,0,0.2v0v0l0.1,64.1L78,163.5c0,0,0,0,0,0c0,0,0,0,0,0c0,0-0.1,0.1-0.1,0.1
		c0,0-0.1,0.1-0.1,0.1c0,0-0.1,0.1-0.1,0.1c0,0-0.1,0.1-0.1,0.1c0,0,0,0.1-0.1,0.2c0,0,0,0.1,0,0.1c0,0.1,0,0.2,0,0.3l0.3,64.7
		c0,0.4,0.2,0.8,0.6,1l56.2,32.6c0.2,0.1,0.4,0.2,0.6,0.2c0.2,0,0.4,0,0.6-0.1l0,0c0,0,0,0,0,0c0,0,0,0,0,0l55.6-31.9l55.5,31.8
		c0,0,0,0,0,0c0,0,0,0,0,0l0,0c0.1,0,0.1,0.1,0.2,0.1c0,0,0,0,0.1,0c0.1,0,0.2,0,0.3,0c0.1,0,0.2,0,0.3,0c0,0,0.1,0,0.1,0
		c0.1,0,0.1,0,0.2-0.1l0,0c0,0,0,0,0,0s0,0,0,0l56.4-32.4c0.4-0.2,0.6-0.6,0.6-1l-0.4-64.9l0.1-28.5l31-18.4c0.3-0.2,0.6-0.6,0.6-1
		l-0.1-63.2c0,0,0,0,0,0c0.1-0.1,0.2-0.2,0.2-0.4c0,0,0,0,0,0c0-0.1,0-0.2,0-0.3C336.2,52.1,336,51.7,335.6,51.5z M224.8,51.3
		l53.8-30.3l54.1,31.5l-53.9,30l-0.6,0.3c-0.1,0-0.1,0.1-0.2,0.1l-0.2,0.1l-15.6-9l-14.6-8.6c0,0,0,0,0,0c0,0,0,0,0,0c0,0,0,0,0,0
		c0,0,0,0,0,0l-8.9-5l-14.8-8.5L224.8,51.3z M133.9,259.7l-54-31.3l-0.3-62.1l54.3,30.7V259.7z M190.1,228.8l-1.1,0.6l-52.8,30.3
		v-61.4v-1.3v0v0l1.1-0.6l52.7-30.5v0l0,61.6L190.1,228.8L190.1,228.8z M192.3,173.1l0-7.2v0l0-1.3v0l1.1-0.6l0,0l52.7-30.6l0,0v0
		l0,7.1l0,54.4v0l0,1.3v0l0,0l-1.1,0.6l0,0l-52.7,30.7L192.3,173.1z M193.5,229.5l52.6-30.7l0,60.9L193.5,229.5z M248.3,187.8
		l0-54.5l0-1.3v0v0l1.1-0.6l12.8-7.3l8.4-4.8v-1.3v-0.7l-0.5-0.3l-21.8,12.4l-1.1,0.6l-1.1-0.7v0l-24.2-14.2l-2.2,1.3l25.3,14.8l0,0
		l-19.7-11.5l19.7,11.5L218.1,147l-25.8,15v0l0,0l-1.1,0.7L190,162v0l-23.7-13.6l-2.2,1.3l24.8,14.2l-52.7,30.5l-1.1,0.7l0,0
		l-1.1-0.6l-53.1-30l53.1-30.7l1.1-0.7l0,0l1.1,0.6l8.1,4.7l13.1,7.5l2.2-1.3l-22.3-12.8l52.7-31.2l0,0l1.1-0.7l1.1,0.7l0,0v0
		l20.8,12.2l2.2-1.3l-21.9-12.8l0,0l0,0l24.6-14.2l-2.2-1.4l-0.5,0.3l-24.1,13.9l-13.3-7.5L137.2,67L191,36l46.6,26.3l7.1,4.1l0,0
		l-22.4,12.9l2.2,1.4l22.5-12.9l0,0l1.2,0.7l13,7.5l15.6,9.1l0.9,0.5l0.3,0.2l1.1,0.7l0.9,0.5l21.4,12.5l-21.4,12.2l-0.9,0.5
		l-1.1,0.6l-0.3,0.1l-0.8,0.5l0.5,0.3l0,0v0v0.6v1.3l0.3-0.2l0.3-0.1l1.1-0.6l0.9-0.5l22.5-12.8l-0.1,33.2v0l0,1.3l0,1.3v0
		l-0.1,25.2l0,1.3l0,0l-1.1,0.6l-23.3,13.6l-2.6,1.5v0v-30.3v-1.3v-1.3v-29.6l0,0v-1.3v-0.7l-0.5-0.3l0,0l-26.3-16.5l-2.3-1.4
		l-23.7-14.8l0,0l0,0l-2.2-1.4h0l-23.5-14.7l-0.1-0.1l8.9-5.8l-27.6-3.1l6.2,17l10.5-6.8l0.1,0.1L218,81.8l0,0l2.2,1.4l0,0l0,0l0,0
		L243,97.5l-25.6,15.2l0,0l0,0l-2.2,1.3l0,0l0,0l-23,13.7h0l-2.2,1.3l0,0l-28.2,16.8l0,0l-2.2,1.3l0,0l-17.7,10.5l-9.5-5.6
		l-6.1,17.7l27.8-4.9l-10.1-5.9l17.7-10.6l0,0l0,0l1.1-0.7l1.1-0.7l0,0l0,0l25.9-15.5l2.2-1.3l25.2-15h0l0,0l2.2-1.3l0,0l0,0
		l25.5-15.2l0.9,0.5l2.3,1.4l24.1,15.1l0,0l0.5,0.3l0,0v0v0.6v1.3l0,0v27v1.3v1.3v32.9v0l-24.5,14.2v0L248.3,187.8z M136.1,68.9
		l52.7,29.7l-52.7,31.2L136.1,68.9z M302.1,163.6L277.4,178v2.6l-2.3,1.4l0.1,0v-2.6v0l2-1.2L302.1,163.6z M272.8,180.7v1.3v1.3
		l-24.5,14.2l22.2-12.9V182L272.8,180.7z M248.4,259.7L248.4,259.7l0-62.2l0,0l24.5-14.2v28.6v0.1l-5.8,3l-2,1.1
		c-0.5,0.3-0.5,1.1,0,1.4l10.1,8.3c0.5,0.3,1.1,0.1,1.3-0.4l8.7-17.9c0.3-0.8-0.5-1.4-1.2-1.1l-8.7,4.5v-0.1V182l27-15.7l0.4,62.3
		L248.4,259.7z M333.6,54.6l-0.7,61.7l-28.5,16.9l0.1-33.8v0v0v0c0,0,0-0.1,0-0.1c0-0.1,0-0.1,0-0.2c0,0,0-0.1-0.1-0.1
		c0,0,0-0.1-0.1-0.1c0-0.1-0.1-0.1-0.1-0.2c0,0,0,0-0.1-0.1c0,0-0.1-0.1-0.1-0.1c0,0-0.1-0.1-0.1-0.1l-24-14.1l0,0l8-4.5L333.6,54.6
		L333.6,54.6z"/>
	<polygon display="inline" fill="#32CB87" points="192.3,131.6 192.2,130.3 192.3,132.6 	"/>
	<path display="inline" fill="#B0F2DC" d="M275.1,182v28.8l11.4-6L276,227.3l-12.5-10.5l1.5-0.8c0,0,0,0,0.1-0.1l2-1l5.8-3.1v-28.6
		l-24.5,14.2l0,0l0,62.2l0,0l54.1-31.1l-0.4-62.3L275.1,182z"/>
	<polygon display="inline" fill="#B0F2DC" points="272.8,212 272.8,211.9 267,215 	"/>
	<path display="inline" fill="#B0F2DC" d="M276,227.3l10.5-22.6l-11.4,6v0.1l8.7-4.5c0.7-0.4,1.5,0.3,1.2,1.1l-8.7,17.9
		c-0.2,0.5-0.8,0.7-1.3,0.4l-10.1-8.3c-0.5-0.3-0.5-1.1,0-1.4l-1.5,0.8L276,227.3z"/>
	<path display="inline" fill="#B0F2DC" d="M280,84.3L280,84.3l24,14.1c0,0,0.1,0.1,0.1,0.1c0,0,0.1,0.1,0.1,0.1c0,0,0,0,0.1,0.1
		c0,0.1,0.1,0.1,0.1,0.2c0,0,0,0.1,0.1,0.1c0,0,0,0.1,0.1,0.1c0,0.1,0,0.1,0,0.2c0,0,0,0.1,0,0.1v0v0v0l-0.1,33.8l28.5-16.9
		l0.7-61.7v0L288,79.8L280,84.3z"/>
	<polygon display="inline" fill="#B0F2DC" points="277.3,113.6 277.2,113.6 277.3,113.6 	"/>
	<polygon display="inline" fill="#B0F2DC" points="272.8,116.1 272.8,116.1 272.8,116.2 	"/>
	<g display="inline">
		<polygon fill="#B0F2DC" points="279.8,114.1 278.9,114.6 277.8,115.2 277.6,115.4 277.3,115.6 277.3,114.3 277.3,113.6 
			277.2,113.6 275,114.9 275,115.5 275,116.9 275.1,116.8 275.1,146.5 275.1,147.8 275.1,149.1 275.1,179.3 275.1,179.3 
			277.7,177.8 301,164.3 302.1,163.6 302.1,163.6 302.1,162.3 302.2,137.1 302.2,137.1 302.2,135.8 302.2,134.5 302.2,134.5 
			302.3,101.3 		"/>
		<polygon fill="#B0F2DC" points="270.6,117.4 270.6,118.1 270.6,119.4 262.2,124.2 249.4,131.4 248.3,132.1 248.3,132.1 
			248.3,132.1 248.3,133.4 248.3,187.8 248.3,194.9 248.3,194.9 272.8,180.7 272.8,180.7 272.8,147.8 272.8,146.5 272.8,145.2 
			272.8,118.1 272.8,118.1 272.8,116.8 272.8,116.2 272.8,116.1 		"/>
	</g>
	<polygon display="inline" fill="#B0F2DC" points="245,196.8 246.1,196.2 246.1,196.2 246.1,196.2 246.1,194.9 246.1,194.9 
		246.1,140.5 246.1,133.4 246.1,133.4 246.1,133.4 193.4,164 193.4,164 192.3,164.6 192.3,164.6 192.3,165.9 192.3,165.9 
		192.3,173.1 192.3,227.5 245,196.8 	"/>
	<polygon display="inline" fill="#B0F2DC" points="190,165.9 190,165.9 137.3,196.4 136.2,197.1 136.2,197.1 136.2,197.1 
		136.2,198.4 136.2,259.8 189,229.5 190.1,228.8 190.1,228.8 190.1,227.5 	"/>
	<polygon display="inline" fill="#B0F2DC" points="272.8,183.3 272.8,182 272.8,180.7 270.6,182 270.6,184.6 	"/>
	<polygon display="inline" fill="#B0F2DC" points="275.1,179.3 275.1,181.9 277.4,180.6 277.4,178 277.2,178.1 	"/>
	<polygon display="inline" fill="#B0F2DC" points="275.1,179.3 275.1,179.3 277.2,178.1 	"/>
	<polygon display="inline" fill="none" points="183,160.6 188.9,164 188.9,164 	"/>
</g>
<g id="Intentional" display="none">
	<polyline fill="none" stroke="#32CB87" stroke-width="10" stroke-miterlimit="10" points="251.8,237.6 251.8,292 149.3,350.4 
		-56.7,231.3 -56.7,176.9 	"/>
	<line fill="none" stroke="#32CB87" stroke-width="10" stroke-miterlimit="10" x1="149.3" y1="296" x2="149.3" y2="350.4"/>
	<polygon fill="none" stroke="#32CB87" stroke-width="10" stroke-miterlimit="10" points="45.9,117.6 -56.7,176.9 149.3,296 
		251.8,237.6 	"/>
	<polyline fill="none" stroke="#32CB87" stroke-width="10" stroke-miterlimit="10" points="352.4,122.9 352.4,177.2 249.9,235.6 
		43.8,116.5 43.8,62.2 	"/>
	<line fill="none" stroke="#32CB87" stroke-width="10" stroke-miterlimit="10" x1="249.9" y1="181.3" x2="249.9" y2="235.6"/>
	<polygon fill="none" stroke="#32CB87" stroke-width="10" stroke-miterlimit="10" points="146.5,2.8 43.8,62.2 249.9,181.3 
		352.4,122.9 	"/>
	<polygon display="inline" fill="none" points="135,132.9 80.6,164.5 135.1,195.3 189.2,164 184,161 	"/>
	<polygon display="inline" fill="none" points="79.9,228.6 134.1,260 134.1,197 79.6,166.2 	"/>
	<polygon display="inline" fill="none" points="191.1,99.7 137,131.8 191.2,162.8 245.2,131.4 225.9,120.1 	"/>
	<polygon display="inline" fill="none" points="301.6,34.3 247.2,2.2 193,34.6 247,65.2 	"/>
	<polygon display="inline" fill="none" points="246,67.3 192,36.3 192.1,98 246.2,129.7 246.1,98.4 	"/>
	<polygon display="inline" fill="none" points="246.2,259.9 246.2,198.6 193.2,229.5 	"/>
	<polygon display="inline" fill="none" points="304.5,97.6 357,67.2 304.6,36.1 	"/>
	<g display="inline">
		<polygon fill="#B0F2DC" points="248.2,197.4 248.2,197.4 248.2,259.9 248.2,259.9 302.6,228.6 302.2,166 		"/>
		<polygon fill="#B0F2DC" points="304.5,99.9 304.5,99.9 304.4,113.2 304.2,162.6 358.4,131.3 358.6,69.4 358.6,68.5 		"/>
		<polygon fill="#B0F2DC" points="277.5,178.1 301.2,164.3 301.2,164.3 302.2,163.7 302.2,163.7 302.2,162.6 302.3,149.4 
			302.4,101.1 302.4,101.1 302.4,101.1 249.2,131.4 249.2,131.4 248.2,132 248.2,132 248.2,133.2 248.2,133.2 248.2,189.3 
			248.2,195.1 248.2,195.1 		"/>
		<polygon fill="#B0F2DC" points="246.2,195.1 246.2,139 246.2,133.2 246.2,133.2 246.2,133.2 204.6,157.3 193.2,164 192.2,164.5 
			192.2,164.5 192.2,165.7 192.2,165.7 192.2,175.7 192.2,218.3 192.2,227.8 192.2,227.8 245.2,196.8 245.2,196.8 246.2,196.2 
			246.2,196.2 246.2,196.2 246.2,195.1 		"/>
		<polygon fill="#B0F2DC" points="190.2,165.7 190.2,165.7 136.1,197 136.1,197 136.1,260 190.2,228.9 190.2,228.9 190.2,174.5 		
			"/>
		<polygon fill="#B0F2DC" points="301.5,99.3 302.5,98.8 302.5,98.8 302.5,97.6 302.5,97.6 302.6,36.1 249.5,66.6 249.5,66.6 
			248.5,67.2 248,67.4 248,68.1 248,68.1 248.2,127 248.2,129.7 248.2,129.7 301.5,99.3 		"/>
	</g>
	<path display="inline" fill="#32CB87" d="M360.6,67.3l0-0.4c0-0.4-0.2-0.7-0.5-0.9c-0.3-0.2-0.7-0.2-1,0L359,66l-54.9-32.6
		c0,0,0,0,0,0l0,0c0,0,0,0,0,0c0,0,0,0,0,0L247.7,0.1c-0.3-0.2-0.7-0.2-1,0l-56.2,33.6c0,0,0,0,0,0c0,0,0,0,0,0l0,0
		c0,0-0.1,0.1-0.1,0.1c0,0-0.1,0.1-0.1,0.1c0,0-0.1,0.1-0.1,0.1c0,0,0,0.1-0.1,0.1c0,0,0,0.1,0,0.1c0,0,0,0.1,0,0.1c0,0,0,0.1,0,0.1
		c0,0,0,0.1,0,0.1v0v0c0,0,0,0,0,0l0.1,63.4l-55.6,32.9c0,0,0,0,0,0L78,163.6c0,0,0,0,0,0c0,0,0,0,0,0c0,0-0.1,0.1-0.1,0.1
		c0,0-0.1,0-0.1,0.1c0,0-0.1,0.1-0.1,0.1c0,0-0.1,0.1-0.1,0.1c0,0,0,0.1-0.1,0.1c0,0,0,0.1,0,0.1c0,0.1,0,0.2,0,0.3l0.3,64.7
		c0,0.4,0.2,0.7,0.5,0.9l56.2,32.6c0.2,0.1,0.3,0.1,0.5,0.1c0.2,0,0.3,0,0.5-0.1l0,0c0,0,0,0,0,0c0,0,0,0,0,0l55.6-31.9l55.5,31.9
		c0,0,0,0,0,0c0,0,0,0,0,0l0,0c0.1,0,0.1,0.1,0.2,0.1c0,0,0,0,0.1,0c0.1,0,0.2,0,0.3,0c0.2,0,0.3,0,0.5-0.1l56.4-32.4
		c0.3-0.2,0.5-0.5,0.5-0.9l-0.4-64.3l55.7-32.1c0.3-0.2,0.5-0.5,0.5-0.9l0.2-63.8c0-0.1,0.1-0.2,0.1-0.4
		C360.7,67.5,360.7,67.4,360.6,67.3z M358.6,69.4l-0.2,61.9l-54.2,31.3l0.2-49.3l0-13.3v0l54.1-31.4L358.6,69.4z M190.2,228.9
		L136.1,260v-63v0l54.1-31.3v0l0,8.8L190.2,228.9L190.2,228.9z M245.2,196.8l-53,30.9l0,0l0-9.4l0-42.6l0-10v0l0-1.2v0l1-0.6
		l11.4-6.6l41.6-24.2v0v0l0,5.8l0,56.1v0l0,1.2v0l0,0L245.2,196.8L245.2,196.8z M249.5,66.6l53.1-30.5l-0.1,61.5v0l0,1.2v0l-1,0.6
		l0,0l-53.3,30.4h0l0-2.7l-0.1-59v0l0-0.6l0.4-0.3L249.5,66.6L249.5,66.6z M302.2,163.7l-1,0.6l0,0l-23.8,13.8l-29.2,17v0l0-5.8
		l0-56.1v0l0-1.2v0l1-0.6l0,0l53.3-30.4l0,0l0,0l-0.2,48.4l0,13.1L302.2,163.7L302.2,163.7z M248.2,197.4l54-31.4l0.4,62.6
		l-54.4,31.3l0,0L248.2,197.4L248.2,197.4z M246,67.3l0.1,31.1l0.1,31.3L192.1,98L192,36.3L246,67.3z M304.5,97.6l0.1-61.5L357,67.2
		L304.5,97.6z M247.2,2.2l54.4,32.2L247,65.2L193,34.6L247.2,2.2z M191.1,99.7l34.8,20.4l19.3,11.3l-54,31.4l-54.1-31L191.1,99.7z
		 M135,132.9l49,28.1l5.1,2.9l-54.1,31.3l-54.5-30.8L135,132.9z M79.6,166.2l54.5,30.8V260l-54.2-31.4L79.6,166.2z M193.2,229.5
		l53-30.9l0,61.4L193.2,229.5z"/>
</g>
</svg>
