<?xml version="1.0" encoding="utf-8"?>
<!-- Generator: Adobe Illustrator 25.2.1, SVG Export Plug-In . SVG Version: 6.00 Build 0)  -->
<svg version="1.1" id="Layer_1" xmlns="http://www.w3.org/2000/svg" xmlns:xlink="http://www.w3.org/1999/xlink" x="0px" y="0px"
	 viewBox="0 0 625 625" style="enable-background:new 0 0 625 625;" xml:space="preserve">
<style type="text/css">
	.st0{display:none;opacity:0.25;}
	.st1{display:inline;}
	.st2{clip-path:url(#SVGID_2_);}
	.st3{fill:none;stroke:#000000;stroke-width:0.25;stroke-miterlimit:10;}
	.st4{clip-path:url(#SVGID_4_);}
	.st5{clip-path:url(#SVGID_6_);}
	.st6{display:inline;fill:none;}
	.st7{display:inline;fill:#B0F2DC;}
	.st8{display:none;}
	.st9{display:inline;fill:none;stroke:#32CB87;stroke-width:10;stroke-miterlimit:10;}
	.st10{fill:#32CB87;}
	.st11{display:inline;fill:none;stroke:#FF0000;stroke-width:7;stroke-miterlimit:10;}
	.st12{display:inline;fill:#32CB87;}
</style>
<g id="Grid" class="st0">
	<g class="st1">
		<g>
			<defs>
				<rect id="SVGID_1_" x="-78" y="-69.3" width="799" height="800"/>
			</defs>
			<clipPath id="SVGID_2_">
				<use xlink:href="#SVGID_1_"  style="overflow:visible;"/>
			</clipPath>
			<g class="st2">
				<line class="st3" x1="-1027.5" y1="-961.8" x2="-1027.5" y2="1622.2"/>
				<line class="st3" x1="-977.5" y1="-961.8" x2="-977.5" y2="1622.2"/>
				<line class="st3" x1="-927.5" y1="-961.8" x2="-927.5" y2="1622.2"/>
				<line class="st3" x1="-877.5" y1="-961.8" x2="-877.5" y2="1622.2"/>
				<line class="st3" x1="-827.5" y1="-961.8" x2="-827.5" y2="1622.2"/>
				<line class="st3" x1="-777.5" y1="-961.8" x2="-777.5" y2="1622.2"/>
				<line class="st3" x1="-727.5" y1="-961.8" x2="-727.5" y2="1622.2"/>
				<line class="st3" x1="-677.5" y1="-961.8" x2="-677.5" y2="1622.2"/>
				<line class="st3" x1="-627.5" y1="-961.8" x2="-627.5" y2="1622.2"/>
				<line class="st3" x1="-577.5" y1="-961.8" x2="-577.5" y2="1622.2"/>
				<line class="st3" x1="-527.5" y1="-961.8" x2="-527.5" y2="1622.2"/>
				<line class="st3" x1="-477.5" y1="-961.8" x2="-477.5" y2="1622.2"/>
				<line class="st3" x1="-427.5" y1="-961.8" x2="-427.5" y2="1622.2"/>
				<line class="st3" x1="-377.5" y1="-961.8" x2="-377.5" y2="1622.2"/>
				<line class="st3" x1="-327.5" y1="-961.8" x2="-327.5" y2="1622.2"/>
				<line class="st3" x1="-277.5" y1="-961.8" x2="-277.5" y2="1622.2"/>
				<line class="st3" x1="-227.5" y1="-961.8" x2="-227.5" y2="1622.2"/>
				<line class="st3" x1="-177.5" y1="-961.8" x2="-177.5" y2="1622.2"/>
				<line class="st3" x1="-127.5" y1="-961.8" x2="-127.5" y2="1622.2"/>
				<line class="st3" x1="-77.5" y1="-961.8" x2="-77.5" y2="1622.2"/>
				<line class="st3" x1="-27.5" y1="-961.8" x2="-27.5" y2="1622.2"/>
				<line class="st3" x1="22.5" y1="-961.8" x2="22.5" y2="1622.2"/>
				<line class="st3" x1="72.5" y1="-961.8" x2="72.5" y2="1622.2"/>
				<line class="st3" x1="122.5" y1="-961.8" x2="122.5" y2="1622.2"/>
				<line class="st3" x1="172.5" y1="-961.8" x2="172.5" y2="1622.2"/>
				<line class="st3" x1="222.5" y1="-961.8" x2="222.5" y2="1622.2"/>
				<line class="st3" x1="272.5" y1="-961.8" x2="272.5" y2="1622.2"/>
				<line class="st3" x1="322.5" y1="-961.8" x2="322.5" y2="1622.2"/>
				<line class="st3" x1="372.5" y1="-961.8" x2="372.5" y2="1622.2"/>
				<line class="st3" x1="422.5" y1="-961.8" x2="422.5" y2="1622.2"/>
				<line class="st3" x1="472.5" y1="-961.8" x2="472.5" y2="1622.2"/>
				<line class="st3" x1="522.5" y1="-961.8" x2="522.5" y2="1622.2"/>
				<line class="st3" x1="572.5" y1="-961.8" x2="572.5" y2="1622.2"/>
				<line class="st3" x1="622.5" y1="-961.8" x2="622.5" y2="1622.2"/>
				<line class="st3" x1="672.5" y1="-961.8" x2="672.5" y2="1622.2"/>
				<line class="st3" x1="722.5" y1="-961.8" x2="722.5" y2="1622.2"/>
				<line class="st3" x1="772.5" y1="-961.8" x2="772.5" y2="1622.2"/>
				<line class="st3" x1="822.5" y1="-961.8" x2="822.5" y2="1622.2"/>
				<line class="st3" x1="872.5" y1="-961.8" x2="872.5" y2="1622.2"/>
				<line class="st3" x1="922.5" y1="-961.8" x2="922.5" y2="1622.2"/>
				<line class="st3" x1="972.5" y1="-961.8" x2="972.5" y2="1622.2"/>
				<line class="st3" x1="1022.5" y1="-961.8" x2="1022.5" y2="1622.2"/>
				<line class="st3" x1="1072.5" y1="-961.8" x2="1072.5" y2="1622.2"/>
				<line class="st3" x1="1122.5" y1="-961.8" x2="1122.5" y2="1622.2"/>
				<line class="st3" x1="1172.5" y1="-961.8" x2="1172.5" y2="1622.2"/>
				<line class="st3" x1="1222.5" y1="-961.8" x2="1222.5" y2="1622.2"/>
				<line class="st3" x1="1272.5" y1="-961.8" x2="1272.5" y2="1622.2"/>
				<line class="st3" x1="1322.5" y1="-961.8" x2="1322.5" y2="1622.2"/>
				<line class="st3" x1="1372.5" y1="-961.8" x2="1372.5" y2="1622.2"/>
				<line class="st3" x1="1422.5" y1="-961.8" x2="1422.5" y2="1622.2"/>
				<line class="st3" x1="1472.5" y1="-961.8" x2="1472.5" y2="1622.2"/>
				<line class="st3" x1="1522.5" y1="-961.8" x2="1522.5" y2="1622.2"/>
				<line class="st3" x1="1572.5" y1="-961.8" x2="1572.5" y2="1622.2"/>
				<line class="st3" x1="1622.5" y1="-961.8" x2="1622.5" y2="1622.2"/>
				<line class="st3" x1="1672.5" y1="-961.8" x2="1672.5" y2="1622.2"/>
			</g>
		</g>
		<g>
			<defs>
				<rect id="SVGID_3_" x="-78" y="-69.3" width="799" height="800"/>
			</defs>
			<clipPath id="SVGID_4_">
				<use xlink:href="#SVGID_3_"  style="overflow:visible;"/>
			</clipPath>
			<g class="st4">
				<line class="st3" x1="-1471.4" y1="853.3" x2="766.4" y2="2145.3"/>
				<line class="st3" x1="-1446.4" y1="810" x2="791.4" y2="2102"/>
				<line class="st3" x1="-1421.4" y1="766.7" x2="816.4" y2="2058.7"/>
				<line class="st3" x1="-1396.4" y1="723.4" x2="841.4" y2="2015.4"/>
				<line class="st3" x1="-1371.4" y1="680.1" x2="866.4" y2="1972.1"/>
				<line class="st3" x1="-1346.4" y1="636.8" x2="891.4" y2="1928.8"/>
				<line class="st3" x1="-1321.4" y1="593.5" x2="916.4" y2="1885.5"/>
				<line class="st3" x1="-1296.4" y1="550.2" x2="941.4" y2="1842.2"/>
				<line class="st3" x1="-1271.4" y1="506.9" x2="966.4" y2="1798.9"/>
				<line class="st3" x1="-1246.4" y1="463.6" x2="991.4" y2="1755.6"/>
				<line class="st3" x1="-1221.4" y1="420.3" x2="1016.4" y2="1712.3"/>
				<line class="st3" x1="-1196.4" y1="377" x2="1041.4" y2="1669"/>
				<line class="st3" x1="-1171.4" y1="333.7" x2="1066.4" y2="1625.7"/>
				<line class="st3" x1="-1146.4" y1="290.4" x2="1091.4" y2="1582.4"/>
				<line class="st3" x1="-1121.4" y1="247.1" x2="1116.4" y2="1539.1"/>
				<line class="st3" x1="-1096.4" y1="203.8" x2="1141.4" y2="1495.8"/>
				<line class="st3" x1="-1071.4" y1="160.5" x2="1166.4" y2="1452.5"/>
				<line class="st3" x1="-1046.4" y1="117.2" x2="1191.4" y2="1409.2"/>
				<line class="st3" x1="-1021.4" y1="73.9" x2="1216.4" y2="1365.9"/>
				<line class="st3" x1="-996.4" y1="30.6" x2="1241.4" y2="1322.6"/>
				<line class="st3" x1="-971.4" y1="-12.7" x2="1266.4" y2="1279.3"/>
				<line class="st3" x1="-946.4" y1="-56" x2="1291.4" y2="1236"/>
				<line class="st3" x1="-921.4" y1="-99.3" x2="1316.4" y2="1192.7"/>
				<line class="st3" x1="-896.4" y1="-142.6" x2="1341.4" y2="1149.4"/>
				<line class="st3" x1="-871.4" y1="-185.9" x2="1366.4" y2="1106.1"/>
				<line class="st3" x1="-846.4" y1="-229.2" x2="1391.4" y2="1062.8"/>
				<line class="st3" x1="-821.4" y1="-272.5" x2="1416.4" y2="1019.5"/>
				<line class="st3" x1="-796.4" y1="-315.8" x2="1441.4" y2="976.2"/>
				<line class="st3" x1="-771.4" y1="-359.1" x2="1466.4" y2="932.9"/>
				<line class="st3" x1="-746.4" y1="-402.4" x2="1491.4" y2="889.6"/>
				<line class="st3" x1="-721.4" y1="-445.7" x2="1516.4" y2="846.3"/>
				<line class="st3" x1="-696.4" y1="-489" x2="1541.4" y2="803"/>
				<line class="st3" x1="-671.4" y1="-532.3" x2="1566.4" y2="759.7"/>
				<line class="st3" x1="-646.4" y1="-575.6" x2="1591.4" y2="716.4"/>
				<line class="st3" x1="-621.4" y1="-618.9" x2="1616.4" y2="673.1"/>
				<line class="st3" x1="-596.4" y1="-662.2" x2="1641.4" y2="629.8"/>
				<line class="st3" x1="-571.4" y1="-705.5" x2="1666.4" y2="586.5"/>
				<line class="st3" x1="-546.4" y1="-748.8" x2="1691.4" y2="543.2"/>
				<line class="st3" x1="-521.4" y1="-792.1" x2="1716.4" y2="499.9"/>
				<line class="st3" x1="-496.4" y1="-835.4" x2="1741.4" y2="456.6"/>
				<line class="st3" x1="-471.4" y1="-878.7" x2="1766.4" y2="413.3"/>
				<line class="st3" x1="-446.4" y1="-922" x2="1791.4" y2="370"/>
				<line class="st3" x1="-421.4" y1="-965.3" x2="1816.4" y2="326.7"/>
				<line class="st3" x1="-396.4" y1="-1008.6" x2="1841.4" y2="283.4"/>
				<line class="st3" x1="-371.4" y1="-1051.9" x2="1866.4" y2="240.1"/>
				<line class="st3" x1="-346.4" y1="-1095.2" x2="1891.4" y2="196.8"/>
				<line class="st3" x1="-321.4" y1="-1138.5" x2="1916.4" y2="153.5"/>
				<line class="st3" x1="-296.4" y1="-1181.8" x2="1941.4" y2="110.2"/>
				<line class="st3" x1="-271.4" y1="-1225.1" x2="1966.4" y2="66.9"/>
				<line class="st3" x1="-246.4" y1="-1268.4" x2="1991.4" y2="23.6"/>
				<line class="st3" x1="-221.4" y1="-1311.7" x2="2016.4" y2="-19.7"/>
				<line class="st3" x1="-196.4" y1="-1355" x2="2041.4" y2="-63"/>
				<line class="st3" x1="-171.4" y1="-1398.3" x2="2066.4" y2="-106.3"/>
				<line class="st3" x1="-146.4" y1="-1441.6" x2="2091.4" y2="-149.6"/>
				<line class="st3" x1="-121.4" y1="-1484.9" x2="2116.4" y2="-192.9"/>
			</g>
		</g>
		<g>
			<defs>
				<rect id="SVGID_5_" x="-78" y="-69.3" width="799" height="800"/>
			</defs>
			<clipPath id="SVGID_6_">
				<use xlink:href="#SVGID_5_"  style="overflow:visible;"/>
			</clipPath>
			<g class="st5">
				<line class="st3" x1="2116.4" y1="853.3" x2="-121.4" y2="2145.3"/>
				<line class="st3" x1="2091.4" y1="810" x2="-146.4" y2="2102"/>
				<line class="st3" x1="2066.4" y1="766.7" x2="-171.4" y2="2058.7"/>
				<line class="st3" x1="2041.4" y1="723.4" x2="-196.4" y2="2015.4"/>
				<line class="st3" x1="2016.4" y1="680.1" x2="-221.4" y2="1972.1"/>
				<line class="st3" x1="1991.4" y1="636.8" x2="-246.4" y2="1928.8"/>
				<line class="st3" x1="1966.4" y1="593.5" x2="-271.4" y2="1885.5"/>
				<line class="st3" x1="1941.4" y1="550.2" x2="-296.4" y2="1842.2"/>
				<line class="st3" x1="1916.4" y1="506.9" x2="-321.4" y2="1798.9"/>
				<line class="st3" x1="1891.4" y1="463.6" x2="-346.4" y2="1755.6"/>
				<line class="st3" x1="1866.4" y1="420.3" x2="-371.4" y2="1712.3"/>
				<line class="st3" x1="1841.4" y1="377" x2="-396.4" y2="1669"/>
				<line class="st3" x1="1816.4" y1="333.7" x2="-421.4" y2="1625.7"/>
				<line class="st3" x1="1791.4" y1="290.4" x2="-446.4" y2="1582.4"/>
				<line class="st3" x1="1766.4" y1="247.1" x2="-471.4" y2="1539.1"/>
				<line class="st3" x1="1741.4" y1="203.8" x2="-496.4" y2="1495.8"/>
				<line class="st3" x1="1716.4" y1="160.5" x2="-521.4" y2="1452.5"/>
				<line class="st3" x1="1691.4" y1="117.2" x2="-546.4" y2="1409.2"/>
				<line class="st3" x1="1666.4" y1="73.9" x2="-571.4" y2="1365.9"/>
				<line class="st3" x1="1641.4" y1="30.6" x2="-596.4" y2="1322.6"/>
				<line class="st3" x1="1616.4" y1="-12.7" x2="-621.4" y2="1279.3"/>
				<line class="st3" x1="1591.4" y1="-56" x2="-646.4" y2="1236"/>
				<line class="st3" x1="1566.4" y1="-99.3" x2="-671.4" y2="1192.7"/>
				<line class="st3" x1="1541.4" y1="-142.6" x2="-696.4" y2="1149.4"/>
				<line class="st3" x1="1516.4" y1="-185.9" x2="-721.4" y2="1106.1"/>
				<line class="st3" x1="1491.4" y1="-229.2" x2="-746.4" y2="1062.8"/>
				<line class="st3" x1="1466.4" y1="-272.5" x2="-771.4" y2="1019.5"/>
				<line class="st3" x1="1441.4" y1="-315.8" x2="-796.4" y2="976.2"/>
				<line class="st3" x1="1416.4" y1="-359.1" x2="-821.4" y2="932.9"/>
				<line class="st3" x1="1391.4" y1="-402.4" x2="-846.4" y2="889.6"/>
				<line class="st3" x1="1366.4" y1="-445.7" x2="-871.4" y2="846.3"/>
				<line class="st3" x1="1341.4" y1="-489" x2="-896.4" y2="803"/>
				<line class="st3" x1="1316.4" y1="-532.3" x2="-921.4" y2="759.7"/>
				<line class="st3" x1="1291.4" y1="-575.6" x2="-946.4" y2="716.4"/>
				<line class="st3" x1="1266.4" y1="-618.9" x2="-971.4" y2="673.1"/>
				<line class="st3" x1="1241.4" y1="-662.2" x2="-996.4" y2="629.8"/>
				<line class="st3" x1="1216.4" y1="-705.5" x2="-1021.4" y2="586.5"/>
				<line class="st3" x1="1191.4" y1="-748.8" x2="-1046.4" y2="543.2"/>
				<line class="st3" x1="1166.4" y1="-792.1" x2="-1071.4" y2="499.9"/>
				<line class="st3" x1="1141.4" y1="-835.4" x2="-1096.4" y2="456.6"/>
				<line class="st3" x1="1116.4" y1="-878.7" x2="-1121.4" y2="413.3"/>
				<line class="st3" x1="1091.4" y1="-922" x2="-1146.4" y2="370"/>
				<line class="st3" x1="1066.4" y1="-965.3" x2="-1171.4" y2="326.7"/>
				<line class="st3" x1="1041.4" y1="-1008.6" x2="-1196.4" y2="283.4"/>
				<line class="st3" x1="1016.4" y1="-1051.9" x2="-1221.4" y2="240.1"/>
				<line class="st3" x1="991.4" y1="-1095.2" x2="-1246.4" y2="196.8"/>
				<line class="st3" x1="966.4" y1="-1138.5" x2="-1271.4" y2="153.5"/>
				<line class="st3" x1="941.4" y1="-1181.8" x2="-1296.4" y2="110.2"/>
				<line class="st3" x1="916.4" y1="-1225.1" x2="-1321.4" y2="66.9"/>
				<line class="st3" x1="891.4" y1="-1268.4" x2="-1346.4" y2="23.6"/>
				<line class="st3" x1="866.4" y1="-1311.7" x2="-1371.4" y2="-19.7"/>
				<line class="st3" x1="841.4" y1="-1355" x2="-1396.4" y2="-63"/>
				<line class="st3" x1="816.4" y1="-1398.3" x2="-1421.4" y2="-106.3"/>
				<line class="st3" x1="791.4" y1="-1441.6" x2="-1446.4" y2="-149.6"/>
				<line class="st3" x1="766.4" y1="-1484.9" x2="-1471.4" y2="-192.9"/>
			</g>
		</g>
	</g>
	<polygon class="st6" points="75,127.8 75,181.9 121.9,154.2 	"/>
	<polygon class="st6" points="25.1,269.7 73.1,297.5 73.1,241.8 24.8,214.5 	"/>
	<polygon class="st6" points="173.8,69.6 125.8,97.3 146,108.7 173.6,124.3 222,97 	"/>
	<polygon class="st6" points="171.6,125.5 123.8,98.4 76,126.1 112,146.3 123.9,153 145.9,140.3 	"/>
	<polygon class="st7" points="197.2,113.3 175.6,125.5 175.6,125.5 	"/>
	<polygon class="st7" points="175.8,183.4 175.8,183.4 187.1,176.9 	"/>
	<polygon class="st7" points="126,212.1 125.1,212.7 125,213.9 171.7,241.7 172.7,241.1 172.7,239.9 	"/>
	<polygon class="st7" points="173.1,185.2 172.8,232.7 173,191.6 	"/>
	<polygon class="st7" points="75.1,241.8 75.1,242.9 122,270.6 123,270 123,268.8 76,241.2 	"/>
	<polygon class="st7" points="80.3,246.8 118.7,208.4 118.7,208.4 	"/>
	<polygon class="st7" points="75.1,241.8 76,241.2 76,241.2 	"/>
	<polygon class="st7" points="295.3,101.8 295.3,101.8 295.2,75.4 	"/>
</g>
<g id="Future-Proof" class="st8">
	<polyline class="st9" points="396,448.4 396,502.7 293.5,561.1 87.5,442 87.5,387.7 	"/>
	<line class="st9" x1="293.5" y1="506.8" x2="293.5" y2="561.1"/>
	<polygon class="st9" points="190.1,328.3 87.5,387.7 293.5,506.8 396,448.4 	"/>
	<polyline class="st9" points="496.5,333.6 496.5,387.9 394,446.3 188,327.2 188,272.9 	"/>
	<line class="st9" x1="394" y1="392" x2="394" y2="446.3"/>
	<polygon class="st9" points="290.6,213.5 188,272.9 394,392 496.5,333.6 	"/>
	<g class="st1">
		<path class="st10" d="M372.9,437.4l-2.5-1.4L161,314.9v-60.4L269.1,192l211.8,123.5v60.4L372.9,437.4z M171.1,309.1L373,425.8
			l97.9-55.8v-48.8L269.1,203.6l-98,56.7V309.1z"/>
		
			<rect x="365.2" y="342.7" transform="matrix(0.8689 -0.4951 0.4951 0.8689 -116.4555 255.7458)" class="st10" width="118.5" height="10"/>
		<polygon class="st10" points="378,431.6 367.9,431.6 367.9,379.9 163.5,261.8 168.6,253.1 378,374.1 		"/>
	</g>
	<g class="st1">
		<path class="st10" d="M269.5,551.8L57.6,429.3V369l108.1-62.6L377.5,430v60.4L269.5,551.8z M67.6,423.6l201.9,116.7l97.9-55.8
			v-48.8L165.7,318.1l-98,56.7L67.6,423.6L67.6,423.6z"/>
		
			<rect x="261.7" y="457.1" transform="matrix(0.8689 -0.495 0.495 0.8689 -186.6723 219.4419)" class="st10" width="118.5" height="10"/>
		<polygon class="st10" points="274.5,546.1 264.5,546.1 264.5,494.4 60.1,376.2 65.1,367.5 274.5,488.6 		"/>
	</g>
	<g class="st1">
		<path class="st10" d="M475.4,323.9l-2.5-1.4L263.5,201.4V141l108.1-62.6L583.3,202v60.4L475.4,323.9z M273.5,195.6l201.9,116.7
			l97.9-55.8v-48.8L371.5,90.1l-98,56.7V195.6z"/>
		
			<rect x="467.6" y="229.2" transform="matrix(0.8688 -0.4951 0.4951 0.8688 -46.8466 291.5581)" class="st10" width="118.5" height="10"/>
		<polygon class="st10" points="480.4,318.1 470.4,318.1 470.4,266.4 266,148.3 271,139.6 480.4,260.6 		"/>
	</g>
</g>
<g id="Interoperable_v1" class="st8">
	<polygon class="st11" points="471.9,589.6 471.9,285.9 523.3,256 523.3,560.1 	"/>
	<path class="st12" d="M484.9,585.1l-12.8-7.4l-103.3-59.6l-57.5,33L133.5,449l-0.3-207.6l56.8-31V76.5l62.8-36.6L545,210
		l-0.1,340.2L484.9,585.1z M368.7,505.5l116.1,67l49.1-28.6l0.1-327.6L252.8,52.6L201,82.8v134.1l-56.8,31l0.2,194.8l166.8,95.8
		L368.7,505.5z"/>
	<polygon class="st12" points="484.7,252.7 194.1,85.1 199.5,75.6 484.7,240 536.8,210 542.2,219.5 	"/>
	<polygon class="st12" points="432.4,489.4 365.6,451.2 371,441.7 421.4,470.5 421.4,282.7 259.5,190.1 259.5,246.7 248.5,246.7 
		248.5,171.2 432.4,276.4 	"/>
	<rect x="305.3" y="213.4" class="st12" width="10.9" height="66.2"/>
	
		<rect x="219.5" y="195.3" transform="matrix(0.5061 -0.8625 0.8625 0.5061 -143.5765 339.8637)" class="st12" width="10.9" height="199.9"/>
	<path class="st9" d="M138.8,244.7"/>
	
		<rect x="306.8" y="323.8" transform="matrix(0.8668 -0.4986 0.4986 0.8668 -118.8821 213.3557)" class="st12" width="66.4" height="10.9"/>
	<polygon class="st12" points="374.5,511.9 363.6,511.9 363.6,315.9 192.9,218.5 198.3,208.9 374.5,309.6 	"/>
	<rect x="305.7" y="345.9" class="st12" width="10.9" height="198.7"/>
	<path class="st12" d="M259.2,454.4l-68.2-39v-77.2l68.2,38.8V454.4z M201.9,409l46.3,26.5v-52.2L201.9,357V409z"/>
	
		<rect x="192.4" y="390.6" transform="matrix(0.8729 -0.488 0.488 0.8729 -164.6561 160.1823)" class="st12" width="65.3" height="10.9"/>
	
		<rect x="392.2" y="362.1" transform="matrix(0.4991 -0.8666 0.8666 0.4991 -143.8011 542.8341)" class="st12" width="10.9" height="67.4"/>
	<rect x="479.1" y="246" class="st12" width="10.9" height="332.6"/>
</g>
<g id="Flexible" class="st8">
	<path class="st6" d="M511,217.5c0.1,0.1,0.2,0.2,0.4,0.2c0.1,0.1,0.2,0.1,0.3,0.2c0.1,0.1,0.3,0.2,0.4,0.3c0.1,0.1,0.1,0.1,0.2,0.2
		c0.1,0.1,0.2,0.3,0.4,0.4l0.1,0.1c0.1,0.2,0.2,0.3,0.3,0.5l0.1,0.1c0.1,0.2,0.2,0.4,0.3,0.5c0,0,0,0.1,0.1,0.1
		c0.1,0.2,0.1,0.4,0.2,0.5c0,0.1,0,0.1,0.1,0.2c0,0.2,0.1,0.4,0.1,0.6c0,0.1,0,0.1,0,0.2c0,0.2,0,0.3,0,0.5c0,0.1,0,0.2,0,0.3l0,0
		v52l41.9-24.4l-0.3-110.2l-89.4,51.6L511,217.5z"/>
	<polygon class="st6" points="306.9,470.1 395.9,521 396,418.2 	"/>
	<path class="st6" d="M406.4,156.7l24.7,14.3l23.8,13.7l95.1-55l-95.1-54.9l-95,54.8l45.2,26.1C405.6,156,406,156.3,406.4,156.7z"/>
	<polygon class="st6" points="88.3,355.9 88.3,466.3 183.4,522.7 183.5,410.8 	"/>
	<polygon class="st6" points="194.8,170.5 194.8,274.1 284.5,222.3 	"/>
	<polygon class="st6" points="502.5,466.7 502.5,356.4 407.4,411.5 407.3,521 	"/>
	<path class="st12" d="M513.8,346.5L513.8,346.5c0-0.1,0-0.2,0-0.3l0,0C513.8,346.3,513.8,346.4,513.8,346.5z"/>
	<polygon class="st12" points="407.5,411.6 502.5,356.4 502.5,356.4 	"/>
	<path class="st12" d="M395.9,530.7v-9.8l-89-50.8l-8.5,5l0,0l0,0h-0.1l0,0l0,0l-2.8,1.6l103.1,58.9
		C397,534.6,395.9,532.8,395.9,530.7z"/>
	<path class="st12" d="M398.8,535.7c0.1,0.1,0.2,0.1,0.3,0.1C399,535.8,398.9,535.7,398.8,535.7L398.8,535.7z"/>
	<polygon class="st12" points="398.7,535.7 398.8,535.7 398.7,535.6 	"/>
	<path class="st12" d="M511,351.4l-8.5,5v110.3L407.3,521l0.1-109.4l0,0l-0.1,119.2c0,2-1.1,3.9-2.8,4.9c-0.1,0.1-0.3,0.2-0.5,0.2
		c0.1-0.1,0.3-0.1,0.4-0.2L511,474.9c1.8-1,2.9-2.9,2.9-4.9V346.5l0,0C513.8,348.5,512.8,350.4,511,351.4z"/>
	<polygon class="st12" points="369.6,513.6 422.5,425.5 422.5,425.5 	"/>
	<path class="st12" d="M511,350.8l-103.6,60.7l0,0l0,0l0,0l95.1-55.2l0,0l8.5-5c1.8-1,2.8-2.9,2.8-4.9c0-0.1,0-0.2,0-0.3
		C513.7,348.1,512.7,349.8,511,350.8z"/>
	<path class="st12" d="M407.3,530.7l0.1-119.2l-2.8,1.6l0,0l0,0l0,0l0,0l-8.5,5L395.9,521l0,0v9.8c0,2,1.1,3.9,2.8,4.9l0,0
		c0.1,0.1,0.2,0.1,0.3,0.2c0.1,0.1,0.3,0.1,0.4,0.2c0.1,0,0.2,0.1,0.3,0.1c0.1,0,0.2,0.1,0.4,0.1c0.1,0,0.3,0.1,0.4,0.1
		s0.2,0,0.3,0.1c0.2,0,0.5,0,0.7,0s0.5,0,0.7,0c0.1,0,0.2,0,0.2,0c0.2,0,0.3-0.1,0.5-0.1c0.1,0,0.2-0.1,0.3-0.1
		c0.1,0,0.3-0.1,0.4-0.1s0.2-0.1,0.2-0.1c0.2-0.1,0.3-0.1,0.5-0.2C406.2,534.6,407.3,532.8,407.3,530.7z"/>
	<path class="st12" d="M404.6,413.2L404.6,413.2L404.6,413.2L404.6,413.2L404.6,413.2l2.8-1.6l0,0L404.6,413.2L404.6,413.2z"/>
	<polygon class="st12" points="342.6,201.6 342.6,201.6 306.9,222.3 306.9,222.3 	"/>
	<polygon class="st12" points="396.3,170.7 396.3,170.6 354,195 354,195.1 	"/>
	<path class="st12" d="M405.1,155.7l-45.2-26.1l-0.2,0.1l46.7,27C406,156.3,405.6,156,405.1,155.7z"/>
	<path class="st12" d="M192,155.7l103.6,59.8l0,0l-95.1-54.9l95.2-55l46.9,27.1v-3c0-0.8,0.2-1.5,0.4-2.2c0.5-1.1,1.3-2.1,2.4-2.7
		l0,0l3.1-1.8l-50-28.9c-1.8-1-3.9-1-5.7,0l-106.6,61.5C188.1,154.7,190.2,154.7,192,155.7z"/>
	<path class="st12" d="M185,280.1c0.1-0.1,0.1-0.1,0.2-0.2c0.1-0.1,0.2-0.1,0.2-0.2c0.1-0.1,0.2-0.2,0.3-0.3c0.1,0,0.1-0.1,0.2-0.1
		c0.1-0.1,0.3-0.2,0.4-0.3l8.5-4.9V170.5l89.7,51.8l0,0l-98.2-56.7c-1.8-1-2.8-2.9-2.8-4.9v120.6l1.1-0.7
		C184.7,280.4,184.9,280.2,185,280.1z"/>
	<path class="st12" d="M186.3,165.6l98.2,56.7l6.2-3.6l0,0c0.1-0.1,0.2-0.2,0.3-0.3c0.1-0.1,0.1-0.1,0.2-0.2
		c0.1-0.1,0.2-0.2,0.3-0.3c0.1-0.1,0.2-0.1,0.2-0.2c0.1-0.1,0.3-0.2,0.4-0.3l0,0l0,0l3.4-1.9L192,155.7c-1.8-1-3.9-1-5.7,0
		s-2.8,2.9-2.8,4.9S184.5,164.6,186.3,165.6z"/>
	<polygon class="st12" points="306.8,346.2 306.8,346.2 395.9,294.4 395.9,294.2 	"/>
	<polygon class="st12" points="306.8,346.2 306.8,346.2 306.8,346.2 	"/>
	<polygon class="st12" points="342.6,201.6 342.6,201.5 306.8,222.2 306.9,222.3 	"/>
	<polygon class="st12" points="396.3,170.7 402,167.4 401.9,167.3 354,194.9 354,195 396.3,170.6 	"/>
	<path class="st12" d="M454.9,74.8l95.1,54.9l8.3-4.8c1.8-1,3.9-1,5.7,0s2.8,2.9,2.8,4.9v1.8c0.2-0.6,0.3-1.2,0.3-1.9
		c0-2-1.1-3.9-2.8-4.9L457.7,63.3c-1.8-1-3.9-1-5.7,0L348.5,123l11.4,6.6L454.9,74.8z"/>
	<polygon class="st12" points="466.1,191.4 466.1,191.4 555.5,139.8 555.5,139.7 	"/>
	<polygon class="st12" points="454.9,184.7 454.9,184.7 431.1,171 	"/>
	<path class="st12" d="M351.2,124.9l8.5,4.9l0.2-0.1l-11.4-6.6l-3.1,1.8C347.2,123.8,349.4,123.8,351.2,124.9z"/>
	<polygon class="st12" points="406.4,156.7 406.4,156.7 431.1,171 	"/>
	<path class="st12" d="M390.3,284.3l0.4-0.2l-46.1-26.6c0.3,0.2,0.6,0.5,0.9,0.7L390.3,284.3z"/>
	<path class="st12" d="M342.6,129.8v3l1.6,0.9C343.2,132.7,342.6,131.3,342.6,129.8z"/>
	<path class="st12" d="M345.5,124.9L345.5,124.9L345.5,124.9c-1.1,0.6-1.9,1.6-2.4,2.7C343.5,126.5,344.4,125.5,345.5,124.9z"/>
	<polygon class="st12" points="406.4,156.7 406.4,156.7 359.7,129.8 359.7,129.8 	"/>
	<polygon class="st12" points="354,195.1 354,195 342.6,201.6 342.6,201.6 	"/>
	<polygon class="st12" points="354,195 354,194.9 342.6,201.5 342.6,201.6 	"/>
	<path class="st12" d="M406.4,156.7C406.4,156.8,406.4,156.8,406.4,156.7l48.4,28.1l0.1-0.1L431.1,171L406.4,156.7z"/>
	<path class="st12" d="M344.2,133.7c0.4,0.4,0.8,0.7,1.3,1l45.1,26l0.2-0.1L344.2,133.7z"/>
	<path class="st12" d="M390.8,160.6l8.3-4.8c1.1-0.6,2.3-0.9,3.5-0.7h0.1c0.2,0,0.4,0.1,0.5,0.1s0.1,0,0.2,0s0.3,0.1,0.4,0.1
		s0.2,0.1,0.3,0.1c0.1,0,0.2,0.1,0.3,0.2c0.1,0.1,0.2,0.1,0.3,0.2l0,0l0,0l1.6,0.9c0,0,0,0,0-0.1l-46.7-27l0,0l-8.5-4.9
		c-1.8-1-3.9-1-5.7,0l0,0c-1.1,0.6-1.9,1.6-2.4,2.7c-0.3,0.7-0.4,1.4-0.4,2.2c0,1.5,0.6,2.9,1.6,3.9L390.8,160.6z"/>
	<path class="st12" d="M404.8,155.8c-0.1-0.1-0.2-0.1-0.3-0.2C404.5,155.7,404.7,155.8,404.8,155.8L404.8,155.8z"/>
	<polygon class="st12" points="454.9,184.7 550.1,129.8 550,129.7 	"/>
	<path class="st12" d="M564.3,134.7l-8.8,5.1l0.3,110.2l-41.9,24.4v13.1l50.5-29.3c1.8-1,2.8-2.9,2.8-4.9l-0.3-121.6
		C566.4,132.9,565.5,134,564.3,134.7z"/>
	<path class="st12" d="M563.9,125c-1.8-1-3.9-1-5.7,0l-8.3,4.8h0.1l-95.2,55l0,0l0,0l2.8,1.6c0.4,0.2,0.7,0.5,1,0.8l7.3,4.3
		l89.4-51.7v0.1l8.8-5.1c1.2-0.7,2.1-1.8,2.5-3.1v-1.8C566.8,127.9,565.7,126,563.9,125z"/>
	<path class="st12" d="M458.7,187.1c-0.3-0.3-0.6-0.5-1-0.8l-2.8-1.6l-0.1,0.1L458.7,187.1z"/>
	<path class="st12" d="M460.5,201.3l36.3,21l-36.3,21l0,0l44.8-25.9c1.8-1,3.9-1,5.7,0c0.1,0.1,0.2,0.2,0.4,0.2
		c-0.1-0.1-0.2-0.2-0.4-0.2l-44.9-26.1l-5.5,3.2L460.5,201.3z"/>
	<polygon class="st12" points="342.6,188.5 342.6,188.4 295.6,215.5 295.7,215.6 	"/>
	<polygon class="st12" points="407.9,273.7 407.9,273.7 449.1,249.9 449.1,249.9 449.1,249.9 	"/>
	<polygon class="st12" points="412.5,284.2 449.1,263.1 449.1,263.1 	"/>
	<polygon class="st12" points="449.2,194.7 449.2,194.6 407.6,170.6 407.6,170.6 	"/>
	<polygon class="st12" points="390.6,160.7 390.6,160.7 354,181.8 354,181.9 	"/>
	<path class="st12" d="M460.5,256.5l9.2-5.3L460.5,256.5z"/>
	<rect x="295.6" y="215.5" class="st12" width="0" height="0.2"/>
	<path class="st12" d="M295.7,215.6l-0.1-0.1l-3.4,1.9l0,0c0.3-0.2,0.7-0.4,1.1-0.5L295.7,215.6z"/>
	<path class="st12" d="M290.7,218.7L290.7,218.7L290.7,218.7L290.7,218.7z"/>
	<polygon class="st12" points="401.9,277.1 407.9,273.7 407.9,273.7 	"/>
	<polygon class="st12" points="402,167.4 407.6,170.6 407.6,170.6 402,167.3 	"/>
	<polygon class="st12" points="342.6,188.5 342.6,188.5 295.7,215.6 295.7,215.6 	"/>
	<polygon class="st12" points="390.6,160.7 354,181.9 354,181.9 390.6,160.8 	"/>
	<path class="st12" d="M299.6,218l7.2,4.1l35.9-20.7v-13l-46.9,27.1l0,0l0,0l2.8,1.6C298.9,217.5,299.3,217.7,299.6,218z"/>
	<polygon class="st12" points="401.9,167.3 402,167.4 402,167.3 390.6,160.8 354,181.9 354,194.9 	"/>
	<path class="st12" d="M298.6,217.5l1,0.6c-0.3-0.3-0.7-0.6-1.1-0.8l-2.8-1.6l-2.4,1.4c0.7-0.2,1.4-0.3,2.1-0.3
		C296.5,216.6,297.6,216.9,298.6,217.5z"/>
	<polygon class="st12" points="460.5,194.6 466.1,191.4 466.1,191.4 	"/>
	<polygon class="st12" points="354,181.8 342.6,188.4 342.6,188.5 354,181.9 	"/>
	<polygon class="st12" points="390.5,160.7 390.5,160.7 390.5,160.7 	"/>
	<polygon class="st12" points="412,284.4 412.5,284.1 412.5,284.1 	"/>
	<polygon class="st12" points="460.6,201.3 460.6,194.6 460.6,194.6 	"/>
	<polygon class="st12" points="407.6,170.6 449.2,194.6 449.2,194.7 449.2,194.7 449.2,194.6 	"/>
	<polygon class="st12" points="460.5,243.3 460.5,243.3 460.5,243.3 	"/>
	<polygon class="st12" points="407.7,285.6 412.4,285.6 412.4,285.6 	"/>
	<polygon class="st12" points="354,181.9 354,181.9 342.6,188.5 342.6,188.5 	"/>
	<polygon class="st12" points="401.6,169 408.1,169 408.1,169 	"/>
	<rect x="390.6" y="160.7" class="st12" width="0" height="0.1"/>
	<rect x="396.3" y="157.5" class="st12" width="0" height="13.1"/>
	<polygon class="st12" points="354,181.9 342.6,188.5 342.6,201.5 354,194.9 	"/>
	<path class="st12" d="M407.6,162.5v8.1l41.6,24v-3.3c0-2,1.1-3.9,2.8-4.9l2.7-1.6l-48.3-28c1,1,1.5,2.4,1.5,3.9
		C407.9,161.3,407.8,161.9,407.6,162.5z"/>
	<polygon class="st12" points="460.6,194.6 460.6,194.6 460.6,194.6 	"/>
	<polygon class="st12" points="390.8,160.6 390.8,160.6 390.6,160.7 390.6,160.7 	"/>
	<path class="st12" d="M399.1,155.8c1.1-0.6,2.3-0.9,3.5-0.7C401.4,155,400.2,155.2,399.1,155.8l-8.3,4.8l0,0L399.1,155.8z"/>
	<path class="st12" d="M407.6,160.7v1.8c0.2-0.6,0.3-1.2,0.3-1.8c0-1.5-0.6-2.8-1.5-3.9l-1.6-0.9l0,0
		C406.5,156.8,407.6,158.7,407.6,160.7z"/>
	<polygon class="st12" points="390.9,160.6 390.8,160.6 390.6,160.7 390.6,160.8 	"/>
	<path class="st12" d="M407.6,162.5c-0.4,1.3-1.3,2.4-2.5,3.1l-3.1,1.8l5.6,3.2V162.5z"/>
	<path class="st12" d="M399.1,155.8l-8.3,4.8h0.1l-0.2,0.1l11.4,6.6l3.1-1.8c1.2-0.7,2.1-1.8,2.5-3.1v-1.8c0-2-1.1-3.9-2.8-4.9
		c-0.1-0.1-0.2-0.1-0.3-0.2c-0.1-0.1-0.2-0.1-0.3-0.2c-0.1,0-0.2-0.1-0.3-0.1c-0.1,0-0.3-0.1-0.4-0.1s-0.1,0-0.2,0
		c-0.2,0-0.4-0.1-0.5-0.1h-0.1C401.4,155,400.2,155.2,399.1,155.8z"/>
	<polygon class="st12" points="449.1,263.1 449.1,263.1 449.1,263.1 	"/>
	<path class="st12" d="M460.6,194.6l5.5-3.2l-7.3-4.3c1.2,1.1,1.8,2.6,1.8,4.2V194.6z"/>
	<path class="st12" d="M460.5,201.3v-6.7l-2.8,1.6c-0.9,0.5-1.9,0.8-2.8,0.8s-2-0.3-2.8-0.8l-2.8-1.6v0.2L460.5,201.3z"/>
	<polygon class="st12" points="449.1,249.9 460.4,243.3 460.4,243.3 	"/>
	<polygon class="st12" points="448.2,259.8 461.3,259.8 461.3,259.8 	"/>
	<path class="st12" d="M452,186.4c-1.8,1-2.8,2.9-2.8,4.9v3.3l2.8,1.6c0.9,0.5,1.9,0.8,2.8,0.8s2-0.3,2.8-0.8l2.8-1.6l0,0l0,0v-3.3
		c0-1.6-0.7-3.1-1.8-4.2l-4-2.3L452,186.4z"/>
	<polygon class="st12" points="344.5,257.5 344.5,257.5 301.4,232.6 301.4,232.6 	"/>
	<rect x="395.9" y="294.4" class="st12" width="0" height="0.4"/>
	<polygon class="st12" points="404.5,413.2 404.5,413.2 404.6,413.2 404.6,413.2 	"/>
	<path class="st12" d="M292.2,217.5c-0.1,0.1-0.3,0.2-0.4,0.3C291.9,217.6,292.1,217.5,292.2,217.5L292.2,217.5z"/>
	<polygon class="st12" points="301.4,232.6 301.4,232.6 301.4,232.6 	"/>
	<rect x="395.9" y="294.2" class="st12" width="0" height="0.2"/>
	<polygon class="st12" points="306.8,346.2 301.2,349.5 301.2,349.5 	"/>
	<polygon class="st12" points="390.6,284.1 390.6,284.1 344.5,257.5 344.5,257.5 	"/>
	<path class="st12" d="M344.5,257.5c-0.3-0.3-0.6-0.6-0.8-0.9l-42.4-24.5v0.4L344.5,257.5z"/>
	<path class="st12" d="M291.6,218.2c0.4-0.4,0.8-0.7,1.2-0.9l0.4-0.3c-0.4,0.1-0.7,0.3-1.1,0.5c-0.1,0.1-0.3,0.2-0.4,0.3
		s-0.2,0.1-0.2,0.2c-0.1,0.1-0.2,0.2-0.3,0.3c-0.1,0.1-0.1,0.1-0.2,0.2c-0.1,0.1-0.2,0.2-0.3,0.3l0,0L291.6,218.2z"/>
	<polygon class="st12" points="301.4,232.6 301.4,232.2 301.4,232.2 	"/>
	<polygon class="st12" points="301.4,232.2 295.7,228.9 295.4,229.1 301.4,232.6 	"/>
	<path class="st12" d="M295.4,216.7c-0.7,0-1.4,0.1-2.1,0.3l-0.4,0.3c-0.4,0.3-0.9,0.6-1.2,0.9l1.3-0.7
		C293.7,217,294.5,216.8,295.4,216.7z"/>
	<path class="st12" d="M391,283.9l-47.2-27.3c0.2,0.3,0.5,0.6,0.8,0.9l46.1,26.6L391,283.9z"/>
	<path class="st12" d="M502.5,336.6l8.5,4.9l0,0c1.5,0.9,2.5,2.3,2.8,4c0,0.1,0,0.1,0,0.2s0,0.2,0,0.4v0.1c0-0.1,0-0.2,0-0.3v-58.4
		l-11.4,6.6v42.5H502.5z"/>
	<path class="st12" d="M511,227.3l-41.3,23.9l32.8-18.9V281l11.4-6.6v-52C513.8,224.4,512.8,226.3,511,227.3z"/>
	<polygon class="st12" points="407.4,398.4 485.3,353.2 496.8,346.5 496.3,346.2 407.4,398.3 	"/>
	<path class="st12" d="M513.8,222.4c0-0.1,0-0.2,0-0.3C513.8,222.2,513.8,222.3,513.8,222.4L513.8,222.4z"/>
	<path class="st12" d="M513.8,346.2L513.8,346.2C513.8,346.2,513.8,346.1,513.8,346.2C513.8,346.1,513.8,346.2,513.8,346.2z"/>
	<path class="st12" d="M496.3,346.2l0.5,0.3l-11.6,6.7l20.1-11.6c1.8-1,3.9-1,5.7,0l-8.5-4.9v6L496.3,346.2z"/>
	<path class="st12" d="M513.8,345.5c-0.3-1.7-1.3-3.1-2.8-4l0,0l0,0C512.5,342.4,513.5,343.9,513.8,345.5z"/>
	<path class="st12" d="M407.4,398.4l77.9-45.2L407.4,398.4z"/>
	<path class="st12" d="M505.3,341.6l-20.1,11.6l-77.8,45.2v9.9l0,0v3.2L511,350.8c1.7-1,2.7-2.7,2.8-4.6v-0.1c0-0.1,0-0.3,0-0.4
		s0-0.1,0-0.2c-0.3-1.7-1.3-3.1-2.8-4l0,0C509.2,340.6,507.1,340.6,505.3,341.6z"/>
	<path class="st12" d="M407.4,408.7c0,0.1,0,0.2,0,0.3c0,0.2-0.1,0.3-0.1,0.5c0,0.1,0,0.2-0.1,0.3c0,0.2-0.1,0.4-0.2,0.5
		c0,0.1,0,0.1-0.1,0.2c-0.1,0.2-0.2,0.4-0.3,0.7c0,0.1-0.1,0.2-0.2,0.2c-0.1,0.1-0.2,0.3-0.2,0.4c-0.1,0.1-0.2,0.2-0.3,0.3
		c-0.1,0.1-0.1,0.2-0.2,0.2c-0.1,0.1-0.2,0.2-0.3,0.3c-0.1,0.1-0.1,0.1-0.2,0.2s-0.3,0.2-0.4,0.3c-0.1,0.1-0.1,0.1-0.2,0.2l0,0
		l2.8-1.6v-3.2C407.4,408.4,407.4,408.6,407.4,408.7z"/>
	<polygon class="st12" points="502.5,281 502.5,294.1 513.8,287.5 513.8,274.4 	"/>
	<polygon class="st12" points="407.9,281.5 412.5,284.2 449.1,263.1 449.1,254.2 449.1,249.9 407.9,273.7 	"/>
	<path class="st12" d="M505.3,217.5l-44.8,25.9v12.8v0.3l9.2-5.3l41.3-23.9c1.8-1,2.8-2.9,2.8-4.9c0-0.1,0-0.2,0-0.3
		c0-0.2,0-0.3,0-0.5c0-0.1,0-0.1,0-0.2c0-0.2-0.1-0.4-0.1-0.6c0-0.1,0-0.1-0.1-0.2c-0.1-0.2-0.1-0.4-0.2-0.5c0,0,0-0.1-0.1-0.1
		c-0.1-0.2-0.2-0.4-0.3-0.5l-0.1-0.1c-0.1-0.2-0.2-0.3-0.3-0.5l-0.1-0.1c-0.1-0.1-0.2-0.3-0.4-0.4c-0.1-0.1-0.1-0.1-0.2-0.2
		c-0.1-0.1-0.2-0.2-0.4-0.3c-0.1-0.1-0.2-0.1-0.3-0.2c-0.1-0.1-0.2-0.2-0.4-0.2C509.2,216.5,507.1,216.5,505.3,217.5z"/>
	<path class="st12" d="M405.1,279c0.2,0.1,0.4,0.3,0.6,0.4l0,0c0.2,0.1,0.4,0.3,0.5,0.5c0.1,0.1,0.1,0.2,0.2,0.2
		c0.1,0.1,0.2,0.2,0.3,0.3c0.1,0.1,0.1,0.2,0.2,0.3c0.1,0.1,0.1,0.2,0.2,0.3l0,0l0.7,0.4v-7.8l-6,3.4L405.1,279z"/>
	<polygon class="st12" points="460.5,256.2 460.5,243.3 460.5,243.3 	"/>
	<polygon class="st12" points="407.9,282.1 412,284.4 412.5,284.2 407.9,281.5 	"/>
	<path class="st12" d="M407.9,283.2c0,0.1,0,0.2,0,0.4c0,0.1,0,0.2,0,0.4l0,0l0,0v2.9l4.1-2.4l-4.1-2.4V283.2z"/>
	<path class="st12" d="M407.4,281.4c0.1,0.1,0.1,0.2,0.2,0.3c0,0,0,0.1,0.1,0.1l0.3,0.2v-0.6l-0.7-0.4
		C407.3,281.2,407.3,281.3,407.4,281.4z"/>
	<path class="st12" d="M407.7,282.1c0,0.1,0.1,0.2,0.1,0.4c0,0.1,0,0.2,0.1,0.4c0,0.1,0.1,0.2,0.1,0.4l0,0v-1.1l-0.3-0.2
		C407.6,281.9,407.6,282,407.7,282.1z"/>
	<polygon class="st12" points="449.1,263.1 449.1,263.1 449.1,254.2 	"/>
	<polygon class="st12" points="449.1,249.9 449.1,249.9 449.1,254.2 449.1,263.1 460.5,256.5 460.5,256.2 460.5,243.3 	"/>
	<polygon class="st12" points="396,398.4 396.1,398.4 396.6,294.4 395.9,294.8 	"/>
	<polygon class="st12" points="395.9,294.4 395.9,294.8 396.6,294.4 396.6,294 	"/>
	<rect x="396" y="398.3" class="st12" width="0" height="0.1"/>
	<polygon class="st12" points="396.1,398.4 396,398.4 396,405 396.1,405 	"/>
	<polygon class="st12" points="395.9,294.2 395.9,294.4 396.6,294 396.6,293.8 	"/>
	<polygon class="st12" points="260.6,319.2 200.5,283.9 289.4,232.6 289.4,225.1 284.5,222.3 194.8,274.1 194.8,280.6 	"/>
	<path class="st12" d="M390.3,284.3l-31.2,18.2L390.3,284.3z"/>
	<polygon class="st12" points="342.6,242.9 306.9,222.3 306.5,222.5 342.6,243.3 	"/>
	<polygon class="st12" points="354,249.9 396.5,274.4 396.5,274 354,249.5 	"/>
	<polygon class="st12" points="306.6,222.6 306.8,222.2 306.8,222.2 	"/>
	<path class="st12" d="M192.1,279l2.8,1.6v-6.5l-8.5,4.9c-0.1,0.1-0.3,0.2-0.4,0.3c0.1-0.1,0.3-0.2,0.4-0.3
		C188.1,278,190.3,278,192.1,279z"/>
	<rect x="287" y="220.9" class="st12" width="0" height="5.6"/>
	<path class="st12" d="M289.4,222.4L289.4,222.4L289.4,222.4c0-0.1,0-0.3,0-0.4c0-0.1,0-0.3,0-0.4c0-0.1,0-0.2,0.1-0.4
		c0-0.1,0-0.2,0.1-0.4c0-0.1,0.1-0.2,0.1-0.3s0.1-0.2,0.1-0.4c0-0.1,0.1-0.2,0.1-0.3c0.1-0.1,0.1-0.2,0.2-0.4
		c0.1-0.1,0.1-0.2,0.2-0.3s0.1-0.2,0.2-0.3s0.1-0.1,0.2-0.2l-6.2,3.6l4.8,2.8L289.4,222.4z"/>
	<polygon class="st12" points="401.6,277.3 402,277.1 396.5,274 396.5,274.4 	"/>
	<polygon class="st12" points="306.8,346.2 396,294.2 396,294.2 	"/>
	<polygon class="st12" points="306.8,346.2 306.8,346.2 306.8,346.2 	"/>
	<polygon class="st12" points="306.5,222.5 306.9,222.3 306.8,222.2 306.4,222.4 	"/>
	<polygon class="st12" points="342.6,242.9 342.6,243.3 354,249.9 354,249.5 	"/>
	<polygon class="st12" points="390.2,284.3 390.6,284.1 390.6,284.1 	"/>
	<rect x="375.3" y="237.6" class="st12" width="0" height="49.1"/>
	<rect x="324.6" y="212" class="st12" width="0" height="41.7"/>
	<polygon class="st12" points="306.6,222.5 306.6,222.5 306.6,222.5 	"/>
	<path class="st12" d="M289.4,222.4L289.4,222.4c0-0.1,0-0.2,0-0.4C289.4,222.1,289.4,222.3,289.4,222.4z"/>
	<path class="st12" d="M290.7,218.7L290.7,218.7c-0.1,0.1-0.1,0.1-0.2,0.2C290.6,218.9,290.7,218.8,290.7,218.7z"/>
	<polygon class="st12" points="396.5,274.4 396.5,274.4 401.6,277.3 402,277.1 402,277.1 401.6,277.3 	"/>
	<path class="st12" d="M306.5,222.5l-0.1-0.1l0.4-0.2l-7.2-4.1c0.3,0.3,0.5,0.5,0.7,0.8L306.5,222.5L306.5,222.5z"/>
	<path class="st12" d="M298.6,217.5c-1-0.6-2.1-0.8-3.2-0.7c0.9,0,1.7,0.3,2.5,0.7l2.4,1.4c-0.2-0.3-0.5-0.6-0.7-0.8L298.6,217.5z"
		/>
	<rect x="348.3" y="240" class="st12" width="0" height="13.1"/>
	<polygon class="st12" points="290,225.4 289.4,225.1 289.4,232.6 290,232.3 	"/>
	<rect x="289.7" y="224.9" class="st12" width="0" height="0.7"/>
	<path class="st12" d="M290,225c-0.4-0.8-0.6-1.7-0.6-2.6l0,0v2.7l0.6,0.4V225z"/>
	<polygon class="st12" points="288.2,231.8 291.8,226 291.8,226 	"/>
	<polygon class="st12" points="395.9,294.2 395.9,294.2 395.9,294.2 	"/>
	<polygon class="st12" points="300.8,347.8 307.3,347.8 307.3,347.8 	"/>
	<path class="st12" d="M290,232.3l5.4-3.1l-3.2-1.8c-0.7-0.4-1.3-1-1.8-1.6l-0.4-0.2l0,0l0,0V232.3z"/>
	<path class="st12" d="M290,225v0.4l0.4,0.2C290.3,225.5,290.1,225.2,290,225z"/>
	<polygon class="st12" points="390.6,284.1 390.6,284.1 390.6,284.1 	"/>
	<polygon class="st12" points="354,249.9 354,250 396.5,274.8 396.5,274.4 	"/>
	<path class="st12" d="M342.6,253.3v-10l-36.1-20.8l-5.2,3v6.7l42.4,24.5C343,255.7,342.6,254.5,342.6,253.3z"/>
	<polygon class="st12" points="301.4,225.5 306.6,222.5 306.6,222.5 	"/>
	<path class="st12" d="M290,222.2c0-1.5,0.6-2.9,1.6-4l-0.9,0.5c-0.1,0.1-0.1,0.1-0.2,0.2c-0.1,0.1-0.2,0.2-0.2,0.3
		c-0.1,0.1-0.1,0.2-0.2,0.3s-0.1,0.2-0.2,0.4c0,0.1-0.1,0.2-0.1,0.3s-0.1,0.2-0.1,0.4c0,0.1-0.1,0.2-0.1,0.3s0,0.2-0.1,0.4
		c0,0.1-0.1,0.2-0.1,0.4c0,0.1,0,0.3,0,0.4c0,0.1,0,0.3,0,0.4c0,0.9,0.2,1.8,0.6,2.6L290,222.2z"/>
	<polygon class="st12" points="401.6,277.3 396.5,274.4 396.5,274.8 401.2,277.6 	"/>
	<polygon class="st12" points="301.3,232.2 301.4,225.5 301.4,225.5 	"/>
	<path class="st12" d="M301.4,225.4l5.2-3l-6.2-3.6c0.7,1,1.1,2.1,1.1,3.3L301.4,225.4L301.4,225.4L301.4,225.4z"/>
	<path class="st12" d="M292.2,227.3l3.2,1.8l0.4-0.2l5.6,3.2v-6.7l-2.8,1.6c-0.9,0.5-1.9,0.8-2.8,0.8s-2-0.3-2.8-0.8l-2.4-1.4
		C290.9,226.3,291.5,226.9,292.2,227.3z"/>
	<path class="st12" d="M290,225c0.1,0.2,0.3,0.5,0.4,0.7l2.4,1.4c0.9,0.5,1.9,0.8,2.8,0.8s2-0.3,2.8-0.8l2.8-1.6v-3.3
		c0-1.2-0.4-2.4-1.1-3.3l-2.4-1.4c-0.8-0.5-1.7-0.7-2.5-0.7c-0.8,0.1-1.7,0.3-2.5,0.7l-1.3,0.7c-1,1-1.6,2.5-1.6,4L290,225z"/>
	<path class="st12" d="M390.6,284.1L390.6,284.1l5.9-3.5v-5.8L354,250v-0.2l-11.4-6.6v10c0,1.2,0.4,2.4,1.1,3.4l47.2,27.3
		L390.6,284.1z"/>
	<path class="st12" d="M398.8,279l2.5-1.4l-4.7-2.7v5.8l0.7-0.4C397.7,279.8,398.2,279.3,398.8,279z"/>
	<path class="st12" d="M403.3,278.3c0.6,0.1,1.3,0.3,1.9,0.7c0.2,0.1,0.4,0.3,0.6,0.4c-0.2-0.2-0.4-0.3-0.6-0.4l-3.2-1.8l-0.4,0.2
		L403.3,278.3z"/>
	<path class="st12" d="M408,283.9c0-0.1,0-0.2,0-0.4C408,283.6,408,283.8,408,283.9L408,283.9z"/>
	<polygon class="st12" points="395.9,294 396.6,294 396.6,294 	"/>
	<path class="st12" d="M402.3,278.2c0.3,0,0.6,0,0.9,0.1l-1.7-1l-0.4,0.2L402.3,278.2z"/>
	<path class="st12" d="M398.8,279c-0.6,0.3-1.1,0.8-1.5,1.3l2.2-1.3c0.9-0.5,1.9-0.8,2.9-0.8l-1.1-0.7L398.8,279z"/>
	<path class="st12" d="M289.8,336.3l-29.2-17.1L289.8,336.3z"/>
	<path class="st12" d="M298.4,475.1L298.4,475.1L298.4,475.1z"/>
	<path class="st12" d="M185,280.1c-0.1,0.2-0.3,0.3-0.4,0.5l0,0C184.7,280.4,184.9,280.2,185,280.1z"/>
	<polygon class="st12" points="289.8,336.3 289.9,336.3 289.9,336.3 	"/>
	<polygon class="st12" points="289.8,336.3 289.8,336.3 289.8,336.3 	"/>
	<polygon class="st12" points="289.4,337.9 296,337.9 296,337.9 	"/>
	<polygon class="st12" points="260.6,319.2 194.8,280.6 194.8,280.9 289.8,336.3 289.8,336.3 	"/>
	<path class="st12" d="M186.3,279.6c1.8-1,3.9-1,5.7,0l97.8,56.7l0,0l-95-55.4v-0.3L192,279c-1.8-1-3.9-1-5.7,0
		c-0.2,0.1-0.3,0.2-0.4,0.3c-0.1,0-0.1,0.1-0.2,0.1c-0.1,0.1-0.2,0.2-0.3,0.3c-0.1,0.1-0.2,0.1-0.2,0.2c-0.1,0.1-0.1,0.1-0.2,0.2
		c-0.1,0.2-0.3,0.3-0.4,0.5L186.3,279.6z"/>
	<polygon class="st12" points="289.8,336.3 289.8,336.3 289.8,336.3 	"/>
	<polygon class="st12" points="289.8,336.3 289.8,336.3 289.8,336.3 	"/>
	<polygon class="st12" points="289.8,336.3 289.8,336.3 289.8,336.3 	"/>
	<polygon class="st12" points="295.5,339.6 289.8,336.3 289.8,336.3 289.8,336.3 289.8,336.3 	"/>
	<polygon class="st12" points="396,411.5 390.4,408.3 301.2,460.3 301.2,356.1 301.2,356.1 301.2,466.9 306.9,470.1 396,418.2 	"/>
	<polygon class="st12" points="407.4,398.4 407.4,398.3 407.9,295.2 407.3,294.8 	"/>
	<polygon class="st12" points="359.1,302.5 301.2,336.3 301.2,336.3 	"/>
	<polygon class="st12" points="407.3,294.8 407.9,295.2 407.9,294.6 407.3,294.3 	"/>
	<rect x="393.2" y="406.7" class="st12" width="0" height="6.5"/>
	<path class="st12" d="M301.2,470.2c0,0.3,0,0.5,0,0.7c0,0.1-0.1,0.3-0.1,0.4s0,0.2-0.1,0.3c0,0.1-0.1,0.3-0.1,0.4s-0.1,0.2-0.1,0.3
		c0,0.1-0.1,0.2-0.2,0.3c-0.1,0.1-0.1,0.2-0.2,0.3c-0.1,0.1-0.1,0.2-0.2,0.3c-0.1,0.1-0.1,0.2-0.2,0.3c-0.1,0.1-0.1,0.2-0.2,0.3
		c-0.1,0.1-0.2,0.2-0.3,0.3c-0.1,0.1-0.2,0.2-0.3,0.2c-0.1,0.1-0.2,0.2-0.3,0.3c-0.1,0.1-0.2,0.2-0.3,0.2c-0.1,0.1-0.2,0.1-0.3,0.2
		l8.5-5l-5.7-3.2L301.2,470.2z"/>
	<polygon class="st12" points="301.2,356.1 301.2,356.1 301.2,356.1 	"/>
	<rect x="396" y="411.5" class="st12" width="0" height="6.6"/>
	<path class="st12" d="M404.1,413.4c-0.1,0-0.1,0.1-0.2,0.1l0,0c-0.1,0.1-0.2,0.1-0.4,0.1c-0.1,0-0.1,0-0.2,0.1h-0.1l0,0
		c-0.1,0-0.3,0.1-0.4,0.1s-0.1,0-0.2,0h-0.1l0,0c-0.2,0-0.5,0-0.7,0s-0.5,0-0.7,0c-0.1,0-0.1,0-0.2,0c-0.2,0-0.4-0.1-0.6-0.1
		c-0.1,0-0.1-0.1-0.2-0.1c-0.2-0.1-0.3-0.1-0.5-0.2c-0.1,0-0.2-0.1-0.2-0.1c-0.1-0.1-0.3-0.1-0.4-0.2l0,0l0,0l-2.8-1.6l0,0l0,0v6.6
		l8.5-5c-0.1,0.1-0.2,0.1-0.3,0.2C404.2,413.4,404.1,413.4,404.1,413.4z"/>
	<path class="st12" d="M403.2,413.8L403.2,413.8L403.2,413.8L403.2,413.8z"/>
	<path class="st12" d="M403.9,413.5L403.9,413.5L403.9,413.5L403.9,413.5z"/>
	<path class="st12" d="M404.1,413.4c0.1,0,0.1,0,0.2-0.1C404.2,413.4,404.2,413.4,404.1,413.4L404.1,413.4z"/>
	<path class="st12" d="M403.3,413.7c0.1,0,0.1,0,0.2-0.1C403.5,413.7,403.4,413.7,403.3,413.7C403.4,413.7,403.4,413.7,403.3,413.7z
		"/>
	<path class="st12" d="M404.6,413.2L404.6,413.2L404.6,413.2L404.6,413.2L404.6,413.2z"/>
	<path class="st12" d="M402.6,413.9c0.1,0,0.1,0,0.2,0C402.7,413.9,402.7,413.9,402.6,413.9L402.6,413.9z"/>
	<path class="st12" d="M402.5,413.9L402.5,413.9L402.5,413.9z"/>
	<polygon class="st12" points="301.2,336.3 301.2,336.3 301.2,336.3 	"/>
	<polygon class="st12" points="301.2,336.3 301.3,336.3 301.3,336.3 	"/>
	<polygon class="st12" points="407.3,287.2 407.3,294.3 407.9,294.6 408,286.8 	"/>
	<polygon class="st12" points="407.2,287.1 408,286.9 408,286.9 	"/>
	<rect x="407.3" y="294.8" class="st12" width="0" height="103.5"/>
	<polygon class="st12" points="407.1,294.8 407.4,294.3 407.4,294.3 	"/>
	<rect x="301.2" y="349.5" class="st12" width="0" height="6.6"/>
	<polygon class="st12" points="396,405 390.4,408.3 396,411.5 396,408.3 	"/>
	<path class="st12" d="M404.2,413.4c0.1-0.1,0.2-0.1,0.3-0.2l0,0C404.5,413.3,404.3,413.3,404.2,413.4z"/>
	<path class="st12" d="M404.2,413.4L404.2,413.4c0.2-0.1,0.3-0.1,0.4-0.2l0,0l0,0l0,0C404.4,413.3,404.3,413.3,404.2,413.4z"/>
	<path class="st12" d="M404.6,413.2L404.6,413.2L404.6,413.2z"/>
	<path class="st12" d="M404.6,413.2L404.6,413.2L404.6,413.2z"/>
	<path class="st12" d="M404.6,413.2L404.6,413.2L404.6,413.2z"/>
	<path class="st12" d="M396,408.3L396,408.3v3.3l2.8,1.6l0,0C397.1,412.2,396,410.3,396,408.3z"/>
	<path class="st12" d="M401.7,414c0.2,0,0.5,0,0.7,0l0,0C402.2,413.9,402,414,401.7,414z"/>
	<path class="st12" d="M403.4,413.7C403.4,413.7,403.5,413.7,403.4,413.7c0.2-0.1,0.3-0.1,0.5-0.2l0,0
		C403.7,413.6,403.6,413.6,403.4,413.7z"/>
	<path class="st12" d="M402.6,413.9C402.7,413.9,402.7,413.9,402.6,413.9c0.2,0,0.4-0.1,0.5-0.1l0,0
		C403,413.8,402.8,413.8,402.6,413.9z"/>
	<polygon class="st12" points="301.2,349.5 301.2,349.5 301.2,349.5 	"/>
	<polygon class="st12" points="295.6,339.6 301.2,336.4 301.2,336.4 	"/>
	<polygon class="st12" points="405.7,293.8 408.9,287.5 408.9,287.5 	"/>
	<polygon class="st12" points="407.3,287.2 407.3,287.2 407.3,287.2 	"/>
	<polygon class="st12" points="407.4,398.4 407.4,398.3 407.4,398.4 	"/>
	<polygon class="st12" points="407.4,398.4 407.5,398.4 407.5,398.4 	"/>
	<polygon class="st12" points="407.4,408.3 407.4,408.3 407.4,408.3 407.4,408.3 407.4,398.4 407.4,398.4 	"/>
	<path class="st12" d="M398.9,413.2c0.1,0.1,0.3,0.1,0.4,0.2C399.2,413.3,399,413.3,398.9,413.2L398.9,413.2z"/>
	<path class="st12" d="M404.6,413.2c0.1,0,0.2-0.1,0.2-0.2C404.7,413.1,404.7,413.1,404.6,413.2L404.6,413.2z"/>
	<path class="st12" d="M403.9,413.5L403.9,413.5c0.1,0,0.1-0.1,0.2-0.1h0.1C404.1,413.4,404,413.5,403.9,413.5z"/>
	<path class="st12" d="M407.4,408.3c0,0.2,0,0.3,0,0.5C407.4,408.6,407.4,408.4,407.4,408.3L407.4,408.3L407.4,408.3L407.4,408.3z"
		/>
	<path class="st12" d="M403.2,413.8L403.2,413.8c0.1,0,0.1,0,0.1,0h0.1C403.3,413.7,403.3,413.7,403.2,413.8z"/>
	<path class="st12" d="M402.5,413.9L402.5,413.9L402.5,413.9c0.1,0,0.1,0,0.2,0C402.6,413.9,402.5,413.9,402.5,413.9z"/>
	<path class="st12" d="M407.2,281.1L407.2,281.1L407.2,281.1z"/>
	<path class="st12" d="M408,283.9c0,0.3,0,0.6-0.1,1c-0.1,0.7-0.3,1.3-0.6,1.9v0.4l0.7-0.4V283.9L408,283.9z"/>
	<path class="st12" d="M408,283.5c0-0.1,0-0.2,0-0.4l0,0C407.9,283.3,408,283.4,408,283.5z"/>
	<path class="st12" d="M407.6,281.9c0,0,0-0.1-0.1-0.1C407.6,281.8,407.6,281.8,407.6,281.9L407.6,281.9z"/>
	<path class="st12" d="M407.4,281.4c-0.1-0.1-0.1-0.2-0.2-0.3l0,0C407.3,281.2,407.3,281.3,407.4,281.4z"/>
	<path class="st12" d="M407.3,286.8c0.3-0.6,0.5-1.2,0.6-1.9c-0.1,0.6-0.3,1.2-0.6,1.7V286.8z"/>
	<path class="st12" d="M407.7,282.1c0-0.1,0-0.1-0.1-0.2l0,0C407.6,281.9,407.6,282,407.7,282.1z"/>
	<path class="st12" d="M407.9,283.2L407.9,283.2L407.9,283.2z"/>
	<polygon class="st12" points="407.3,294.8 401.6,291.5 396.6,294.4 396.1,398.4 401.7,401.7 407.4,398.4 407.4,398.4 407.4,398.4 	
		"/>
	<polygon class="st12" points="396.6,294 396.6,294.4 401.6,291.5 407.3,294.8 407.3,294.3 401.7,291 	"/>
	<polygon class="st12" points="395.6,400 402.1,400 402.1,400 	"/>
	<path class="st12" d="M396.1,405L396.1,405v3.3l0,0c0-2,1.1-3.9,2.8-4.9l2.9-1.7l-5.6-3.3L396.1,405z"/>
	<polygon class="st12" points="401.7,401.6 407.4,398.4 407.4,398.4 	"/>
	<path class="st12" d="M404.6,403.4c1.7,1,2.8,2.9,2.8,4.9l0,0v-9.9l-5.7,3.3L404.6,403.4z"/>
	<polygon class="st12" points="401.7,401.7 401.7,401.7 401.7,401.7 	"/>
	<path class="st12" d="M404.6,403.4l-2.9-1.7l0,0l0,0l-2.9,1.7c-1.8,1-2.8,2.9-2.8,4.9l0,0l0,0c0,2,1.1,3.9,2.8,4.9
		c0.1,0.1,0.3,0.2,0.4,0.2s0.2,0.1,0.2,0.1c0.2,0.1,0.3,0.1,0.5,0.2c0.1,0,0.1,0.1,0.2,0.1c0.2,0,0.4,0.1,0.6,0.1c0.1,0,0.1,0,0.2,0
		c0.2,0,0.5,0,0.7,0s0.5,0,0.7,0c0.1,0,0.1,0,0.2,0c0.2,0,0.4-0.1,0.6-0.1c0.1,0,0.1-0.1,0.2-0.1c0.2-0.1,0.3-0.1,0.5-0.2
		c0.1,0,0.2-0.1,0.3-0.1c0.1-0.1,0.3-0.1,0.4-0.2c0.1,0,0.2-0.1,0.2-0.2c0.1-0.1,0.3-0.2,0.4-0.3c0.1-0.1,0.1-0.1,0.2-0.2
		s0.2-0.2,0.3-0.3c0.1-0.1,0.1-0.2,0.2-0.2c0.1-0.1,0.2-0.2,0.3-0.3c0.1-0.1,0.2-0.2,0.2-0.4c0.1-0.1,0.1-0.2,0.2-0.2
		c0.1-0.2,0.2-0.4,0.3-0.7c0-0.1,0-0.1,0.1-0.2c0.1-0.2,0.1-0.4,0.2-0.5c0-0.1,0-0.2,0.1-0.3c0-0.2,0.1-0.3,0.1-0.5
		c0-0.1,0-0.2,0-0.3c0-0.2,0-0.3,0-0.5C407.4,406.3,406.3,404.4,404.6,403.4z"/>
	<polygon class="st12" points="396.6,293.8 396.6,294 401.7,291 401.6,290.9 	"/>
	<path class="st12" d="M405.1,289.1l-3.4,2l5.6,3.2v-7.1l-0.4,0.2C406.4,288.1,405.8,288.7,405.1,289.1z"/>
	<path class="st12" d="M405.2,288.8l-3.6,2.1l0.2,0.1l3.4-2c0.7-0.4,1.3-1,1.8-1.7l-0.3,0.2C406.2,288.1,405.7,288.5,405.2,288.8z"
		/>
	<path class="st12" d="M406.9,287.4l0.4-0.2l0,0l0,0v-0.4C407.2,287,407,287.2,406.9,287.4z"/>
	<path class="st12" d="M406.6,287.6l0.3-0.2c0.1-0.2,0.3-0.4,0.4-0.6v-0.2C407.1,287,406.9,287.3,406.6,287.6z"/>
	<polygon class="st12" points="359.1,302.5 301.2,336.3 301.2,336.3 390.5,284.4 390.3,284.3 	"/>
	<polygon class="st12" points="301.2,336.3 301.2,336.3 301.2,336.3 301.2,336.3 390.8,284.6 390.5,284.4 	"/>
	<polygon class="st12" points="395.9,287.6 390.8,284.6 301.2,336.3 301.2,342.9 306.8,346.2 395.9,294.2 	"/>
	<rect x="304" y="341.3" class="st12" width="0" height="6.5"/>
	<polygon class="st12" points="301.2,336.3 301.2,336.4 301.2,336.3 	"/>
	<polygon class="st12" points="301.2,336.3 301.2,336.4 301.2,342.9 301.2,342.9 	"/>
	<polygon class="st12" points="301.2,342.9 301.2,342.9 301.2,342.9 	"/>
	<polygon class="st12" points="390.3,284.3 390.5,284.4 390.8,284.2 390.6,284.1 	"/>
	<polygon class="st12" points="390.8,284.2 390.5,284.4 390.8,284.6 391.2,284.4 	"/>
	<polygon class="st12" points="391.2,284.4 390.8,284.6 395.9,287.6 395.9,287.2 	"/>
	<polygon class="st12" points="394.1,293.7 397.7,288.2 397.7,288.2 	"/>
	<polygon class="st12" points="306.8,346.2 301.2,342.9 301.2,346.2 301.2,349.5 301.2,349.5 301.2,349.5 	"/>
	<polygon class="st12" points="301.2,336.3 295.5,339.6 295.5,339.6 301.2,336.4 	"/>
	<polygon class="st12" points="295.5,339.6 298.3,341.2 298.3,341.3 298.4,341.3 298.4,341.3 298.4,341.3 298.4,341.3 298.4,341.3 
		298.4,341.3 301.2,342.9 301.2,336.4 	"/>
	<path class="st12" d="M301.2,342.9L301.2,342.9l-2.8-1.6l0,0l0,0c0.1,0,0.1,0.1,0.2,0.1c0.1,0.1,0.3,0.2,0.4,0.3l0,0
		c0.1,0.1,0.2,0.2,0.3,0.2l0,0c0.1,0.1,0.2,0.1,0.3,0.2l0,0c0.1,0.1,0.2,0.2,0.3,0.3c0.1,0.1,0.1,0.1,0.2,0.2l0,0
		c0.1,0.1,0.2,0.3,0.3,0.4c0,0.1,0.1,0.1,0.1,0.2l0,0c0.1,0.1,0.2,0.3,0.2,0.5c0,0.1,0.1,0.1,0.1,0.2l0,0l0,0v0.1
		c0,0.1,0.1,0.2,0.1,0.4c0,0.1,0,0.1,0.1,0.2l0,0c0,0.1,0,0.1,0,0.2s0,0.2,0.1,0.3c0,0.1,0,0.1,0,0.2l0,0c0,0.1,0,0.1,0,0.2
		c0,0.2,0,0.4,0,0.6l0,0L301.2,342.9L301.2,342.9z"/>
	<rect x="390.7" y="284.1" class="st12" width="0" height="0.2"/>
	<rect x="391" y="284.1" class="st12" width="0" height="0.4"/>
	<polygon class="st12" points="395.9,287.2 391.2,284.4 391.2,284.4 395.9,287.2 395.9,287.6 395.9,287.6 	"/>
	<polygon class="st12" points="396.6,280.9 396.6,280.7 390.6,284.1 390.8,284.2 	"/>
	<path class="st12" d="M390.8,284.2l0.3,0.2l5.4-3.1c0.2-0.4,0.4-0.7,0.7-1.1l-0.7,0.4v0.2L390.8,284.2z"/>
	<path class="st12" d="M395.9,287.2v-3.3c0-0.9,0.2-1.8,0.6-2.6l-5.4,3.1L395.9,287.2z"/>
	<path class="st12" d="M403.3,278.3l1.2,0.7c0.6,0.4,1.2,0.8,1.6,1.4l1.2,0.7l0,0c-0.1-0.1-0.1-0.2-0.2-0.3
		c-0.1-0.1-0.1-0.2-0.2-0.3c-0.1-0.1-0.2-0.2-0.3-0.3c-0.1-0.1-0.1-0.2-0.2-0.2c-0.2-0.2-0.3-0.3-0.5-0.5l0,0
		c-0.2-0.2-0.4-0.3-0.6-0.4C404.6,278.6,403.9,278.4,403.3,278.3z"/>
	<path class="st12" d="M407.9,284.1c0,0.2,0,0.5,0,0.7c0.1-0.3,0.1-0.6,0.1-1c0-0.1,0-0.3,0-0.4s0-0.2,0-0.4L407.9,284.1z"/>
	<path class="st12" d="M406.1,280.4c0.2,0.3,0.4,0.6,0.6,0.9l0.9,0.5v-0.1c0-0.1-0.1-0.2-0.2-0.3c-0.1-0.1-0.1-0.2-0.2-0.3
		L406.1,280.4z"/>
	<path class="st12" d="M407.9,283.2L407.9,283.2c0-0.1,0-0.3-0.1-0.4c0-0.1,0-0.2-0.1-0.4c0-0.1-0.1-0.2-0.1-0.4
		c0-0.1,0-0.1-0.1-0.2l-0.9-0.5c0.4,0.8,0.6,1.7,0.6,2.6v2.7c0.3-0.5,0.5-1.1,0.6-1.7c0-0.2,0-0.5,0-0.7L407.9,283.2z"/>
	<polygon class="st12" points="395.9,294.2 396.6,293.8 396.6,293.8 401.6,290.9 395.9,287.6 	"/>
	<path class="st12" d="M401.6,289.6c-1,0-2-0.3-2.8-0.8l-2.8-1.6v0.4l5.6,3.3l3.6-2.1c0.6-0.3,1.1-0.8,1.5-1.2l-2.2,1.3
		C403.6,289.3,402.6,289.6,401.6,289.6z"/>
	<path class="st12" d="M406.1,280.4c-0.4-0.6-1-1-1.6-1.4l-1.2-0.7c-0.3-0.1-0.6-0.1-0.9-0.1L406.1,280.4z"/>
	<path class="st12" d="M402.3,278.2c-1,0-2,0.2-2.9,0.8l-2.2,1.3c-0.3,0.3-0.5,0.7-0.7,1.1l2.2-1.3c1.8-1,3.9-1,5.7,0l2.2,1.3
		c-0.2-0.3-0.4-0.6-0.6-0.9L402.3,278.2z"/>
	<path class="st12" d="M398.8,280l-2.2,1.3c-0.4,0.8-0.6,1.7-0.6,2.6v3.3l2.8,1.6c0.9,0.5,1.9,0.8,2.8,0.8s2-0.3,2.8-0.8l2.2-1.3
		c0.3-0.3,0.5-0.6,0.7-1v-2.7c0-0.9-0.2-1.8-0.6-2.6l-2.2-1.3C402.7,279,400.5,279,398.8,280z"/>
	<polygon class="st12" points="295.5,339.6 295.5,339.6 295.5,339.6 	"/>
	<polygon class="st12" points="295.5,339.6 295.5,339.6 295.5,339.6 295.5,339.6 295.5,339.6 	"/>
	<path class="st12" d="M295.5,339.6l2.8,1.6L295.5,339.6z"/>
	<path class="st12" d="M298.4,341.3L298.4,341.3L298.4,341.3z"/>
	<path class="st12" d="M299,341.7c0.1,0.1,0.2,0.1,0.3,0.2l0,0C299.2,341.9,299.1,341.8,299,341.7z"/>
	<path class="st12" d="M299.6,342.2c0.1,0.1,0.2,0.2,0.3,0.3l0,0C299.7,342.4,299.7,342.3,299.6,342.2z"/>
	<path class="st12" d="M300,342.7c0.1,0.1,0.2,0.2,0.2,0.3c0,0,0,0,0,0.1C300.2,343,300.1,342.9,300,342.7z"/>
	<path class="st12" d="M301.1,345.4L301.1,345.4L301.1,345.4z"/>
	<path class="st12" d="M301,344.9v0.1c0,0.1,0,0.1,0,0.2C301.1,345.1,301.1,345,301,344.9z"/>
	<path class="st12" d="M301.2,345.6c0,0.1,0,0.1,0,0.2s0,0.3,0,0.4C301.2,346,301.2,345.8,301.2,345.6z"/>
	<path class="st12" d="M300.8,344.2c0,0.1,0,0.1,0.1,0.2c0,0.1,0,0.1,0.1,0.2C300.9,344.4,300.9,344.3,300.8,344.2z"/>
	<path class="st12" d="M298.4,341.3L298.4,341.3L298.4,341.3L298.4,341.3c0.1,0,0.1,0.1,0.2,0.1
		C298.5,341.4,298.5,341.3,298.4,341.3z"/>
	<path class="st12" d="M300.4,343.4c0.1,0.1,0.1,0.2,0.2,0.3c0,0,0,0.1,0.1,0.1C300.6,343.7,300.5,343.5,300.4,343.4z"/>
	<polygon class="st12" points="284.2,346.2 194.9,294.1 194.9,294.4 	"/>
	<polygon class="st12" points="200.4,407.6 289.8,356 289.8,356 	"/>
	<rect x="135.9" y="328.3" class="st12" width="0" height="109.9"/>
	<path class="st12" d="M85.4,341.1l8.5,4.9l89.6-51.7v-9.4c0-0.2,0-0.5,0-0.7v-2.9L79.7,341.1C81.5,340.1,83.7,340.1,85.4,341.1z"/>
	<polygon class="st12" points="284.2,346.1 269.7,337.6 194.9,293.8 194.9,294.1 284.2,346.2 	"/>
	<path class="st12" d="M183.5,284.9v-1l0,0l0,0c0-0.1,0-0.2,0-0.4c0-0.1,0-0.3,0-0.4s0-0.1,0-0.2c0.1-0.9,0.5-1.7,1-2.4l-1.1,0.7
		v2.9C183.5,284.4,183.5,284.6,183.5,284.9z"/>
	<polygon class="st12" points="194.9,293.8 194.9,293.8 269.7,337.6 	"/>
	<path class="st12" d="M183.5,283.9L183.5,283.9c0-0.1,0-0.2,0-0.4C183.5,283.6,183.5,283.8,183.5,283.9z"/>
	<polygon class="st12" points="194.4,409.2 200.9,409.2 200.9,409.2 	"/>
	<path class="st12" d="M194.9,294.4v-0.3l-8.6-5c-1.5-0.9-2.6-2.5-2.8-4.2v9.4l5.6-3.2L194.9,294.4z"/>
	<path class="st12" d="M184.6,280.6c-0.5,0.7-0.9,1.5-1,2.4C183.7,282.1,184.1,281.3,184.6,280.6L184.6,280.6z"/>
	<path class="st12" d="M186.3,289.1l8.6,5v-0.3l-8.6-5c-1.7-1-2.8-2.9-2.8-4.9l0,0v1C183.7,286.6,184.7,288.2,186.3,289.1z"/>
	<path class="st12" d="M284.2,346.1l-14.5-8.5L284.2,346.1z"/>
	<path class="st12" d="M186.3,288.8l8.6,5l0,0l74.8,43.8l14.5,8.5l5.6-3.2v-6.6L192,279.6c-1.8-1-3.9-1-5.7,0l-1.7,1
		c-0.5,0.7-0.9,1.5-1,2.4c0,0.1,0,0.1,0,0.2s0,0.3,0,0.4s0,0.2,0,0.4C183.5,285.9,184.6,287.8,186.3,288.8z"/>
	<polygon class="st12" points="289.8,336.3 289.8,336.3 289.8,342.9 289.8,342.9 	"/>
	<polygon class="st12" points="292.7,341.3 292.7,341.3 295.5,339.6 289.8,336.3 289.8,342.9 	"/>
	<path class="st12" d="M292.7,341.3L292.7,341.3L292.7,341.3z"/>
	<polygon class="st12" points="298.3,341.2 298.3,341.3 298.3,341.3 	"/>
	<polygon class="st12" points="298.4,341.3 298.4,341.3 298.4,341.3 	"/>
	<path class="st12" d="M300.4,343.4L300.4,343.4L300.4,343.4z"/>
	<path class="st12" d="M300,342.7L300,342.7L300,342.7z"/>
	<path class="st12" d="M299,341.7L299,341.7L299,341.7L299,341.7z"/>
	<polygon class="st12" points="299.5,342.2 299.5,342.2 299.6,342.2 	"/>
	<path class="st12" d="M295.5,339.6l-2.8,1.7L295.5,339.6z"/>
	<path class="st12" d="M298.3,341.2l-2.8-1.6l-2.8,1.6l0,0c0.2-0.1,0.4-0.2,0.7-0.3c0.2-0.1,0.3-0.1,0.5-0.2c0.1,0,0.1,0,0.2-0.1
		c0.2,0,0.4-0.1,0.5-0.1s0.1,0,0.2,0c0.2,0,0.3,0,0.5,0c0.1,0,0.2,0,0.3,0c0.1,0,0.2,0,0.3,0c0.1,0,0.3,0,0.4,0s0.2,0,0.2,0
		c0.2,0,0.3,0.1,0.5,0.1c0.1,0,0.1,0,0.2,0.1c0.2,0.1,0.4,0.1,0.5,0.2c0.1,0,0.1,0.1,0.2,0.1C298,341.1,298.2,341.2,298.3,341.2
		L298.3,341.2z"/>
	<polygon class="st12" points="298.4,341.3 298.4,341.3 298.4,341.3 	"/>
	<path class="st12" d="M299,341.7c0.1,0.1,0.2,0.2,0.3,0.2C299.2,341.8,299.1,341.8,299,341.7L299,341.7z"/>
	<path class="st12" d="M299.5,342.2c0.1,0.1,0.2,0.2,0.3,0.3C299.7,342.4,299.6,342.3,299.5,342.2
		C299.6,342.2,299.5,342.2,299.5,342.2z"/>
	<path class="st12" d="M300.4,343.4c0.1,0.1,0.1,0.2,0.2,0.3C300.6,343.6,300.5,343.5,300.4,343.4L300.4,343.4z"/>
	<path class="st12" d="M298.4,341.3L298.4,341.3L298.4,341.3z"/>
	<path class="st12" d="M301.1,345.4L301.1,345.4c0,0.1,0,0.2,0,0.3C301.1,345.6,301.1,345.6,301.1,345.4
		C301.2,345.6,301.2,345.5,301.1,345.4z"/>
	<path class="st12" d="M300,342.7c0.1,0.1,0.2,0.2,0.2,0.3C300.2,343,300.1,342.9,300,342.7L300,342.7z"/>
	<path class="st12" d="M79.7,341.1L79.7,341.1L79.7,341.1c-1.8,1-2.8,2.9-2.8,4.9l0,0C76.9,344,78,342.1,79.7,341.1z"/>
	<path class="st12" d="M191.9,537.7C192,537.7,192,537.6,191.9,537.7c-0.1,0.1-0.2,0.1-0.4,0.2C191.7,537.8,191.8,537.7,191.9,537.7
		z"/>
	<rect x="138.7" y="320.2" class="st12" width="0" height="103.4"/>
	<path class="st12" d="M183.4,532.7v-10l-95.2-56.4V355.9l-8.5-4.9c-1.8-1-2.8-2.9-2.8-4.9v123.5c0,2,1.1,3.9,2.8,4.9l106.6,63.2
		l0,0C184.5,536.6,183.4,534.7,183.4,532.7z"/>
	<rect x="186.3" y="396" class="st12" width="0" height="6.6"/>
	<path class="st12" d="M79.7,350.9l8.5,4.9l0,0l95.2,54.9v-3.3l0,0l0,0v-9.8L93.9,346l0,0l-8.5-4.9c-1.8-1-3.9-1-5.7,0l0,0
		c-1.8,1-2.8,2.9-2.8,4.9C76.9,348.1,78,349.9,79.7,350.9z"/>
	<path class="st12" d="M186.3,402.6l2.8-1.6l-5.7-3.3v9.8l0,0C183.5,405.5,184.5,403.6,186.3,402.6z"/>
	<polygon class="st12" points="152.5,513.3 214.5,420.2 214.5,420.2 	"/>
	<polygon class="st12" points="215,417.3 263.9,326.6 263.9,326.6 	"/>
	<path class="st12" d="M292.7,475.1L292.7,475.1L292.7,475.1L292.7,475.1l-8.4-4.9l-89.5,52.6V417.5l0,0v115.3c0,2-1.1,3.9-2.8,4.9
		l0,0l103.6-60.9L292.7,475.1L292.7,475.1z"/>
	<rect x="289.8" y="356" class="st12" width="0" height="104.2"/>
	<path class="st12" d="M186.3,537.7c0.1,0.1,0.3,0.1,0.4,0.2C186.5,537.8,186.4,537.7,186.3,537.7
		C186.3,537.6,186.3,537.6,186.3,537.7z"/>
	<path class="st12" d="M298.4,475.1L298.4,475.1L298.4,475.1L298.4,475.1L298.4,475.1z"/>
	<path class="st12" d="M298,475.3c-0.1,0-0.2,0.1-0.2,0.1c-0.1,0.1-0.3,0.1-0.4,0.2c-0.1,0-0.2,0.1-0.3,0.1c-0.2,0-0.3,0.1-0.5,0.1
		c-0.1,0-0.2,0-0.2,0c-0.2,0-0.5,0-0.7,0s-0.5,0-0.7,0c-0.1,0-0.1,0-0.2,0c-0.2,0-0.3-0.1-0.5-0.1c-0.1,0-0.2-0.1-0.2-0.1
		c-0.2,0-0.3-0.1-0.5-0.2c-0.1,0-0.2-0.1-0.3-0.1c-0.1-0.1-0.3-0.1-0.4-0.2l0,0l2.9,1.6l2.8-1.6C298.2,475.2,298.1,475.3,298,475.3z
		"/>
	<path class="st12" d="M292.1,474.7c-0.2-0.1-0.3-0.3-0.5-0.4l-0.1-0.1c-0.2-0.2-0.3-0.3-0.4-0.5c0,0,0-0.1-0.1-0.1
		c-0.1-0.2-0.3-0.4-0.4-0.6l0,0c-0.1-0.2-0.2-0.4-0.3-0.6l0,0c-0.2-0.4-0.3-0.9-0.4-1.4v-0.1c0-0.2-0.1-0.5-0.1-0.8v-9.9l0,0v6.7
		l-5.5,3.2l8.3,4.9l0,0c-0.1-0.1-0.3-0.2-0.4-0.3C292.2,474.8,292.2,474.7,292.1,474.7z"/>
	<polygon class="st12" points="189.1,400.9 194.9,397.6 194.9,397.6 	"/>
	<rect x="194.8" y="410.8" class="st12" width="0" height="6.7"/>
	<path class="st12" d="M298,475.3c0.1-0.1,0.3-0.1,0.4-0.2l0,0l0,0C298.3,475.2,298.1,475.3,298,475.3z"/>
	<path class="st12" d="M292.7,475.1L292.7,475.1L292.7,475.1L292.7,475.1L292.7,475.1z"/>
	<path class="st12" d="M298.4,475.1L298.4,475.1L298.4,475.1L298.4,475.1c0.1-0.1,0.2-0.1,0.3-0.2C298.6,475,298.5,475,298.4,475.1z
		"/>
	<path class="st12" d="M298.4,475.1L298.4,475.1L298.4,475.1z"/>
	<polygon class="st12" points="263.9,453.4 315.6,362.9 315.6,362.9 	"/>
	<path class="st12" d="M292.7,475.1c0.1,0.1,0.3,0.1,0.4,0.2C293,475.2,292.8,475.2,292.7,475.1L292.7,475.1z"/>
	<path class="st12" d="M298.4,341.3h-0.1H298.4z"/>
	<path class="st12" d="M299.8,342.5L299.8,342.5c0.1,0.1,0.1,0.1,0.2,0.2C300,342.7,299.9,342.6,299.8,342.5z"/>
	<path class="st12" d="M300.3,343.2L300.3,343.2c0.1,0.1,0.1,0.2,0.1,0.2C300.4,343.3,300.3,343.2,300.3,343.2z"/>
	<path class="st12" d="M298.6,341.4C298.6,341.4,298.6,341.5,298.6,341.4c0.2,0.1,0.3,0.2,0.4,0.3
		C298.9,341.6,298.7,341.5,298.6,341.4z"/>
	<path class="st12" d="M289.9,471c0.1,0.5,0.2,0.9,0.4,1.4C290.1,471.9,290,471.5,289.9,471z"/>
	<polygon class="st12" points="270.5,457.6 332,365.4 332,365.4 	"/>
	<path class="st12" d="M292.3,474.8c0.1,0.1,0.3,0.2,0.4,0.3l0,0C292.6,475,292.4,474.9,292.3,474.8z"/>
	<path class="st12" d="M298.7,474.9c0.1-0.1,0.2-0.1,0.3-0.2c0.1-0.1,0.2-0.2,0.3-0.3c0.1-0.1,0.2-0.2,0.3-0.2
		c0.1-0.1,0.2-0.2,0.3-0.3c0.1-0.1,0.2-0.2,0.2-0.3c0.1-0.1,0.1-0.2,0.2-0.3c0.1-0.1,0.1-0.2,0.2-0.3c0.1-0.1,0.1-0.2,0.2-0.3
		c0.1-0.1,0.1-0.2,0.2-0.3c0-0.1,0.1-0.2,0.1-0.3c0-0.1,0.1-0.3,0.1-0.4s0-0.2,0.1-0.3c0-0.1,0.1-0.3,0.1-0.4c0-0.2,0-0.5,0-0.7V467
		l0,0V356.2l0,0l0,0l-5.7-3.3l-5.7,3.3v104.2l0,0v9.9c0,0.3,0,0.5,0.1,0.8v0.1c0.1,0.5,0.2,0.9,0.4,1.4l0,0c0.1,0.2,0.2,0.4,0.3,0.6
		l0,0c0.1,0.2,0.2,0.4,0.4,0.6c0,0,0,0.1,0.1,0.1c0.1,0.2,0.3,0.3,0.4,0.5l0.1,0.1c0.1,0.1,0.3,0.3,0.5,0.4c0.1,0,0.1,0.1,0.2,0.1
		c0.1,0.1,0.3,0.2,0.4,0.3c0.1,0.1,0.3,0.1,0.4,0.2c0.1,0,0.2,0.1,0.3,0.1c0.2,0.1,0.3,0.1,0.5,0.2c0.1,0,0.2,0.1,0.2,0.1
		c0.2,0,0.3,0.1,0.5,0.1c0.1,0,0.1,0,0.2,0c0.2,0,0.5,0,0.7,0s0.5,0,0.7,0c0.1,0,0.2,0,0.2,0c0.2,0,0.3-0.1,0.5-0.1
		c0.1,0,0.2-0.1,0.3-0.1c0.1,0,0.3-0.1,0.4-0.2c0.1,0,0.2-0.1,0.2-0.1c0.2-0.1,0.3-0.1,0.4-0.2C298.5,475,298.6,475,298.7,474.9z"/>
	<path class="st12" d="M298.7,350.9l-0.3,0.2l0,0l0,0l0,0l0,0l-2.9,1.6l5.7,3.3v-6.6L298.7,350.9z"/>
	<polygon class="st12" points="298.7,350.9 301.2,349.5 301.2,349.5 	"/>
	<polygon class="st12" points="298.4,351.1 298.4,351.1 298.4,351.1 	"/>
	<path class="st12" d="M298.4,351.1l0.3-0.2L298.4,351.1z"/>
	<path class="st12" d="M301.2,346.2L301.2,346.2L301.2,346.2c0,0.1,0,0.3,0,0.4s0,0.2,0,0.4c0,0.1-0.1,0.3-0.1,0.4s0,0.2-0.1,0.3
		c0,0.1-0.1,0.2-0.1,0.3c0,0.1-0.1,0.3-0.1,0.4s-0.1,0.1-0.1,0.2c-0.1,0.2-0.2,0.3-0.2,0.5l-0.1,0.1c-0.1,0.2-0.2,0.3-0.3,0.5
		l-0.1,0.1c-0.1,0.2-0.3,0.3-0.4,0.5l-0.1,0.1c-0.1,0.1-0.3,0.3-0.5,0.4c0,0,0,0-0.1,0c-0.2,0.1-0.3,0.3-0.5,0.4l0,0l0.3-0.2
		l2.5-1.5L301.2,346.2z"/>
	<path class="st12" d="M301.1,345.2c0-0.1,0-0.1,0-0.2c0,0.1,0.1,0.3,0.1,0.4l0,0C301.1,345.4,301.1,345.3,301.1,345.2z"/>
	<path class="st12" d="M300.3,343.1l0.1,0.1C300.3,343.2,300.3,343.2,300.3,343.1L300.3,343.1z"/>
	<path class="st12" d="M300.6,343.7c0.1,0.1,0.1,0.2,0.2,0.3c0-0.1-0.1-0.1-0.1-0.2C300.6,343.8,300.6,343.7,300.6,343.7z"/>
	<path class="st12" d="M300.9,344.5c0-0.1,0-0.1-0.1-0.2c0,0.1,0.1,0.2,0.1,0.4l0,0C301,344.6,301,344.6,300.9,344.5z"/>
	<path class="st12" d="M301,344.7L301,344.7L301,344.7z"/>
	<path class="st12" d="M299.8,342.5L299.8,342.5L299.8,342.5L299.8,342.5z"/>
	<path class="st12" d="M298.4,341.3c0.1,0.1,0.2,0.1,0.3,0.2c0,0,0,0-0.1,0C298.5,341.4,298.5,341.3,298.4,341.3z"/>
	<path class="st12" d="M299.2,341.9C299.3,341.9,299.3,341.9,299.2,341.9C299.3,341.9,299.3,341.9,299.2,341.9
		C299.3,341.9,299.3,341.9,299.2,341.9z"/>
	<polygon class="st12" points="299.3,341.9 299.3,342 299.3,342 	"/>
	<path class="st12" d="M301.2,346.2L301.2,346.2c0,0.1,0,0.3,0,0.4C301.2,346.5,301.2,346.3,301.2,346.2z"/>
	<path class="st12" d="M301.2,345.8c0,0.1,0,0.3,0,0.4l0,0l0,0C301.2,346.1,301.2,345.9,301.2,345.8z"/>
	<polygon class="st12" points="284.2,346.2 284.2,346.2 194.8,397.7 194.8,404.3 200.4,407.6 289.8,356 289.8,356 289.8,356 
		289.8,349.5 	"/>
	<polygon class="st12" points="183.5,410.8 183.5,410.8 183.5,410.8 	"/>
	<polygon class="st12" points="284.2,346.1 284.2,346.2 289.8,349.5 289.8,349.4 	"/>
	<path class="st12" d="M200.4,407.6l-5.6-3.3v-6.6l-5.7,3.3l2.8,1.6c1.8,1,2.8,2.9,2.8,4.9v3.3l0,0l0,0L200.4,407.6z"/>
	<polygon class="st12" points="283.8,347.8 290.3,347.8 290.3,347.8 	"/>
	<polygon class="st12" points="289.8,346.2 289.8,346.2 289.8,342.9 284.2,346.1 289.8,349.4 	"/>
	<polygon class="st12" points="289.8,346.2 289.8,346.2 289.8,346.2 289.8,346.2 289.8,346.2 289.8,346.2 289.8,342.9 289.8,342.9 	
		"/>
	<polygon class="st12" points="289.8,346.2 289.8,346.2 289.8,346.2 	"/>
	<path class="st12" d="M289.9,345.4L289.9,345.4c0-0.1,0-0.2,0.1-0.4c0-0.1,0-0.2,0.1-0.4l0,0c0-0.1,0.1-0.2,0.1-0.3
		c0-0.1,0.1-0.3,0.1-0.4l0,0c0-0.1,0.1-0.2,0.1-0.3c0.1-0.1,0.1-0.3,0.2-0.4l0,0c0-0.1,0.1-0.1,0.1-0.2c0,0,0-0.1,0.1-0.1
		c0-0.1,0.1-0.1,0.1-0.2l0.1-0.1l0,0c0.1-0.1,0.1-0.1,0.2-0.2s0.2-0.2,0.3-0.4l0,0c0.1-0.1,0.1-0.1,0.2-0.2s0.2-0.2,0.3-0.3l0,0
		l0.1-0.1c0.1,0,0.1-0.1,0.2-0.1c0.1-0.1,0.2-0.1,0.3-0.2l0,0l0,0l0,0l0,0l-2.8,1.6v3.3c0-0.1,0-0.2,0-0.4
		C289.9,345.7,289.9,345.6,289.9,345.4z"/>
	<path class="st12" d="M289.9,345.8c0,0.1,0,0.2,0,0.4l0,0l0,0l0,0C289.8,346.1,289.8,345.9,289.9,345.8z"/>
	<path class="st12" d="M290,344.7c0-0.1,0.1-0.2,0.1-0.2v-0.1C290.1,344.5,290.1,344.6,290,344.7z"/>
	<path class="st12" d="M289.9,345.4c0-0.1,0-0.1,0-0.2v-0.1C289.9,345.2,289.9,345.3,289.9,345.4z"/>
	<path class="st12" d="M290.6,343.3c0-0.1,0.1-0.1,0.1-0.2l0,0C290.7,343.2,290.6,343.3,290.6,343.3z"/>
	<path class="st12" d="M292.2,341.6L292.2,341.6c0.1-0.1,0.1-0.1,0.2-0.1C292.3,341.5,292.2,341.6,292.2,341.6z"/>
	<path class="st12" d="M291.5,342.2L291.5,342.2L291.5,342.2z"/>
	<path class="st12" d="M292,341.7L292,341.7L292,341.7L292,341.7z"/>
	<polygon class="st12" points="292.7,341.3 292.7,341.3 292.7,341.3 	"/>
	<path class="st12" d="M290.3,344c0-0.1,0.1-0.2,0.1-0.2l0,0C290.4,343.8,290.3,343.9,290.3,344z"/>
	<path class="st12" d="M290.6,343.3L290.6,343.3L290.6,343.3z"/>
	<path class="st12" d="M289.9,345.4L289.9,345.4L289.9,345.4z"/>
	<path class="st12" d="M291.5,342.2c0.1-0.1,0.1-0.1,0.2-0.2l0,0C291.6,342.1,291.6,342.1,291.5,342.2z"/>
	<path class="st12" d="M290.3,344L290.3,344L290.3,344z"/>
	<path class="st12" d="M290,344.7L290,344.7L290,344.7z"/>
	<path class="st12" d="M291,342.7c0.1-0.1,0.1-0.1,0.2-0.2l0,0C291.1,342.6,291.1,342.7,291,342.7z"/>
	<path class="st12" d="M289.9,345.4c0-0.1,0-0.1,0-0.2C289.9,345.3,289.9,345.4,289.9,345.4L289.9,345.4z"/>
	<path class="st12" d="M291.5,342.2c0.1-0.1,0.1-0.1,0.2-0.2C291.6,342.1,291.6,342.1,291.5,342.2L291.5,342.2z"/>
	<path class="st12" d="M290.6,343.3c0-0.1,0.1-0.1,0.1-0.2C290.7,343.2,290.6,343.3,290.6,343.3L290.6,343.3z"/>
	<path class="st12" d="M290,344.7c0-0.1,0.1-0.2,0.1-0.2S290,344.6,290,344.7L290,344.7z"/>
	<path class="st12" d="M290.3,344c0-0.1,0.1-0.2,0.1-0.2C290.3,343.8,290.3,343.9,290.3,344L290.3,344z"/>
	<path class="st12" d="M292.1,341.7C292,341.7,292,341.7,292.1,341.7s0.1-0.1,0.2-0.1c0,0-0.1,0-0.1,0.1
		C292.1,341.6,292.1,341.7,292.1,341.7z"/>
	<rect x="289.8" y="349.5" class="st12" width="0" height="6.6"/>
	<polygon class="st12" points="289.8,349.4 289.8,349.4 289.8,349.4 	"/>
	<polygon class="st12" points="298.3,341.3 298.3,341.3 298.4,341.3 298.4,341.3 	"/>
	<path class="st12" d="M299.3,342c0.1,0.1,0.2,0.1,0.3,0.2l0,0C299.5,342.1,299.4,342,299.3,342z"/>
	<path class="st12" d="M299.3,342L299.3,342c0.1,0.1,0.2,0.1,0.3,0.2C299.5,342.1,299.4,342,299.3,342z"/>
	<path class="st12" d="M300.3,343.2l0.1,0.1l0,0C300.4,343.3,300.4,343.3,300.3,343.2z"/>
	<path class="st12" d="M299.9,342.5c0.1,0.1,0.1,0.1,0.2,0.2l0,0C300,342.7,299.9,342.6,299.9,342.5z"/>
	<path class="st12" d="M298.7,341.5c0.1,0.1,0.2,0.1,0.3,0.2l0,0C298.9,341.6,298.8,341.5,298.7,341.5z"/>
	<path class="st12" d="M292.7,351.1L292.7,351.1L292.7,351.1C292.6,351.1,292.6,351.1,292.7,351.1
		C292.6,351.1,292.6,351.1,292.7,351.1L292.7,351.1l-2.8-1.7v6.6l5.7-3.3L292.7,351.1L292.7,351.1z"/>
	<polygon class="st12" points="289.8,349.4 289.8,349.4 289.8,349.5 292.6,351.1 	"/>
	<path class="st12" d="M292.7,351.1L292.7,351.1L292.7,351.1L292.7,351.1z"/>
	<path class="st12" d="M298.4,351.1L298.4,351.1L298.4,351.1L298.4,351.1C298.4,351.1,298.3,351.1,298.4,351.1
		c-0.1,0.1-0.3,0.1-0.4,0.2c-0.1,0-0.2,0.1-0.3,0.1l0,0c-0.1,0.1-0.3,0.1-0.4,0.1s-0.2,0.1-0.3,0.1l0,0c-0.1,0-0.3,0.1-0.4,0.1l0,0
		l0,0c-0.1,0-0.2,0-0.2,0l0,0c-0.2,0-0.5,0-0.7,0s-0.5,0-0.7,0l0,0c-0.1,0-0.2,0-0.2,0c-0.2,0-0.3-0.1-0.5-0.1l0,0
		c-0.1,0-0.2-0.1-0.2-0.1c-0.2,0-0.3-0.1-0.5-0.2l0,0c-0.1,0-0.1-0.1-0.2-0.1c-0.2-0.1-0.3-0.1-0.5-0.2l2.8,1.6L298.4,351.1
		L298.4,351.1z"/>
	<polygon class="st12" points="292.6,351.1 292.6,351.1 292.6,351.1 292.6,351.1 292.7,351.1 292.7,351.1 	"/>
	<path class="st12" d="M294.8,351.8L294.8,351.8L294.8,351.8z"/>
	<path class="st12" d="M294,351.7L294,351.7L294,351.7z"/>
	<path class="st12" d="M293.3,351.4L293.3,351.4L293.3,351.4z"/>
	<polygon class="st12" points="292.6,351.1 292.7,351.1 292.6,351.1 	"/>
	<path class="st12" d="M298,351.3c0.1-0.1,0.3-0.1,0.4-0.2l0,0l0,0C298.2,351.2,298.1,351.2,298,351.3z"/>
	<path class="st12" d="M297.3,351.6c0.1,0,0.3-0.1,0.4-0.1c-0.1,0-0.2,0.1-0.3,0.1C297.4,351.5,297.3,351.6,297.3,351.6z"/>
	<path class="st12" d="M298.4,351.1L298.4,351.1L298.4,351.1z"/>
	<path class="st12" d="M293.3,351.4c0.2,0.1,0.3,0.1,0.5,0.2c-0.1,0-0.1,0-0.2-0.1C293.5,351.5,293.4,351.5,293.3,351.4z"/>
	<path class="st12" d="M297,351.7L297,351.7L297,351.7z"/>
	<path class="st12" d="M296.2,351.8L296.2,351.8L296.2,351.8z"/>
	<path class="st12" d="M294,351.7c0.2,0,0.3,0.1,0.5,0.1c-0.1,0-0.2,0-0.3-0.1C294.2,351.7,294.1,351.7,294,351.7z"/>
	<path class="st12" d="M297.7,351.4L297.7,351.4L297.7,351.4z"/>
	<path class="st12" d="M292.7,351.1L292.7,351.1L292.7,351.1c0.2,0.1,0.3,0.2,0.5,0.2c-0.1,0-0.1-0.1-0.2-0.1
		S292.7,351.2,292.7,351.1z"/>
	<path class="st12" d="M295.5,351.9c0.2,0,0.5,0,0.7,0l0,0C296,351.9,295.8,351.9,295.5,351.9z"/>
	<path class="st12" d="M294.8,351.8c0.2,0,0.5,0,0.7,0C295.3,351.9,295,351.9,294.8,351.8L294.8,351.8z"/>
	<path class="st12" d="M297.4,351.5c0.1,0,0.2-0.1,0.3-0.1l0,0C297.6,351.5,297.5,351.5,297.4,351.5z"/>
	<path class="st12" d="M293,351.2c-0.1-0.1-0.2-0.1-0.3-0.2l0,0C292.7,351.2,292.9,351.2,293,351.2z"/>
	<path class="st12" d="M294,351.7L294,351.7c0.1,0,0.2,0,0.2,0S294.1,351.7,294,351.7z"/>
	<path class="st12" d="M296.6,351.8c0.1,0,0.3,0,0.4-0.1l0,0C296.8,351.7,296.7,351.7,296.6,351.8z"/>
	<path class="st12" d="M296.6,351.8c0.1,0,0.3,0,0.4-0.1C296.8,351.7,296.7,351.7,296.6,351.8L296.6,351.8z"/>
	<path class="st12" d="M293.3,351.4L293.3,351.4c0.1,0,0.2,0.1,0.2,0.1S293.4,351.5,293.3,351.4z"/>
	<polygon class="st12" points="292.6,351.1 292.6,351.1 292.6,351.1 	"/>
	<path class="st12" d="M292.4,351L292.4,351L292.4,351c-0.1,0-0.1-0.1-0.2-0.1c-0.1-0.1-0.2-0.1-0.2-0.2l0,0
		c-0.1-0.1-0.2-0.1-0.2-0.2c-0.1-0.1-0.2-0.2-0.3-0.3l0,0c-0.1-0.1-0.2-0.2-0.3-0.3c-0.1-0.1-0.2-0.2-0.2-0.3l0,0
		c-0.1-0.1-0.2-0.2-0.2-0.4l0,0l0,0c-0.1-0.1-0.1-0.2-0.2-0.2l0,0v-0.1c-0.1-0.1-0.1-0.2-0.1-0.3c0-0.1-0.1-0.2-0.1-0.3l0,0
		c0-0.1-0.1-0.2-0.1-0.4c0-0.1-0.1-0.2-0.1-0.3l0,0c0-0.1,0-0.2-0.1-0.4c0-0.1-0.1-0.2-0.1-0.4l0,0c0-0.1,0-0.2,0-0.3
		c0-0.1,0-0.2,0-0.4v3.2l2.8,1.6l0,0C292.6,351.1,292.5,351,292.4,351z"/>
	<path class="st12" d="M291.5,350.2c-0.1-0.1-0.1-0.2-0.2-0.2l0,0C291.3,350,291.4,350.1,291.5,350.2z"/>
	<path class="st12" d="M289.9,346.9c0-0.1,0-0.2,0-0.3l0,0C289.9,346.7,289.9,346.8,289.9,346.9z"/>
	<path class="st12" d="M292,350.7c-0.1-0.1-0.1-0.1-0.2-0.2l0,0C291.9,350.5,291.9,350.6,292,350.7z"/>
	<path class="st12" d="M290,347.7c0-0.1,0-0.2-0.1-0.3v-0.1C290,347.4,290,347.5,290,347.7z"/>
	<path class="st12" d="M290.3,348.4c0-0.1-0.1-0.2-0.1-0.2v-0.1C290.2,348.1,290.2,348.2,290.3,348.4z"/>
	<path class="st12" d="M290,347.7L290,347.7L290,347.7L290,347.7z"/>
	<path class="st12" d="M291.2,349.9L291.2,349.9c-0.1-0.1-0.2-0.2-0.2-0.3C291.1,349.7,291.1,349.8,291.2,349.9z"/>
	<path class="st12" d="M290.3,348.4L290.3,348.4L290.3,348.4z"/>
	<path class="st12" d="M289.9,346.9L289.9,346.9L289.9,346.9L289.9,346.9z"/>
	<path class="st12" d="M291.8,350.5l-0.1-0.1c-0.1-0.1-0.1-0.1-0.2-0.2C291.6,350.3,291.7,350.4,291.8,350.5z"/>
	<path class="st12" d="M290.3,348.4c0-0.1-0.1-0.2-0.1-0.3C290.2,348.2,290.2,348.3,290.3,348.4L290.3,348.4z"/>
	<path class="st12" d="M291.8,350.5c-0.1-0.1-0.1-0.1-0.2-0.2C291.7,350.4,291.7,350.4,291.8,350.5L291.8,350.5z"/>
	<path class="st12" d="M290,347.7c0-0.1,0-0.2-0.1-0.3C290,347.5,290,347.6,290,347.7L290,347.7z"/>
	<path class="st12" d="M291.3,349.9C291.2,349.9,291.2,349.9,291.3,349.9C291.2,349.9,291.2,349.9,291.3,349.9
		C291.2,349.9,291.2,349.9,291.3,349.9z"/>
	<path class="st12" d="M289.9,346.9c0-0.1,0-0.2,0-0.3C289.9,346.7,289.9,346.8,289.9,346.9L289.9,346.9z"/>
	<path class="st12" d="M296.3,351.8c0.1,0,0.2,0,0.2,0l0,0C296.4,351.8,296.3,351.8,296.3,351.8z"/>
	<path class="st12" d="M294.5,351.8c0.1,0,0.2,0,0.2,0S294.7,351.8,294.5,351.8C294.6,351.8,294.6,351.8,294.5,351.8z"/>
	<path class="st12" d="M292.6,351.1L292.6,351.1L292.6,351.1z"/>
	<path class="st12" d="M293.1,351.3c0.1,0,0.1,0.1,0.2,0.1C293.3,351.4,293.2,351.4,293.1,351.3
		C293.2,351.4,293.2,351.4,293.1,351.3z"/>
	<path class="st12" d="M297.7,351.4c0.1,0,0.2-0.1,0.3-0.1c0,0,0,0-0.1,0C297.8,351.4,297.8,351.4,297.7,351.4z"/>
	<path class="st12" d="M297,351.7c0.1,0,0.2-0.1,0.3-0.1l0,0C297.1,351.6,297.1,351.7,297,351.7z"/>
	<path class="st12" d="M293.8,351.6c0.1,0,0.2,0.1,0.2,0.1S293.9,351.6,293.8,351.6L293.8,351.6z"/>
	<path class="st12" d="M289.8,346.2L289.8,346.2L289.8,346.2z"/>
	<path class="st12" d="M290.1,348C290.1,348,290.1,347.9,290.1,348c-0.1-0.2-0.1-0.2-0.1-0.3C290.1,347.8,290.1,347.9,290.1,348z"/>
	<path class="st12" d="M291,349.6L291,349.6L291,349.6z"/>
	<path class="st12" d="M291.5,350.2L291.5,350.2L291.5,350.2z"/>
	<path class="st12" d="M292,350.7L292,350.7L292,350.7z"/>
	<path class="st12" d="M290.4,348.6L290.4,348.6c-0.1-0.1-0.1-0.2-0.1-0.3C290.3,348.5,290.4,348.6,290.4,348.6z"/>
	<path class="st12" d="M290,347.3v-0.1c0-0.1,0-0.2,0-0.2C289.9,347.1,289.9,347.2,290,347.3z"/>
	<path class="st12" d="M289.8,346.4c0-0.1,0-0.2,0-0.3l0,0l0,0l0,0c0,0.1,0,0.2,0,0.4C289.9,346.5,289.8,346.5,289.8,346.4z"/>
	<path class="st12" d="M292,350.7c-0.1-0.1-0.1-0.1-0.2-0.2C291.9,350.6,292,350.6,292,350.7L292,350.7z"/>
	<path class="st12" d="M297.9,351.3L297.9,351.3c0.2-0.1,0.3-0.1,0.4-0.2C298.2,351.2,298,351.3,297.9,351.3z"/>
	<path class="st12" d="M292.6,351.1L292.6,351.1c-0.1,0-0.1-0.1-0.2-0.1C292.5,351,292.6,351.1,292.6,351.1L292.6,351.1z"/>
	<path class="st12" d="M292.6,351.1c-0.1,0-0.1-0.1-0.2-0.1l0,0C292.5,351,292.6,351.1,292.6,351.1z"/>
	<path class="st12" d="M293.9,351.6c0.1,0,0.1,0,0.2,0.1l0,0C294,351.7,293.9,351.6,293.9,351.6z"/>
	<path class="st12" d="M294.6,351.8c0.1,0,0.1,0,0.2,0l0,0C294.7,351.8,294.7,351.8,294.6,351.8z"/>
	<path class="st12" d="M290,347.4c0-0.1,0-0.1,0-0.2C289.9,347.2,289.9,347.3,290,347.4C290,347.3,290,347.4,290,347.4z"/>
	<path class="st12" d="M297.2,351.6L297.2,351.6c0.1,0,0.2-0.1,0.2-0.1C297.4,351.6,297.3,351.6,297.2,351.6z"/>
	<path class="st12" d="M291.5,350.2c-0.1-0.1-0.1-0.2-0.2-0.3C291.3,350,291.4,350.1,291.5,350.2L291.5,350.2z"/>
	<path class="st12" d="M289.9,346.6c0-0.1,0-0.1,0-0.2C289.8,346.5,289.9,346.5,289.9,346.6L289.9,346.6z"/>
	<path class="st12" d="M296.5,351.8L296.5,351.8L296.5,351.8L296.5,351.8z"/>
	<path class="st12" d="M296.5,351.8L296.5,351.8L296.5,351.8L296.5,351.8z"/>
	<path class="st12" d="M290.2,348.1c0-0.1,0-0.1-0.1-0.2v0.1L290.2,348.1z"/>
	<path class="st12" d="M291,349.6c-0.1-0.1-0.1-0.2-0.2-0.3C290.8,349.4,290.9,349.5,291,349.6L291,349.6z"/>
	<path class="st12" d="M291,349.6c-0.1-0.1-0.1-0.2-0.2-0.3l0,0C290.8,349.4,290.9,349.5,291,349.6z"/>
	<path class="st12" d="M290.5,348.9c-0.1-0.1-0.1-0.2-0.2-0.3l0,0C290.4,348.7,290.5,348.8,290.5,348.9z"/>
	<path class="st12" d="M293.2,351.4c0,0,0.1,0,0.1,0.1l0,0C293.3,351.4,293.2,351.4,293.2,351.4z"/>
	<path class="st12" d="M297.7,351.4L297.7,351.4c0.1,0,0.1-0.1,0.2-0.1C297.8,351.4,297.8,351.4,297.7,351.4z"/>
	<path class="st12" d="M297,351.7L297,351.7c0.1,0,0.2-0.1,0.2-0.1C297.1,351.6,297.1,351.7,297,351.7z"/>
	<path class="st12" d="M294.3,351.7c0.1,0,0.2,0,0.3,0.1c0,0,0,0,0.1,0C294.5,351.8,294.4,351.7,294.3,351.7z"/>
	<path class="st12" d="M293.6,351.5c0.1,0,0.1,0.1,0.2,0.1c0,0,0,0,0.1,0C293.8,351.6,293.7,351.6,293.6,351.5z"/>
	<path class="st12" d="M296.2,351.8L296.2,351.8c0.1,0,0.2,0,0.2,0C296.4,351.8,296.3,351.8,296.2,351.8z"/>
	<path class="st12" d="M293,351.2c0.1,0,0.1,0.1,0.2,0.1c0,0,0,0,0.1,0C293.1,351.3,293,351.3,293,351.2z"/>
	<path class="st12" d="M298.9,350.7c-0.2,0.1-0.4,0.3-0.5,0.4l0,0l0,0C298.6,351,298.7,350.9,298.9,350.7z"/>
	<path class="st12" d="M298.4,351.1L298.4,351.1L298.4,351.1z"/>
	<path class="st12" d="M289.9,345.8L289.9,345.8c0-0.2,0-0.3,0-0.4C289.9,345.6,289.9,345.7,289.9,345.8z"/>
	<path class="st12" d="M290.4,343.7c0,0,0-0.1,0.1-0.1c0-0.1,0.1-0.2,0.1-0.3C290.5,343.5,290.5,343.6,290.4,343.7z"/>
	<path class="st12" d="M290.1,344.4v-0.1c0-0.1,0.1-0.2,0.1-0.3C290.2,344.1,290.2,344.3,290.1,344.4z"/>
	<path class="st12" d="M289.8,346.2L289.8,346.2L289.8,346.2z"/>
	<path class="st12" d="M290,345.1C290,345,290,345,290,345.1c0-0.2,0.1-0.3,0.1-0.4C290,344.8,290,345,290,345.1z"/>
	<path class="st12" d="M291.2,342.5L291.2,342.5c0.1-0.2,0.2-0.3,0.3-0.4C291.4,342.3,291.3,342.4,291.2,342.5z"/>
	<path class="st12" d="M292.6,341.3c-0.1,0.1-0.2,0.1-0.3,0.2C292.4,341.4,292.6,341.3,292.6,341.3L292.6,341.3z"/>
	<path class="st12" d="M291.7,342L291.7,342c0.1-0.1,0.2-0.2,0.3-0.3C291.9,341.8,291.8,341.9,291.7,342z"/>
	<path class="st12" d="M289.9,345.2c0-0.1,0-0.2,0-0.2v0.1V345.2z"/>
	<path class="st12" d="M289.8,346.2c0-0.2,0-0.3,0-0.4c0,0,0,0,0,0.1C289.8,345.9,289.8,346.1,289.8,346.2z"/>
	<path class="st12" d="M290.1,344.5c0-0.1,0-0.1,0.1-0.2C290.2,344.3,290.1,344.3,290.1,344.5C290.1,344.4,290.1,344.4,290.1,344.5z
		"/>
	<path class="st12" d="M292.7,341.3c-0.1,0.1-0.2,0.2-0.3,0.2c0,0,0,0-0.1,0C292.4,341.4,292.5,341.3,292.7,341.3
		c0.2-0.1,0.5-0.2,0.7-0.3C293.1,341,292.9,341.1,292.7,341.3L292.7,341.3z"/>
	<path class="st12" d="M298.3,341.3c-0.2-0.1-0.3-0.2-0.5-0.2C298,341.1,298.2,341.2,298.3,341.3
		C298.4,341.3,298.4,341.3,298.3,341.3L298.3,341.3z"/>
	<path class="st12" d="M291.7,342c0.1-0.1,0.2-0.2,0.3-0.3l0,0C291.9,341.8,291.8,341.9,291.7,342z"/>
	<path class="st12" d="M290.4,343.8c0-0.1,0.1-0.1,0.1-0.2C290.4,343.6,290.4,343.7,290.4,343.8
		C290.4,343.7,290.4,343.8,290.4,343.8z"/>
	<path class="st12" d="M290.7,343.1L290.7,343.1L290.7,343.1L290.7,343.1z"/>
	<path class="st12" d="M290.7,343.1L290.7,343.1C290.8,343.1,290.8,343.1,290.7,343.1C290.8,343.1,290.8,343.1,290.7,343.1z"/>
	<path class="st12" d="M291.2,342.5c0.1-0.1,0.2-0.2,0.3-0.3l0,0C291.4,342.3,291.3,342.4,291.2,342.5z"/>
	<path class="st12" d="M292.3,350.8c-0.1-0.1-0.2-0.1-0.2-0.2l0,0C292.1,350.7,292.2,350.8,292.3,350.8z"/>
	<path class="st12" d="M291.2,349.8c-0.1-0.1-0.1-0.1-0.2-0.2l0,0C291,349.7,291.1,349.8,291.2,349.8z"/>
	<path class="st12" d="M291.7,350.3c-0.1-0.1-0.1-0.1-0.2-0.2l0,0C291.5,350.2,291.6,350.3,291.7,350.3z"/>
	<path class="st12" d="M290.2,344.3c0-0.1,0.1-0.2,0.1-0.3l0,0C290.2,344.1,290.2,344.2,290.2,344.3z"/>
	<path class="st12" d="M290.5,343.6c0-0.1,0.1-0.2,0.1-0.3l0,0C290.5,343.4,290.5,343.5,290.5,343.6z"/>
	<path class="st12" d="M290,345c0-0.1,0-0.2,0.1-0.3l0,0C290,344.8,290,344.9,290,345z"/>
	<path class="st12" d="M289.9,345.7c0-0.1,0-0.2,0-0.3l0,0C289.9,345.5,289.9,345.6,289.9,345.7z"/>
	<path class="st12" d="M291.7,342L291.7,342L291.7,342z"/>
	<path class="st12" d="M291.2,342.5L291.2,342.5L291.2,342.5L291.2,342.5z"/>
	<path class="st12" d="M290.4,348.6c0-0.1-0.1-0.2-0.1-0.2l0,0C290.3,348.5,290.3,348.5,290.4,348.6z"/>
	<path class="st12" d="M290.7,349.3c-0.1-0.1-0.1-0.2-0.2-0.2l0,0C290.6,349.1,290.7,349.2,290.7,349.3z"/>
	<path class="st12" d="M290.7,349.3L290.7,349.3c-0.1-0.1-0.1-0.2-0.2-0.2C290.6,349.1,290.7,349.2,290.7,349.3z"/>
	<path class="st12" d="M290.6,349L290.6,349L290.6,349z"/>
	<path class="st12" d="M290.1,347.9c0-0.1-0.1-0.2-0.1-0.2l0,0C290,347.8,290.1,347.8,290.1,347.9z"/>
	<path class="st12" d="M289.8,346.4c0-0.1,0-0.2,0-0.3l0,0C289.8,346.3,289.8,346.4,289.8,346.4z"/>
	<path class="st12" d="M289.9,347.2c0-0.1,0-0.2,0-0.2l0,0C289.9,347,289.9,347.1,289.9,347.2z"/>
	<path class="st12" d="M297,351.7c0.1,0,0.2-0.1,0.2-0.1c0.1,0,0.1,0,0.2-0.1c0.1,0,0.2-0.1,0.3-0.1c0.1,0,0.1-0.1,0.2-0.1
		c0.1-0.1,0.3-0.1,0.4-0.2l0,0l0,0c0.2-0.1,0.4-0.2,0.5-0.4c0,0,0,0,0.1,0c0.2-0.1,0.3-0.3,0.5-0.4l0.1-0.1c0.1-0.1,0.3-0.3,0.4-0.5
		l0.1-0.1c0.1-0.2,0.2-0.3,0.3-0.5l0.1-0.1c0.1-0.2,0.2-0.3,0.2-0.5c0-0.1,0.1-0.1,0.1-0.2c0.1-0.1,0.1-0.3,0.1-0.4s0.1-0.2,0.1-0.3
		c0-0.1,0-0.2,0.1-0.3c0-0.1,0.1-0.3,0.1-0.4s0-0.2,0-0.4c0-0.1,0-0.3,0-0.4s0-0.3,0-0.4s0-0.2,0-0.3c0-0.1-0.1-0.3-0.1-0.4v-0.1
		c0-0.1,0-0.1,0-0.2s-0.1-0.3-0.1-0.4s0-0.1-0.1-0.2V344l0,0c0-0.1-0.1-0.2-0.2-0.3c-0.1-0.1-0.1-0.2-0.2-0.3l-0.1-0.1l-0.1-0.1
		c-0.1-0.1-0.1-0.2-0.2-0.3c-0.1-0.1-0.1-0.1-0.2-0.2l0,0c-0.1-0.1-0.2-0.2-0.3-0.3c-0.1-0.1-0.2-0.2-0.3-0.2l0,0l0,0
		c-0.1-0.1-0.2-0.2-0.3-0.2c-0.1-0.1-0.2-0.2-0.3-0.2c-0.1-0.1-0.2-0.1-0.3-0.2l0,0c-0.2-0.1-0.3-0.2-0.5-0.2
		c-0.1,0-0.1-0.1-0.2-0.1c-0.2-0.1-0.3-0.1-0.5-0.2c-0.1,0-0.1,0-0.2-0.1c-0.2,0-0.3-0.1-0.5-0.1c-0.1,0-0.2,0-0.2,0
		c-0.1,0-0.3,0-0.4,0s-0.2,0-0.3,0c-0.1,0-0.2,0-0.3,0c-0.2,0-0.3,0-0.5,0c-0.1,0-0.1,0-0.2,0c-0.2,0-0.4,0.1-0.5,0.1
		s-0.1,0-0.2,0.1c-0.2,0.1-0.3,0.1-0.5,0.2s-0.5,0.2-0.7,0.3c-0.1,0.1-0.3,0.2-0.4,0.3c-0.1,0.1-0.2,0.1-0.2,0.2
		c-0.1,0.1-0.2,0.2-0.3,0.3l0,0c-0.1,0.1-0.1,0.1-0.2,0.2s-0.2,0.2-0.3,0.3c0,0,0,0-0.1,0.1s-0.1,0.1-0.2,0.2c0,0,0,0,0,0.1
		s-0.1,0.1-0.1,0.2l-0.1,0.1l0,0c0,0.1-0.1,0.1-0.1,0.2s-0.1,0.2-0.1,0.3c0,0.1-0.1,0.1-0.1,0.2s-0.1,0.2-0.1,0.2
		c0,0.1-0.1,0.2-0.1,0.3c0,0.1,0,0.1-0.1,0.2c0,0.1-0.1,0.2-0.1,0.2c0,0.1,0,0.2-0.1,0.3c0,0.1,0,0.2,0,0.2c0,0.1,0,0.1,0,0.2
		s0,0.2,0,0.3c0,0.1,0,0.3,0,0.4s0,0.2,0,0.3c0,0.1,0,0.1,0,0.2s0,0.2,0,0.3c0,0.1,0,0.2,0,0.2c0,0.1,0,0.1,0,0.2s0,0.2,0.1,0.3
		c0,0.1,0.1,0.2,0.1,0.2c0,0.1,0,0.1,0.1,0.2c0,0.1,0.1,0.2,0.1,0.3c0,0.1,0.1,0.2,0.1,0.2c0.1,0.1,0.1,0.2,0.2,0.3v0.1l0,0
		c0,0.1,0.1,0.2,0.2,0.2l0,0l0,0l0,0c0.1,0.1,0.1,0.2,0.2,0.3c0.1,0.1,0.1,0.1,0.2,0.2l0.1,0.1c0.1,0.1,0.1,0.2,0.2,0.3
		c0.1,0.1,0.1,0.1,0.2,0.2s0.1,0.1,0.2,0.2s0.1,0.1,0.2,0.2s0.2,0.1,0.2,0.2c0.1,0,0.1,0.1,0.2,0.1l0,0l0,0l0,0
		c0.1,0,0.1,0.1,0.2,0.1c0.1,0.1,0.2,0.1,0.3,0.2c0.1,0,0.2,0.1,0.3,0.1c0,0,0.1,0,0.1,0.1c0.1,0,0.2,0.1,0.2,0.1
		c0.1,0,0.2,0.1,0.3,0.1c0.1,0,0.1,0,0.2,0.1c0.1,0,0.2,0,0.2,0c0.1,0,0.2,0,0.3,0.1c0.1,0,0.1,0,0.2,0c0.2,0,0.5,0,0.7,0
		s0.5,0,0.7,0c0.1,0,0.2,0,0.2,0l0,0l0,0l0,0C296.7,351.7,296.8,351.7,297,351.7z"/>
	<path class="st12" d="M290.8,343.1l0.1-0.1C290.8,343,290.8,343,290.8,343.1L290.8,343.1z"/>
	<path class="st12" d="M290.8,349.3L290.8,349.3L290.8,349.3L290.8,349.3z"/>
	<polygon class="st12" points="292.5,351 292.4,351 292.4,351 	"/>
	<path class="st12" d="M296.5,351.8L296.5,351.8L296.5,351.8L296.5,351.8z"/>
	<path class="st12" d="M290.8,343L290.8,343c0.1-0.1,0.1-0.1,0.1-0.2C290.9,342.9,290.8,343,290.8,343z"/>
	<path class="st12" d="M301,344.7c0,0.1,0,0.1,0,0.2C301,344.8,301,344.8,301,344.7L301,344.7z"/>
	<path class="st12" d="M300.8,344v0.1C300.8,344.1,300.8,344.1,300.8,344L300.8,344z"/>
	<path class="st12" d="M299.3,342L299.3,342L299.3,342z"/>
	<path class="st12" d="M298.4,351.1L298.4,351.1L298.4,351.1z"/>
	<path class="st12" d="M298.4,351.1L298.4,351.1L298.4,351.1z"/>
	<path class="st12" d="M298.3,351.1C298.3,351.1,298.4,351.1,298.3,351.1C298.4,351.1,298.4,351.1,298.3,351.1
		C298.4,351.1,298.3,351.1,298.3,351.1z"/>
	<path class="st12" d="M290.7,349.3L290.7,349.3L290.7,349.3z"/>
	<path class="st12" d="M290.7,349.3L290.7,349.3L290.7,349.3z"/>
	<path class="st12" d="M292.4,351L292.4,351L292.4,351z"/>
	<path class="st12" d="M292.4,351L292.4,351L292.4,351z"/>
	<path class="st12" d="M292.4,351L292.4,351L292.4,351z"/>
	<path class="st12" d="M290.6,349L290.6,349L290.6,349z"/>
	<path class="st12" d="M290.6,349L290.6,349L290.6,349L290.6,349z"/>
	<path class="st12" d="M291,342.8L291,342.8C291,342.7,291,342.7,291,342.8L291,342.8z"/>
	<path class="st12" d="M290.8,343c0-0.1,0.1-0.1,0.1-0.2C290.9,342.8,290.9,342.8,290.8,343C290.9,342.9,290.9,342.9,290.8,343z"/>
	<path class="st12" d="M290.9,342.9C290.9,342.8,290.9,342.8,290.9,342.9c0.1-0.1,0.1-0.1,0.1-0.1S290.9,342.8,290.9,342.9z"/>
	<path class="st12" d="M292.4,351c-0.1,0-0.1-0.1-0.2-0.1C292.3,350.9,292.4,350.9,292.4,351L292.4,351z"/>
	<path class="st12" d="M292.4,351L292.4,351L292.4,351z"/>
	<path class="st12" d="M194.8,532.7V417.4l-8.5-5l0,0l-2.8-1.6v111.9l0,0v10c0,2,1.1,3.9,2.8,4.9c0.1,0.1,0.3,0.1,0.4,0.2
		c0.1,0,0.2,0.1,0.3,0.1c0.1,0.1,0.3,0.1,0.4,0.2c0.1,0,0.2,0.1,0.3,0.1c0.2,0,0.3,0.1,0.5,0.1c0.1,0,0.2,0,0.2,0c0.2,0,0.5,0,0.7,0
		s0.5,0,0.7,0c0.1,0,0.2,0,0.3-0.1c0.2,0,0.3-0.1,0.5-0.1c0.1,0,0.2-0.1,0.3-0.1s0.3-0.1,0.4-0.1c0.1,0,0.2-0.1,0.3-0.1
		c0.1-0.1,0.3-0.1,0.4-0.2C193.7,536.6,194.8,534.7,194.8,532.7z"/>
	<path class="st12" d="M192,412.4c-0.9,0.5-1.9,0.8-2.8,0.8c-1,0-2-0.3-2.8-0.8l8.5,5v-6.7L192,412.4z"/>
	<polygon class="st12" points="189.2,401 189.2,401 189.2,401 	"/>
	<path class="st12" d="M183.5,407.5L183.5,407.5v3.3l0,0l0,0l2.8,1.6l0,0l0,0C184.5,411.4,183.5,409.5,183.5,407.5z"/>
	<path class="st12" d="M192,412.4l2.8-1.6v-3.3c0-2-1.1-3.9-2.8-4.9l-2.8-1.6l0,0l0,0l-2.8,1.6c-1.8,1-2.8,2.9-2.8,4.9
		s1.1,3.9,2.8,4.9l0,0c0.9,0.5,1.9,0.8,2.8,0.8C190.1,413.2,191.1,412.9,192,412.4z"/>
</g>
<g id="Open_v02">
	<path class="st10" d="M312.5,541.1l-156-90.1V270.9l156-90.1l156,90.1v180.2L312.5,541.1z M168.5,444.1l144,83.1l144-83.1V277.8
		l-144-83.1l-144,83.1V444.1z"/>
	<path class="st10" d="M312.5,540.1c-3.3,0-6-2.7-6-6V187.7c0-3.3,2.7-6,6-6s6,2.7,6,6v346.4C318.5,537.4,315.9,540.1,312.5,540.1z"
		/>
	<path class="st10" d="M312.5,367.9l-152.9-88.3c-2.9-1.7-3.9-5.3-2.2-8.2c1.7-2.9,5.3-3.9,8.2-2.2L312.5,354l288-166.3l-138-79.7
		l-147,85c-2.9,1.7-6.5,0.7-8.2-2.2s-0.7-6.5,2.2-8.2l153.1-88.4l162,93.5L312.5,367.9z"/>
	<path class="st10" d="M309.5,366.1L309.5,366.1l-0.2-0.1L0.6,187.8l161.6-93.5l153.2,88.3c2.9,1.7,3.9,5.3,2.2,8.2
		c-1.7,2.9-5.3,3.9-8.2,2.2l-147.2-84.8L24.6,187.8l140.5,81.1c0.2,0.1,0.3,0.2,0.5,0.3l149.9,86.6L309.5,366.1z"/>
	<g>
		<path class="st10" d="M462.5,281.2l-162.1-93.5l162.1-93.6l162,93.5L462.5,281.2z M324.5,187.8l138.1,79.6l138-79.7l-138-79.7
			L324.5,187.8z"/>
	</g>
	<g>
		<path class="st10" d="M162.5,281.2l-162-93.5l162-93.5l162.1,93.6L162.5,281.2z M24.5,187.7l138,79.7l138.1-79.6L162.5,108
			L24.5,187.7z"/>
	</g>
	<path class="st10" d="M162.5,281.2l-162-93.5l162-93.5l162.1,93.6L162.5,281.2z M24.5,187.7l138,79.7l138.1-79.6L162.5,108
		L24.5,187.7z"/>
</g>
</svg>
