<?xml version="1.0" encoding="utf-8"?>
<!-- Generator: Adobe Illustrator 25.2.1, SVG Export Plug-In . SVG Version: 6.00 Build 0)  -->
<svg version="1.1" xmlns="http://www.w3.org/2000/svg" xmlns:xlink="http://www.w3.org/1999/xlink" x="0px" y="0px"
	 viewBox="0 0 310 369.3" enable-background="new 0 0 310 369.3" xml:space="preserve">
<g id="Grid" display="none" opacity="0.25">
	<g display="inline">
		<defs>
			<rect id="SVGID_1_" x="-214.6" y="-4.9" width="799" height="800"/>
		</defs>
		<clipPath id="SVGID_2_">
			<use xlink:href="#SVGID_1_"  overflow="visible"/>
		</clipPath>
		<g clip-path="url(#SVGID_2_)">
			
				<line fill="none" stroke="#000000" stroke-width="0.25" stroke-miterlimit="10" x1="-1164.1" y1="-897.4" x2="-1164.1" y2="1686.6"/>
			
				<line fill="none" stroke="#000000" stroke-width="0.25" stroke-miterlimit="10" x1="-1114.1" y1="-897.4" x2="-1114.1" y2="1686.6"/>
			
				<line fill="none" stroke="#000000" stroke-width="0.25" stroke-miterlimit="10" x1="-1064.1" y1="-897.4" x2="-1064.1" y2="1686.6"/>
			
				<line fill="none" stroke="#000000" stroke-width="0.25" stroke-miterlimit="10" x1="-1014.1" y1="-897.4" x2="-1014.1" y2="1686.6"/>
			
				<line fill="none" stroke="#000000" stroke-width="0.25" stroke-miterlimit="10" x1="-964.1" y1="-897.4" x2="-964.1" y2="1686.6"/>
			
				<line fill="none" stroke="#000000" stroke-width="0.25" stroke-miterlimit="10" x1="-914.1" y1="-897.4" x2="-914.1" y2="1686.6"/>
			
				<line fill="none" stroke="#000000" stroke-width="0.25" stroke-miterlimit="10" x1="-864.1" y1="-897.4" x2="-864.1" y2="1686.6"/>
			
				<line fill="none" stroke="#000000" stroke-width="0.25" stroke-miterlimit="10" x1="-814.1" y1="-897.4" x2="-814.1" y2="1686.6"/>
			
				<line fill="none" stroke="#000000" stroke-width="0.25" stroke-miterlimit="10" x1="-764.1" y1="-897.4" x2="-764.1" y2="1686.6"/>
			
				<line fill="none" stroke="#000000" stroke-width="0.25" stroke-miterlimit="10" x1="-714.1" y1="-897.4" x2="-714.1" y2="1686.6"/>
			
				<line fill="none" stroke="#000000" stroke-width="0.25" stroke-miterlimit="10" x1="-664.1" y1="-897.4" x2="-664.1" y2="1686.6"/>
			
				<line fill="none" stroke="#000000" stroke-width="0.25" stroke-miterlimit="10" x1="-614.1" y1="-897.4" x2="-614.1" y2="1686.6"/>
			
				<line fill="none" stroke="#000000" stroke-width="0.25" stroke-miterlimit="10" x1="-564.1" y1="-897.4" x2="-564.1" y2="1686.6"/>
			
				<line fill="none" stroke="#000000" stroke-width="0.25" stroke-miterlimit="10" x1="-514.1" y1="-897.4" x2="-514.1" y2="1686.6"/>
			
				<line fill="none" stroke="#000000" stroke-width="0.25" stroke-miterlimit="10" x1="-464.1" y1="-897.4" x2="-464.1" y2="1686.6"/>
			
				<line fill="none" stroke="#000000" stroke-width="0.25" stroke-miterlimit="10" x1="-414.1" y1="-897.4" x2="-414.1" y2="1686.6"/>
			
				<line fill="none" stroke="#000000" stroke-width="0.25" stroke-miterlimit="10" x1="-364.1" y1="-897.4" x2="-364.1" y2="1686.6"/>
			
				<line fill="none" stroke="#000000" stroke-width="0.25" stroke-miterlimit="10" x1="-314.1" y1="-897.4" x2="-314.1" y2="1686.6"/>
			
				<line fill="none" stroke="#000000" stroke-width="0.25" stroke-miterlimit="10" x1="-264.1" y1="-897.4" x2="-264.1" y2="1686.6"/>
			
				<line fill="none" stroke="#000000" stroke-width="0.25" stroke-miterlimit="10" x1="-214.1" y1="-897.4" x2="-214.1" y2="1686.6"/>
			
				<line fill="none" stroke="#000000" stroke-width="0.25" stroke-miterlimit="10" x1="-164.1" y1="-897.4" x2="-164.1" y2="1686.6"/>
			
				<line fill="none" stroke="#000000" stroke-width="0.25" stroke-miterlimit="10" x1="-114.1" y1="-897.4" x2="-114.1" y2="1686.6"/>
			<line fill="none" stroke="#000000" stroke-width="0.25" stroke-miterlimit="10" x1="-64.1" y1="-897.4" x2="-64.1" y2="1686.6"/>
			<line fill="none" stroke="#000000" stroke-width="0.25" stroke-miterlimit="10" x1="-14.1" y1="-897.4" x2="-14.1" y2="1686.6"/>
			<line fill="none" stroke="#000000" stroke-width="0.25" stroke-miterlimit="10" x1="35.9" y1="-897.4" x2="35.9" y2="1686.6"/>
			<line fill="none" stroke="#000000" stroke-width="0.25" stroke-miterlimit="10" x1="85.9" y1="-897.4" x2="85.9" y2="1686.6"/>
			<line fill="none" stroke="#000000" stroke-width="0.25" stroke-miterlimit="10" x1="135.9" y1="-897.4" x2="135.9" y2="1686.6"/>
			<line fill="none" stroke="#000000" stroke-width="0.25" stroke-miterlimit="10" x1="185.9" y1="-897.4" x2="185.9" y2="1686.6"/>
			<line fill="none" stroke="#000000" stroke-width="0.25" stroke-miterlimit="10" x1="235.9" y1="-897.4" x2="235.9" y2="1686.6"/>
			<line fill="none" stroke="#000000" stroke-width="0.25" stroke-miterlimit="10" x1="285.9" y1="-897.4" x2="285.9" y2="1686.6"/>
			<line fill="none" stroke="#000000" stroke-width="0.25" stroke-miterlimit="10" x1="335.9" y1="-897.4" x2="335.9" y2="1686.6"/>
			<line fill="none" stroke="#000000" stroke-width="0.25" stroke-miterlimit="10" x1="385.9" y1="-897.4" x2="385.9" y2="1686.6"/>
			<line fill="none" stroke="#000000" stroke-width="0.25" stroke-miterlimit="10" x1="435.9" y1="-897.4" x2="435.9" y2="1686.6"/>
			<line fill="none" stroke="#000000" stroke-width="0.25" stroke-miterlimit="10" x1="485.9" y1="-897.4" x2="485.9" y2="1686.6"/>
			<line fill="none" stroke="#000000" stroke-width="0.25" stroke-miterlimit="10" x1="535.9" y1="-897.4" x2="535.9" y2="1686.6"/>
			<line fill="none" stroke="#000000" stroke-width="0.25" stroke-miterlimit="10" x1="585.9" y1="-897.4" x2="585.9" y2="1686.6"/>
			<line fill="none" stroke="#000000" stroke-width="0.25" stroke-miterlimit="10" x1="635.9" y1="-897.4" x2="635.9" y2="1686.6"/>
			<line fill="none" stroke="#000000" stroke-width="0.25" stroke-miterlimit="10" x1="685.9" y1="-897.4" x2="685.9" y2="1686.6"/>
			<line fill="none" stroke="#000000" stroke-width="0.25" stroke-miterlimit="10" x1="735.9" y1="-897.4" x2="735.9" y2="1686.6"/>
			<line fill="none" stroke="#000000" stroke-width="0.25" stroke-miterlimit="10" x1="785.9" y1="-897.4" x2="785.9" y2="1686.6"/>
			<line fill="none" stroke="#000000" stroke-width="0.25" stroke-miterlimit="10" x1="835.9" y1="-897.4" x2="835.9" y2="1686.6"/>
			<line fill="none" stroke="#000000" stroke-width="0.25" stroke-miterlimit="10" x1="885.9" y1="-897.4" x2="885.9" y2="1686.6"/>
			<line fill="none" stroke="#000000" stroke-width="0.25" stroke-miterlimit="10" x1="935.9" y1="-897.4" x2="935.9" y2="1686.6"/>
			<line fill="none" stroke="#000000" stroke-width="0.25" stroke-miterlimit="10" x1="985.9" y1="-897.4" x2="985.9" y2="1686.6"/>
			
				<line fill="none" stroke="#000000" stroke-width="0.25" stroke-miterlimit="10" x1="1035.9" y1="-897.4" x2="1035.9" y2="1686.6"/>
			
				<line fill="none" stroke="#000000" stroke-width="0.25" stroke-miterlimit="10" x1="1085.9" y1="-897.4" x2="1085.9" y2="1686.6"/>
			
				<line fill="none" stroke="#000000" stroke-width="0.25" stroke-miterlimit="10" x1="1135.9" y1="-897.4" x2="1135.9" y2="1686.6"/>
			
				<line fill="none" stroke="#000000" stroke-width="0.25" stroke-miterlimit="10" x1="1185.9" y1="-897.4" x2="1185.9" y2="1686.6"/>
			
				<line fill="none" stroke="#000000" stroke-width="0.25" stroke-miterlimit="10" x1="1235.9" y1="-897.4" x2="1235.9" y2="1686.6"/>
			
				<line fill="none" stroke="#000000" stroke-width="0.25" stroke-miterlimit="10" x1="1285.9" y1="-897.4" x2="1285.9" y2="1686.6"/>
			
				<line fill="none" stroke="#000000" stroke-width="0.25" stroke-miterlimit="10" x1="1335.9" y1="-897.4" x2="1335.9" y2="1686.6"/>
			
				<line fill="none" stroke="#000000" stroke-width="0.25" stroke-miterlimit="10" x1="1385.9" y1="-897.4" x2="1385.9" y2="1686.6"/>
			
				<line fill="none" stroke="#000000" stroke-width="0.25" stroke-miterlimit="10" x1="1435.9" y1="-897.4" x2="1435.9" y2="1686.6"/>
			
				<line fill="none" stroke="#000000" stroke-width="0.25" stroke-miterlimit="10" x1="1485.9" y1="-897.4" x2="1485.9" y2="1686.6"/>
			
				<line fill="none" stroke="#000000" stroke-width="0.25" stroke-miterlimit="10" x1="1535.9" y1="-897.4" x2="1535.9" y2="1686.6"/>
		</g>
		<g clip-path="url(#SVGID_2_)">
			<line fill="none" stroke="#000000" stroke-width="0.25" stroke-miterlimit="10" x1="-1608" y1="917.7" x2="629.8" y2="2209.7"/>
			<line fill="none" stroke="#000000" stroke-width="0.25" stroke-miterlimit="10" x1="-1583" y1="874.4" x2="654.8" y2="2166.4"/>
			<line fill="none" stroke="#000000" stroke-width="0.25" stroke-miterlimit="10" x1="-1558" y1="831.1" x2="679.8" y2="2123.1"/>
			<line fill="none" stroke="#000000" stroke-width="0.25" stroke-miterlimit="10" x1="-1533" y1="787.8" x2="704.8" y2="2079.8"/>
			<line fill="none" stroke="#000000" stroke-width="0.25" stroke-miterlimit="10" x1="-1508" y1="744.5" x2="729.8" y2="2036.5"/>
			<line fill="none" stroke="#000000" stroke-width="0.25" stroke-miterlimit="10" x1="-1483" y1="701.2" x2="754.8" y2="1993.2"/>
			<line fill="none" stroke="#000000" stroke-width="0.25" stroke-miterlimit="10" x1="-1458" y1="657.9" x2="779.8" y2="1949.9"/>
			<line fill="none" stroke="#000000" stroke-width="0.25" stroke-miterlimit="10" x1="-1433" y1="614.6" x2="804.8" y2="1906.6"/>
			<line fill="none" stroke="#000000" stroke-width="0.25" stroke-miterlimit="10" x1="-1408" y1="571.3" x2="829.8" y2="1863.3"/>
			<line fill="none" stroke="#000000" stroke-width="0.25" stroke-miterlimit="10" x1="-1383" y1="528" x2="854.8" y2="1820"/>
			<line fill="none" stroke="#000000" stroke-width="0.25" stroke-miterlimit="10" x1="-1358" y1="484.7" x2="879.8" y2="1776.7"/>
			<line fill="none" stroke="#000000" stroke-width="0.25" stroke-miterlimit="10" x1="-1333" y1="441.4" x2="904.8" y2="1733.4"/>
			<line fill="none" stroke="#000000" stroke-width="0.25" stroke-miterlimit="10" x1="-1308" y1="398.1" x2="929.8" y2="1690.1"/>
			<line fill="none" stroke="#000000" stroke-width="0.25" stroke-miterlimit="10" x1="-1283" y1="354.8" x2="954.8" y2="1646.8"/>
			<line fill="none" stroke="#000000" stroke-width="0.25" stroke-miterlimit="10" x1="-1258" y1="311.5" x2="979.8" y2="1603.5"/>
			<line fill="none" stroke="#000000" stroke-width="0.25" stroke-miterlimit="10" x1="-1233" y1="268.2" x2="1004.8" y2="1560.2"/>
			<line fill="none" stroke="#000000" stroke-width="0.25" stroke-miterlimit="10" x1="-1208" y1="224.9" x2="1029.8" y2="1516.9"/>
			<line fill="none" stroke="#000000" stroke-width="0.25" stroke-miterlimit="10" x1="-1183" y1="181.6" x2="1054.8" y2="1473.6"/>
			<line fill="none" stroke="#000000" stroke-width="0.25" stroke-miterlimit="10" x1="-1158" y1="138.3" x2="1079.8" y2="1430.3"/>
			<line fill="none" stroke="#000000" stroke-width="0.25" stroke-miterlimit="10" x1="-1133" y1="95" x2="1104.8" y2="1387"/>
			<line fill="none" stroke="#000000" stroke-width="0.25" stroke-miterlimit="10" x1="-1108" y1="51.7" x2="1129.8" y2="1343.7"/>
			<line fill="none" stroke="#000000" stroke-width="0.25" stroke-miterlimit="10" x1="-1083" y1="8.4" x2="1154.8" y2="1300.4"/>
			<line fill="none" stroke="#000000" stroke-width="0.25" stroke-miterlimit="10" x1="-1058" y1="-34.9" x2="1179.8" y2="1257.1"/>
			<line fill="none" stroke="#000000" stroke-width="0.25" stroke-miterlimit="10" x1="-1033" y1="-78.2" x2="1204.8" y2="1213.8"/>
			
				<line fill="none" stroke="#000000" stroke-width="0.25" stroke-miterlimit="10" x1="-1008" y1="-121.5" x2="1229.8" y2="1170.5"/>
			<line fill="none" stroke="#000000" stroke-width="0.25" stroke-miterlimit="10" x1="-983" y1="-164.8" x2="1254.8" y2="1127.2"/>
			<line fill="none" stroke="#000000" stroke-width="0.25" stroke-miterlimit="10" x1="-958" y1="-208.1" x2="1279.8" y2="1083.9"/>
			<line fill="none" stroke="#000000" stroke-width="0.25" stroke-miterlimit="10" x1="-933" y1="-251.4" x2="1304.8" y2="1040.6"/>
			<line fill="none" stroke="#000000" stroke-width="0.25" stroke-miterlimit="10" x1="-908" y1="-294.7" x2="1329.8" y2="997.3"/>
			<line fill="none" stroke="#000000" stroke-width="0.25" stroke-miterlimit="10" x1="-883" y1="-338" x2="1354.8" y2="954"/>
			<line fill="none" stroke="#000000" stroke-width="0.25" stroke-miterlimit="10" x1="-858" y1="-381.3" x2="1379.8" y2="910.7"/>
			<line fill="none" stroke="#000000" stroke-width="0.25" stroke-miterlimit="10" x1="-833" y1="-424.6" x2="1404.8" y2="867.4"/>
			<line fill="none" stroke="#000000" stroke-width="0.25" stroke-miterlimit="10" x1="-808" y1="-467.9" x2="1429.8" y2="824.1"/>
			<line fill="none" stroke="#000000" stroke-width="0.25" stroke-miterlimit="10" x1="-783" y1="-511.2" x2="1454.8" y2="780.8"/>
			<line fill="none" stroke="#000000" stroke-width="0.25" stroke-miterlimit="10" x1="-758" y1="-554.5" x2="1479.8" y2="737.5"/>
			<line fill="none" stroke="#000000" stroke-width="0.25" stroke-miterlimit="10" x1="-733" y1="-597.8" x2="1504.8" y2="694.2"/>
			<line fill="none" stroke="#000000" stroke-width="0.25" stroke-miterlimit="10" x1="-708" y1="-641.1" x2="1529.8" y2="650.9"/>
			<line fill="none" stroke="#000000" stroke-width="0.25" stroke-miterlimit="10" x1="-683" y1="-684.4" x2="1554.8" y2="607.6"/>
			<line fill="none" stroke="#000000" stroke-width="0.25" stroke-miterlimit="10" x1="-658" y1="-727.7" x2="1579.8" y2="564.3"/>
			<line fill="none" stroke="#000000" stroke-width="0.25" stroke-miterlimit="10" x1="-633" y1="-771" x2="1604.8" y2="521"/>
			<line fill="none" stroke="#000000" stroke-width="0.25" stroke-miterlimit="10" x1="-608" y1="-814.3" x2="1629.8" y2="477.7"/>
			<line fill="none" stroke="#000000" stroke-width="0.25" stroke-miterlimit="10" x1="-583" y1="-857.6" x2="1654.8" y2="434.4"/>
			<line fill="none" stroke="#000000" stroke-width="0.25" stroke-miterlimit="10" x1="-558" y1="-900.9" x2="1679.8" y2="391.1"/>
			<line fill="none" stroke="#000000" stroke-width="0.25" stroke-miterlimit="10" x1="-533" y1="-944.2" x2="1704.8" y2="347.8"/>
			<line fill="none" stroke="#000000" stroke-width="0.25" stroke-miterlimit="10" x1="-508" y1="-987.5" x2="1729.8" y2="304.5"/>
			<line fill="none" stroke="#000000" stroke-width="0.25" stroke-miterlimit="10" x1="-483" y1="-1030.8" x2="1754.8" y2="261.2"/>
			<line fill="none" stroke="#000000" stroke-width="0.25" stroke-miterlimit="10" x1="-458" y1="-1074.1" x2="1779.8" y2="217.9"/>
			<line fill="none" stroke="#000000" stroke-width="0.25" stroke-miterlimit="10" x1="-433" y1="-1117.4" x2="1804.8" y2="174.6"/>
			<line fill="none" stroke="#000000" stroke-width="0.25" stroke-miterlimit="10" x1="-408" y1="-1160.7" x2="1829.8" y2="131.3"/>
			<line fill="none" stroke="#000000" stroke-width="0.25" stroke-miterlimit="10" x1="-383" y1="-1204" x2="1854.8" y2="88"/>
			<line fill="none" stroke="#000000" stroke-width="0.25" stroke-miterlimit="10" x1="-358" y1="-1247.3" x2="1879.8" y2="44.7"/>
			<line fill="none" stroke="#000000" stroke-width="0.25" stroke-miterlimit="10" x1="-333" y1="-1290.6" x2="1904.8" y2="1.4"/>
			<line fill="none" stroke="#000000" stroke-width="0.25" stroke-miterlimit="10" x1="-308" y1="-1333.9" x2="1929.8" y2="-41.9"/>
			<line fill="none" stroke="#000000" stroke-width="0.25" stroke-miterlimit="10" x1="-283" y1="-1377.2" x2="1954.8" y2="-85.2"/>
			
				<line fill="none" stroke="#000000" stroke-width="0.25" stroke-miterlimit="10" x1="-258" y1="-1420.5" x2="1979.8" y2="-128.5"/>
		</g>
		<g clip-path="url(#SVGID_2_)">
			<line fill="none" stroke="#000000" stroke-width="0.25" stroke-miterlimit="10" x1="1979.8" y1="917.7" x2="-258" y2="2209.7"/>
			<line fill="none" stroke="#000000" stroke-width="0.25" stroke-miterlimit="10" x1="1954.8" y1="874.4" x2="-283" y2="2166.4"/>
			<line fill="none" stroke="#000000" stroke-width="0.25" stroke-miterlimit="10" x1="1929.8" y1="831.1" x2="-308" y2="2123.1"/>
			<line fill="none" stroke="#000000" stroke-width="0.25" stroke-miterlimit="10" x1="1904.8" y1="787.8" x2="-333" y2="2079.8"/>
			<line fill="none" stroke="#000000" stroke-width="0.25" stroke-miterlimit="10" x1="1879.8" y1="744.5" x2="-358" y2="2036.5"/>
			<line fill="none" stroke="#000000" stroke-width="0.25" stroke-miterlimit="10" x1="1854.8" y1="701.2" x2="-383" y2="1993.2"/>
			<line fill="none" stroke="#000000" stroke-width="0.25" stroke-miterlimit="10" x1="1829.8" y1="657.9" x2="-408" y2="1949.9"/>
			<line fill="none" stroke="#000000" stroke-width="0.25" stroke-miterlimit="10" x1="1804.8" y1="614.6" x2="-433" y2="1906.6"/>
			<line fill="none" stroke="#000000" stroke-width="0.25" stroke-miterlimit="10" x1="1779.8" y1="571.3" x2="-458" y2="1863.3"/>
			<line fill="none" stroke="#000000" stroke-width="0.25" stroke-miterlimit="10" x1="1754.8" y1="528" x2="-483" y2="1820"/>
			<line fill="none" stroke="#000000" stroke-width="0.25" stroke-miterlimit="10" x1="1729.8" y1="484.7" x2="-508" y2="1776.7"/>
			<line fill="none" stroke="#000000" stroke-width="0.25" stroke-miterlimit="10" x1="1704.8" y1="441.4" x2="-533" y2="1733.4"/>
			<line fill="none" stroke="#000000" stroke-width="0.25" stroke-miterlimit="10" x1="1679.8" y1="398.1" x2="-558" y2="1690.1"/>
			<line fill="none" stroke="#000000" stroke-width="0.25" stroke-miterlimit="10" x1="1654.8" y1="354.8" x2="-583" y2="1646.8"/>
			<line fill="none" stroke="#000000" stroke-width="0.25" stroke-miterlimit="10" x1="1629.8" y1="311.5" x2="-608" y2="1603.5"/>
			<line fill="none" stroke="#000000" stroke-width="0.25" stroke-miterlimit="10" x1="1604.8" y1="268.2" x2="-633" y2="1560.2"/>
			<line fill="none" stroke="#000000" stroke-width="0.25" stroke-miterlimit="10" x1="1579.8" y1="224.9" x2="-658" y2="1516.9"/>
			<line fill="none" stroke="#000000" stroke-width="0.25" stroke-miterlimit="10" x1="1554.8" y1="181.6" x2="-683" y2="1473.6"/>
			<line fill="none" stroke="#000000" stroke-width="0.25" stroke-miterlimit="10" x1="1529.8" y1="138.3" x2="-708" y2="1430.3"/>
			<line fill="none" stroke="#000000" stroke-width="0.25" stroke-miterlimit="10" x1="1504.8" y1="95" x2="-733" y2="1387"/>
			<line fill="none" stroke="#000000" stroke-width="0.25" stroke-miterlimit="10" x1="1479.8" y1="51.7" x2="-758" y2="1343.7"/>
			<line fill="none" stroke="#000000" stroke-width="0.25" stroke-miterlimit="10" x1="1454.8" y1="8.4" x2="-783" y2="1300.4"/>
			<line fill="none" stroke="#000000" stroke-width="0.25" stroke-miterlimit="10" x1="1429.8" y1="-34.9" x2="-808" y2="1257.1"/>
			<line fill="none" stroke="#000000" stroke-width="0.25" stroke-miterlimit="10" x1="1404.8" y1="-78.2" x2="-833" y2="1213.8"/>
			<line fill="none" stroke="#000000" stroke-width="0.25" stroke-miterlimit="10" x1="1379.8" y1="-121.5" x2="-858" y2="1170.5"/>
			<line fill="none" stroke="#000000" stroke-width="0.25" stroke-miterlimit="10" x1="1354.8" y1="-164.8" x2="-883" y2="1127.2"/>
			<line fill="none" stroke="#000000" stroke-width="0.25" stroke-miterlimit="10" x1="1329.8" y1="-208.1" x2="-908" y2="1083.9"/>
			<line fill="none" stroke="#000000" stroke-width="0.25" stroke-miterlimit="10" x1="1304.8" y1="-251.4" x2="-933" y2="1040.6"/>
			<line fill="none" stroke="#000000" stroke-width="0.25" stroke-miterlimit="10" x1="1279.8" y1="-294.7" x2="-958" y2="997.3"/>
			<line fill="none" stroke="#000000" stroke-width="0.25" stroke-miterlimit="10" x1="1254.8" y1="-338" x2="-983" y2="954"/>
			<line fill="none" stroke="#000000" stroke-width="0.25" stroke-miterlimit="10" x1="1229.8" y1="-381.3" x2="-1008" y2="910.7"/>
			<line fill="none" stroke="#000000" stroke-width="0.25" stroke-miterlimit="10" x1="1204.8" y1="-424.6" x2="-1033" y2="867.4"/>
			<line fill="none" stroke="#000000" stroke-width="0.25" stroke-miterlimit="10" x1="1179.8" y1="-467.9" x2="-1058" y2="824.1"/>
			<line fill="none" stroke="#000000" stroke-width="0.25" stroke-miterlimit="10" x1="1154.8" y1="-511.2" x2="-1083" y2="780.8"/>
			<line fill="none" stroke="#000000" stroke-width="0.25" stroke-miterlimit="10" x1="1129.8" y1="-554.5" x2="-1108" y2="737.5"/>
			<line fill="none" stroke="#000000" stroke-width="0.25" stroke-miterlimit="10" x1="1104.8" y1="-597.8" x2="-1133" y2="694.2"/>
			<line fill="none" stroke="#000000" stroke-width="0.25" stroke-miterlimit="10" x1="1079.8" y1="-641.1" x2="-1158" y2="650.9"/>
			<line fill="none" stroke="#000000" stroke-width="0.25" stroke-miterlimit="10" x1="1054.8" y1="-684.4" x2="-1183" y2="607.6"/>
			<line fill="none" stroke="#000000" stroke-width="0.25" stroke-miterlimit="10" x1="1029.8" y1="-727.7" x2="-1208" y2="564.3"/>
			<line fill="none" stroke="#000000" stroke-width="0.25" stroke-miterlimit="10" x1="1004.8" y1="-771" x2="-1233" y2="521"/>
			<line fill="none" stroke="#000000" stroke-width="0.25" stroke-miterlimit="10" x1="979.8" y1="-814.3" x2="-1258" y2="477.7"/>
			<line fill="none" stroke="#000000" stroke-width="0.25" stroke-miterlimit="10" x1="954.8" y1="-857.6" x2="-1283" y2="434.4"/>
			<line fill="none" stroke="#000000" stroke-width="0.25" stroke-miterlimit="10" x1="929.8" y1="-900.9" x2="-1308" y2="391.1"/>
			<line fill="none" stroke="#000000" stroke-width="0.25" stroke-miterlimit="10" x1="904.8" y1="-944.2" x2="-1333" y2="347.8"/>
			<line fill="none" stroke="#000000" stroke-width="0.25" stroke-miterlimit="10" x1="879.8" y1="-987.5" x2="-1358" y2="304.5"/>
			<line fill="none" stroke="#000000" stroke-width="0.25" stroke-miterlimit="10" x1="854.8" y1="-1030.8" x2="-1383" y2="261.2"/>
			<line fill="none" stroke="#000000" stroke-width="0.25" stroke-miterlimit="10" x1="829.8" y1="-1074.1" x2="-1408" y2="217.9"/>
			<line fill="none" stroke="#000000" stroke-width="0.25" stroke-miterlimit="10" x1="804.8" y1="-1117.4" x2="-1433" y2="174.6"/>
			<line fill="none" stroke="#000000" stroke-width="0.25" stroke-miterlimit="10" x1="779.8" y1="-1160.7" x2="-1458" y2="131.3"/>
			<line fill="none" stroke="#000000" stroke-width="0.25" stroke-miterlimit="10" x1="754.8" y1="-1204" x2="-1483" y2="88"/>
			<line fill="none" stroke="#000000" stroke-width="0.25" stroke-miterlimit="10" x1="729.8" y1="-1247.3" x2="-1508" y2="44.7"/>
			<line fill="none" stroke="#000000" stroke-width="0.25" stroke-miterlimit="10" x1="704.8" y1="-1290.6" x2="-1533" y2="1.4"/>
			<line fill="none" stroke="#000000" stroke-width="0.25" stroke-miterlimit="10" x1="679.8" y1="-1333.9" x2="-1558" y2="-41.9"/>
			<line fill="none" stroke="#000000" stroke-width="0.25" stroke-miterlimit="10" x1="654.8" y1="-1377.2" x2="-1583" y2="-85.2"/>
			
				<line fill="none" stroke="#000000" stroke-width="0.25" stroke-miterlimit="10" x1="629.8" y1="-1420.5" x2="-1608" y2="-128.5"/>
		</g>
	</g>
</g>
<g id="BASE-_interoperable">
	<path fill="none" d="M101.8,214.1l0.2-38.2l-28.7-17l0.2,73l62.3,36.4l0-33.8l-33.4-19.4C102,214.9,101.8,214.5,101.8,214.1z"/>
	<path fill="none" d="M206.3,154.9C206.3,154.9,206.3,154.9,206.3,154.9C206.3,154.9,206.3,154.9,206.3,154.9L206.3,154.9
		c0,0,0.1,0.1,0.1,0.1c0,0,0.1,0.1,0.1,0.1c0,0,0.1,0.1,0.1,0.1c0,0,0.1,0.1,0.1,0.1c0,0,0,0.1,0.1,0.1c0,0,0,0.1,0.1,0.1
		c0,0,0,0.1,0,0.1c0,0,0,0.1,0,0.1v0v39.8l27.2,15.9l-0.1-72.3l-62.4-37l0.1,32.3L206.3,154.9z"/>
	<g>
		<polygon fill="#B0F2DC" points="272.1,118.5 272.1,118.5 271.8,233.4 271.6,309.5 302.8,291.5 302.8,101 302.8,101 		"/>
		<polygon fill="#B0F2DC" points="137.8,82.2 137.7,114.4 169.3,133.1 169.2,100.8 		"/>
		<polygon fill="#B0F2DC" points="173.8,175.3 173.8,176.4 173.8,177.7 173.8,178.9 173.7,216.1 173.7,216.1 173.7,217.4 
			173.7,218.7 173.7,224.9 173.6,253.9 173.6,255.2 173.6,256.5 173.3,366.3 204.6,348.2 204.6,274.5 204.6,273.2 204.6,271.9 
			204.6,236.7 204.6,235.4 204.6,234.1 204.6,234.1 204.6,196.9 204.6,195.6 204.6,194.3 204.6,157.8 204.6,157.8 173.8,175.3 		"/>
		<polygon fill="#B0F2DC" points="39.6,138.9 39,250.4 71.2,231.9 71,157.6 		"/>
	</g>
	<g>
		<path fill="#32CB87" d="M305.1,99c0,0,0-0.1,0-0.1c0,0,0-0.1-0.1-0.1c0,0,0-0.1-0.1-0.1c0,0-0.1-0.1-0.1-0.1c0,0-0.1-0.1-0.1-0.1
			c0,0-0.1-0.1-0.1-0.1c0,0-0.1-0.1-0.1-0.1l0,0c0,0,0,0,0,0c0,0,0,0,0,0l-166.1-98c-0.4-0.2-0.8-0.2-1.1,0l-34.2,20.2
			c0,0-0.1,0.1-0.1,0.1c0,0-0.1,0.1-0.1,0.1c0,0-0.1,0.1-0.1,0.1c0,0-0.1,0.1-0.1,0.1c0,0,0,0.1-0.1,0.2c0,0,0,0.1,0,0.1
			c0,0.1,0,0.1,0,0.2c0,0,0,0.1,0,0.1l-0.3,72.2L40.2,56.9c-0.4-0.2-0.8-0.2-1.1,0L4.9,77.1c0,0-0.1,0.1-0.1,0.1
			c0,0-0.1,0.1-0.1,0.1c0,0-0.1,0.1-0.1,0.1c0,0-0.1,0.1-0.1,0.1c0,0,0,0.1-0.1,0.2c0,0,0,0.1,0,0.1c0,0.1,0,0.1,0,0.2
			c0,0,0,0.1,0,0.1L3.5,270.9c0,0.4,0.2,0.8,0.6,1l167.6,97.3c0,0,0,0,0,0c0,0,0,0,0,0c0,0,0.1,0,0.1,0c0.1,0.1,0.3,0.1,0.5,0.1
			c0.2,0,0.4,0,0.6-0.1l33.5-19.3c0.3-0.2,0.6-0.6,0.6-1v-73.1l63.1,36.6c0,0,0,0,0,0c0,0,0,0,0,0c0,0,0,0,0.1,0
			c0.2,0.1,0.3,0.1,0.5,0.1c0.2,0,0.3,0,0.5-0.1c0,0,0.1,0,0.1,0c0,0,0,0,0,0c0,0,0,0,0,0l33.5-19.3c0.3-0.2,0.6-0.6,0.6-1v-193v0
			C305.1,99.1,305.1,99,305.1,99z M302.8,101v190.4l-31.3,18.1l0.2-76.1l0.3-114.9v0L302.8,101L302.8,101z M204.6,274.5v73.7
			l-31.3,18.1l0.3-109.8l0-1.3l0-1.3l0.1-29l0-6.2l0-1.3l0-1.3v0l0.1-37.2l0-1.3l0-1.3l0-1.1v0l30.8-17.5v0v36.5v1.3v1.3v37.2v0v1.3
			v1.3v35.3v1.3V274.5z M102.3,96.1l1.1,0.7l1.1,0.7l30.9,18.2l1.1,0.7l1.1,0.7l0,0l31.7,18.7l1.1,0.7l1.1,0.7l31.9,18.8l-13.2,7.5
			l-17.5,10l-1.1-0.6l-1.1-0.6l-1.1-0.6l-32-18.5l0,0l-1.1-0.6l-1.1-0.6l-30.9-17.8l-1.1-0.6l-1.1-0.6L7.7,78.1l31.9-18.9
			L102.3,96.1z M301.7,99.1l-11.5,6.5l-19.3,11l-165-95.3l31.9-18.9L301.7,99.1z M6.6,80L6.6,80l63.3,36.5l1.1,0.6l1.1,0.6l1.1,0.6
			l29,16.7l1.1,0.6l1.1,0.6l30.9,17.8l1.1,0.6l1.1,0.6l0,0l32,18.5l1.1,0.6l0,0l1,0.6l0,0v0l0,0.9l0,0.2l0,1.3l-0.1,37.2v0l0,1.3
			l0,1.3l0,8.1l-0.1,27.2l0,1.3l0,1.3l-0.1,33.8l0,1.3l0,1l0,1.3l-0.2,73.7l-165.3-96L6.6,80z M234,251.2l-27.2-15.8v-37.1
			l27.2,15.9L234,251.2z M206.8,195.6v-39.8v0c0,0,0-0.1,0-0.1c0,0,0-0.1,0-0.1c0,0,0-0.1-0.1-0.1c0,0,0-0.1-0.1-0.1
			c0,0-0.1-0.1-0.1-0.1c0,0-0.1-0.1-0.1-0.1c0,0-0.1-0.1-0.1-0.1c0,0-0.1-0.1-0.1-0.1l0,0c0,0,0,0,0,0c0,0,0,0,0,0l-34.7-20.5
			l-0.1-32.3l62.4,37l0.1,72.3L206.8,195.6z M169.3,133.1l-31.7-18.7l0.2-32.3l31.4,18.6L169.3,133.1z M206.8,238l27.8,16.2
			c0.2,0.1,0.4,0.2,0.6,0.2c0.1,0,0.2,0,0.3,0c0,0,0.1,0,0.1,0c0.1,0,0.1,0,0.2-0.1c0.3-0.2,0.6-0.6,0.6-1l0-0.6l0-1.3l0-35.9l0-1.3
			l0-1.3l-0.1-74.3c0-0.4-0.2-0.8-0.5-1l-64.1-38l-1.1-0.7l-1.1-0.7l-30.4-18l-1.1-0.6l-0.5-0.3c-0.3-0.2-0.8-0.2-1.1,0
			c-0.1,0-0.1,0.1-0.1,0.1c0,0-0.1,0.1-0.1,0.1c0,0-0.1,0.1-0.1,0.1c0,0,0,0.1-0.1,0.1c0,0.1-0.1,0.1-0.1,0.2c0,0,0,0.1,0,0.1
			c0,0.1,0,0.2,0,0.3l-0.2,32.9l-30.9-18.2l0.3-71.6v0l51.8,29.9l11.5,6.6l1.1,0.6l1.1,0.6l1.1,0.6l98.5,56.9l-0.3,113l0,0.7l0,1.3
			l0,1l0,1.3l-0.2,73.7l0,0l-62.5-36.3V238z"/>
		<path fill="#32CB87" d="M138,308l0-35.9l0-1.3l0-1.3l0-33.8l0-1.3l0-1.3l0-35.4l0-1.3l0-0.7l0-0.5c0,0,0,0,0,0
			c0-0.2-0.1-0.4-0.2-0.6c-0.1-0.1-0.2-0.2-0.3-0.3l-0.1,0l-0.6-0.3l-0.5-0.3l-1.1-0.7l-30.9-18.3l-1.1-0.7l-1.1-0.7l-28.7-17
			l-1.1-0.7L71,155l-30.4-18l-1.1-0.6L39,136c-0.3-0.2-0.8-0.2-1.1,0c-0.1,0-0.1,0.1-0.1,0.1c0,0-0.1,0.1-0.1,0.1
			c0,0-0.1,0.1-0.1,0.1c0,0,0,0.1-0.1,0.1c0,0.1-0.1,0.1-0.1,0.2c0,0,0,0.1,0,0.1c0,0.1,0,0.2,0,0.3l-0.6,115.3c0,0,0,0,0,0
			c0,0.1,0,0.1,0,0.2c0,0,0,0.1,0,0.1c0,0.1,0,0.1,0.1,0.2c0,0,0,0.1,0,0.1c0.1,0.2,0.2,0.3,0.4,0.4l99,57.6
			c0.2,0.1,0.4,0.2,0.6,0.2c0.1,0,0.2,0,0.3,0c0,0,0.1,0,0.1,0c0.1,0,0.1,0,0.2-0.1c0.3-0.2,0.6-0.6,0.6-1l0-0.6L138,308z
			 M101.9,175.9l-0.2,38.2c0,0.4,0.2,0.8,0.6,1l33.4,19.4l0,33.8l-62.3-36.4l-0.2-73L101.9,175.9z M135,195.5L135,195.5
			c0,0.1,0,0.1,0,0.2c0,0,0,0,0,0.1c0.1,0.3,0.3,0.5,0.5,0.7l0.1,0l0,35.4L104,213.5l0.2-36.3L135,195.5z M135.8,308l-46.1-26.8
			l-49.6-28.9l32.2-18.5l63.4,37L135.8,308z M71.2,231.9L39,250.4l0.5-111.4L71,157.6L71.2,231.9z"/>
	</g>
</g>
<g id="Compatible" display="none">
	<path display="inline" fill="none" d="M206.3,154.9c0,0,0.1,0.1,0.1,0.1c0,0,0.1,0,0.1,0.1c0,0,0.1,0.1,0.1,0.1c0,0,0,0.1,0.1,0.1
		c0,0,0,0.1,0.1,0.2c0,0,0,0.1,0,0.1c0,0.1,0,0.1,0,0.2c0,0,0,0.1,0,0.1v0v39.8l27.2,15.9l-0.1-72.3L206,122.6l-27.3,15.9
		L206.3,154.9z"/>
	<path display="inline" fill="none" d="M101.8,214.1l0.2-38.2l-28.7-17l0.2,73l62.3,36.4l0-33.8l-33.4-19.4
		C102,214.9,101.8,214.5,101.8,214.1z"/>
	<g display="inline">
		<polygon fill="#B0F2DC" points="272.1,118.5 271.8,233.4 271.6,309.5 302.8,291.5 302.8,101 		"/>
		<polygon fill="#B0F2DC" points="173.8,175.3 173.8,176.4 173.8,177.7 173.8,178.9 173.7,216.1 173.7,216.1 173.7,217.4 
			173.7,218.7 173.7,224.9 173.6,253.9 173.6,255.2 173.6,256.5 173.3,366.3 204.6,348.2 204.6,274.5 204.6,273.2 204.6,271.9 
			204.6,236.7 204.6,235.4 204.6,234.1 204.6,234.1 204.6,196.9 204.6,195.6 204.6,194.3 204.6,157.8 199.2,160.9 		"/>
		<polygon fill="#B0F2DC" points="39.6,138.9 39,250.4 71.2,231.9 71,157.6 		"/>
		<polygon fill="#B0F2DC" points="173.2,101.8 172.1,102.5 171.5,102.9 170.4,103.5 169.3,104.2 145.5,118.7 145.5,118.8 
			169.3,133.6 170.5,134.3 171.6,135 175.8,137.6 176.5,137.2 203.8,121.3 204.7,120.8 204.7,120.5 204.7,119.2 204.9,82.4 
			174.2,101.2 		"/>
	</g>
	<g display="inline">
		<path fill="#32CB87" d="M305.1,99c0,0,0-0.1,0-0.1c0,0,0-0.1-0.1-0.1c0,0,0-0.1-0.1-0.1c0,0-0.1-0.1-0.1-0.1c0,0-0.1-0.1-0.1-0.1
			c0,0-0.1-0.1-0.1-0.1c0,0-0.1-0.1-0.1-0.1l0,0c0,0,0,0,0,0c0,0,0,0,0,0l-166.1-98c-0.4-0.2-0.8-0.2-1.1,0l-34.2,20.2
			c0,0-0.1,0.1-0.1,0.1c0,0-0.1,0.1-0.1,0.1c0,0-0.1,0.1-0.1,0.1c0,0-0.1,0.1-0.1,0.1c0,0,0,0.1-0.1,0.2c0,0,0,0.1,0,0.1
			c0,0.1,0,0.1,0,0.2c0,0,0,0.1,0,0.1L102.3,94L40.2,56.9c-0.4-0.2-0.8-0.2-1.1,0L4.9,77.1c0,0-0.1,0.1-0.1,0.1c0,0-0.1,0.1-0.1,0.1
			c0,0-0.1,0.1-0.1,0.1c0,0-0.1,0.1-0.1,0.1c0,0,0,0.1-0.1,0.2c0,0,0,0.1,0,0.1c0,0.1,0,0.1,0,0.2c0,0,0,0.1,0,0.1L3.5,270.9
			c0,0.4,0.2,0.8,0.6,1l167.6,97.3c0,0,0,0,0,0c0,0,0,0,0,0c0,0,0.1,0,0.1,0c0.1,0.1,0.3,0.1,0.5,0.1c0.2,0,0.4,0,0.6-0.1l33.5-19.3
			c0.3-0.2,0.6-0.6,0.6-1v-73.1l63.1,36.6c0,0,0,0,0,0c0,0,0,0,0,0c0,0,0,0,0.1,0c0.2,0.1,0.3,0.1,0.5,0.1c0.2,0,0.3,0,0.5-0.1
			c0,0,0.1,0,0.1,0c0,0,0,0,0,0c0,0,0,0,0,0l33.5-19.3c0.3-0.2,0.6-0.6,0.6-1v-193v0C305.1,99.1,305.1,99,305.1,99z M302.8,291.5
			l-31.3,18.1l0.2-76.1l0.3-114.9l30.8-17.5V291.5z M204.6,274.5v73.7l-31.3,18.1l0.3-109.8l0-1.3l0-1.3l0.1-29l0-6.2l0-1.3l0-1.3v0
			l0.1-37.2l0-1.3l0-1.3l0-1.1l25.3-14.4l5.4-3.1v36.5v1.3v1.3v37.2v0v1.3v1.3v35.3v1.3V274.5z M7.7,78.1l31.9-18.9l62.6,37.4
			l1.1,0.7l1.1,0.7l1.5,0.9c0.4,0.2,0.8,0.2,1.1,0l28.4-17l1.1-0.7l0.8-0.5l1.1-0.7l31.7-19l0,0l0.5-0.3c0.2-0.1,0.3-0.3,0.4-0.4
			c0.1-0.2,0.1-0.3,0.1-0.5c0,0,0,0,0,0c0-0.1,0-0.2,0-0.3c0,0,0,0,0,0c0-0.1-0.1-0.2-0.1-0.3c0,0,0,0,0-0.1c0-0.1-0.1-0.1-0.1-0.2
			c0,0-0.1,0-0.1-0.1c0,0-0.1-0.1-0.1-0.1l-64.9-37.5l0,0l31.9-18.9l163.8,96.7l-11.5,6.5l-19.3,11l0,0l0,0l-46.8-27l-17.5-10.1
			c0,0,0,0,0,0c0,0,0,0,0,0c0,0,0,0,0,0c0,0-0.1,0-0.1,0c-0.1,0-0.1-0.1-0.2-0.1c0,0-0.1,0-0.1,0c-0.3,0-0.5,0-0.8,0.1l-0.5,0.3
			l-1.1,0.7l-31.8,19.5l-0.6,0.4l-0.5,0.3l-0.6,0.4l-0.4,0.3l-0.7,0.4l-26.5,16.2c-0.1,0.1-0.2,0.1-0.2,0.2c0,0,0,0,0,0.1
			c0,0.1-0.1,0.1-0.1,0.2c0,0,0,0.1,0,0.1c0,0.1,0,0.1-0.1,0.2c0,0,0,0.1,0,0.1c0,0.1,0,0.1,0,0.2c0,0,0,0,0,0s0,0,0,0
			c0,0,0,0.1,0,0.1c0,0.1,0,0.1,0,0.2c0,0,0,0.1,0,0.1c0,0,0,0.1,0.1,0.1c0,0,0.1,0.1,0.1,0.1c0,0,0.1,0.1,0.1,0.1
			c0,0,0.1,0.1,0.1,0.1c0,0,0.1,0.1,0.1,0.1l26.6,16.5l1.1,0.7l1.1,0.7l3.6,2.2c0.2,0.1,0.4,0.2,0.6,0.2c0.2,0,0.4-0.1,0.6-0.2
			l0.2-0.1l27,16.1l0,0l-16,9.1l-14.7,8.4l-1.1-0.6l-1.1-0.6l-1.1-0.6l-32-18.5l0,0l-1.1-0.6l-1.1-0.6l-30.9-17.8l-1.1-0.6l-1.1-0.6
			l-26.5-15.3L7.7,78.1L7.7,78.1z M104.8,23.2L168,59.8l-61.4,36.8l-2.1-1.2L104.8,23.2z M6.6,80l31.7,18.3l31.5,18.2l1.1,0.6
			l1.1,0.6l1.1,0.6l29,16.7l1.1,0.6l1.1,0.6l30.9,17.8l1.1,0.6l1.1,0.6l0,0l32,18.5l1.1,0.6l0,0l1,0.6l0,0l0,0.9l0,0.2l0,1.3
			l-0.1,37.2v0l0,1.3l0,1.3l0,8.1l-0.1,27.2l0,1.3l0,1.3l-0.1,33.8l0,1.3l0,1l0,1.3l-0.2,73.7l-165.3-96L6.6,80z M234,251.2
			l-27.2-15.8v-37.1l27.2,15.9L234,251.2z M206.8,195.6v-39.8v0c0,0,0-0.1,0-0.1c0-0.1,0-0.1,0-0.2c0,0,0-0.1,0-0.1
			c0-0.1,0-0.1-0.1-0.2c0,0,0-0.1-0.1-0.1c0,0-0.1-0.1-0.1-0.1c0,0-0.1,0-0.1-0.1c0,0-0.1-0.1-0.1-0.1l-27.6-16.4l27.3-15.9
			l27.9,16.6l0.1,72.3L206.8,195.6z M204.7,119.2l0,1.3l0,0.2l-0.9,0.5l-27.3,15.9l-0.7,0.4l-4.2-2.6l-1.1-0.7l-1.1-0.7l-23.9-14.8
			l0,0l23.7-14.5l1.1-0.7l1.1-0.7l0.6-0.4l1.1-0.7l1.1-0.7l30.7-18.8L204.7,119.2z M206.8,238l27.8,16.2c0.2,0.1,0.4,0.2,0.6,0.2
			c0.1,0,0.2,0,0.3,0c0,0,0.1,0,0.1,0c0.1,0,0.1,0,0.2-0.1c0.3-0.2,0.6-0.6,0.6-1l0-0.6l0-1.3l0-35.9l0-1.3l0-1.3l-0.1-74.3
			c0-0.4-0.2-0.8-0.5-1l-28.7-17l0.2-38.3l62.7,36.2l-0.3,113l0,0.7l0,1.3l0,1l0,1.3l-0.2,73.7l0,0l-62.5-36.3V238z"/>
		<path fill="#32CB87" d="M138,308l0-35.9l0-1.3l0-1.3l0-33.8l0-1.3l0-1.3l0-35.4l0-1.3l0-0.7l0-0.5c0,0,0,0,0,0
			c0-0.2-0.1-0.4-0.2-0.6c-0.1-0.1-0.2-0.2-0.3-0.3l-0.1,0l-0.6-0.3l-0.5-0.3l-1.1-0.7l-30.9-18.3l-1.1-0.7l-1.1-0.7l-28.7-17
			l-1.1-0.7L71,155l-30.4-18l-1.1-0.6L39,136c-0.3-0.2-0.8-0.2-1.1,0c-0.1,0-0.1,0.1-0.1,0.1c0,0-0.1,0.1-0.1,0.1
			c0,0-0.1,0.1-0.1,0.1c0,0,0,0.1-0.1,0.1c0,0.1-0.1,0.1-0.1,0.2c0,0,0,0.1,0,0.1c0,0.1,0,0.2,0,0.3l-0.6,115.3c0,0,0,0,0,0
			c0,0.1,0,0.1,0,0.2c0,0,0,0.1,0,0.1c0,0.1,0,0.1,0.1,0.2c0,0,0,0.1,0,0.1c0.1,0.2,0.2,0.3,0.4,0.4l99,57.6
			c0.2,0.1,0.4,0.2,0.6,0.2c0.1,0,0.2,0,0.3,0c0,0,0.1,0,0.1,0c0.1,0,0.1,0,0.2-0.1c0.3-0.2,0.6-0.6,0.6-1l0-0.6L138,308z
			 M101.9,175.9l-0.2,38.2c0,0.4,0.2,0.8,0.6,1l33.4,19.4l0,33.8l-62.3-36.4l-0.2-73L101.9,175.9z M135,195.5L135,195.5
			c0,0.1,0,0.1,0,0.2c0,0,0,0,0,0.1c0.1,0.3,0.3,0.5,0.5,0.7l0.1,0l0,35.4L104,213.5l0.2-36.3L135,195.5z M135.8,308l-46.1-26.8
			l-49.6-28.9l32.2-18.5l63.4,37L135.8,308z M71.2,231.9L39,250.4l0.5-111.4L71,157.6L71.2,231.9z"/>
	</g>
</g>
<g id="Secure" display="none">
	<polygon display="inline" fill="none" points="244.7,62.8 244.7,61.9 243.8,62.3 	"/>
	<path display="inline" fill="none" d="M135.7,234.5l-33.4-19.4c-0.3-0.2-0.6-0.6-0.6-1l0.2-38.2l-19.6-11.6l-9,5.2l0.2,62.4
		l55.6,32.5l6.7-3.9L135.7,234.5z"/>
	<path display="inline" fill="none" d="M173.2,103.1l-1.7,1l0.1,30.3l34.7,20.5c0,0,0,0,0,0c0,0,0,0,0,0l0,0c0,0,0.1,0.1,0.1,0.1
		c0,0,0.1,0.1,0.1,0.1c0,0,0.1,0.1,0.1,0.1c0,0,0.1,0.1,0.1,0.1c0,0,0,0.1,0.1,0.1c0,0,0,0.1,0.1,0.1c0,0,0,0.1,0,0.1
		c0,0,0,0.1,0,0.1v0v39.8l22.7,13.3l4.5-2.6l-0.1-67.1L173.2,103.1z"/>
	<polygon display="inline" fill="none" points="305.1,163.2 305.1,165.3 306.8,164.3 	"/>
	<g display="inline">
		<polygon fill="#B0F2DC" points="73.3,166.9 80.1,162.9 73.2,158.9 		"/>
		<polygon fill="#B0F2DC" points="4,172.4 4,171.9 3.5,172.1 		"/>
		<polygon fill="#B0F2DC" points="302.8,101 302.8,101 272.1,118.5 272.1,118.5 271.9,184.4 302.8,166.6 		"/>
		<polygon fill="#B0F2DC" points="271.8,233.4 271.6,309.5 302.8,291.5 302.8,206.6 271.8,224.6 		"/>
		<polygon fill="#B0F2DC" points="137.8,82.3 137.9,82.2 137.8,82.2 		"/>
		<polygon fill="#B0F2DC" points="145.6,119.1 169.3,133.1 169.3,105.4 		"/>
		<polygon fill="#B0F2DC" points="193.1,229.9 193.5,229.7 194.2,229.3 194.6,229 195.3,228.6 195.3,228.6 204.6,223.3 204.6,196.9 
			204.6,195.6 204.6,194.3 204.6,157.8 204.6,157.8 173.8,175.3 173.8,175.3 173.8,176.4 173.8,177.7 173.8,178.9 173.7,216.1 
			173.7,216.1 173.7,217.4 173.7,218.7 173.7,224.9 173.7,238.6 173.7,239.9 173.7,240.5 174.2,240.8 		"/>
		<path fill="#B0F2DC" d="M196.4,268.4l-1.1,0.6L174.8,281c0,0,0,0,0,0c0,0,0,0,0,0c-0.2,0.1-0.4,0.2-0.6,0.2c-0.1,0-0.2,0-0.3,0
			c0,0-0.1,0-0.1,0c-0.1,0-0.1,0-0.2-0.1l-0.1,0l-0.2,85.3l31.3-18.1v-73.7v-1.3v-1.3v-8.3l-7.1,4.1L196.4,268.4z"/>
		<polygon fill="#B0F2DC" points="71,169.5 71,168.2 71,157.6 50.2,145.2 49.1,144.5 48,143.9 39.6,138.9 39.5,148.8 39.5,150.1 
			39.5,151.4 39.4,186.6 39.4,187.9 39.3,189.2 39,250.4 71.2,231.9 71,170.8 		"/>
		<polygon fill="#B0F2DC" points="305.1,167.8 304,168.5 302.8,169.1 271.9,187 271.9,187 270.8,187.6 269.7,188.3 269.7,188.3 
			236.2,207.6 235.1,208.2 234,208.9 231.8,210.2 230.6,210.8 229.5,211.5 206.8,224.6 205.7,225.2 204.6,225.9 197.5,229.9 
			197.5,229.9 196.9,230.3 196.4,230.6 195.7,231 195.3,231.2 194.6,231.6 175.3,242.8 175.3,254.9 175.3,256.2 175.3,257.5 
			175.3,276.3 175.3,277.6 175.3,278.1 193,267.8 194.2,267.1 195.3,266.5 204.6,261.1 205.7,260.4 206.8,259.8 225.6,248.9 
			226.7,248.2 227,248.1 227.8,247.6 227.8,247.6 234,244 235.2,243.3 236.3,242.7 259.7,229.1 260.8,228.4 261.9,227.8 
			269.6,223.3 269.6,223.3 270.7,222.7 271.8,222 271.8,222 302.8,204 304,203.3 305.1,202.7 307.8,201.1 307.8,166.3 		"/>
	</g>
	<g display="inline">
		<path fill="#32CB87" d="M138,308l0-7.6l0-1.3l0-1.3l0-25.7l0-1.3l0-1.3l0-7.8l0-1.3l0-1.3l0-23.4l0-1.3l0-1.3l0-35.4l0-1.3l0-0.7
			l0-0.5c0,0,0,0,0,0c0-0.2-0.1-0.4-0.2-0.6c-0.1-0.1-0.2-0.2-0.3-0.3l-0.1,0l-0.6-0.3l-0.5-0.3l-1.1-0.7l-30.9-18.3l-1.1-0.7
			l-1.1-0.7L84.5,163l-1.1-0.7l-1.1-0.7l-9.1-5.4l-1.1-0.7L71,155l-18.6-11l-1.1-0.7l-1.1-0.7l-9.6-5.7l-1.1-0.6L39,136
			c-0.3-0.2-0.8-0.2-1.1,0c-0.1,0-0.1,0.1-0.1,0.1c0,0-0.1,0.1-0.1,0.1c0,0-0.1,0.1-0.1,0.1c0,0,0,0.1-0.1,0.1
			c0,0.1-0.1,0.1-0.1,0.2c0,0,0,0.1,0,0.1c0,0.1,0,0.2,0,0.3l-0.1,13.1l0,1.3l0,1.3l-0.2,35.3l0,1.3l0,1.3l-0.3,61.8c0,0,0,0,0,0
			c0,0.1,0,0.1,0,0.2c0,0,0,0.1,0,0.1c0,0.1,0,0.1,0.1,0.2c0,0,0,0.1,0,0.1c0.1,0.2,0.2,0.3,0.4,0.4l55.2,32.1l1.1,0.6l1.1,0.6
			l31.2,18.1l1.1,0.6l1.1,0.6l8.2,4.7c0.2,0.1,0.4,0.2,0.6,0.2c0.1,0,0.2,0,0.3,0c0,0,0.1,0,0.1,0c0.1,0,0.1,0,0.2-0.1
			c0.3-0.2,0.6-0.6,0.6-1l0-0.6L138,308z M94.8,284.1l-5.1-3l-49.6-28.9l32.2-18.5l54.5,31.8l1.1,0.6l1.1,0.6l6.7,3.9l0,28.3l0,1.3
			l0,1.3l0,6.2l-5.4-3.1l-1.1-0.6l-1.1-0.6l-31.2-18.1l-1.1-0.6L94.8,284.1z M49.1,144.5l1.1,0.7L71,157.6l0,10.7l0,1.3l0,1.3
			l0.2,61.1L39,250.4l0.3-61.1l0-1.3l0-1.3l0.2-35.3l0-1.3l0-1.3l0-9.9l8.4,5L49.1,144.5z M80.1,162.9l-6.8,4l0-8L80.1,162.9z
			 M135,195.5L135,195.5c0,0.1,0,0.1,0,0.2c0,0,0,0,0,0.1c0,0.1,0.1,0.2,0.2,0.3c0,0,0,0,0,0c0,0,0,0,0.1,0.1c0,0,0,0,0,0
			c0.1,0.1,0.2,0.2,0.3,0.3l0.1,0l0,35.4L104,213.5l0.2-36.3L135,195.5z M102.3,215.1l33.4,19.4l0,26l-6.7,3.9l-55.6-32.5l-0.2-62.4
			l9-5.2l19.6,11.6l-0.2,38.2C101.8,214.5,102,214.9,102.3,215.1z M135.8,268.2l-4.5-2.6l4.5-2.6L135.8,268.2z"/>
		<path fill="#32CB87" d="M310,164.2C310,164.2,310,164.1,310,164.2c0-0.2-0.1-0.3-0.2-0.4c0,0,0,0,0-0.1c-0.1-0.1-0.1-0.2-0.2-0.2
			c0,0,0,0,0,0l-3.2-2.1c-0.4-0.3-0.9-0.2-1.2,0V99.1v0c0,0,0-0.1,0-0.1c0,0,0-0.1,0-0.1c0,0,0-0.1-0.1-0.1c0,0,0-0.1-0.1-0.1
			c0,0-0.1-0.1-0.1-0.1c0,0-0.1-0.1-0.1-0.1c0,0-0.1-0.1-0.1-0.1c0,0-0.1-0.1-0.1-0.1l0,0c0,0,0,0,0,0c0,0,0,0,0,0l-57.6-34v-4.2
			c0,0,0,0,0,0c0-0.1,0-0.3-0.1-0.4c0,0,0,0,0-0.1c0-0.1-0.1-0.2-0.2-0.3c0,0-0.1-0.1-0.1-0.1c0,0-0.1-0.1-0.1-0.1c0,0,0,0,0,0
			l-33.5-19.3c-0.3-0.2-0.8-0.2-1.1,0l-3.2,1.9l-70-41.3c-0.4-0.2-0.8-0.2-1.1,0l-34.2,20.2c0,0-0.1,0.1-0.1,0.1
			c0,0-0.1,0.1-0.1,0.1c0,0-0.1,0.1-0.1,0.1c0,0-0.1,0.1-0.1,0.1c0,0,0,0.1-0.1,0.2c0,0,0,0.1,0,0.1c0,0.1,0,0.1,0,0.2
			c0,0,0,0.1,0,0.1l-0.3,72.2L40.2,56.9c-0.4-0.2-0.8-0.2-1.1,0L4.9,77.1c0,0-0.1,0.1-0.1,0.1c0,0-0.1,0.1-0.1,0.1
			c0,0-0.1,0.1-0.1,0.1c0,0-0.1,0.1-0.1,0.1c0,0,0,0.1-0.1,0.2c0,0,0,0.1,0,0.1c0,0.1,0,0.1,0,0.2c0,0,0,0.1,0,0.1L4,169.3L1.1,171
			c-0.2,0-0.4,0.1-0.6,0.2c-0.3,0.2-0.6,0.6-0.6,1v0.2c0,0,0,0,0,0v37.9c0,0.4,0.2,0.8,0.6,1c0.2,0.1,0.3,0.1,0.5,0.1l2.7,1.7
			l-0.3,58c0,0.4,0.2,0.8,0.6,1l52.7,30.6l0.2,5c0,0.4,0.2,0.7,0.5,0.9L90,328.3c0.2,0.1,0.4,0.2,0.6,0.2c0.2,0,0.4,0,0.5-0.1
			c0.4-0.2,0.6-0.6,0.6-1v-0.2l3.8-2.2l76.1,44.2c0,0,0,0,0,0c0,0,0,0,0,0c0,0,0.1,0,0.1,0c0.1,0.1,0.3,0.1,0.5,0.1
			c0.2,0,0.4,0,0.6-0.1l33.5-19.3c0.3-0.2,0.6-0.6,0.6-1v-73.1l63.1,36.6c0,0,0,0,0,0c0,0,0,0,0,0c0,0,0,0,0.1,0
			c0.2,0.1,0.3,0.1,0.5,0.1c0.2,0,0.3,0,0.5-0.1c0,0,0.1,0,0.1,0c0,0,0,0,0,0c0,0,0,0,0,0l33.5-19.3c0.3-0.2,0.6-0.6,0.6-1v-86.9
			l4.4-2.5c0.3-0.2,0.6-0.6,0.6-1v-37.4C310,164.3,310,164.2,310,164.2z M302.8,291.5l-31.3,18.1l0.2-76.1l0-8.8l31-18V291.5z
			 M204.6,274.5v73.7l-31.3,18.1l0.2-85.3l0.1,0c0.1,0,0.1,0.1,0.2,0.1c0,0,0,0,0.1,0c0.1,0,0.2,0,0.3,0c0.2,0,0.4-0.1,0.6-0.2
			c0,0,0,0,0,0c0,0,0,0,0,0l20.5-11.9l1.1-0.6l1.1-0.6l7.1-4.1v8.3v1.3V274.5z M96.7,323l-1.1-0.6l-3.8-2.2v-19.9
			c0-0.4-0.2-0.8-0.6-1l-9.1-5.3l-1.1-0.6l-1.1-0.6L57.7,280c-0.4-0.2-0.8-0.2-1.1,0c-0.3,0.2-0.6,0.6-0.5,1l0.7,18.8L5.8,270.3
			l0.2-56l17.4,10.6c0.2,0.1,0.4,0.2,0.6,0.2c0.2,0,0.4,0,0.5-0.1c0.4-0.2,0.6-0.6,0.6-1l0.4-26.6l0-1.3l0-1.3l0.1-9.2
			c0-0.4-0.2-0.8-0.6-1L6.2,173.7l0-3.1l0-1.3l0-1.3l0.4-88v0l63.3,36.5l1.1,0.6l1.1,0.6l1.1,0.6l4,2.3v0v6.3v1.3v1.3V145
			c0,0.4,0.2,0.8,0.6,1l15.8,9.1l1.1,0.6l1.1,0.6l6.2,3.6l1.1,0.6l1.1,0.6l7,4c0.2,0.1,0.4,0.1,0.6,0.1c0.2,0,0.4-0.1,0.6-0.2
			c0.3-0.2,0.6-0.6,0.5-1l-0.7-17.5l0-1.3l0-1.3l-0.1-3.5v0l3.1,1.8l1.1,0.6l1.1,0.6l17.9,10.3l1.1,0.6l1.1,0.6l0,0l32,18.5l1.1,0.6
			l0,0l1,0.6l0,0v0l0,0.9l0,0.2l0,1.3l-0.1,37.2v0l0,1.3l0,1.3l0,8.1l0,13.7l-19.5-11.9c-0.3-0.2-0.8-0.2-1.1,0
			c-0.4,0.2-0.6,0.6-0.6,1l-0.2,12.1l0,1.3l0,1.3l-0.1,9.5l0,1.3l0,1.3l-0.2,11.7c0,0.4,0.2,0.8,0.6,1l20.2,11.5l0.9,0.5l0,0.2
			l0,1.3l0,7.8l0,1.3l0,1l0,1.3l-0.2,73.7l-73.3-42.6L96.7,323z M91.7,324.6v-1.8l1.6,0.9L91.7,324.6z M59.1,302.5l-0.1-1.3
			l-0.7-18.2l19.3,11.1l1.1,0.6l1.1,0.6l9.7,5.6v17.9v1.3v1.3v2.7v1.2l-30.3-18.6l0-0.8l0-1.3l0-0.9L59.1,302.5z M2.4,209.4
			l-0.1-0.1v-1.1V174l1.7,1l1.1,0.6l1.1,0.6l17.2,9.9l-0.1,9.9l0,1.3l0,1.3L22.9,222L6,211.7L4.9,211l-1.1-0.7l-0.4-0.2L2.4,209.4z
			 M4,171.9l0,0.5l-0.5-0.3L4,171.9z M102.3,96.1l1.1,0.7l1.1,0.7l3.5,2.1l-3.5,2l-1.1,0.6l-1.1,0.6L77.7,117
			c-0.1,0-0.1,0.1-0.2,0.1c0,0,0,0-0.1,0c-0.1,0.1-0.2,0.3-0.3,0.5c0,0,0,0.1,0,0.1c0,0.1,0,0.1,0,0.2c0,0,0,0,0,0c0,0,0,0,0,0v0.2
			L7.7,78.1l31.9-18.9L102.3,96.1z M206.3,42.8L174.7,61l-68.8-39.7l31.9-18.9L206.3,42.8z M212.3,41.9l31.3,18.1l-1.9,1.1l-1.1,0.6
			l-1.1,0.6l-31.2,18l0,0l-1.1,0.6l-1.1,0.6l0,0l-32.8,18.9l-1.1,0.6l-0.6,0.3l-0.5,0.3l-0.6,0.4l-1.1,0.6l-25.9,15l-1.1,0.6
			l-1.1,0.6l-3.5,2l0,0l-0.7,0.4l-0.4,0.2l-0.7,0.4l-0.4,0.2l-0.7,0.4l-23.9,13.8l0,0l-6.4-3.9l-1.1-0.7l-1.1-0.7L88.6,123l-1.1-0.7
			l-1.1-0.7l-6-3.7h0l21.8-12.6l1.1-0.6l1.1-0.6l5.7-3.3l1.1-0.6l1.1-0.6l23.1-13.4l1.1-0.6l1.1-0.6l0,0l2.3-1.3l1.1-0.6l1.1-0.6
			l26.8-15.5l1.1-0.6l1.1-0.6l3.3-1.9h0l1.1-0.6l1.1-0.6l0,0l31.5-18.2l1.1-0.6l1.1-0.6L212.3,41.9z M290.3,105.6l-19.3,11
			l-60.5-34.9l31.2-18l3.1,1.8l1.1,0.7l1.1,0.7l54.8,32.3L290.3,105.6z M234,251.2l-4-2.3l4-2.3L234,251.2z M302.8,101v65.5
			l-30.9,17.9l0.2-65.9v0L302.8,101L302.8,101z M195.3,228.6l-0.7,0.4l-0.5,0.3l-0.7,0.4l-0.4,0.3l-18.9,10.9l-0.5-0.3l0-0.6l0-1.3
			l0-13.7l0-6.2l0-1.3l0-1.3v0l0.1-37.2l0-1.3l0-1.3l0-1.1v0l30.8-17.5v0v36.5v1.3v1.3v26.4L195.3,228.6L195.3,228.6z M172.5,277.8
			l-1.1-0.6h0L151.9,266l0.2-12.4l0-1.3l0-1.3l0.1-6.9l0-1.3l0-1.3l0.2-11.4l17.4,10.6l1.1,0.7l0.5,0.3h0l0.6,0.4l0.5,0.3l0.5,0.3
			v10.9v1.3v1.3v21.4v0.5l-0.4-0.2L172.5,277.8z M109.7,139.5l0.2,6.1l0,1.3l0,1.3l0.5,14.3l-6.4-3.7l-1.1-0.6l-1.1-0.6l-4-2.3
			l-1.1-0.6l-1.1-0.6l-16.4-9.5v-16V127v-1.3V122v0v-1.3v-0.8l4.9,3l1.1,0.7l0,0l1.1,0.7l14.9,9.1l0.8,0.5l1.1,0.7l1.1,0.7l5.3,3.3
			L109.7,139.5L109.7,139.5z M137.6,123.7l5.7-3.3l26,15.3l1.1,0.7l1.1,0.7l31.9,18.8l-13.2,7.5l-17.5,10l-1.1-0.6l-1.1-0.6
			l-1.1-0.6l-32-18.5l0,0l-1.1-0.6l-1.1-0.6l-15.7-9.1l-1.1-0.6l-1.1-0.6l-5.1-3l22.5-13l0.7-0.4l0.4-0.2l0.7-0.4l0.4-0.2
			L137.6,123.7L137.6,123.7z M169.3,133.1l-23.8-14l23.7-13.7L169.3,133.1z M206.8,198.2l20.5,12L206.8,222V198.2z M206.8,195.6
			v-39.8v0c0,0,0-0.1,0-0.1c0,0,0-0.1,0-0.1c0,0,0-0.1-0.1-0.1c0,0,0-0.1-0.1-0.1c0,0-0.1-0.1-0.1-0.1c0,0-0.1-0.1-0.1-0.1
			c0,0-0.1-0.1-0.1-0.1c0,0-0.1-0.1-0.1-0.1l0,0c0,0,0,0,0,0c0,0,0,0,0,0l-34.7-20.5l-0.1-30.3l1.7-1l60.7,36l0.1,67.1l-4.5,2.6
			L206.8,195.6z M236.1,138.5c0-0.4-0.2-0.8-0.5-1l-60.2-35.7l32.8-18.9l61.6,35.6l-0.2,67.2L236.2,205L236.1,138.5z M244.7,62.8
			l-0.8-0.5l0.8-0.5V62.8z M104.8,23.2L104.8,23.2l51.8,29.9l11.5,6.6l1.1,0.6l1.1,0.6l1.1,0.6l1.1,0.6l-1.1,0.6l-1.1,0.6l-1.1,0.6
			l-29,16.7l-1.1,0.6l-1.1,0.6l-0.1,0.1l0,0l-1.1,0.6l-1.1,0.6l-25.4,14.6l-5.7-3.4L104.8,23.2z M206.8,262.4l21-12.2l6.8,3.9
			c0.2,0.1,0.4,0.2,0.6,0.2c0.1,0,0.2,0,0.3,0c0,0,0.1,0,0.1,0c0.1,0,0.1,0,0.2-0.1c0.3-0.2,0.6-0.6,0.6-1l0-0.6l0-1.3l0-6
			l25.6-14.9l1.1-0.6l1.1-0.6l5.5-3.2l0,5.6l0,0.7l0,1.3l0,1l0,1.3l-0.2,73.7l0,0l-62.5-36.3V262.4z M302.8,204l-31,18h0l-1.1,0.7
			l-1.1,0.7l0,0l-7.7,4.5l-1.1,0.6l-1.1,0.6l-23.4,13.6l-1.1,0.6L234,244l-6.2,3.6l0,0l-0.8,0.5l-0.3,0.2l-1.1,0.6l-18.8,10.9
			l-1.1,0.6l-1.1,0.6l-9.3,5.4l-1.1,0.6l-1.1,0.6l-17.7,10.3v-0.5v-1.3v-18.8v-1.3v-1.3v-12.1l19.3-11.2l0.7-0.4l0.5-0.3l0.7-0.4
			l0.5-0.3l0.7-0.4l0,0l7.1-4.1l1.1-0.6l1.1-0.6l22.7-13.1l1.1-0.6l1.1-0.6l2.2-1.3l1.1-0.6l1.1-0.6l33.4-19.3l0,0l1.1-0.6l1.1-0.6
			l0,0l30.9-17.9l1.1-0.6l1.1-0.6l2.7-1.6v34.8l-2.7,1.6l-1.1,0.6L302.8,204z M306.8,164.3l-1.7,1v-2.1L306.8,164.3z"/>
	</g>
</g>
</svg>
