<?xml version="1.0" encoding="utf-8"?>
<!-- Generator: Adobe Illustrator 25.2.1, SVG Export Plug-In . SVG Version: 6.00 Build 0)  -->
<svg version="1.1" xmlns="http://www.w3.org/2000/svg" xmlns:xlink="http://www.w3.org/1999/xlink" x="0px" y="0px"
	 viewBox="0 0 420 337.4" enable-background="new 0 0 420 337.4" xml:space="preserve">
<g id="Grid" display="none" opacity="0.25">
	<g display="inline">
		<defs>
			<rect id="SVGID_1_" x="-188.1" y="-73.7" width="799" height="800"/>
		</defs>
		<clipPath id="SVGID_2_">
			<use xlink:href="#SVGID_1_"  overflow="visible"/>
		</clipPath>
		<g clip-path="url(#SVGID_2_)">
			
				<line fill="none" stroke="#000000" stroke-width="0.25" stroke-miterlimit="10" x1="-1137.6" y1="-966.2" x2="-1137.6" y2="1617.8"/>
			
				<line fill="none" stroke="#000000" stroke-width="0.25" stroke-miterlimit="10" x1="-1087.6" y1="-966.2" x2="-1087.6" y2="1617.8"/>
			
				<line fill="none" stroke="#000000" stroke-width="0.25" stroke-miterlimit="10" x1="-1037.6" y1="-966.2" x2="-1037.6" y2="1617.8"/>
			
				<line fill="none" stroke="#000000" stroke-width="0.25" stroke-miterlimit="10" x1="-987.6" y1="-966.2" x2="-987.6" y2="1617.8"/>
			
				<line fill="none" stroke="#000000" stroke-width="0.25" stroke-miterlimit="10" x1="-937.6" y1="-966.2" x2="-937.6" y2="1617.8"/>
			
				<line fill="none" stroke="#000000" stroke-width="0.25" stroke-miterlimit="10" x1="-887.6" y1="-966.2" x2="-887.6" y2="1617.8"/>
			
				<line fill="none" stroke="#000000" stroke-width="0.25" stroke-miterlimit="10" x1="-837.6" y1="-966.2" x2="-837.6" y2="1617.8"/>
			
				<line fill="none" stroke="#000000" stroke-width="0.25" stroke-miterlimit="10" x1="-787.6" y1="-966.2" x2="-787.6" y2="1617.8"/>
			
				<line fill="none" stroke="#000000" stroke-width="0.25" stroke-miterlimit="10" x1="-737.6" y1="-966.2" x2="-737.6" y2="1617.8"/>
			
				<line fill="none" stroke="#000000" stroke-width="0.25" stroke-miterlimit="10" x1="-687.6" y1="-966.2" x2="-687.6" y2="1617.8"/>
			
				<line fill="none" stroke="#000000" stroke-width="0.25" stroke-miterlimit="10" x1="-637.6" y1="-966.2" x2="-637.6" y2="1617.8"/>
			
				<line fill="none" stroke="#000000" stroke-width="0.25" stroke-miterlimit="10" x1="-587.6" y1="-966.2" x2="-587.6" y2="1617.8"/>
			
				<line fill="none" stroke="#000000" stroke-width="0.25" stroke-miterlimit="10" x1="-537.6" y1="-966.2" x2="-537.6" y2="1617.8"/>
			
				<line fill="none" stroke="#000000" stroke-width="0.25" stroke-miterlimit="10" x1="-487.6" y1="-966.2" x2="-487.6" y2="1617.8"/>
			
				<line fill="none" stroke="#000000" stroke-width="0.25" stroke-miterlimit="10" x1="-437.6" y1="-966.2" x2="-437.6" y2="1617.8"/>
			
				<line fill="none" stroke="#000000" stroke-width="0.25" stroke-miterlimit="10" x1="-387.6" y1="-966.2" x2="-387.6" y2="1617.8"/>
			
				<line fill="none" stroke="#000000" stroke-width="0.25" stroke-miterlimit="10" x1="-337.6" y1="-966.2" x2="-337.6" y2="1617.8"/>
			
				<line fill="none" stroke="#000000" stroke-width="0.25" stroke-miterlimit="10" x1="-287.6" y1="-966.2" x2="-287.6" y2="1617.8"/>
			
				<line fill="none" stroke="#000000" stroke-width="0.25" stroke-miterlimit="10" x1="-237.6" y1="-966.2" x2="-237.6" y2="1617.8"/>
			
				<line fill="none" stroke="#000000" stroke-width="0.25" stroke-miterlimit="10" x1="-187.6" y1="-966.2" x2="-187.6" y2="1617.8"/>
			
				<line fill="none" stroke="#000000" stroke-width="0.25" stroke-miterlimit="10" x1="-137.6" y1="-966.2" x2="-137.6" y2="1617.8"/>
			<line fill="none" stroke="#000000" stroke-width="0.25" stroke-miterlimit="10" x1="-87.6" y1="-966.2" x2="-87.6" y2="1617.8"/>
			<line fill="none" stroke="#000000" stroke-width="0.25" stroke-miterlimit="10" x1="-37.6" y1="-966.2" x2="-37.6" y2="1617.8"/>
			<line fill="none" stroke="#000000" stroke-width="0.25" stroke-miterlimit="10" x1="12.4" y1="-966.2" x2="12.4" y2="1617.8"/>
			<line fill="none" stroke="#000000" stroke-width="0.25" stroke-miterlimit="10" x1="62.4" y1="-966.2" x2="62.4" y2="1617.8"/>
			<line fill="none" stroke="#000000" stroke-width="0.25" stroke-miterlimit="10" x1="112.4" y1="-966.2" x2="112.4" y2="1617.8"/>
			<line fill="none" stroke="#000000" stroke-width="0.25" stroke-miterlimit="10" x1="162.4" y1="-966.2" x2="162.4" y2="1617.8"/>
			<line fill="none" stroke="#000000" stroke-width="0.25" stroke-miterlimit="10" x1="212.4" y1="-966.2" x2="212.4" y2="1617.8"/>
			<line fill="none" stroke="#000000" stroke-width="0.25" stroke-miterlimit="10" x1="262.4" y1="-966.2" x2="262.4" y2="1617.8"/>
			<line fill="none" stroke="#000000" stroke-width="0.25" stroke-miterlimit="10" x1="312.4" y1="-966.2" x2="312.4" y2="1617.8"/>
			<line fill="none" stroke="#000000" stroke-width="0.25" stroke-miterlimit="10" x1="362.4" y1="-966.2" x2="362.4" y2="1617.8"/>
			<line fill="none" stroke="#000000" stroke-width="0.25" stroke-miterlimit="10" x1="412.4" y1="-966.2" x2="412.4" y2="1617.8"/>
			<line fill="none" stroke="#000000" stroke-width="0.25" stroke-miterlimit="10" x1="462.4" y1="-966.2" x2="462.4" y2="1617.8"/>
			<line fill="none" stroke="#000000" stroke-width="0.25" stroke-miterlimit="10" x1="512.4" y1="-966.2" x2="512.4" y2="1617.8"/>
			<line fill="none" stroke="#000000" stroke-width="0.25" stroke-miterlimit="10" x1="562.4" y1="-966.2" x2="562.4" y2="1617.8"/>
			<line fill="none" stroke="#000000" stroke-width="0.25" stroke-miterlimit="10" x1="612.4" y1="-966.2" x2="612.4" y2="1617.8"/>
			<line fill="none" stroke="#000000" stroke-width="0.25" stroke-miterlimit="10" x1="662.4" y1="-966.2" x2="662.4" y2="1617.8"/>
			<line fill="none" stroke="#000000" stroke-width="0.25" stroke-miterlimit="10" x1="712.4" y1="-966.2" x2="712.4" y2="1617.8"/>
			<line fill="none" stroke="#000000" stroke-width="0.25" stroke-miterlimit="10" x1="762.4" y1="-966.2" x2="762.4" y2="1617.8"/>
			<line fill="none" stroke="#000000" stroke-width="0.25" stroke-miterlimit="10" x1="812.4" y1="-966.2" x2="812.4" y2="1617.8"/>
			<line fill="none" stroke="#000000" stroke-width="0.25" stroke-miterlimit="10" x1="862.4" y1="-966.2" x2="862.4" y2="1617.8"/>
			<line fill="none" stroke="#000000" stroke-width="0.25" stroke-miterlimit="10" x1="912.4" y1="-966.2" x2="912.4" y2="1617.8"/>
			<line fill="none" stroke="#000000" stroke-width="0.25" stroke-miterlimit="10" x1="962.4" y1="-966.2" x2="962.4" y2="1617.8"/>
			
				<line fill="none" stroke="#000000" stroke-width="0.25" stroke-miterlimit="10" x1="1012.4" y1="-966.2" x2="1012.4" y2="1617.8"/>
			
				<line fill="none" stroke="#000000" stroke-width="0.25" stroke-miterlimit="10" x1="1062.4" y1="-966.2" x2="1062.4" y2="1617.8"/>
			
				<line fill="none" stroke="#000000" stroke-width="0.25" stroke-miterlimit="10" x1="1112.4" y1="-966.2" x2="1112.4" y2="1617.8"/>
			
				<line fill="none" stroke="#000000" stroke-width="0.25" stroke-miterlimit="10" x1="1162.4" y1="-966.2" x2="1162.4" y2="1617.8"/>
			
				<line fill="none" stroke="#000000" stroke-width="0.25" stroke-miterlimit="10" x1="1212.4" y1="-966.2" x2="1212.4" y2="1617.8"/>
			
				<line fill="none" stroke="#000000" stroke-width="0.25" stroke-miterlimit="10" x1="1262.4" y1="-966.2" x2="1262.4" y2="1617.8"/>
			
				<line fill="none" stroke="#000000" stroke-width="0.25" stroke-miterlimit="10" x1="1312.4" y1="-966.2" x2="1312.4" y2="1617.8"/>
			
				<line fill="none" stroke="#000000" stroke-width="0.25" stroke-miterlimit="10" x1="1362.4" y1="-966.2" x2="1362.4" y2="1617.8"/>
			
				<line fill="none" stroke="#000000" stroke-width="0.25" stroke-miterlimit="10" x1="1412.4" y1="-966.2" x2="1412.4" y2="1617.8"/>
			
				<line fill="none" stroke="#000000" stroke-width="0.25" stroke-miterlimit="10" x1="1462.4" y1="-966.2" x2="1462.4" y2="1617.8"/>
			
				<line fill="none" stroke="#000000" stroke-width="0.25" stroke-miterlimit="10" x1="1512.4" y1="-966.2" x2="1512.4" y2="1617.8"/>
			
				<line fill="none" stroke="#000000" stroke-width="0.25" stroke-miterlimit="10" x1="1562.4" y1="-966.2" x2="1562.4" y2="1617.8"/>
		</g>
		<g clip-path="url(#SVGID_2_)">
			
				<line fill="none" stroke="#000000" stroke-width="0.25" stroke-miterlimit="10" x1="-1581.5" y1="848.9" x2="656.3" y2="2140.9"/>
			
				<line fill="none" stroke="#000000" stroke-width="0.25" stroke-miterlimit="10" x1="-1556.5" y1="805.6" x2="681.3" y2="2097.6"/>
			
				<line fill="none" stroke="#000000" stroke-width="0.25" stroke-miterlimit="10" x1="-1531.5" y1="762.3" x2="706.3" y2="2054.3"/>
			<line fill="none" stroke="#000000" stroke-width="0.25" stroke-miterlimit="10" x1="-1506.5" y1="719" x2="731.3" y2="2011"/>
			
				<line fill="none" stroke="#000000" stroke-width="0.25" stroke-miterlimit="10" x1="-1481.5" y1="675.7" x2="756.3" y2="1967.7"/>
			
				<line fill="none" stroke="#000000" stroke-width="0.25" stroke-miterlimit="10" x1="-1456.5" y1="632.4" x2="781.3" y2="1924.4"/>
			
				<line fill="none" stroke="#000000" stroke-width="0.25" stroke-miterlimit="10" x1="-1431.5" y1="589.1" x2="806.3" y2="1881.1"/>
			
				<line fill="none" stroke="#000000" stroke-width="0.25" stroke-miterlimit="10" x1="-1406.5" y1="545.8" x2="831.3" y2="1837.8"/>
			
				<line fill="none" stroke="#000000" stroke-width="0.25" stroke-miterlimit="10" x1="-1381.5" y1="502.5" x2="856.3" y2="1794.5"/>
			
				<line fill="none" stroke="#000000" stroke-width="0.25" stroke-miterlimit="10" x1="-1356.5" y1="459.2" x2="881.3" y2="1751.2"/>
			
				<line fill="none" stroke="#000000" stroke-width="0.25" stroke-miterlimit="10" x1="-1331.5" y1="415.9" x2="906.3" y2="1707.9"/>
			
				<line fill="none" stroke="#000000" stroke-width="0.25" stroke-miterlimit="10" x1="-1306.5" y1="372.6" x2="931.3" y2="1664.6"/>
			
				<line fill="none" stroke="#000000" stroke-width="0.25" stroke-miterlimit="10" x1="-1281.5" y1="329.3" x2="956.3" y2="1621.3"/>
			<line fill="none" stroke="#000000" stroke-width="0.25" stroke-miterlimit="10" x1="-1256.5" y1="286" x2="981.3" y2="1578"/>
			
				<line fill="none" stroke="#000000" stroke-width="0.25" stroke-miterlimit="10" x1="-1231.5" y1="242.7" x2="1006.3" y2="1534.7"/>
			
				<line fill="none" stroke="#000000" stroke-width="0.25" stroke-miterlimit="10" x1="-1206.5" y1="199.4" x2="1031.3" y2="1491.4"/>
			
				<line fill="none" stroke="#000000" stroke-width="0.25" stroke-miterlimit="10" x1="-1181.5" y1="156.1" x2="1056.3" y2="1448.1"/>
			
				<line fill="none" stroke="#000000" stroke-width="0.25" stroke-miterlimit="10" x1="-1156.5" y1="112.8" x2="1081.3" y2="1404.8"/>
			
				<line fill="none" stroke="#000000" stroke-width="0.25" stroke-miterlimit="10" x1="-1131.5" y1="69.5" x2="1106.3" y2="1361.5"/>
			
				<line fill="none" stroke="#000000" stroke-width="0.25" stroke-miterlimit="10" x1="-1106.5" y1="26.2" x2="1131.3" y2="1318.2"/>
			
				<line fill="none" stroke="#000000" stroke-width="0.25" stroke-miterlimit="10" x1="-1081.5" y1="-17.1" x2="1156.3" y2="1274.9"/>
			
				<line fill="none" stroke="#000000" stroke-width="0.25" stroke-miterlimit="10" x1="-1056.5" y1="-60.4" x2="1181.3" y2="1231.6"/>
			
				<line fill="none" stroke="#000000" stroke-width="0.25" stroke-miterlimit="10" x1="-1031.5" y1="-103.7" x2="1206.3" y2="1188.3"/>
			<line fill="none" stroke="#000000" stroke-width="0.25" stroke-miterlimit="10" x1="-1006.5" y1="-147" x2="1231.3" y2="1145"/>
			
				<line fill="none" stroke="#000000" stroke-width="0.25" stroke-miterlimit="10" x1="-981.5" y1="-190.3" x2="1256.3" y2="1101.7"/>
			
				<line fill="none" stroke="#000000" stroke-width="0.25" stroke-miterlimit="10" x1="-956.5" y1="-233.6" x2="1281.3" y2="1058.4"/>
			
				<line fill="none" stroke="#000000" stroke-width="0.25" stroke-miterlimit="10" x1="-931.5" y1="-276.9" x2="1306.3" y2="1015.1"/>
			
				<line fill="none" stroke="#000000" stroke-width="0.25" stroke-miterlimit="10" x1="-906.5" y1="-320.2" x2="1331.3" y2="971.8"/>
			
				<line fill="none" stroke="#000000" stroke-width="0.25" stroke-miterlimit="10" x1="-881.5" y1="-363.5" x2="1356.3" y2="928.5"/>
			
				<line fill="none" stroke="#000000" stroke-width="0.25" stroke-miterlimit="10" x1="-856.5" y1="-406.8" x2="1381.3" y2="885.2"/>
			
				<line fill="none" stroke="#000000" stroke-width="0.25" stroke-miterlimit="10" x1="-831.5" y1="-450.1" x2="1406.3" y2="841.9"/>
			
				<line fill="none" stroke="#000000" stroke-width="0.25" stroke-miterlimit="10" x1="-806.5" y1="-493.4" x2="1431.3" y2="798.6"/>
			
				<line fill="none" stroke="#000000" stroke-width="0.25" stroke-miterlimit="10" x1="-781.5" y1="-536.7" x2="1456.3" y2="755.3"/>
			<line fill="none" stroke="#000000" stroke-width="0.25" stroke-miterlimit="10" x1="-756.5" y1="-580" x2="1481.3" y2="712"/>
			
				<line fill="none" stroke="#000000" stroke-width="0.25" stroke-miterlimit="10" x1="-731.5" y1="-623.3" x2="1506.3" y2="668.7"/>
			
				<line fill="none" stroke="#000000" stroke-width="0.25" stroke-miterlimit="10" x1="-706.5" y1="-666.6" x2="1531.3" y2="625.4"/>
			
				<line fill="none" stroke="#000000" stroke-width="0.25" stroke-miterlimit="10" x1="-681.5" y1="-709.9" x2="1556.3" y2="582.1"/>
			
				<line fill="none" stroke="#000000" stroke-width="0.25" stroke-miterlimit="10" x1="-656.5" y1="-753.2" x2="1581.3" y2="538.8"/>
			
				<line fill="none" stroke="#000000" stroke-width="0.25" stroke-miterlimit="10" x1="-631.5" y1="-796.5" x2="1606.3" y2="495.5"/>
			
				<line fill="none" stroke="#000000" stroke-width="0.25" stroke-miterlimit="10" x1="-606.5" y1="-839.8" x2="1631.3" y2="452.2"/>
			
				<line fill="none" stroke="#000000" stroke-width="0.25" stroke-miterlimit="10" x1="-581.5" y1="-883.1" x2="1656.3" y2="408.9"/>
			
				<line fill="none" stroke="#000000" stroke-width="0.25" stroke-miterlimit="10" x1="-556.5" y1="-926.4" x2="1681.3" y2="365.6"/>
			
				<line fill="none" stroke="#000000" stroke-width="0.25" stroke-miterlimit="10" x1="-531.5" y1="-969.7" x2="1706.3" y2="322.3"/>
			<line fill="none" stroke="#000000" stroke-width="0.25" stroke-miterlimit="10" x1="-506.5" y1="-1013" x2="1731.3" y2="279"/>
			
				<line fill="none" stroke="#000000" stroke-width="0.25" stroke-miterlimit="10" x1="-481.5" y1="-1056.3" x2="1756.3" y2="235.7"/>
			
				<line fill="none" stroke="#000000" stroke-width="0.25" stroke-miterlimit="10" x1="-456.5" y1="-1099.6" x2="1781.3" y2="192.4"/>
			
				<line fill="none" stroke="#000000" stroke-width="0.25" stroke-miterlimit="10" x1="-431.5" y1="-1142.9" x2="1806.3" y2="149.1"/>
			
				<line fill="none" stroke="#000000" stroke-width="0.25" stroke-miterlimit="10" x1="-406.5" y1="-1186.2" x2="1831.3" y2="105.8"/>
			
				<line fill="none" stroke="#000000" stroke-width="0.25" stroke-miterlimit="10" x1="-381.5" y1="-1229.5" x2="1856.3" y2="62.5"/>
			
				<line fill="none" stroke="#000000" stroke-width="0.25" stroke-miterlimit="10" x1="-356.5" y1="-1272.8" x2="1881.3" y2="19.2"/>
			
				<line fill="none" stroke="#000000" stroke-width="0.25" stroke-miterlimit="10" x1="-331.5" y1="-1316.1" x2="1906.3" y2="-24.1"/>
			
				<line fill="none" stroke="#000000" stroke-width="0.25" stroke-miterlimit="10" x1="-306.5" y1="-1359.4" x2="1931.3" y2="-67.4"/>
			
				<line fill="none" stroke="#000000" stroke-width="0.25" stroke-miterlimit="10" x1="-281.5" y1="-1402.7" x2="1956.3" y2="-110.7"/>
			<line fill="none" stroke="#000000" stroke-width="0.25" stroke-miterlimit="10" x1="-256.5" y1="-1446" x2="1981.3" y2="-154"/>
			
				<line fill="none" stroke="#000000" stroke-width="0.25" stroke-miterlimit="10" x1="-231.5" y1="-1489.3" x2="2006.3" y2="-197.3"/>
		</g>
		<g clip-path="url(#SVGID_2_)">
			
				<line fill="none" stroke="#000000" stroke-width="0.25" stroke-miterlimit="10" x1="2006.3" y1="848.9" x2="-231.5" y2="2140.9"/>
			
				<line fill="none" stroke="#000000" stroke-width="0.25" stroke-miterlimit="10" x1="1981.3" y1="805.6" x2="-256.5" y2="2097.6"/>
			
				<line fill="none" stroke="#000000" stroke-width="0.25" stroke-miterlimit="10" x1="1956.3" y1="762.3" x2="-281.5" y2="2054.3"/>
			<line fill="none" stroke="#000000" stroke-width="0.25" stroke-miterlimit="10" x1="1931.3" y1="719" x2="-306.5" y2="2011"/>
			
				<line fill="none" stroke="#000000" stroke-width="0.25" stroke-miterlimit="10" x1="1906.3" y1="675.7" x2="-331.5" y2="1967.7"/>
			
				<line fill="none" stroke="#000000" stroke-width="0.25" stroke-miterlimit="10" x1="1881.3" y1="632.4" x2="-356.5" y2="1924.4"/>
			
				<line fill="none" stroke="#000000" stroke-width="0.25" stroke-miterlimit="10" x1="1856.3" y1="589.1" x2="-381.5" y2="1881.1"/>
			
				<line fill="none" stroke="#000000" stroke-width="0.25" stroke-miterlimit="10" x1="1831.3" y1="545.8" x2="-406.5" y2="1837.8"/>
			
				<line fill="none" stroke="#000000" stroke-width="0.25" stroke-miterlimit="10" x1="1806.3" y1="502.5" x2="-431.5" y2="1794.5"/>
			
				<line fill="none" stroke="#000000" stroke-width="0.25" stroke-miterlimit="10" x1="1781.3" y1="459.2" x2="-456.5" y2="1751.2"/>
			
				<line fill="none" stroke="#000000" stroke-width="0.25" stroke-miterlimit="10" x1="1756.3" y1="415.9" x2="-481.5" y2="1707.9"/>
			
				<line fill="none" stroke="#000000" stroke-width="0.25" stroke-miterlimit="10" x1="1731.3" y1="372.6" x2="-506.5" y2="1664.6"/>
			
				<line fill="none" stroke="#000000" stroke-width="0.25" stroke-miterlimit="10" x1="1706.3" y1="329.3" x2="-531.5" y2="1621.3"/>
			<line fill="none" stroke="#000000" stroke-width="0.25" stroke-miterlimit="10" x1="1681.3" y1="286" x2="-556.5" y2="1578"/>
			
				<line fill="none" stroke="#000000" stroke-width="0.25" stroke-miterlimit="10" x1="1656.3" y1="242.7" x2="-581.5" y2="1534.7"/>
			
				<line fill="none" stroke="#000000" stroke-width="0.25" stroke-miterlimit="10" x1="1631.3" y1="199.4" x2="-606.5" y2="1491.4"/>
			
				<line fill="none" stroke="#000000" stroke-width="0.25" stroke-miterlimit="10" x1="1606.3" y1="156.1" x2="-631.5" y2="1448.1"/>
			
				<line fill="none" stroke="#000000" stroke-width="0.25" stroke-miterlimit="10" x1="1581.3" y1="112.8" x2="-656.5" y2="1404.8"/>
			<line fill="none" stroke="#000000" stroke-width="0.25" stroke-miterlimit="10" x1="1556.3" y1="69.5" x2="-681.5" y2="1361.5"/>
			<line fill="none" stroke="#000000" stroke-width="0.25" stroke-miterlimit="10" x1="1531.3" y1="26.2" x2="-706.5" y2="1318.2"/>
			
				<line fill="none" stroke="#000000" stroke-width="0.25" stroke-miterlimit="10" x1="1506.3" y1="-17.1" x2="-731.5" y2="1274.9"/>
			
				<line fill="none" stroke="#000000" stroke-width="0.25" stroke-miterlimit="10" x1="1481.3" y1="-60.4" x2="-756.5" y2="1231.6"/>
			
				<line fill="none" stroke="#000000" stroke-width="0.25" stroke-miterlimit="10" x1="1456.3" y1="-103.7" x2="-781.5" y2="1188.3"/>
			<line fill="none" stroke="#000000" stroke-width="0.25" stroke-miterlimit="10" x1="1431.3" y1="-147" x2="-806.5" y2="1145"/>
			
				<line fill="none" stroke="#000000" stroke-width="0.25" stroke-miterlimit="10" x1="1406.3" y1="-190.3" x2="-831.5" y2="1101.7"/>
			
				<line fill="none" stroke="#000000" stroke-width="0.25" stroke-miterlimit="10" x1="1381.3" y1="-233.6" x2="-856.5" y2="1058.4"/>
			
				<line fill="none" stroke="#000000" stroke-width="0.25" stroke-miterlimit="10" x1="1356.3" y1="-276.9" x2="-881.5" y2="1015.1"/>
			
				<line fill="none" stroke="#000000" stroke-width="0.25" stroke-miterlimit="10" x1="1331.3" y1="-320.2" x2="-906.5" y2="971.8"/>
			
				<line fill="none" stroke="#000000" stroke-width="0.25" stroke-miterlimit="10" x1="1306.3" y1="-363.5" x2="-931.5" y2="928.5"/>
			
				<line fill="none" stroke="#000000" stroke-width="0.25" stroke-miterlimit="10" x1="1281.3" y1="-406.8" x2="-956.5" y2="885.2"/>
			
				<line fill="none" stroke="#000000" stroke-width="0.25" stroke-miterlimit="10" x1="1256.3" y1="-450.1" x2="-981.5" y2="841.9"/>
			
				<line fill="none" stroke="#000000" stroke-width="0.25" stroke-miterlimit="10" x1="1231.3" y1="-493.4" x2="-1006.5" y2="798.6"/>
			
				<line fill="none" stroke="#000000" stroke-width="0.25" stroke-miterlimit="10" x1="1206.3" y1="-536.7" x2="-1031.5" y2="755.3"/>
			<line fill="none" stroke="#000000" stroke-width="0.25" stroke-miterlimit="10" x1="1181.3" y1="-580" x2="-1056.5" y2="712"/>
			
				<line fill="none" stroke="#000000" stroke-width="0.25" stroke-miterlimit="10" x1="1156.3" y1="-623.3" x2="-1081.5" y2="668.7"/>
			
				<line fill="none" stroke="#000000" stroke-width="0.25" stroke-miterlimit="10" x1="1131.3" y1="-666.6" x2="-1106.5" y2="625.4"/>
			
				<line fill="none" stroke="#000000" stroke-width="0.25" stroke-miterlimit="10" x1="1106.3" y1="-709.9" x2="-1131.5" y2="582.1"/>
			
				<line fill="none" stroke="#000000" stroke-width="0.25" stroke-miterlimit="10" x1="1081.3" y1="-753.2" x2="-1156.5" y2="538.8"/>
			
				<line fill="none" stroke="#000000" stroke-width="0.25" stroke-miterlimit="10" x1="1056.3" y1="-796.5" x2="-1181.5" y2="495.5"/>
			
				<line fill="none" stroke="#000000" stroke-width="0.25" stroke-miterlimit="10" x1="1031.3" y1="-839.8" x2="-1206.5" y2="452.2"/>
			
				<line fill="none" stroke="#000000" stroke-width="0.25" stroke-miterlimit="10" x1="1006.3" y1="-883.1" x2="-1231.5" y2="408.9"/>
			
				<line fill="none" stroke="#000000" stroke-width="0.25" stroke-miterlimit="10" x1="981.3" y1="-926.4" x2="-1256.5" y2="365.6"/>
			
				<line fill="none" stroke="#000000" stroke-width="0.25" stroke-miterlimit="10" x1="956.3" y1="-969.7" x2="-1281.5" y2="322.3"/>
			<line fill="none" stroke="#000000" stroke-width="0.25" stroke-miterlimit="10" x1="931.3" y1="-1013" x2="-1306.5" y2="279"/>
			
				<line fill="none" stroke="#000000" stroke-width="0.25" stroke-miterlimit="10" x1="906.3" y1="-1056.3" x2="-1331.5" y2="235.7"/>
			
				<line fill="none" stroke="#000000" stroke-width="0.25" stroke-miterlimit="10" x1="881.3" y1="-1099.6" x2="-1356.5" y2="192.4"/>
			
				<line fill="none" stroke="#000000" stroke-width="0.25" stroke-miterlimit="10" x1="856.3" y1="-1142.9" x2="-1381.5" y2="149.1"/>
			
				<line fill="none" stroke="#000000" stroke-width="0.25" stroke-miterlimit="10" x1="831.3" y1="-1186.2" x2="-1406.5" y2="105.8"/>
			
				<line fill="none" stroke="#000000" stroke-width="0.25" stroke-miterlimit="10" x1="806.3" y1="-1229.5" x2="-1431.5" y2="62.5"/>
			
				<line fill="none" stroke="#000000" stroke-width="0.25" stroke-miterlimit="10" x1="781.3" y1="-1272.8" x2="-1456.5" y2="19.2"/>
			
				<line fill="none" stroke="#000000" stroke-width="0.25" stroke-miterlimit="10" x1="756.3" y1="-1316.1" x2="-1481.5" y2="-24.1"/>
			
				<line fill="none" stroke="#000000" stroke-width="0.25" stroke-miterlimit="10" x1="731.3" y1="-1359.4" x2="-1506.5" y2="-67.4"/>
			
				<line fill="none" stroke="#000000" stroke-width="0.25" stroke-miterlimit="10" x1="706.3" y1="-1402.7" x2="-1531.5" y2="-110.7"/>
			<line fill="none" stroke="#000000" stroke-width="0.25" stroke-miterlimit="10" x1="681.3" y1="-1446" x2="-1556.5" y2="-154"/>
			
				<line fill="none" stroke="#000000" stroke-width="0.25" stroke-miterlimit="10" x1="656.3" y1="-1489.3" x2="-1581.5" y2="-197.3"/>
		</g>
	</g>
</g>
<g id="Layer_6" display="none">
	<rect x="8.5" y="-28.2" display="inline" width="413.4" height="413.4"/>
</g>
<g id="Open_v02" display="none">
	
		<line display="inline" fill="none" stroke="#32CB87" stroke-width="2" stroke-linecap="round" stroke-linejoin="round" stroke-miterlimit="10" x1="210.1" y1="336.1" x2="210.1" y2="336.1"/>
	
		<line display="inline" fill="none" stroke="#32CB87" stroke-width="2" stroke-linecap="round" stroke-linejoin="round" stroke-miterlimit="10" x1="210.1" y1="336.1" x2="210.1" y2="336.1"/>
	<g display="inline">
		<polygon fill="#B0F2DC" points="211.3,216.2 211.3,334.1 313.3,275.2 313.3,157.3 		"/>
		<polygon fill="#B0F2DC" points="165.8,122 108.1,155.3 209,213.6 209,97.1 209,97.1 205.7,99 		"/>
	</g>
	<path display="inline" fill="#32CB87" d="M419.4,94.1L315.1,33.8c-0.4-0.2-0.8-0.2-1.2,0L210.1,93.7L106.3,33.8
		c-0.4-0.2-0.8-0.2-1.2,0L0.8,94.1c-0.4,0.2-0.6,0.6-0.6,1c0,0.4,0.2,0.8,0.6,1l0.1,0c0,0,0,0,0,0L104.6,156v119.8
		c0,0.4,0.2,0.8,0.6,1l104.4,60.3c0,0,0.1,0,0.1,0c0,0,0.1,0,0.1,0.1c0.1,0,0.2,0.1,0.3,0.1c0,0,0.1,0,0.1,0c0.2,0,0.4-0.1,0.6-0.2
		l104.4-60.3c0.4-0.2,0.6-0.6,0.6-1V156l103.8-59.9c0.4-0.2,0.6-0.6,0.6-1C420,94.6,419.8,94.3,419.4,94.1z M105.7,154l-8-4.6
		L3.8,95.1l-0.1-0.1l102-58.9l102.1,58.9l0,0l0,0l-3.2,1.8l-37.8,21.8l-3.4,2L105.7,154L105.7,154z M209,334.1l-102-58.9V157.3
		l76.5,44.2l25.5,14.7V334.1z M209,97.1v116.5l-100.9-58.2l57.7-33.3l39.8-23L209,97.1L209,97.1z M314.5,36.1l102,58.9l-102,58.9
		l-45-26l-57.1-32.9L314.5,36.1z M211.3,213.6V97.1v0l44.2,25.5l4.6,2.6l52.1,30l0,0L211.3,213.6L211.3,213.6z M313.3,275.2
		l-102,58.9V216.2l102-58.9V275.2z"/>
</g>
<g id="Tooling">
	<polygon fill="#FFFFFF" points="211.3,97.1 260.1,125.3 255.5,122.6 211.3,97.1 	"/>
	<polygon fill="#FFFFFF" points="416.5,95.1 416.5,95.1 415.2,95.8 	"/>
	<polygon fill="#FFFFFF" points="198.2,100.6 198.2,100.6 204.6,96.9 207.8,95.1 207.7,95.1 	"/>
	<polygon fill="#FFFFFF" points="204.6,96.9 198.2,100.6 198.2,100.6 	"/>
	<polygon fill="#FFFFFF" points="207.7,95.1 207.8,95.1 105.7,36.1 3.7,95.1 3.8,95.1 105.6,36.2 	"/>
	<polygon fill="#FFFFFF" points="105.7,154 105.7,154 97.7,149.3 	"/>
	<polygon fill="#FFFFFF" points="207.8,95.1 207.8,95.1 207.8,95.1 207.7,95.1 	"/>
	<rect x="192.7" y="209.2" fill="#FFFFFF" width="17.4" height="0"/>
	
		<rect x="210.1" y="214.2" transform="matrix(0.4472 -0.8944 0.8944 0.4472 -75.4586 306.362)" fill="#FFFFFF" width="0" height="0"/>
	<rect x="209.5" y="213.2" transform="matrix(0.5 -0.866 0.866 0.5 -80.4652 288.4184)" fill="#FFFFFF" width="0" height="1.3"/>
	<polygon fill="#FFFFFF" points="106.9,157.3 106.9,157.3 183.5,201.5 	"/>
	<g>
		<polygon fill="#B0F2DC" points="199.2,102.7 199.2,141.6 199.2,142.3 163.6,163.3 129.3,143.1 108.1,155.3 191.6,203.5 
			191.6,167.7 209,157.5 209,97.1 209,97.1 205.7,99 		"/>
		<polygon fill="#B0F2DC" points="228.2,203.8 260.4,185.2 260.4,170.6 228.1,188.8 		"/>
		<polygon fill="#B0F2DC" points="262.8,186.5 261.6,187.2 260.4,187.9 228.2,206.5 227,207.2 225.9,207.8 211.3,216.2 211.3,216.2 
			211.3,218 211.3,219.4 211.3,220.7 211.3,334.1 313.3,275.2 313.3,157.3 313.3,157.3 		"/>
		<polygon fill="#B0F2DC" points="164.5,122.7 164.7,159.9 164.7,159.9 196.9,141 196.9,104.1 196.9,104.1 196.9,104.1 196.9,103.8 
			166.9,120.7 164.5,122.1 164.5,122.7 		"/>
		<polygon fill="#B0F2DC" points="243.3,60.7 243.3,23.5 211,41.8 211.2,79.6 211.2,79.6 		"/>
	</g>
	<g>
		<path fill="#32CB87" d="M420,95c0,0,0-0.1,0-0.1c0-0.1-0.1-0.3-0.1-0.4c0,0,0,0,0,0c0,0,0,0,0,0c-0.1-0.1-0.2-0.2-0.3-0.3
			c0,0-0.1,0-0.1-0.1c0,0,0,0-0.1-0.1L315.1,33.8c-0.4-0.2-0.8-0.2-1.2,0L210.1,93.7L106.3,33.8c-0.4-0.2-0.8-0.2-1.2,0L0.8,94.1
			c-0.4,0.2-0.6,0.6-0.6,1c0,0.4,0.2,0.8,0.6,1l0.1,0c0,0,0,0,0,0L104.6,156v119.8c0,0.4,0.2,0.8,0.6,1l104.4,60.3c0,0,0,0,0.1,0
			c0,0,0,0,0,0c0,0,0,0,0.1,0c0,0,0.1,0,0.1,0c0.1,0,0.2,0,0.3,0.1c0,0,0.1,0,0.1,0c0,0,0,0,0,0c0,0,0,0,0,0c0.1,0,0.3,0,0.4-0.1
			c0,0,0,0,0.1,0c0,0,0.1,0,0.1,0l104.4-60.3c0.4-0.2,0.6-0.6,0.6-1V156l103.8-59.9c0.1-0.1,0.2-0.2,0.3-0.3c0,0,0-0.1,0.1-0.1
			c0.1-0.1,0.1-0.2,0.2-0.4c0,0,0,0,0,0C420,95.3,420,95.2,420,95C420,95,420,95,420,95z M313.3,275.2l-102,58.9V220.7v-1.3V218
			v-1.8v0l14.6-8.4l1.2-0.7l1.2-0.7l32.3-18.6l1.2-0.7l1.2-0.7l50.6-29.2v0V275.2z M212.4,95.1l102.1-58.9l102,58.9l0,0l-1.3,0.7
			L314.5,154l-27.2-15.7L212.4,95.1z M209,219.4v114.7l-102-58.9V157.3v0l76.5,44.2l8.1,4.7l1.2,0.7l0.9,0.5v0l15.3,8.8v0.4v1.3
			V219.4z M3.8,95.1l-0.1-0.1l102-58.9l102.1,58.9l0,0l0,0l-3.2,1.8l-6.4,3.7l0,0l0,0l-34.8-20.3L128,100.9v40.2L105.7,154l0,0
			l-8-4.6L3.8,95.1z M164.5,122.7l0-0.7l2.4-1.4l30-16.9v0.2v0v0V141l-32.2,18.9v0L164.5,122.7L164.5,122.7z M108.1,155.3l21.2-12.2
			l34.3,20.2l35.6-21v-0.7v-38.9l6.5-3.7l3.3-1.9v0v60.5l-17.4,10.1v35.9L108.1,155.3z M209,160.2l1.2-0.7l1.2-0.7l15.6-9.1
			l32.4,18.8l-32.3,18.2l-15.6-9.1l-1.2-0.7l-1.2-0.7l-13.9-8.1L209,160.2z M163.4,120l-31.9-18.5L163.3,83l32.4,18.8L163.4,120z
			 M130.3,139.8v-36.2l31.3,18.2l0,0l0.6,0.3l0,0.7l0,0l0,1.3v0l0.2,35.8l-30.8-18.2l0,0l-1.1-0.7l0,0l-0.1,0V139.8L130.3,139.8z
			 M228.1,188.8l32.4-18.2v14.6l-32.3,18.6L228.1,188.8z M262.8,168.6V168l-0.6-0.3c0,0,0,0,0,0c0,0,0,0,0,0l-35.3-20.5l-15.6,9.1
			V97.1v0l44.2,25.5l4.6,2.6l52.1,30l-49.4,28.5V168.6z M210.1,214.2L210.1,214.2L210.1,214.2l-1.2-0.7l-15.1-8.7v0v-34.5l15.1,8.7
			l1.2,0.7l1.2,0.7l14.5,8.4l0.1,16.3l-14.6,8.4L210.1,214.2z"/>
		<path fill="#32CB87" d="M245.7,62v-0.7V21.5v-0.7l-0.6-0.3c0,0,0,0,0,0c0,0,0,0,0,0L209.8,0l-35.3,20.6V62L210,83L245.7,62z
			 M242.2,21.5l-32.3,18.2l-31.9-18.5l31.9-18.6L242.2,21.5z M211.2,79.6L211,41.8l32.4-18.2v37.2L211.2,79.6L211.2,79.6z
			 M176.8,60.7V23.3l31.9,18.5l0.2,37.9L176.8,60.7z"/>
	</g>
</g>
<g id="Community" display="none">
	<polygon display="inline" fill="#FFFFFF" points="211.3,97.1 260.1,125.3 255.5,122.6 211.3,97.1 	"/>
	<polygon display="inline" fill="#FFFFFF" points="416.5,95.1 415.2,95.8 416.5,95.1 	"/>
	<polygon display="inline" fill="#FFFFFF" points="166.9,118.7 166.9,118.7 204.6,96.9 207.8,95.1 207.7,95.1 	"/>
	<polygon display="inline" fill="#FFFFFF" points="166.9,118.7 166.9,118.7 163.4,120.7 166.8,118.7 166.9,118.7 	"/>
	<polygon display="inline" fill="#FFFFFF" points="166.9,118.7 166.9,118.7 166.8,118.7 204.6,96.9 	"/>
	<polygon display="inline" fill="#FFFFFF" points="105.7,154 105.7,154 97.7,149.3 	"/>
	<polygon display="inline" fill="#FFFFFF" points="207.8,95.1 207.8,95.1 207.8,95.1 207.7,95.1 	"/>
	<g display="inline">
		<polygon fill="#B0F2DC" points="165.8,122 108.1,155.3 209,213.6 209,97.1 209,97.1 205.7,99 		"/>
		<polygon fill="#B0F2DC" points="211.3,216.2 211.3,216.2 211.3,334.1 313.3,275.2 313.3,157.3 313.3,157.3 		"/>
		<polygon fill="#B0F2DC" points="118.9,219.5 153.3,239.3 153.3,199.8 118.9,180 		"/>
		<polygon fill="#B0F2DC" points="161.3,244.3 195.6,264 195.6,224.6 161.3,204.7 		"/>
		<polygon fill="#B0F2DC" points="118.9,269.7 153.3,289.5 153.3,250 118.9,230.1 		"/>
		<polygon fill="#B0F2DC" points="161.3,294.5 195.6,314.2 195.6,274.7 161.3,254.9 		"/>
	</g>
	<g display="inline">
		<path fill="#32CB87" d="M420,95c0,0,0-0.1,0-0.1c0-0.1-0.1-0.3-0.1-0.4c0,0,0,0,0,0c0,0,0,0,0,0c-0.1-0.1-0.2-0.2-0.3-0.3
			c0,0-0.1,0-0.1-0.1c0,0,0,0-0.1-0.1L315.1,33.8c-0.4-0.2-0.8-0.2-1.2,0L210.1,93.7L106.3,33.8c-0.4-0.2-0.8-0.2-1.2,0L0.8,94.1
			c-0.4,0.2-0.6,0.6-0.6,1c0,0.4,0.2,0.8,0.6,1l0.1,0c0,0,0,0,0,0L104.6,156v119.8c0,0.4,0.2,0.8,0.6,1l104.4,60.3c0,0,0,0,0.1,0
			c0.1,0,0.1,0,0.2,0.1c0.1,0,0.2,0,0.3,0.1c0,0,0.1,0,0.1,0c0,0,0,0,0,0c0,0,0,0,0,0c0.1,0,0.3,0,0.4-0.1c0,0,0,0,0.1,0
			c0,0,0.1,0,0.1,0l104.4-60.3c0.4-0.2,0.6-0.6,0.6-1V156l103.8-59.9c0.1-0.1,0.2-0.2,0.3-0.3c0,0,0-0.1,0.1-0.1
			c0.1-0.1,0.1-0.2,0.2-0.4c0,0,0,0,0,0C420,95.3,420,95.2,420,95C420,95,420,95,420,95z M313.3,275.2l-102,58.9V216.2v0l102-58.9v0
			V275.2z M212.4,95.1l102.1-58.9l102,58.9l0,0l-1.3,0.7L314.5,154l-32-18.4L212.4,95.1z M209,334.1l-102-58.9V157.3l76.5,44.2
			l25.5,14.7V334.1z M3.8,95.1l-0.1-0.1l102-58.9l102.1,58.9l0,0l0,0l-3.2,1.8l-37.8,21.8l-3.4,2L105.7,154l0,0l-8-4.6L3.8,95.1z
			 M209,97.1v116.5l-100.9-58.2l57.7-33.3l39.8-23L209,97.1L209,97.1z M211.3,97.1L211.3,97.1l44.2,25.5l4.6,2.6l52.1,30
			l-100.9,58.3V97.1z"/>
		<path fill="#32CB87" d="M117.7,220.3l36.8,21.2v-42.4l-36.8-21.3V220.3z M120.2,182.1l31.8,18.4v36.6l-31.8-18.3V182.1z"/>
		<path fill="#32CB87" d="M160,245l36.8,21.2v-42.4L160,202.6V245z M162.5,206.9l31.8,18.4v36.6l-31.8-18.3V206.9z"/>
		<path fill="#32CB87" d="M117.7,270.4l36.8,21.2v-42.4L117.7,228V270.4z M120.2,232.3l31.8,18.4v36.6L120.2,269V232.3z"/>
		<path fill="#32CB87" d="M160,295.2l36.8,21.2V274L160,252.7V295.2z M162.5,257.1l31.8,18.4v36.6l-31.8-18.3V257.1z"/>
	</g>
</g>
<g id="Architecture" display="none">
	<polygon display="inline" fill="none" points="207.6,94.9 105.5,36 3.5,94.9 105.5,153.8 137.5,135.4 	"/>
	<g display="inline">
		<polygon fill="#B0F2DC" points="211.1,334.2 313.1,275.3 313.1,248.3 211.1,307.2 		"/>
		<polygon fill="#B0F2DC" points="276,224.2 274.8,224.8 211.1,261.7 211.1,288.7 298.2,238.4 299.4,237.7 300.5,237 313.1,229.8 
			313.1,202.7 277.1,223.5 		"/>
		<polygon fill="#B0F2DC" points="313.1,184.2 313.1,157.2 211.1,216.1 211.1,243.1 		"/>
	</g>
	<path display="inline" fill="#32CB87" d="M418.5,93.9L314.2,33.6c-0.4-0.2-0.8-0.2-1.2,0L209.6,93.4L106.1,33.6
		c-0.4-0.2-0.8-0.2-1.2,0L0.6,93.9c-0.4,0.2-0.6,0.6-0.6,1c0,0.4,0.2,0.8,0.6,1l103.8,59.9l0,29.1c0,0.4,0.2,0.8,0.6,1l12,6.9
		l-12.1,6.9c-0.4,0.2-0.5,0.6-0.5,1c0,0,0,0.1,0,0.1l0,29.6c0,0.4,0.2,0.8,0.6,1l12,6.9l-12.1,6.9c-0.4,0.2-0.5,0.6-0.5,1
		c0,0,0,0.1,0,0.1l0,29.6c0,0.4,0.2,0.8,0.6,1l104.4,60.2c0,0,0,0,0,0c0.1,0,0.1,0.1,0.2,0.1c0,0,0.1,0,0.1,0c0.1,0,0.2,0,0.3,0
		c0,0,0,0,0,0c0,0,0,0,0,0c0,0,0,0,0,0c0,0,0,0,0,0c0.1,0,0.2,0,0.3,0c0,0,0,0,0,0c0,0,0.1,0,0.1,0c0,0,0,0,0,0c0.1,0,0.1,0,0.2-0.1
		c0,0,0,0,0,0L314.8,277c0.4-0.2,0.6-0.6,0.6-1l0-29.7v0c0,0,0,0,0-0.1c0-0.3-0.1-0.6-0.3-0.8c0,0,0,0,0,0c-0.1-0.1-0.1-0.1-0.2-0.2
		l-12-6.9l12-6.9c0.4-0.2,0.6-0.6,0.6-1l0-29.7v0c0,0,0,0,0-0.1c0-0.3-0.1-0.6-0.3-0.8c0,0,0,0,0,0c-0.1-0.1-0.1-0.1-0.2-0.2
		l-12-6.9l12-6.9c0.4-0.2,0.6-0.6,0.6-1l0-29.4l103.1-59.5c0.4-0.2,0.6-0.6,0.6-1C419.1,94.5,418.9,94.1,418.5,93.9z M313.1,184.2
		l-102,58.9v-27l102-58.9L313.1,184.2z M313.1,229.8l-12.6,7.2l-1.2,0.7l-1.2,0.7l-87.1,50.3v-27l63.7-36.8l1.2-0.7l1.2-0.7l36-20.8
		L313.1,229.8z M313.1,275.3l-102,58.9v-27l102-58.9L313.1,275.3z M208.7,307.2v27l-102.1-58.9l0-27L208.7,307.2z M209.9,305.2
		l-18.7-10.8l-83.4-48.1l11.5-6.6l90.1,52c0,0,0,0,0,0c0.1,0,0.1,0.1,0.2,0.1c0,0,0.1,0,0.1,0c0.1,0,0.2,0,0.3,0c0,0,0,0,0,0
		c0,0,0,0,0,0c0,0,0,0,0,0c0,0,0,0,0,0c0.1,0,0.2,0,0.3,0c0,0,0,0,0,0c0,0,0.1,0,0.1,0c0,0,0,0,0,0c0.1,0,0.1,0,0.2-0.1c0,0,0,0,0,0
		l90-52l11.4,6.6L209.9,305.2z M106.7,202.8l36,20.8l1.2,0.7l1.2,0.7l63.8,36.8v27l-87.2-50.3l-1.2-0.7l-1.2-0.7l-12.6-7.2
		L106.7,202.8z M274.8,222.2l-1.2,0.7l-1.2,0.7l-62.6,36.1l-18.7-10.8l-43.9-25.3l-1.2-0.7l-1.2-0.7l-37.2-21.5l11.5-6.6l37.2,21.5
		l1.2,0.7l1.2,0.7l50.6,29.2c0,0,0,0,0,0c0.1,0,0.1,0.1,0.2,0.1c0,0,0.1,0,0.1,0c0.1,0,0.1,0,0.2,0c0,0,0,0,0.1,0c0,0,0,0,0,0
		c0,0,0,0,0,0c0,0,0,0,0,0c0,0,0,0,0,0c0,0,0,0,0,0c0.1,0,0.2,0,0.3,0c0,0,0,0,0,0c0,0,0,0,0,0c0,0,0,0,0.1,0c0.1,0,0.1,0,0.2-0.1
		c0,0,0,0,0,0l50.6-29.2l1.2-0.7l1.2-0.7l37.2-21.4l11.4,6.6L274.8,222.2z M106.7,157.2l36,20.8l1.2,0.7l1.2,0.7l37.2,21.4l1.2,0.7
		l1.2,0.7l24.3,14v27l-47.7-27.5l-1.2-0.7l-1.2-0.7l-37.2-21.5l-1.2-0.7l-1.2-0.7l-12.6-7.2L106.7,157.2z M209.5,96.5l0.4-0.2l0,0
		l102,58.9l-0.3,0.2l-101.7,58.7l-23.1-13.3l-1.1-0.6l-0.1-0.1l-1.2-0.7L147.3,178l-1.2-0.7l-1.2-0.7l-37.2-21.4l0,0l30.9-17.8
		L209.5,96.5z M313.9,153.6l-102-58.9L313.6,36l102,58.9L313.9,153.6z M105.5,36l102,58.9l-70.1,40.5l-32,18.4L3.5,94.9L105.5,36z"
		/>
</g>
</svg>
