<svg width="13" height="16" viewBox="0 0 13 16" fill="none" xmlns="http://www.w3.org/2000/svg">
<path d="M12.5 4.5C12.5 3.11875 11.3813 2 10 2C8.61875 2 7.5 3.11875 7.5 4.5C7.5 5.6375 8.25937 6.59688 9.29688 6.9C9.27812 7.40313 9.16563 7.79063 8.95312 8.05313C8.47188 8.65313 7.4125 8.75312 6.29063 8.85625C5.40938 8.9375 4.49687 9.025 3.75 9.38437V4.88438C4.76562 4.56563 5.5 3.61875 5.5 2.5C5.5 1.11875 4.38125 0 3 0C1.61875 0 0.5 1.11875 0.5 2.5C0.5 3.61875 1.23438 4.56563 2.25 4.88438V11.1125C1.23438 11.4344 0.5 12.3813 0.5 13.5C0.5 14.8813 1.61875 16 3 16C4.38125 16 5.5 14.8813 5.5 13.5C5.5 12.4375 4.8375 11.5281 3.9 11.1687C3.99688 11.0062 4.14375 10.8625 4.36562 10.75C4.87187 10.4938 5.62813 10.425 6.43125 10.35C7.75 10.2281 9.24375 10.0875 10.125 8.99375C10.5625 8.45 10.7844 7.75 10.8 6.87187C11.7875 6.53437 12.5 5.6 12.5 4.5ZM3 2C3.275 2 3.5 2.225 3.5 2.5C3.5 2.775 3.275 3 3 3C2.725 3 2.5 2.775 2.5 2.5C2.5 2.225 2.725 2 3 2ZM3 14C2.725 14 2.5 13.775 2.5 13.5C2.5 13.225 2.725 13 3 13C3.275 13 3.5 13.225 3.5 13.5C3.5 13.775 3.275 14 3 14ZM10 4C10.275 4 10.5 4.225 10.5 4.5C10.5 4.775 10.275 5 10 5C9.725 5 9.5 4.775 9.5 4.5C9.5 4.225 9.725 4 10 4Z"/>
</svg>
