<svg id="组_20" data-name="组 20" xmlns="http://www.w3.org/2000/svg" width="117.017" height="34.672" viewBox="0 0 117.017 34.672">
  <defs>
    <style>
      .cls-1 {
        fill: #ff2310;
      }

      .cls-2 {
        fill: #171e29;
      }
    </style>
  </defs>
  <path id="路径_46" data-name="路径 46" class="cls-1" d="M2293.569,351.771h-1.943a.216.216,0,0,0-.216.217v32.08a.217.217,0,0,0,.216.217h31.946a.217.217,0,0,0,.216-.217v-1.951h-30.219Z" transform="translate(-2291.41 -349.612)"/>
  <g id="组_13" data-name="组 13" transform="translate(2.159)">
    <path id="路径_47" data-name="路径 47" class="cls-2" d="M2333.572,341.771h-31.947a.216.216,0,0,0-.216.217v15.154l9.7-9.736a1,1,0,0,1,1.717.714v7.1a1.012,1.012,0,0,0,.295.714l6.743,6.771a1,1,0,0,0,.722.3l6.929-.073a1.011,1.011,0,0,1,.722,1.724l-9.588,9.628h14.927a.216.216,0,0,0,.216-.217v-32.08A.216.216,0,0,0,2333.572,341.771Z" transform="translate(-2301.41 -341.771)"/>
    <path id="路径_48" data-name="路径 48" class="cls-2" d="M2364.612,458.545a1.733,1.733,0,1,1,0-2.451A1.733,1.733,0,0,1,2364.612,458.545Z" transform="translate(-2348.65 -430.884)"/>
    <path id="路径_49" data-name="路径 49" class="cls-2" d="M2329.135,423.068a1.733,1.733,0,1,1,0-2.45A1.733,1.733,0,0,1,2329.135,423.068Z" transform="translate(-2320.831 -403.121)"/>
  </g>
  <g id="组_14" data-name="组 14" transform="translate(41.012 2.493)">
    <path id="路径_50" data-name="路径 50" class="cls-2" d="M2490.234,367.629h-5.275l-.9,2.214h-2.654l4.949-11.4h2.654l4.868,11.4h-2.751Zm-.83-2.067-1.791-4.428-1.807,4.428Z" transform="translate(-2481.41 -357.34)"/>
    <path id="路径_51" data-name="路径 51" class="cls-2" d="M2553.521,361.3a2.522,2.522,0,0,1-1.97,2.507,2.783,2.783,0,0,1,2.377,2.882c0,1.954-1.66,3.159-4.3,3.159h-5.421v-11.4h5.242C2551.958,358.447,2553.521,359.538,2553.521,361.3Zm-2.637.472c0-.782-.586-1.237-1.563-1.221h-2.54v2.491h2.54C2550.3,363.038,2550.884,362.566,2550.884,361.769Zm.391,4.591c0-.83-.749-1.335-1.954-1.319h-2.54v2.7h2.54C2550.526,367.743,2551.275,367.239,2551.275,366.36Z" transform="translate(-2530.654 -357.34)"/>
    <path id="路径_52" data-name="路径 52" class="cls-2" d="M2600.914,358.447l3.321,6.968,3.3-6.968h2.865v11.4h-2.312v-7.685l-3.028,6.528h-1.677l-3.028-6.528v7.685h-2.328v-11.4Z" transform="translate(-2572.859 -357.34)"/>
    <path id="路径_53" data-name="路径 53" class="cls-2" d="M2669.263,379.071v-1.026a3.369,3.369,0,0,1-2.751,1.14,2.714,2.714,0,0,1-3.012-2.735c0-1.644,1.188-2.621,3.338-2.638h2.409v-.163c0-.928-.619-1.465-1.823-1.465a5.548,5.548,0,0,0-2.605.765l-.781-1.726a8.216,8.216,0,0,1,3.957-1.009c2.344,0,3.7,1.172,3.712,3.142l.016,5.715Zm-.016-3v-.781h-1.97c-.96,0-1.432.293-1.432.993,0,.667.521,1.107,1.367,1.107A1.937,1.937,0,0,0,2669.247,376.075Z" transform="translate(-2624.195 -366.567)"/>
    <path id="路径_54" data-name="路径 54" class="cls-2" d="M2713.189,371.6a4.666,4.666,0,0,1-2.279.6,2.525,2.525,0,0,1-2.751-2.7v-4.054h-1.221v-1.726h1.221v-2.41h2.491v2.41h2.377v1.742h-2.377v3.614c0,.733.31,1.026.847,1.009a2.913,2.913,0,0,0,1.172-.326Z" transform="translate(-2658.256 -359.587)"/>
    <path id="路径_55" data-name="路径 55" class="cls-2" d="M2748.238,370.214v2.361c-1.792-.163-2.9.8-2.9,2.28v4.217h-2.507v-8.759h2.507v1.579A3.188,3.188,0,0,1,2748.238,370.214Z" transform="translate(-2686.403 -366.567)"/>
    <path id="路径_56" data-name="路径 56" class="cls-2" d="M2775.756,357.064v8.759h-2.507v-8.759Zm-.032-2.491a1.221,1.221,0,1,1-1.221-1.254A1.2,1.2,0,0,1,2775.724,354.573Z" transform="translate(-2710.255 -353.319)"/>
    <path id="路径_57" data-name="路径 57" class="cls-2" d="M2793.176,370.667l1.612,2.654,1.709-2.654h2.735l-2.784,4.266,2.979,4.493h-2.882l-1.758-2.865-1.921,2.865H2790.1l3.028-4.477-2.817-4.282Z" transform="translate(-2723.467 -366.922)"/>
  </g>
  <g id="组_19" data-name="组 19" transform="translate(41.087 17.426)">
    <g id="组_15" data-name="组 15" transform="translate(63.181 0.055)">
      <path id="路径_58" data-name="路径 58" class="cls-2" d="M2801.411,424.279h2.5a.122.122,0,0,0,.122-.122v-1.263a.122.122,0,0,0-.122-.122h-4.648a.122.122,0,0,1-.122-.122v-.4a.122.122,0,0,0-.122-.122h-1.263a.122.122,0,0,0-.123.122v.4a.122.122,0,0,1-.122.122h-1.473a.122.122,0,0,0-.123.122v1.263a.122.122,0,0,0,.123.122h1.277a.124.124,0,0,1,.119.156,5.3,5.3,0,0,1-1.481,2.411.119.119,0,0,0-.037.088v1.347a.122.122,0,0,0,.123.122h3.617a.122.122,0,0,1,.122.122v2.2a.122.122,0,0,1-.122.122h-3.617a.122.122,0,0,0-.123.122v1.263a.122.122,0,0,0,.123.122h3.617a.122.122,0,0,1,.122.122v2.679a.122.122,0,0,0,.122.122h1.263a.122.122,0,0,0,.122-.122v-2.679a.122.122,0,0,1,.122-.122h2.5a.122.122,0,0,0,.122-.122v-1.263a.122.122,0,0,0-.122-.122h-2.5a.122.122,0,0,1-.122-.122v-2.2a.122.122,0,0,1,.122-.122h2.5a.122.122,0,0,0,.122-.122v-1.263a.122.122,0,0,0-.122-.122h-2.5a.122.122,0,0,1-.122-.122V424.4A.122.122,0,0,1,2801.411,424.279Zm-1.752,2.616h-1.537a.122.122,0,0,1-.1-.2,4.942,4.942,0,0,0,1.039-2.315.122.122,0,0,1,.119-.1h.474a.122.122,0,0,1,.122.122v2.371A.122.122,0,0,1,2799.659,426.895Z" transform="translate(-2791.287 -422.13)"/>
      <path id="路径_59" data-name="路径 59" class="cls-2" d="M2778.363,431.138c-.766-1.654-.557-2.14-.21-2.945h0a5.4,5.4,0,0,0,.536-2.339v-.631a.122.122,0,0,0-.122-.122h-3.986a.123.123,0,0,0-.122.122v12.266a.122.122,0,0,0,.122.122h1.263a.122.122,0,0,0,.122-.122v-2.467a.12.12,0,0,1,.084-.116,4.554,4.554,0,0,0,2.431-1.553,2.447,2.447,0,0,0-.107-2.189Zm-1.222,1.527a2.078,2.078,0,0,1-1.013.659.122.122,0,0,1-.161-.116V426.73a.122.122,0,0,1,.122-.122h.961a.045.045,0,0,1,.036.017.043.043,0,0,1,.008.038,5.008,5.008,0,0,1-.324.931c-.482.98-.8,1.97.225,4.178C2777.246,432.314,2777.213,432.557,2777.141,432.666Z" transform="translate(-2774.459 -424.459)"/>
    </g>
    <g id="组_16" data-name="组 16" transform="translate(41.987 0.055)">
      <path id="路径_60" data-name="路径 60" class="cls-2" d="M2711.092,425.1h-6.677a.122.122,0,0,0-.122.122v11.9a.122.122,0,0,0,.122.122h6.677a.122.122,0,0,0,.122-.122v-1.263a.122.122,0,0,0-.122-.122h-5.169a.122.122,0,0,1-.122-.122V434a.122.122,0,0,1,.122-.122h5.047a.122.122,0,0,0,.122-.122V428.6a.122.122,0,0,0-.122-.122h-5.047a.122.122,0,0,1-.122-.122v-1.62a.122.122,0,0,1,.122-.122h5.169a.122.122,0,0,0,.122-.122v-1.263A.122.122,0,0,0,2711.092,425.1Zm-5.169,4.88h3.54a.122.122,0,0,1,.122.122v2.145a.122.122,0,0,1-.122.122h-3.54a.122.122,0,0,1-.122-.122V430.1A.122.122,0,0,1,2705.923,429.98Z" transform="translate(-2698.245 -424.459)"/>
      <path id="路径_61" data-name="路径 61" class="cls-2" d="M2680.738,431.169h0a.261.261,0,0,0-.13-.16.257.257,0,0,0-.2-.016l-.4.131a.123.123,0,0,1-.156-.152,9.53,9.53,0,0,0,.326-2.027.121.121,0,0,1,.122-.117h1.638a.122.122,0,0,0,.122-.122v-1.263a.122.122,0,0,0-.122-.122h-1.622a.122.122,0,0,1-.122-.123l.012-2.8a.122.122,0,0,1,.122-.122h1.61a.122.122,0,0,0,.122-.122v-1.263a.122.122,0,0,0-.122-.122h-2.867a.121.121,0,0,1-.122-.125c0-.07,0-.153.007-.25a.26.26,0,0,0-.26-.266h-1.123a.122.122,0,0,0-.121.122,4.764,4.764,0,0,1-1,2.948.12.12,0,0,0,0,.169l.8.806a.259.259,0,0,0,.357.012,4.656,4.656,0,0,0,1.023-1.909h.065l-.012,2.921a.123.123,0,0,1-.123.122h-1.876a.122.122,0,0,0-.122.122v1.263a.122.122,0,0,0,.122.122h1.859a.123.123,0,0,1,.124.128,7.556,7.556,0,0,1-2.291,4.854.26.26,0,0,0-.067.352l.535.83a.262.262,0,0,0,.173.116.25.25,0,0,0,.2-.044,8.257,8.257,0,0,0,2.125-2.7.12.12,0,0,1,.221.008,7.98,7.98,0,0,0,1.768,2.711.256.256,0,0,0,.179.072h.008a.264.264,0,0,0,.186-.086l.756-.829a.121.121,0,0,0-.007-.17A6.37,6.37,0,0,1,2680.738,431.169Z" transform="translate(-2676.273 -422.13)"/>
    </g>
    <g id="组_17" data-name="组 17">
      <path id="路径_62" data-name="路径 62" class="cls-2" d="M2487.571,422.517h-3.115V422a.122.122,0,0,0-.122-.123h-1.37a.122.122,0,0,0-.122.122v.52h-.964a.122.122,0,0,0-.122.122v1.37a.122.122,0,0,0,.122.122h.96c-.005,2.1-.012,4.974-.012,5.527,0,2.717-.621,3.749-1.045,4.3a.122.122,0,0,0,.011.16l.875.875a.262.262,0,0,0,.185.077h.008a.259.259,0,0,0,.186-.087c.883-1,1.4-2.192,1.4-5.327,0-.552.007-3.431.013-5.527h1.625s-.014,4.927-.014,5.527c0,2.778-.62,3.776-1.041,4.3a.121.121,0,0,0,.01.162l.87.87a.261.261,0,0,0,.385-.018c.937-1.115,1.392-2.854,1.392-5.317,0-.545.013-6.122.014-7.02A.122.122,0,0,0,2487.571,422.517Z" transform="translate(-2481.755 -421.874)"/>
      <path id="路径_63" data-name="路径 63" class="cls-2" d="M2518.939,424.851h-5.565a.122.122,0,0,0-.122.122v11.738a.122.122,0,0,0,.122.122h5.565a.123.123,0,0,0,.123-.122V424.973A.123.123,0,0,0,2518.939,424.851Zm-1.493,1.615v8.753h-2.58v-8.753Z" transform="translate(-2506.452 -424.208)"/>
    </g>
    <g id="组_18" data-name="组 18" transform="translate(20.809 0.055)">
      <path id="路径_64" data-name="路径 64" class="cls-2" d="M2593.017,463.967h-1.263a.122.122,0,0,0-.122.122v1.981a.122.122,0,0,1-.122.122h-3.322a.122.122,0,0,1-.122-.122v-2.41a.123.123,0,0,0-.123-.122h-1.263a.122.122,0,0,0-.122.122v2.41a.122.122,0,0,1-.122.122h-3.322a.122.122,0,0,1-.122-.122V464.09a.123.123,0,0,0-.123-.122h-1.262a.122.122,0,0,0-.122.122v3.489a.122.122,0,0,0,.122.122h11.41a.122.122,0,0,0,.122-.122V464.09A.122.122,0,0,0,2593.017,463.967Z" transform="translate(-2580.767 -454.6)"/>
      <path id="路径_65" data-name="路径 65" class="cls-2" d="M2579.647,425.73h1.262a.123.123,0,0,0,.123-.122V424.4a.122.122,0,0,1,.122-.122h9.241a.122.122,0,0,1,.123.122v1.207a.122.122,0,0,0,.122.122h1.262a.123.123,0,0,0,.123-.122v-2.714a.123.123,0,0,0-.123-.122h-5.252a.122.122,0,0,1-.122-.122v-.4a.123.123,0,0,0-.123-.122h-1.263a.122.122,0,0,0-.122.122v.4a.122.122,0,0,1-.122.122h-5.252a.123.123,0,0,0-.123.122v2.714A.123.123,0,0,0,2579.647,425.73Z" transform="translate(-2579.23 -422.13)"/>
      <path id="路径_66" data-name="路径 66" class="cls-2" d="M2595.573,438.729a2.586,2.586,0,0,0-2.39-1.5,2.126,2.126,0,0,0-2,.915,2.277,2.277,0,0,0-1.688.6,2.172,2.172,0,0,0-.711,1.587,2.2,2.2,0,0,0,2.193,2.193h4.572a1.9,1.9,0,0,0,1.894-1.894,1.933,1.933,0,0,0-.609-1.393A1.782,1.782,0,0,0,2595.573,438.729Zm.225,1.956h0a.6.6,0,0,1-.6.463h-3.9a.87.87,0,0,1-.878-.756.86.86,0,0,1,.535-.878,1.316,1.316,0,0,1,.944.109,1.288,1.288,0,0,1,1.272-.943,1.319,1.319,0,0,1,1.26.936c.021.086.036.165.046.236a.258.258,0,0,0,.333.208,1.394,1.394,0,0,1,.416-.073.581.581,0,0,1,.568.7Z" transform="translate(-2586.491 -433.97)"/>
      <path id="路径_67" data-name="路径 67" class="cls-2" d="M2580.079,448.343a.178.178,0,0,0-.033-.192,2.324,2.324,0,0,1-.618-1.435,2.411,2.411,0,0,1,.368-1.464.177.177,0,0,0-.185-.269,1.659,1.659,0,0,0-1.449,1.767,1.756,1.756,0,0,0,1.754,1.7A.178.178,0,0,0,2580.079,448.343Z" transform="translate(-2578.16 -440.048)"/>
      <path id="路径_68" data-name="路径 68" class="cls-2" d="M2630.9,445.314a.177.177,0,0,0-.169.278,2.185,2.185,0,0,1,.375,1.289,2.542,2.542,0,0,1-.392,1.43.178.178,0,0,0,0,.2.174.174,0,0,0,.147.081l.03,0a1.852,1.852,0,0,0,1.614-1.63A1.676,1.676,0,0,0,2630.9,445.314Z" transform="translate(-2619.349 -440.308)"/>
    </g>
  </g>
</svg>
