<svg width="400" height="400" viewBox="0 0 400 400" fill="none" xmlns="http://www.w3.org/2000/svg">
<g clip-path="url(#clip0)">
<path fill-rule="evenodd" clip-rule="evenodd" d="M220.737 45.9612L325.307 99.1824C332.752 102.945 339.001 108.683 343.359 115.76C347.718 122.837 350.017 130.975 350 139.271V163.534H311.426V139.271C311.428 138.017 311.079 136.786 310.419 135.716C309.759 134.646 308.814 133.779 307.688 133.21L203.127 79.9891C202.156 79.4965 201.081 79.2396 199.991 79.2396C198.9 79.2396 197.826 79.4965 196.855 79.9891L92.2841 133.21C91.1597 133.78 90.2162 134.648 89.5579 135.718C88.8997 136.788 88.5525 138.018 88.5548 139.271V163.534H50.0001V139.271C49.9822 130.976 52.2793 122.839 56.6365 115.762C60.9937 108.685 67.2404 102.946 74.683 99.1824L179.263 45.9612C185.682 42.7004 192.79 41 200 41C207.21 41 214.318 42.7004 220.737 45.9612ZM232.989 197.899C232.989 179.847 218.185 165.162 199.991 165.162C191.245 165.164 182.858 168.613 176.67 174.75C170.482 180.888 166.998 189.213 166.983 197.899C166.983 215.951 181.787 230.636 199.991 230.636C208.733 230.629 217.117 227.178 223.302 221.042C229.488 214.905 232.972 206.582 232.989 197.899ZM307.706 265.824C308.832 265.255 309.776 264.387 310.434 263.317C311.092 262.247 311.439 261.017 311.436 259.763V235.5H350V259.772C350.017 268.065 347.72 276.2 343.365 283.275C339.01 290.349 332.766 296.087 325.326 299.852L220.737 353.073C214.315 356.326 207.209 358.025 200 358.03C192.791 358.025 185.685 356.326 179.263 353.073L74.6736 299.852C67.2335 296.088 60.9891 290.35 56.6336 283.275C52.2781 276.2 49.9819 268.065 50.0001 259.772V235.5H88.5548V259.772C88.5548 262.335 89.9863 264.655 92.2841 265.824L180.713 310.823V266.235C150.587 257.873 128.419 230.412 128.419 197.899C128.419 158.755 160.532 126.906 199.991 126.906C239.449 126.906 271.563 158.755 271.563 197.899C271.563 230.412 249.394 257.873 219.268 266.235V310.833L307.697 265.824H307.706Z" fill="#245AE5" fill-opacity="0.9"/>
</g>
<defs>
<clipPath id="clip0">
<rect width="300" height="318" fill="white" transform="translate(50 41)"/>
</clipPath>
</defs>
</svg>
