<?xml version="1.0" standalone="no"?><!DOCTYPE svg PUBLIC "-//W3C//DTD SVG 1.1//EN" "http://www.w3.org/Graphics/SVG/1.1/DTD/svg11.dtd"><svg width="267" height="48" viewBox="0 0 267 48" fill="none" version="1.1" xmlns="http://www.w3.org/2000/svg" xmlns:xlink="http://www.w3.org/1999/xlink" style="block-size:48px;fill:none;height:48px;inline-size:267px;perspective-origin:133.5px 24px;transform-origin:133.5px 24px;width:267px;"><script style="block-size:auto;fill:none;height:auto;inline-size:auto;overflow-x:visible;overflow-y:visible;perspective-origin:50% 50%;transform-origin:0px 0px;width:auto;"/>
    <g clip-path="url(#clip0)" style="block-size:auto;clip-path:url(&quot;#clip0&quot;);fill:none;height:auto;inline-size:auto;overflow-x:visible;overflow-y:visible;perspective-origin:0px 0px;transform-origin:0px 0px;width:auto;">
    <path d="M24.0532 0.461853C11.1315 0.461853 0.656738 10.9261 0.656738 23.835C0.656738 36.7439 11.1315 47.2082 24.0532 47.2082C36.975 47.2082 47.4497 36.7439 47.4497 23.835C47.4497 10.9264 36.9747 0.461853 24.0532 0.461853ZM33.6751 33.5971L23.8993 39.2451V39.2471H23.8952L14.1133 33.5971V14.0527L14.1234 14.0588L23.8912 8.42289L30.1606 11.9177H30.1626V20.7408L27.112 18.9904V13.6763L23.8952 11.8449L17.1619 15.7343V31.9357L23.8952 35.8251L30.6285 31.9478L30.6609 25.29L21.0937 19.7452L24.1666 18.1303L33.6994 23.6832L33.6751 33.5991V33.5971ZM25.7386 23.1996L28.0944 24.5534L21.0937 28.5359V20.5061L23.5529 21.955V24.3652L25.7406 23.1996H25.7386Z" fill="#516FFA" style="block-size:auto;d:path(&quot;M 24.0532 0.461853 C 11.1315 0.461853 0.656738 10.9261 0.656738 23.835 C 0.656738 36.7439 11.1315 47.2082 24.0532 47.2082 C 36.975 47.2082 47.4497 36.7439 47.4497 23.835 C 47.4497 10.9264 36.9747 0.461853 24.0532 0.461853 Z M 33.6751 33.5971 L 23.8993 39.2451 V 39.2471 H 23.8952 L 14.1133 33.5971 V 14.0527 L 14.1234 14.0588 L 23.8912 8.42289 L 30.1606 11.9177 H 30.1626 V 20.7408 L 27.112 18.9904 V 13.6763 L 23.8952 11.8449 L 17.1619 15.7343 V 31.9357 L 23.8952 35.8251 L 30.6285 31.9478 L 30.6609 25.29 L 21.0937 19.7452 L 24.1666 18.1303 L 33.6994 23.6832 L 33.6751 33.5991 V 33.5971 Z M 25.7386 23.1996 L 28.0944 24.5534 L 21.0937 28.5359 V 20.5061 L 23.5529 21.955 V 24.3652 L 25.7406 23.1996 H 25.7386 Z&quot;);fill:rgb(81, 111, 250);height:auto;inline-size:auto;overflow-x:visible;overflow-y:visible;perspective-origin:0px 0px;transform-origin:0px 0px;width:auto;"/>
    
    </g>
    <defs style="block-size:auto;fill:none;height:auto;inline-size:auto;overflow-x:visible;overflow-y:visible;perspective-origin:0px 0px;transform-origin:0px 0px;width:auto;">
    <clipPath id="clip0" style="block-size:auto;fill:none;height:auto;inline-size:auto;overflow-x:visible;overflow-y:visible;perspective-origin:0px 0px;transform-origin:0px 0px;width:auto;">
    <rect x="0.656738" y="0.461853" width="265.869" height="47.0499" fill="white" style="block-size:47.0499px;fill:rgb(255, 255, 255);height:47.0499px;inline-size:265.869px;overflow-x:visible;overflow-y:visible;perspective-origin:0px 0px;transform-origin:0px 0px;width:265.869px;x:0.656738px;y:0.461853px;"/>
    </clipPath>
    </defs>
    </svg>