<svg width="400" height="400" viewBox="0 0 400 400" fill="none" xmlns="http://www.w3.org/2000/svg">
<path d="M200.169 30.3613C106.066 30.3613 29.7827 106.663 29.7827 200.791C29.7827 294.918 106.066 371.22 200.169 371.22C294.273 371.22 370.555 294.918 370.555 200.791C370.555 106.665 294.271 30.3613 200.169 30.3613ZM270.241 271.972L199.048 313.156V313.17H199.018L127.781 271.972V129.461L127.855 129.506L198.989 88.4106L244.646 113.894H244.661V178.229L222.445 165.465V126.717L199.018 113.363L149.983 141.723V259.858L199.018 288.218L248.054 259.946L248.29 211.4L178.616 170.969L200.995 159.194L270.418 199.684L270.241 271.987V271.972ZM212.443 196.157L229.599 206.029L178.616 235.068V176.517L196.525 187.082V204.657L212.458 196.157H212.443Z" fill="#516FFA"/>
</svg>
