<svg width="400" height="400" viewBox="0 0 400 400" fill="none" xmlns="http://www.w3.org/2000/svg">
<path d="M142.573 43.9966C133.074 56.0266 117.875 64.2576 97.6108 68.6897C71.6466 75.0213 64.6807 80.0865 50.1154 104.78C40.6163 120.609 33.0171 136.438 33.0171 140.87C33.0171 152.9 96.3442 185.824 103.943 178.226C108.376 173.794 102.044 166.196 84.3121 154.799C70.3801 145.302 58.3479 135.804 58.3479 134.538C58.3479 133.272 62.7808 123.774 67.847 113.644C75.4463 99.0812 84.9453 92.7497 106.477 87.6844C124.208 83.2523 142.573 73.1218 152.072 61.725C166.637 45.2629 171.703 43.9966 212.866 43.9966H258.462L300.891 87.0513L343.953 130.739L308.49 144.035L273.66 157.965L246.43 144.669L219.199 131.372L126.108 192.155C74.813 225.713 33.0171 256.737 33.0171 261.169C33.0171 265.602 41.2496 282.697 51.382 298.526C67.847 324.485 73.5465 328.284 98.8773 332.083C121.042 335.882 131.174 340.947 141.306 354.877C153.972 372.605 155.872 373.238 209.067 373.238H264.161L316.723 320.686C345.22 292.194 368.651 265.602 368.651 262.436C368.651 258.637 347.12 247.873 321.156 237.743C273.66 219.381 273.027 219.381 247.696 230.778C222.998 242.175 222.365 242.175 198.301 228.878C169.17 212.416 166.004 211.783 166.004 224.446C166.004 229.512 178.669 240.908 193.868 249.773L222.365 266.235L247.696 252.938L273.66 240.275L305.324 253.572C323.055 261.169 336.987 268.767 336.987 271.3C336.987 273.833 319.256 293.46 297.091 314.988L257.195 354.244H212.866C171.703 354.244 167.271 352.977 150.172 335.249C138.773 323.219 123.575 315.621 106.477 313.088C86.2119 309.923 77.9794 304.857 69.1136 289.662C63.4141 279.531 58.3479 268.767 58.3479 265.602C58.3479 259.903 213.499 157.965 222.365 157.965C225.532 157.965 238.197 163.663 249.596 169.995L270.494 182.658L317.989 161.764C343.953 151 365.485 138.337 365.485 134.538C365.485 130.739 343.32 104.146 315.456 76.2876L266.061 25.0019L210.966 25.635C159.038 25.635 155.872 26.2682 142.573 43.9966Z" fill="black"/>
</svg>
