<?xml version="1.0" standalone="no"?><!DOCTYPE svg PUBLIC "-//W3C//DTD SVG 1.1//EN" "http://www.w3.org/Graphics/SVG/1.1/DTD/svg11.dtd"><svg xmlns:xlink="http://www.w3.org/1999/xlink" width="28px" height="34px" viewBox="0 0 28 34" version="1.1" xmlns="http://www.w3.org/2000/svg" style="block-size:34px;height:34px;inline-size:28px;perspective-origin:14px 17px;transform-origin:14px 17px;width:28px;"><script style="block-size:auto;height:auto;inline-size:auto;overflow-x:visible;overflow-y:visible;perspective-origin:50% 50%;transform-origin:0px 0px;width:auto;"/>
    <!-- Generator: Sketch 50.2 (55047) - http://www.bohemiancoding.com/sketch -->
    <title style="block-size:auto;height:auto;inline-size:auto;overflow-x:visible;overflow-y:visible;perspective-origin:50% 50%;transform-origin:0px 0px;width:auto;">symbole</title>
    <desc style="block-size:auto;height:auto;inline-size:auto;overflow-x:visible;overflow-y:visible;perspective-origin:50% 50%;transform-origin:0px 0px;width:auto;">Created with Sketch.</desc>
    <defs style="block-size:auto;height:auto;inline-size:auto;overflow-x:visible;overflow-y:visible;perspective-origin:0px 0px;transform-origin:0px 0px;width:auto;"/>
    <g id="Page-1" stroke="none" stroke-width="1" fill="none" fill-rule="evenodd" style="block-size:auto;fill:none;fill-rule:evenodd;height:auto;inline-size:auto;overflow-x:visible;overflow-y:visible;perspective-origin:0px 0px;transform-origin:0px 0px;width:auto;">
        <g id="autres" transform="translate(-10.000000, -14.000000)" fill="#3C80F1" style="block-size:auto;fill:rgb(60, 128, 241);fill-rule:evenodd;height:auto;inline-size:auto;overflow-x:visible;overflow-y:visible;perspective-origin:0px 0px;transform:matrix(1, 0, 0, 1, -10, -14);transform-origin:0px 0px;width:auto;">
            <g id="menu" transform="translate(10.000000, 14.000000)" style="block-size:auto;fill:rgb(60, 128, 241);fill-rule:evenodd;height:auto;inline-size:auto;overflow-x:visible;overflow-y:visible;perspective-origin:0px 0px;transform:matrix(1, 0, 0, 1, 10, 14);transform-origin:0px 0px;width:auto;">
                <g id="logo" transform="translate(0.044922, 0.500000)" style="block-size:auto;fill:rgb(60, 128, 241);fill-rule:evenodd;height:auto;inline-size:auto;overflow-x:visible;overflow-y:visible;perspective-origin:0px 0px;transform:matrix(1, 0, 0, 1, 0.044922, 0.5);transform-origin:0px 0px;width:auto;">
                    <g id="symbole" transform="translate(0.833180, 0.027637)" style="block-size:auto;fill:rgb(60, 128, 241);fill-rule:evenodd;height:auto;inline-size:auto;overflow-x:visible;overflow-y:visible;perspective-origin:0px 0px;transform:matrix(1, 0, 0, 1, 0.83318, 0.027637);transform-origin:0px 0px;width:auto;">
                        <path d="M13.4524343,0.0170071578 C6.03482535,0.0170071578 9.10284987e-05,6.05174148 9.10284987e-05,13.4696538 C9.10284987e-05,14.1805864 0.0794375366,14.9003184 0.226903704,15.6246018 C0.257398252,15.7751023 0.43111097,15.8395808 0.555364871,15.7493109 C0.64533137,15.6839221 0.739849295,15.6226296 0.839222073,15.5667987 C1.29284742,15.3113121 1.80731016,15.1762865 2.32677946,15.1764382 L2.3293586,15.1764382 C2.45907421,15.1765899 2.56117784,15.0637146 2.53796557,14.936123 C2.44754393,14.4391074 2.39869197,13.9490706 2.39869197,13.4696538 C2.39869197,7.37438557 7.35731772,2.41575981 13.4524343,2.41575981 C19.5475508,2.41575981 24.5063283,7.37438557 24.5063283,13.4696538 C24.5063283,19.5667427 16.705186,27.3543825 13.9134936,30.1048086 C13.6574001,30.3571092 13.2473167,30.3569575 12.9912232,30.1046568 C12.1699945,29.2955652 10.9151666,28.0501436 9.55322854,26.5407394 C9.5345677,26.5389188 9.51514829,26.5384637 9.49648744,26.5364914 C8.42371659,26.4305949 7.37461314,26.1792045 6.37997508,25.7900577 C6.3180757,25.7659352 6.25617632,25.7412058 6.19473208,25.7158695 C5.9967451,25.634399 5.82197038,25.8731971 5.95805798,26.0385655 C7.74980227,28.2155121 9.70388071,30.2342207 11.4529933,31.9563282 C12.0043226,32.4990098 12.7284543,32.7702747 13.4524343,32.7702747 C14.176566,32.7702747 14.9006977,32.4990098 15.452027,31.9561765 C20.3686279,27.1154327 26.9049293,19.9325255 26.9049293,13.4696538 C26.9049293,6.05174148 20.8701949,0.0170071578 13.4524343,0.0170071578" id="Fill-13" style="block-size:auto;d:path(&quot;M 13.4524 0.0170072 C 6.03483 0.0170072 0.0000910285 6.05174 0.0000910285 13.4697 C 0.0000910285 14.1806 0.0794376 14.9003 0.226904 15.6246 C 0.257398 15.7751 0.431111 15.8396 0.555365 15.7493 C 0.645331 15.6839 0.739849 15.6226 0.839222 15.5668 C 1.29285 15.3113 1.80731 15.1763 2.32678 15.1764 L 2.32936 15.1764 C 2.45907 15.1766 2.56118 15.0637 2.53797 14.9361 C 2.44754 14.4391 2.39869 13.9491 2.39869 13.4697 C 2.39869 7.37439 7.35732 2.41576 13.4524 2.41576 C 19.5476 2.41576 24.5063 7.37439 24.5063 13.4697 C 24.5063 19.5667 16.7052 27.3544 13.9135 30.1048 C 13.6574 30.3571 13.2473 30.357 12.9912 30.1047 C 12.17 29.2956 10.9152 28.0501 9.55323 26.5407 C 9.53457 26.5389 9.51515 26.5385 9.49649 26.5365 C 8.42372 26.4306 7.37461 26.1792 6.37998 25.7901 C 6.31808 25.7659 6.25618 25.7412 6.19473 25.7159 C 5.99675 25.6344 5.82197 25.8732 5.95806 26.0386 C 7.7498 28.2155 9.70388 30.2342 11.453 31.9563 C 12.0043 32.499 12.7285 32.7703 13.4524 32.7703 C 14.1766 32.7703 14.9007 32.499 15.452 31.9562 C 20.3686 27.1154 26.9049 19.9325 26.9049 13.4697 C 26.9049 6.05174 20.8702 0.0170072 13.4524 0.0170072&quot;);fill:rgb(60, 128, 241);fill-rule:evenodd;height:auto;inline-size:auto;overflow-x:visible;overflow-y:visible;perspective-origin:0px 0px;transform-origin:0px 0px;width:auto;"/>
                        <path d="M19.0477134,14.8285424 C19.0413414,15.0171231 19.0328454,15.205097 19.0169154,15.389278 C18.9557746,16.1285811 18.810129,16.818122 18.539926,17.4454601 C18.2712403,18.0738601 17.8726872,18.6576562 17.3796161,19.2334115 L17.3941807,19.2458521 C16.461442,20.2835769 15.2949118,21.1392448 13.9951765,21.679499 C12.6993859,22.2226357 11.2822238,22.4627992 9.91300351,22.3241325 C8.59020771,22.1962374 7.32369786,21.7109038 6.23757616,20.930031 C6.57043704,20.917287 6.91346276,20.8707108 7.26528791,20.7719448 C7.55430339,20.6901709 7.84908402,20.5710753 8.13112065,20.400852 C8.41300557,20.232601 8.68108449,20.0106432 8.90319403,19.7484811 C9.12727585,19.4872293 9.30038171,19.1882007 9.42372533,18.8859861 C9.54433809,18.583468 9.6173126,18.2783708 9.65569629,17.9858659 C9.69514197,17.700795 9.69271454,17.3832573 9.69195597,17.2057517 L9.69195597,16.5790205 L9.69195597,15.3257098 L9.69195597,10.3130738 L9.69195597,9.06006648 L9.69195597,8.43348698 L9.69195597,8.39571015 L9.69256283,8.38372473 C9.69271454,8.37553217 9.69241112,8.36749132 9.69362483,8.35975389 C9.6943834,8.34412734 9.69665911,8.3288042 9.69878311,8.3137845 C9.70363796,8.28328996 9.71092024,8.25400912 9.72138852,8.22579029 C9.76174449,8.11215638 9.85095242,8.00929417 9.95957976,7.95209793 C10.0137417,7.92266539 10.0713931,7.90491483 10.1328373,7.89793598 C10.1481605,7.89626712 10.1636353,7.89429484 10.179717,7.89459827 L10.1917024,7.89399141 L10.2252313,7.89383969 L10.3035158,7.89383969 L10.6168055,7.89383969 L11.8699645,7.89383969 L12.496544,7.89383969 L12.6532648,7.89383969 L12.7304873,7.89399141 L12.7923866,7.89626712 C12.8750709,7.90051512 12.9571482,7.89748083 13.0404393,7.90628026 C13.7055542,7.94830508 14.3849302,8.14356121 15.025164,8.44001069 C16.3104864,9.03503364 17.4321092,10.0595594 18.1563926,11.2811618 C18.3363256,11.5876245 18.4924395,11.9057691 18.6232171,12.2328648 C18.7518707,12.5607191 18.8498781,12.8979797 18.923156,13.2391849 C18.9987097,13.58039 19.0346659,13.9282706 19.0475616,14.2763029 C19.0484719,14.365966 19.0557542,14.4454642 19.0525682,14.5431681 L19.0477134,14.8285424 Z M21.4447972,14.1958944 C21.42735,13.7099539 21.3745535,13.2234066 21.2709327,12.7483895 C21.1697394,12.2729173 21.0325898,11.8057894 20.8556911,11.3556535 C20.6769718,10.9065796 20.4639651,10.4732839 20.2206156,10.0594077 C19.2364458,8.41027471 17.7821138,7.08034834 16.0360355,6.264733 C15.1623136,5.86117332 14.2100038,5.58004697 13.2050492,5.51329274 C13.0803401,5.50161075 12.9532037,5.50267275 12.8272809,5.49781789 L12.7326113,5.49523875 L12.6532648,5.49508704 L12.496544,5.49508704 L11.8699645,5.49508704 L10.6168055,5.49508704 L10.3035158,5.49508704 L10.2252313,5.49508704 L10.1140248,5.4967559 C10.0257271,5.49857647 9.93697435,5.50570703 9.84882842,5.51617531 C9.49533442,5.55774499 9.14730212,5.66622062 8.83295037,5.83431991 C8.20272973,6.16824279 7.70738299,6.73747433 7.46524718,7.41123694 C7.40425809,7.57933623 7.35950241,7.75320066 7.33113186,7.92888567 C7.31732587,8.01718331 7.30640245,8.10563267 7.30078903,8.19408203 C7.29699617,8.23838256 7.29563074,8.28253138 7.29456874,8.32668021 L7.29320332,8.43348698 L7.29320332,9.06006648 L7.29320332,10.3130738 L7.29320332,15.3257098 L7.29320332,16.5790205 L7.29320332,17.2057517 C7.29396189,17.4456118 7.29320332,17.5469568 7.27712162,17.6765207 C7.26103991,17.7978921 7.23297279,17.9013611 7.19989911,17.9872313 C7.16409456,18.0709776 7.12525574,18.1377318 7.0767072,18.193866 C6.98325128,18.3035554 6.83957797,18.3985284 6.61155158,18.464069 C6.38701461,18.5293061 6.09602685,18.5502426 5.79077795,18.5262718 C5.48401191,18.5013907 5.16116416,18.4340296 4.84590213,18.3296502 C4.21461949,18.123319 3.60821798,17.7731627 3.15565462,17.3422944 L3.15337891,17.3400187 C2.78167921,16.9869799 2.20926166,16.9005028 1.73909947,17.1650923 C1.16197879,17.4903675 0.957619807,18.2216297 1.28274326,18.7989021 C2.12536373,20.2949555 3.24668312,21.7002838 4.69009168,22.7710824 C5.40876168,23.3057231 6.20313705,23.7523696 7.04651609,24.0812859 C7.88928827,24.4109608 8.77894013,24.622602 9.67663284,24.7112031 C11.4758111,24.891743 13.2886437,24.5761775 14.9223018,23.8916432 C16.5556565,23.20544 18.039421,22.1543643 19.1844078,20.784082 L19.1989724,20.7966742 C19.7923265,20.1059197 20.3565515,19.3007726 20.7450914,18.3894256 C21.1372725,17.4797475 21.3322252,16.5105974 21.4074755,15.5869616 C21.42735,15.3551423 21.4378183,15.1252953 21.445404,14.8966621 L21.4511692,14.5556087 C21.4545069,14.4445539 21.4469212,14.3152934 21.4447972,14.1958944 Z" id="Fill-16" style="block-size:auto;d:path(&quot;M 19.0477 14.8285 C 19.0413 15.0171 19.0328 15.2051 19.0169 15.3893 C 18.9558 16.1286 18.8101 16.8181 18.5399 17.4455 C 18.2712 18.0739 17.8727 18.6577 17.3796 19.2334 L 17.3942 19.2459 C 16.4614 20.2836 15.2949 21.1392 13.9952 21.6795 C 12.6994 22.2226 11.2822 22.4628 9.913 22.3241 C 8.59021 22.1962 7.3237 21.7109 6.23758 20.93 C 6.57044 20.9173 6.91346 20.8707 7.26529 20.7719 C 7.5543 20.6902 7.84908 20.5711 8.13112 20.4009 C 8.41301 20.2326 8.68108 20.0106 8.90319 19.7485 C 9.12728 19.4872 9.30038 19.1882 9.42373 18.886 C 9.54434 18.5835 9.61731 18.2784 9.6557 17.9859 C 9.69514 17.7008 9.69271 17.3833 9.69196 17.2058 L 9.69196 16.579 L 9.69196 15.3257 L 9.69196 10.3131 L 9.69196 9.06007 L 9.69196 8.43349 L 9.69196 8.39571 L 9.69256 8.38373 C 9.69271 8.37553 9.69241 8.36749 9.69362 8.35975 C 9.69438 8.34413 9.69666 8.3288 9.69878 8.31378 C 9.70364 8.28329 9.71092 8.25401 9.72139 8.22579 C 9.76174 8.11216 9.85095 8.00929 9.95958 7.9521 C 10.0137 7.92267 10.0714 7.90491 10.1328 7.89794 C 10.1482 7.89627 10.1636 7.89429 10.1797 7.8946 L 10.1917 7.89399 L 10.2252 7.89384 L 10.3035 7.89384 L 10.6168 7.89384 L 11.87 7.89384 L 12.4965 7.89384 L 12.6533 7.89384 L 12.7305 7.89399 L 12.7924 7.89627 C 12.8751 7.90052 12.9571 7.89748 13.0404 7.90628 C 13.7056 7.94831 14.3849 8.14356 15.0252 8.44001 C 16.3105 9.03503 17.4321 10.0596 18.1564 11.2812 C 18.3363 11.5876 18.4924 11.9058 18.6232 12.2329 C 18.7519 12.5607 18.8499 12.898 18.9232 13.2392 C 18.9987 13.5804 19.0347 13.9283 19.0476 14.2763 C 19.0485 14.366 19.0558 14.4455 19.0526 14.5432 L 19.0477 14.8285 Z M 21.4448 14.1959 C 21.4273 13.71 21.3746 13.2234 21.2709 12.7484 C 21.1697 12.2729 21.0326 11.8058 20.8557 11.3557 C 20.677 10.9066 20.464 10.4733 20.2206 10.0594 C 19.2364 8.41027 17.7821 7.08035 16.036 6.26473 C 15.1623 5.86117 14.21 5.58005 13.205 5.51329 C 13.0803 5.50161 12.9532 5.50267 12.8273 5.49782 L 12.7326 5.49524 L 12.6533 5.49509 L 12.4965 5.49509 L 11.87 5.49509 L 10.6168 5.49509 L 10.3035 5.49509 L 10.2252 5.49509 L 10.114 5.49676 C 10.0257 5.49858 9.93697 5.50571 9.84883 5.51618 C 9.49533 5.55774 9.1473 5.66622 8.83295 5.83432 C 8.20273 6.16824 7.70738 6.73747 7.46525 7.41124 C 7.40426 7.57934 7.3595 7.7532 7.33113 7.92889 C 7.31733 8.01718 7.3064 8.10563 7.30079 8.19408 C 7.297 8.23838 7.29563 8.28253 7.29457 8.32668 L 7.2932 8.43349 L 7.2932 9.06007 L 7.2932 10.3131 L 7.2932 15.3257 L 7.2932 16.579 L 7.2932 17.2058 C 7.29396 17.4456 7.2932 17.547 7.27712 17.6765 C 7.26104 17.7979 7.23297 17.9014 7.1999 17.9872 C 7.16409 18.071 7.12526 18.1377 7.07671 18.1939 C 6.98325 18.3036 6.83958 18.3985 6.61155 18.4641 C 6.38701 18.5293 6.09603 18.5502 5.79078 18.5263 C 5.48401 18.5014 5.16116 18.434 4.8459 18.3297 C 4.21462 18.1233 3.60822 17.7732 3.15565 17.3423 L 3.15338 17.34 C 2.78168 16.987 2.20926 16.9005 1.7391 17.1651 C 1.16198 17.4904 0.95762 18.2216 1.28274 18.7989 C 2.12536 20.295 3.24668 21.7003 4.69009 22.7711 C 5.40876 23.3057 6.20314 23.7524 7.04652 24.0813 C 7.88929 24.411 8.77894 24.6226 9.67663 24.7112 C 11.4758 24.8917 13.2886 24.5762 14.9223 23.8916 C 16.5557 23.2054 18.0394 22.1544 19.1844 20.7841 L 19.199 20.7967 C 19.7923 20.1059 20.3566 19.3008 20.7451 18.3894 C 21.1373 17.4797 21.3322 16.5106 21.4075 15.587 C 21.4273 15.3551 21.4378 15.1253 21.4454 14.8967 L 21.4512 14.5556 C 21.4545 14.4446 21.4469 14.3153 21.4448 14.1959 Z&quot;);fill:rgb(60, 128, 241);fill-rule:evenodd;height:auto;inline-size:auto;overflow-x:visible;overflow-y:visible;perspective-origin:0px 0px;transform-origin:0px 0px;width:auto;"/>
                    </g>
                </g>
            </g>
        </g>
    </g>
</svg>