<svg width="400" height="400" viewBox="0 0 400 400" fill="none" xmlns="http://www.w3.org/2000/svg">
<path fill-rule="evenodd" clip-rule="evenodd" d="M199.28 25C120.275 25 56 89.4869 56 168.754C56 176.351 56.8451 184.042 58.4158 191.782C58.7406 193.39 60.5908 194.079 61.9142 193.115C62.8724 192.416 63.8791 191.761 64.9375 191.164C69.769 188.434 75.2485 186.991 80.7814 186.993H80.8088C82.1904 186.995 83.2779 185.788 83.0307 184.425C82.0676 179.114 81.5473 173.877 81.5473 168.754C81.5473 103.621 134.361 50.633 199.28 50.633C264.198 50.633 317.014 103.621 317.014 168.754C317.014 233.908 233.925 317.126 204.191 346.517C201.463 349.213 197.095 349.211 194.368 346.515C185.621 337.869 172.256 324.561 157.75 308.431C157.551 308.412 157.344 308.407 157.145 308.386C145.719 307.254 134.545 304.568 123.952 300.41C123.292 300.152 122.633 299.888 121.979 299.617C119.87 298.746 118.008 301.298 119.458 303.065C138.542 326.328 159.354 347.9 177.984 366.302C183.856 372.101 191.569 375 199.28 375C206.993 375 214.705 372.101 220.577 366.301C272.944 314.573 342.561 237.816 342.561 168.754C342.561 89.4869 278.286 25 199.28 25Z" fill="#3C80F1"/>
<path fill-rule="evenodd" clip-rule="evenodd" d="M258.874 183.28C258.806 185.295 258.716 187.304 258.546 189.272C257.895 197.172 256.344 204.54 253.466 211.244C250.604 217.959 246.359 224.198 241.107 230.35L241.262 230.483C231.328 241.572 218.903 250.716 205.06 256.489C191.259 262.293 176.165 264.859 161.581 263.377C147.492 262.011 134.003 256.824 122.434 248.48C125.98 248.344 129.633 247.846 133.38 246.791C136.459 245.917 139.598 244.644 142.602 242.825C145.605 241.027 148.46 238.656 150.826 235.854C153.212 233.062 155.056 229.867 156.37 226.638C157.654 223.405 158.432 220.145 158.841 217.019C159.261 213.973 159.235 210.579 159.227 208.683V201.985V188.593V135.028V121.638V114.943V114.539L159.233 114.411C159.235 114.323 159.232 114.237 159.244 114.155C159.253 113.988 159.277 113.824 159.299 113.663C159.351 113.338 159.429 113.025 159.54 112.723C159.97 111.509 160.92 110.41 162.077 109.798C162.654 109.484 163.268 109.294 163.923 109.22C164.086 109.202 164.251 109.181 164.422 109.184L164.549 109.178L164.907 109.176H165.74H169.077H182.424H189.098H190.767L191.59 109.178L192.249 109.202C193.13 109.247 194.004 109.215 194.891 109.309C201.975 109.758 209.211 111.844 216.03 115.012C229.72 121.371 241.666 132.319 249.381 145.373C251.297 148.648 252.96 152.047 254.353 155.543C255.723 159.046 256.767 162.65 257.547 166.296C258.352 169.942 258.735 173.66 258.873 177.379C258.882 178.337 258.96 179.186 258.926 180.23L258.874 183.28ZM284.405 176.519C284.219 171.327 283.657 166.127 282.553 161.051C281.476 155.971 280.015 150.979 278.131 146.169C276.227 141.37 273.959 136.74 271.367 132.317C260.884 114.695 245.394 100.483 226.797 91.7674C217.491 87.4549 207.348 84.4508 196.644 83.7375C195.316 83.6127 193.962 83.624 192.621 83.5721L191.612 83.5446L190.767 83.543H189.098H182.424H169.077H165.74H164.907L163.722 83.5608C162.782 83.5803 161.836 83.6565 160.898 83.7683C157.133 84.2125 153.426 85.3717 150.078 87.168C143.365 90.7363 138.089 96.8191 135.51 104.019C134.861 105.815 134.384 107.673 134.082 109.55C133.935 110.494 133.818 111.439 133.759 112.384C133.718 112.858 133.704 113.329 133.692 113.801L133.678 114.943V121.638V135.028V188.593V201.985V208.683C133.686 211.246 133.678 212.329 133.506 213.713C133.335 215.01 133.036 216.116 132.684 217.033C132.303 217.928 131.889 218.642 131.372 219.242C130.377 220.414 128.846 221.429 126.418 222.129C124.026 222.826 120.927 223.05 117.676 222.794C114.408 222.528 110.97 221.808 107.612 220.693C100.888 218.488 94.4293 214.746 89.6091 210.142L89.5848 210.117C85.6259 206.345 79.5291 205.421 74.5215 208.248C68.3746 211.724 66.198 219.538 69.6608 225.707C78.6355 241.694 90.5786 256.711 105.952 268.153C113.607 273.867 122.068 278.639 131.05 282.154C140.027 285.677 149.502 287.939 159.063 288.886C178.226 290.815 197.535 287.443 214.935 280.128C232.331 272.795 248.135 261.563 260.33 246.92L260.485 247.055C266.805 239.674 272.814 231.07 276.953 221.331C281.13 211.611 283.206 201.254 284.008 191.384C284.219 188.907 284.331 186.451 284.412 184.008L284.473 180.363C284.509 179.177 284.428 177.795 284.405 176.519Z" fill="#3C80F1"/>
</svg>
