<svg width="400" height="400" viewBox="0 0 400 400" fill="none" xmlns="http://www.w3.org/2000/svg">
<g clip-path="url(#clip0)">
<path d="M182.644 272.957H182.122L159.154 267.745L158.11 267.223V134.298L158.893 132.995L182.122 127H182.644L205.872 132.995L206.655 134.298V267.223L205.872 267.745L182.644 272.957ZM163.852 267.223L182.383 271.915L201.174 267.223L182.644 262.532L163.852 267.223ZM160.72 135.862V265.66L181.6 260.186V141.074L160.72 135.862ZM184.21 260.186L204.828 265.66L205.089 135.862L184.21 141.074V260.186ZM163.852 134.298L182.383 138.989L200.913 134.298L182.383 129.606L163.852 134.298ZM52.9269 274H52.4049L26.044 262.793L25 261.75V142.638L25.783 141.596L47.1849 127.782L47.9679 127.521C78.7658 127.521 107.476 140.032 119.482 158.537C132.793 179.128 130.444 205.452 130.444 207.016C130.444 211.447 129.922 217.702 128.878 222.394C123.919 241.941 109.303 257.059 86.3348 266.181C69.1089 272.957 52.9269 274 52.9269 274ZM32.047 262.793L52.9269 271.915C55.0149 271.654 69.6309 270.351 85.2908 264.096C100.69 257.84 120.526 245.59 126.268 221.872C127.573 216.92 128.617 210.144 128.356 205.713C127.051 168.441 95.4698 158.016 69.3699 155.931V168.963C69.3699 168.963 69.1089 168.963 69.3699 169.223C79.5488 171.83 102.778 178.085 106.171 201.282C106.171 201.803 106.171 202.324 106.171 202.846C106.432 205.713 106.432 208.58 105.91 211.186C105.127 218.223 102.517 227.606 96.7748 235.426C86.0738 250.803 59.7129 261.489 32.047 262.793ZM27.61 143.42V260.707C56.3199 260.447 83.7248 249.761 94.9478 234.644C97.5578 230.995 99.6458 226.824 100.951 222.915C99.9068 224.218 98.8628 225.521 97.8188 226.564C85.5518 238.814 62.8449 242.202 47.4459 240.378L45.8799 239.074V130.91L27.61 143.42ZM48.4899 238.032C53.7099 238.553 58.9299 238.553 66.7599 237.771V154.628L67.5429 153.585C100.429 155.931 120.787 168.441 127.834 190.335C126.79 181.213 123.658 170.005 117.394 160.101C105.91 142.117 79.8098 130.128 48.4899 129.867V238.032ZM69.3699 171.309V237.25C79.8098 235.426 89.9888 231.516 96.7748 224.739C100.69 220.83 103.039 216.399 103.822 211.186C104.344 207.798 104.083 204.67 103.822 202.846V202.585C103.822 202.585 103.822 201.803 103.561 201.543C100.429 179.649 78.5048 173.915 68.8479 171.309H69.3699ZM340.287 274V273.739L339.504 272.957L327.498 246.894H268.773L256.767 272.436L255.723 272.957H236.67L236.409 273.218L235.887 272.957L223.881 253.41V252.367L281.562 128.043L282.606 127H313.665L314.709 128.043L375.261 260.447L375 261.489L375.261 262.011L362.472 273.479L361.689 273.739L340.287 274ZM238.497 270.351H254.94L266.946 244.809L267.99 244.287H327.759L337.938 236.468H273.471L272.427 234.383L296.7 181.213L288.609 162.968L238.497 270.351ZM343.419 270.351H360.906L371.085 261.75L353.598 262.011L352.815 262.271L343.419 270.351ZM329.586 246.633L340.809 270.612L351.51 260.707L340.548 236.468L329.586 246.633ZM226.23 252.888L236.67 270.351L287.826 160.883H289.914L315.492 215.617H331.152L292.002 129.606H283.389L226.23 252.888ZM275.298 233.862H341.07L342.114 234.383L353.859 260.186L372.39 259.926L312.882 129.606H294.351L333.762 216.138L333.501 216.399L332.979 218.223H282.606L275.298 233.862ZM283.65 215.617H313.143L298.527 183.819L283.65 215.617Z" fill="black"/>
</g>
<defs>
<clipPath id="clip0">
<rect width="350" height="147" fill="white" transform="translate(25 127)"/>
</clipPath>
</defs>
</svg>
