<svg xmlns="http://www.w3.org/2000/svg" width="207" height="36" viewBox="0 0 207 36" xmlns:xlink="http://www.w3.org/1999/xlink">
  <defs>
    <linearGradient id="b" x1="0%" x2="103.553%" y1="100%" y2="0%">
      <stop stop-color="#0006AA" offset="0%"/>
      <stop stop-color="#27AAE1" offset="100%"/>
    </linearGradient>
    <path id="a" d="M24.1074366,9.95818 C23.7548145,10.9121633 24.2202035,11.9815867 25.1509814,12.3477633 C26.0865733,12.71394 27.1255448,12.2322 27.4827401,11.2782167 C29.1752058,6.7303 32.470718,3.9072 36.0811831,3.9072 C40.3920785,3.9072 43.9320192,6.81219333 45.3236128,11.4950367 C45.4693552,11.9863967 45.7325581,13.2246633 45.0368215,14.1833333 C44.3174965,15.1806067 42.6533128,15.725 40.3497157,15.725 L9.31295407,15.725 C4.57891221,15.725 2.33175872,17.4690567 1.2787064,18.92883 C0.108073256,20.5572 -0.206879651,22.68174 0.423146512,24.76299 C2.28470233,30.9440867 7.24909186,34.9428 13.0691616,34.9428 C18.2545116,34.9428 22.9979407,30.99231 25.160489,24.8690567 C25.4989099,23.9102633 25.0147465,22.8503367 24.0791547,22.4987133 C23.1389895,22.1565867 22.1047116,22.64807 21.7661703,23.61155 C20.1302686,28.24617 16.7171756,31.2428 13.0691616,31.2428 C8.80050872,31.2428 5.27934244,28.3426167 3.86897442,23.6693933 C3.70445756,23.11538 3.52116628,22.0458333 4.18404767,21.1256433 C4.97377674,20.0272367 6.79309012,19.425 9.31295407,19.425 L40.3497157,19.425 C44.8064738,19.425 46.9360465,17.77258 47.9420424,16.38508 C49.1126756,14.7613967 49.4182413,12.5838233 48.7741343,10.42068 C46.9313529,4.21553333 41.948189,0.2072 36.0811831,0.2072 C30.9380756,0.2072 26.3497762,3.94087 24.1074366,9.95818"/>
  </defs>
  <g fill="none" fill-rule="evenodd">
    <g transform="translate(0 .617)">
      <use fill="url(#b)" xlink:href="#a"/>
    </g>
    <path fill="#19193E" d="M68.5564744 15.98511C66.4786517 15.98511 64.8050808 17.10769 64.3678535 19.3190567L72.5525372 19.3190567C72.3597384 17.10769 70.8553779 15.98511 68.5564744 15.98511M68.7211116 25.23992C70.1172785 25.23992 71.7861558 24.73413 72.6324488 23.7512867L74.465843 25.5724267C73.0695558 27.1718133 70.7473047 27.9282167 68.664668 27.9282167 64.2314983 27.9282167 61.3872942 25.0424633 61.3872942 20.61011 61.3872942 16.40432 64.2596599 13.40288 68.4718692 13.40288 72.4960936 13.40288 75.3167093 15.75867 75.3167093 20.5282167 75.3167093 20.9184433 75.2885477 21.3424633 75.260386 21.76155L64.3161035 21.76155C64.560532 23.8910233 66.2295297 25.23992 68.7211116 25.23992M88.634993 20.6390933C88.634993 18.1724267 86.9943977 16.2357233 84.3946221 16.2357233 81.7948465 16.2357233 80.1542512 18.03269 80.1542512 20.6390933 80.1542512 23.2743567 81.9030401 25.0954967 84.3946221 25.0954967 86.8862041 25.0954967 88.634993 23.16348 88.634993 20.6390933M88.9077035 25.5772367C87.897014 27.2875 85.7909093 27.9041667 84.1455 27.9041667 79.9332907 27.9041667 77.3053535 24.8738667 77.3053535 20.6390933 77.3053535 16.4910233 80.0696459 13.43174 84.1455 13.43174 85.9835878 13.43174 87.8122884 14.2748467 88.8795419 15.95625L89.0440587 13.7160233 91.7284395 13.7160233 91.7284395 33.96008 88.9077035 33.96008M98.1548267 21.2267767C98.1548267 23.58269 99.4382267 25.21106 101.821735 25.21106 104.035913 25.21106 105.568556 23.36106 105.568556 21.03413L105.568556 13.7690567 108.389773 13.7690567 108.389773 27.5669733 105.841146 27.5669733 105.676629 25.6301467C104.365067 27.2007967 102.912337 27.8753067 101.027192 27.8753067 97.7175994 27.8753067 95.3340907 25.43269 95.3340907 21.25576L95.3340907 13.7690567 98.1548267 13.7690567M112.21115 27.53799L115.031826 27.53799 115.031826 13.65818 112.21115 13.65818 112.21115 27.53799zM113.635779 7.88174C114.509512 7.88174 115.389262 8.44056333 115.389262 9.64503667 115.389262 10.85432 114.509512 11.4420033 113.635779 11.4420033 112.760843 11.4420033 111.88711 10.85432 111.88711 9.64503667 111.88711 8.44056333 112.760843 7.88174 113.635779 7.88174z"/>
    <polygon fill="#19193E" points="118.971 27.538 121.787 27.538 121.787 7.935 118.971 7.935"/>
    <path fill="#19193E" d="M125.727419 27.53799L128.54339 27.53799 128.54339 13.65818 125.727419 13.65818 125.727419 27.53799zM127.150953 7.88174C128.02589 7.88174 128.899622 8.44056333 128.899622 9.64503667 128.899622 10.85432 128.02589 11.4420033 127.150953 11.4420033 126.272407 11.4420033 125.397471 10.85432 125.397471 9.64503667 125.397471 8.44056333 126.272407 7.88174 127.150953 7.88174zM135.355134 20.61011C135.355134 23.3322 137.301174 25.1243567 139.680471 25.1243567 142.006814 25.1243567 143.948041 23.4140933 143.948041 20.61011 143.948041 17.80625 142.006814 16.1248467 139.680471 16.1248467 137.324041 16.1248467 135.355134 17.9170033 135.355134 20.61011M135.190256 15.8695467C136.070006 14.2170033 138.283221 13.40288 139.924779 13.40288 143.812047 13.40288 146.764203 15.9032167 146.764203 20.61011 146.764203 25.21106 143.784366 27.8174633 139.873029 27.8174633 138.038913 27.8174633 136.25775 27.1140933 135.190256 25.3507967L135.025378 27.53799 132.374093 27.53799 132.374093 7.93958333 135.190256 7.93958333M152.589087 15.5371633C153.575948 13.7690567 155.109192 13.40288 156.556988 13.40288 157.873605 13.40288 159.128843 13.87981 159.894262 14.58318L158.611343 17.10769C157.925355 16.5440567 157.294727 16.2645833 156.228436 16.2645833 154.286006 16.2645833 152.589087 17.4979167 152.589087 20.0512867L152.589087 27.53799 149.772924 27.53799 149.772924 13.7112133 152.401343 13.7112133M161.808109 27.53799L164.628785 27.53799 164.628785 13.65818 161.808109 13.65818 161.808109 27.53799zM163.232738 7.88174C164.106471 7.88174 164.981407 8.44056333 164.981407 9.64503667 164.981407 10.85432 164.106471 11.4420033 163.232738 11.4420033 162.352988 11.4420033 161.479256 10.85432 161.479256 9.64503667 161.479256 8.44056333 162.352988 7.88174 163.232738 7.88174zM171.055413 21.2267767C171.055413 23.58269 172.343145 25.21106 174.722442 25.21106 176.93686 25.21106 178.468901 23.36106 178.468901 21.03413L178.468901 13.7690567 181.289878 13.7690567 181.289878 27.5669733 178.742093 27.5669733 178.582029 25.6301467C177.265413 27.2007967 175.817616 27.8753067 173.92814 27.8753067 170.618547 27.8753067 168.234436 25.43269 168.234436 21.25576L168.234436 13.7690567 171.055413 13.7690567M194.335692 19.88269C194.335692 17.83511 193.187564 16.1248467 191.189773 16.1248467 189.220866 16.1248467 187.93193 17.83511 187.93193 19.88269L187.93193 27.53799 185.115767 27.53799 185.115767 13.7112133 187.744186 13.7112133 187.93193 15.47932C188.698552 13.9376533 190.287157 13.40288 191.707273 13.40288 193.460756 13.40288 195.129994 14.13511 195.951977 16.17788 197.043541 14.13511 198.711576 13.43174 200.573372 13.43174 204.324645 13.43174 206.294756 15.8165133 206.294756 19.8248467L206.294756 27.53799 203.446099 27.53799 203.446099 19.8248467C203.446099 17.77739 202.435169 16.15383 200.465058 16.15383 198.467267 16.15383 197.184349 17.83511 197.184349 19.88269L197.184349 27.53799 194.335692 27.53799"/>
  </g>
</svg>
