<?xml version="1.0" standalone="no"?><!DOCTYPE svg PUBLIC "-//W3C//DTD SVG 1.1//EN" "http://www.w3.org/Graphics/SVG/1.1/DTD/svg11.dtd"><svg xmlns:xlink="http://www.w3.org/1999/xlink" width="842px" height="100px" viewBox="0 0 842 100" version="1.1" xmlns="http://www.w3.org/2000/svg" style="block-size:100px;height:100px;inline-size:842px;perspective-origin:421px 50px;transform-origin:421px 50px;width:842px;"><script style="block-size:auto;height:auto;inline-size:auto;overflow-x:visible;overflow-y:visible;perspective-origin:50% 50%;transform-origin:0px 0px;width:auto;"/>
    <!-- Generator: Sketch 53 (72520) - https://sketchapp.com -->
    <title style="block-size:auto;height:auto;inline-size:auto;overflow-x:visible;overflow-y:visible;perspective-origin:50% 50%;transform-origin:0px 0px;width:auto;">Evercity logo</title>
    <desc style="block-size:auto;height:auto;inline-size:auto;overflow-x:visible;overflow-y:visible;perspective-origin:50% 50%;transform-origin:0px 0px;width:auto;">Created with Sketch.</desc>
    <g id="Evercity-landing" stroke="none" stroke-width="1" fill="none" fill-rule="evenodd" style="block-size:auto;fill:none;fill-rule:evenodd;height:auto;inline-size:auto;overflow-x:visible;overflow-y:visible;perspective-origin:0px 0px;transform-origin:0px 0px;width:auto;">
        <g id="Evercity---Desktop" transform="translate(-307.000000, -446.000000)" fill="#582090" style="block-size:auto;fill:rgb(88, 32, 144);fill-rule:evenodd;height:auto;inline-size:auto;overflow-x:visible;overflow-y:visible;perspective-origin:0px 0px;transform:matrix(1, 0, 0, 1, -307, -446);transform-origin:0px 0px;width:auto;">
            <g id="HOME" transform="translate(0.000000, -32.000000)" style="block-size:auto;fill:rgb(88, 32, 144);fill-rule:evenodd;height:auto;inline-size:auto;overflow-x:visible;overflow-y:visible;perspective-origin:0px 0px;transform:matrix(1, 0, 0, 1, 0, -32);transform-origin:0px 0px;width:auto;">
                <path d="M307,478.75 L402.602941,478.75 L386.284568,498.270412 L326.120588,498.270412 L326.120588,512.9214 L393.046132,512.9214 L377.173883,532.448932 L326.120588,532.448932 L326.120588,547.092801 L397.821051,547.092801 L397.821051,566.627451 L307,566.627451 L307,478.75 Z M489.439798,478.75 L510.759804,478.75 L463.920503,577.25 L417.088235,478.75 L438.408242,478.75 L463.920503,531.290874 L489.439798,478.75 Z M530.073529,478.75 L625.676471,478.75 L609.756587,498.270412 L549.192724,498.270412 L549.192724,512.9214 L616.106418,512.9214 L600.235326,532.448932 L549.192724,532.448932 L549.192724,547.092801 L620.887959,547.092801 L620.887959,566.627451 L530.073529,566.627451 L530.073529,478.75 Z M806.985811,478.75 L878.686275,478.75 L862.6537,498.271994 L806.985811,498.271994 C803.800208,498.271994 802.203922,499.909506 802.203922,503.163172 L802.203922,542.221399 C802.203922,545.467945 803.800208,547.098337 806.985811,547.098337 L862.667641,547.098337 L878.686275,566.627451 L806.985811,566.627451 C791.050826,566.627451 783.083333,558.482607 783.083333,542.221399 L783.083333,503.163172 C783.083333,486.887724 791.050826,478.75 806.985811,478.75 Z M899.931373,566.627451 L899.931373,478.75 L919.245098,478.75 L919.245098,566.627451 L899.931373,566.627451 Z M1046.71569,478.75 L1030.61467,498.271994 L1002.78653,498.271994 L1002.78653,566.627451 L983.473766,566.627451 L983.473766,498.271994 L947.25,498.271994 L947.25,478.75 L1046.71569,478.75 Z M732.342804,531.425205 L752.181373,566.627451 L730.140067,566.627451 L710.880065,532.457634 L685.262799,532.457634 L685.262799,512.919817 L723.503976,512.919817 C726.682608,512.919817 728.278895,511.296413 728.278895,508.035363 L728.278895,503.15803 C728.278895,499.9041 726.682608,498.273576 723.503976,498.273576 L675.69902,498.273576 L675.69902,566.627451 L656.578431,566.627451 L656.578431,478.75 L723.503976,478.75 C739.43199,478.75 747.399483,486.881263 747.399483,503.15803 L747.399483,508.035363 C747.399483,520.958518 742.38059,528.755132 732.342804,531.425205 Z M1109.98514,526.352677 L1109.98514,577.25 L1090.83982,554.074361 L1090.83982,526.303187 L1051.54412,478.75 L1076.22433,478.75 L1100.41597,508.316968 L1124.43311,478.75 L1149.07843,478.75 L1109.98514,526.352677 Z" id="Evercity-logo" style="block-size:auto;d:path(&quot;M 307 478.75 L 402.603 478.75 L 386.285 498.27 L 326.121 498.27 L 326.121 512.921 L 393.046 512.921 L 377.174 532.449 L 326.121 532.449 L 326.121 547.093 L 397.821 547.093 L 397.821 566.627 L 307 566.627 L 307 478.75 Z M 489.44 478.75 L 510.76 478.75 L 463.921 577.25 L 417.088 478.75 L 438.408 478.75 L 463.921 531.291 L 489.44 478.75 Z M 530.074 478.75 L 625.676 478.75 L 609.757 498.27 L 549.193 498.27 L 549.193 512.921 L 616.106 512.921 L 600.235 532.449 L 549.193 532.449 L 549.193 547.093 L 620.888 547.093 L 620.888 566.627 L 530.074 566.627 L 530.074 478.75 Z M 806.986 478.75 L 878.686 478.75 L 862.654 498.272 L 806.986 498.272 C 803.8 498.272 802.204 499.91 802.204 503.163 L 802.204 542.221 C 802.204 545.468 803.8 547.098 806.986 547.098 L 862.668 547.098 L 878.686 566.627 L 806.986 566.627 C 791.051 566.627 783.083 558.483 783.083 542.221 L 783.083 503.163 C 783.083 486.888 791.051 478.75 806.986 478.75 Z M 899.931 566.627 L 899.931 478.75 L 919.245 478.75 L 919.245 566.627 L 899.931 566.627 Z M 1046.72 478.75 L 1030.61 498.272 L 1002.79 498.272 L 1002.79 566.627 L 983.474 566.627 L 983.474 498.272 L 947.25 498.272 L 947.25 478.75 L 1046.72 478.75 Z M 732.343 531.425 L 752.181 566.627 L 730.14 566.627 L 710.88 532.458 L 685.263 532.458 L 685.263 512.92 L 723.504 512.92 C 726.683 512.92 728.279 511.296 728.279 508.035 L 728.279 503.158 C 728.279 499.904 726.683 498.274 723.504 498.274 L 675.699 498.274 L 675.699 566.627 L 656.578 566.627 L 656.578 478.75 L 723.504 478.75 C 739.432 478.75 747.399 486.881 747.399 503.158 L 747.399 508.035 C 747.399 520.958 742.381 528.755 732.343 531.425 Z M 1109.99 526.353 L 1109.99 577.25 L 1090.84 554.074 L 1090.84 526.303 L 1051.54 478.75 L 1076.22 478.75 L 1100.42 508.317 L 1124.43 478.75 L 1149.08 478.75 L 1109.99 526.353 Z&quot;);fill:rgb(88, 32, 144);fill-rule:evenodd;height:auto;inline-size:auto;overflow-x:visible;overflow-y:visible;perspective-origin:0px 0px;transform-origin:0px 0px;width:auto;"/>
            </g>
        </g>
    </g>
</svg>