<svg id="Layer_1" data-name="Layer 1" xmlns="http://www.w3.org/2000/svg" viewBox="0 0 163.17 168.11"><path d="M64.05,81.08,46.83,89.94a6.37,6.37,0,0,0-3.45,5.66v3.31a6.37,6.37,0,0,0,6.37,6.37,2.12,2.12,0,0,1,0,4.24A10.61,10.61,0,0,1,39.14,98.91V95.6a10.6,10.6,0,0,1,5.75-9.43l14.25-7.34A21.23,21.23,0,1,1,90.66,50.91a2.12,2.12,0,1,1-3.51,2.39,17,17,0,1,0-22.88,24,2.13,2.13,0,0,1-.22,3.74ZM81.42,99.2l-17.33,7.87a6.37,6.37,0,0,0-3.73,5.8v3a6.37,6.37,0,0,0,6.37,6.37h46.69a6.37,6.37,0,0,0,6.37-6.37v-3a6.36,6.36,0,0,0-3.74-5.8L98.73,99.2a21.38,21.38,0,0,1-17.31,0ZM77,96.54a21.23,21.23,0,1,1,26.13,0l14.67,6.67a10.61,10.61,0,0,1,6.22,9.66v3a10.61,10.61,0,0,1-10.61,10.61H66.73a10.62,10.62,0,0,1-10.62-10.61v-3a10.62,10.62,0,0,1,6.23-9.66L77,96.54Zm13.06.25a17,17,0,1,0-17-17A17,17,0,0,0,90.07,96.79Z"/></svg>