<svg width="130" height="106" viewBox="0 0 130 106" fill="none" xmlns="http://www.w3.org/2000/svg">
<path d="M65 9L62.1066 26.9491C62.0311 27.4335 61.7634 27.8761 61.3516 28.1737L61.3452 28.1783L54.7194 32.8711L52 34.8207L60.4646 44.024C62.8877 46.6586 67.1123 46.6587 69.5354 44.024L78 34.8207L75.2806 32.8711L68.6548 28.1783L68.6484 28.1737C68.2366 27.8761 67.9689 27.4335 67.8934 26.9491L65 9Z" fill="url(#paint0_linear_5082_40095)"/>
<path d="M65 11.8605L62.4086 28.0954C62.341 28.5336 62.1012 28.9339 61.7324 29.203L61.7266 29.2073L55.7925 33.4519L53.3569 35.2153L36.3889 47.7021C35.265 48.5292 33.7101 47.5099 34.0467 46.1668C40.4026 20.8072 54.6373 6.08665 63.8356 0.279561C64.2129 0.0413561 64.4537 0 65 0C65.5463 0 65.7871 0.0413561 66.1644 0.279561C75.3627 6.08665 89.5974 20.8072 95.9533 46.1668C96.2899 47.5099 94.735 48.5292 93.6111 47.7021L76.6431 35.2153L74.2075 33.4519L68.2734 29.2073L68.2676 29.203C67.8988 28.9339 67.659 28.5336 67.5914 28.0954L65 11.8605Z" fill="url(#paint1_linear_5082_40095)"/>
<path d="M0 97V66H20.0485V70.4957H5.67744V79.2532H17.2985V83.766H5.67744V97H0Z" fill="url(#paint2_linear_5082_40095)"/>
<path d="M27.3573 71.5681C26.3224 71.5681 25.4649 71.2553 24.7847 70.6298C24.1342 70.0043 23.8089 69.2149 23.8089 68.2617C23.8089 67.3085 24.1342 66.534 24.7847 65.9383C25.4649 65.3128 26.3224 65 27.3573 65C28.3923 65 29.235 65.3128 29.8856 65.9383C30.5657 66.534 30.9057 67.3085 30.9057 68.2617C30.9057 69.2149 30.5657 70.0043 29.8856 70.6298C29.235 71.2553 28.3923 71.5681 27.3573 71.5681ZM24.5186 97V75.0085H30.1961V97H24.5186Z" fill="url(#paint3_linear_5082_40095)"/>
<path d="M36.1219 97V75.0085H41.1784L41.7107 79.1638C42.5091 77.734 43.5884 76.6021 44.9486 75.7681C46.3384 74.9043 47.9647 74.4723 49.8276 74.4723V80.5043H48.2309C46.9889 80.5043 45.88 80.6979 44.9042 81.0851C43.9284 81.4723 43.1596 82.1426 42.5978 83.0957C42.0655 84.0489 41.7994 85.3745 41.7994 87.0723V97H36.1219Z" fill="url(#paint4_linear_5082_40095)"/>
<path d="M64.0077 97.7064C61.79 97.7064 59.8236 97.2298 58.1085 96.2766C56.3935 95.3234 55.048 93.983 54.0722 92.2553C53.0964 90.5277 52.6085 88.5319 52.6085 86.2681C52.6085 83.9745 53.0816 81.934 54.0279 80.1468C55.0037 78.3596 56.3343 76.9745 58.0198 75.9915C59.7349 74.9787 61.7456 74.4723 64.0521 74.4723C66.2107 74.4723 68.118 74.9489 69.7739 75.9021C71.4298 76.8553 72.7161 78.166 73.6328 79.834C74.579 81.4723 75.0521 83.3043 75.0521 85.3298C75.0521 85.6574 75.0373 86 75.0078 86.3574C75.0078 86.7149 74.993 87.0872 74.9634 87.4745H58.2416C58.3599 89.2021 58.9513 90.5574 60.0158 91.5404C61.1099 92.5234 62.4257 93.0149 63.9634 93.0149C65.1166 93.0149 66.0776 92.7617 66.8465 92.2553C67.6448 91.7191 68.2362 91.034 68.6207 90.2H74.3868C73.9728 91.6 73.2779 92.8809 72.3021 94.0426C71.3559 95.1745 70.1731 96.0681 68.7537 96.7234C67.3639 97.3787 65.7819 97.7064 64.0077 97.7064ZM64.0521 79.1191C62.6623 79.1191 61.4351 79.5213 60.3706 80.3255C59.3061 81.1 58.626 82.2915 58.3303 83.9H69.286C69.1973 82.4404 68.665 81.2787 67.6892 80.4149C66.7134 79.5511 65.501 79.1191 64.0521 79.1191Z" fill="url(#paint5_linear_5082_40095)"/>
<path d="M80.8474 97V79.7894H77.8312V75.0085H80.8474V72.417C80.8474 69.7362 81.5127 67.8298 82.8434 66.6979C84.2036 65.566 86.0369 65 88.3434 65H90.7829V69.8702H89.2305C88.2547 69.8702 87.5598 70.0638 87.1458 70.4511C86.7318 70.8383 86.5248 71.4936 86.5248 72.417V75.0085H91.2708V79.7894H86.5248V97H80.8474ZM95.7507 97V65H101.428V97H95.7507Z" fill="url(#paint6_linear_5082_40095)"/>
<path d="M115.097 95.6957H113.766L105.206 75.0085H111.371L117.536 90.6021L123.968 75.0085H130L116.465 106H110.447L115.097 95.6957Z" fill="url(#paint7_linear_5082_40095)"/>
<defs>
<linearGradient id="paint0_linear_5082_40095" x1="65.0599" y1="45.3045" x2="65.0599" y2="8.97498" gradientUnits="userSpaceOnUse">
<stop stop-color="#FCD314"/>
<stop offset="0.302083" stop-color="#C9AA0F"/>
<stop offset="1" stop-color="#876F01"/>
</linearGradient>
<linearGradient id="paint1_linear_5082_40095" x1="49.0286" y1="0" x2="49.0286" y2="50.1627" gradientUnits="userSpaceOnUse">
<stop stop-color="#FFE463"/>
<stop offset="1" stop-color="#FBD20F"/>
</linearGradient>
<linearGradient id="paint2_linear_5082_40095" x1="29.4644" y1="51.926" x2="29.4644" y2="114.708" gradientUnits="userSpaceOnUse">
<stop stop-color="#FBD20F"/>
<stop offset="1" stop-color="#FFE463"/>
</linearGradient>
<linearGradient id="paint3_linear_5082_40095" x1="29.4644" y1="51.926" x2="29.4644" y2="114.708" gradientUnits="userSpaceOnUse">
<stop stop-color="#FBD20F"/>
<stop offset="1" stop-color="#FFE463"/>
</linearGradient>
<linearGradient id="paint4_linear_5082_40095" x1="29.4644" y1="51.926" x2="29.4644" y2="114.708" gradientUnits="userSpaceOnUse">
<stop stop-color="#FBD20F"/>
<stop offset="1" stop-color="#FFE463"/>
</linearGradient>
<linearGradient id="paint5_linear_5082_40095" x1="29.4644" y1="51.926" x2="29.4644" y2="114.708" gradientUnits="userSpaceOnUse">
<stop stop-color="#FBD20F"/>
<stop offset="1" stop-color="#FFE463"/>
</linearGradient>
<linearGradient id="paint6_linear_5082_40095" x1="29.4644" y1="51.926" x2="29.4644" y2="114.708" gradientUnits="userSpaceOnUse">
<stop stop-color="#FBD20F"/>
<stop offset="1" stop-color="#FFE463"/>
</linearGradient>
<linearGradient id="paint7_linear_5082_40095" x1="29.4644" y1="51.926" x2="29.4644" y2="114.708" gradientUnits="userSpaceOnUse">
<stop stop-color="#FBD20F"/>
<stop offset="1" stop-color="#FFE463"/>
</linearGradient>
</defs>
</svg>
