<?xml version="1.0" standalone="no"?><!DOCTYPE svg PUBLIC "-//W3C//DTD SVG 1.1//EN" "http://www.w3.org/Graphics/SVG/1.1/DTD/svg11.dtd"><svg preserveAspectRatio="xMidYMid meet" data-bbox="0 0 50 50" viewBox="0 0 50 50" height="50" width="50" data-type="ugc" role="img" version="1.1" xmlns="http://www.w3.org/2000/svg" xmlns:xlink="http://www.w3.org/1999/xlink" style="block-size:50px;height:50px;inline-size:50px;perspective-origin:25px 25px;transform-origin:25px 25px;width:50px;">
    <g style="block-size:auto;height:auto;inline-size:auto;overflow-x:visible;overflow-y:visible;perspective-origin:0px 0px;transform-origin:0px 0px;width:auto;">
        <path fill="#ffffff" d="M50 25c0 13.807-11.193 25-25 25S0 38.807 0 25 11.193 0 25 0s25 11.193 25 25z" style="block-size:auto;d:path(&quot;M 50 25 C 50 38.807 38.807 50 25 50 S 0 38.807 0 25 S 11.193 0 25 0 S 50 11.193 50 25 Z&quot;);fill:rgb(255, 255, 255);height:auto;inline-size:auto;overflow-x:visible;overflow-y:visible;perspective-origin:0px 0px;transform-origin:0px 0px;width:auto;"/>
        <path fill="#2AB2E2" d="M17.808 14.893H32.99c.588 0 1.948.558 1.948 2.048v6.798c0 .745-.186 1.303-1.391 1.303h-.928c-.927 0-1.113-.745-1.113-1.303v-4.19c0-.28-.023-.345-.092-.466-.07-.121-.279-.186-.413-.186h-2.833c-.371 0-.557 0-.557.558v4.284c.031.341-.11 1.024-.927 1.024h-1.577c-.278 0-1.02-.093-1.02-1.024v-4.284c0-.186-.185-.558-.556-.558H18.2c-1.558 0-2.182-.587-2.182-1.415v-1.347c.104-1.346 1.789-1.242 1.789-1.242z" style="block-size:auto;d:path(&quot;M 17.808 14.893 H 32.99 C 33.578 14.893 34.938 15.451 34.938 16.941 V 23.739 C 34.938 24.484 34.752 25.042 33.547 25.042 H 32.619 C 31.692 25.042 31.506 24.297 31.506 23.739 V 19.549 C 31.506 19.269 31.483 19.204 31.414 19.083 C 31.344 18.962 31.135 18.897 31.001 18.897 H 28.168 C 27.797 18.897 27.611 18.897 27.611 19.455 V 23.739 C 27.642 24.08 27.501 24.763 26.684 24.763 H 25.107 C 24.829 24.763 24.087 24.67 24.087 23.739 V 19.455 C 24.087 19.269 23.902 18.897 23.531 18.897 H 18.2 C 16.642 18.897 16.018 18.31 16.018 17.482 V 16.135 C 16.122 14.789 17.807 14.893 17.807 14.893 Z&quot;);fill:rgb(42, 178, 226);height:auto;inline-size:auto;overflow-x:visible;overflow-y:visible;perspective-origin:0px 0px;transform-origin:0px 0px;width:auto;"/>
        <path stroke="#2AB2E2" d="M34.938 16.941c0-1.49-1.36-2.048-1.948-2.048H17.808s-1.685-.104-1.79 1.242v1.347c0 .828.625 1.415 2.184 1.415m16.736-1.956v6.798m0-6.798v6.798m0 0c0 .745-.186 1.303-1.391 1.303h-.928c-.927 0-1.113-.745-1.113-1.303v-4.19c0-.28-.023-.345-.092-.466-.07-.121-.279-.186-.413-.186h-2.833c-.371 0-.557 0-.557.558v4.284c.031.341-.11 1.024-.927 1.024m0 0h-1.577m1.577 0h-1.577m0 0c-.278 0-1.02-.093-1.02-1.024v-4.284c0-.186-.185-.558-.556-.558m0 0H18.2m5.33 0H18.2" fill="none" style="block-size:auto;d:path(&quot;M 34.938 16.941 C 34.938 15.451 33.578 14.893 32.99 14.893 H 17.808 S 16.123 14.789 16.018 16.135 V 17.482 C 16.018 18.31 16.643 18.897 18.202 18.897 M 34.938 16.941 V 23.739 M 34.938 16.941 V 23.739 M 34.938 23.739 C 34.938 24.484 34.752 25.042 33.547 25.042 H 32.619 C 31.692 25.042 31.506 24.297 31.506 23.739 V 19.549 C 31.506 19.269 31.483 19.204 31.414 19.083 C 31.344 18.962 31.135 18.897 31.001 18.897 H 28.168 C 27.797 18.897 27.611 18.897 27.611 19.455 V 23.739 C 27.642 24.08 27.501 24.763 26.684 24.763 M 26.684 24.763 H 25.107 M 26.684 24.763 H 25.107 M 25.107 24.763 C 24.829 24.763 24.087 24.67 24.087 23.739 V 19.455 C 24.087 19.269 23.902 18.897 23.531 18.897 M 23.531 18.897 H 18.2 M 23.53 18.897 H 18.2&quot;);fill:none;height:auto;inline-size:auto;overflow-x:visible;overflow-y:visible;perspective-origin:0px 0px;stroke:rgb(42, 178, 226);transform-origin:0px 0px;width:auto;"/>
        <path fill-opacity=".51" fill="#2AB2E2" d="M19.917 31.604c0 1.261-1.045 2.284-2.333 2.284-1.288 0-2.333-1.023-2.333-2.284s1.045-2.284 2.333-2.284c1.288 0 2.333 1.023 2.333 2.284z" style="block-size:auto;d:path(&quot;M 19.917 31.604 C 19.917 32.865 18.872 33.888 17.584 33.888 C 16.296 33.888 15.251 32.865 15.251 31.604 S 16.296 29.32 17.584 29.32 C 18.872 29.32 19.917 30.343 19.917 31.604 Z&quot;);fill:rgb(42, 178, 226);fill-opacity:0.51;height:auto;inline-size:auto;overflow-x:visible;overflow-y:visible;perspective-origin:0px 0px;transform-origin:0px 0px;width:auto;"/>
        <path fill-opacity=".51" fill="#2AB2E2" d="M27.381 31.604c0 1.261-1.045 2.284-2.333 2.284-1.288 0-2.333-1.023-2.333-2.284s1.045-2.284 2.333-2.284c1.288 0 2.333 1.023 2.333 2.284z" style="block-size:auto;d:path(&quot;M 27.381 31.604 C 27.381 32.865 26.336 33.888 25.048 33.888 C 23.76 33.888 22.715 32.865 22.715 31.604 S 23.76 29.32 25.048 29.32 C 26.336 29.32 27.381 30.343 27.381 31.604 Z&quot;);fill:rgb(42, 178, 226);fill-opacity:0.51;height:auto;inline-size:auto;overflow-x:visible;overflow-y:visible;perspective-origin:0px 0px;transform-origin:0px 0px;width:auto;"/>
        <path fill-opacity=".51" fill="#2AB2E2" d="M34.846 31.604c0 1.261-1.045 2.284-2.333 2.284-1.288 0-2.333-1.023-2.333-2.284s1.045-2.284 2.333-2.284c1.288 0 2.333 1.023 2.333 2.284z" style="block-size:auto;d:path(&quot;M 34.846 31.604 C 34.846 32.865 33.801 33.888 32.513 33.888 C 31.225 33.888 30.18 32.865 30.18 31.604 S 31.225 29.32 32.513 29.32 C 33.801 29.32 34.846 30.343 34.846 31.604 Z&quot;);fill:rgb(42, 178, 226);fill-opacity:0.51;height:auto;inline-size:auto;overflow-x:visible;overflow-y:visible;perspective-origin:0px 0px;transform-origin:0px 0px;width:auto;"/>
    </g>
</svg>