<svg width="400" height="400" viewBox="0 0 400 400" fill="none" xmlns="http://www.w3.org/2000/svg">
<path fill-rule="evenodd" clip-rule="evenodd" d="M359.786 66.2124C360.135 66.6221 360.344 67.1382 360.389 67.6749C360.607 70.3213 379.815 332.597 200.325 393.681C199.786 393.865 199.202 393.865 198.663 393.681C19.1766 332.597 38.3852 70.3213 38.5944 67.6749C38.6374 67.1374 38.8482 66.627 39.1971 66.2154C39.546 65.8039 40.0153 65.512 40.5391 65.3808L198.885 26.8442C199.285 26.7499 199.702 26.7499 200.103 26.8442L358.436 65.3849C358.962 65.5078 359.433 65.7987 359.786 66.2124V66.2124ZM330.641 94.2167C330.928 94.5507 331.101 94.9664 331.137 95.4047H331.158C331.334 97.5595 347.047 311.684 200.177 361.544C199.745 361.708 199.268 361.708 198.835 361.544C51.9608 311.684 67.674 97.5595 67.8545 95.4006C67.8891 94.9635 68.0613 94.5486 68.3465 94.2153C68.6317 93.8819 69.0153 93.6473 69.4422 93.5449L198.987 62.0626C199.316 61.98 199.66 61.98 199.988 62.0626L329.55 93.5449C329.975 93.6493 330.357 93.8842 330.641 94.2167V94.2167Z" fill="#798CE5"/>
<path d="M197.654 109.061L111.277 130.035C110.992 130.108 110.737 130.268 110.547 130.493C110.358 130.718 110.243 130.996 110.219 131.289C110.108 132.727 99.6341 275.481 197.535 308.724C197.829 308.818 198.144 308.818 198.438 308.724C296.343 275.472 285.874 132.727 285.755 131.281C285.731 130.987 285.616 130.708 285.424 130.485C285.232 130.261 284.975 130.104 284.688 130.035L198.315 109.052C198.1 108.996 197.874 108.996 197.658 109.052L197.654 109.061Z" fill="#798CE5"/>
</svg>
