<svg width="400" height="400" viewBox="0 0 400 400" fill="none" xmlns="http://www.w3.org/2000/svg">
<path d="M260.214 96C235.55 96 215.428 116.182 214.779 140.922V191.052C210.236 191.052 205.693 191.703 200.5 191.703C195.307 191.703 190.764 191.703 186.221 192.354V140.922C186.221 116.182 165.45 96 140.137 96.651C116.121 96.651 96.6491 116.833 96 140.922V260.714C96.6491 285.453 116.77 305.636 142.084 304.985C166.748 304.334 186.221 284.802 186.221 260.714V210.584C190.764 210.584 195.307 209.933 200.5 209.933C205.693 209.933 210.236 209.933 214.779 209.282V260.063C215.428 284.802 235.55 304.985 260.863 304.334C285.528 303.682 305 284.151 305 260.063V140.922C305 116.182 284.879 96 260.214 96ZM141.435 114.229C156.363 114.229 168.047 125.948 168.047 140.922V193.657C155.065 195.609 142.084 199.516 129.752 204.724C124.559 207.328 119.366 209.933 114.823 213.839V140.922C114.823 126.599 126.506 114.229 141.435 114.229ZM168.047 260.714C168.047 275.688 156.363 287.406 141.435 287.406C126.506 287.406 114.823 275.688 114.823 260.714V248.995C114.823 238.579 123.261 228.162 137.54 222.303C147.276 217.745 157.662 215.141 168.696 213.188L168.047 260.714ZM260.214 287.406C245.286 287.406 233.603 275.688 233.603 260.714V207.979C246.584 206.026 259.565 202.12 271.897 196.912C277.09 194.308 282.283 191.703 286.826 187.797V260.714C286.826 275.688 274.494 287.406 260.214 287.406ZM264.109 179.984C254.373 184.542 243.987 187.146 232.953 189.099V140.922C232.953 125.948 244.637 114.229 259.565 114.229C274.494 114.229 286.177 125.948 286.177 140.922V152.641C286.826 163.708 278.388 173.474 264.109 179.984Z" fill="url(#paint0_linear)"/>
<defs>
<linearGradient id="paint0_linear" x1="200.5" y1="96" x2="55.966" y2="240.096" gradientUnits="userSpaceOnUse">
<stop stop-color="#00E8A2"/>
<stop offset="1" stop-color="#00ADE8"/>
</linearGradient>
</defs>
</svg>
