<?xml version="1.0" standalone="no"?><!DOCTYPE svg PUBLIC "-//W3C//DTD SVG 1.1//EN" "http://www.w3.org/Graphics/SVG/1.1/DTD/svg11.dtd"><svg xmlns:xlink="http://www.w3.org/1999/xlink" width="172px" height="32px" viewBox="0 0 172 32" version="1.1" xmlns="http://www.w3.org/2000/svg" style="block-size:32px;height:32px;inline-size:172px;perspective-origin:86px 16px;transform-origin:86px 16px;width:172px;"><script style="block-size:auto;height:auto;inline-size:auto;overflow-x:visible;overflow-y:visible;perspective-origin:50% 50%;transform-origin:0px 0px;width:auto;"/>
    <title style="block-size:auto;height:auto;inline-size:auto;overflow-x:visible;overflow-y:visible;perspective-origin:50% 50%;transform-origin:0px 0px;width:auto;">9EB6E358-38C1-4543-AA99-D1BB7DD37571</title>
    <defs style="block-size:auto;height:auto;inline-size:auto;overflow-x:visible;overflow-y:visible;perspective-origin:0px 0px;transform-origin:0px 0px;width:auto;">
        <linearGradient x1="15.9140818%" y1="99.6679014%" x2="99.9533941%" y2="0.0552424495%" id="linearGradient-1" style="block-size:auto;height:auto;inline-size:auto;overflow-x:visible;overflow-y:visible;perspective-origin:0px 0px;transform-origin:0px 0px;width:auto;">
            <stop stop-color="#FF6E1C" offset="0%" style="block-size:auto;height:auto;inline-size:auto;overflow-x:visible;overflow-y:visible;perspective-origin:50% 50%;stop-color:rgb(255, 110, 28);transform-origin:0px 0px;width:auto;"/>
            <stop stop-color="#FD9B4E" offset="99.9445735%" style="block-size:auto;height:auto;inline-size:auto;overflow-x:visible;overflow-y:visible;perspective-origin:50% 50%;stop-color:rgb(253, 155, 78);transform-origin:0px 0px;width:auto;"/>
        </linearGradient>
        <path d="M20.8434667,0 C24.056,0 25.6618667,0 27.3912,0.546666667 C29.2792,1.23386667 30.7661333,2.7208 31.4533333,4.6088 C32,6.33786667 32,7.94426667 32,11.1565333 L32,20.8434667 C32,24.056 32,25.6618667 31.4533333,27.3912 C30.7661333,29.2792 29.2792,30.7661333 27.3912,31.4530667 C25.6618667,32 24.056,32 20.8434667,32 L11.1565333,32 C7.944,32 6.33786667,32 4.6088,31.4530667 C2.7208,30.7661333 1.23386667,29.2792 0.546666667,27.3912 C0,25.6618667 0,24.056 0,20.8434667 L0,11.1565333 C0,7.94426667 0,6.33786667 0.546666667,4.6088 C1.23386667,2.7208 2.7208,1.23386667 4.6088,0.546666667 C6.33786667,0 7.944,0 11.1565333,0 L20.8434667,0 Z" id="path-2" style="block-size:auto;d:path(&quot;M 20.8435 0 C 24.056 0 25.6619 0 27.3912 0.546667 C 29.2792 1.23387 30.7661 2.7208 31.4533 4.6088 C 32 6.33787 32 7.94427 32 11.1565 L 32 20.8435 C 32 24.056 32 25.6619 31.4533 27.3912 C 30.7661 29.2792 29.2792 30.7661 27.3912 31.4531 C 25.6619 32 24.056 32 20.8435 32 L 11.1565 32 C 7.944 32 6.33787 32 4.6088 31.4531 C 2.7208 30.7661 1.23387 29.2792 0.546667 27.3912 C 0 25.6619 0 24.056 0 20.8435 L 0 11.1565 C 0 7.94427 0 6.33787 0.546667 4.6088 C 1.23387 2.7208 2.7208 1.23387 4.6088 0.546667 C 6.33787 0 7.944 0 11.1565 0 L 20.8435 0 Z&quot;);height:auto;inline-size:auto;overflow-x:visible;overflow-y:visible;perspective-origin:0px 0px;transform-origin:0px 0px;width:auto;"/>
    </defs>
    <g id="hashkey-me-官网" stroke="none" stroke-width="1" fill="none" fill-rule="evenodd" style="block-size:auto;fill:none;fill-rule:evenodd;height:auto;inline-size:auto;overflow-x:visible;overflow-y:visible;perspective-origin:0px 0px;transform-origin:0px 0px;width:auto;">
        <g id="整体网页版备份-2" transform="translate(-363.000000, -41.000000)" style="block-size:auto;fill:none;fill-rule:evenodd;height:auto;inline-size:auto;overflow-x:visible;overflow-y:visible;perspective-origin:0px 0px;transform:matrix(1, 0, 0, 1, -363, -41);transform-origin:0px 0px;width:auto;">
            <g id="编组" transform="translate(363.000000, 41.000000)" style="block-size:auto;fill:none;fill-rule:evenodd;height:auto;inline-size:auto;overflow-x:visible;overflow-y:visible;perspective-origin:0px 0px;transform:matrix(1, 0, 0, 1, 363, 41);transform-origin:0px 0px;width:auto;">
                <path d="M45.9270833,24 L45.9270833,16.9921875 L53.0520833,16.9921875 L53.0520833,24 L55.8880208,24 L55.8880208,8.00390625 L53.0520833,8.00390625 L53.0520833,14.6015625 L45.9270833,14.6015625 L45.9270833,8.00390625 L43.0911458,8.00390625 L43.0911458,24 L45.9270833,24 Z M62.6614583,24.1875 C64.4895833,24.1875 65.5677083,23.4257812 66.0950521,22.4882812 L66.2005208,22.4882812 L66.2005208,24 L68.8255208,24 L68.8255208,15.5742188 C68.8255208,12.7617188 66.7278646,11.4023438 63.9388021,11.4023438 C60.5403646,11.4023438 59.1575521,13.21875 59.0520833,15.3164062 L61.6536458,15.3164062 C61.7356771,14.2617188 62.5208333,13.5351562 63.8802083,13.5351562 C65.2864583,13.5351562 66.0833333,14.296875 66.0833333,15.65625 L66.0833333,16.8046875 L62.9895833,16.8046875 C60.1302083,16.8164062 58.5950521,18.2226562 58.5950521,20.4375 C58.5950521,22.7460938 60.2591146,24.1875 62.6614583,24.1875 Z M63.5286458,22.1132812 C62.4153646,22.1132812 61.3606771,21.515625 61.3606771,20.2617188 C61.3606771,19.265625 62.0520833,18.5742188 63.5052083,18.5742188 L66.0833333,18.5742188 L66.0833333,19.921875 C66.0833333,21.2226562 64.9700521,22.1132812 63.5286458,22.1132812 Z M76.1848958,24.2109375 C79.3606771,24.2109375 81.3528646,22.7460938 81.3528646,20.2148438 C81.3528646,17.8828125 79.5950521,17.15625 77.2981771,16.7460938 C75.8919271,16.4882812 74.1458333,16.2539062 74.1458333,14.9648438 C74.1458333,13.96875 75.0013021,13.3828125 76.2786458,13.3828125 C77.9075521,13.3828125 78.4348958,14.3203125 78.5169271,15.1523438 L80.9895833,15.1523438 C80.9895833,12.9140625 79.2903646,11.390625 76.3489583,11.390625 C73.8059896,11.390625 71.4856771,12.5273438 71.4856771,15.234375 C71.4856771,17.5195312 73.3255208,18.3164062 75.5755208,18.7851562 C77.2044271,19.1132812 78.6575521,19.3125 78.6575521,20.5664062 C78.6575521,21.4453125 77.9309896,22.2070312 76.3489583,22.2070312 C74.9309896,22.2070312 74.0755208,21.5390625 73.9466146,20.5664062 L71.2513021,20.5664062 C71.2513021,22.78125 73.1263021,24.2109375 76.1848958,24.2109375 Z M86.7083333,24 L86.7083333,16.6523438 C86.7083333,15.046875 87.5872396,13.7929688 89.3450521,13.7929688 C90.8216146,13.7929688 91.9466146,14.6484375 91.9466146,16.6054688 L91.9466146,24 L94.7122396,24 L94.7122396,16.03125 C94.7122396,12.9960938 92.8958333,11.4023438 90.3763021,11.4023438 C88.3372396,11.4023438 87.2239583,12.5273438 86.8138021,13.359375 L86.7083333,13.359375 L86.7083333,7.16015625 L83.9427083,7.16015625 L83.9427083,24 L86.7083333,24 Z M100.747396,24 L100.747396,18.7148438 L102.49349,16.78125 L107.18099,24 L110.626302,24 L104.579427,14.8710938 L110.356771,8.00390625 L107.204427,8.00390625 L100.876302,15.3398438 L100.747396,15.3398438 L100.747396,8.00390625 L97.9114583,8.00390625 L97.9114583,24 L100.747396,24 Z M117.247396,24.2109375 C120.388021,24.2109375 122.016927,22.3710938 122.356771,20.3671875 L119.755208,20.3671875 C119.46224,21.421875 118.559896,22.0664062 117.270833,22.0664062 C115.571615,22.0664062 114.470052,20.7421875 114.470052,18.7265625 L114.470052,18.4101562 L122.497396,18.4101562 L122.497396,17.2148438 C122.497396,13.6992188 120.458333,11.390625 117.130208,11.390625 C113.872396,11.390625 111.751302,13.5820312 111.751302,17.109375 L111.751302,18.328125 C111.751302,22.0429688 113.895833,24.2109375 117.247396,24.2109375 Z M119.790365,16.546875 L114.470052,16.546875 L114.470052,16.5234375 C114.470052,14.8242188 115.52474,13.5 117.141927,13.5 C118.747396,13.5 119.790365,14.8125 119.790365,16.5234375 L119.790365,16.546875 Z M126.106771,28.453125 C129.095052,28.453125 130.173177,26.7304688 130.958333,24.6210938 L131.27474,23.7773438 C131.309896,23.6835938 135.446615,11.6015625 135.446615,11.6015625 L132.505208,11.6015625 L129.610677,21.375 L129.516927,21.375 L126.657552,11.6015625 L123.598958,11.6015625 L127.970052,24.0703125 L127.841146,24.5742188 C127.595052,25.6992188 127.044271,26.34375 125.532552,26.34375 C125.204427,26.34375 124.747396,26.3085938 124.548177,26.2734375 L124.548177,28.3242188 C124.864583,28.3828125 125.509115,28.453125 126.106771,28.453125 Z M144.575521,24 L144.575521,13.1132812 L144.68099,13.1132812 L148.71224,22.1953125 L150.68099,22.1953125 L154.71224,13.1132812 L154.817708,13.1132812 L154.817708,24 L157.372396,24 L157.372396,8.00390625 L154.536458,8.00390625 L149.755208,18.9257812 L149.673177,18.9257812 L144.891927,8.00390625 L142.032552,8.00390625 L142.032552,24 L144.575521,24 Z M165.786458,24.2109375 C168.927083,24.2109375 170.55599,22.3710938 170.895833,20.3671875 L168.294271,20.3671875 C168.001302,21.421875 167.098958,22.0664062 165.809896,22.0664062 C164.110677,22.0664062 163.009115,20.7421875 163.009115,18.7265625 L163.009115,18.4101562 L171.036458,18.4101562 L171.036458,17.2148438 C171.036458,13.6992188 168.997396,11.390625 165.669271,11.390625 C162.411458,11.390625 160.290365,13.5820312 160.290365,17.109375 L160.290365,18.328125 C160.290365,22.0429688 162.434896,24.2109375 165.786458,24.2109375 Z M168.329427,16.546875 L163.009115,16.546875 L163.009115,16.5234375 C163.009115,14.8242188 164.063802,13.5 165.68099,13.5 C167.286458,13.5 168.329427,14.8125 168.329427,16.5234375 L168.329427,16.546875 Z" id="HashKeyMe" fill="#403D3C" fill-rule="nonzero" style="block-size:auto;d:path(&quot;M 45.9271 24 L 45.9271 16.9922 L 53.0521 16.9922 L 53.0521 24 L 55.888 24 L 55.888 8.00391 L 53.0521 8.00391 L 53.0521 14.6016 L 45.9271 14.6016 L 45.9271 8.00391 L 43.0911 8.00391 L 43.0911 24 L 45.9271 24 Z M 62.6615 24.1875 C 64.4896 24.1875 65.5677 23.4258 66.0951 22.4883 L 66.2005 22.4883 L 66.2005 24 L 68.8255 24 L 68.8255 15.5742 C 68.8255 12.7617 66.7279 11.4023 63.9388 11.4023 C 60.5404 11.4023 59.1576 13.2188 59.0521 15.3164 L 61.6536 15.3164 C 61.7357 14.2617 62.5208 13.5352 63.8802 13.5352 C 65.2865 13.5352 66.0833 14.2969 66.0833 15.6563 L 66.0833 16.8047 L 62.9896 16.8047 C 60.1302 16.8164 58.5951 18.2227 58.5951 20.4375 C 58.5951 22.7461 60.2591 24.1875 62.6615 24.1875 Z M 63.5286 22.1133 C 62.4154 22.1133 61.3607 21.5156 61.3607 20.2617 C 61.3607 19.2656 62.0521 18.5742 63.5052 18.5742 L 66.0833 18.5742 L 66.0833 19.9219 C 66.0833 21.2227 64.9701 22.1133 63.5286 22.1133 Z M 76.1849 24.2109 C 79.3607 24.2109 81.3529 22.7461 81.3529 20.2148 C 81.3529 17.8828 79.5951 17.1563 77.2982 16.7461 C 75.8919 16.4883 74.1458 16.2539 74.1458 14.9648 C 74.1458 13.9688 75.0013 13.3828 76.2786 13.3828 C 77.9076 13.3828 78.4349 14.3203 78.5169 15.1523 L 80.9896 15.1523 C 80.9896 12.9141 79.2904 11.3906 76.349 11.3906 C 73.806 11.3906 71.4857 12.5273 71.4857 15.2344 C 71.4857 17.5195 73.3255 18.3164 75.5755 18.7852 C 77.2044 19.1133 78.6576 19.3125 78.6576 20.5664 C 78.6576 21.4453 77.931 22.207 76.349 22.207 C 74.931 22.207 74.0755 21.5391 73.9466 20.5664 L 71.2513 20.5664 C 71.2513 22.7813 73.1263 24.2109 76.1849 24.2109 Z M 86.7083 24 L 86.7083 16.6523 C 86.7083 15.0469 87.5872 13.793 89.3451 13.793 C 90.8216 13.793 91.9466 14.6484 91.9466 16.6055 L 91.9466 24 L 94.7122 24 L 94.7122 16.0313 C 94.7122 12.9961 92.8958 11.4023 90.3763 11.4023 C 88.3372 11.4023 87.224 12.5273 86.8138 13.3594 L 86.7083 13.3594 L 86.7083 7.16016 L 83.9427 7.16016 L 83.9427 24 L 86.7083 24 Z M 100.747 24 L 100.747 18.7148 L 102.493 16.7813 L 107.181 24 L 110.626 24 L 104.579 14.8711 L 110.357 8.00391 L 107.204 8.00391 L 100.876 15.3398 L 100.747 15.3398 L 100.747 8.00391 L 97.9115 8.00391 L 97.9115 24 L 100.747 24 Z M 117.247 24.2109 C 120.388 24.2109 122.017 22.3711 122.357 20.3672 L 119.755 20.3672 C 119.462 21.4219 118.56 22.0664 117.271 22.0664 C 115.572 22.0664 114.47 20.7422 114.47 18.7266 L 114.47 18.4102 L 122.497 18.4102 L 122.497 17.2148 C 122.497 13.6992 120.458 11.3906 117.13 11.3906 C 113.872 11.3906 111.751 13.582 111.751 17.1094 L 111.751 18.3281 C 111.751 22.043 113.896 24.2109 117.247 24.2109 Z M 119.79 16.5469 L 114.47 16.5469 L 114.47 16.5234 C 114.47 14.8242 115.525 13.5 117.142 13.5 C 118.747 13.5 119.79 14.8125 119.79 16.5234 L 119.79 16.5469 Z M 126.107 28.4531 C 129.095 28.4531 130.173 26.7305 130.958 24.6211 L 131.275 23.7773 C 131.31 23.6836 135.447 11.6016 135.447 11.6016 L 132.505 11.6016 L 129.611 21.375 L 129.517 21.375 L 126.658 11.6016 L 123.599 11.6016 L 127.97 24.0703 L 127.841 24.5742 C 127.595 25.6992 127.044 26.3438 125.533 26.3438 C 125.204 26.3438 124.747 26.3086 124.548 26.2734 L 124.548 28.3242 C 124.865 28.3828 125.509 28.4531 126.107 28.4531 Z M 144.576 24 L 144.576 13.1133 L 144.681 13.1133 L 148.712 22.1953 L 150.681 22.1953 L 154.712 13.1133 L 154.818 13.1133 L 154.818 24 L 157.372 24 L 157.372 8.00391 L 154.536 8.00391 L 149.755 18.9258 L 149.673 18.9258 L 144.892 8.00391 L 142.033 8.00391 L 142.033 24 L 144.576 24 Z M 165.786 24.2109 C 168.927 24.2109 170.556 22.3711 170.896 20.3672 L 168.294 20.3672 C 168.001 21.4219 167.099 22.0664 165.81 22.0664 C 164.111 22.0664 163.009 20.7422 163.009 18.7266 L 163.009 18.4102 L 171.036 18.4102 L 171.036 17.2148 C 171.036 13.6992 168.997 11.3906 165.669 11.3906 C 162.411 11.3906 160.29 13.582 160.29 17.1094 L 160.29 18.3281 C 160.29 22.043 162.435 24.2109 165.786 24.2109 Z M 168.329 16.5469 L 163.009 16.5469 L 163.009 16.5234 C 163.009 14.8242 164.064 13.5 165.681 13.5 C 167.286 13.5 168.329 14.8125 168.329 16.5234 L 168.329 16.5469 Z&quot;);fill:rgb(64, 61, 60);height:auto;inline-size:auto;overflow-x:visible;overflow-y:visible;perspective-origin:0px 0px;transform-origin:0px 0px;width:auto;"/>
                <g id="编组-18" style="block-size:auto;fill:none;fill-rule:evenodd;height:auto;inline-size:auto;overflow-x:visible;overflow-y:visible;perspective-origin:0px 0px;transform-origin:0px 0px;width:auto;">
                    <g id="编组-17" style="block-size:auto;fill:none;fill-rule:evenodd;height:auto;inline-size:auto;overflow-x:visible;overflow-y:visible;perspective-origin:0px 0px;transform-origin:0px 0px;width:auto;">
                        <g id="232" style="block-size:auto;fill:none;fill-rule:evenodd;height:auto;inline-size:auto;overflow-x:visible;overflow-y:visible;perspective-origin:0px 0px;transform-origin:0px 0px;width:auto;">
                            <g id="编组-7复制-2" style="block-size:auto;fill:none;fill-rule:evenodd;height:auto;inline-size:auto;overflow-x:visible;overflow-y:visible;perspective-origin:0px 0px;transform-origin:0px 0px;width:auto;">
                                <g id="分组复制-2" style="block-size:auto;fill:none;fill-rule:evenodd;height:auto;inline-size:auto;overflow-x:visible;overflow-y:visible;perspective-origin:0px 0px;transform-origin:0px 0px;width:auto;">
                                    <mask id="mask-3" fill="white" style="block-size:auto;fill:rgb(255, 255, 255);fill-rule:evenodd;height:auto;inline-size:auto;overflow-x:visible;overflow-y:visible;perspective-origin:0px 0px;transform-origin:0px 0px;width:auto;">
                                        <use xlink:href="#path-2" style="block-size:auto;fill:rgb(255, 255, 255);fill-rule:evenodd;height:auto;inline-size:auto;overflow-x:visible;overflow-y:visible;perspective-origin:0px 0px;transform-origin:0px 0px;width:auto;"/>
                                    </mask>
                                    <use id="Background" fill="url(#linearGradient-1)" xlink:href="#path-2" style="block-size:auto;fill:url(&quot;#linearGradient-1&quot;);fill-rule:evenodd;height:auto;inline-size:auto;overflow-x:visible;overflow-y:visible;perspective-origin:0px 0px;transform-origin:0px 0px;width:auto;"/>
                                </g>
                            </g>
                        </g>
                        <g id="编组-15" transform="translate(10.800000, 7.600000)" fill="#FFFFFF" style="block-size:auto;fill:rgb(255, 255, 255);fill-rule:evenodd;height:auto;inline-size:auto;overflow-x:visible;overflow-y:visible;perspective-origin:0px 0px;transform:matrix(1, 0, 0, 1, 10.8, 7.6);transform-origin:0px 0px;width:auto;">
                            <path d="M2.3124,9.7918 C0.917,8.829 7.57912251e-14,7.201 7.57912251e-14,5.3548 C7.57912251e-14,2.3974 2.3534,1.5158245e-15 5.2566,1.5158245e-15 C8.1596,1.5158245e-15 10.5132,2.3974 10.5132,5.3548 C10.5132,7.2242 9.573,8.8698 8.1482,9.8276 L9.5204,16.5196 C9.5258,16.546 9.5284,16.5728 9.5284,16.5998 C9.5284,16.8208 9.3494,16.9998 9.1284,16.9998 L1.3248,16.9998 C1.2978,16.9998 1.2708,16.997 1.2444,16.9918 C1.028,16.9472 0.8884,16.736 0.933,16.5196 L2.3124,9.7918 Z" id="Fill-1" style="block-size:auto;d:path(&quot;M 2.3124 9.7918 C 0.917 8.829 7.57912e-14 7.201 7.57912e-14 5.3548 C 7.57912e-14 2.3974 2.3534 1.51582e-15 5.2566 1.51582e-15 C 8.1596 1.51582e-15 10.5132 2.3974 10.5132 5.3548 C 10.5132 7.2242 9.573 8.8698 8.1482 9.8276 L 9.5204 16.5196 C 9.5258 16.546 9.5284 16.5728 9.5284 16.5998 C 9.5284 16.8208 9.3494 16.9998 9.1284 16.9998 L 1.3248 16.9998 C 1.2978 16.9998 1.2708 16.997 1.2444 16.9918 C 1.028 16.9472 0.8884 16.736 0.933 16.5196 L 2.3124 9.7918 Z&quot;);fill:rgb(255, 255, 255);fill-rule:evenodd;height:auto;inline-size:auto;overflow-x:visible;overflow-y:visible;perspective-origin:0px 0px;transform-origin:0px 0px;width:auto;"/>
                        </g>
                    </g>
                    <path d="M16.0484878,15.8709094 C15.3416878,15.8709094 14.6624878,15.6161094 14.1358878,15.1535094 C13.9700878,15.0075094 13.9536878,14.7547094 14.0994878,14.5889094 C14.2454878,14.4231094 14.4982878,14.4067094 14.6640878,14.5525094 C15.0444878,14.8869094 15.5360878,15.0709094 16.0484878,15.0709094 C16.5854878,15.0709094 17.0944878,14.8709094 17.4818878,14.5081094 C17.6428878,14.3571094 17.8960878,14.3653094 18.0472878,14.5263094 C18.1982878,14.6875094 18.1900878,14.9407094 18.0288878,15.0917094 C17.4928878,15.5943094 16.7894878,15.8709094 16.0484878,15.8709094" id="Fill-3" fill="#FF7928" style="block-size:auto;d:path(&quot;M 16.0485 15.8709 C 15.3417 15.8709 14.6625 15.6161 14.1359 15.1535 C 13.9701 15.0075 13.9537 14.7547 14.0995 14.5889 C 14.2455 14.4231 14.4983 14.4067 14.6641 14.5525 C 15.0445 14.8869 15.5361 15.0709 16.0485 15.0709 C 16.5855 15.0709 17.0945 14.8709 17.4819 14.5081 C 17.6429 14.3571 17.8961 14.3653 18.0473 14.5263 C 18.1983 14.6875 18.1901 14.9407 18.0289 15.0917 C 17.4929 15.5943 16.7895 15.8709 16.0485 15.8709&quot;);fill:rgb(255, 121, 40);fill-rule:evenodd;height:auto;inline-size:auto;overflow-x:visible;overflow-y:visible;perspective-origin:0px 0px;transform-origin:0px 0px;width:auto;"/>
                </g>
            </g>
        </g>
    </g>
</svg>