<?xml version="1.0" standalone="no"?><!DOCTYPE svg PUBLIC "-//W3C//DTD SVG 1.1//EN" "http://www.w3.org/Graphics/SVG/1.1/DTD/svg11.dtd"><svg xmlns:xlink="http://www.w3.org/1999/xlink" xmlns:serif="http://www.serif.com/" width="100%" height="100%" viewBox="0 0 2001 2000" version="1.1" xml:space="preserve" style="block-size:1663.16px;clip-rule:evenodd;fill-rule:evenodd;height:1663.16px;inline-size:1664px;perspective-origin:832px 831.578px;stroke-linejoin:round;stroke-miterlimit:2;transform-origin:832px 831.578px;width:1664px;" xmlns="http://www.w3.org/2000/svg">
      <script style="block-size:auto;clip-rule:evenodd;fill-rule:evenodd;height:auto;inline-size:auto;overflow-x:visible;overflow-y:visible;perspective-origin:50% 50%;stroke-linejoin:round;stroke-miterlimit:2;transform-origin:0px 0px;width:auto;"/>
      <rect id="Blue-transp" x="0.183" y="0" width="2000" height="2000" style="block-size:2000px;clip-rule:evenodd;fill:none;fill-rule:evenodd;height:2000px;inline-size:2000px;overflow-x:visible;overflow-y:visible;perspective-origin:0px 0px;stroke-linejoin:round;stroke-miterlimit:2;transform-origin:0px 0px;width:2000px;x:0.183px;"/>
      <path id="logo" d="M188.787,1000.03l811.685,-810.921l811.108,811.131l-811.108,810.653l-811.685,-810.863Zm1290.98,-243.392c-33.722,37.657 -107.254,132.484 -107.254,243.392c0,110.908 73.532,205.735 107.254,243.391c-216.633,-11.457 -389.844,-243.391 -389.844,-243.391c0,0 173.211,-231.935 389.844,-243.392Zm-957.996,0c216.633,11.457 389.844,243.392 389.844,243.392c0,0 -173.211,231.934 -389.844,243.391c33.722,-37.656 107.253,-132.483 107.253,-243.391c0,-110.908 -73.531,-205.735 -107.253,-243.392Zm-34.324,1.434c-34.274,38.551 -106.012,132.41 -106.012,241.958c0,109.976 72.301,204.141 106.413,242.409l175.471,175.5l0.824,-0.807c70.248,-68.649 187.024,-158.874 320.153,-165.746c-33.516,37.344 -107.428,132.295 -107.428,243.41c0,111.116 73.912,206.067 107.428,243.411l16.172,16.938l16.173,-16.938c33.515,-37.344 107.427,-132.295 107.427,-243.411c0,-111.115 -73.912,-206.066 -107.427,-243.41c133.65,6.899 250.818,97.805 320.977,166.553l179.61,-179.641l0.417,-0.478c35.513,-40.782 102.458,-131.966 102.458,-237.79c0,-106.239 -67.47,-197.723 -102.875,-238.268l-178.773,-178.804l-0.824,0.808c-70.177,68.741 -187.343,159.644 -320.99,166.543c33.515,-37.345 107.427,-132.296 107.427,-243.411c0,-111.116 -73.912,-206.067 -107.427,-243.411l-16.173,-18.572l-16.172,18.572c-33.516,37.344 -107.428,132.295 -107.428,243.411c0,111.115 73.912,206.066 107.428,243.411c-134.171,-6.926 -251.731,-98.515 -321.814,-167.351l-175.035,175.114Z" style="block-size:auto;clip-rule:evenodd;d:path(&quot;M 188.787 1000.03 L 1000.47 189.109 L 1811.58 1000.24 L 1000.47 1810.89 L 188.787 1000.03 Z M 1479.77 756.638 C 1446.04 794.295 1372.51 889.122 1372.51 1000.03 C 1372.51 1110.94 1446.04 1205.77 1479.77 1243.42 C 1263.13 1231.96 1089.92 1000.03 1089.92 1000.03 C 1089.92 1000.03 1263.13 768.095 1479.77 756.638 Z M 521.771 756.638 C 738.404 768.095 911.615 1000.03 911.615 1000.03 C 911.615 1000.03 738.404 1231.96 521.771 1243.42 C 555.493 1205.77 629.024 1110.94 629.024 1000.03 C 629.024 889.122 555.493 794.295 521.771 756.638 Z M 487.447 758.072 C 453.173 796.623 381.435 890.482 381.435 1000.03 C 381.435 1110.01 453.736 1204.17 487.848 1242.44 L 663.319 1417.94 L 664.143 1417.13 C 734.391 1348.48 851.167 1258.26 984.296 1251.39 C 950.78 1288.73 876.868 1383.68 876.868 1494.8 C 876.868 1605.91 950.78 1700.86 984.296 1738.21 L 1000.47 1755.15 L 1016.64 1738.21 C 1050.16 1700.86 1124.07 1605.91 1124.07 1494.8 C 1124.07 1383.68 1050.16 1288.73 1016.64 1251.39 C 1150.29 1258.29 1267.46 1349.19 1337.62 1417.94 L 1517.23 1238.3 L 1517.64 1237.82 C 1553.16 1197.04 1620.1 1105.85 1620.1 1000.03 C 1620.1 893.791 1552.63 802.307 1517.23 761.762 L 1338.45 582.958 L 1337.63 583.766 C 1267.45 652.507 1150.29 743.41 1016.64 750.309 C 1050.16 712.964 1124.07 618.013 1124.07 506.898 C 1124.07 395.782 1050.16 300.831 1016.64 263.487 L 1000.47 244.915 L 984.296 263.487 C 950.78 300.831 876.868 395.782 876.868 506.898 C 876.868 618.013 950.78 712.964 984.296 750.309 C 850.125 743.383 732.565 651.794 662.482 582.958 L 487.447 758.072 Z&quot;);fill:rgb(82, 178, 237);fill-rule:evenodd;height:auto;inline-size:auto;overflow-x:visible;overflow-y:visible;perspective-origin:0px 0px;stroke-linejoin:round;stroke-miterlimit:2;transform-origin:0px 0px;width:auto;"/>
    </svg>