<?xml version="1.0" standalone="no"?><!DOCTYPE svg PUBLIC "-//W3C//DTD SVG 1.1//EN" "http://www.w3.org/Graphics/SVG/1.1/DTD/svg11.dtd"><svg viewBox="0 0 109 18" version="1.1" xmlns="http://www.w3.org/2000/svg" xmlns:xlink="http://www.w3.org/1999/xlink" style="block-size:274.781px;height:274.781px;inline-size:1664px;perspective-origin:832px 137.391px;transform-origin:832px 137.391px;width:1664px;"><defs style="block-size:auto;height:auto;inline-size:auto;overflow-x:visible;overflow-y:visible;perspective-origin:0px 0px;transform-origin:0px 0px;width:auto;"><linearGradient id="a" x1="97.204%" x2="0%" y1="2.796%" y2="100%" style="block-size:auto;height:auto;inline-size:auto;overflow-x:visible;overflow-y:visible;perspective-origin:0px 0px;transform-origin:0px 0px;width:auto;"><stop offset="0%" stop-color="#11C4D1" style="block-size:auto;height:auto;inline-size:auto;overflow-x:visible;overflow-y:visible;perspective-origin:50% 50%;stop-color:rgb(17, 196, 209);transform-origin:0px 0px;width:auto;"/><stop offset="100%" stop-color="#0062AD" style="block-size:auto;height:auto;inline-size:auto;overflow-x:visible;overflow-y:visible;perspective-origin:50% 50%;stop-color:rgb(0, 98, 173);transform-origin:0px 0px;width:auto;"/></linearGradient></defs><g fill="none" fill-rule="nonzero" style="block-size:auto;fill:none;height:auto;inline-size:auto;overflow-x:visible;overflow-y:visible;perspective-origin:0px 0px;transform-origin:0px 0px;width:auto;"><path fill="url(#a)" d="M23.915.624c.791 10.714-6.096 15.778-12.27 16.318C5.905 17.444.502 13.917.028 8.498c-.391-4.477 2.376-6.383 4.55-6.573 2.236-.196 4.115 1.346 4.278 3.213.157 1.795-.963 2.612-1.742 2.68-.616.054-1.391-.32-1.461-1.123-.06-.69.202-.784.138-1.517-.114-1.305-1.252-1.457-1.875-1.403-.754.066-2.122.946-1.93 3.138.193 2.211 2.313 3.958 5.092 3.715 2.999-.262 5.087-2.597 5.244-5.872a1.19 1.19 0 0 1 .107-.503l.001-.004a1.411 1.411 0 0 1 .113-.197c.064-.096.146-.202.252-.318.001-.003.001-.003.003-.003.077-.087.17-.181.275-.282 1.31-1.236 6.028-4.151 10.49-3.228a.447.447 0 0 1 .352.403" transform="translate(0 .5)" style="block-size:auto;d:path(&quot;M 23.915 0.624 C 24.706 11.338 17.819 16.402 11.645 16.942 C 5.905 17.444 0.502 13.917 0.028 8.498 C -0.363 4.021 2.404 2.115 4.578 1.925 C 6.814 1.729 8.693 3.271 8.856 5.138 C 9.013 6.933 7.893 7.75 7.114 7.818 C 6.498 7.872 5.723 7.498 5.653 6.695 C 5.593 6.005 5.855 5.911 5.791 5.178 C 5.677 3.873 4.539 3.721 3.916 3.775 C 3.162 3.841 1.794 4.721 1.986 6.913 C 2.179 9.124 4.299 10.871 7.078 10.628 C 10.077 10.366 12.165 8.031 12.322 4.756 A 1.19 1.19 0 0 1 12.429 4.253 L 12.43 4.249 A 1.411 1.411 0 0 1 12.543 4.052 C 12.607 3.956 12.689 3.85 12.795 3.734 C 12.796 3.731 12.796 3.731 12.798 3.731 C 12.875 3.644 12.968 3.55 13.073 3.449 C 14.383 2.213 19.101 -0.702 23.563 0.221 A 0.447 0.447 0 0 1 23.915 0.624&quot;);fill:url(&quot;#a&quot;);height:auto;inline-size:auto;overflow-x:visible;overflow-y:visible;perspective-origin:0px 0px;transform:matrix(1, 0, 0, 1, 0, 0.5);transform-origin:0px 0px;width:auto;"/></g></svg>