<?xml version="1.0" standalone="no"?><!DOCTYPE svg PUBLIC "-//W3C//DTD SVG 1.1//EN" "http://www.w3.org/Graphics/SVG/1.1/DTD/svg11.dtd"><svg width="140" height="40" viewBox="0 0 140 40" fill="none" style="block-size:40px;fill:none;height:40px;inline-size:140px;perspective-origin:70px 20px;transform-origin:70px 20px;width:140px;" version="1.1" xmlns="http://www.w3.org/2000/svg" xmlns:xlink="http://www.w3.org/1999/xlink"><script style="block-size:auto;fill:none;height:auto;inline-size:auto;overflow-x:visible;overflow-y:visible;perspective-origin:50% 50%;transform-origin:0px 0px;width:auto;"/>
    <path d="M25.8984 38.9126C25.8211 38.8145 25.7098 38.7489 25.5865 38.7287C23.258 38.2345 21.02 37.3833 18.9517 36.2051C14.7045 33.7336 11.997 29.9943 11.893 25.7351C11.8636 24.1112 12.1984 22.5014 12.8728 21.024C13.3048 20.0642 15.6243 16.6248 16.0083 15.9969C17.588 13.5214 17.0801 13.6774 14.8565 10.5859L11.6571 5.84682L9.49347 2.69141C8.25448 3.5352 7.08072 4.471 5.98213 5.49088C3.74424 7.73601 2.05739 10.4694 1.05409 13.4764C0.0507853 16.4835 -0.241648 19.6821 0.199762 22.8212C0.641172 25.9603 1.8044 28.9543 3.59808 31.568C5.39175 34.1817 7.76701 36.3439 10.5373 37.8848C3.41061 32.6618 0.159213 24.8313 2.8867 16.9327C3.63113 14.8131 4.72022 12.8308 6.1101 11.0658L8.45366 14.5132C8.58799 14.7127 8.65501 14.95 8.64493 15.1903C8.63486 15.4306 8.54822 15.6614 8.39767 15.849C7.27863 17.2215 6.40588 18.7776 5.81816 20.4481C2.82272 29.1425 10.9172 38.1488 19.4676 39.6165C21.1073 39.8965 24.0947 40.2084 25.6385 39.8125C25.7293 39.7879 25.8123 39.7403 25.8794 39.6743C25.9465 39.6083 25.9955 39.5261 26.0216 39.4357C26.0477 39.3453 26.0501 39.2496 26.0285 39.158C26.0069 39.0664 25.9621 38.9819 25.8984 38.9126Z" fill="url(#paint0_linear)" style="block-size:auto;d:path(&quot;M 25.8984 38.9126 C 25.8211 38.8145 25.7098 38.7489 25.5865 38.7287 C 23.258 38.2345 21.02 37.3833 18.9517 36.2051 C 14.7045 33.7336 11.997 29.9943 11.893 25.7351 C 11.8636 24.1112 12.1984 22.5014 12.8728 21.024 C 13.3048 20.0642 15.6243 16.6248 16.0083 15.9969 C 17.588 13.5214 17.0801 13.6774 14.8565 10.5859 L 11.6571 5.84682 L 9.49347 2.69141 C 8.25448 3.5352 7.08072 4.471 5.98213 5.49088 C 3.74424 7.73601 2.05739 10.4694 1.05409 13.4764 C 0.0507853 16.4835 -0.241648 19.6821 0.199762 22.8212 C 0.641172 25.9603 1.8044 28.9543 3.59808 31.568 C 5.39175 34.1817 7.76701 36.3439 10.5373 37.8848 C 3.41061 32.6618 0.159213 24.8313 2.8867 16.9327 C 3.63113 14.8131 4.72022 12.8308 6.1101 11.0658 L 8.45366 14.5132 C 8.58799 14.7127 8.65501 14.95 8.64493 15.1903 C 8.63486 15.4306 8.54822 15.6614 8.39767 15.849 C 7.27863 17.2215 6.40588 18.7776 5.81816 20.4481 C 2.82272 29.1425 10.9172 38.1488 19.4676 39.6165 C 21.1073 39.8965 24.0947 40.2084 25.6385 39.8125 C 25.7293 39.7879 25.8123 39.7403 25.8794 39.6743 C 25.9465 39.6083 25.9955 39.5261 26.0216 39.4357 C 26.0477 39.3453 26.0501 39.2496 26.0285 39.158 C 26.0069 39.0664 25.9621 38.9819 25.8984 38.9126 Z&quot;);fill:url(&quot;#paint0_linear&quot;);height:auto;inline-size:auto;overflow-x:visible;overflow-y:visible;perspective-origin:0px 0px;transform-origin:0px 0px;width:auto;"/>
    <path d="M15.1056 1.08727C15.1829 1.18542 15.2942 1.25106 15.4175 1.27124C17.7456 1.76537 19.9833 2.6166 22.0513 3.79476C26.2978 6.2663 29.0049 10.0056 29.1089 14.2648C29.1383 15.8887 28.8036 17.4985 28.1292 18.9759C27.6973 19.9357 25.3781 23.3751 24.9943 24.003C23.4148 26.4785 23.9226 26.3226 26.1459 29.414L29.3448 34.1531L31.5081 37.3085C32.7469 36.4647 33.9204 35.5289 35.0189 34.509C37.2564 32.2639 38.943 29.5305 39.9461 26.5235C40.9493 23.5165 41.2417 20.3178 40.8003 17.1787C40.359 14.0396 39.1959 11.0456 37.4025 8.4319C35.6091 5.8182 33.2342 3.65597 30.4644 2.11508C37.59 7.3381 40.8409 15.1686 38.1138 23.0672C37.3695 25.1868 36.2806 27.1691 34.8909 28.9341L32.5477 25.4867C32.4134 25.2872 32.3464 25.05 32.3565 24.8096C32.3665 24.5693 32.4532 24.3385 32.6037 24.151C33.7226 22.7784 34.5952 21.2224 35.1828 19.5518C38.1778 10.8574 30.0845 1.85113 21.5354 0.383401C19.896 0.103453 16.909 -0.208491 15.3655 0.187435C15.2747 0.212041 15.1917 0.259635 15.1246 0.325629C15.0575 0.391624 15.0086 0.473794 14.9825 0.564217C14.9563 0.65464 14.954 0.750267 14.9755 0.841881C14.9971 0.933495 15.0419 1.01801 15.1056 1.08727Z" fill="url(#paint1_linear)" style="block-size:auto;d:path(&quot;M 15.1056 1.08727 C 15.1829 1.18542 15.2942 1.25106 15.4175 1.27124 C 17.7456 1.76537 19.9833 2.6166 22.0513 3.79476 C 26.2978 6.2663 29.0049 10.0056 29.1089 14.2648 C 29.1383 15.8887 28.8036 17.4985 28.1292 18.9759 C 27.6973 19.9357 25.3781 23.3751 24.9943 24.003 C 23.4148 26.4785 23.9226 26.3226 26.1459 29.414 L 29.3448 34.1531 L 31.5081 37.3085 C 32.7469 36.4647 33.9204 35.5289 35.0189 34.509 C 37.2564 32.2639 38.943 29.5305 39.9461 26.5235 C 40.9493 23.5165 41.2417 20.3178 40.8003 17.1787 C 40.359 14.0396 39.1959 11.0456 37.4025 8.4319 C 35.6091 5.8182 33.2342 3.65597 30.4644 2.11508 C 37.59 7.3381 40.8409 15.1686 38.1138 23.0672 C 37.3695 25.1868 36.2806 27.1691 34.8909 28.9341 L 32.5477 25.4867 C 32.4134 25.2872 32.3464 25.05 32.3565 24.8096 C 32.3665 24.5693 32.4532 24.3385 32.6037 24.151 C 33.7226 22.7784 34.5952 21.2224 35.1828 19.5518 C 38.1778 10.8574 30.0845 1.85113 21.5354 0.383401 C 19.896 0.103453 16.909 -0.208491 15.3655 0.187435 C 15.2747 0.212041 15.1917 0.259635 15.1246 0.325629 C 15.0575 0.391624 15.0086 0.473794 14.9825 0.564217 C 14.9563 0.65464 14.954 0.750267 14.9755 0.841881 C 14.9971 0.933495 15.0419 1.01801 15.1056 1.08727 Z&quot;);fill:url(&quot;#paint1_linear&quot;);height:auto;inline-size:auto;overflow-x:visible;overflow-y:visible;perspective-origin:0px 0px;transform-origin:0px 0px;width:auto;"/>
    
    
    
    
    
    
    
    
    
    
    
    
    
    
    
    
    
    <defs style="block-size:auto;fill:none;height:auto;inline-size:auto;overflow-x:visible;overflow-y:visible;perspective-origin:0px 0px;transform-origin:0px 0px;width:auto;">
    <linearGradient id="paint0_linear" x1="7.66581" y1="36.2251" x2="22.643" y2="10.282" gradientUnits="userSpaceOnUse" style="block-size:auto;fill:none;height:auto;inline-size:auto;overflow-x:visible;overflow-y:visible;perspective-origin:0px 0px;transform-origin:0px 0px;width:auto;">
    <stop stop-color="#174E5B" style="block-size:auto;fill:none;height:auto;inline-size:auto;overflow-x:visible;overflow-y:visible;perspective-origin:50% 50%;stop-color:rgb(23, 78, 91);transform-origin:0px 0px;width:auto;"/>
    <stop offset="0.07" stop-color="#195A6C" style="block-size:auto;fill:none;height:auto;inline-size:auto;overflow-x:visible;overflow-y:visible;perspective-origin:50% 50%;stop-color:rgb(25, 90, 108);transform-origin:0px 0px;width:auto;"/>
    <stop offset="0.21" stop-color="#1E779A" style="block-size:auto;fill:none;height:auto;inline-size:auto;overflow-x:visible;overflow-y:visible;perspective-origin:50% 50%;stop-color:rgb(30, 119, 154);transform-origin:0px 0px;width:auto;"/>
    <stop offset="0.4" stop-color="#27A7E3" style="block-size:auto;fill:none;height:auto;inline-size:auto;overflow-x:visible;overflow-y:visible;perspective-origin:50% 50%;stop-color:rgb(39, 167, 227);transform-origin:0px 0px;width:auto;"/>
    <stop offset="0.47" stop-color="#2ABAFF" style="block-size:auto;fill:none;height:auto;inline-size:auto;overflow-x:visible;overflow-y:visible;perspective-origin:50% 50%;stop-color:rgb(42, 186, 255);transform-origin:0px 0px;width:auto;"/>
    <stop offset="0.7" stop-color="#1DDAF0" style="block-size:auto;fill:none;height:auto;inline-size:auto;overflow-x:visible;overflow-y:visible;perspective-origin:50% 50%;stop-color:rgb(29, 218, 240);transform-origin:0px 0px;width:auto;"/>
    <stop offset="1" stop-color="#0EFFE0" style="block-size:auto;fill:none;height:auto;inline-size:auto;overflow-x:visible;overflow-y:visible;perspective-origin:50% 50%;stop-color:rgb(14, 255, 224);transform-origin:0px 0px;width:auto;"/>
    </linearGradient>
    <linearGradient id="paint1_linear" x1="33.3354" y1="3.77477" x2="18.3571" y2="29.7159" gradientUnits="userSpaceOnUse" style="block-size:auto;fill:none;height:auto;inline-size:auto;overflow-x:visible;overflow-y:visible;perspective-origin:0px 0px;transform-origin:0px 0px;width:auto;">
    <stop stop-color="#174E5B" style="block-size:auto;fill:none;height:auto;inline-size:auto;overflow-x:visible;overflow-y:visible;perspective-origin:50% 50%;stop-color:rgb(23, 78, 91);transform-origin:0px 0px;width:auto;"/>
    <stop offset="0.07" stop-color="#195A6C" style="block-size:auto;fill:none;height:auto;inline-size:auto;overflow-x:visible;overflow-y:visible;perspective-origin:50% 50%;stop-color:rgb(25, 90, 108);transform-origin:0px 0px;width:auto;"/>
    <stop offset="0.21" stop-color="#1E779A" style="block-size:auto;fill:none;height:auto;inline-size:auto;overflow-x:visible;overflow-y:visible;perspective-origin:50% 50%;stop-color:rgb(30, 119, 154);transform-origin:0px 0px;width:auto;"/>
    <stop offset="0.4" stop-color="#27A7E3" style="block-size:auto;fill:none;height:auto;inline-size:auto;overflow-x:visible;overflow-y:visible;perspective-origin:50% 50%;stop-color:rgb(39, 167, 227);transform-origin:0px 0px;width:auto;"/>
    <stop offset="0.47" stop-color="#2ABAFF" style="block-size:auto;fill:none;height:auto;inline-size:auto;overflow-x:visible;overflow-y:visible;perspective-origin:50% 50%;stop-color:rgb(42, 186, 255);transform-origin:0px 0px;width:auto;"/>
    <stop offset="0.7" stop-color="#1DDAF0" style="block-size:auto;fill:none;height:auto;inline-size:auto;overflow-x:visible;overflow-y:visible;perspective-origin:50% 50%;stop-color:rgb(29, 218, 240);transform-origin:0px 0px;width:auto;"/>
    <stop offset="1" stop-color="#0EFFE0" style="block-size:auto;fill:none;height:auto;inline-size:auto;overflow-x:visible;overflow-y:visible;perspective-origin:50% 50%;stop-color:rgb(14, 255, 224);transform-origin:0px 0px;width:auto;"/>
    </linearGradient>
    </defs>
    </svg>