<svg width="291" height="284" viewBox="0 0 291 284" fill="none" xmlns="http://www.w3.org/2000/svg">
<path d="M183.725 275.364C183.176 274.669 182.387 274.205 181.512 274.062C164.994 270.565 149.117 264.542 134.444 256.205C104.315 238.715 85.1074 212.255 84.3696 182.115C84.1611 170.624 86.5362 159.233 91.3204 148.778C94.385 141.986 110.84 117.648 113.564 113.205C124.77 95.6873 121.167 96.7912 105.393 74.9147L82.6961 41.3795L67.3472 19.0508C58.5578 25.0217 50.231 31.6437 42.4376 38.8607C26.5619 54.748 14.5952 74.0904 7.47777 95.3689C0.360273 116.648 -1.71427 139.282 1.41712 161.496C4.54851 183.709 12.8005 204.895 25.525 223.391C38.2494 241.886 55.0996 257.187 74.7522 268.091C24.1951 231.131 1.12946 175.72 20.4784 119.827C25.7594 104.828 33.4855 90.8004 43.3454 78.3107L59.9708 102.706C60.9237 104.117 61.3991 105.797 61.3276 107.497C61.2562 109.197 60.6416 110.831 59.5736 112.158C51.635 121.87 45.4437 132.882 41.2744 144.703C20.0245 206.227 77.4472 269.959 138.104 280.345C149.736 282.326 170.929 284.533 181.881 281.732C182.525 281.558 183.114 281.221 183.59 280.754C184.066 280.287 184.414 279.705 184.599 279.065C184.784 278.426 184.801 277.748 184.648 277.1C184.494 276.452 184.177 275.854 183.725 275.364Z" fill="url(#paint0_linear)"/>
<path d="M107.16 7.69387C107.708 8.38841 108.498 8.8529 109.373 8.9957C125.888 12.4923 141.763 18.5159 156.433 26.8529C186.558 44.3424 205.762 70.8029 206.5 100.942C206.709 112.434 204.334 123.825 199.55 134.28C196.486 141.071 180.034 165.41 177.311 169.853C166.106 187.37 169.708 186.267 185.481 208.143L208.174 241.678L223.52 264.007C232.308 258.036 240.633 251.414 248.426 244.197C264.299 228.31 276.264 208.967 283.38 187.689C290.497 166.41 292.571 143.775 289.44 121.562C286.309 99.3487 278.058 78.1622 265.336 59.6668C252.613 41.1715 235.765 25.8708 216.116 14.967C266.666 51.9268 289.728 107.338 270.382 163.231C265.101 178.23 257.377 192.257 247.518 204.747L230.895 180.352C229.943 178.94 229.467 177.262 229.539 175.561C229.61 173.86 230.225 172.227 231.293 170.9C239.23 161.187 245.42 150.177 249.589 138.355C270.836 76.8305 213.421 13.0992 152.773 2.71307C141.143 0.732066 119.953 -1.47535 109.004 1.32635C108.36 1.50047 107.771 1.83726 107.295 2.30426C106.819 2.77126 106.472 3.35272 106.287 3.99258C106.101 4.63244 106.085 5.30913 106.237 5.95742C106.39 6.60571 106.708 7.20377 107.16 7.69387Z" fill="url(#paint1_linear)"/>
<defs>
<linearGradient id="paint0_linear" x1="54.3817" y1="256.346" x2="160.232" y2="72.5348" gradientUnits="userSpaceOnUse">
<stop stop-color="#174E5B"/>
<stop offset="0.07" stop-color="#195A6C"/>
<stop offset="0.21" stop-color="#1E779A"/>
<stop offset="0.4" stop-color="#27A7E3"/>
<stop offset="0.47" stop-color="#2ABAFF"/>
<stop offset="0.7" stop-color="#1DDAF0"/>
<stop offset="1" stop-color="#0EFFE0"/>
</linearGradient>
<linearGradient id="paint1_linear" x1="236.483" y1="26.7115" x2="130.625" y2="210.509" gradientUnits="userSpaceOnUse">
<stop stop-color="#174E5B"/>
<stop offset="0.07" stop-color="#195A6C"/>
<stop offset="0.21" stop-color="#1E779A"/>
<stop offset="0.4" stop-color="#27A7E3"/>
<stop offset="0.47" stop-color="#2ABAFF"/>
<stop offset="0.7" stop-color="#1DDAF0"/>
<stop offset="1" stop-color="#0EFFE0"/>
</linearGradient>
</defs>
</svg>
