<?xml version="1.0" standalone="no"?><!DOCTYPE svg PUBLIC "-//W3C//DTD SVG 1.1//EN" "http://www.w3.org/Graphics/SVG/1.1/DTD/svg11.dtd"><svg viewBox="0 0 96.69 23.76" version="1.1" xmlns="http://www.w3.org/2000/svg" xmlns:xlink="http://www.w3.org/1999/xlink" style="block-size:231.234px;height:231.234px;inline-size:941px;perspective-origin:470.5px 115.609px;transform-origin:470.5px 115.617px;width:941px;"><script style="block-size:auto;height:auto;inline-size:auto;overflow-x:visible;overflow-y:visible;perspective-origin:50% 50%;transform-origin:0px 0px;width:auto;"/>
    <title style="block-size:auto;height:auto;inline-size:auto;overflow-x:visible;overflow-y:visible;perspective-origin:50% 50%;transform-origin:0px 0px;width:auto;">Fichier 1</title>
    <g id="Calque_2" data-name="Calque 2" style="block-size:auto;height:auto;inline-size:auto;overflow-x:visible;overflow-y:visible;perspective-origin:0px 0px;transform-origin:0px 0px;width:auto;">
      <g id="Calque_1-2" data-name="Calque 1" style="block-size:auto;height:auto;inline-size:auto;overflow-x:visible;overflow-y:visible;perspective-origin:0px 0px;transform-origin:0px 0px;width:auto;">
        <g style="block-size:auto;height:auto;inline-size:auto;overflow-x:visible;overflow-y:visible;perspective-origin:0px 0px;transform-origin:0px 0px;width:auto;">
          <path id="Shape" d="M16.7,0H7.59V12.29h12.3V3.18A3.18,3.18,0,0,0,16.7,0Z" style="block-size:auto;d:path(&quot;M 16.7 0 H 7.59 V 12.29 H 19.89 V 3.18 A 3.18 3.18 0 0 0 16.7 0 Z&quot;);fill:rgb(20, 37, 51);height:auto;inline-size:auto;overflow-x:visible;overflow-y:visible;perspective-origin:0px 0px;transform-origin:0px 0px;width:auto;"/>
          <path d="M4.75,0H3.18A3.18,3.18,0,0,0,0,3.18V4.75H4.75Z" style="block-size:auto;d:path(&quot;M 4.75 0 H 3.18 A 3.18 3.18 0 0 0 0 3.18 V 4.75 H 4.75 Z&quot;);fill:rgb(20, 37, 51);height:auto;inline-size:auto;overflow-x:visible;overflow-y:visible;perspective-origin:0px 0px;transform-origin:0px 0px;width:auto;"/>
          <polygon id="Rectangle-path" points="0 7.59 4.75 7.59 4.75 12.34 0 12.34 0 7.59" style="block-size:auto;fill:rgb(20, 37, 51);height:auto;inline-size:auto;overflow-x:visible;overflow-y:visible;perspective-origin:0px 0px;transform-origin:0px 0px;width:auto;"/>
          <path d="M15.18,19.89h1.57a3.18,3.18,0,0,0,3.18-3.19V15.18H15.18Z" style="block-size:auto;d:path(&quot;M 15.18 19.89 H 16.75 A 3.18 3.18 0 0 0 19.93 16.7 V 15.18 H 15.18 Z&quot;);fill:rgb(20, 37, 51);height:auto;inline-size:auto;overflow-x:visible;overflow-y:visible;perspective-origin:0px 0px;transform-origin:0px 0px;width:auto;"/>
          <polygon points="7.59 15.18 12.34 15.18 12.34 19.93 7.59 19.93 7.59 15.18" style="block-size:auto;fill:rgb(20, 37, 51);height:auto;inline-size:auto;overflow-x:visible;overflow-y:visible;perspective-origin:0px 0px;transform-origin:0px 0px;width:auto;"/>
          <path d="M0,15.18v1.57a3.18,3.18,0,0,0,3.18,3.18H4.75V15.18Z" style="block-size:auto;d:path(&quot;M 0 15.18 V 16.75 A 3.18 3.18 0 0 0 3.18 19.93 H 4.75 V 15.18 Z&quot;);fill:rgb(20, 37, 51);height:auto;inline-size:auto;overflow-x:visible;overflow-y:visible;perspective-origin:0px 0px;transform-origin:0px 0px;width:auto;"/>
          <polygon points="32.03 1.27 30.17 1.27 30.17 18.66 40.02 18.66 40.02 17 32.03 17 32.03 1.27" style="block-size:auto;fill:rgb(20, 37, 51);height:auto;inline-size:auto;overflow-x:visible;overflow-y:visible;perspective-origin:0px 0px;transform-origin:0px 0px;width:auto;"/>
          <path d="M46,5.88c-3.62,0-6.17,2.69-6.17,6.56v.44A6.35,6.35,0,0,0,46.14,19h.24A7.13,7.13,0,0,0,51,17.29l0-.05-.84-1.37-.09.05a5.47,5.47,0,0,1-3.68,1.47,4.6,4.6,0,0,1-4.7-4.75h9.4v-.1s0-.59,0-.88C51.18,8.13,49.13,5.88,46,5.88Zm-4.21,5.19a4.12,4.12,0,0,1,4.11-3.63c1.57,0,3.29.94,3.43,3.63Z" style="block-size:auto;d:path(&quot;M 46 5.88 C 42.38 5.88 39.83 8.57 39.83 12.44 V 12.88 A 6.35 6.35 0 0 0 46.14 19 H 46.38 A 7.13 7.13 0 0 0 51 17.29 L 51 17.24 L 50.16 15.87 L 50.07 15.92 A 5.47 5.47 0 0 1 46.39 17.39 A 4.6 4.6 0 0 1 41.69 12.64 H 51.09 V 12.54 S 51.09 11.95 51.09 11.66 C 51.18 8.13 49.13 5.88 46 5.88 Z M 41.79 11.07 A 4.12 4.12 0 0 1 45.9 7.44 C 47.47 7.44 49.19 8.38 49.33 11.07 Z&quot;);fill:rgb(20, 37, 51);height:auto;inline-size:auto;overflow-x:visible;overflow-y:visible;perspective-origin:0px 0px;transform-origin:0px 0px;width:auto;"/>
          <path d="M62,7.35V8a4.43,4.43,0,0,0-3.77-2.15H58c-3.33,0-5.63,2.64-5.63,6.51s2.2,6.57,5.48,6.57a4.58,4.58,0,0,0,4.17-2.26v1.91h1.76V1.27H62V7.35Zm-3.82,9.94c-2.3,0-3.82-2-3.82-4.9s1.61-4.85,3.87-4.85C60.1,7.54,62,9.06,62,12.39,62,16,60,17.29,58.14,17.29Z" style="block-size:auto;d:path(&quot;M 62 7.35 V 8 A 4.43 4.43 0 0 0 58.23 5.85 H 58 C 54.67 5.85 52.37 8.49 52.37 12.36 S 54.57 18.93 57.85 18.93 A 4.58 4.58 0 0 0 62.02 16.67 V 18.58 H 63.78 V 1.27 H 62 V 7.35 Z M 58.18 17.29 C 55.88 17.29 54.36 15.29 54.36 12.39 S 55.97 7.54 58.23 7.54 C 60.1 7.54 62 9.06 62 12.39 C 62 16 60 17.29 58.14 17.29 Z&quot;);fill:rgb(20, 37, 51);height:auto;inline-size:auto;overflow-x:visible;overflow-y:visible;perspective-origin:0px 0px;transform-origin:0px 0px;width:auto;"/>
          <path d="M74.55,7.59v.1c-.35-.59-1.42-1.86-4-1.86-3.28,0-5.44,2.5-5.44,6.32s2.26,6.41,5.59,6.41a4.16,4.16,0,0,0,3.87-2v1.72c0,2.4-1.52,3.77-4.22,3.77A7.3,7.3,0,0,1,67,21.26l-.09-.05-.69,1.52.1.05a9.26,9.26,0,0,0,4.06,1c2.89,0,6-1.47,6-5.54v-12H74.55V7.59ZM70.92,17c-2.4,0-4-1.86-4-4.75s1.37-4.61,3.72-4.61c2.59,0,3.82,1.52,3.82,4.61S73.27,17,70.92,17Z" style="block-size:auto;d:path(&quot;M 74.55 7.59 V 7.69 C 74.2 7.1 73.13 5.83 70.55 5.83 C 67.27 5.83 65.11 8.33 65.11 12.15 S 67.37 18.56 70.7 18.56 A 4.16 4.16 0 0 0 74.57 16.56 V 18.28 C 74.57 20.68 73.05 22.05 70.35 22.05 A 7.3 7.3 0 0 1 67 21.26 L 66.91 21.21 L 66.22 22.73 L 66.32 22.78 A 9.26 9.26 0 0 0 70.38 23.78 C 73.27 23.78 76.38 22.31 76.38 18.24 V 6.24 H 74.55 V 7.59 Z M 70.92 17 C 68.52 17 66.92 15.14 66.92 12.25 S 68.29 7.64 70.64 7.64 C 73.23 7.64 74.46 9.16 74.46 12.25 S 73.27 17 70.92 17 Z&quot;);fill:rgb(20, 37, 51);height:auto;inline-size:auto;overflow-x:visible;overflow-y:visible;perspective-origin:0px 0px;transform-origin:0px 0px;width:auto;"/>
          <path d="M83.76,5.88c-3.63,0-6.13,2.69-6.13,6.51v.44A6.37,6.37,0,0,0,84,19h.25a7.12,7.12,0,0,0,4.6-1.72l0,0L88,15.82l-.1,0a5.45,5.45,0,0,1-3.67,1.47,4.61,4.61,0,0,1-4.71-4.75H89v-.1s0-.59,0-.88C89,8.13,86.94,5.88,83.76,5.88Zm-4.17,5.19a4.13,4.13,0,0,1,4.12-3.63c1.56,0,3.28.94,3.42,3.63Z" style="block-size:auto;d:path(&quot;M 83.76 5.88 C 80.13 5.88 77.63 8.57 77.63 12.39 V 12.83 A 6.37 6.37 0 0 0 84 19 H 84.25 A 7.12 7.12 0 0 0 88.85 17.28 L 88.85 17.28 L 88 15.82 L 87.9 15.82 A 5.45 5.45 0 0 1 84.23 17.29 A 4.61 4.61 0 0 1 79.52 12.54 H 89 V 12.44 S 89 11.85 89 11.56 C 89 8.13 86.94 5.88 83.76 5.88 Z M 79.59 11.07 A 4.13 4.13 0 0 1 83.71 7.44 C 85.27 7.44 86.99 8.38 87.13 11.07 Z&quot;);fill:rgb(20, 37, 51);height:auto;inline-size:auto;overflow-x:visible;overflow-y:visible;perspective-origin:0px 0px;transform-origin:0px 0px;width:auto;"/>
          <path d="M96.64,6.12c-.25,0-.44,0-.69-.1a4.2,4.2,0,0,0-3.87,2.89V6.12H90.27l0,12.39v.1h1.86V13.37A7.77,7.77,0,0,1,92.52,11c.59-1.91,1.91-3.13,3.48-3.13a2.93,2.93,0,0,1,.59,0h.1V6.12Z" style="block-size:auto;d:path(&quot;M 96.64 6.12 C 96.39 6.12 96.2 6.12 95.95 6.02 A 4.2 4.2 0 0 0 92.08 8.91 V 6.12 H 90.27 L 90.27 18.51 V 18.61 H 92.13 V 13.37 A 7.77 7.77 0 0 1 92.52 11 C 93.11 9.09 94.43 7.87 96 7.87 A 2.93 2.93 0 0 1 96.59 7.87 H 96.69 V 6.12 Z&quot;);fill:rgb(20, 37, 51);height:auto;inline-size:auto;overflow-x:visible;overflow-y:visible;perspective-origin:0px 0px;transform-origin:0px 0px;width:auto;"/>
        </g>
      </g>
    </g>
  </svg>