<svg width="400" height="400" viewBox="0 0 400 400" fill="none" xmlns="http://www.w3.org/2000/svg">
<path fill-rule="evenodd" clip-rule="evenodd" d="M141.073 183.892C141.073 183.892 141.187 181.876 141.269 180.895C141.915 172.83 143.642 151.421 146.228 145.395C152.777 130.127 165.06 117.987 181.744 110.271C183.554 109.432 185.041 108.113 186.047 106.446L198.215 86.317L211.958 108.511L226.101 93.8639L215.167 76.2092C211.565 70.3951 205.185 66.9568 198.106 67.0004C191.016 67.0386 184.675 70.5531 181.149 76.389L170.281 94.3706C154.154 102.206 133.452 117.507 124.87 146.245C122.153 155.345 120.895 179.691 120.956 190.763L121.027 203.514L141.007 184.889L141.062 183.892H141.073ZM256.544 173.637L165.164 272.847C151.815 263.91 143.62 251.824 143.341 225.495L235.088 126.465C248.235 135.385 256.287 147.498 256.544 173.648V173.637ZM276.569 183.652L276.563 182.497L277.164 181.843L276.836 180.541C276.727 180.105 276.64 179.685 276.547 179.26L276.519 174.1C276.333 140.033 264.269 123.463 248.333 112.162L288.688 68.597L261.426 68.7441L225.882 106.778L216.561 116.346L216.829 116.472L124.399 215.387L123.317 215.392V216.537L122.716 217.191L123.044 218.504C123.153 218.934 123.246 219.381 123.339 219.839L123.366 224.95C123.558 259.306 135.83 275.865 151.962 287.177L109 333.804L137.372 333.652L275.497 183.652H276.569V183.652ZM258.813 215.158C258.813 215.158 258.698 217.174 258.616 218.155C257.971 226.214 256.249 247.618 253.658 253.65C247.109 268.918 234.825 281.064 218.141 288.779C216.357 289.594 214.858 290.922 213.839 292.594L201.67 312.728L187.927 290.534L173.785 305.181L184.718 322.841C188.315 328.644 194.695 332.088 201.774 332.05C208.864 332.006 215.2 328.497 218.732 322.656L229.599 304.674C245.726 296.844 266.428 281.538 275.011 252.8C277.727 243.711 278.985 219.359 278.925 208.282L278.854 195.531L258.873 214.156L258.818 215.153L258.813 215.158Z" fill="#25EA9A"/>
</svg>
