<?xml version="1.0" standalone="no"?><!DOCTYPE svg PUBLIC "-//W3C//DTD SVG 1.1//EN" "http://www.w3.org/Graphics/SVG/1.1/DTD/svg11.dtd"><svg width="172" height="49" viewBox="0 0 172 49" version="1.1" xmlns="http://www.w3.org/2000/svg" xmlns:xlink="http://www.w3.org/1999/xlink" style="block-size:49px;height:49px;inline-size:172px;perspective-origin:86px 24.5px;transform-origin:86px 24.5px;width:172px;"><script style="block-size:auto;height:auto;inline-size:auto;overflow-x:visible;overflow-y:visible;perspective-origin:50% 50%;transform-origin:0px 0px;width:auto;"/><g fill="none" fill-rule="evenodd" style="block-size:auto;fill:none;fill-rule:evenodd;height:auto;inline-size:auto;overflow-x:visible;overflow-y:visible;perspective-origin:0px 0px;transform-origin:0px 0px;width:auto;"><path d="M5.867 21.452s.021-.37.036-.55c.118-1.48.434-5.409.907-6.515 1.198-2.802 3.445-5.03 6.497-6.446.331-.154.603-.396.787-.702l2.226-3.694 2.514 4.073 2.587-2.688-2-3.24C18.762.623 17.595-.008 16.3 0c-1.297.007-2.457.652-3.102 1.723l-1.988 3.3c-2.95 1.438-6.737 4.246-8.307 9.52-.497 1.67-.727 6.138-.716 8.17l.013 2.34 3.655-3.418.01-.183zM26.99 19.57L10.274 37.777c-2.442-1.64-3.941-3.858-3.992-8.69l16.783-18.174c2.405 1.637 3.878 3.86 3.925 8.659zm3.663 1.838l-.001-.212.11-.12-.06-.239c-.02-.08-.036-.157-.053-.235l-.005-.947c-.034-6.252-2.241-9.293-5.156-11.367L32.87.293 27.883.32 21.381 7.3l-1.705 1.756.049.023L2.817 27.232l-.198.001v.21l-.11.12.06.241c.02.079.037.161.054.245l.005.938c.035 6.305 2.28 9.344 5.231 11.42L0 48.964l5.19-.028 25.267-27.528h.196zm-3.248 5.782s-.021.37-.036.55c-.118 1.479-.433 5.407-.907 6.514-1.198 2.802-3.445 5.031-6.497 6.447a1.796 1.796 0 0 0-.787.7l-2.226 3.695-2.514-4.073-2.587 2.688 2 3.241c.658 1.065 1.825 1.697 3.12 1.69 1.297-.008 2.456-.652 3.102-1.724l1.988-3.3c2.95-1.437 6.737-4.246 8.307-9.52.497-1.668.727-6.137.716-8.17l-.013-2.34-3.655 3.418-.01.183z" fill="#25EA9A" style="block-size:auto;d:path(&quot;M 5.867 21.452 S 5.888 21.082 5.903 20.902 C 6.021 19.422 6.337 15.493 6.81 14.387 C 8.008 11.585 10.255 9.357 13.307 7.941 C 13.638 7.787 13.91 7.545 14.094 7.239 L 16.32 3.545 L 18.834 7.618 L 21.421 4.93 L 19.421 1.69 C 18.762 0.623 17.595 -0.008 16.3 0 C 15.003 0.007 13.843 0.652 13.198 1.723 L 11.21 5.023 C 8.26 6.461 4.473 9.269 2.903 14.543 C 2.406 16.213 2.176 20.681 2.187 22.713 L 2.2 25.053 L 5.855 21.635 L 5.865 21.452 Z M 26.99 19.57 L 10.274 37.777 C 7.832 36.137 6.333 33.919 6.282 29.087 L 23.065 10.913 C 25.47 12.55 26.943 14.773 26.99 19.572 Z M 30.653 21.408 L 30.652 21.196 L 30.762 21.076 L 30.702 20.837 C 30.682 20.757 30.666 20.68 30.649 20.602 L 30.644 19.655 C 30.61 13.403 28.403 10.362 25.488 8.288 L 32.87 0.293 L 27.883 0.32 L 21.381 7.3 L 19.676 9.056 L 19.725 9.079 L 2.817 27.232 L 2.619 27.233 V 27.443 L 2.509 27.563 L 2.569 27.804 C 2.589 27.883 2.606 27.965 2.623 28.049 L 2.628 28.987 C 2.663 35.292 4.908 38.331 7.859 40.407 L 0 48.964 L 5.19 48.936 L 30.457 21.408 H 30.653 Z M 27.405 27.19 S 27.384 27.56 27.369 27.74 C 27.251 29.219 26.936 33.147 26.462 34.254 C 25.264 37.056 23.017 39.285 19.965 40.701 A 1.796 1.796 0 0 0 19.178 41.401 L 16.952 45.096 L 14.438 41.023 L 11.851 43.711 L 13.851 46.952 C 14.509 48.017 15.676 48.649 16.971 48.642 C 18.268 48.634 19.427 47.99 20.073 46.918 L 22.061 43.618 C 25.011 42.181 28.798 39.372 30.368 34.098 C 30.865 32.43 31.095 27.961 31.084 25.928 L 31.071 23.588 L 27.416 27.006 L 27.406 27.189 Z&quot;);fill:rgb(37, 234, 154);fill-rule:evenodd;height:auto;inline-size:auto;overflow-x:visible;overflow-y:visible;perspective-origin:0px 0px;transform-origin:0px 0px;width:auto;"/></g></svg>