<svg xmlns="http://www.w3.org/2000/svg" width="140" height="27" viewBox="0 0 140 27">
    <g fill="none" fill-rule="evenodd">
        <path fill="#2DB8E3" d="M26.028.798A2.724 2.724 0 0 0 24.095 0h-.007a2.71 2.71 0 0 0-1.932.809L.798 22.269A2.719 2.719 0 0 0 0 24.205c.002.731.289 1.418.807 1.934a2.717 2.717 0 0 0 1.93.798c.733 0 1.424-.287 1.942-.806L26.036 4.67a2.743 2.743 0 0 0-.008-3.872z"/>
        <path fill="#3840C7" d="M38.428.261a2.721 2.721 0 0 0-2.985.599l-21.36 21.462a2.74 2.74 0 0 0 .01 3.872 2.741 2.741 0 0 0 3.873-.011L34.644 9.425v14.827a2.74 2.74 0 0 0 2.738 2.738 2.74 2.74 0 0 0 2.738-2.738V2.792A2.727 2.727 0 0 0 38.428.261z"/>
        <path fill="#0B0D32" d="M78.207 23.248h-5.884V20.81h.742v-5.232c0-1.267-.222-2.163-.668-2.688-.445-.525-1.074-.788-1.886-.788-1.052 0-1.818.356-2.304 1.07-.487.715-.74 1.525-.758 2.437v5.2h1.99v2.439h-5.883V20.81h.712v-5.232c0-1.267-.222-2.163-.668-2.688-.446-.525-1.066-.788-1.858-.788-1.031 0-1.794.352-2.289 1.053-.497.705-.752 1.514-.773 2.423v5.232h2.498v2.438h-7.67V20.81H55.5v-8.44h-1.962V9.904h5.142v2.198a5.135 5.135 0 0 1 1.665-1.784c.694-.455 1.534-.684 2.526-.684.99 0 1.883.243 2.676.73.792.486 1.345 1.243 1.664 2.274.395-.913.97-1.64 1.723-2.187.754-.544 1.675-.817 2.766-.817 1.206 0 2.267.388 3.178 1.161.912.772 1.368 1.982 1.368 3.625v6.39h1.961v2.438zM87.957 17.958v-.478l-1.041-.118a10.14 10.14 0 0 0-1.1-.058c-.792 0-1.5.138-2.124.414-.624.279-.937.834-.937 1.667 0 1.208.645 1.812 1.932 1.812.752 0 1.468-.27 2.139-.817.675-.546 1.052-1.353 1.13-2.422zm-7.252-7.075c.99-.476 1.873-.803 2.646-.98.772-.18 1.663-.269 2.674-.269 1.487 0 2.71.377 3.671 1.131.96.752 1.443 1.881 1.443 3.388v6.003c0 .793.326 1.19.98 1.19.178 0 .407-.041.683-.12l.03 1.756a4.242 4.242 0 0 1-2.14.563c-1.684 0-2.597-.882-2.734-2.646v-.058c-.398.693-.957 1.318-1.679 1.871-.724.555-1.62.833-2.69.833-.932 0-1.848-.281-2.75-.849-.902-.563-1.353-1.548-1.353-2.956 0-1.645.656-2.728 1.963-3.255 1.307-.525 2.725-.786 4.25-.786.376 0 .761.01 1.16.028.396.02.762.051 1.099.09v-.743c0-.793-.14-1.505-.416-2.14-.278-.635-.97-.952-2.08-.952-.416 0-.809.03-1.175.09a3.399 3.399 0 0 0-1.056.356l-.533 2.05-2.556-.265.563-3.33zM102.312 9.694c.891 0 1.724.249 2.496.742l.565 4.16-2.466.299-.505-2.289c-.398-.197-.733-.297-1.011-.297-.555 0-1.036.229-1.443.683-.405.456-.608 1.09-.608 1.902v5.916h2.644v2.436h-7.816V20.81h1.992v-8.44h-2.082V9.902h5.024v2.496a4.651 4.651 0 0 1 1.143-1.918c.525-.525 1.216-.786 2.067-.786zM113.667 23.247h-7.135v-2.438h1.992V5.234h-2.11V2.798h5.26v18.01h1.993zM117.026 7.138h3.24V3.63h-3.24v3.508zm5.32 16.107h-7.134v-2.438h1.992v-8.44h-2.11V9.901h5.26v10.906h1.992v2.438zM140.001 23.248h-7.132V20.81h1.96v-5.232c0-1.267-.225-2.163-.682-2.688-.456-.525-1.09-.788-1.902-.788-1.011 0-1.809.326-2.394.98-.585.655-.886 1.458-.906 2.41v5.318h1.991v2.438h-7.163V20.81h1.993v-8.44h-2.082V9.904h5.261v2.168c.932-1.626 2.409-2.438 4.429-2.438 1.268 0 2.357.388 3.27 1.161.91.772 1.367 1.982 1.367 3.625v6.39h1.99v2.438z"/>
    </g>
</svg>
