<svg width="400" height="400" viewBox="0 0 400 400" fill="none" xmlns="http://www.w3.org/2000/svg">
<path d="M86.3596 170.64L136.437 83.6473C138.729 79.6733 142.501 76.7746 146.924 75.5883C151.346 74.4019 156.058 75.025 160.022 77.3206V77.3206C163.989 79.6175 166.883 83.4002 168.068 87.8368C169.253 92.2733 168.633 97.0003 166.343 100.978L116.265 187.971C113.975 191.947 110.203 194.848 105.78 196.035C101.357 197.223 96.6449 196.6 92.6799 194.303V194.303C90.7147 193.166 88.9922 191.652 87.6108 189.848C86.2295 188.043 85.2163 185.983 84.6294 183.785C84.0424 181.588 83.8931 179.295 84.19 177.04C84.4869 174.784 85.2241 172.61 86.3596 170.64V170.64Z" fill="url(#paint0_linear)"/>
<path d="M105.619 262.288L105.281 208.228L79.5944 251.612H62.0194L36.3329 210.121V262.316H0V143.69H32.7841L71.3139 206.901L108.83 143.69H141.614L141.952 262.316L105.619 262.288ZM236.079 262.288L215.632 230.598L195.691 262.288H150.232L192.987 202.466L151.753 143.662H196.524L216.634 173.488L236.237 143.662H279.161L238.096 200.941L281.696 262.288H236.079ZM346.937 264.999C334.432 264.999 323.166 262.373 313.139 257.119C303.387 252.123 295.222 244.492 289.565 235.089C283.868 225.655 281.02 214.95 281.02 202.975C281.02 190.999 283.864 180.295 289.554 170.861C295.21 161.457 303.376 153.827 313.128 148.83C323.154 143.558 334.42 140.922 346.926 140.922C358.417 140.922 368.669 142.955 377.682 147.023C386.479 150.919 394.152 156.982 399.989 164.647L374.809 187.186C367.486 177.922 358.868 173.29 348.954 173.29C340.617 173.29 333.914 175.973 328.844 181.34C323.774 186.706 321.239 193.908 321.239 202.947C321.239 211.985 323.774 219.187 328.844 224.553C333.914 229.92 340.617 232.603 348.954 232.603C358.868 232.603 367.486 227.971 374.809 218.707L399.989 241.246C394.152 248.911 386.479 254.974 377.682 258.87C368.677 262.956 358.425 264.999 346.926 264.999H346.937Z" fill="#00FFD9"/>
<path d="M69.3181 199.64L119.396 112.647C121.688 108.673 125.46 105.775 129.882 104.588C134.305 103.402 139.016 104.025 142.981 106.321V106.321C146.947 108.617 149.841 112.4 151.027 116.837C152.212 121.273 151.591 126 149.301 129.978L99.2238 216.971C96.9334 220.947 93.1619 223.848 88.7388 225.035C84.3157 226.223 79.6034 225.6 75.6383 223.303V223.303C73.6732 222.166 71.9507 220.652 70.5693 218.848C69.1879 217.043 68.1748 214.983 67.5879 212.785C67.0009 210.588 66.8516 208.295 67.1485 206.04C67.4454 203.784 68.1826 201.61 69.3181 199.64V199.64Z" fill="url(#paint1_linear)"/>
<defs>
<linearGradient id="paint0_linear" x1="93.1447" y1="194.443" x2="159.418" y2="79.9716" gradientUnits="userSpaceOnUse">
<stop offset="0.15" stop-color="#00FFD9"/>
<stop offset="0.25" stop-color="#00FBD7"/>
<stop offset="0.36" stop-color="#01EDD2"/>
<stop offset="0.48" stop-color="#01D7C8"/>
<stop offset="0.6" stop-color="#02B9BC"/>
<stop offset="0.72" stop-color="#0491AB"/>
<stop offset="0.84" stop-color="#056197"/>
<stop offset="0.88" stop-color="#064E8F"/>
<stop offset="1" stop-color="#09006E"/>
</linearGradient>
<linearGradient id="paint1_linear" x1="76.1032" y1="223.443" x2="142.376" y2="108.972" gradientUnits="userSpaceOnUse">
<stop offset="0.15" stop-color="#00FFD9"/>
<stop offset="0.25" stop-color="#00FBD7"/>
<stop offset="0.36" stop-color="#01EDD2"/>
<stop offset="0.48" stop-color="#01D7C8"/>
<stop offset="0.6" stop-color="#02B9BC"/>
<stop offset="0.72" stop-color="#0491AB"/>
<stop offset="0.84" stop-color="#056197"/>
<stop offset="0.88" stop-color="#064E8F"/>
<stop offset="1" stop-color="#09006E"/>
</linearGradient>
</defs>
</svg>
