<?xml version="1.0" encoding="UTF-8"?>
<svg width="134px" height="26px" viewBox="0 0 134 26" version="1.1" xmlns="http://www.w3.org/2000/svg" xmlns:xlink="http://www.w3.org/1999/xlink">
    <title>ontology</title>
    <g id="页面-1" stroke="none" stroke-width="1" fill="none" fill-rule="evenodd">
        <g id="ONT.IO备份" transform="translate(-320.000000, -35.000000)" fill-rule="nonzero">
            <g id="ontology" transform="translate(320.000000, 35.000000)">
                <path d="M88.765,10 C89.4596956,9.99414004 90.148434,10.1284865 90.79,10.395 C92.0141752,10.886579 92.990273,11.8482695 93.5,13.065 C94.3241891,15.0007283 93.8931663,17.2428374 92.41,18.735 C91.9406749,19.1957251 91.3850671,19.5593339 90.775,19.805 C90.133434,20.0715135 89.4446956,20.20586 88.75,20.2 C88.0622132,20.2077531 87.3805853,20.0697235 86.75,19.795 C86.1463448,19.537545 85.5992771,19.1637721 85.14,18.695 C84.6791292,18.2245016 84.3080435,17.6738036 84.045,17.07 C83.7780308,16.4512101 83.6418484,15.7839166 83.645,15.11 C83.6391394,14.4238862 83.7717866,13.7436444 84.035,13.11 C84.3014479,12.5076174 84.6798105,11.9612821 85.15,11.5 C85.6153545,11.0316007 86.1672349,10.6580201 86.775,10.4 C87.4034506,10.1302163 88.081116,9.99400219 88.765,10 Z M88.705,10.89 C88.1453483,10.8867843 87.5914173,11.0026836 87.08,11.23 C86.5929566,11.4475824 86.1543533,11.7603847 85.79,12.15 C85.4235996,12.5457981 85.1352161,13.0072116 84.94,13.51 C84.7357711,14.0255557 84.6322372,14.5754736 84.6349461,15.13 C84.6330946,15.6747175 84.736667,16.2146521 84.94,16.72 C85.1370323,17.2197081 85.4290889,17.6764709 85.8,18.065 C86.1645991,18.4556067 86.6030611,18.7700078 87.09,18.99 C87.5975749,19.2182894 88.148466,19.3342665 88.705,19.33 C89.2786257,19.3310666 89.8471656,19.22245 90.38,19.01 C90.8871611,18.8079326 91.3481065,18.5051714 91.735,18.12 C92.1174154,17.7364872 92.4229091,17.2833382 92.635,16.785 C92.8577385,16.2619269 92.9700835,15.6984998 92.965,15.13 C92.9772089,13.9960562 92.5341367,12.9045857 91.735,12.1 C91.3508676,11.7161625 90.8934664,11.4134956 90.39,11.21 C89.8564611,10.9859721 89.2836641,10.8703928 88.705,10.87 L88.705,10.89 Z" id="形状" fill="#02101C"></path>
                <polygon id="路径" fill="#02101C" points="97.605 20 96.65 20 96.65 2.5 97.605 2.5"></polygon>
                <path d="M105.43,10 C106.116288,9.99748528 106.796197,10.1317672 107.43,10.395 C108.037743,10.642279 108.591415,11.0057325 109.06,11.465 C109.528439,11.9263202 109.899146,12.4772794 110.15,13.085 C110.69,14.381 110.69,15.839 110.15,17.135 C109.899146,17.7427206 109.528439,18.2936798 109.06,18.755 C108.591415,19.2142675 108.037743,19.577721 107.43,19.825 C106.796197,20.0882328 106.116288,20.2225147 105.43,20.22 C104.742227,20.2276018 104.060631,20.0895785 103.43,19.815 C102.827154,19.5560707 102.280356,19.1824825 101.82,18.715 C101.359051,18.2456052 100.989431,17.6945671 100.73,17.09 C100.459066,16.4722905 100.32108,15.8045034 100.325,15.13 C100.317918,14.443281 100.452379,13.7624653 100.72,13.13 C101.224364,11.8981155 102.194713,10.915188 103.42,10.395 C104.055042,10.124341 104.739761,9.98978187 105.43,10 L105.43,10 Z M105.365,10.89 C104.806908,10.8862656 104.254499,11.0022032 103.745,11.23 C103.255693,11.4461706 102.815187,11.7591168 102.45,12.15 C101.699544,12.9680006 101.286849,14.039936 101.295,15.15 C101.293517,16.2413538 101.710456,17.2917536 102.46,18.085 C102.827449,18.4745653 103.26732,18.788759 103.755,19.01 C104.260794,19.2383384 104.81007,19.3543346 105.365,19.35 C105.938718,19.3520599 106.507446,19.2434075 107.04,19.03 C107.547161,18.8279326 108.008106,18.5251714 108.395,18.14 C109.19146,17.3459034 109.634773,16.264652 109.625,15.14 C109.630644,14.5617443 109.518359,13.9884065 109.295,13.455 C109.086055,12.9520116 108.780255,12.4950113 108.395,12.11 C108.010868,11.7261625 107.553466,11.4234956 107.05,11.22 C106.517328,10.992026 105.944399,10.87302 105.365,10.87 L105.365,10.89 Z" id="形状" fill="#02101C"></path>
                <path d="M122.07,19.5 C122.073471,20.2240363 122.026692,20.9474408 121.93,21.665 C121.821756,22.3905756 121.534817,23.0778561 121.095,23.665 C120.661956,24.282472 120.071523,24.7727732 119.385,25.085 C118.696925,25.395659 117.949943,25.5542649 117.195,25.5501345 C116.579316,25.5541695 115.966815,25.4613663 115.38,25.275 C114.832579,25.10153 114.323419,24.8248864 113.88,24.46 C113.440715,24.1010798 113.082795,23.6528286 112.83,23.145 C112.556203,22.5862098 112.401274,21.9767078 112.375,21.355 L113.33,21.355 C113.347977,21.8357416 113.470846,22.3067396 113.69,22.735 C113.885423,23.1352304 114.161145,23.4909462 114.5,23.78 C114.854866,24.0681229 115.257679,24.2915316 115.69,24.44 C116.143678,24.595585 116.620396,24.6733475 117.1,24.67 C117.702882,24.6739876 118.30074,24.5601908 118.86,24.335 C119.416927,24.0999376 119.89431,23.7093515 120.235,23.21 C120.604142,22.677462 120.850092,22.0694194 120.955,21.43 C121.056168,20.7916702 121.106326,20.1462957 121.105,19.5 L121.105,18.29 L121.06,18.29 C120.623647,18.8838258 120.050874,19.3639949 119.39,19.69 C118.724241,20.022954 117.989362,20.1942546 117.245,20.19 C116.575613,20.1967075 115.91306,20.0549757 115.305,19.775 C114.732992,19.5070833 114.222362,19.1241115 113.805,18.65 C113.385354,18.1643581 113.059805,17.6048219 112.845,17 C112.620711,16.3744466 112.507342,15.7145418 112.51,15.05 C112.502469,14.3665683 112.624627,13.687909 112.87,13.05 C113.097641,12.4544874 113.437071,11.9080048 113.87,11.44 C114.305046,10.9793017 114.826661,10.6089043 115.405,10.35 C116.034258,10.07109 116.716807,9.932874 117.405,9.945 C118.139101,9.9323928 118.864617,10.104316 119.515,10.445 C120.141425,10.7920224 120.680166,11.2777444 121.09,11.865 L121.135,11.865 L121.135,10.195 L122.09,10.195 L122.07,19.5 Z M117.255,10.85 C116.719784,10.8448823 116.190758,10.9647264 115.71,11.2 C115.251865,11.4288654 114.843924,11.7467199 114.51,12.135 C114.172165,12.5391843 113.911194,13.0018132 113.74,13.5 C113.556068,13.9909282 113.461247,14.5107481 113.459991,15.035 C113.458934,15.587509 113.548454,16.1364555 113.725,16.66 C113.897545,17.1510716 114.160395,17.6055486 114.5,18 C114.838434,18.3944116 115.253502,18.7159197 115.72,18.945 C116.219533,19.182539 116.766913,19.3022785 117.32,19.295 C117.890973,19.3043367 118.456693,19.1846982 118.975,18.945 C119.44089,18.7218296 119.852207,18.3992618 120.18,18 C120.512597,17.583304 120.765185,17.1086408 120.925,16.6 C121.097029,16.0549934 121.183062,15.486504 121.18,14.915 C121.182315,14.3729717 121.089229,13.8347644 120.905,13.325 C120.730862,12.8481934 120.46022,12.4124433 120.11,12.045 C119.758227,11.6784235 119.336603,11.3860071 118.87,11.185 C118.359925,10.9672177 117.80953,10.859865 117.255,10.87 L117.255,10.85 Z" id="形状" fill="#02101C"></path>
                <polygon id="路径" fill="#02101C" points="124 10.195 125 10.195 129.175 19.055 132.925 10.195 133.9 10.195 127.33 25.695 126.33 25.695 128.685 20.14"></polygon>
                <path d="M44.56,4.80488747 C45.5565172,4.79945949 46.5435613,4.99857011 47.46,5.39 C48.349203,5.76914198 49.1572057,6.31573207 49.84,7 C50.5183383,7.68195659 51.0642455,8.4838637 51.45,9.365 C51.8493834,10.2757647 52.0521315,11.2605411 52.045,12.255 C52.0666158,14.2509521 51.2782605,16.1704257 49.86,17.575 C46.9065312,20.4377641 42.2134688,20.4377641 39.26,17.575 C38.5772327,16.9007289 38.0336025,16.0988743 37.66,15.215 C37.2628912,14.2790906 37.062082,13.271641 37.07,12.255 C37.0645939,11.2601971 37.2690424,10.2754367 37.67,9.365 C38.0539002,8.48283951 38.6000289,7.68060692 39.28,7 C39.9632314,6.31752488 40.771205,5.77265189 41.66,5.395 C42.5760757,5.0018544 43.5631337,4.80103914 44.56,4.80488747 L44.56,4.80488747 Z M44.56,18.0350466 C45.3127608,18.0380988 46.0581449,17.8866394 46.75,17.59 C47.4273526,17.2980072 48.044508,16.8826142 48.57,16.365 C49.0973137,15.8405362 49.5183591,15.2191547 49.81,14.535 C50.1187673,13.8132155 50.2737281,13.0350056 50.265,12.25 C50.2679864,11.4888198 50.1271855,10.7339234 49.85,10.025 C49.5818191,9.33987067 49.1807927,8.71454132 48.67,8.185 C46.9875102,6.49752742 44.447971,6.00268346 42.255,6.935 C41.5767244,7.23108472 40.9621075,7.65554393 40.445,8.185 C39.9374347,8.71611064 39.5383186,9.34110953 39.27,10.025 C38.9928145,10.7339234 38.8520136,11.4888198 38.855,12.25 C38.8424862,13.7940165 39.4536418,15.2777364 40.55,16.365 C41.074671,16.883618 41.6920265,17.2991457 42.37,17.59 C43.0618551,17.8866394 43.8072392,18.0380988 44.56,18.0350466 Z" id="形状" fill="#02101C"></path>
                <polygon id="路径" fill="#02101C" points="54.5 4.425 65.23 15.665 65.23 5.105 67 5.105 67 20 56.275 8.745 56.275 19.7 54.5 19.7"></polygon>
                <polygon id="路径" fill="#02101C" points="76.535 19.7 74.755 19.7 74.755 6.735 69.445 6.735 69.445 5.105 81.845 5.105 81.845 6.735 76.535 6.735"></polygon>
                <path d="M3.65,3.65 L3.65,3.65 L0,0 L0,12.465 L0,12.465 C0.00330177822,17.5040836 3.0402619,22.0455218 7.69595429,23.9734489 C12.3516467,25.9013761 17.7101791,24.8365202 21.275,21.275 L3.65,3.65 Z" id="路径" fill="#48A3FF"></path>
                <path d="M22.37,21.275 L22.37,21.275 L26.02,24.925 L26.02,12.465 L26.02,12.465 C26.0187184,7.4250065 22.9824988,2.88171921 18.3263536,0.952510248 C13.6702083,-0.976698713 8.31046487,0.0878382541 4.745,3.65 L22.37,21.275 Z" id="路径" fill="#48A3FF"></path>
            </g>
        </g>
    </g>
</svg>