<svg xmlns="http://www.w3.org/2000/svg" xmlns:xlink="http://www.w3.org/1999/xlink" width="108" height="31" viewBox="0 0 108 31">
    <defs>
        <linearGradient id="a" x1="64.577%" x2="33.882%" y1="33.211%" y2="70.446%">
            <stop offset="0%" stop-color="#FFF" stop-opacity="0"/>
            <stop offset="100%" stop-opacity=".1"/>
        </linearGradient>
        <linearGradient id="b" x1="60.174%" x2="42.456%" y1="33.733%" y2="67.261%">
            <stop offset="0%" stop-color="#FFF" stop-opacity="0"/>
            <stop offset="100%" stop-opacity=".1"/>
        </linearGradient>
        <linearGradient id="c" x1="32.21%" x2="66.585%" y1="36.171%" y2="93.545%">
            <stop offset="0%" stop-color="#FFF" stop-opacity="0"/>
            <stop offset="100%" stop-opacity=".1"/>
        </linearGradient>
        <linearGradient id="d" x1="0%" x2="85.89%" y1="20.403%" y2="83.325%">
            <stop offset="0%" stop-color="#FFF" stop-opacity="0"/>
            <stop offset="100%" stop-opacity=".1"/>
        </linearGradient>
        <path id="e" d="M12.35.008V6.17c-3.426 0-6.204 2.789-6.204 6.229s2.778 6.228 6.204 6.228a6.18 6.18 0 0 0 4.745-2.218l4.696 3.97a12.295 12.295 0 0 1-9.441 4.412C5.533 24.792.008 19.244.008 12.4.008 5.556 5.533.008 12.35.008zm5.821 14.546l5.762 2.133a12.36 12.36 0 0 1-.92 1.953l-5.304-3.104c.181-.31.336-.64.462-.982zm6.334-4.306c.122.699.186 1.418.186 2.152h-6.139c0-.369-.032-.73-.093-1.082zM20.321 2.94c.549.467 1.056.98 1.516 1.534l-4.72 3.942a6.257 6.257 0 0 0-.76-.77z"/>
        <path id="f" d="M3.995 12.371c-2.457 0-3.995-1.93-3.995-4.3S1.538 3.79 3.995 3.79s3.994 1.913 3.994 4.283-1.537 4.3-3.994 4.3zm0-1.134c1.721 0 2.674-1.49 2.674-3.165 0-1.66-.953-3.149-2.674-3.149-1.722 0-2.675 1.49-2.675 3.149 0 1.675.953 3.165 2.675 3.165zm7.287.931v-5.79c.368-.66 1.42-1.302 2.206-1.302.184 0 .335.016.485.033V3.806c-1.103 0-2.039.643-2.69 1.49V3.992h-1.254v8.176h1.253zm4.897-9.344a.833.833 0 0 0 .836-.846.847.847 0 0 0-.836-.863.862.862 0 0 0-.852.863c0 .474.384.846.852.846zm.619 9.344V3.992h-1.254v8.176h1.254zm5.75 3.318c-1.354 0-2.29-.271-3.26-1.236l.635-.914c.669.796 1.471 1.1 2.625 1.1 1.337 0 2.607-.66 2.607-2.387v-1.235c-.602.83-1.588 1.456-2.724 1.456-2.106 0-3.594-1.592-3.594-4.232 0-2.624 1.47-4.249 3.594-4.249 1.086 0 2.072.542 2.724 1.439V3.992h1.254v8.057c0 2.59-1.89 3.437-3.861 3.437zm.2-4.35c.986 0 1.956-.61 2.407-1.32v-3.59c-.451-.693-1.42-1.303-2.407-1.303-1.638 0-2.607 1.304-2.607 3.115 0 1.794.97 3.097 2.607 3.097zm6.803-8.312a.833.833 0 0 0 .836-.846.847.847 0 0 0-.836-.863.862.862 0 0 0-.853.863c0 .474.385.846.853.846zm.618 9.344V3.992h-1.253v8.176h1.253zm9.21 0V6.43c0-1.778-.886-2.64-2.557-2.64-1.22 0-2.324.693-2.892 1.387V3.992h-1.254v8.176h1.254V6.193c.485-.66 1.404-1.27 2.39-1.27 1.087 0 1.822.44 1.822 1.896v5.349h1.237zm5.03.203c.887 0 1.455-.237 1.773-.525l-.452-1.642c-.117.136-.418.254-.735.254-.468 0-.736-.389-.736-.914V5.871h1.638V3.992H44.26V1.758h-2.122v2.234H40.8v1.88h1.337v4.248c0 1.472.785 2.251 2.273 2.251zm5.065-.203v-5.4c.351-.525 1.287-.93 1.99-.93.25 0 .434.016.584.05V3.789c-1.003 0-1.989.593-2.574 1.303v-1.1h-2.122v8.176h2.122zm11.583 0h-2.14v-1.05c-.634.813-1.503 1.253-2.49 1.253-2.022 0-3.576-1.557-3.576-4.3 0-2.657 1.52-4.282 3.576-4.282.953 0 1.839.406 2.49 1.253v-1.05h2.14v8.176zm-3.961-1.71c.702 0 1.47-.389 1.822-.93V6.65c-.351-.542-1.12-.948-1.822-.948-1.22 0-2.056.965-2.056 2.37 0 1.421.836 2.386 2.056 2.386zm7.12-7.346c.702 0 1.27-.576 1.27-1.286 0-.711-.568-1.27-1.27-1.27a1.26 1.26 0 0 0-1.253 1.27c0 .71.568 1.286 1.253 1.286zm1.07 9.056V3.992h-2.123v8.176h2.123zm4.38.203c.868 0 1.453-.237 1.77-.525l-.45-1.642c-.117.136-.418.254-.736.254-.468 0-.735-.389-.735-.914V.878h-2.123v9.242c0 1.472.786 2.251 2.273 2.251z"/>
    </defs>
    <g fill="none" fill-rule="evenodd">
        <g transform="translate(4.087 3.1)">
            <path fill="url(#a)" d="M4.812 16.397l4.695 3.978.005.004.045-.065c.432-.526.82-1.088 1.16-1.679l.02-.028-5.312-3.095c-.18.313-.385.61-.613.885z" transform="translate(12.282)"/>
            <path fill="url(#b)" d="M6.25 12.455h6.143l-.012.145c-.008.615-.06 1.23-.158 1.838l-.015.174-.045.168a12.476 12.476 0 0 1-.475 1.779l-.034.128-5.771-2.118a6.22 6.22 0 0 0 .368-2.114z" transform="translate(12.282)"/>
            <path fill="url(#c)" d="M10.77 6.232c.331.58.614 1.188.847 1.816l.051.11.034.127c.206.592.368 1.2.483 1.817l.038.144-6.048 1.073A6.22 6.22 0 0 0 4.84 8.404l4.687-3.971.05.06c.432.527.82 1.089 1.16 1.68l.02.027.014.032z" transform="translate(12.282)"/>
            <path fill="url(#d)" d="M1.199 6.274a6.135 6.135 0 0 0-1.073-.1V.02c.706 0 1.41.061 2.105.183l.03.003.031.008c.68.123 1.347.304 1.996.54l.04.012.038.017c.644.24 1.266.533 1.86.878l.03.016v-.002l.028.02a12.26 12.26 0 0 1 1.663 1.17l.06.05-3.93 4.73A6.175 6.175 0 0 0 2.236 6.56a6.066 6.066 0 0 0-1.037-.285z" transform="translate(12.282)"/>
            <use fill="#1D2667" fill-rule="nonzero" xlink:href="#e"/>
        </g>
        <use fill="#1D2667" fill-rule="nonzero" transform="translate(35 8)" xlink:href="#f"/>
    </g>
</svg>
