<?xml version="1.0" standalone="no"?><!DOCTYPE svg PUBLIC "-//W3C//DTD SVG 1.1//EN" "http://www.w3.org/Graphics/SVG/1.1/DTD/svg11.dtd"><svg xmlns:xlink="http://www.w3.org/1999/xlink" width="251px" height="107px" viewBox="0 0 251 107" version="1.1" xmlns="http://www.w3.org/2000/svg" style="block-size:107px;height:107px;inline-size:251px;perspective-origin:125.5px 53.5px;transform-origin:125.5px 53.5px;width:251px;">
      <script style="block-size:auto;height:auto;inline-size:auto;overflow-x:visible;overflow-y:visible;perspective-origin:50% 50%;transform-origin:0px 0px;width:auto;"/>
      <!-- Generator: Sketch 52.6 (67491) - http://www.bohemiancoding.com/sketch -->
      <title style="block-size:auto;height:auto;inline-size:auto;overflow-x:visible;overflow-y:visible;perspective-origin:50% 50%;transform-origin:0px 0px;width:auto;">logo-wordmark</title>
      <desc style="block-size:auto;height:auto;inline-size:auto;overflow-x:visible;overflow-y:visible;perspective-origin:50% 50%;transform-origin:0px 0px;width:auto;">Created with Sketch.</desc>
      <g id="Page-1" stroke="none" stroke-width="1" fill="none" fill-rule="evenodd" style="block-size:auto;fill:none;fill-rule:evenodd;height:auto;inline-size:auto;overflow-x:visible;overflow-y:visible;perspective-origin:0px 0px;transform-origin:0px 0px;width:auto;">
        <g id="logo-wordmark" fill="#001C3A" style="block-size:auto;fill:rgb(0, 28, 58);fill-rule:evenodd;height:auto;inline-size:auto;overflow-x:visible;overflow-y:visible;perspective-origin:0px 0px;transform-origin:0px 0px;width:auto;">
          <path d="M203.87,47.76 C207.01,51.76 208.61,57.32 208.61,64.44 L179,64.44 C179.31,68.11 180.3,70.95 182,72.86 C183.871375,74.8608568 186.53489,75.9269956 189.27,75.77 C191.578262,75.8725003 193.857953,75.2271725 195.77,73.93 C197.299118,72.6160812 198.503811,70.9664728 199.29,69.11 L208,69.11 C207.151982,72.6868903 205.229137,75.9183868 202.49,78.37 C198.802397,81.4330089 194.12142,83.0407608 189.33,82.89 C183.44,82.89 178.77,81.05 175.33,77.46 C171.66,73.71 169.82,68.58 169.82,62 C169.82,56.11 171.5,51.21 175.02,47.23 C178.39,43.17 183.02,41.23 188.95,41.23 C195.46,41.18 200.43,43.33 203.87,47.76 Z M182.37,50.76 C180.587759,52.7431705 179.466012,55.231282 179.16,57.88 L199.51,57.88 C198.75,51.45 195.3,48.32 189.18,48.32 C186.671476,48.1522723 184.205691,49.032134 182.37,50.75 L182.37,50.76 Z" id="Shape" fill-rule="nonzero" style="block-size:auto;d:path(&quot;M 203.87 47.76 C 207.01 51.76 208.61 57.32 208.61 64.44 L 179 64.44 C 179.31 68.11 180.3 70.95 182 72.86 C 183.871 74.8609 186.535 75.927 189.27 75.77 C 191.578 75.8725 193.858 75.2272 195.77 73.93 C 197.299 72.6161 198.504 70.9665 199.29 69.11 L 208 69.11 C 207.152 72.6869 205.229 75.9184 202.49 78.37 C 198.802 81.433 194.121 83.0408 189.33 82.89 C 183.44 82.89 178.77 81.05 175.33 77.46 C 171.66 73.71 169.82 68.58 169.82 62 C 169.82 56.11 171.5 51.21 175.02 47.23 C 178.39 43.17 183.02 41.23 188.95 41.23 C 195.46 41.18 200.43 43.33 203.87 47.76 Z M 182.37 50.76 C 180.588 52.7432 179.466 55.2313 179.16 57.88 L 199.51 57.88 C 198.75 51.45 195.3 48.32 189.18 48.32 C 186.671 48.1523 184.206 49.0321 182.37 50.75 L 182.37 50.76 Z&quot;);fill:rgb(0, 28, 58);height:auto;inline-size:auto;overflow-x:visible;overflow-y:visible;perspective-origin:0px 0px;transform-origin:0px 0px;width:auto;"/>
          <path d="M251,57.41 L251,81.81 L242.28,81.81 L242.28,58.17 C242.28,51.66 239.28,48.45 233.28,48.45 C231.163353,48.4377005 229.1281,49.2647468 227.62,50.75 C225.694948,52.6859433 224.564113,55.2722393 224.45,58 L224.45,81.8 L215.73,81.8 L215.73,42.26 L224.45,42.26 L224.45,46.85 C225.862708,45.0913344 227.63584,43.6557792 229.65,42.64 C231.671344,41.6489616 233.899102,41.1520002 236.15,41.19 C246,41.18 251,46.54 251,57.41 Z" id="Path" style="block-size:auto;d:path(&quot;M 251 57.41 L 251 81.81 L 242.28 81.81 L 242.28 58.17 C 242.28 51.66 239.28 48.45 233.28 48.45 C 231.163 48.4377 229.128 49.2647 227.62 50.75 C 225.695 52.6859 224.564 55.2722 224.45 58 L 224.45 81.8 L 215.73 81.8 L 215.73 42.26 L 224.45 42.26 L 224.45 46.85 C 225.863 45.0913 227.636 43.6558 229.65 42.64 C 231.671 41.649 233.899 41.152 236.15 41.19 C 246 41.18 251 46.54 251 57.41 Z&quot;);fill:rgb(0, 28, 58);fill-rule:evenodd;height:auto;inline-size:auto;overflow-x:visible;overflow-y:visible;perspective-origin:0px 0px;transform-origin:0px 0px;width:auto;"/>
          <path d="M167.28,81.82 L151.63,59.12 C154.531014,58.7012314 157.281171,57.5633541 159.63,55.81 C163,53.06 164.76,49.08 164.76,43.87 C164.76,43.7 164.76,43.54 164.76,43.37 C164.76,43.2 164.76,43.04 164.76,42.87 C164.76,37.67 163,33.69 159.63,30.93 C156.42,28.41 151.98,27.18 146.39,27.18 L122,27.18 L122,81.81 L131,81.81 L131,59.55 L140.57,59.55 L155.85,81.82 L167.28,81.82 Z M131,34.83 L145.16,34.83 C148.68,34.83 151.36,35.6 153.16,37.05 C154.872899,38.6899949 155.791933,40.9912291 155.68,43.36 C155.791933,45.7287709 154.872899,48.0300051 153.16,49.67 C151.32,51.12 148.65,51.89 145.16,51.89 L131,51.89 L131,34.83 Z" id="Shape" fill-rule="nonzero" style="block-size:auto;d:path(&quot;M 167.28 81.82 L 151.63 59.12 C 154.531 58.7012 157.281 57.5634 159.63 55.81 C 163 53.06 164.76 49.08 164.76 43.87 C 164.76 43.7 164.76 43.54 164.76 43.37 C 164.76 43.2 164.76 43.04 164.76 42.87 C 164.76 37.67 163 33.69 159.63 30.93 C 156.42 28.41 151.98 27.18 146.39 27.18 L 122 27.18 L 122 81.81 L 131 81.81 L 131 59.55 L 140.57 59.55 L 155.85 81.82 L 167.28 81.82 Z M 131 34.83 L 145.16 34.83 C 148.68 34.83 151.36 35.6 153.16 37.05 C 154.873 38.69 155.792 40.9912 155.68 43.36 C 155.792 45.7288 154.873 48.03 153.16 49.67 C 151.32 51.12 148.65 51.89 145.16 51.89 L 131 51.89 L 131 34.83 Z&quot;);fill:rgb(0, 28, 58);height:auto;inline-size:auto;overflow-x:visible;overflow-y:visible;perspective-origin:0px 0px;transform-origin:0px 0px;width:auto;"/>
          <polygon id="Path" points="14.63 22.5 22.5 17.98 23.56 19.8 52.57 3.07 50.45 1.85 48.32 0.61 47.26 0 0 27.3 0 28.52 13.57 20.67" style="block-size:auto;fill:rgb(0, 28, 58);fill-rule:evenodd;height:auto;inline-size:auto;overflow-x:visible;overflow-y:visible;perspective-origin:0px 0px;transform-origin:0px 0px;width:auto;"/>
          <polygon id="Path" points="14.63 39.69 37.37 26.55 38.43 28.4 67.44 11.66 65.32 10.42 63.19 9.2 62.13 8.6 0 44.47 0 45.69 13.57 37.84" style="block-size:auto;fill:rgb(0, 28, 58);fill-rule:evenodd;height:auto;inline-size:auto;overflow-x:visible;overflow-y:visible;perspective-origin:0px 0px;transform-origin:0px 0px;width:auto;"/>
          <polygon id="Path" points="14.63 48.28 44.8 30.86 45.87 32.69 74.87 15.93 72.75 14.73 70.63 13.49 69.56 12.88 0 53.04 0 54.28 13.57 46.44" style="block-size:auto;fill:rgb(0, 28, 58);fill-rule:evenodd;height:auto;inline-size:auto;overflow-x:visible;overflow-y:visible;perspective-origin:0px 0px;transform-origin:0px 0px;width:auto;"/>
          <polygon id="Path" points="14.63 56.86 52.45 35.03 53.52 36.86 82.31 20.24 80.19 19 78.06 17.78 77 17.17 0 61.64 0 62.86 13.57 55.01" style="block-size:auto;fill:rgb(0, 28, 58);fill-rule:evenodd;height:auto;inline-size:auto;overflow-x:visible;overflow-y:visible;perspective-origin:0px 0px;transform-origin:0px 0px;width:auto;"/>
          <polygon id="Path" points="14.63 65.43 59.89 39.31 60.95 41.16 89.74 24.52 87.62 23.31 85.5 22.07 84.43 21.46 0 70.21 0 71.43 13.57 63.6" style="block-size:auto;fill:rgb(0, 28, 58);fill-rule:evenodd;height:auto;inline-size:auto;overflow-x:visible;overflow-y:visible;perspective-origin:0px 0px;transform-origin:0px 0px;width:auto;"/>
          <polygon id="Path" points="92.93 26.37 91.87 25.75 0 78.81 0 80.03 13.57 72.2 14.63 74.03 59.89 47.91 60.95 49.74 94.52 30.37 94.52 27.91 94.52 27.3" style="block-size:auto;fill:rgb(0, 28, 58);fill-rule:evenodd;height:auto;inline-size:auto;overflow-x:visible;overflow-y:visible;perspective-origin:0px 0px;transform-origin:0px 0px;width:auto;"/>
          <polygon id="Path" points="5.82 85.24 13.43 80.85 14.49 82.68 59.67 56.6 60.73 58.45 94.52 38.94 94.52 36.48 94.52 34.02 94.52 32.8 4.78 84.63" style="block-size:auto;fill:rgb(0, 28, 58);fill-rule:evenodd;height:auto;inline-size:auto;overflow-x:visible;overflow-y:visible;perspective-origin:0px 0px;transform-origin:0px 0px;width:auto;"/>
          <polyline id="Path" points="59.67 65.2 60.73 67.05 94.52 47.54 94.52 45.08 94.52 42.62 94.52 41.4 12.21 88.92 13.28 89.53 21 85.06 22.07 86.91" style="block-size:auto;fill:rgb(0, 28, 58);fill-rule:evenodd;height:auto;inline-size:auto;overflow-x:visible;overflow-y:visible;perspective-origin:0px 0px;transform-origin:0px 0px;width:auto;"/>
          <polygon id="Path" points="20.71 93.83 28.44 89.35 29.5 91.2 59.67 73.77 60.73 75.62 94.52 56.11 94.52 53.65 94.52 51.21 94.52 49.98 19.63 93.2" style="block-size:auto;fill:rgb(0, 28, 58);fill-rule:evenodd;height:auto;inline-size:auto;overflow-x:visible;overflow-y:visible;perspective-origin:0px 0px;transform-origin:0px 0px;width:auto;"/>
          <polygon id="Path" points="28.14 98.12 35.87 93.66 36.94 95.49 59.67 82.37 60.73 84.2 94.52 64.69 94.52 62.25 94.52 59.79 94.52 58.57 27.08 97.51" style="block-size:auto;fill:rgb(0, 28, 58);fill-rule:evenodd;height:auto;inline-size:auto;overflow-x:visible;overflow-y:visible;perspective-origin:0px 0px;transform-origin:0px 0px;width:auto;"/>
          <polygon id="Path" points="34.52 101.8 35.58 102.41 43.33 97.94 44.37 99.79 59.67 90.94 60.73 92.79 94.52 73.28 94.52 70.82 94.52 68.36 94.52 67.14" style="block-size:auto;fill:rgb(0, 28, 58);fill-rule:evenodd;height:auto;inline-size:auto;overflow-x:visible;overflow-y:visible;perspective-origin:0px 0px;transform-origin:0px 0px;width:auto;"/>
          <polygon id="Path" points="43.01 106.72 50.74 102.23 51.8 104.08 59.67 99.52 60.73 101.37 94.52 81.88 94.52 79.42 94.52 76.96 94.52 75.74 41.95 106.11" style="block-size:auto;fill:rgb(0, 28, 58);fill-rule:evenodd;height:auto;inline-size:auto;overflow-x:visible;overflow-y:visible;perspective-origin:0px 0px;transform-origin:0px 0px;width:auto;"/>
          <polygon id="Path" points="60.01 7.36 57.88 6.14 57.88 6.14 55.76 4.92 54.7 4.29 0 35.87 0 37.09 13.57 29.27 14.63 31.09 29.93 22.26 31.02 24.11" style="block-size:auto;fill:rgb(0, 28, 58);fill-rule:evenodd;height:auto;inline-size:auto;overflow-x:visible;overflow-y:visible;perspective-origin:0px 0px;transform-origin:0px 0px;width:auto;"/>
        </g>
      </g>
    </svg>