<svg width="6391" height="1787" viewBox="0 0 6391 1787" fill="none" xmlns="http://www.w3.org/2000/svg">
<path d="M2290.27 982.761L2478.06 1384.16H2694.52L2479.5 954.09C2535.4 934.02 2578.41 901.048 2608.51 855.174C2638.62 810.733 2654.39 756.258 2654.39 690.314C2654.39 600 2625.72 528.321 2568.38 475.28C2511.04 422.238 2433.63 395 2337.58 395H1962V1384.16H2149.79V982.761H2290.27ZM2149.79 826.503V558.426H2327.55C2370.55 558.426 2403.52 571.328 2429.32 594.265C2453.69 618.636 2466.6 650.174 2466.6 690.314C2466.6 734.754 2453.69 769.16 2429.32 792.097C2404.96 815.034 2370.55 826.503 2327.55 826.503H2149.79Z" fill="#002060"/>
<path d="M2807.55 638.706V1384.16H2983.87V638.706H2807.55ZM2804.68 395V536.923H2985.3V395H2804.68Z" fill="#002060"/>
<path d="M3213.53 1316.78C3268.01 1368.39 3341.12 1392.76 3435.73 1392.76C3527.47 1392.76 3600.58 1368.39 3655.06 1316.78C3708.1 1266.61 3735.33 1187.76 3735.33 1080.24V941.188C3735.33 835.104 3708.1 757.691 3655.06 706.083C3600.58 655.909 3527.47 630.104 3435.73 630.104C3341.12 630.104 3268.01 655.909 3213.53 706.083C3159.06 757.691 3133.26 835.104 3133.26 941.188V1080.24C3133.26 1187.76 3159.06 1266.61 3213.53 1316.78ZM3559.01 1078.81C3559.01 1183.46 3517.44 1235.07 3435.73 1235.07C3351.15 1235.07 3309.58 1183.46 3309.58 1078.81V944.055C3309.58 840.838 3351.15 787.796 3435.73 787.796C3517.44 787.796 3559.01 840.838 3559.01 944.055V1078.81Z" fill="#002060"/>
<path d="M3886 395V1384.16H4228.62C4339.01 1384.16 4426.45 1354.05 4492.4 1292.41C4556.91 1230.77 4589.88 1130.42 4589.88 989.929V787.796C4589.88 648.741 4556.91 548.391 4493.83 486.748C4430.75 426.538 4343.31 395 4234.36 395H3886ZM4232.92 1220.73H4073.8V558.426H4232.92C4290.26 558.426 4331.84 578.496 4360.51 615.769C4387.75 653.041 4402.08 714.685 4402.08 797.831V988.495C4402.08 1068.77 4387.75 1127.55 4359.08 1164.82C4330.4 1202.1 4288.83 1220.73 4232.92 1220.73Z" fill="#4E87F7"/>
<path d="M4880.84 1064.47H5316.64V965.558C5316.64 855.174 5287.97 772.027 5233.49 714.685C5179.02 658.776 5104.47 630.104 5011.29 630.104C4915.24 630.104 4840.7 658.776 4786.22 714.685C4731.75 770.594 4704.51 853.74 4704.51 965.558V1055.87C4704.51 1170.56 4731.75 1256.57 4789.09 1311.05C4845 1365.52 4920.98 1392.76 5017.03 1392.76C5107.34 1392.76 5179.02 1371.26 5232.06 1328.25C5283.67 1285.24 5310.91 1229.33 5310.91 1157.66V1150.49H5141.75L5140.31 1154.79C5137.44 1182.03 5127.41 1203.53 5107.34 1217.87C5087.27 1232.2 5058.6 1239.37 5024.19 1239.37C4978.32 1239.37 4942.48 1227.9 4918.11 1203.53C4892.31 1180.59 4880.84 1140.45 4880.84 1084.54V1064.47ZM4913.81 817.901C4936.75 794.964 4968.28 782.062 5011.29 782.062C5095.87 782.062 5138.88 829.37 5138.88 923.985V942.621H4880.84V938.32C4880.84 882.412 4890.87 842.272 4913.81 817.901Z" fill="#4E87F7"/>
<path d="M5652.96 558.426H6093.06V395H5465.16V1384.16H5652.96V975.593H6029.98V812.167H5652.96V558.426Z" fill="#4E87F7"/>
<path d="M6212.74 638.706V1384.16H6389.07V638.706H6212.74ZM6209.87 395V536.923H6390.5V395H6209.87Z" fill="#4E87F7"/>
<rect x="549.491" y="343.977" width="486.457" height="486.457" transform="rotate(-45 549.491 343.977)" fill="#002060"/>
<rect x="549.491" y="1443.02" width="486.457" height="486.457" transform="rotate(-45 549.491 1443.02)" fill="#002060"/>
<rect x="1099.04" y="896.209" width="486.457" height="486.457" transform="rotate(-45 1099.04 896.209)" fill="#002060"/>
<path d="M994.84 895.871L1237.08 653.634L1479.31 895.871L1237.08 1138.11L994.84 895.871Z" fill="#4E87F7"/>
<rect y="896.209" width="486.457" height="486.457" transform="rotate(-45 0 896.209)" fill="#002060"/>
<path d="M306.947 895.871L549.185 653.634L791.422 895.871L549.185 1138.11L306.947 895.871Z" fill="#4E87F7"/>
<path d="M650.894 551.926L893.131 309.688L1135.37 551.926L893.131 794.163L650.894 551.926Z" fill="#4E87F7"/>
<path d="M650.894 1239.82L893.131 997.581L1135.37 1239.82L893.131 1482.06L650.894 1239.82Z" fill="#4E87F7"/>
</svg>
