<?xml version="1.0" standalone="no"?><!DOCTYPE svg PUBLIC "-//W3C//DTD SVG 1.1//EN" "http://www.w3.org/Graphics/SVG/1.1/DTD/svg11.dtd"><svg id="nav__shyft-logo" width="100px" height="40px" viewBox="0 0 115 50" version="1.1" xmlns:xlink="http://www.w3.org/1999/xlink" xmlns="http://www.w3.org/2000/svg" style="block-size:40px;height:40px;inline-size:100px;perspective-origin:50px 20px;transform-origin:50px 20px;width:100px;">
      <g stroke="none" stroke-width="1" fill-rule="evenodd" style="block-size:auto;fill-rule:evenodd;height:auto;inline-size:auto;overflow-x:visible;overflow-y:visible;perspective-origin:0px 0px;transform-origin:0px 0px;width:auto;">
        <path id="symbol" d="M112.421316,32.4866818 C112.421316,33.3118902 112.721381,33.5369688 113.771548,33.6119551 L114.596876,33.6119551 L114.596876,37.5881443 L110.808273,37.5881443 C108.48262,37.5130382 107.619918,36.5753504 107.657292,34.2871909 L107.657292,24.1289463 L105.669317,24.1289463 L105.669317,20.0839997 L107.657292,20.0839997 L107.657292,15.572006 L112.421316,15.572006 L112.421316,20.0839997 L114.596876,20.0839997 L114.596876,24.1289463 L112.421316,24.1289463 L112.421316,32.4866818 Z M101.085703,37.5881323 L96.3217985,37.5881323 L96.3217985,24.1292937 L94.4088099,24.1292937 L94.4088099,20.0839877 L96.3217985,20.0839877 L96.3217985,19.1645074 C96.3217985,14.5132022 98.609958,12.3375221 103.373862,12.4876144 L103.373862,16.8763479 C101.723326,17.0639334 101.085703,17.7015563 101.085703,19.1645074 L101.085703,20.0839877 L103.373862,20.0839877 L103.373862,24.1292937 L101.085703,24.1292937 L101.085703,37.5881323 Z M87.3602198,20.0839997 L92.1241242,20.0839997 L92.1241242,29.2356794 L92.1241242,30.7257022 L92.1241242,39.2207129 L92.1241242,40.3158 C92.1241242,44.7552032 90.0379246,46.9377111 85.70585,46.9970053 L81.6585077,47 L81.6585077,42.6038397 L85.0719405,42.6038397 L85.0719405,42.6039595 C86.7225969,42.4164938 87.3602198,41.7787511 87.3602198,40.3158 L87.3602198,39.2207129 L87.3602198,37.9321708 C85.9807598,37.9321708 85.5569556,37.9423526 84.5469168,37.9423526 C82.1462779,37.9423526 80.0830772,37.2671168 78.7327253,36.0292443 C77.4948528,34.903971 76.894723,33.2534344 76.894723,30.965275 L76.894723,20.0839997 L81.6585077,20.0839997 L81.6585077,30.4256373 C81.6585077,32.3762388 82.8212741,33.619861 84.5469168,33.619861 C86.309813,33.619861 86.6745625,33.6186631 87.3602198,33.6186631 L87.3602198,29.2356794 L87.3602198,20.0839997 Z M64.1256383,12.5895167 L64.1256383,13.6846038 L64.1256383,20.0799988 C65.5050983,20.0799988 65.9289026,20.0699368 66.9389413,20.0699368 C69.3395802,20.0699368 71.4027809,20.7450528 72.7531328,21.9829253 C73.9910053,23.1083184 74.5911351,24.7587352 74.5911351,27.0468947 L74.5911351,37.6127724 L69.8273504,37.6127724 L69.8273504,27.5865323 C69.8273504,25.6360506 68.664584,24.3923086 66.9389413,24.3923086 C65.1760451,24.3923086 64.8112956,24.3936263 64.1256383,24.3936263 L64.1256383,37.6127724 L59.3617339,37.6127724 L59.3617339,14.0000014 L59.3617339,12.5895167 L64.1256383,12.5895167 Z M44.9891886,30.1926767 L44.9891886,30.5302348 C44.9891886,32.2182645 46.4521397,33.456137 48.4026214,33.456137 C50.2781168,33.456137 51.7035748,32.2932508 51.7035748,30.7928065 C51.7035748,30.0050913 51.3285236,29.2923623 50.6909007,28.8048317 C50.0530382,28.3170616 49.6030008,28.1295959 47.6523993,27.4168669 C42.1758856,25.4662654 40.2252842,23.4031845 40.2252842,19.5770877 C40.2252842,15.0383816 43.5638505,12 48.4777275,12 C53.3541114,12 56.5049724,14.8507961 56.9176365,19.6520739 L51.7410679,19.6520739 C51.5536022,17.5514999 50.5031954,16.5387061 48.4777275,16.5387061 C46.6396054,16.5387061 45.4017329,17.5891129 45.4017329,19.1645434 C45.4017329,20.1773372 45.9269962,20.9650525 46.9396703,21.5276891 C47.6149062,21.9027403 48.0275703,22.0903258 49.8655725,22.7655616 C52.6037695,23.7783555 53.9917343,24.4909647 55.0795144,25.5412517 C56.3923732,26.7791242 57.067609,28.4671539 57.067609,30.3801424 C57.067609,34.9565812 53.6165633,37.994843 48.4402343,37.994843 C43.1886795,37.994843 39.9627124,34.9940743 40.0003254,30.1926767 L44.9891886,30.1926767 Z" fill="#373241" style="block-size:auto;d:path(&quot;M 112.421 32.4867 C 112.421 33.3119 112.721 33.537 113.772 33.612 L 114.597 33.612 L 114.597 37.5881 L 110.808 37.5881 C 108.483 37.513 107.62 36.5754 107.657 34.2872 L 107.657 24.1289 L 105.669 24.1289 L 105.669 20.084 L 107.657 20.084 L 107.657 15.572 L 112.421 15.572 L 112.421 20.084 L 114.597 20.084 L 114.597 24.1289 L 112.421 24.1289 L 112.421 32.4867 Z M 101.086 37.5881 L 96.3218 37.5881 L 96.3218 24.1293 L 94.4088 24.1293 L 94.4088 20.084 L 96.3218 20.084 L 96.3218 19.1645 C 96.3218 14.5132 98.61 12.3375 103.374 12.4876 L 103.374 16.8763 C 101.723 17.0639 101.086 17.7016 101.086 19.1645 L 101.086 20.084 L 103.374 20.084 L 103.374 24.1293 L 101.086 24.1293 L 101.086 37.5881 Z M 87.3602 20.084 L 92.1241 20.084 L 92.1241 29.2357 L 92.1241 30.7257 L 92.1241 39.2207 L 92.1241 40.3158 C 92.1241 44.7552 90.0379 46.9377 85.7058 46.997 L 81.6585 47 L 81.6585 42.6038 L 85.0719 42.6038 L 85.0719 42.604 C 86.7226 42.4165 87.3602 41.7788 87.3602 40.3158 L 87.3602 39.2207 L 87.3602 37.9322 C 85.9808 37.9322 85.557 37.9424 84.5469 37.9424 C 82.1463 37.9424 80.0831 37.2671 78.7327 36.0292 C 77.4949 34.904 76.8947 33.2534 76.8947 30.9653 L 76.8947 20.084 L 81.6585 20.084 L 81.6585 30.4256 C 81.6585 32.3762 82.8213 33.6199 84.5469 33.6199 C 86.3098 33.6199 86.6746 33.6187 87.3602 33.6187 L 87.3602 29.2357 L 87.3602 20.084 Z M 64.1256 12.5895 L 64.1256 13.6846 L 64.1256 20.08 C 65.5051 20.08 65.9289 20.0699 66.9389 20.0699 C 69.3396 20.0699 71.4028 20.7451 72.7531 21.9829 C 73.991 23.1083 74.5911 24.7587 74.5911 27.0469 L 74.5911 37.6128 L 69.8273 37.6128 L 69.8273 27.5865 C 69.8273 25.6361 68.6646 24.3923 66.9389 24.3923 C 65.176 24.3923 64.8113 24.3936 64.1256 24.3936 L 64.1256 37.6128 L 59.3617 37.6128 L 59.3617 14 L 59.3617 12.5895 L 64.1256 12.5895 Z M 44.9892 30.1927 L 44.9892 30.5302 C 44.9892 32.2183 46.4521 33.4561 48.4026 33.4561 C 50.2781 33.4561 51.7036 32.2933 51.7036 30.7928 C 51.7036 30.0051 51.3285 29.2924 50.6909 28.8048 C 50.053 28.3171 49.603 28.1296 47.6524 27.4169 C 42.1759 25.4663 40.2253 23.4032 40.2253 19.5771 C 40.2253 15.0384 43.5639 12 48.4777 12 C 53.3541 12 56.505 14.8508 56.9176 19.6521 L 51.7411 19.6521 C 51.5536 17.5515 50.5032 16.5387 48.4777 16.5387 C 46.6396 16.5387 45.4017 17.5891 45.4017 19.1645 C 45.4017 20.1773 45.927 20.9651 46.9397 21.5277 C 47.6149 21.9027 48.0276 22.0903 49.8656 22.7656 C 52.6038 23.7784 53.9917 24.491 55.0795 25.5413 C 56.3924 26.7791 57.0676 28.4672 57.0676 30.3801 C 57.0676 34.9566 53.6166 37.9948 48.4402 37.9948 C 43.1887 37.9948 39.9627 34.9941 40.0003 30.1927 L 44.9892 30.1927 Z&quot;);fill:rgb(55, 50, 65);fill-rule:evenodd;height:auto;inline-size:auto;overflow-x:visible;overflow-y:visible;perspective-origin:0px 0px;transform-origin:0px 0px;width:auto;"/>
        <path id="word-mark" d="M30.4303909,22.9279279 C30.7454985,23.2882883 30.9705753,23.7387387 30.9705753,24.2342342 L30.9705753,34.5045045 C30.9705753,43.0630631 24.0382082,50 15.4852877,50 C7.38252086,50 0.585199824,43.6486486 0.0450153711,35.5405405 C-0.0450153711,34.5495495 0.720245938,33.6486486 1.7105841,33.6036036 C2.70092227,33.5135135 3.60122969,34.2792793 3.64624506,35.2702703 C4.0513834,41.4864865 9.22815108,46.3513514 15.530303,46.4414414 C22.1025472,46.4414414 27.414361,41.0810811 27.414361,34.5495495 L27.414361,25.045045 L21.2472552,18.8738739 C21.0221783,18.6936937 20.7971014,18.4234234 20.7070707,18.1531532 C20.6620553,18.0630631 20.61704,17.972973 20.61704,17.8828829 C20.61704,17.8378378 20.61704,17.8378378 20.61704,17.8378378 C20.5720246,17.6576577 20.5720246,17.4774775 20.5720246,17.2972973 L20.5720246,15.9459459 C20.5720246,13.1531532 18.2762407,10.8558559 15.4852877,10.8558559 C12.6943347,10.8558559 10.3985507,13.1531532 10.3985507,15.9459459 L10.3985507,22.8378378 L16.6556873,29.0990991 C17.0158103,29.4144144 17.1958718,29.8648649 17.1958718,30.3603604 L17.1958718,34.5045045 C17.1958718,35.4954955 16.3855951,36.3063063 15.3952569,36.3063063 C14.4049188,36.3063063 13.5946421,35.4954955 13.5946421,34.5045045 L13.5946421,31.0810811 L7.33750549,24.8648649 C6.97738252,24.5495495 6.79732104,24.0990991 6.79732104,23.6036036 L6.79732104,15.9459459 C6.79732104,11.1261261 10.668643,7.25225225 15.4852877,7.25225225 C20.3019324,7.25225225 24.1732543,11.1711712 24.1732543,15.9459459 L24.1732543,16.6666667 L30.4303909,22.9279279 Z M6.79732104,33.0630631 L0.540184453,26.8018018 C0.180061484,26.4864865 0,26.036036 0,25.5405405 L0,15.4954955 C0,6.93693694 6.93236715,0 15.4852877,0 C23.4530083,0 30.0702679,5.99099099 30.8355292,13.9189189 L30.8805446,14.1891892 C30.9255599,15.1801802 30.205314,16.036036 29.2149758,16.1261261 C28.2246377,16.1711712 27.3693456,15.4504505 27.2793149,14.4594595 L27.2793149,14.2792793 C26.6941151,8.28828829 21.5173474,3.6036036 15.4852877,3.6036036 C8.91304348,3.6036036 3.60122969,8.91891892 3.60122969,15.4954955 L3.60122969,24.7747748 L9.85836627,31.036036 C9.85836627,31.036036 9.90338164,31.0810811 9.90338164,31.0810811 L9.94839701,31.0810811 C10.3985507,31.5765766 10.5335968,32.2072072 10.3985507,32.7927928 L10.3985507,34.4594595 C10.3985507,37.2522523 12.6943347,39.5495495 15.4852877,39.5495495 C18.2762407,39.5495495 20.5720246,37.2522523 20.5720246,34.4594595 L20.5720246,27.7027027 L14.1798419,21.3513514 C13.8197189,21.036036 13.6396574,20.5855856 13.6396574,20.0900901 L13.6396574,15.9009009 C13.6396574,14.9099099 14.4499341,14.0990991 15.4402723,14.0990991 C16.4306105,14.0990991 17.2408871,14.9099099 17.2408871,15.9009009 L17.2408871,19.3243243 L23.6330698,25.7207207 C23.9931928,26.036036 24.1732543,26.4864865 24.1732543,26.981982 L24.1732543,34.5045045 C24.1732543,39.3243243 20.3019324,43.1981982 15.4852877,43.1981982 C10.668643,43.1981982 6.79732104,39.2792793 6.79732104,34.5045045 L6.79732104,33.0630631 Z" fill="#80225F" fill-rule="nonzero" style="block-size:auto;d:path(&quot;M 30.4304 22.9279 C 30.7455 23.2883 30.9706 23.7387 30.9706 24.2342 L 30.9706 34.5045 C 30.9706 43.0631 24.0382 50 15.4853 50 C 7.38252 50 0.5852 43.6486 0.0450154 35.5405 C -0.0450154 34.5495 0.720246 33.6486 1.71058 33.6036 C 2.70092 33.5135 3.60123 34.2793 3.64625 35.2703 C 4.05138 41.4865 9.22815 46.3514 15.5303 46.4414 C 22.1025 46.4414 27.4144 41.0811 27.4144 34.5495 L 27.4144 25.045 L 21.2473 18.8739 C 21.0222 18.6937 20.7971 18.4234 20.7071 18.1532 C 20.6621 18.0631 20.617 17.973 20.617 17.8829 C 20.617 17.8378 20.617 17.8378 20.617 17.8378 C 20.572 17.6577 20.572 17.4775 20.572 17.2973 L 20.572 15.9459 C 20.572 13.1532 18.2762 10.8559 15.4853 10.8559 C 12.6943 10.8559 10.3986 13.1532 10.3986 15.9459 L 10.3986 22.8378 L 16.6557 29.0991 C 17.0158 29.4144 17.1959 29.8649 17.1959 30.3604 L 17.1959 34.5045 C 17.1959 35.4955 16.3856 36.3063 15.3953 36.3063 C 14.4049 36.3063 13.5946 35.4955 13.5946 34.5045 L 13.5946 31.0811 L 7.33751 24.8649 C 6.97738 24.5495 6.79732 24.0991 6.79732 23.6036 L 6.79732 15.9459 C 6.79732 11.1261 10.6686 7.25225 15.4853 7.25225 C 20.3019 7.25225 24.1733 11.1712 24.1733 15.9459 L 24.1733 16.6667 L 30.4304 22.9279 Z M 6.79732 33.0631 L 0.540184 26.8018 C 0.180061 26.4865 0 26.036 0 25.5405 L 0 15.4955 C 0 6.93694 6.93237 0 15.4853 0 C 23.453 0 30.0703 5.99099 30.8355 13.9189 L 30.8805 14.1892 C 30.9256 15.1802 30.2053 16.036 29.215 16.1261 C 28.2246 16.1712 27.3693 15.4505 27.2793 14.4595 L 27.2793 14.2793 C 26.6941 8.28829 21.5173 3.6036 15.4853 3.6036 C 8.91304 3.6036 3.60123 8.91892 3.60123 15.4955 L 3.60123 24.7748 L 9.85837 31.036 C 9.85837 31.036 9.90338 31.0811 9.90338 31.0811 L 9.9484 31.0811 C 10.3986 31.5766 10.5336 32.2072 10.3986 32.7928 L 10.3986 34.4595 C 10.3986 37.2523 12.6943 39.5495 15.4853 39.5495 C 18.2762 39.5495 20.572 37.2523 20.572 34.4595 L 20.572 27.7027 L 14.1798 21.3514 C 13.8197 21.036 13.6397 20.5856 13.6397 20.0901 L 13.6397 15.9009 C 13.6397 14.9099 14.4499 14.0991 15.4403 14.0991 C 16.4306 14.0991 17.2409 14.9099 17.2409 15.9009 L 17.2409 19.3243 L 23.6331 25.7207 C 23.9932 26.036 24.1733 26.4865 24.1733 26.982 L 24.1733 34.5045 C 24.1733 39.3243 20.3019 43.1982 15.4853 43.1982 C 10.6686 43.1982 6.79732 39.2793 6.79732 34.5045 L 6.79732 33.0631 Z&quot;);fill:rgb(128, 34, 95);height:auto;inline-size:auto;overflow-x:visible;overflow-y:visible;perspective-origin:0px 0px;transform-origin:0px 0px;width:auto;"/>
      </g>
    </svg>