<svg xmlns="http://www.w3.org/2000/svg" width="61.965" height="61.965" viewBox="0 0 61.965 61.965">
  <g id="sn_logo" data-name="sn logo" transform="translate(0 0)">

    <g id="Group_884" data-name="Group 884">
      <path id="Path_6377" data-name="Path 6377" d="M122.7,1363.738a9.045,9.045,0,0,1-12.352.406,25.371,25.371,0,0,1-5.8,1.814,14.575,14.575,0,1,0,22.058-18.928,14.7,14.7,0,0,0-1.684-1.448,25.379,25.379,0,0,1-1.813,5.8A9.047,9.047,0,0,1,122.7,1363.738Z" transform="translate(-68.906 -1309.946)" fill="#008a3b"/>
      <path id="Path_6378" data-name="Path 6378" d="M104.242,1367.643a14.7,14.7,0,0,0,1.448-1.684,25.4,25.4,0,0,1-5.8-1.814,9.041,9.041,0,0,1-12.759-12.759,25.381,25.381,0,0,1-1.814-5.8,14.576,14.576,0,1,0,18.928,22.06Z" transform="translate(-79.362 -1309.946)" fill="#f77e0b"/>
      <path id="Path_6379" data-name="Path 6379" d="M87.535,1328.576a9.047,9.047,0,0,1,12.352-.407,25.378,25.378,0,0,1,5.8-1.813,14.575,14.575,0,1,0-20.375,20.376,25.357,25.357,0,0,1,1.814-5.8A9.045,9.045,0,0,1,87.535,1328.576Z" transform="translate(-79.362 -1320.403)" fill="#ae0721"/>
      <path id="Path_6380" data-name="Path 6380" d="M122.7,1328.576a9.047,9.047,0,0,1,.408,12.353,25.355,25.355,0,0,1,1.813,5.8,14.727,14.727,0,0,0,1.684-1.448,14.575,14.575,0,1,0-22.058-18.928,25.367,25.367,0,0,1,5.8,1.813A9.047,9.047,0,0,1,122.7,1328.576Z" transform="translate(-68.906 -1320.403)" fill="#008fa6"/>
      <path id="Path_6381" data-name="Path 6381" d="M124.732,1365.771a23.465,23.465,0,1,0-33.185,0A23.465,23.465,0,0,0,124.732,1365.771Zm-26.9-26.9a14.575,14.575,0,1,1,0,20.612A14.577,14.577,0,0,1,97.833,1338.873Z" transform="translate(-77.157 -1318.197)" fill="#002143"/>
    </g>
  </g>
</svg>
