<svg width="360" height="361" viewBox="0 0 360 361" fill="none" xmlns="http://www.w3.org/2000/svg">
<path fill-rule="evenodd" clip-rule="evenodd" d="M281.903 200.62C285.323 208.068 295.394 210.699 301.19 204.904L311.822 194.272C322.805 183.288 340.613 183.288 351.596 194.272C362.58 205.255 362.58 223.063 351.596 234.047L265.685 319.958C245.048 344.451 214.148 360.013 179.612 360.013C143.594 360.013 111.529 343.086 90.9378 316.753L8.23768 234.053C-2.74582 223.069 -2.74582 205.262 8.2377 194.278C19.2212 183.295 37.0289 183.295 48.0124 194.278L58.4751 204.741C64.1465 210.412 73.9923 207.861 77.3425 200.574V200.574C78.0045 199.134 78.3645 197.588 78.3645 196.003L78.3644 67.513C78.3644 51.9801 90.9564 39.3881 106.489 39.3881C122.022 39.3881 134.614 51.98 134.614 67.513L134.614 132.517C134.614 138.11 140.344 141.907 145.678 140.221V140.221C149.053 139.155 151.492 136.081 151.492 132.541L151.492 28.1377C151.492 12.6048 164.084 0.0127826 179.617 0.0127785C195.15 0.0127744 207.742 12.6047 207.742 28.1377L207.742 132.546C207.742 136.085 210.179 139.157 213.554 140.223V140.223C218.885 141.908 224.613 138.113 224.613 132.522L224.613 67.5131C224.613 51.9801 237.205 39.3881 252.738 39.3881C268.271 39.3881 280.862 51.9801 280.862 67.5131L280.863 195.963C280.863 197.578 281.229 199.152 281.903 200.62V200.62Z" fill="#003A4D"/>
<path d="M269.619 258.764C269.619 258.764 229.325 315.014 179.619 315.014C129.914 315.014 89.6192 258.764 89.6192 258.764C89.6192 258.764 129.914 202.514 179.619 202.514C229.325 202.514 269.619 258.764 269.619 258.764Z" fill="#FD8FFF"/>
<path d="M222.565 258.764C222.565 282.483 203.337 301.711 179.618 301.711C155.899 301.711 136.671 282.483 136.671 258.764C136.671 235.045 155.899 215.817 179.618 215.817C203.337 215.817 222.565 235.045 222.565 258.764Z" stroke="#003A4C" stroke-width="4.10587"/>
<path d="M205.691 258.765C205.691 273.164 194.018 284.837 179.619 284.837C165.219 284.837 153.547 273.164 153.547 258.765C153.547 244.365 165.219 232.693 179.619 232.693C194.018 232.693 205.691 244.365 205.691 258.765Z" stroke="#003A4C" stroke-width="4.10587"/>
<path d="M239.438 258.764C239.438 291.802 212.655 318.586 179.616 318.586C146.577 318.586 119.794 291.802 119.794 258.764C119.794 225.725 146.577 198.942 179.616 198.942C212.655 198.942 239.438 225.725 239.438 258.764Z" stroke="#003A4C" stroke-width="4.10587"/>
<path d="M256.313 258.765C256.313 301.123 221.975 335.462 179.616 335.462C137.258 335.462 102.919 301.123 102.919 258.765C102.919 216.406 137.258 182.068 179.616 182.068C221.975 182.068 256.313 216.406 256.313 258.765Z" stroke="#003A4C" stroke-width="4.10587"/>
<path d="M188.813 258.763C188.813 263.842 184.696 267.96 179.616 267.96C174.537 267.96 170.419 263.842 170.419 258.763C170.419 253.683 174.537 249.566 179.616 249.566C184.696 249.566 188.813 253.683 188.813 258.763Z" fill="#09FFC4" stroke="#003A4C" stroke-width="4.10587"/>
<path d="M188.813 258.763C188.813 263.842 184.696 267.96 179.616 267.96C174.537 267.96 170.419 263.842 170.419 258.763C170.419 253.683 174.537 249.566 179.616 249.566C184.696 249.566 188.813 253.683 188.813 258.763Z" fill="#09FFC4" stroke="#003A4C" stroke-width="4.10587"/>
<path d="M93.0668 259.919C92.7215 259.475 92.4246 259.089 92.1779 258.764C92.4246 258.439 92.7215 258.052 93.0668 257.609C94.247 256.095 95.9934 253.924 98.2456 251.316C102.752 246.098 109.272 239.143 117.321 232.193C133.484 218.237 155.51 204.567 179.619 204.567C203.728 204.567 225.755 218.237 241.917 232.193C249.966 239.143 256.486 246.098 260.993 251.316C263.245 253.924 264.991 256.095 266.171 257.609C266.517 258.052 266.814 258.439 267.06 258.764C266.814 259.089 266.517 259.475 266.171 259.919C264.991 261.433 263.245 263.603 260.993 266.211C256.486 271.429 249.966 278.385 241.917 285.335C225.755 299.29 203.729 312.961 179.619 312.961C155.51 312.961 133.484 299.29 117.321 285.335C109.272 278.385 102.752 271.429 98.2456 266.211C95.9934 263.603 94.247 261.433 93.0668 259.919Z" stroke="#FD8FFF" stroke-width="4.10587"/>
</svg>
