<svg width="400" height="400" viewBox="0 0 400 400" fill="none" xmlns="http://www.w3.org/2000/svg">
<path d="M52.9123 181.678C52.9123 192.833 43.9317 201.562 33.0094 201.562C21.8443 201.562 13.1064 192.59 13.1064 181.678C13.1064 170.766 21.8443 161.551 33.0094 161.551C43.9317 161.551 52.9123 170.523 52.9123 181.678Z" fill="#E30613"/>
<path d="M25.7281 191.375L25.4854 191.132V185.07L26.4562 185.798C27.6698 186.525 28.8834 187.253 30.097 187.738C31.3106 188.223 32.2815 188.465 33.0096 188.465C33.7378 188.465 34.4659 188.223 34.9514 187.98C35.4368 187.495 35.6795 187.253 35.6795 187.01C35.6795 186.525 35.4368 186.283 35.1941 185.798C34.9514 185.555 33.9805 184.828 32.5242 184.1C29.6116 182.645 27.9125 181.19 26.9417 179.978C25.9708 178.765 25.4854 177.553 25.4854 176.098C25.4854 174.158 26.2135 172.703 27.6698 171.49C29.1261 170.278 30.8252 169.793 33.0096 169.793C35.1941 169.793 37.6213 170.52 39.8057 171.733L40.0485 171.975V177.795L39.0776 177.31C36.6504 175.855 34.4659 175.128 33.0096 175.128C32.2815 175.128 31.796 175.37 31.3106 175.613C30.8252 175.855 30.8252 176.098 30.8252 176.583C30.8252 176.825 31.0679 177.31 31.3106 177.553C31.796 178.038 32.5242 178.523 33.7378 179.008L35.1941 179.978C38.8349 182.16 41.0193 184.585 41.0193 187.253C41.0193 189.193 40.2912 190.89 38.5921 192.102C37.1358 193.315 35.1941 194.042 32.7669 194.042C31.3106 194.042 30.097 193.8 29.1261 193.557C28.6407 192.587 27.4271 192.102 25.7281 191.375Z" fill="white"/>
<path d="M141.748 181.678C141.748 192.833 132.767 201.562 121.845 201.562C110.922 201.562 101.942 192.59 101.942 181.678C101.942 170.766 110.922 161.551 121.845 161.551C132.767 161.551 141.748 170.523 141.748 181.678Z" fill="#E30613"/>
<path d="M114.32 191.379V185.316L115.291 186.044C116.505 186.771 117.718 187.499 118.932 187.984C120.146 188.469 121.116 188.711 121.845 188.711C122.573 188.711 123.301 188.469 123.786 188.226C124.272 187.741 124.515 187.499 124.515 187.256C124.515 186.771 124.272 186.529 124.029 186.044C123.786 185.801 122.816 185.074 121.359 184.346C118.447 182.891 116.748 181.436 115.777 180.224C114.806 179.011 114.32 177.799 114.32 176.344C114.32 174.404 115.049 172.949 116.505 171.737C117.961 170.524 119.66 170.039 121.845 170.039C124.029 170.039 126.456 170.767 128.641 171.979L128.883 172.222V178.041L127.913 177.556C125.485 176.101 123.301 175.374 121.845 175.374C121.116 175.374 120.631 175.616 120.146 175.859C119.66 176.101 119.66 176.344 119.66 176.829C119.66 177.071 119.903 177.556 120.146 177.799C120.631 178.284 121.359 178.769 122.573 179.254L124.029 180.224C127.67 182.406 129.854 184.831 129.854 187.499C129.854 189.439 129.126 191.136 127.427 192.349C125.971 193.561 124.029 194.288 121.602 194.288C120.146 194.288 119.175 194.046 117.961 193.803C116.99 193.561 115.534 193.076 114.078 192.349" fill="white"/>
<path d="M97.3302 181.678C97.3302 192.833 88.3497 201.562 77.4273 201.562C66.2623 201.562 57.5244 192.59 57.5244 181.678C57.5244 170.766 66.2623 161.551 77.4273 161.551C88.3497 161.551 97.3302 170.523 97.3302 181.678Z" fill="#E30613"/>
<path d="M69.6607 190.167C67.4762 187.984 66.5054 185.074 66.5054 181.679C66.5054 178.042 67.4762 175.132 69.6607 172.95C71.8452 170.767 74.5151 169.555 77.9131 169.555C79.1267 169.555 80.0976 169.555 81.0685 169.797C82.0394 170.04 83.2529 170.525 84.4665 171.01L84.7093 171.252V177.315L83.7384 176.83C81.5539 175.375 79.6122 174.89 77.9131 174.89C76.2141 174.89 74.7578 175.617 73.5442 176.83C72.3306 178.042 71.8452 179.739 71.8452 181.679C71.8452 183.862 72.5733 185.317 73.7869 186.529C75.0005 187.742 76.6995 188.227 78.884 188.227C80.3403 188.227 82.2821 187.742 84.4665 186.772L85.4374 186.287V191.864L84.952 192.107C82.7675 192.834 80.583 193.319 78.3986 193.319C74.7578 193.319 71.8452 192.349 69.6607 190.167Z" fill="white"/>
<path d="M19.6602 229.939V227.029C20.3883 227.514 21.3592 227.999 22.0873 228.484C23.0582 228.726 23.5437 228.969 24.2718 228.969C24.7572 228.969 25.4854 228.726 25.7281 228.484C26.2136 228.241 26.4563 227.756 26.4563 227.514C26.4563 227.029 26.2136 226.786 25.9708 226.544C25.7281 226.301 25 225.816 24.2718 225.331C22.3301 224.361 21.1165 223.391 20.631 222.664C20.1456 221.936 19.6602 221.209 19.6602 220.239C19.6602 219.027 20.1456 218.299 20.8737 217.572C21.8446 216.844 22.8155 216.602 24.2718 216.602C25.7281 216.602 27.1844 217.087 28.6407 217.814V220.724C26.9417 219.754 25.4854 219.269 24.5145 219.269C24.0291 219.269 23.5437 219.269 23.0582 219.511C22.8155 219.754 22.5728 219.996 22.5728 220.481C22.5728 220.724 22.8155 221.209 23.0582 221.451C23.3009 221.694 24.0291 222.179 24.7572 222.664L25.7281 223.149C28.1553 224.604 29.3689 226.059 29.3689 227.756C29.3689 228.969 28.8835 229.939 27.9126 230.666C26.9417 231.394 25.7281 231.879 24.2718 231.879C23.3009 231.879 22.5728 231.879 21.8446 231.636C21.6019 230.909 20.631 230.424 19.6602 229.939Z" fill="#A4A3A3"/>
<path d="M43.9323 231.148V229.208C43.2041 229.935 42.7187 230.42 41.7478 230.663C41.0197 231.148 40.2915 231.148 39.3206 231.148C38.3498 231.148 37.6216 230.905 36.8934 230.42C36.1653 229.935 35.4371 229.45 35.1944 228.48C34.709 227.753 34.709 226.298 34.709 224.6V216.355H37.6216V224.6C37.6216 226.055 37.8643 227.268 38.3498 227.753C38.8352 228.48 39.5634 228.723 40.7769 228.723C42.2333 228.723 43.2041 227.995 44.175 226.783V216.355H47.0876V230.905H43.9323V231.148Z" fill="#A4A3A3"/>
<path d="M52.6699 238.422V216.355H57.767C60.4369 216.355 62.3787 217.083 63.835 218.295C65.2913 219.508 66.0194 221.448 66.0194 223.63C66.0194 225.813 65.2913 227.51 64.0777 228.965C62.6214 230.42 60.9223 231.148 58.9806 231.148C58.0097 231.148 57.0389 230.905 55.8253 230.42V238.18H52.6699V238.422ZM57.5243 219.265H55.5825V228.238C56.5534 228.723 57.2816 228.965 58.2524 228.965C59.7088 228.965 60.6796 228.48 61.6505 227.51C62.6214 226.54 62.8641 225.328 62.8641 223.873C62.8641 222.903 62.6214 222.175 62.1359 221.448C61.6505 220.72 61.1651 220.235 60.4369 219.75C59.9515 219.265 58.9806 219.265 57.5243 219.265Z" fill="#A4A3A3"/>
<path d="M83.2523 224.119H73.0581C73.0581 225.574 73.5436 226.544 74.5144 227.514C75.4853 228.241 76.4562 228.726 77.9125 228.726C79.8542 228.726 81.5533 228.241 83.2523 227.029V229.939C82.2814 230.424 81.5533 230.909 80.5824 231.151C79.6115 231.394 78.6406 231.636 77.4271 231.636C75.728 231.636 74.5144 231.394 73.5436 230.666C72.5727 229.939 71.8445 229.211 71.1164 227.999C70.6309 226.786 70.1455 225.574 70.1455 224.119C70.1455 221.936 70.8737 219.996 72.0873 218.784C73.3008 217.329 74.9999 216.602 76.9416 216.602C78.8834 216.602 80.3397 217.329 81.5533 218.542C82.7669 219.996 83.2523 221.694 83.2523 223.876V224.119V224.119ZM73.0581 222.421H80.3397C80.3397 221.209 79.8542 220.481 79.3688 219.754C78.6407 219.027 77.9125 218.784 76.9416 218.784C75.9708 218.784 74.9999 219.027 74.5144 219.754C73.7863 220.239 73.3008 221.209 73.0581 222.421Z" fill="#A4A3A3"/>
<path d="M91.2617 216.594V219.747L91.5045 219.504C92.9608 217.322 94.4171 216.109 95.6307 216.109C96.6015 216.109 97.8151 216.594 99.0287 217.807L97.5724 220.232C96.6015 219.262 95.6307 218.777 94.6598 218.777C93.6889 218.777 92.9608 219.262 92.2326 219.989C91.5045 220.959 91.2617 221.929 91.2617 223.142V230.659H88.3491V216.109H91.2617V216.594Z" fill="#A4A3A3"/>
<path d="M124.514 227.753V230.663C123.058 231.148 121.602 231.39 120.145 231.39C117.961 231.39 116.019 230.663 114.563 229.45C113.107 227.995 112.621 226.298 112.621 224.115C112.621 221.933 113.349 219.993 114.563 218.538C115.776 217.083 117.718 216.355 119.903 216.355C120.631 216.355 121.359 216.355 121.844 216.598C122.33 216.84 123.301 217.083 124.029 217.325V220.478C122.573 219.508 121.116 219.023 119.903 219.023C118.689 219.023 117.475 219.508 116.747 220.478C116.019 221.448 115.534 222.66 115.534 223.873C115.534 225.328 116.019 226.54 116.99 227.51C117.961 228.48 119.174 228.723 120.631 228.723C121.844 228.723 123.058 228.238 124.514 227.753Z" fill="#A4A3A3"/>
<path d="M136.65 216.355C138.835 216.355 140.777 217.083 142.233 218.538C143.689 219.993 144.417 221.69 144.417 223.873C144.417 226.055 143.689 227.753 142.233 229.208C140.777 230.663 138.835 231.39 136.65 231.39C134.466 231.39 132.524 230.663 131.068 229.208C129.611 227.753 128.883 226.055 128.883 223.873C128.883 221.69 129.611 219.993 131.068 218.538C132.524 217.083 134.466 216.355 136.65 216.355ZM136.408 219.023C134.951 219.023 133.98 219.508 133.01 220.478C132.039 221.448 131.796 222.66 131.796 223.873C131.796 225.328 132.281 226.298 133.252 227.268C134.223 228.238 135.437 228.48 136.65 228.48C138.107 228.48 139.32 227.995 140.048 227.025C141.019 226.055 141.505 225.085 141.505 223.63C141.505 222.175 141.019 221.205 140.048 220.235C139.077 219.508 137.864 219.023 136.408 219.023Z" fill="#A4A3A3"/>
<path d="M161.407 220.481V231.151H158.495V223.149C158.495 221.451 158.252 220.481 157.767 219.754C157.281 219.027 156.553 218.784 155.582 218.784C155.097 218.784 154.369 219.027 153.883 219.269C153.398 219.511 152.912 219.996 152.184 220.724V231.394H149.271V216.844H152.184V218.784C153.64 217.329 155.097 216.602 156.553 216.602C158.495 216.602 159.951 217.572 160.922 219.269C162.378 217.572 164.077 216.602 165.776 216.602C167.233 216.602 168.446 217.087 169.174 218.057C170.145 219.027 170.631 220.724 170.631 222.906V231.636H167.718V222.906C167.718 221.694 167.475 220.724 166.99 219.996C166.504 219.269 165.776 219.027 164.805 219.027C163.592 218.784 162.378 219.269 161.407 220.481Z" fill="#A4A3A3"/>
<path d="M175.971 238.422V216.355H181.068C183.738 216.355 185.679 217.083 187.136 218.295C188.592 219.508 189.32 221.448 189.32 223.63C189.32 225.813 188.592 227.51 187.378 228.965C185.922 230.42 184.223 231.148 182.281 231.148C181.311 231.148 180.34 230.905 179.126 230.42V238.18H175.971V238.422ZM181.068 219.265H179.126V228.238C180.097 228.723 180.825 228.965 181.796 228.965C183.252 228.965 184.223 228.48 185.194 227.51C186.165 226.54 186.408 225.328 186.408 223.873C186.408 222.903 186.165 222.175 185.679 221.448C185.194 220.72 184.709 220.235 183.98 219.75C183.495 219.265 182.524 219.265 181.068 219.265Z" fill="#A4A3A3"/>
<path d="M203.641 231.148V229.208C202.913 229.935 202.427 230.42 201.456 230.663C200.728 231.148 200 231.148 199.029 231.148C198.058 231.148 197.33 230.905 196.602 230.42C195.874 229.935 195.146 229.45 194.903 228.48C194.417 227.753 194.417 226.298 194.417 224.6V216.355H197.33V224.6C197.33 226.055 197.573 227.268 198.058 227.753C198.544 228.48 199.272 228.723 200.485 228.723C201.942 228.723 202.913 227.995 203.883 226.783V216.355H206.796V230.905H203.641V231.148Z" fill="#A4A3A3"/>
<path d="M210.194 218.78L215.534 213.445V216.355H220.146V219.023H215.534V226.055C215.534 227.752 216.262 228.48 217.719 228.48C218.689 228.48 219.903 228.237 221.117 227.51V230.177C219.903 230.905 218.689 231.147 217.476 231.147C216.262 231.147 215.049 230.662 214.078 229.935C213.835 229.935 213.592 229.692 213.592 229.45C213.35 229.207 213.35 228.722 213.107 228.237C212.864 227.752 212.864 226.782 212.864 225.57V219.023H210.437V218.78H210.194Z" fill="#A4A3A3"/>
<path d="M226.456 210.293C226.942 210.293 227.427 210.535 227.67 210.778C227.913 211.02 228.155 211.505 228.155 211.99C228.155 212.475 227.913 212.96 227.67 213.203C227.427 213.445 226.942 213.688 226.456 213.688C225.971 213.688 225.728 213.445 225.243 213.203C225 212.96 224.757 212.475 224.757 211.99C224.757 211.505 225 211.263 225.243 210.778C225.728 210.535 225.971 210.293 226.456 210.293ZM225 216.598H227.913V231.147H225V216.598Z" fill="#A4A3A3"/>
<path d="M236.893 216.598V218.538C238.107 217.083 239.563 216.355 241.262 216.355C242.233 216.355 242.961 216.598 243.689 217.083C244.417 217.568 245.145 218.295 245.388 219.023C245.874 219.75 246.116 221.205 246.116 222.903V231.148H243.204V222.903C243.204 221.448 242.961 220.235 242.476 219.75C241.99 219.265 241.262 218.78 240.291 218.78C238.835 218.78 237.864 219.508 236.893 220.72V231.148H233.98V216.598H236.893V216.598Z" fill="#A4A3A3"/>
<path d="M251.214 221.448C251.214 219.993 251.699 218.78 252.913 217.81C254.126 216.84 255.583 216.355 257.524 216.355H263.592V218.538H260.68C261.165 219.023 261.651 219.75 261.893 220.235C262.136 220.72 262.136 221.205 262.136 221.933C262.136 222.66 261.893 223.388 261.408 224.115C260.922 224.843 260.437 225.328 259.709 225.813C258.981 226.298 258.01 226.54 256.311 226.783C255.34 227.025 254.612 227.268 254.612 227.995C254.612 228.238 254.854 228.723 255.34 228.723C255.825 228.965 256.553 229.208 257.524 229.45C259.223 229.935 260.437 230.178 260.922 230.42C261.408 230.663 261.893 230.905 262.379 231.39C263.107 232.118 263.35 233.088 263.35 234.058C263.35 235.513 262.621 236.482 261.408 237.452C260.194 238.18 258.495 238.665 256.553 238.665C254.369 238.665 252.913 238.18 251.456 237.452C250.243 236.725 249.515 235.513 249.515 234.058C249.515 232.118 250.728 230.905 253.155 230.178C252.185 229.45 251.699 228.965 251.699 228.238C251.699 227.753 251.942 227.268 252.427 227.025C252.913 226.54 253.398 226.298 254.126 226.298C252.185 225.085 251.214 223.63 251.214 221.448ZM255.825 231.875C254.854 231.875 254.126 232.118 253.398 232.603C252.67 233.088 252.427 233.573 252.427 234.3C252.427 235.755 253.884 236.482 256.553 236.482C257.767 236.482 258.738 236.24 259.466 235.998C260.194 235.513 260.437 235.028 260.437 234.3C260.437 233.573 259.952 233.088 259.223 232.603C258.495 231.875 257.282 231.875 255.825 231.875ZM256.553 219.023C255.825 219.023 255.097 219.265 254.612 219.75C254.126 220.235 253.884 220.963 253.884 221.69C253.884 222.418 254.126 223.145 254.612 223.63C255.097 224.115 255.825 224.358 256.553 224.358C257.282 224.358 258.01 224.115 258.495 223.63C258.981 223.145 259.223 222.418 259.223 221.69C259.223 220.963 258.981 220.235 258.495 219.75C258.253 219.265 257.524 219.023 256.553 219.023Z" fill="#A4A3A3"/>
<path d="M277.67 229.939V227.029C278.398 227.514 279.369 227.999 280.097 228.484C281.068 228.726 281.553 228.969 282.282 228.969C282.767 228.969 283.495 228.726 283.738 228.484C284.223 228.241 284.466 227.756 284.466 227.514C284.466 227.029 284.223 226.786 283.981 226.544C283.738 226.301 283.01 225.816 282.039 225.331C280.097 224.361 278.884 223.391 278.398 222.664C277.913 221.936 277.427 221.209 277.427 220.239C277.427 219.027 277.913 218.299 278.641 217.572C279.612 216.844 280.583 216.602 282.039 216.602C283.495 216.602 284.952 217.087 286.408 217.814V220.724C284.709 219.754 283.252 219.269 282.282 219.269C281.796 219.269 281.311 219.269 280.825 219.511C280.583 219.754 280.34 219.996 280.34 220.481C280.34 220.724 280.583 221.209 280.825 221.451C281.068 221.694 281.796 222.179 282.524 222.664L283.495 223.149C285.922 224.604 287.136 226.059 287.136 227.756C287.136 228.969 286.651 229.939 285.68 230.666C284.709 231.394 283.495 231.879 282.039 231.879C281.068 231.879 280.34 231.879 279.612 231.636C279.612 230.909 278.641 230.424 277.67 229.939Z" fill="#A4A3A3"/>
<path d="M301.699 216.602H304.855L294.418 238.669H291.262L296.117 227.999L290.534 216.602H293.932L297.816 224.846L301.699 216.602Z" fill="#A4A3A3"/>
<path d="M308.009 229.939V227.029C308.737 227.514 309.708 227.999 310.436 228.484C311.165 228.726 311.893 228.969 312.621 228.969C313.349 228.969 313.835 228.726 314.077 228.484C314.563 228.241 314.805 227.756 314.805 227.514C314.805 227.029 314.563 226.786 314.32 226.544C314.077 226.301 313.349 225.816 312.621 225.331C310.679 224.361 309.466 223.391 308.98 222.664C308.495 221.936 308.009 221.209 308.009 220.239C308.009 219.027 308.495 218.299 309.223 217.572C310.194 216.844 311.165 216.602 312.621 216.602C314.077 216.602 315.534 217.087 316.99 217.814V220.724C315.291 219.754 313.835 219.269 312.864 219.269C312.378 219.269 311.893 219.269 311.407 219.511C311.165 219.754 310.922 219.996 310.922 220.481C310.922 220.724 311.165 221.209 311.407 221.451C311.65 221.694 312.378 222.179 313.106 222.664L314.077 223.149C316.504 224.604 317.718 226.059 317.718 227.756C317.718 228.969 317.233 229.939 316.262 230.666C315.291 231.394 314.077 231.879 312.621 231.879C311.65 231.879 310.922 231.879 310.194 231.636C309.951 230.909 308.98 230.424 308.009 229.939Z" fill="#A4A3A3"/>
<path d="M321.117 218.78L326.456 213.445V216.355H331.068V219.023H326.456V226.055C326.456 227.752 327.185 228.48 328.641 228.48C329.612 228.48 330.825 228.237 332.039 227.51V230.177C330.825 230.905 329.612 231.147 328.398 231.147C327.185 231.147 325.971 230.662 325 229.935C324.757 229.692 324.515 229.45 324.272 229.207C324.029 228.965 324.029 228.48 323.787 227.995C323.544 227.51 323.544 226.54 323.544 225.328V218.78H321.117V218.78Z" fill="#A4A3A3"/>
<path d="M348.058 224.119H337.864C337.864 225.574 338.349 226.544 339.32 227.514C340.291 228.241 341.262 228.726 342.718 228.726C344.66 228.726 346.359 228.241 348.058 227.029V229.939C347.087 230.424 346.359 230.909 345.388 231.151C344.417 231.394 343.446 231.636 342.233 231.636C340.534 231.636 339.32 231.394 338.349 230.666C337.378 229.939 336.65 229.211 335.922 227.999C335.437 226.786 334.951 225.574 334.951 224.119C334.951 221.936 335.679 219.996 336.893 218.784C338.107 217.329 339.806 216.602 341.747 216.602C343.689 216.602 345.145 217.329 346.359 218.542C347.573 219.996 348.058 221.694 348.058 223.876V224.119ZM337.864 222.421H345.145C345.145 221.209 344.66 220.481 344.174 219.754C343.446 219.027 342.718 218.784 341.747 218.784C340.776 218.784 339.806 219.027 339.077 219.754C338.592 220.239 338.107 221.209 337.864 222.421Z" fill="#A4A3A3"/>
<path d="M365.048 220.481V231.151H362.135V223.149C362.135 221.451 361.893 220.481 361.407 219.754C360.922 219.027 360.194 218.784 359.223 218.784C358.737 218.784 358.009 219.027 357.524 219.269C357.038 219.511 356.553 219.996 355.825 220.724V231.394H352.912V216.844H355.825V218.784C357.281 217.329 358.737 216.602 360.194 216.602C362.135 216.602 363.592 217.572 364.563 219.269C366.019 217.572 367.718 216.602 369.417 216.602C370.873 216.602 372.087 217.087 372.815 218.057C373.786 219.027 374.271 220.724 374.271 222.906V231.636H371.359V222.906C371.359 221.694 371.116 220.724 370.631 219.996C370.145 219.269 369.417 219.027 368.446 219.027C367.233 218.784 366.019 219.269 365.048 220.481Z" fill="#A4A3A3"/>
<path d="M379.126 229.939V227.029C379.854 227.514 380.825 227.999 381.553 228.484C382.524 228.726 383.01 228.969 383.738 228.969C384.223 228.969 384.951 228.726 385.194 228.484C385.679 228.241 385.922 227.756 385.922 227.514C385.922 227.029 385.679 226.786 385.437 226.544C385.194 226.301 384.466 225.816 383.495 225.331C381.553 224.361 380.34 223.391 379.854 222.664C379.369 221.936 378.883 221.209 378.883 220.239C378.883 219.027 379.369 218.299 380.097 217.572C381.068 216.844 382.039 216.602 383.495 216.602C384.951 216.602 386.408 217.087 387.864 217.814V220.724C386.165 219.754 384.709 219.269 383.738 219.269C383.252 219.269 382.767 219.269 382.281 219.511C382.039 219.754 381.796 219.996 381.796 220.481C381.796 220.724 382.039 221.209 382.281 221.451C382.524 221.694 383.252 222.179 383.98 222.664L384.951 223.149C387.378 224.604 388.592 226.059 388.592 227.756C388.592 228.969 388.107 229.939 387.136 230.666C386.165 231.394 384.951 231.879 383.495 231.879C382.524 231.879 381.796 231.879 381.068 231.636C381.068 230.909 380.097 230.424 379.126 229.939Z" fill="#A4A3A3"/>
</svg>
