<?xml version="1.0" standalone="no"?><!DOCTYPE svg PUBLIC "-//W3C//DTD SVG 1.1//EN" "http://www.w3.org/Graphics/SVG/1.1/DTD/svg11.dtd"><svg version="1.1" id="Layer_1" xmlns:xlink="http://www.w3.org/1999/xlink" x="0px" y="0px" viewBox="0 0 464 197.5" style="block-size:708.266px;height:708.266px;inline-size:1664px;perspective-origin:832px 354.125px;transform-origin:832px 354.133px;width:1664px;" xml:space="preserve" xmlns="http://www.w3.org/2000/svg">
      <g style="block-size:auto;height:auto;inline-size:auto;overflow-x:visible;overflow-y:visible;perspective-origin:0px 0px;transform-origin:0px 0px;width:auto;">
        <path class="st0" d="M98.6,64V49.4c0-5.3-3.2-10-8.1-12.1L0,0v8.1l80.7,33.3c2.8,1.1,2.8,5.1,0,6.2L0,80.9v32.5l48.6-20.1l32,13.2&#10;&#9;&#9;&#9;&#9;&#9;c2.8,1.1,2.8,5.1,0,6.2L0,146v51.5l90.5-37.3c4.9-2,8.1-6.8,8.1-12.1v-33.5c0-5.3-3.2-10-8.1-12.1L58.4,89.3l32.1-13.2&#10;&#9;&#9;&#9;&#9;&#9;C95.4,74.1,98.6,69.3,98.6,64z" style="block-size:auto;d:path(&quot;M 98.6 64 V 49.4 C 98.6 44.1 95.4 39.4 90.5 37.3 L 0 0 V 8.1 L 80.7 41.4 C 83.5 42.5 83.5 46.5 80.7 47.6 L 0 80.9 V 113.4 L 48.6 93.3 L 80.6 106.5 C 83.4 107.6 83.4 111.6 80.6 112.7 L 0 146 V 197.5 L 90.5 160.2 C 95.4 158.2 98.6 153.4 98.6 148.1 V 114.6 C 98.6 109.3 95.4 104.6 90.5 102.5 L 58.4 89.3 L 90.5 76.1 C 95.4 74.1 98.6 69.3 98.6 64 Z&quot;);height:auto;inline-size:auto;overflow-x:visible;overflow-y:visible;perspective-origin:0px 0px;transform-origin:0px 0px;width:auto;"/>
        <g style="block-size:auto;height:auto;inline-size:auto;overflow-x:visible;overflow-y:visible;perspective-origin:0px 0px;transform-origin:0px 0px;width:auto;">
          <path class="st0" d="M170.7,49.4l7.2,28.1l8.1-28.1h7.7l7.6,28.1l7.5-28.1h5.7l-9.7,33.9h-7.2l-8-29.2l-8.3,29.2H174l-9.4-33.9&#10;&#9;&#9;&#9;&#9;&#9;&#9;H170.7z" style="block-size:auto;d:path(&quot;M 170.7 49.4 L 177.9 77.5 L 186 49.4 H 193.7 L 201.3 77.5 L 208.8 49.4 H 214.5 L 204.8 83.3 H 197.6 L 189.6 54.1 L 181.3 83.3 H 174 L 164.6 49.4 H 170.7 Z&quot;);height:auto;inline-size:auto;overflow-x:visible;overflow-y:visible;perspective-origin:0px 0px;transform-origin:0px 0px;width:auto;"/>
          <path class="st0" d="M223.2,68c0.2,2.8,0.5,4.2,1.4,6c1.7,3.2,5.5,5.3,9.3,5.3c4.6,0,7.6-2.2,8.9-6.5h6.3&#10;&#9;&#9;&#9;&#9;&#9;&#9;c-1.6,7.3-7.1,11.4-15.3,11.4c-10.2,0-16.7-7-16.7-18c0-10.7,6.5-17.9,16.2-17.9c10.3,0,15.9,7,15.9,19.6H223.2z M241.4,57.6&#10;&#9;&#9;&#9;&#9;&#9;&#9;c-1.6-2.7-4.8-4.3-8.1-4.3c-5.7,0-9.3,3.6-10,10.1H243C242.7,60.4,242.3,59,241.4,57.6z" style="block-size:auto;d:path(&quot;M 223.2 68 C 223.4 70.8 223.7 72.2 224.6 74 C 226.3 77.2 230.1 79.3 233.9 79.3 C 238.5 79.3 241.5 77.1 242.8 72.8 H 249.1 C 247.5 80.1 242 84.2 233.8 84.2 C 223.6 84.2 217.1 77.2 217.1 66.2 C 217.1 55.5 223.6 48.3 233.3 48.3 C 243.6 48.3 249.2 55.3 249.2 67.9 H 223.2 Z M 241.4 57.6 C 239.8 54.9 236.6 53.3 233.3 53.3 C 227.6 53.3 224 56.9 223.3 63.4 H 243 C 242.7 60.4 242.3 59 241.4 57.6 Z&quot;);height:auto;inline-size:auto;overflow-x:visible;overflow-y:visible;perspective-origin:0px 0px;transform-origin:0px 0px;width:auto;"/>
          <path class="st0" d="M254.9,36.5h5.8v18c2.4-4,5.7-5.9,10.5-5.9c8.4,0,14.4,7.3,14.4,17.8c0,10.5-5.7,17.6-14.3,17.6&#10;&#9;&#9;&#9;&#9;&#9;&#9;c-4.7,0-7.8-1.9-10.8-6.3v5.6h-5.6V36.5z M260.8,66.2c0,7.4,4.2,12.9,9.7,12.9c5.3,0,8.8-5,8.8-12.7c0-8.1-3.5-13.1-9-13.1&#10;&#9;&#9;&#9;&#9;&#9;&#9;S260.8,58.6,260.8,66.2z" style="block-size:auto;d:path(&quot;M 254.9 36.5 H 260.7 V 54.5 C 263.1 50.5 266.4 48.6 271.2 48.6 C 279.6 48.6 285.6 55.9 285.6 66.4 C 285.6 76.9 279.9 84 271.3 84 C 266.6 84 263.5 82.1 260.5 77.7 V 83.3 H 254.9 V 36.5 Z M 260.8 66.2 C 260.8 73.6 265 79.1 270.5 79.1 C 275.8 79.1 279.3 74.1 279.3 66.4 C 279.3 58.3 275.8 53.3 270.3 53.3 S 260.8 58.6 260.8 66.2 Z&quot;);height:auto;inline-size:auto;overflow-x:visible;overflow-y:visible;perspective-origin:0px 0px;transform-origin:0px 0px;width:auto;"/>
          <path class="st0" d="M296.1,69c-0.1,6,3.7,9.9,9.7,9.9c5.4,0,9.3-3.4,9.3-8.1c0-4.8-3.7-7.7-9.7-7.7c-0.6,0-1.1,0-2,0.1V58&#10;&#9;&#9;&#9;&#9;&#9;&#9;c0.7,0,1.1,0,1.5,0c6.2,0,9.8-2.7,9.8-7.5c0-4.5-3.5-7.4-8.8-7.4c-5.7,0-9,3.4-9.2,9.4h-6.2c0.4-9.3,6.1-14.7,15.5-14.7&#10;&#9;&#9;&#9;&#9;&#9;&#9;c8.7,0,14.8,5,14.8,12.2c0,4.8-3.4,9.2-8,10.4c5.6,1.4,8.6,5.2,8.6,10.8c0,7.6-6.5,13-15.7,13c-9.6,0-16.1-6.2-16-15.2H296.1z" style="block-size:auto;d:path(&quot;M 296.1 69 C 296 75 299.8 78.9 305.8 78.9 C 311.2 78.9 315.1 75.5 315.1 70.8 C 315.1 66 311.4 63.1 305.4 63.1 C 304.8 63.1 304.3 63.1 303.4 63.2 V 58 C 304.1 58 304.5 58 304.9 58 C 311.1 58 314.7 55.3 314.7 50.5 C 314.7 46 311.2 43.1 305.9 43.1 C 300.2 43.1 296.9 46.5 296.7 52.5 H 290.5 C 290.9 43.2 296.6 37.8 306 37.8 C 314.7 37.8 320.8 42.8 320.8 50 C 320.8 54.8 317.4 59.2 312.8 60.4 C 318.4 61.8 321.4 65.6 321.4 71.2 C 321.4 78.8 314.9 84.2 305.7 84.2 C 296.1 84.2 289.6 78 289.7 69 H 296.1 Z&quot;);height:auto;inline-size:auto;overflow-x:visible;overflow-y:visible;perspective-origin:0px 0px;transform-origin:0px 0px;width:auto;"/>
          <path class="st0" d="M171,119.3h-6.1v-4.7h6.1c0.1-5.6,0.2-6.8,1-8.8c1.2-3.2,4.3-4.9,8.9-4.9c0.9,0,1.7,0.1,3.2,0.2v5.2&#10;&#9;&#9;&#9;&#9;&#9;&#9;c-1.4-0.4-2-0.4-2.9-0.4c-2,0-3.5,1-4,2.8c-0.4,1.2-0.4,2.1-0.4,5.8h7.3v4.7h-7.3v29.2H171V119.3z" style="block-size:auto;d:path(&quot;M 171 119.3 H 164.9 V 114.6 H 171 C 171.1 109 171.2 107.8 172 105.8 C 173.2 102.6 176.3 100.9 180.9 100.9 C 181.8 100.9 182.6 101 184.1 101.1 V 106.3 C 182.7 105.9 182.1 105.9 181.2 105.9 C 179.2 105.9 177.7 106.9 177.2 108.7 C 176.8 109.9 176.8 110.8 176.8 114.5 H 184.1 V 119.2 H 176.8 V 148.4 H 171 V 119.3 Z&quot;);height:auto;inline-size:auto;overflow-x:visible;overflow-y:visible;perspective-origin:0px 0px;transform-origin:0px 0px;width:auto;"/>
          <path class="st0" d="M218.2,131.5c0,10.9-6.5,18-16.5,18c-9.8,0-16.3-7.3-16.3-18.1c0-10.7,6.6-17.8,16.5-17.8&#10;&#9;&#9;&#9;&#9;&#9;&#9;C211.6,113.7,218.2,120.9,218.2,131.5z M191.7,131.2c0,8.3,3.7,13.4,9.9,13.4c6.2,0,10.3-5.1,10.3-13c0-8-4-13.1-10.2-13.1&#10;&#9;&#9;&#9;&#9;&#9;&#9;C195.5,118.5,191.7,123.4,191.7,131.2z" style="block-size:auto;d:path(&quot;M 218.2 131.5 C 218.2 142.4 211.7 149.5 201.7 149.5 C 191.9 149.5 185.4 142.2 185.4 131.4 C 185.4 120.7 192 113.6 201.9 113.6 C 211.6 113.7 218.2 120.9 218.2 131.5 Z M 191.7 131.2 C 191.7 139.5 195.4 144.6 201.6 144.6 C 207.8 144.6 211.9 139.5 211.9 131.6 C 211.9 123.6 207.9 118.5 201.7 118.5 C 195.5 118.5 191.7 123.4 191.7 131.2 Z&quot;);height:auto;inline-size:auto;overflow-x:visible;overflow-y:visible;perspective-origin:0px 0px;transform-origin:0px 0px;width:auto;"/>
          <path class="st0" d="M246.4,144.5c-1.7,3-5.6,4.8-10.2,4.8c-4.7,0-8.4-1.9-10.4-5.2c-1.3-2.2-1.7-4.5-1.7-10.2v-19.3h5.8V135&#10;&#9;&#9;&#9;&#9;&#9;&#9;c0,6.4,2.4,9.4,7.3,9.4c3.2,0,6-1.5,7.6-4c1-1.6,1.2-3.5,1.2-9.5v-16.2h5.8v33.9h-5.6V144.5z" style="block-size:auto;d:path(&quot;M 246.4 144.5 C 244.7 147.5 240.8 149.3 236.2 149.3 C 231.5 149.3 227.8 147.4 225.8 144.1 C 224.5 141.9 224.1 139.6 224.1 133.9 V 114.6 H 229.9 V 135 C 229.9 141.4 232.3 144.4 237.2 144.4 C 240.4 144.4 243.2 142.9 244.8 140.4 C 245.8 138.8 246 136.9 246 130.9 V 114.7 H 251.8 V 148.6 H 246.2 V 144.5 Z&quot;);height:auto;inline-size:auto;overflow-x:visible;overflow-y:visible;perspective-origin:0px 0px;transform-origin:0px 0px;width:auto;"/>
          <path class="st0" d="M264.5,118.7c2.6-3.4,5.7-4.8,10.3-4.8c4.7,0,8.4,1.9,10.4,5.2c1.3,2.2,1.7,4.5,1.7,10.2v19.3H281v-20.4&#10;&#9;&#9;&#9;&#9;&#9;&#9;c0-6.5-2.4-9.4-7.3-9.4c-3.3,0-6,1.5-7.6,4.1c-1,1.6-1.2,3.4-1.2,9.5v16.2H259v-33.9h5.5V118.7z" style="block-size:auto;d:path(&quot;M 264.5 118.7 C 267.1 115.3 270.2 113.9 274.8 113.9 C 279.5 113.9 283.2 115.8 285.2 119.1 C 286.5 121.3 286.9 123.6 286.9 129.3 V 148.6 H 281 V 128.2 C 281 121.7 278.6 118.8 273.7 118.8 C 270.4 118.8 267.7 120.3 266.1 122.9 C 265.1 124.5 264.9 126.3 264.9 132.4 V 148.6 H 259 V 114.7 H 264.5 V 118.7 Z&quot;);height:auto;inline-size:auto;overflow-x:visible;overflow-y:visible;perspective-origin:0px 0px;transform-origin:0px 0px;width:auto;"/>
          <path class="st0" d="M317.8,148.5v-5.6c-3,4.5-6.2,6.3-10.8,6.3c-8.5,0-14.3-7.1-14.3-17.5c0-10.6,5.9-17.9,14.4-17.9&#10;&#9;&#9;&#9;&#9;&#9;&#9;c4.8,0,8.1,1.9,10.5,5.9v-18h5.8v46.7H317.8z M299,131.7c0,7.7,3.4,12.7,8.8,12.7c5.5,0,9.7-5.5,9.7-12.9c0-7.6-3.9-12.9-9.4-12.9&#10;&#9;&#9;&#9;&#9;&#9;&#9;S299,123.6,299,131.7z" style="block-size:auto;d:path(&quot;M 317.8 148.5 V 142.9 C 314.8 147.4 311.6 149.2 307 149.2 C 298.5 149.2 292.7 142.1 292.7 131.7 C 292.7 121.1 298.6 113.8 307.1 113.8 C 311.9 113.8 315.2 115.7 317.6 119.7 V 101.7 H 323.4 V 148.4 H 317.8 Z M 299 131.7 C 299 139.4 302.4 144.4 307.8 144.4 C 313.3 144.4 317.5 138.9 317.5 131.5 C 317.5 123.9 313.6 118.6 308.1 118.6 S 299 123.6 299 131.7 Z&quot;);height:auto;inline-size:auto;overflow-x:visible;overflow-y:visible;perspective-origin:0px 0px;transform-origin:0px 0px;width:auto;"/>
          <path class="st0" d="M352.8,148.5c-0.3-1.8-0.4-2.4-0.6-4.2c-2.9,3.5-6.2,5-10.9,5c-7.3,0-12.2-4.2-12.2-10.3&#10;&#9;&#9;&#9;&#9;&#9;&#9;c0-4.5,2.5-7.6,7.5-9.1c1.6-0.5,4.2-1,7.2-1.4c1.9-0.3,4.1-0.6,7.9-0.9c-0.1-4.4-0.3-5.7-1.5-7c-1.2-1.3-3.3-2.1-5.9-2.1&#10;&#9;&#9;&#9;&#9;&#9;&#9;c-5,0-7.5,2.2-7.8,6.8h-6.1c0.6-4.2,1.4-6.3,3.6-8.2c2.4-2.2,6.2-3.5,10.3-3.5c5.1,0,9.1,1.7,11.3,5c1.8,2.5,2.1,5,2,15.8&#10;&#9;&#9;&#9;&#9;&#9;&#9;c-0.1,6.8,0.2,10.4,1.1,14.1H352.8z M335.4,139.2c0,3.4,2.6,5.4,6.8,5.4c3.6,0,6.4-1.3,8.1-3.9c1-1.5,1.4-3.5,1.4-7.3v-1.2&#10;&#9;&#9;&#9;&#9;&#9;&#9;C339.6,133,335.4,134.8,335.4,139.2z" style="block-size:auto;d:path(&quot;M 352.8 148.5 C 352.5 146.7 352.4 146.1 352.2 144.3 C 349.3 147.8 346 149.3 341.3 149.3 C 334 149.3 329.1 145.1 329.1 139 C 329.1 134.5 331.6 131.4 336.6 129.9 C 338.2 129.4 340.8 128.9 343.8 128.5 C 345.7 128.2 347.9 127.9 351.7 127.6 C 351.6 123.2 351.4 121.9 350.2 120.6 C 349 119.3 346.9 118.5 344.3 118.5 C 339.3 118.5 336.8 120.7 336.5 125.3 H 330.4 C 331 121.1 331.8 119 334 117.1 C 336.4 114.9 340.2 113.6 344.3 113.6 C 349.4 113.6 353.4 115.3 355.6 118.6 C 357.4 121.1 357.7 123.6 357.6 134.4 C 357.5 141.2 357.8 144.8 358.7 148.5 H 352.8 Z M 335.4 139.2 C 335.4 142.6 338 144.6 342.2 144.6 C 345.8 144.6 348.6 143.3 350.3 140.7 C 351.3 139.2 351.7 137.2 351.7 133.4 V 132.2 C 339.6 133 335.4 134.8 335.4 139.2 Z&quot;);height:auto;inline-size:auto;overflow-x:visible;overflow-y:visible;perspective-origin:0px 0px;transform-origin:0px 0px;width:auto;"/>
          <path class="st0" d="M372.9,114.7h7.6v4.7h-7.6v18.1c0,3.8,0.1,4.5,0.7,5.3c0.6,0.8,2,1.3,3.6,1.3c1.2,0,2.3-0.2,3.3-0.5v5&#10;&#9;&#9;&#9;&#9;&#9;&#9;c-2.7,0.5-3.7,0.6-5.1,0.6c-3.1,0-5.8-1.4-7.2-3.7c-0.8-1.5-1.1-2.9-1.1-6.2v-2.2v-17.8h-6.2v-4.7h6.2v-8.2h5.8V114.7z" style="block-size:auto;d:path(&quot;M 372.9 114.7 H 380.5 V 119.4 H 372.9 V 137.5 C 372.9 141.3 373 142 373.6 142.8 C 374.2 143.6 375.6 144.1 377.2 144.1 C 378.4 144.1 379.5 143.9 380.5 143.6 V 148.6 C 377.8 149.1 376.8 149.2 375.4 149.2 C 372.3 149.2 369.6 147.8 368.2 145.5 C 367.4 144 367.1 142.6 367.1 139.3 V 137.1 V 119.3 H 360.9 V 114.6 H 367.1 V 106.4 H 372.9 V 114.7 Z&quot;);height:auto;inline-size:auto;overflow-x:visible;overflow-y:visible;perspective-origin:0px 0px;transform-origin:0px 0px;width:auto;"/>
          <path class="st0" d="M385.7,101.8h5.8v6.8h-5.8V101.8z M391.6,114.7v33.9h-5.8v-33.9H391.6z" style="block-size:auto;d:path(&quot;M 385.7 101.8 H 391.5 V 108.6 H 385.7 V 101.8 Z M 391.6 114.7 V 148.6 H 385.8 V 114.7 H 391.6 Z&quot;);height:auto;inline-size:auto;overflow-x:visible;overflow-y:visible;perspective-origin:0px 0px;transform-origin:0px 0px;width:auto;"/>
          <path class="st0" d="M430.2,131.5c0,10.9-6.5,18-16.5,18c-9.8,0-16.3-7.3-16.3-18.1c0-10.7,6.6-17.8,16.5-17.8&#10;&#9;&#9;&#9;&#9;&#9;&#9;C423.6,113.7,430.2,120.9,430.2,131.5z M403.7,131.2c0,8.3,3.7,13.4,9.9,13.4c6.2,0,10.3-5.1,10.3-13c0-8-4-13.1-10.2-13.1&#10;&#9;&#9;&#9;&#9;&#9;&#9;C407.5,118.5,403.7,123.4,403.7,131.2z" style="block-size:auto;d:path(&quot;M 430.2 131.5 C 430.2 142.4 423.7 149.5 413.7 149.5 C 403.9 149.5 397.4 142.2 397.4 131.4 C 397.4 120.7 404 113.6 413.9 113.6 C 423.6 113.7 430.2 120.9 430.2 131.5 Z M 403.7 131.2 C 403.7 139.5 407.4 144.6 413.6 144.6 C 419.8 144.6 423.9 139.5 423.9 131.6 C 423.9 123.6 419.9 118.5 413.7 118.5 C 407.5 118.5 403.7 123.4 403.7 131.2 Z&quot;);height:auto;inline-size:auto;overflow-x:visible;overflow-y:visible;perspective-origin:0px 0px;transform-origin:0px 0px;width:auto;"/>
          <path class="st0" d="M441.6,118.7c2.6-3.4,5.7-4.8,10.3-4.8c4.7,0,8.4,1.9,10.4,5.2c1.3,2.2,1.7,4.5,1.7,10.2v19.3h-5.8v-20.4&#10;&#9;&#9;&#9;&#9;&#9;&#9;c0-6.5-2.4-9.4-7.3-9.4c-3.3,0-6,1.5-7.6,4.1c-1,1.6-1.2,3.4-1.2,9.5v16.2h-5.8v-33.9h5.5V118.7z" style="block-size:auto;d:path(&quot;M 441.6 118.7 C 444.2 115.3 447.3 113.9 451.9 113.9 C 456.6 113.9 460.3 115.8 462.3 119.1 C 463.6 121.3 464 123.6 464 129.3 V 148.6 H 458.2 V 128.2 C 458.2 121.7 455.8 118.8 450.9 118.8 C 447.6 118.8 444.9 120.3 443.3 122.9 C 442.3 124.5 442.1 126.3 442.1 132.4 V 148.6 H 436.3 V 114.7 H 441.8 V 118.7 Z&quot;);height:auto;inline-size:auto;overflow-x:visible;overflow-y:visible;perspective-origin:0px 0px;transform-origin:0px 0px;width:auto;"/>
        </g>
      </g>
    </svg>