<svg width="20" height="22" viewBox="0 0 20 22" fill="none" xmlns="http://www.w3.org/2000/svg">
<path d="M17.8571 2.75H15.7143V0.515625C15.7143 0.232031 15.4732 0 15.1786 0H13.3929C13.0982 0 12.8571 0.232031 12.8571 0.515625V2.75H7.14286V0.515625C7.14286 0.232031 6.90179 0 6.60714 0H4.82143C4.52679 0 4.28571 0.232031 4.28571 0.515625V2.75H2.14286C0.959821 2.75 0 3.67383 0 4.8125V19.9375C0 21.0762 0.959821 22 2.14286 22H17.8571C19.0402 22 20 21.0762 20 19.9375V4.8125C20 3.67383 19.0402 2.75 17.8571 2.75ZM17.5893 19.9375H2.41071C2.26339 19.9375 2.14286 19.8215 2.14286 19.6797V6.875H17.8571V19.6797C17.8571 19.8215 17.7366 19.9375 17.5893 19.9375Z" fill="#242A35"/>
</svg>
