<svg width="20" height="19" viewBox="0 0 20 19" fill="none" xmlns="http://www.w3.org/2000/svg">
<path d="M18.9757 6.27923L13.514 5.49942L11.0729 0.652138C10.6355 -0.211879 9.36823 -0.222862 8.9271 0.652138L6.48599 5.49942L1.02432 6.27923C0.0448775 6.41836 -0.347645 7.60089 0.362634 8.27819L4.31403 12.0491L3.37945 17.376C3.21123 18.3389 4.24674 19.0601 5.11403 18.6098L10 16.0946L14.886 18.6098C15.7533 19.0564 16.7888 18.3389 16.6206 17.376L15.686 12.0491L19.6374 8.27819C20.3476 7.60089 19.9551 6.41836 18.9757 6.27923ZM13.7607 11.434L14.6467 16.501L10 14.1103L5.35328 16.501L6.23926 11.434L2.47852 7.84618L7.67477 7.10664L10 2.49367L12.3252 7.10664L17.5215 7.84618L13.7607 11.434Z" fill="#242A35"/>
</svg>
