<svg width="48" height="48" viewBox="0 0 48 48" fill="none" xmlns="http://www.w3.org/2000/svg">
<path d="M19.984 12.404H21.8931C22.2376 12.404 22.5164 12.1249 22.5164 11.7806C22.5164 11.4363 22.2376 11.1572 21.8931 11.1572H19.984C19.6394 11.1572 19.3606 11.4363 19.3606 11.7806C19.3606 12.1249 19.6394 12.404 19.984 12.404Z" fill="#242A35"/>
<path d="M14.8922 12.404H16.8013C17.1459 12.404 17.4247 12.1249 17.4247 11.7806C17.4247 11.4363 17.1459 11.1572 16.8013 11.1572H14.8922C14.5477 11.1572 14.2688 11.4363 14.2688 11.7806C14.2688 12.1249 14.5477 12.404 14.8922 12.404Z" fill="#242A35"/>
<path d="M25.0757 12.404H26.9848C27.3293 12.404 27.6081 12.1249 27.6081 11.7806C27.6081 11.4363 27.3293 11.1572 26.9848 11.1572H25.0757C24.7311 11.1572 24.4523 11.4363 24.4523 11.7806C24.4523 12.1249 24.7311 12.404 25.0757 12.404Z" fill="#242A35"/>
<path d="M32.0765 11.1572H30.1668C29.8222 11.1572 29.5434 11.4363 29.5434 11.7806C29.5434 12.1249 29.8222 12.404 30.1668 12.404H32.0765C32.421 12.404 32.6999 12.1249 32.6999 11.7806C32.6999 11.4363 32.421 11.1572 32.0765 11.1572Z" fill="#242A35"/>
<path d="M12.1126 11.548C11.8033 11.3964 11.4296 11.5245 11.278 11.8335C11.1988 11.9957 11.1568 12.1771 11.1568 12.3589V14.008C11.1568 14.3523 11.4357 14.6314 11.7802 14.6314C12.1248 14.6314 12.4036 14.3523 12.4036 14.008L12.3981 12.382C12.5491 12.0727 12.4212 11.6996 12.1126 11.548Z" fill="#242A35"/>
<path d="M15.2752 35.5961H13.3655C13.0209 35.5961 12.7421 35.8752 12.7421 36.2194C12.7421 36.5637 13.0209 36.8428 13.3655 36.8428H15.2752C15.6197 36.8428 15.8985 36.5637 15.8985 36.2194C15.8985 35.8752 15.6197 35.5961 15.2752 35.5961Z" fill="#242A35"/>
<path d="M11.7802 31.8418C11.4357 31.8418 11.1568 32.1209 11.1568 32.4652V34.3746C11.1568 34.7188 11.4357 34.9979 11.7802 34.9979C12.1248 34.9979 12.4036 34.7188 12.4036 34.3746V32.4652C12.4036 32.1209 12.1248 31.8418 11.7802 31.8418Z" fill="#242A35"/>
<path d="M11.7802 21.6587C11.4357 21.6587 11.1568 21.9378 11.1568 22.2821V24.1915C11.1568 24.5357 11.4357 24.8148 11.7802 24.8148C12.1248 24.8148 12.4036 24.5357 12.4036 24.1915V22.2821C12.4036 21.9378 12.1248 21.6587 11.7802 21.6587Z" fill="#242A35"/>
<path d="M11.7802 16.567C11.4357 16.567 11.1568 16.8461 11.1568 17.1904V19.0998C11.1568 19.444 11.4357 19.7232 11.7802 19.7232C12.1248 19.7232 12.4036 19.444 12.4036 19.0998V17.1904C12.4036 16.8461 12.1248 16.567 11.7802 16.567Z" fill="#242A35"/>
<path d="M11.7802 26.7504C11.4357 26.7504 11.1568 27.0295 11.1568 27.3737V29.2828C11.1568 29.6271 11.4357 29.9062 11.7802 29.9062C12.1248 29.9062 12.4036 29.6271 12.4036 29.2828V27.3737C12.4036 27.0295 12.1248 26.7504 11.7802 26.7504Z" fill="#242A35"/>
<path d="M35.6415 35.5961H33.7324C33.3878 35.5961 33.109 35.8752 33.109 36.2194C33.109 36.5637 33.3878 36.8428 33.7324 36.8428H35.6415C35.6494 36.8428 35.6816 36.8419 35.6895 36.8416C36.0292 36.8288 36.2837 36.5467 36.277 36.2073C36.2703 35.8676 35.9811 35.5961 35.6415 35.5961Z" fill="#242A35"/>
<path d="M30.5497 35.5961H28.6406C28.2961 35.5961 28.0172 35.8752 28.0172 36.2194C28.0172 36.5637 28.2961 36.8428 28.6406 36.8428H30.5497C30.8943 36.8428 31.1731 36.5637 31.1731 36.2194C31.1731 35.8752 30.8943 35.5961 30.5497 35.5961Z" fill="#242A35"/>
<path d="M20.3663 35.5961H18.4572C18.1126 35.5961 17.8338 35.8752 17.8338 36.2194C17.8338 36.5637 18.1126 36.8428 18.4572 36.8428H20.3663C20.7108 36.8428 20.9896 36.5637 20.9896 36.2194C20.9896 35.8752 20.7108 35.5961 20.3663 35.5961Z" fill="#242A35"/>
<path d="M25.458 35.5961H23.5489C23.2044 35.5961 22.9255 35.8752 22.9255 36.2194C22.9255 36.5637 23.2044 36.8428 23.5489 36.8428H25.458C25.8026 36.8428 26.0814 36.5637 26.0814 36.2194C26.0814 35.8752 25.8026 35.5961 25.458 35.5961Z" fill="#242A35"/>
<path d="M36.2198 15.5358C35.8752 15.5358 35.5964 15.8149 35.5964 16.1591V18.0685C35.5964 18.4128 35.8752 18.6919 36.2198 18.6919C36.5643 18.6919 36.8431 18.4128 36.8431 18.0685V16.1591C36.8431 15.8149 36.5643 15.5358 36.2198 15.5358Z" fill="#242A35"/>
<path d="M35.6414 11.1572H35.2585C34.914 11.1572 34.6352 11.4363 34.6352 11.7806C34.6352 12.1249 34.914 12.404 35.2585 12.404H35.5964V12.9768C35.5964 13.3211 35.8752 13.6002 36.2198 13.6002C36.5643 13.6002 36.8431 13.3211 36.8431 12.9768V12.3589C36.8431 11.6963 36.3038 11.1572 35.6414 11.1572Z" fill="#242A35"/>
<path d="M36.2198 30.8105C35.8752 30.8105 35.5964 31.0897 35.5964 31.4339V33.3433C35.5964 33.6876 35.8752 33.9667 36.2198 33.9667C36.5643 33.9667 36.8431 33.6876 36.8431 33.3433V31.4339C36.8431 31.0897 36.5643 30.8105 36.2198 30.8105Z" fill="#242A35"/>
<path d="M36.2198 20.6272C35.8752 20.6272 35.5964 20.9063 35.5964 21.2506V23.16C35.5964 23.5042 35.8752 23.7833 36.2198 23.7833C36.5643 23.7833 36.8431 23.5042 36.8431 23.16V21.2506C36.8431 20.9063 36.5643 20.6272 36.2198 20.6272Z" fill="#242A35"/>
<path d="M36.2198 25.7189C35.8752 25.7189 35.5964 25.998 35.5964 26.3422V28.2516C35.5964 28.5959 35.8752 28.875 36.2198 28.875C36.5643 28.875 36.8431 28.5959 36.8431 28.2516V26.3422C36.8431 25.998 36.5643 25.7189 36.2198 25.7189Z" fill="#242A35"/>
<path d="M24 15.9917C19.584 15.9917 15.9917 19.5843 15.9917 24C15.9917 28.4157 19.584 32.0083 24 32.0083C28.416 32.0083 32.0083 28.4157 32.0083 24C32.0083 19.5843 28.416 15.9917 24 15.9917ZM24 30.7616C20.2719 30.7616 17.2385 27.7284 17.2385 24C17.2385 20.2716 20.2719 17.2385 24 17.2385C27.7281 17.2385 30.7616 20.2716 30.7616 24C30.7616 27.7284 27.7281 30.7616 24 30.7616Z" fill="#242A35"/>
<path d="M47.3766 16.84C47.7212 16.84 48 16.5609 48 16.2166C48 15.8724 47.7212 15.5932 47.3766 15.5932H42.5808V9.05661H47.3766C47.7212 9.05661 48 8.7775 48 8.43324C48 8.08898 47.7212 7.80986 47.3766 7.80986H42.5808V6.89245C42.5808 6.08005 41.9196 5.41924 41.1075 5.41924H40.1901V0.623377C40.1901 0.279119 39.9113 0 39.5668 0C39.2222 0 38.9434 0.279119 38.9434 0.623377V5.41924H32.4065V0.623377C32.4065 0.279119 32.1276 0 31.7831 0C31.4385 0 31.1597 0.279119 31.1597 0.623377V5.41924H24.6234V0.623377C24.6234 0.279119 24.3446 0 24 0C23.6554 0 23.3766 0.279119 23.3766 0.623377V5.41924H16.8403V0.623377C16.8403 0.279119 16.5615 0 16.2169 0C15.8724 0 15.5935 0.279119 15.5935 0.623377V5.41924H9.05661V0.623377C9.05661 0.279119 8.7778 0 8.43324 0C8.08868 0 7.80986 0.279119 7.80986 0.623377V5.41924H6.89245C6.08036 5.41924 5.41924 6.08005 5.41924 6.89245V7.80986H0.623377C0.278815 7.80986 0 8.08898 0 8.43324C0 8.7775 0.278815 9.05661 0.623377 9.05661H5.41924V15.5932H0.623377C0.278815 15.5932 0 15.8724 0 16.2166C0 16.5609 0.278815 16.84 0.623377 16.84H5.41924V23.3766H0.623377C0.278815 23.3766 0 23.6557 0 24C0 24.3443 0.278815 24.6234 0.623377 24.6234H5.41924V31.16H0.623377C0.278815 31.16 0 31.4391 0 31.7834C0 32.1276 0.278815 32.4068 0.623377 32.4068H5.41924V38.9434H0.623377C0.278815 38.9434 0 39.2225 0 39.5668C0 39.911 0.278815 40.1901 0.623377 40.1901H5.41924V41.1075C5.41924 41.9199 6.08036 42.5808 6.89245 42.5808H7.80986V47.3766C7.80986 47.7209 8.08868 48 8.43324 48C8.7778 48 9.05661 47.7209 9.05661 47.3766V42.5808H15.5935V47.3766C15.5935 47.7209 15.8724 48 16.2169 48C16.5615 48 16.8403 47.7209 16.8403 47.3766V42.5808H23.3766V47.3766C23.3766 47.7209 23.6554 48 24 48C24.3446 48 24.6234 47.7209 24.6234 47.3766V42.5808H31.1597V47.3766C31.1597 47.7209 31.4385 48 31.7831 48C32.1276 48 32.4065 47.7209 32.4065 47.3766V42.5808H38.9434V47.3766C38.9434 47.7209 39.2222 48 39.5668 48C39.9113 48 40.1901 47.7209 40.1901 47.3766V42.5808H41.1075C41.9196 42.5808 42.5808 41.9199 42.5808 41.1075V40.1901H47.3766C47.7212 40.1901 48 39.911 48 39.5668C48 39.2225 47.7212 38.9434 47.3766 38.9434H42.5808V32.4068H47.3766C47.7212 32.4068 48 32.1276 48 31.7834C48 31.4391 47.7212 31.16 47.3766 31.16H42.5808V24.6234H47.3766C47.7212 24.6234 48 24.3443 48 24C48 23.6557 47.7212 23.3766 47.3766 23.3766H42.5808V16.84H47.3766ZM41.334 41.1075C41.334 41.2323 41.2323 41.334 41.1075 41.334H6.89245C6.76765 41.334 6.66599 41.2323 6.66599 41.1075V6.89245C6.66599 6.76765 6.76765 6.66599 6.89245 6.66599H41.1075C41.2323 6.66599 41.334 6.76765 41.334 6.89245V41.1075Z" fill="#242A35"/>
</svg>
