<svg width="60" height="60" viewBox="0 0 60 60" fill="none" xmlns="http://www.w3.org/2000/svg">
<rect x="6" y="7" width="48" height="48" rx="5" fill="#242A35"/>
<g clip-path="url(#clip0)">
<path d="M33.1854 15.7067L33.1854 25.0869C33.0984 25.3148 32.1828 25.3023 32.1165 25.0869C32.0212 23.4006 31.5945 15.8393 31.5862 15.6653C31.3707 14.2814 28.6196 14.2814 28.4042 15.6653C28.3918 15.8434 27.965 23.4048 27.8739 25.0869C27.8076 25.3023 26.8919 25.3148 26.8049 25.0869L26.8049 15.7067C26.6392 14.2649 23.8342 14.2856 23.6229 15.6321C23.5691 15.9429 22.554 21.9049 22.5498 24.1878C22.5498 27.6515 24.3936 30.1416 27.1239 31.1401L26.2787 46.9589C26.2331 47.8745 26.9582 48.641 27.8739 48.6369L32.1248 48.6369C33.0363 48.6369 33.7655 47.8662 33.7158 46.9547L32.8581 31.1401C35.5885 30.1416 37.4364 27.664 37.4322 24.1878C37.4322 21.9008 36.4171 15.9387 36.3633 15.628C36.1561 14.2856 33.3553 14.269 33.1854 15.7067Z" fill="white"/>
</g>
<rect x="3.35629" y="54.0195" width="70.0586" height="5" transform="rotate(-45 3.35629 54.0195)" fill="white" stroke="#242A35" stroke-width="2"/>
<rect x="3" y="3" width="54" height="54" rx="8" stroke="white" stroke-width="6"/>
<defs>
<clipPath id="clip0">
<rect width="30" height="30" fill="white" transform="translate(8.78711 30.2129) rotate(-45)"/>
</clipPath>
</defs>
</svg>
