<svg width="661" height="234" viewBox="0 0 661 234" fill="none" xmlns="http://www.w3.org/2000/svg">
<path d="M111.96 7.67998V3.67998H110.028L108.827 5.19299L111.96 7.67998ZM162.2 7.67998H166.2V3.67998H162.2V7.67998ZM162.2 136.8H158.2V140.8H162.2V136.8ZM199.64 136.8H203.64V132.8H199.64V136.8ZM199.64 180.96V184.96H203.64V180.96H199.64ZM162.2 180.96V176.96H158.2V180.96H162.2ZM162.2 224V228H166.2V224H162.2ZM111.32 224H107.32V228H111.32V224ZM111.32 180.96H115.32V176.96H111.32V180.96ZM4.76 180.96H0.76V184.96H4.76V180.96ZM4.76 142.72L1.62713 140.233L0.76 141.325V142.72H4.76ZM114.2 81.12H118.2V69.6586L111.069 78.6311L114.2 81.12ZM65.24 142.72L62.1086 140.231L56.9512 146.72H65.24V142.72ZM114.2 142.72V146.72H118.2V142.72H114.2ZM111.96 11.68H162.2V3.67998H111.96V11.68ZM158.2 7.67998V136.8H166.2V7.67998H158.2ZM162.2 140.8H199.64V132.8H162.2V140.8ZM195.64 136.8V180.96H203.64V136.8H195.64ZM199.64 176.96H162.2V184.96H199.64V176.96ZM158.2 180.96V224H166.2V180.96H158.2ZM162.2 220H111.32V228H162.2V220ZM115.32 224V180.96H107.32V224H115.32ZM111.32 176.96H4.76V184.96H111.32V176.96ZM8.76 180.96V142.72H0.76V180.96H8.76ZM7.89287 145.207L115.093 10.167L108.827 5.19299L1.62713 140.233L7.89287 145.207ZM111.069 78.6311L62.1086 140.231L68.3714 145.209L117.331 83.6088L111.069 78.6311ZM65.24 146.72H114.2V138.72H65.24V146.72ZM118.2 142.72V81.12H110.2V142.72H118.2ZM280.212 216.96L278.228 220.433L278.239 220.439L280.212 216.96ZM246.772 180L243.167 181.733L243.174 181.747L243.181 181.761L246.772 180ZM246.772 53.6L243.177 51.8481L243.172 51.8577L246.772 53.6ZM280.212 16.64L282.177 20.1242L282.186 20.1193L280.212 16.64ZM377.492 16.64L375.497 20.1065L375.507 20.1122L375.516 20.1178L377.492 16.64ZM410.773 53.6L407.177 55.3519L407.181 55.361L410.773 53.6ZM410.773 180L414.364 181.761L414.368 181.752L410.773 180ZM377.492 216.96L379.488 220.426L377.492 216.96ZM358.932 166.08L362.241 168.328L362.246 168.321L362.251 168.314L358.932 166.08ZM358.932 67.68L355.595 69.8842L355.599 69.8915L355.604 69.8988L358.932 67.68ZM298.612 67.68L295.275 65.4757L295.27 65.4833L298.612 67.68ZM298.612 166.08L295.279 168.291L295.292 168.31L295.304 168.328L298.612 166.08ZM329.173 225.12C311.435 225.12 295.81 221.208 282.186 213.481L278.239 220.439C293.202 228.926 310.216 233.12 329.173 233.12V225.12ZM282.197 213.487C268.791 205.827 258.165 194.148 250.364 178.239L243.181 181.761C251.594 198.918 263.26 211.88 278.228 220.433L282.197 213.487ZM250.378 178.267C242.716 162.331 238.772 141.959 238.772 116.96H230.772C230.772 142.734 234.829 164.389 243.167 181.733L250.378 178.267ZM238.772 116.96C238.772 91.6307 242.719 71.1601 250.373 55.3422L243.172 51.8577C234.826 69.1065 230.772 90.876 230.772 116.96H238.772ZM250.368 55.3519C258.17 39.3383 268.791 27.6727 282.177 20.1242L278.248 13.1558C263.26 21.6072 251.588 34.5817 243.177 51.8481L250.368 55.3519ZM282.186 20.1193C295.81 12.3924 311.435 8.47998 329.173 8.47998V0.47998C310.216 0.47998 293.202 4.67429 278.239 13.1607L282.186 20.1193ZM329.173 8.47998C346.688 8.47998 362.092 12.3886 375.497 20.1065L379.488 13.1735C364.733 4.67801 347.923 0.47998 329.173 0.47998V8.47998ZM375.516 20.1178C388.798 27.664 399.371 39.3303 407.177 55.3519L414.368 51.8481C405.961 34.5897 394.347 21.616 379.469 13.1622L375.516 20.1178ZM407.181 55.361C414.934 71.1734 418.932 91.6367 418.932 116.96H426.932C426.932 90.8699 422.824 69.0933 414.364 51.839L407.181 55.361ZM418.932 116.96C418.932 141.953 414.938 162.318 407.177 178.248L414.368 181.752C422.821 164.402 426.932 142.741 426.932 116.96H418.932ZM407.181 178.239C399.376 194.156 388.798 205.835 375.497 213.493L379.488 220.426C394.347 211.871 405.955 198.91 414.364 181.761L407.181 178.239ZM375.497 213.493C362.092 221.211 346.688 225.12 329.173 225.12V233.12C347.923 233.12 364.733 228.922 379.488 220.426L375.497 213.493ZM329.173 186.56C342.982 186.56 354.094 180.315 362.241 168.328L355.624 163.832C348.837 173.818 340.11 178.56 329.173 178.56V186.56ZM362.251 168.314C370.359 156.266 374.133 138.96 374.133 116.96H366.133C366.133 138.266 362.439 153.707 355.614 163.846L362.251 168.314ZM374.133 116.96C374.133 94.9554 370.358 77.6069 362.261 65.4612L355.604 69.8988C362.44 80.1531 366.133 95.6579 366.133 116.96H374.133ZM362.27 65.4757C354.147 53.174 343.034 46.72 329.173 46.72V54.72C340.058 54.72 348.785 59.5726 355.595 69.8842L362.27 65.4757ZM329.173 46.72C314.844 46.72 303.438 53.1148 295.275 65.4757L301.95 69.8842C308.721 59.6319 317.688 54.72 329.173 54.72V46.72ZM295.27 65.4833C287.291 77.6241 283.573 94.963 283.573 116.96H291.573C291.573 95.6503 295.214 80.1359 301.955 69.8767L295.27 65.4833ZM283.573 116.96C283.573 138.953 287.29 156.249 295.279 168.291L301.946 163.869C295.215 153.724 291.573 138.274 291.573 116.96H283.573ZM295.304 168.328C303.489 180.372 314.895 186.56 329.173 186.56V178.56C317.636 178.56 308.669 173.761 301.921 163.832L295.304 168.328ZM568.797 7.67998V3.67998H566.866L565.665 5.19299L568.797 7.67998ZM619.038 7.67998H623.038V3.67998H619.038V7.67998ZM619.038 136.8H615.038V140.8H619.038V136.8ZM656.477 136.8H660.477V132.8H656.477V136.8ZM656.477 180.96V184.96H660.477V180.96H656.477ZM619.038 180.96V176.96H615.038V180.96H619.038ZM619.038 224V228H623.038V224H619.038ZM568.157 224H564.157V228H568.157V224ZM568.157 180.96H572.157V176.96H568.157V180.96ZM461.598 180.96H457.598V184.96H461.598V180.96ZM461.598 142.72L458.465 140.233L457.598 141.325V142.72H461.598ZM571.037 81.12H575.037V69.6586L567.906 78.6311L571.037 81.12ZM522.078 142.72L518.946 140.231L513.789 146.72H522.078V142.72ZM571.037 142.72V146.72H575.037V142.72H571.037ZM568.797 11.68H619.038V3.67998H568.797V11.68ZM615.038 7.67998V136.8H623.038V7.67998H615.038ZM619.038 140.8H656.477V132.8H619.038V140.8ZM652.477 136.8V180.96H660.477V136.8H652.477ZM656.477 176.96H619.038V184.96H656.477V176.96ZM615.038 180.96V224H623.038V180.96H615.038ZM619.038 220H568.157V228H619.038V220ZM572.157 224V180.96H564.157V224H572.157ZM568.157 176.96H461.598V184.96H568.157V176.96ZM465.598 180.96V142.72H457.598V180.96H465.598ZM464.73 145.207L571.93 10.167L565.665 5.19299L458.465 140.233L464.73 145.207ZM567.906 78.6311L518.946 140.231L525.209 145.209L574.169 83.6088L567.906 78.6311ZM522.078 146.72H571.037V138.72H522.078V146.72ZM575.037 142.72V81.12H567.037V142.72H575.037Z"/>
</svg>
