<svg width="50" height="50" viewBox="0 0 50 50" fill="none" xmlns="http://www.w3.org/2000/svg">
<path d="M48.5491 32.1467V25C48.5491 24.6414 48.2587 24.3506 47.8998 24.3506H43.4173C43.3244 21.6028 42.6487 18.9864 41.3917 16.5702C38.3485 10.6426 32.3204 6.81057 25.6627 6.56897C25.6583 6.56881 25.6537 6.56885 25.6494 6.56869V2.74959H32.1465C32.4219 3.58863 33.2035 4.20017 34.1334 4.20017C35.2913 4.20017 36.233 3.25817 36.233 2.10024C36.233 0.942319 35.2913 0 34.1334 0C33.2035 0 32.4218 0.611778 32.1464 1.45089H25C24.6411 1.45089 24.3506 1.74164 24.3506 2.10024V6.56833C24.3457 6.56853 24.3403 6.56845 24.3354 6.56865C23.9191 6.58375 23.5053 6.61292 23.0945 6.65573C22.5986 6.70741 22.109 6.78544 21.6231 6.87628C16.4723 7.83901 11.9319 10.9586 9.20917 15.4823C8.99591 15.8365 8.7937 16.1992 8.60326 16.5702C8.60291 16.5708 8.60298 16.5716 8.60263 16.5722C7.34554 18.9899 6.67043 21.6048 6.57761 24.3506H2.74896V17.8533C3.58807 17.578 4.19985 16.7965 4.19985 15.8666C4.19985 14.7087 3.25753 13.7667 2.09961 13.7667C0.941685 13.7667 0 14.7087 0 15.8666C0 16.7965 0.611382 17.578 1.45026 17.8533V25C1.45026 25.3586 1.74069 25.6494 2.09961 25.6494H6.57967C6.58593 25.8275 6.58542 26.0062 6.59683 26.1838C6.6979 27.7592 6.9999 29.3111 7.49163 30.7974C7.86046 31.9123 8.33613 32.9904 8.91399 34.0139C8.91438 34.0146 8.91518 34.015 8.91561 34.0157C12.0671 39.6382 17.9387 43.1897 24.3506 43.4155V47.2507H17.8529C17.5775 46.4117 16.7959 45.8001 15.866 45.8001C14.708 45.8001 13.7664 46.7421 13.7664 47.9001C13.7664 49.058 14.708 50 15.866 50C16.7959 50 17.5775 49.3885 17.8529 48.5494H25C25.3589 48.5494 25.6494 48.2587 25.6494 47.9001V43.4154C32.0607 43.1879 37.9314 39.6352 41.0809 34.0139C42.5161 31.4719 43.3116 28.5924 43.4153 25.6494H47.2504V32.1467C46.4113 32.4222 45.7995 33.2038 45.7995 34.1337C45.7995 35.2916 46.7418 36.2336 47.8998 36.2336C49.0577 36.2336 50 35.2916 50 34.1337C50 33.2038 49.3882 32.4222 48.5491 32.1467ZM34.1334 1.2987C34.5748 1.2987 34.9343 1.65825 34.9343 2.10024C34.9343 2.54192 34.5748 2.90147 34.1334 2.90147C33.6914 2.90147 33.3319 2.54192 33.3319 2.10024C33.3319 1.65825 33.6914 1.2987 34.1334 1.2987ZM2.09961 16.6678C1.65825 16.6678 1.2987 16.3083 1.2987 15.8666C1.2987 15.4249 1.65825 15.0654 2.09961 15.0654C2.5416 15.0654 2.90115 15.4249 2.90115 15.8666C2.90115 16.3083 2.5416 16.6678 2.09961 16.6678ZM15.866 48.7013C15.4246 48.7013 15.0651 48.3417 15.0651 47.9001C15.0651 47.4584 15.4246 47.0988 15.866 47.0988C16.308 47.0988 16.6675 47.4584 16.6675 47.9001C16.6675 48.3417 16.308 48.7013 15.866 48.7013ZM32.1247 9.41598C32.2722 9.48363 32.4163 9.55814 32.5618 9.62988C32.7478 9.72159 32.9343 9.81219 33.1167 9.91052C33.2606 9.98805 33.4009 10.0718 33.5424 10.1534C33.7209 10.2562 33.8997 10.3585 34.0743 10.4676C34.2133 10.5546 34.3486 10.6471 34.4851 10.7379C34.656 10.8517 34.8269 10.9652 34.9936 11.085C35.1271 11.181 35.2571 11.282 35.3879 11.3818C35.551 11.5063 35.7138 11.631 35.8725 11.7613C35.9999 11.866 36.1239 11.9751 36.2484 12.0836C36.4028 12.218 36.5565 12.3532 36.7062 12.4932C36.8275 12.6068 36.9455 12.7242 37.0636 12.8415C37.2088 12.9855 37.3531 13.1307 37.4933 13.2801C37.6079 13.4024 37.7192 13.5278 37.8304 13.6536C37.9656 13.8064 38.0993 13.9605 38.2291 14.1185C38.337 14.2497 38.4419 14.3837 38.546 14.5184C38.6702 14.6789 38.7925 14.8411 38.9113 15.0064C39.0124 15.1473 39.1107 15.2905 39.2077 15.4348C39.3199 15.6015 39.4297 15.77 39.5363 15.9412C39.6302 16.0922 39.7216 16.2449 39.8111 16.3993C39.8618 16.4867 39.9096 16.5763 39.9589 16.6648C39.1616 17.1732 38.1499 17.6374 36.9615 18.057C35.9074 14.3696 34.0426 11.273 31.6818 9.22733C31.8295 9.29007 31.9789 9.34916 32.1247 9.41598ZM30.4004 20.8159C32.4326 20.5794 34.3609 20.2054 36.0495 19.7175C36.4161 21.3826 36.6167 23.157 36.6167 25C36.6167 28.2954 35.9815 31.3751 34.8844 33.9908C33.2454 34.2026 31.5366 34.3606 29.787 34.465C30.2843 31.5555 30.541 28.2419 30.541 25C30.541 23.6062 30.4938 22.1988 30.4004 20.8159ZM35.7322 18.4468C34.1133 18.9188 32.2627 19.2821 30.2967 19.5132C29.872 14.7832 28.8971 10.4944 27.4153 8.23646C31.1848 9.41749 34.2837 13.3029 35.7322 18.4468ZM29.2423 25C29.2423 28.714 28.9395 31.9244 28.4706 34.532C26.1936 34.631 23.808 34.631 21.529 34.5322C21.06 31.9246 20.757 28.7141 20.757 25C20.757 23.5677 20.8033 22.2128 20.8854 20.9357C22.2461 21.0516 23.6241 21.122 24.9975 21.122C26.3719 21.122 27.7513 21.0515 29.114 20.9354C29.1961 22.2126 29.2423 23.5676 29.2423 25ZM25 7.86133C26.4503 7.86133 28.3679 12.2318 29.0164 19.6406C26.3601 19.8676 23.6376 19.8677 20.9831 19.6408C21.6317 12.2319 23.5497 7.86133 25 7.86133ZM22.5846 8.23642C21.1026 10.4944 20.1275 14.7834 19.7027 19.5136C17.7398 19.2829 15.8894 18.919 14.2675 18.4457C15.7161 13.3022 18.815 9.41729 22.5846 8.23642ZM20.2126 34.4652C18.4604 34.3605 16.7515 34.202 15.1145 33.9896C14.0177 31.3742 13.3827 28.2949 13.3827 25C13.3827 23.1528 13.5843 21.3746 13.9525 19.7063C15.6554 20.2014 17.547 20.5718 19.5994 20.8095C19.5057 22.1945 19.4583 23.6041 19.4583 25C19.4583 28.242 19.7152 31.5556 20.2126 34.4652ZM10.1857 16.3962C10.2751 16.2422 10.3661 16.0896 10.46 15.939C10.5655 15.7694 10.6744 15.6025 10.7855 15.4373C10.8844 15.2902 10.9845 15.1442 11.0877 15.0007C11.2035 14.8395 11.3228 14.6815 11.4437 14.5249C11.5512 14.3858 11.6594 14.2475 11.7708 14.1122C11.8968 13.9591 12.0266 13.8096 12.1575 13.6613C12.2728 13.5307 12.3884 13.4005 12.5075 13.2738C12.6428 13.1296 12.7821 12.9896 12.9222 12.8504C13.0451 12.7283 13.1679 12.6061 13.2943 12.4879C13.439 12.3526 13.5877 12.2221 13.7368 12.092C13.8662 11.9791 13.9951 11.8657 14.1277 11.7569C14.2815 11.6307 14.4393 11.51 14.5972 11.3893C14.7327 11.2858 14.8673 11.1813 15.0057 11.0819C15.1679 10.9654 15.3343 10.855 15.5005 10.7442C15.6412 10.6504 15.781 10.555 15.9244 10.4654C16.095 10.3588 16.2696 10.2591 16.4438 10.1586C16.5893 10.0746 16.7335 9.98864 16.8814 9.90898C17.0606 9.81251 17.2438 9.72357 17.4264 9.63345C17.5748 9.56017 17.7218 9.48415 17.8725 9.41515C18.0205 9.3473 18.1723 9.28721 18.3223 9.2236C15.9595 11.2692 14.0928 14.367 13.038 18.0565C11.8476 17.6378 10.8349 17.1736 10.0361 16.6649C10.0859 16.5753 10.1344 16.4847 10.1857 16.3962ZM9.70546 32.7246C9.63369 32.5833 9.55997 32.443 9.49227 32.2997C9.40667 32.1186 9.32851 31.9343 9.24948 31.7504C9.18726 31.6055 9.1225 31.4617 9.06435 31.3152C8.98969 31.1271 8.9231 30.9359 8.85525 30.7451C8.80317 30.5988 8.748 30.4537 8.69997 30.306C8.63636 30.1103 8.58142 29.9118 8.52491 29.7139C8.48305 29.5673 8.4374 29.4218 8.39947 29.2741C8.34695 29.0698 8.30403 28.8629 8.25909 28.6565C8.2277 28.5124 8.19191 28.3693 8.16421 28.2243C8.12283 28.0076 8.09187 27.7888 8.05882 27.5704C8.03805 27.4332 8.01221 27.2969 7.99477 27.1591C7.96433 26.9185 7.94523 26.6762 7.92498 26.4342C7.91515 26.3168 7.89973 26.2003 7.89228 26.0826C7.86985 25.7273 7.85832 25.3707 7.858 25.0134C7.85812 25.0087 7.86069 25.0048 7.86069 25C7.86069 24.9951 7.858 24.991 7.85788 24.9861C7.8597 22.4639 8.39523 20.0593 9.44095 17.8208C10.3333 18.3754 11.4274 18.8792 12.713 19.324C12.3064 21.1133 12.084 23.0198 12.084 25C12.084 28.1765 12.6497 31.168 13.6448 33.7799C12.3663 33.5924 11.11 33.38 9.91421 33.1243C9.84251 32.9922 9.77355 32.8586 9.70546 32.7246ZM10.8327 34.6333C11.9389 34.845 13.0793 35.029 14.2404 35.1846C15.2989 37.4557 16.6993 39.3749 18.3374 40.7888C15.3274 39.5174 12.7095 37.392 10.8327 34.6333ZM15.7632 35.3783C17.2804 35.5567 18.8532 35.6912 20.4601 35.7807C20.9763 38.2842 21.6874 40.3966 22.5846 41.7636C19.8219 40.8981 17.42 38.5799 15.7632 35.3783ZM25.0011 42.1386C25.0005 42.1386 25 42.1386 24.9994 42.1386C23.9556 42.1378 22.6695 39.8725 21.7887 35.8414C22.8451 35.8833 23.9169 35.9105 24.9975 35.9105C26.0802 35.9105 27.1535 35.8833 28.2109 35.8414C27.3304 39.8718 26.0448 42.137 25.0011 42.1386ZM27.4153 41.7635C28.3125 40.3965 29.0234 38.2842 29.5395 35.7807C31.1436 35.6915 32.7166 35.5573 34.2358 35.3792C32.5791 38.5803 30.1775 40.8982 27.4153 41.7635ZM31.6679 40.784C33.3032 39.3709 34.7013 37.4539 35.7584 35.186C36.9237 35.0294 38.0624 34.8452 39.1621 34.6343C37.2877 37.3891 34.6737 39.5123 31.6679 40.784ZM42.1026 26.0826C42.0952 26.2001 42.0798 26.3165 42.07 26.4337C42.0497 26.676 42.0306 26.9184 42.0002 27.1592C41.9828 27.296 41.9571 27.4313 41.9365 27.5676C41.9034 27.7872 41.8722 28.0071 41.8306 28.225C41.8033 28.3679 41.7679 28.5089 41.7371 28.6511C41.6917 28.8597 41.6482 29.0687 41.5951 29.2753C41.5578 29.4206 41.5129 29.5636 41.4718 29.7078C41.4146 29.9084 41.359 30.1094 41.2945 30.3075C41.2472 30.4529 41.1928 30.5958 41.1417 30.7398C41.073 30.933 41.0056 31.1265 40.9299 31.317C40.8723 31.4622 40.8081 31.6046 40.7465 31.7481C40.6671 31.9331 40.5885 32.1184 40.5025 32.3004C40.434 32.4452 40.3595 32.5871 40.2869 32.73C40.2197 32.8623 40.1516 32.9941 40.0809 33.1246C38.8931 33.3797 37.6374 33.5924 36.3542 33.781C37.3496 31.1688 37.9154 28.1769 37.9154 25C37.9154 23.0201 37.693 21.1137 37.2865 19.3246C38.5703 18.8787 39.6634 18.3748 40.5543 17.8208C41.6011 20.0613 42.1374 22.471 42.1374 24.9987C42.1374 25.361 42.1254 25.7224 42.1026 26.0826ZM47.8998 34.9349C47.4578 34.9349 47.0982 34.5754 47.0982 34.1337C47.0982 33.6917 47.4578 33.3322 47.8998 33.3322C48.3417 33.3322 48.7013 33.6917 48.7013 34.1337C48.7013 34.5754 48.3417 34.9349 47.8998 34.9349Z" fill="#242A35"/>
</svg>
