<svg width="572" height="380" viewBox="0 0 572 380" fill="none" xmlns="http://www.w3.org/2000/svg">
<mask id="mask0_9103_14985" style="mask-type:alpha" maskUnits="userSpaceOnUse" x="0" y="0" width="572" height="380">
<rect width="572" height="380" fill="#FBFBFB"/>
</mask>
<g mask="url(#mask0_9103_14985)">
<path d="M-20.8514 -39.1084L47.4394 0.306282L-20.8514 39.8585L-89.1514 0.443779L-20.8514 -39.1084Z" fill="#65C98B"/>
<path d="M47.4392 0.324219L-20.8516 39.7389V113.069L47.4392 73.6539V0.324219Z" fill="#34614C"/>
<path d="M-20.833 113.05L47.4578 152.464V225.794L-20.833 186.379V113.05Z" fill="#BFF0DD"/>
<path d="M47.4578 73.6094L115.758 113.024L47.4578 152.567L-20.833 113.152L47.4578 73.6094Z" fill="#65C98B"/>
<path d="M-20.833 338.245L47.467 377.66V450.989L-20.833 411.575V338.245Z" fill="#BFF0DD"/>
<path d="M47.467 298.805L115.758 338.219L47.467 377.762L-20.833 338.348L47.467 298.805Z" fill="#65C98B"/>
<path d="M115.758 338.245L47.4668 377.66V450.989L115.758 411.575V338.245Z" fill="#34614C"/>
<path d="M47.4395 225.649L115.739 265.064V338.394L47.4395 298.979V225.649Z" fill="#BFF0DD"/>
<path d="M115.739 186.215L184.03 225.63L115.739 265.182L47.4395 225.767L115.739 186.215Z" fill="#65C98B"/>
<path d="M184.03 225.649L115.739 265.064V338.394L184.03 298.979V225.649Z" fill="#34614C"/>
<path d="M-20.8514 186.225L47.4394 225.639L-20.8514 265.191L-89.1514 225.777L-20.8514 186.225Z" fill="#65C98B"/>
<path d="M47.4392 225.657L-20.8516 265.072V338.402L47.4392 298.987V225.657Z" fill="#34614C"/>
<path d="M47.4395 0.31543L115.739 39.7301V113.06L47.4395 73.6451V0.31543Z" fill="#BFF0DD"/>
<path d="M115.739 -39.127L184.03 0.287724L115.739 39.8582L47.4395 0.44355L115.739 -39.127Z" fill="#65C98B"/>
<path d="M184.03 0.31543L115.739 39.7301V113.06L184.03 73.6451V0.31543Z" fill="#34614C"/>
<path d="M183.93 0.31543L252.229 39.7301V113.06L183.93 73.6451V0.31543Z" fill="#BFF0DD"/>
<path d="M252.229 -39.127L320.52 0.287724L252.229 39.8582L183.93 0.44355L252.229 -39.127Z" fill="#65C98B"/>
<path d="M320.521 0.31543L252.229 39.7301V113.06L320.521 73.6451V0.31543Z" fill="#34614C"/>
<path d="M115.758 113.033L184.049 152.448V225.778L115.758 186.363V113.033Z" fill="#BFF0DD"/>
<path d="M184.049 73.5996L252.339 113.014L184.049 152.566L115.758 113.152L184.049 73.5996Z" fill="#65C98B"/>
<path d="M252.339 113.033L184.049 152.448V225.778L252.339 186.363V113.033Z" fill="#34614C"/>
<path d="M115.167 338.245L183.467 377.66V450.989L115.167 411.575V338.245Z" fill="#BFF0DD"/>
<path d="M251.758 338.245L183.467 377.66V450.989L251.758 411.575V338.245Z" fill="#34614C"/>
<path d="M183.439 225.649L251.739 265.064V338.394L183.439 298.979V225.649Z" fill="#BFF0DD"/>
<path d="M251.739 186.215L320.03 225.63L251.739 265.182L183.439 225.767L251.739 186.215Z" fill="#65C98B"/>
<path d="M183.739 299.215L252.03 338.63L183.739 378.182L115.439 338.767L183.739 299.215Z" fill="#65C98B"/>
<path d="M320.03 225.649L251.739 265.064V338.394L320.03 298.979V225.649Z" fill="#34614C"/>
<path d="M319.93 0.31543L388.229 39.7301V113.06L319.93 73.6451V0.31543Z" fill="#BFF0DD"/>
<path d="M388.229 -39.127L456.52 0.287724L388.229 39.8582L319.93 0.44355L388.229 -39.127Z" fill="#65C98B"/>
<path d="M456.521 0.31543L388.229 39.7301V113.06L456.521 73.6451V0.31543Z" fill="#34614C"/>
<path d="M251.758 113.033L320.049 152.448V225.778L251.758 186.363V113.033Z" fill="#BFF0DD"/>
<path d="M320.049 73.5996L388.339 113.014L320.049 152.566L251.758 113.152L320.049 73.5996Z" fill="#65C98B"/>
<path d="M388.339 113.033L320.049 152.448V225.778L388.339 186.363V113.033Z" fill="#34614C"/>
<path d="M115.759 113.05L47.459 152.464V225.794L115.759 186.379V113.05Z" fill="#34614C"/>
</g>
</svg>
