<svg id="Layer_1" data-name="Layer 1" xmlns="http://www.w3.org/2000/svg" viewBox="0 0 1920 1080"><defs><style>.cls-1{fill:#1f6249;}.cls-2{fill:#43c98b;}.cls-3{fill:#a7d7c5;}</style></defs><path class="cls-1" d="M844.8,762.92l115.11,66.44V952.9L844.8,886.45Z"/><path class="cls-2" d="M959.91,696.47,1075,762.92,959.91,829.55,844.8,763.11Z"/><path class="cls-3" d="M1075,762.92,959.91,829.36V952.9L1075,886.45V762.92Z"/><path class="cls-1" d="M959.91,573.32,1075,639.76V763.29L959.91,696.85Z"/><path class="cls-2" d="M1075,506.87l115.1,66.45L1075,640,959.91,573.5Z"/><path class="cls-3" d="M1190.12,573.32,1075,639.76V763.29l115.1-66.44V573.32Z"/><path class="cls-1" d="M729.69,573.32,844.8,639.76V763.29L729.69,696.85Z"/><path class="cls-2" d="M844.8,506.87l115.11,66.45L844.8,640,729.69,573.5Z"/><path class="cls-3" d="M959.91,573.32,844.8,639.76V763.29l115.11-66.44V573.32Z"/><path class="cls-1" d="M959.91,193.55,1075,260V383.53L959.91,317.08Z"/><path class="cls-2" d="M1075,127.1l115.1,66.45L1075,260.18,959.91,193.74Z"/><path class="cls-3" d="M1190.12,193.55,1075,260V383.53l115.1-66.45V193.55Z"/><path class="cls-1" d="M1189.94,193.55,1305.05,260V383.53l-115.11-66.45Z"/><path class="cls-2" d="M1305.05,127.1l115.11,66.45-115.11,66.63-115.11-66.44Z"/><path class="cls-3" d="M1420.16,193.55,1305.05,260V383.53l115.11-66.45V193.55Z"/><path class="cls-1" d="M499.84,193.55,615,260V383.53L499.84,317.08Z"/><path class="cls-2" d="M615,127.1l115.11,66.45L615,260.18,499.84,193.74Z"/><path class="cls-3" d="M730.06,193.55,615,260V383.53l115.11-66.45V193.55Z"/><path class="cls-1" d="M729.69,193.74,844.8,260.18V383.71L729.69,317.27Z"/><path class="cls-2" d="M844.8,127.29l115.11,66.45L844.8,260.37,729.69,193.92Z"/><path class="cls-3" d="M959.91,193.74,844.8,260.18V383.71l115.11-66.44V193.74Z"/><path class="cls-1" d="M1075,383.53,1190.12,450V573.5L1075,507.06Z"/><path class="cls-2" d="M1190.12,317.08l115.11,66.45-115.11,66.63L1075,383.71Z"/><path class="cls-3" d="M1305.23,383.53,1190.12,450V573.5l115.11-66.44V383.53Z"/><path class="cls-1" d="M844.8,383.53,959.91,450V573.5L844.8,507.06Z"/><path class="cls-2" d="M959.91,317.08,1075,383.53,959.91,450.16,844.8,383.71Z"/><path class="cls-3" d="M1075,383.53,959.91,450V573.5L1075,507.06V383.53Z"/><path class="cls-1" d="M615.14,383.53,730.25,450V573.5L615.14,507.06Z"/><path class="cls-2" d="M730.25,317.08l115.11,66.45L730.25,450.16,615.14,383.71Z"/><path class="cls-3" d="M845.36,383.53,730.25,450V573.5l115.11-66.44V383.53Z"/></svg>