<svg width="48" height="48" viewBox="0 0 48 48" fill="none" xmlns="http://www.w3.org/2000/svg">
<g clip-path="url(#clip0)">
<path d="M29.4902 0C29.4902 0.0847059 29.4902 0.169412 29.4902 0.258824C29.4902 3.29882 27.0259 5.76235 23.9867 5.76235C20.9467 5.76235 18.4831 3.29804 18.4831 0.258824C18.4831 0.169412 18.4831 0.0847059 18.4831 0L0 0V48H48V0H29.4902Z" fill="#242A35"/>
<path d="M11.1494 25.8672H14.3306L16.5024 37.4335H16.5416L19.1518 25.8672H22.1275L24.4851 37.5754H24.5314L27.0067 25.8672H30.1267L26.0726 42.8625H22.9157L20.5777 31.2962H20.5165L18.0137 42.8625H14.798L11.1494 25.8672ZM33.7134 25.8672H38.7283L43.7087 42.8625H40.4271L39.344 39.0805H33.631L32.7949 42.8625H29.5989L33.7134 25.8672ZM35.6224 30.0562L34.2349 36.2915H38.5534L36.9604 30.0562H35.6224Z" fill="white"/>
</g>
<defs>
<clipPath id="clip0">
<rect width="48" height="48" fill="white"/>
</clipPath>
</defs>
</svg>
