<svg id="Layer_1" data-name="Layer 1" xmlns="http://www.w3.org/2000/svg" viewBox="0 0 561 258"><defs><style>.cls-1{fill:#fff;}.cls-2{fill:#18ffb2;}</style></defs><path class="cls-1" d="M96.3,66.61l9.7,29.5,8.3-29.5h14.9l-15.4,49.7H98.7L87.9,84.21l-10.6,32.1H61.9L46.3,66.61H62.1L70.4,96l9.8-29.4Z"/><path class="cls-1" d="M180.7,102c-2.4,8.6-10.3,15.8-22.9,15.8-13.7,0-25.9-9.8-25.9-26.5,0-16,11.9-26.2,24.8-26.2,15.4,0,24.9,9.5,24.9,25.5a31.72,31.72,0,0,1-.3,4.7H146.7c.3,5.6,5.4,9.6,11.3,9.6,5.5,0,8.6-2.6,10-6.5Zm-13.8-16.5c-.2-3.8-2.8-8.4-10-8.4-6.4,0-9.6,4.7-9.9,8.4Z"/><path class="cls-1" d="M191.4,116.31V43.91h14.9v27.4c2.1-3.1,7.6-5.9,14.4-5.9,14.4,0,23.1,11,23.1,25.9,0,15.2-9.8,26.1-23.7,26.1-6.6,0-11.7-2.9-14-6.7v5.6Zm26-37.2c-5.9,0-11.3,3.9-11.3,12.3,0,8.2,5.4,12.4,11.3,12.4s11.2-4.1,11.2-12.4S223.3,79.11,217.4,79.11Z"/><path class="cls-1" d="M263.79,77.71l16-13.1H252.69V51.41H299.5v12.2L283.5,76a19.43,19.43,0,0,1,18.2,19.8c0,11.5-9.5,21.9-25.5,21.9-15.11,0-24.71-9.7-25.71-20.8l15.21-2.8c.2,5.7,4.3,10.2,10.4,10.2s9.7-4.1,9.7-8.9c0-6.2-4.8-8.8-9.4-8.8a13.08,13.08,0,0,0-5.8,1.5Z"/><path class="cls-1" d="M319.7,96.71a10.33,10.33,0,0,1,10.3,10.2,10.25,10.25,0,1,1-20.5,0A10.24,10.24,0,0,1,319.7,96.71Z"/><path class="cls-1" d="M343.5,61c4.3-6.5,11.5-11.1,22-11.1s17.8,4.6,22.1,11.1c4.5,6.8,5.7,14.9,5.7,22.9s-1.2,16.1-5.7,22.9c-4.3,6.4-11.5,11.1-22.1,11.1s-17.7-4.7-22-11.1c-4.5-6.8-5.71-14.9-5.71-22.9S339,67.81,343.5,61ZM356,98c1.8,3.6,4.7,6,9.5,6s7.7-2.4,9.5-6c1.9-3.8,2.5-8.9,2.5-14.1s-.6-10.3-2.5-14.1c-1.8-3.6-4.6-6-9.5-6s-7.7,2.4-9.5,6c-1.8,3.8-2.4,8.9-2.4,14.1S354.2,94.21,356,98Z"/><path class="cls-2" d="M51.9,208.31v-72.4H66.8v27.4c2.1-3.1,7.6-5.9,14.4-5.9,14.4,0,23.1,11,23.1,25.9,0,15.2-9.8,26.1-23.7,26.1-6.6,0-11.7-2.9-14-6.7v5.6Zm26-37.2c-5.9,0-11.3,3.9-11.3,12.3,0,8.2,5.4,12.4,11.3,12.4s11.2-4.1,11.2-12.4S83.8,171.11,77.9,171.11Z"/><path class="cls-2" d="M163.3,183.41c0,15.4-11.5,26.4-26.4,26.4s-26.4-11-26.4-26.4,11.6-26.3,26.4-26.3S163.3,168,163.3,183.41Zm-15.2,0c0-8.4-5.4-12.3-11.2-12.3s-11.2,3.9-11.2,12.3,5.5,12.4,11.2,12.4S148.1,191.81,148.1,183.41Z"/><path class="cls-2" d="M222.3,183.41c0,15.4-11.5,26.4-26.4,26.4s-26.4-11-26.4-26.4,11.6-26.3,26.4-26.3S222.3,168,222.3,183.41Zm-15.2,0c0-8.4-5.4-12.3-11.2-12.3s-11.2,3.9-11.2,12.3,5.5,12.4,11.2,12.4S207.1,191.81,207.1,183.41Z"/><path class="cls-2" d="M250.2,158.61h9.7v13.3h-9.7v18.6c0,4.1,2.2,5.2,5.5,5.2a18.75,18.75,0,0,0,4-.5v12.6c-.6.3-3.1,1.4-7.9,1.4-10.3,0-16.6-6.1-16.6-16v-21.3h-8.8v-13.3h2.5c5.2,0,7.7-3.5,7.7-8.1v-6.4h13.6Z"/><path class="cls-2" d="M281.8,183.51c0,7.9,5.3,12.3,11.6,12.3a10.25,10.25,0,0,0,10.3-7.4l13.4,4.1c-2.2,8.7-10.4,17.3-23.7,17.3-14.8,0-26.7-10.9-26.7-26.3s11.6-26.4,26.2-26.4c13.7,0,21.7,8.4,23.9,17.3l-13.6,4.1a9.77,9.77,0,0,0-10-7.4C286.9,171.11,281.8,175.51,281.8,183.51Z"/><path class="cls-2" d="M338,179.61l11.7-1.8c2.7-.4,3.6-1.7,3.6-3.4,0-2.9-2.5-5.4-7.3-5.4-5.3,0-8.21,3.6-8.5,7.3l-13.21-2.7c.6-7.1,7.2-16.5,21.81-16.5,16.1,0,22,9,22,19.2v24.3a48.84,48.84,0,0,0,.6,7.7H355a24.31,24.31,0,0,1-.5-5.6c-2.6,4.2-7.4,7-14,7-10.91,0-17.21-7.2-17.21-15.1C323.29,185.81,329.79,180.81,338,179.61Zm15.3,9.2v-2.2l-9.4,1.5c-3.2.5-5.61,2-5.61,5.5,0,2.6,1.71,5.1,5.91,5.1C348.7,198.71,353.3,196.51,353.3,188.81Z"/><path class="cls-2" d="M379.59,208.31v-49.7h14.5v5.7c2.5-4.4,8.9-7.2,14.3-7.2,7.11,0,12.21,2.9,14.71,7.8,3.9-5.6,8.7-7.8,15.4-7.8,9.4,0,18.4,5.5,18.4,19v32.2H442.2v-28.8c0-4.7-2.5-8.4-7.9-8.4s-8.3,4.1-8.3,8.5v28.7H411v-28.8c0-4.7-2.5-8.4-8-8.4-5.3,0-8.2,4.1-8.2,8.6v28.6Z"/><path class="cls-2" d="M468.69,227.31v-68.7h14.7v5.1c2.1-3.2,7.5-6.3,14.6-6.3,14.4,0,23.1,11,23.1,25.9,0,15.2-9.8,26.1-23.7,26.1-6.4,0-11.2-2.2-13.5-5v22.9Zm26.2-56.2c-5.9,0-11.2,4-11.2,12.3s5.3,12.4,11.2,12.4,11.3-4.1,11.3-12.4S500.89,171.11,494.89,171.11Z"/></svg>