<svg width="1080" height="497" viewBox="0 0 1080 497" fill="none" xmlns="http://www.w3.org/2000/svg">
<path d="M185.39 128.234L204.064 185.025L220.042 128.234H248.727L219.08 223.913H190.01L169.219 162.116L148.812 223.913H119.165L89.1333 128.234H119.55L135.529 184.813L154.395 128.214L185.39 128.234Z" fill="#242A35"/>
<path d="M347.873 196.364C343.252 212.92 328.044 226.781 303.787 226.781C277.413 226.781 253.926 207.914 253.926 175.765C253.926 144.963 276.835 125.326 301.67 125.326C331.317 125.326 349.605 143.615 349.605 174.417C349.637 177.443 349.444 180.468 349.028 183.465H282.418C282.996 194.246 292.814 201.947 304.172 201.947C314.761 201.947 320.728 196.941 323.424 189.433L347.873 196.364ZM321.306 164.599C320.921 157.283 315.916 148.428 302.055 148.428C289.734 148.428 283.573 157.476 282.996 164.599H321.306Z" fill="#242A35"/>
<path d="M368.471 223.913V84.5332H397.155V137.282C401.198 131.314 411.786 125.924 424.877 125.924C452.599 125.924 469.348 147.1 469.348 175.785C469.348 205.047 450.481 226.031 423.722 226.031C411.016 226.031 401.198 220.448 396.77 213.132V223.913H368.471ZM418.524 152.298C407.166 152.298 396.77 159.806 396.77 175.977C396.77 191.763 407.166 199.849 418.524 199.849C429.882 199.849 440.086 191.956 440.086 175.977C440.086 159.998 429.882 152.298 418.524 152.298Z" fill="#242A35"/>
<path d="M507.833 149.602L538.635 124.383H486.464V98.9712H576.579V122.458L545.777 146.31C555.406 146.919 564.427 151.224 570.956 158.328C577.486 165.431 581.018 174.782 580.815 184.428C580.815 206.567 562.526 226.588 531.724 226.588C502.635 226.588 484.154 207.915 482.229 186.546L511.51 181.155C511.895 192.128 519.788 200.792 531.531 200.792C543.275 200.792 550.205 192.898 550.205 183.658C550.205 171.722 540.964 166.717 532.109 166.717C528.214 166.802 524.391 167.791 520.943 169.604L507.833 149.602Z" fill="#242A35"/>
<path d="M615.466 186.18C620.687 186.194 625.693 188.262 629.403 191.936C633.113 195.61 635.229 200.595 635.295 205.816C635.295 211.049 633.216 216.069 629.515 219.769C625.815 223.47 620.796 225.549 615.562 225.549C610.329 225.549 605.31 223.47 601.609 219.769C597.909 216.069 595.83 211.049 595.83 205.816C595.85 200.614 597.925 195.632 601.603 191.953C605.281 188.275 610.264 186.2 615.466 186.18V186.18Z" fill="#242A35"/>
<path d="M661.284 117.433C669.562 104.92 683.423 96.064 703.636 96.064C723.85 96.064 737.904 104.92 746.182 117.433C754.845 130.524 757.155 146.117 757.155 161.519C757.155 176.92 754.845 192.513 746.182 205.604C737.904 217.925 724.043 226.973 703.636 226.973C683.23 226.973 669.562 217.925 661.284 205.604C652.62 192.513 650.291 176.92 650.291 161.519C650.291 146.117 652.62 130.543 661.284 117.433ZM685.348 188.663C688.813 195.593 694.396 200.214 703.636 200.214C712.877 200.214 718.46 195.593 721.925 188.663C725.583 181.347 726.738 171.529 726.738 161.519C726.738 151.508 725.583 141.69 721.925 134.374C718.46 127.444 713.07 122.823 703.636 122.823C694.203 122.823 688.813 127.444 685.348 134.374C681.882 141.69 680.727 151.508 680.727 161.519C680.727 171.529 681.882 181.367 685.348 188.663Z" fill="#242A35"/>
<path d="M99.9155 401.025V261.646H128.6V314.394C132.643 308.426 143.231 303.036 156.322 303.036C184.044 303.036 200.793 324.212 200.793 352.897C200.793 382.159 181.926 403.143 155.167 403.143C142.461 403.143 132.643 397.56 128.215 390.244V401.025H99.9155ZM149.969 329.41C138.611 329.41 128.215 336.918 128.215 353.089C128.215 368.875 138.611 376.961 149.969 376.961C161.327 376.961 171.53 369.068 171.53 353.089C171.53 337.111 161.327 329.41 149.969 329.41Z" fill="#24CC85"/>
<path d="M314.375 353.088C314.375 382.735 292.236 403.912 263.551 403.912C234.867 403.912 212.728 382.735 212.728 353.088C212.728 323.441 235.059 302.457 263.551 302.457C292.043 302.457 314.375 323.422 314.375 353.088ZM285.113 353.088C285.113 336.917 274.717 329.409 263.551 329.409C252.385 329.409 241.99 336.917 241.99 353.088C241.99 369.259 252.578 376.96 263.551 376.96C274.524 376.96 285.113 369.259 285.113 353.088V353.088Z" fill="#24CC85"/>
<path d="M427.959 353.088C427.959 382.735 405.82 403.912 377.135 403.912C348.451 403.912 326.312 382.735 326.312 353.088C326.312 323.441 348.643 302.457 377.135 302.457C405.627 302.457 427.959 323.422 427.959 353.088ZM398.697 353.088C398.697 336.917 388.301 329.409 377.135 329.409C365.969 329.409 355.574 336.917 355.574 353.088C355.574 369.259 366.162 376.96 377.135 376.96C388.108 376.96 398.697 369.259 398.697 353.088V353.088Z" fill="#24CC85"/>
<path d="M481.668 305.345H500.342V330.949H481.668V366.757C481.668 374.65 485.904 376.768 492.257 376.768C494.85 376.724 497.432 376.402 499.957 375.805V400.062C498.802 400.639 493.989 402.757 484.749 402.757C464.92 402.757 452.791 391.014 452.791 371.955V330.949H435.85V305.345H440.663C450.674 305.345 455.486 298.607 455.486 289.752V277.431H481.668V305.345Z" fill="#24CC85"/>
<path d="M542.503 353.281C542.503 368.489 552.706 376.96 564.835 376.96C569.259 377.155 573.62 375.856 577.217 373.272C580.814 370.688 583.436 366.969 584.664 362.714L610.46 370.607C606.225 387.355 590.439 403.912 564.835 403.912C536.343 403.912 513.434 382.928 513.434 353.281C513.434 323.633 535.765 302.457 563.872 302.457C590.246 302.457 605.647 318.628 609.883 335.762L583.701 343.655C582.647 339.413 580.149 335.672 576.636 333.072C573.123 330.472 568.814 329.177 564.45 329.409C552.321 329.409 542.503 337.879 542.503 353.281Z" fill="#24CC85"/>
<path d="M650.696 345.773L673.22 342.307C678.418 341.537 680.151 339.035 680.151 335.762C680.151 330.179 675.338 325.366 666.097 325.366C655.894 325.366 650.292 332.297 649.734 339.42L624.303 334.222C625.458 320.553 638.164 302.457 666.29 302.457C697.284 302.457 708.643 319.783 708.643 339.42V386.2C708.636 391.164 709.022 396.121 709.798 401.024H683.423C682.687 397.48 682.364 393.862 682.461 390.243C677.456 398.329 668.215 403.719 655.509 403.719C634.506 403.719 622.377 389.858 622.377 374.65C622.377 357.708 634.891 348.083 650.696 345.773ZM680.151 363.484V359.248L662.054 362.136C655.894 363.099 651.254 365.986 651.254 372.724C651.254 377.73 654.546 382.543 662.632 382.543C671.295 382.543 680.151 378.307 680.151 363.484Z" fill="#24CC85"/>
<path d="M730.762 401.024V305.345H758.676V316.318C763.489 307.847 775.81 302.457 786.206 302.457C799.893 302.457 809.711 308.04 814.524 317.473C822.032 306.692 831.273 302.457 844.171 302.457C862.268 302.457 879.594 313.045 879.594 339.035V401.024H851.294V345.58C851.294 336.532 846.481 329.409 836.086 329.409C825.69 329.409 820.107 337.302 820.107 345.773V401.024H791.23V345.58C791.23 336.532 786.417 329.409 775.829 329.409C765.626 329.409 760.043 337.302 760.043 345.965V401.024H730.762Z" fill="#24CC85"/>
<path d="M902.292 437.602V305.345H930.591V315.164C934.634 309.003 945.029 303.035 958.698 303.035C986.42 303.035 1003.17 324.212 1003.17 352.896C1003.17 382.158 984.302 403.142 957.543 403.142C945.222 403.142 935.981 398.907 931.554 393.516V437.602H902.292ZM952.73 329.409C941.372 329.409 931.169 337.11 931.169 353.089C931.169 369.067 941.372 376.96 952.73 376.96C964.088 376.96 974.484 369.067 974.484 353.089C974.484 337.11 964.281 329.409 952.73 329.409Z" fill="#24CC85"/>
</svg>
